0
SECTION
2
HEADER
9
$INSUNITS
70
4
9
$ACADVER
1
AC1014
9
$HANDSEED
5
FFFF
0
ENDSEC
0
SECTION
2
TABLES
0
TABLE
2
VPORT
5
8
100
AcDbSymbolTable
0
ENDTAB
0
TABLE
2
LTYPE
5
5
100
AcDbSymbolTable
0
LTYPE
5
14
100
AcDbSymbolTableRecord
100
AcDbLinetypeTableRecord
2
BYBLOCK
70
0
0
LTYPE
5
15
100
AcDbSymbolTableRecord
100
AcDbLinetypeTableRecord
2
BYLAYER
70
0
0
ENDTAB
0
TABLE
2
LAYER
5
2
100
AcDbSymbolTable
70
2
0
LAYER
5
50
100
AcDbSymbolTableRecord
100
AcDbLayerTableRecord
2
0
70
0
6
CONTINUOUS
0
ENDTAB
0
TABLE
2
STYLE
5
3
100
AcDbSymbolTable
70
1
0
STYLE
5
11
100
AcDbSymbolTableRecord
100
AcDbTextStyleTableRecord
2
STANDARD
70
0
0
ENDTAB
0
TABLE
2
VIEW
5
6
100
AcDbSymbolTable
70
0
0
ENDTAB
0
TABLE
2
UCS
5
7
100
AcDbSymbolTable
70
0
0
ENDTAB
0
TABLE
2
APPID
5
9
100
AcDbSymbolTable
70
2
0
APPID
5
12
100
AcDbSymbolTableRecord
100
AcDbRegAppTableRecord
2
ACAD
70
0
0
ENDTAB
0
TABLE
2
DIMSTYLE
5
A
100
AcDbSymbolTable
70
1
0
ENDTAB
0
TABLE
2
BLOCK_RECORD
5
1
100
AcDbSymbolTable
70
1
0
BLOCK_RECORD
5
1F
100
AcDbSymbolTableRecord
100
AcDbBlockTableRecord
2
*MODEL_SPACE
0
BLOCK_RECORD
5
1B
100
AcDbSymbolTableRecord
100
AcDbBlockTableRecord
2
*PAPER_SPACE
0
ENDTAB
0
ENDSEC
0
SECTION
2
BLOCKS
0
BLOCK
5
20
100
AcDbEntity
100
AcDbBlockBegin
2
*MODEL_SPACE
0
ENDBLK
5
21
100
AcDbEntity
100
AcDbBlockEnd
0
BLOCK
5
1C
100
AcDbEntity
100
AcDbBlockBegin
2
*PAPER_SPACE
0
ENDBLK
5
1D
100
AcDbEntity
100
AcDbBlockEnd
0
ENDSEC
0
SECTION
2
ENTITIES
0
LWPOLYLINE
5
100
100
AcDbEntity
8
0
100
AcDbPolyline
90
4
70
1
43
0.0
10
-21.104547022536835
20
-2.8307403430127023
42
-0.99999999999999989
10
-21.107085297723984
20
-4.3307381953975286
10
-67.733800066624156
20
-4.2518371269938076
42
-0.99999999999999989
10
-67.731261791437035
20
-2.7518392746089844
0
LWPOLYLINE
5
101
100
AcDbEntity
8
0
100
AcDbPolyline
90
4
70
1
43
0.0
10
-16.299999713897691
20
37.749999999999972
10
-16.299999713897712
20
82.250000000000014
42
0.99999999999999989
10
-17.799999713897712
20
82.250000000000014
10
-17.799999713897698
20
37.749999999999964
42
0.99999999999999989
0
LWPOLYLINE
5
102
100
AcDbEntity
8
0
100
AcDbPolyline
90
4
70
1
43
0.0
10
-196.79999971389776
20
-2.7500000000000071
10
-152.29999971389771
20
-2.7500000000000013
42
0.99999999999999989
10
-152.29999971389771
20
-1.2500000000000022
10
-196.79999971389776
20
-1.2500000000000053
42
0.99999999999999989
0
LWPOLYLINE
5
103
100
AcDbEntity
8
0
100
AcDbPolyline
90
4
70
1
43
0.0
10
-132.77399971389772
20
121.81249999999999
42
-0.99999999999999989
10
-132.77399971389772
20
120.3125
10
-177.27399971389772
20
120.31250000000001
42
-0.99999999999999989
10
-177.27399971389772
20
121.8125
0
LWPOLYLINE
5
104
100
AcDbEntity
8
0
100
AcDbPolyline
90
4
70
1
43
0.0
10
-31.799999713897709
20
121.81249999999999
42
-0.99999999999999989
10
-31.799999713897709
20
120.3125
10
-76.299999713897733
20
120.31250000000001
42
-0.99999999999999989
10
-76.299999713897733
20
121.8125
0
LWPOLYLINE
5
105
100
AcDbEntity
8
0
100
AcDbPolyline
90
42
70
1
43
0.0
10
-209.54999971389771
20
23.8125
10
-200.0249997138977
20
23.8125
10
-200.0249997138977
20
42.862499999999997
10
-190.49999971389769
20
42.862499999999997
10
-190.49999971389769
20
61.912500000000001
10
-195.26249971389771
20
61.912500000000001
10
-195.26249971389771
20
80.962500000000006
10
-204.78749971389772
20
80.962500000000006
10
-204.78749971389772
20
100.0125
10
-200.0249997138977
20
100.0125
10
-200.0249997138977
20
119.0625
10
-180.02399971389769
20
119.0625
10
-180.02399971389769
20
126.5625
42
-0.41421356237309503
10
-179.52399971389769
20
127.0625
10
-130.52399971389772
20
127.0625
42
-0.41421356237309503
10
-130.02399971389769
20
126.5625
10
-130.02399971389769
20
119.0625
10
-79.049999713897705
20
119.0625
10
-79.049999713897719
20
126.5625
42
-0.41421356237309503
10
-78.549999713897705
20
127.0625
10
-29.549999713897698
20
127.0625
42
-0.41421356237309243
10
-29.049999713897705
20
126.5625
10
-29.049999713897705
20
119.0625
10
-19.049999713897705
20
119.0625
10
-19.049999713897712
20
85
10
-11.549999713897709
20
85
42
-0.41421356237309503
10
-11.049999713897707
20
84.5
10
-11.0499997138977
20
35.5
42
-0.41421356237309503
10
-11.549999713897698
20
35
10
-19.049999713897705
20
35
10
-19.049999713897705
20
-7.5
42
-0.4142135623730937
10
-19.549999713897705
20
-8
10
-68.549999713897705
20
-7.9999999999999982
42
-0.41421356237309503
10
-69.049999713897705
20
-7.5
10
-69.049999713897705
20
-7.8886090522101181e-30
10
-149.54999971389771
20
0
10
-149.54999971389771
20
-7.5
42
-0.41421356237309503
10
-150.04999971389771
20
-8
10
-199.04999971389771
20
-8.0000000000000071
42
-0.41421356237309503
10
-199.54999971389771
20
-7.5
10
-199.54999971389771
20
-7.8886090522101181e-30
10
-209.54999971389771
20
0
0
CIRCLE
5
106
100
AcDbEntity
8
0
100
AcDbCircle
10
-38.064465807964972
20
16.202466094067262
30
2.2204460492503131e-15
40
20.000000000000004
210
-3.7478022347500279e-188
220
-0
230
1
0
ENDSEC
0
SECTION
2
OBJECTS
0
DICTIONARY
5
C
100
AcDbDictionary
3
ACAD_GROUP
350
D
3
ACAD_MLINESTYLE
350
17
0
DICTIONARY
5
D
100
AcDbDictionary
0
DICTIONARY
5
1A
330
C
100
AcDbDictionary
0
DICTIONARY
5
17
100
AcDbDictionary
0
ENDSEC
0
EOF
