0
SECTION
2
HEADER
9
$INSUNITS
70
4
9
$ACADVER
1
AC1014
9
$HANDSEED
5
FFFF
0
ENDSEC
0
SECTION
2
TABLES
0
TABLE
2
VPORT
5
8
100
AcDbSymbolTable
0
ENDTAB
0
TABLE
2
LTYPE
5
5
100
AcDbSymbolTable
70
2
0
LTYPE
5
14
100
AcDbSymbolTableRecord
100
AcDbLinetypeTableRecord
2
BYBLOCK
70
0
0
LTYPE
5
15
100
AcDbSymbolTableRecord
100
AcDbLinetypeTableRecord
2
BYLAYER
70
0
0
ENDTAB
0
TABLE
2
LAYER
5
2
100
AcDbSymbolTable
70
3
0
LAYER
5
50
100
AcDbSymbolTableRecord
100
AcDbLayerTableRecord
2
0
70
0
6
CONTINUOUS
0
LAYER
5
51
100
AcDbSymbolTableRecord
100
AcDbLayerTableRecord
2
CUTOUTS
70
0
62
1
6
CONTINUOUS
0
LAYER
5
52
100
AcDbSymbolTableRecord
100
AcDbLayerTableRecord
2
PERIMETER
70
0
62
5
6
CONTINUOUS
0
ENDTAB
0
TABLE
2
STYLE
5
3
100
AcDbSymbolTable
70
1
0
STYLE
5
11
100
AcDbSymbolTableRecord
100
AcDbTextStyleTableRecord
2
STANDARD
70
0
0
ENDTAB
0
TABLE
2
VIEW
5
6
100
AcDbSymbolTable
0
ENDTAB
0
TABLE
2
UCS
5
7
100
AcDbSymbolTable
0
ENDTAB
0
TABLE
2
APPID
5
9
100
AcDbSymbolTable
70
1
0
APPID
5
12
100
AcDbSymbolTableRecord
100
AcDbRegAppTableRecord
2
ACAD
70
0
0
ENDTAB
0
TABLE
2
DIMSTYLE
5
A
100
AcDbSymbolTable
0
ENDTAB
0
TABLE
2
BLOCK_RECORD
5
1
100
AcDbSymbolTable
70
2
0
BLOCK_RECORD
5
1F
100
AcDbSymbolTableRecord
100
AcDbBlockTableRecord
2
*MODEL_SPACE
0
BLOCK_RECORD
5
1B
100
AcDbSymbolTableRecord
100
AcDbBlockTableRecord
2
*PAPER_SPACE
0
ENDTAB
0
ENDSEC
0
SECTION
2
BLOCKS
0
BLOCK
5
20
100
AcDbEntity
100
AcDbBlockBegin
2
*MODEL_SPACE
0
ENDBLK
5
21
100
AcDbEntity
100
AcDbBlockEnd
0
BLOCK
5
1C
100
AcDbEntity
100
AcDbBlockBegin
2
*PAPER_SPACE
0
ENDBLK
5
1D
100
AcDbEntity
100
AcDbBlockEnd
0
ENDSEC
0
SECTION
2
ENTITIES
0
LINE
5
100
100
AcDbEntity
8
CUTOUTS
100
AcDbLine
10
-89.192914416173721
20
63.861988195397529
30
0
11
-42.5661996472735
21
63.783087126993806
31
0
0
ARC
5
101
100
AcDbEntity
8
CUTOUTS
100
AcDbCircle
10
-42.567468784867103
20
63.033088200801394
30
0
40
0.74999999999999745
210
0
220
0
230
1
100
AcDbArc
50
-90.096955016581973
51
89.903044983419122
0
LINE
5
102
100
AcDbEntity
8
CUTOUTS
100
AcDbLine
10
-42.56873792246067
20
62.283089274608983
30
0
11
-89.19545269136087
21
62.361990343012707
31
0
0
ARC
5
103
100
AcDbEntity
8
CUTOUTS
100
AcDbCircle
10
-89.194183553767317
20
63.111989269205111
30
0
40
0.75000000000000633
210
0
220
-0
230
1
100
AcDbArc
50
89.903044983416947
51
269.90304498341806
0
LINE
5
104
100
AcDbEntity
8
CUTOUTS
100
AcDbLine
10
-93.999999999999986
20
-22.718750000000014
30
0
11
-94
21
21.781250000000032
31
0
0
ARC
5
105
100
AcDbEntity
8
CUTOUTS
100
AcDbCircle
10
-93.250000000000014
20
21.781250000000036
30
0
40
0.75000000000001066
210
0
220
-0
230
1
100
AcDbArc
50
0
51
180
0
LINE
5
106
100
AcDbEntity
8
CUTOUTS
100
AcDbLine
10
-92.5
20
21.781250000000036
30
0
11
-92.499999999999986
21
-22.718750000000011
31
0
0
ARC
5
107
100
AcDbEntity
8
CUTOUTS
100
AcDbCircle
10
-93.25
20
-22.718750000000014
30
0
40
0.74999999999999289
210
0
220
0
230
1
100
AcDbArc
50
-180
51
0
0
ARC
5
108
100
AcDbEntity
8
CUTOUTS
100
AcDbCircle
10
42.000000000000014
20
61.53125
30
0
40
0.75000000000000178
210
0
220
-0
230
1
100
AcDbArc
50
90
51
270
0
LINE
5
109
100
AcDbEntity
8
CUTOUTS
100
AcDbLine
10
86.500000000000057
20
60.781250000000007
30
0
11
42.000000000000014
21
60.781250000000007
31
0
0
ARC
5
10A
100
AcDbEntity
8
CUTOUTS
100
AcDbCircle
10
86.500000000000057
20
61.531250000000014
30
0
40
0.75000000000000178
210
0
220
0
230
1
100
AcDbArc
50
-90
51
90
0
LINE
5
10B
100
AcDbEntity
8
CUTOUTS
100
AcDbLine
10
42.000000000000014
20
62.28125
30
0
11
86.500000000000057
21
62.281250000000014
31
0
0
LINE
5
10C
100
AcDbEntity
8
CUTOUTS
100
AcDbLine
10
22.474000000000007
20
-60.78125
30
0
11
66.974000000000032
21
-60.781250000000014
31
0
0
ARC
5
10D
100
AcDbEntity
8
CUTOUTS
100
AcDbCircle
10
66.974000000000018
20
-61.531250000000014
30
0
40
0.74999999999999289
210
0
220
0
230
1
100
AcDbArc
50
-90
51
90
0
LINE
5
10E
100
AcDbEntity
8
CUTOUTS
100
AcDbLine
10
66.974000000000018
20
-62.28125
30
0
11
22.474000000000007
21
-62.281249999999986
31
0
0
ARC
5
10F
100
AcDbEntity
8
CUTOUTS
100
AcDbCircle
10
22.474000000000007
20
-61.531249999999993
30
0
40
0.74999999999999289
210
0
220
-0
230
1
100
AcDbArc
50
90
51
270
0
LINE
5
110
100
AcDbEntity
8
CUTOUTS
100
AcDbLine
10
-33.999999999999972
20
-62.28125
30
0
11
-78.5
21
-62.281249999999986
31
0
0
ARC
5
111
100
AcDbEntity
8
CUTOUTS
100
AcDbCircle
10
-78.5
20
-61.531249999999993
30
0
40
0.74999999999999289
210
0
220
-0
230
1
100
AcDbArc
50
90
51
270
0
LINE
5
112
100
AcDbEntity
8
CUTOUTS
100
AcDbLine
10
-78.5
20
-60.78125
30
0
11
-33.999999999999972
21
-60.781250000000014
31
0
0
ARC
5
113
100
AcDbEntity
8
CUTOUTS
100
AcDbCircle
10
-33.999999999999972
20
-61.531250000000014
30
0
40
0.74999999999999289
210
0
220
0
230
1
100
AcDbArc
50
-90
51
90
0
LINE
5
114
100
AcDbEntity
8
PERIMETER
100
AcDbLine
10
19.724000000000004
20
-59.53125
30
0
11
19.724000000000004
21
-67.03125
31
0
0
ARC
5
115
100
AcDbEntity
8
PERIMETER
100
AcDbCircle
10
20.224000000000011
20
-67.03125
30
0
40
0.50000000000000711
210
0
220
0
230
1
100
AcDbArc
50
180
51
270
0
LINE
5
116
100
AcDbEntity
8
PERIMETER
100
AcDbLine
10
20.224000000000011
20
-67.53125
30
0
11
69.22399999999999
21
-67.53125
31
0
0
ARC
5
117
100
AcDbEntity
8
PERIMETER
100
AcDbCircle
10
69.22399999999999
20
-67.03125
30
0
40
0.50000000000000711
210
0
220
0
230
1
100
AcDbArc
50
-90
51
0
0
LINE
5
118
100
AcDbEntity
8
PERIMETER
100
AcDbLine
10
69.724000000000004
20
-67.03125
30
0
11
69.724000000000004
21
-59.53125
31
0
0
LINE
5
119
100
AcDbEntity
8
PERIMETER
100
AcDbLine
10
69.724000000000004
20
-59.53125
30
0
11
89.724999999999994
21
-59.53125
31
0
0
LINE
5
11A
100
AcDbEntity
8
PERIMETER
100
AcDbLine
10
89.724999999999994
20
-59.53125
30
0
11
89.724999999999994
21
-40.481250000000003
31
0
0
LINE
5
11B
100
AcDbEntity
8
PERIMETER
100
AcDbLine
10
89.724999999999994
20
-40.481250000000003
30
0
11
94.487500000000011
21
-40.481250000000003
31
0
0
LINE
5
11C
100
AcDbEntity
8
PERIMETER
100
AcDbLine
10
94.487500000000011
20
-40.481250000000003
30
0
11
94.487500000000011
21
-21.431250000000013
31
0
0
LINE
5
11D
100
AcDbEntity
8
PERIMETER
100
AcDbLine
10
94.487500000000011
20
-21.431250000000013
30
0
11
84.962500000000006
21
-21.431250000000013
31
0
0
LINE
5
11E
100
AcDbEntity
8
PERIMETER
100
AcDbLine
10
84.962500000000006
20
-21.431250000000013
30
0
11
84.962500000000006
21
-2.3812500000000014
31
0
0
LINE
5
11F
100
AcDbEntity
8
PERIMETER
100
AcDbLine
10
84.962500000000006
20
-2.3812500000000014
30
0
11
80.199999999999989
21
-2.3812500000000014
31
0
0
LINE
5
120
100
AcDbEntity
8
PERIMETER
100
AcDbLine
10
80.199999999999989
20
-2.3812500000000014
30
0
11
80.199999999999989
21
16.668750000000003
31
0
0
LINE
5
121
100
AcDbEntity
8
PERIMETER
100
AcDbLine
10
80.199999999999989
20
16.668750000000003
30
0
11
89.724999999999994
21
16.668750000000003
31
0
0
LINE
5
122
100
AcDbEntity
8
PERIMETER
100
AcDbLine
10
89.724999999999994
20
16.668750000000003
30
0
11
89.724999999999994
21
35.71875
31
0
0
LINE
5
123
100
AcDbEntity
8
PERIMETER
100
AcDbLine
10
89.724999999999994
20
35.71875
30
0
11
99.25
21
35.71875
31
0
0
LINE
5
124
100
AcDbEntity
8
PERIMETER
100
AcDbLine
10
99.25
20
35.71875
30
0
11
99.25
21
59.53125
31
0
0
LINE
5
125
100
AcDbEntity
8
PERIMETER
100
AcDbLine
10
99.25
20
59.53125
30
0
11
89.25
21
59.53125
31
0
0
LINE
5
126
100
AcDbEntity
8
PERIMETER
100
AcDbLine
10
89.25
20
59.53125
30
0
11
89.25
21
67.03125
31
0
0
ARC
5
127
100
AcDbEntity
8
PERIMETER
100
AcDbCircle
10
88.75
20
67.03125
30
0
40
0.50000000000000711
210
0
220
-0
230
1
100
AcDbArc
50
0
51
90
0
LINE
5
128
100
AcDbEntity
8
PERIMETER
100
AcDbLine
10
88.75
20
67.53125
30
0
11
39.750000000000014
21
67.53125
31
0
0
ARC
5
129
100
AcDbEntity
8
PERIMETER
100
AcDbCircle
10
39.750000000000014
20
67.03125
30
0
40
0.49999999999999822
210
0
220
-0
230
1
100
AcDbArc
50
90
51
180
0
LINE
5
12A
100
AcDbEntity
8
PERIMETER
100
AcDbLine
10
39.250000000000007
20
67.03125
30
0
11
39.250000000000007
21
59.53125
31
0
0
LINE
5
12B
100
AcDbEntity
8
PERIMETER
100
AcDbLine
10
39.250000000000007
20
59.53125
30
0
11
-41.25
21
59.53125
31
0
0
LINE
5
12C
100
AcDbEntity
8
PERIMETER
100
AcDbLine
10
-41.25
20
59.53125
30
0
11
-41.25
21
67.03125
31
0
0
ARC
5
12D
100
AcDbEntity
8
PERIMETER
100
AcDbCircle
10
-41.75
20
67.03125
30
0
40
0.49999999999999822
210
0
220
-0
230
1
100
AcDbArc
50
0
51
90
0
LINE
5
12E
100
AcDbEntity
8
PERIMETER
100
AcDbLine
10
-41.75
20
67.53125
30
0
11
-90.75
21
67.53125
31
0
0
ARC
5
12F
100
AcDbEntity
8
PERIMETER
100
AcDbCircle
10
-90.75
20
67.03125
30
0
40
0.49999999999999822
210
0
220
-0
230
1
100
AcDbArc
50
90
51
180
0
LINE
5
130
100
AcDbEntity
8
PERIMETER
100
AcDbLine
10
-91.25
20
67.03125
30
0
11
-91.25
21
24.53125
31
0
0
LINE
5
131
100
AcDbEntity
8
PERIMETER
100
AcDbLine
10
-91.25
20
24.53125
30
0
11
-98.75
21
24.53125
31
0
0
ARC
5
132
100
AcDbEntity
8
PERIMETER
100
AcDbCircle
10
-98.75
20
24.03125
30
0
40
0.49999999999999822
210
0
220
-0
230
1
100
AcDbArc
50
90
51
180
0
LINE
5
133
100
AcDbEntity
8
PERIMETER
100
AcDbLine
10
-99.25
20
24.03125
30
0
11
-99.25
21
-24.968749999999993
31
0
0
ARC
5
134
100
AcDbEntity
8
PERIMETER
100
AcDbCircle
10
-98.75
20
-24.968749999999993
30
0
40
0.50000000000000711
210
0
220
0
230
1
100
AcDbArc
50
180
51
270
0
LINE
5
135
100
AcDbEntity
8
PERIMETER
100
AcDbLine
10
-98.75
20
-25.46875
30
0
11
-91.25
21
-25.46875
31
0
0
LINE
5
136
100
AcDbEntity
8
PERIMETER
100
AcDbLine
10
-91.25
20
-25.46875
30
0
11
-91.250000000000014
21
-59.53125
31
0
0
LINE
5
137
100
AcDbEntity
8
PERIMETER
100
AcDbLine
10
-91.25
20
-59.53125
30
0
11
-81.25
21
-59.53125
31
0
0
LINE
5
138
100
AcDbEntity
8
PERIMETER
100
AcDbLine
10
-81.25
20
-59.53125
30
0
11
-81.25
21
-67.03125
31
0
0
ARC
5
139
100
AcDbEntity
8
PERIMETER
100
AcDbCircle
10
-80.75
20
-67.03125
30
0
40
0.50000000000000711
210
0
220
0
230
1
100
AcDbArc
50
180
51
270
0
LINE
5
13A
100
AcDbEntity
8
PERIMETER
100
AcDbLine
10
-80.75
20
-67.53125
30
0
11
-31.749999999999989
21
-67.53125
31
0
0
ARC
5
13B
100
AcDbEntity
8
PERIMETER
100
AcDbCircle
10
-31.75
20
-67.03125
30
0
40
0.50000000000000711
210
0
220
0
230
1
100
AcDbArc
50
-90
51
0
0
LINE
5
13C
100
AcDbEntity
8
PERIMETER
100
AcDbLine
10
-31.249999999999993
20
-67.03125
30
0
11
-31.25
21
-59.53125
31
0
0
LINE
5
13D
100
AcDbEntity
8
PERIMETER
100
AcDbLine
10
-31.25
20
-59.53125
30
0
11
19.724000000000004
21
-59.53125
31
0
0
ENDSEC
0
SECTION
2
OBJECTS
0
DICTIONARY
5
C
100
AcDbDictionary
3
ACAD_GROUP
350
D
3
ACAD_MLINESTYLE
350
17
0
DICTIONARY
5
D
100
AcDbDictionary
0
DICTIONARY
5
1A
330
C
100
AcDbDictionary
0
DICTIONARY
5
17
100
AcDbDictionary
0
ENDSEC
0
EOF
