%TF.GenerationSoftware,KiCad,Pcbnew,(5.99.0-12118-g897269f33f)*%
%TF.CreationDate,2021-09-12T17:19:33-04:00*%
%TF.ProjectId,dadboard,64616462-6f61-4726-942e-6b696361645f,rev?*%
%TF.SameCoordinates,Original*%
%TF.FileFunction,Soldermask,Bot*%
%TF.FilePolarity,Negative*%
%FSLAX46Y46*%
G04 Gerber Fmt 4.6, Leading zero omitted, Abs format (unit mm)*
G04 Created by KiCad (PCBNEW (5.99.0-12118-g897269f33f)) date 2021-09-12 17:19:33*
%MOMM*%
%LPD*%
G01*
G04 APERTURE LIST*
G04 Aperture macros list*
%AMRoundRect*
0 Rectangle with rounded corners*
0 $1 Rounding radius*
0 $2 $3 $4 $5 $6 $7 $8 $9 X,Y pos of 4 corners*
0 Add a 4 corners polygon primitive as box body*
4,1,4,$2,$3,$4,$5,$6,$7,$8,$9,$2,$3,0*
0 Add four circle primitives for the rounded corners*
1,1,$1+$1,$2,$3*
1,1,$1+$1,$4,$5*
1,1,$1+$1,$6,$7*
1,1,$1+$1,$8,$9*
0 Add four rect primitives between the rounded corners*
20,1,$1+$1,$2,$3,$4,$5,0*
20,1,$1+$1,$4,$5,$6,$7,0*
20,1,$1+$1,$6,$7,$8,$9,0*
20,1,$1+$1,$8,$9,$2,$3,0*%
%AMRotRect*
0 Rectangle, with rotation*
0 The origin of the aperture is its center*
0 $1 length*
0 $2 width*
0 $3 Rotation angle, in degrees counterclockwise*
0 Add horizontal line*
21,1,$1,$2,0,0,$3*%
G04 Aperture macros list end*
%ADD10C,3.987800*%
%ADD11C,1.750000*%
%ADD12C,2.250000*%
%ADD13C,3.000000*%
%ADD14R,2.550000X2.500000*%
%ADD15C,0.787400*%
%ADD16C,2.200000*%
%ADD17C,3.048000*%
%ADD18R,2.000000X2.000000*%
%ADD19C,2.000000*%
%ADD20R,3.200000X2.000000*%
%ADD21R,1.200000X0.900000*%
%ADD22RoundRect,0.243750X0.243750X0.456250X-0.243750X0.456250X-0.243750X-0.456250X0.243750X-0.456250X0*%
%ADD23RotRect,1.500000X0.550000X225.000000*%
%ADD24RoundRect,0.062500X0.291682X0.380070X-0.380070X-0.291682X-0.291682X-0.380070X0.380070X0.291682X0*%
%ADD25RotRect,1.500000X0.550000X135.000000*%
%ADD26RoundRect,0.062500X-0.291682X0.380070X-0.380070X0.291682X0.291682X-0.380070X0.380070X-0.291682X0*%
%ADD27RoundRect,0.250000X0.000000X3.323402X-3.323402X0.000000X0.000000X-3.323402X3.323402X0.000000X0*%
%ADD28R,1.400000X1.200000*%
%ADD29R,1.400000X1.000000*%
%ADD30C,0.800000*%
%ADD31O,1.600000X2.000000*%
%ADD32RoundRect,0.243750X-0.243750X-0.456250X0.243750X-0.456250X0.243750X0.456250X-0.243750X0.456250X0*%
%ADD33RoundRect,0.243750X-0.456250X0.243750X-0.456250X-0.243750X0.456250X-0.243750X0.456250X0.243750X0*%
%ADD34RoundRect,0.062500X0.475000X0.062500X-0.475000X0.062500X-0.475000X-0.062500X0.475000X-0.062500X0*%
%ADD35R,1.500000X0.550000*%
%ADD36RoundRect,0.062500X0.062500X0.475000X-0.062500X0.475000X-0.062500X-0.475000X0.062500X-0.475000X0*%
%ADD37R,0.550000X1.500000*%
%ADD38RoundRect,0.250000X2.350000X2.350000X-2.350000X2.350000X-2.350000X-2.350000X2.350000X-2.350000X0*%
%ADD39C,0.650000*%
%ADD40R,0.600000X1.450000*%
%ADD41R,0.300000X1.450000*%
%ADD42RoundRect,0.243750X-0.494975X-0.150260X-0.150260X-0.494975X0.494975X0.150260X0.150260X0.494975X0*%
%ADD43R,2.100000X1.800000*%
%ADD44RotRect,2.100000X1.800000X225.000000*%
%ADD45RoundRect,0.243750X0.456250X-0.243750X0.456250X0.243750X-0.456250X0.243750X-0.456250X-0.243750X0*%
%ADD46RoundRect,0.243750X0.494975X0.150260X0.150260X0.494975X-0.494975X-0.150260X-0.150260X-0.494975X0*%
G04 APERTURE END LIST*
%TO.C,G\u002A\u002A\u002A*%
G36*
X156667200Y-46863000D02*
G01*
X156292061Y-46863000D01*
X156292061Y-52021154D01*
X154947357Y-52021154D01*
X154951493Y-51548324D01*
X154955630Y-51075493D01*
X155338584Y-51066715D01*
X155338584Y-45909524D01*
X156667200Y-45909524D01*
X156667200Y-46863000D01*
G37*
G36*
X151093121Y-52962291D02*
G01*
X152034875Y-52967418D01*
X152159921Y-53009723D01*
X152163063Y-53010796D01*
X152238548Y-53040763D01*
X152316764Y-53078182D01*
X152381266Y-53115214D01*
X152394684Y-53124276D01*
X152478265Y-53190435D01*
X152561984Y-53270916D01*
X152636553Y-53356137D01*
X152692680Y-53436511D01*
X152720579Y-53489849D01*
X152763480Y-53595762D01*
X152797092Y-53709043D01*
X152816516Y-53814728D01*
X152827299Y-53912420D01*
X151906049Y-53912420D01*
X151820353Y-53912413D01*
X151638755Y-53912310D01*
X151484610Y-53912022D01*
X151355239Y-53911470D01*
X151247967Y-53910576D01*
X151160116Y-53909258D01*
X151089009Y-53907439D01*
X151031969Y-53905039D01*
X150986318Y-53901978D01*
X150949379Y-53898177D01*
X150918476Y-53893557D01*
X150890932Y-53888039D01*
X150864068Y-53881543D01*
X150792375Y-53859786D01*
X150713015Y-53829957D01*
X150646645Y-53799481D01*
X150580470Y-53758042D01*
X150491752Y-53686809D01*
X150404994Y-53602197D01*
X150328615Y-53512569D01*
X150271030Y-53426285D01*
X150243822Y-53371235D01*
X150208116Y-53280208D01*
X150178697Y-53183815D01*
X150158727Y-53092843D01*
X150151368Y-53018076D01*
X150151368Y-52957164D01*
X151093121Y-52962291D01*
G37*
G36*
X154533517Y-50157906D02*
G01*
X154498905Y-50331062D01*
X154445814Y-50512629D01*
X154395649Y-50651008D01*
X154307051Y-50845597D01*
X154200478Y-51025190D01*
X154071671Y-51196660D01*
X153916371Y-51366878D01*
X153781492Y-51493150D01*
X153573745Y-51652728D01*
X153351691Y-51784534D01*
X153115681Y-51888393D01*
X152866066Y-51964134D01*
X152603200Y-52011585D01*
X152588279Y-52012763D01*
X152540012Y-52014233D01*
X152471033Y-52014726D01*
X152388206Y-52014216D01*
X152298400Y-52012679D01*
X152206250Y-52009346D01*
X152030026Y-51993963D01*
X151867631Y-51965427D01*
X151708371Y-51921585D01*
X151541551Y-51860284D01*
X151435458Y-51814008D01*
X151206422Y-51690332D01*
X150996136Y-51542606D01*
X150805902Y-51372402D01*
X150637018Y-51181292D01*
X150490787Y-50970849D01*
X150368507Y-50742646D01*
X150271479Y-50498254D01*
X150201004Y-50239247D01*
X150194910Y-50206792D01*
X150182554Y-50106486D01*
X150174660Y-49987113D01*
X150171219Y-49857009D01*
X150171998Y-49754152D01*
X151117727Y-49754152D01*
X151118613Y-49885724D01*
X151129136Y-50012545D01*
X151148957Y-50122016D01*
X151150566Y-50128323D01*
X151214062Y-50312737D01*
X151305837Y-50485853D01*
X151424103Y-50644833D01*
X151567078Y-50786839D01*
X151633986Y-50837249D01*
X151729200Y-50896339D01*
X151834569Y-50952015D01*
X151939319Y-50998638D01*
X152032676Y-51030567D01*
X152092446Y-51042060D01*
X152174427Y-51051370D01*
X152269277Y-51058020D01*
X152368229Y-51061684D01*
X152462516Y-51062042D01*
X152543370Y-51058768D01*
X152602024Y-51051542D01*
X152740286Y-51013896D01*
X152900936Y-50948633D01*
X153051814Y-50864644D01*
X153186015Y-50765859D01*
X153296638Y-50656206D01*
X153381952Y-50545973D01*
X153480165Y-50381030D01*
X153549106Y-50207545D01*
X153589815Y-50022686D01*
X153603338Y-49823624D01*
X153598607Y-49696192D01*
X153577147Y-49550122D01*
X153535830Y-49409436D01*
X153471890Y-49262324D01*
X153458581Y-49236114D01*
X153354740Y-49069932D01*
X153227920Y-48924848D01*
X153078785Y-48801522D01*
X152908000Y-48700617D01*
X152748507Y-48636378D01*
X152565070Y-48592811D01*
X152375876Y-48576591D01*
X152185883Y-48587755D01*
X152000047Y-48626341D01*
X151823326Y-48692386D01*
X151785050Y-48711168D01*
X151625474Y-48809819D01*
X151482575Y-48931771D01*
X151359188Y-49073372D01*
X151258147Y-49230973D01*
X151182288Y-49400921D01*
X151134446Y-49579566D01*
X151126814Y-49630429D01*
X151117727Y-49754152D01*
X150171998Y-49754152D01*
X150172222Y-49724511D01*
X150177662Y-49597954D01*
X150187531Y-49485674D01*
X150201820Y-49396007D01*
X150257151Y-49187150D01*
X150350281Y-48939648D01*
X150469030Y-48708374D01*
X150612266Y-48494781D01*
X150778857Y-48300325D01*
X150967672Y-48126461D01*
X151177579Y-47974643D01*
X151407446Y-47846325D01*
X151424905Y-47837939D01*
X151650257Y-47744294D01*
X151874842Y-47679266D01*
X152105249Y-47641332D01*
X152348069Y-47628971D01*
X152363862Y-47629004D01*
X152575195Y-47638041D01*
X152770851Y-47664462D01*
X152961671Y-47710251D01*
X153158497Y-47777395D01*
X153273008Y-47825728D01*
X153493068Y-47943187D01*
X153699319Y-48086239D01*
X153889129Y-48252169D01*
X154059867Y-48438263D01*
X154208902Y-48641807D01*
X154333602Y-48860086D01*
X154431336Y-49090385D01*
X154439367Y-49113354D01*
X154486815Y-49267310D01*
X154520014Y-49416407D01*
X154541124Y-49572359D01*
X154552301Y-49746877D01*
X154553645Y-49791240D01*
X154553235Y-49823624D01*
X154551235Y-49981764D01*
X154533517Y-50157906D01*
G37*
G36*
X51892200Y-47498000D02*
G01*
X51517061Y-47498000D01*
X51517061Y-52656154D01*
X50172357Y-52656154D01*
X50176493Y-52183324D01*
X50180630Y-51710493D01*
X50563584Y-51701715D01*
X50563584Y-46544524D01*
X51892200Y-46544524D01*
X51892200Y-47498000D01*
G37*
G36*
X46318121Y-53597291D02*
G01*
X47259875Y-53602418D01*
X47384921Y-53644723D01*
X47388063Y-53645796D01*
X47463548Y-53675763D01*
X47541764Y-53713182D01*
X47606266Y-53750214D01*
X47619684Y-53759276D01*
X47703265Y-53825435D01*
X47786984Y-53905916D01*
X47861553Y-53991137D01*
X47917680Y-54071511D01*
X47945579Y-54124849D01*
X47988480Y-54230762D01*
X48022092Y-54344043D01*
X48041516Y-54449728D01*
X48052299Y-54547420D01*
X47131049Y-54547420D01*
X47045353Y-54547413D01*
X46863755Y-54547310D01*
X46709610Y-54547022D01*
X46580239Y-54546470D01*
X46472967Y-54545576D01*
X46385116Y-54544258D01*
X46314009Y-54542439D01*
X46256969Y-54540039D01*
X46211318Y-54536978D01*
X46174379Y-54533177D01*
X46143476Y-54528557D01*
X46115932Y-54523039D01*
X46089068Y-54516543D01*
X46017375Y-54494786D01*
X45938015Y-54464957D01*
X45871645Y-54434481D01*
X45805470Y-54393042D01*
X45716752Y-54321809D01*
X45629994Y-54237197D01*
X45553615Y-54147569D01*
X45496030Y-54061285D01*
X45468822Y-54006235D01*
X45433116Y-53915208D01*
X45403697Y-53818815D01*
X45383727Y-53727843D01*
X45376368Y-53653076D01*
X45376368Y-53592164D01*
X46318121Y-53597291D01*
G37*
G36*
X49758517Y-50792906D02*
G01*
X49723905Y-50966062D01*
X49670814Y-51147629D01*
X49620649Y-51286008D01*
X49532051Y-51480597D01*
X49425478Y-51660190D01*
X49296671Y-51831660D01*
X49141371Y-52001878D01*
X49006492Y-52128150D01*
X48798745Y-52287728D01*
X48576691Y-52419534D01*
X48340681Y-52523393D01*
X48091066Y-52599134D01*
X47828200Y-52646585D01*
X47813279Y-52647763D01*
X47765012Y-52649233D01*
X47696033Y-52649726D01*
X47613206Y-52649216D01*
X47523400Y-52647679D01*
X47431250Y-52644346D01*
X47255026Y-52628963D01*
X47092631Y-52600427D01*
X46933371Y-52556585D01*
X46766551Y-52495284D01*
X46660458Y-52449008D01*
X46431422Y-52325332D01*
X46221136Y-52177606D01*
X46030902Y-52007402D01*
X45862018Y-51816292D01*
X45715787Y-51605849D01*
X45593507Y-51377646D01*
X45496479Y-51133254D01*
X45426004Y-50874247D01*
X45419910Y-50841792D01*
X45407554Y-50741486D01*
X45399660Y-50622113D01*
X45396219Y-50492009D01*
X45396998Y-50389152D01*
X46342727Y-50389152D01*
X46343613Y-50520724D01*
X46354136Y-50647545D01*
X46373957Y-50757016D01*
X46375566Y-50763323D01*
X46439062Y-50947737D01*
X46530837Y-51120853D01*
X46649103Y-51279833D01*
X46792078Y-51421839D01*
X46858986Y-51472249D01*
X46954200Y-51531339D01*
X47059569Y-51587015D01*
X47164319Y-51633638D01*
X47257676Y-51665567D01*
X47317446Y-51677060D01*
X47399427Y-51686370D01*
X47494277Y-51693020D01*
X47593229Y-51696684D01*
X47687516Y-51697042D01*
X47768370Y-51693768D01*
X47827024Y-51686542D01*
X47965286Y-51648896D01*
X48125936Y-51583633D01*
X48276814Y-51499644D01*
X48411015Y-51400859D01*
X48521638Y-51291206D01*
X48606952Y-51180973D01*
X48705165Y-51016030D01*
X48774106Y-50842545D01*
X48814815Y-50657686D01*
X48828338Y-50458624D01*
X48823607Y-50331192D01*
X48802147Y-50185122D01*
X48760830Y-50044436D01*
X48696890Y-49897324D01*
X48683581Y-49871114D01*
X48579740Y-49704932D01*
X48452920Y-49559848D01*
X48303785Y-49436522D01*
X48133000Y-49335617D01*
X47973507Y-49271378D01*
X47790070Y-49227811D01*
X47600876Y-49211591D01*
X47410883Y-49222755D01*
X47225047Y-49261341D01*
X47048326Y-49327386D01*
X47010050Y-49346168D01*
X46850474Y-49444819D01*
X46707575Y-49566771D01*
X46584188Y-49708372D01*
X46483147Y-49865973D01*
X46407288Y-50035921D01*
X46359446Y-50214566D01*
X46351814Y-50265429D01*
X46342727Y-50389152D01*
X45396998Y-50389152D01*
X45397222Y-50359511D01*
X45402662Y-50232954D01*
X45412531Y-50120674D01*
X45426820Y-50031007D01*
X45482151Y-49822150D01*
X45575281Y-49574648D01*
X45694030Y-49343374D01*
X45837266Y-49129781D01*
X46003857Y-48935325D01*
X46192672Y-48761461D01*
X46402579Y-48609643D01*
X46632446Y-48481325D01*
X46649905Y-48472939D01*
X46875257Y-48379294D01*
X47099842Y-48314266D01*
X47330249Y-48276332D01*
X47573069Y-48263971D01*
X47588862Y-48264004D01*
X47800195Y-48273041D01*
X47995851Y-48299462D01*
X48186671Y-48345251D01*
X48383497Y-48412395D01*
X48498008Y-48460728D01*
X48718068Y-48578187D01*
X48924319Y-48721239D01*
X49114129Y-48887169D01*
X49284867Y-49073263D01*
X49433902Y-49276807D01*
X49558602Y-49495086D01*
X49656336Y-49725385D01*
X49664367Y-49748354D01*
X49711815Y-49902310D01*
X49745014Y-50051407D01*
X49766124Y-50207359D01*
X49777301Y-50381877D01*
X49778645Y-50426240D01*
X49778235Y-50458624D01*
X49776235Y-50616764D01*
X49758517Y-50792906D01*
G37*
G36*
X291428121Y-77981291D02*
G01*
X292369875Y-77986418D01*
X292494921Y-78028723D01*
X292498063Y-78029796D01*
X292573548Y-78059763D01*
X292651764Y-78097182D01*
X292716266Y-78134214D01*
X292729684Y-78143276D01*
X292813265Y-78209435D01*
X292896984Y-78289916D01*
X292971553Y-78375137D01*
X293027680Y-78455511D01*
X293055579Y-78508849D01*
X293098480Y-78614762D01*
X293132092Y-78728043D01*
X293151516Y-78833728D01*
X293162299Y-78931420D01*
X292241049Y-78931420D01*
X292155353Y-78931413D01*
X291973755Y-78931310D01*
X291819610Y-78931022D01*
X291690239Y-78930470D01*
X291582967Y-78929576D01*
X291495116Y-78928258D01*
X291424009Y-78926439D01*
X291366969Y-78924039D01*
X291321318Y-78920978D01*
X291284379Y-78917177D01*
X291253476Y-78912557D01*
X291225932Y-78907039D01*
X291199068Y-78900543D01*
X291127375Y-78878786D01*
X291048015Y-78848957D01*
X290981645Y-78818481D01*
X290915470Y-78777042D01*
X290826752Y-78705809D01*
X290739994Y-78621197D01*
X290663615Y-78531569D01*
X290606030Y-78445285D01*
X290578822Y-78390235D01*
X290543116Y-78299208D01*
X290513697Y-78202815D01*
X290493727Y-78111843D01*
X290486368Y-78037076D01*
X290486368Y-77976164D01*
X291428121Y-77981291D01*
G37*
G36*
X297002200Y-71882000D02*
G01*
X296627061Y-71882000D01*
X296627061Y-77040154D01*
X295282357Y-77040154D01*
X295286493Y-76567324D01*
X295290630Y-76094493D01*
X295673584Y-76085715D01*
X295673584Y-70928524D01*
X297002200Y-70928524D01*
X297002200Y-71882000D01*
G37*
G36*
X294868517Y-75176906D02*
G01*
X294833905Y-75350062D01*
X294780814Y-75531629D01*
X294730649Y-75670008D01*
X294642051Y-75864597D01*
X294535478Y-76044190D01*
X294406671Y-76215660D01*
X294251371Y-76385878D01*
X294116492Y-76512150D01*
X293908745Y-76671728D01*
X293686691Y-76803534D01*
X293450681Y-76907393D01*
X293201066Y-76983134D01*
X292938200Y-77030585D01*
X292923279Y-77031763D01*
X292875012Y-77033233D01*
X292806033Y-77033726D01*
X292723206Y-77033216D01*
X292633400Y-77031679D01*
X292541250Y-77028346D01*
X292365026Y-77012963D01*
X292202631Y-76984427D01*
X292043371Y-76940585D01*
X291876551Y-76879284D01*
X291770458Y-76833008D01*
X291541422Y-76709332D01*
X291331136Y-76561606D01*
X291140902Y-76391402D01*
X290972018Y-76200292D01*
X290825787Y-75989849D01*
X290703507Y-75761646D01*
X290606479Y-75517254D01*
X290536004Y-75258247D01*
X290529910Y-75225792D01*
X290517554Y-75125486D01*
X290509660Y-75006113D01*
X290506219Y-74876009D01*
X290506998Y-74773152D01*
X291452727Y-74773152D01*
X291453613Y-74904724D01*
X291464136Y-75031545D01*
X291483957Y-75141016D01*
X291485566Y-75147323D01*
X291549062Y-75331737D01*
X291640837Y-75504853D01*
X291759103Y-75663833D01*
X291902078Y-75805839D01*
X291968986Y-75856249D01*
X292064200Y-75915339D01*
X292169569Y-75971015D01*
X292274319Y-76017638D01*
X292367676Y-76049567D01*
X292427446Y-76061060D01*
X292509427Y-76070370D01*
X292604277Y-76077020D01*
X292703229Y-76080684D01*
X292797516Y-76081042D01*
X292878370Y-76077768D01*
X292937024Y-76070542D01*
X293075286Y-76032896D01*
X293235936Y-75967633D01*
X293386814Y-75883644D01*
X293521015Y-75784859D01*
X293631638Y-75675206D01*
X293716952Y-75564973D01*
X293815165Y-75400030D01*
X293884106Y-75226545D01*
X293924815Y-75041686D01*
X293938338Y-74842624D01*
X293933607Y-74715192D01*
X293912147Y-74569122D01*
X293870830Y-74428436D01*
X293806890Y-74281324D01*
X293793581Y-74255114D01*
X293689740Y-74088932D01*
X293562920Y-73943848D01*
X293413785Y-73820522D01*
X293243000Y-73719617D01*
X293083507Y-73655378D01*
X292900070Y-73611811D01*
X292710876Y-73595591D01*
X292520883Y-73606755D01*
X292335047Y-73645341D01*
X292158326Y-73711386D01*
X292120050Y-73730168D01*
X291960474Y-73828819D01*
X291817575Y-73950771D01*
X291694188Y-74092372D01*
X291593147Y-74249973D01*
X291517288Y-74419921D01*
X291469446Y-74598566D01*
X291461814Y-74649429D01*
X291452727Y-74773152D01*
X290506998Y-74773152D01*
X290507222Y-74743511D01*
X290512662Y-74616954D01*
X290522531Y-74504674D01*
X290536820Y-74415007D01*
X290592151Y-74206150D01*
X290685281Y-73958648D01*
X290804030Y-73727374D01*
X290947266Y-73513781D01*
X291113857Y-73319325D01*
X291302672Y-73145461D01*
X291512579Y-72993643D01*
X291742446Y-72865325D01*
X291759905Y-72856939D01*
X291985257Y-72763294D01*
X292209842Y-72698266D01*
X292440249Y-72660332D01*
X292683069Y-72647971D01*
X292698862Y-72648004D01*
X292910195Y-72657041D01*
X293105851Y-72683462D01*
X293296671Y-72729251D01*
X293493497Y-72796395D01*
X293608008Y-72844728D01*
X293828068Y-72962187D01*
X294034319Y-73105239D01*
X294224129Y-73271169D01*
X294394867Y-73457263D01*
X294543902Y-73660807D01*
X294668602Y-73879086D01*
X294766336Y-74109385D01*
X294774367Y-74132354D01*
X294821815Y-74286310D01*
X294855014Y-74435407D01*
X294876124Y-74591359D01*
X294887301Y-74765877D01*
X294888645Y-74810240D01*
X294888235Y-74842624D01*
X294886235Y-75000764D01*
X294868517Y-75176906D01*
G37*
G36*
X291555121Y74037709D02*
G01*
X292496875Y74032582D01*
X292621921Y73990277D01*
X292625063Y73989204D01*
X292700548Y73959237D01*
X292778764Y73921818D01*
X292843266Y73884786D01*
X292856684Y73875724D01*
X292940265Y73809565D01*
X293023984Y73729084D01*
X293098553Y73643863D01*
X293154680Y73563489D01*
X293182579Y73510151D01*
X293225480Y73404238D01*
X293259092Y73290957D01*
X293278516Y73185272D01*
X293289299Y73087580D01*
X292368049Y73087580D01*
X292282353Y73087587D01*
X292100755Y73087690D01*
X291946610Y73087978D01*
X291817239Y73088530D01*
X291709967Y73089424D01*
X291622116Y73090742D01*
X291551009Y73092561D01*
X291493969Y73094961D01*
X291448318Y73098022D01*
X291411379Y73101823D01*
X291380476Y73106443D01*
X291352932Y73111961D01*
X291326068Y73118457D01*
X291254375Y73140214D01*
X291175015Y73170043D01*
X291108645Y73200519D01*
X291042470Y73241958D01*
X290953752Y73313191D01*
X290866994Y73397803D01*
X290790615Y73487431D01*
X290733030Y73573715D01*
X290705822Y73628765D01*
X290670116Y73719792D01*
X290640697Y73816185D01*
X290620727Y73907157D01*
X290613368Y73981924D01*
X290613368Y74042836D01*
X291555121Y74037709D01*
G37*
G36*
X297129200Y80137000D02*
G01*
X296754061Y80137000D01*
X296754061Y74978846D01*
X295409357Y74978846D01*
X295413493Y75451676D01*
X295417630Y75924507D01*
X295800584Y75933285D01*
X295800584Y81090476D01*
X297129200Y81090476D01*
X297129200Y80137000D01*
G37*
G36*
X294995517Y76842094D02*
G01*
X294960905Y76668938D01*
X294907814Y76487371D01*
X294857649Y76348992D01*
X294769051Y76154403D01*
X294662478Y75974810D01*
X294533671Y75803340D01*
X294378371Y75633122D01*
X294243492Y75506850D01*
X294035745Y75347272D01*
X293813691Y75215466D01*
X293577681Y75111607D01*
X293328066Y75035866D01*
X293065200Y74988415D01*
X293050279Y74987237D01*
X293002012Y74985767D01*
X292933033Y74985274D01*
X292850206Y74985784D01*
X292760400Y74987321D01*
X292668250Y74990654D01*
X292492026Y75006037D01*
X292329631Y75034573D01*
X292170371Y75078415D01*
X292003551Y75139716D01*
X291897458Y75185992D01*
X291668422Y75309668D01*
X291458136Y75457394D01*
X291267902Y75627598D01*
X291099018Y75818708D01*
X290952787Y76029151D01*
X290830507Y76257354D01*
X290733479Y76501746D01*
X290663004Y76760753D01*
X290656910Y76793208D01*
X290644554Y76893514D01*
X290636660Y77012887D01*
X290633219Y77142991D01*
X290633998Y77245848D01*
X291579727Y77245848D01*
X291580613Y77114276D01*
X291591136Y76987455D01*
X291610957Y76877984D01*
X291612566Y76871677D01*
X291676062Y76687263D01*
X291767837Y76514147D01*
X291886103Y76355167D01*
X292029078Y76213161D01*
X292095986Y76162751D01*
X292191200Y76103661D01*
X292296569Y76047985D01*
X292401319Y76001362D01*
X292494676Y75969433D01*
X292554446Y75957940D01*
X292636427Y75948630D01*
X292731277Y75941980D01*
X292830229Y75938316D01*
X292924516Y75937958D01*
X293005370Y75941232D01*
X293064024Y75948458D01*
X293202286Y75986104D01*
X293362936Y76051367D01*
X293513814Y76135356D01*
X293648015Y76234141D01*
X293758638Y76343794D01*
X293843952Y76454027D01*
X293942165Y76618970D01*
X294011106Y76792455D01*
X294051815Y76977314D01*
X294065338Y77176376D01*
X294060607Y77303808D01*
X294039147Y77449878D01*
X293997830Y77590564D01*
X293933890Y77737676D01*
X293920581Y77763886D01*
X293816740Y77930068D01*
X293689920Y78075152D01*
X293540785Y78198478D01*
X293370000Y78299383D01*
X293210507Y78363622D01*
X293027070Y78407189D01*
X292837876Y78423409D01*
X292647883Y78412245D01*
X292462047Y78373659D01*
X292285326Y78307614D01*
X292247050Y78288832D01*
X292087474Y78190181D01*
X291944575Y78068229D01*
X291821188Y77926628D01*
X291720147Y77769027D01*
X291644288Y77599079D01*
X291596446Y77420434D01*
X291588814Y77369571D01*
X291579727Y77245848D01*
X290633998Y77245848D01*
X290634222Y77275489D01*
X290639662Y77402046D01*
X290649531Y77514326D01*
X290663820Y77603993D01*
X290719151Y77812850D01*
X290812281Y78060352D01*
X290931030Y78291626D01*
X291074266Y78505219D01*
X291240857Y78699675D01*
X291429672Y78873539D01*
X291639579Y79025357D01*
X291869446Y79153675D01*
X291886905Y79162061D01*
X292112257Y79255706D01*
X292336842Y79320734D01*
X292567249Y79358668D01*
X292810069Y79371029D01*
X292825862Y79370996D01*
X293037195Y79361959D01*
X293232851Y79335538D01*
X293423671Y79289749D01*
X293620497Y79222605D01*
X293735008Y79174272D01*
X293955068Y79056813D01*
X294161319Y78913761D01*
X294351129Y78747831D01*
X294521867Y78561737D01*
X294670902Y78358193D01*
X294795602Y78139914D01*
X294893336Y77909615D01*
X294901367Y77886646D01*
X294948815Y77732690D01*
X294982014Y77583593D01*
X295003124Y77427641D01*
X295014301Y77253123D01*
X295015645Y77208760D01*
X295015235Y77176376D01*
X295013235Y77018236D01*
X294995517Y76842094D01*
G37*
G36*
X-97445879Y75307709D02*
G01*
X-96504125Y75302582D01*
X-96379079Y75260277D01*
X-96375937Y75259204D01*
X-96300452Y75229237D01*
X-96222236Y75191818D01*
X-96157734Y75154786D01*
X-96144316Y75145724D01*
X-96060735Y75079565D01*
X-95977016Y74999084D01*
X-95902447Y74913863D01*
X-95846320Y74833489D01*
X-95818421Y74780151D01*
X-95775520Y74674238D01*
X-95741908Y74560957D01*
X-95722484Y74455272D01*
X-95711701Y74357580D01*
X-96632951Y74357580D01*
X-96718647Y74357587D01*
X-96900245Y74357690D01*
X-97054390Y74357978D01*
X-97183761Y74358530D01*
X-97291033Y74359424D01*
X-97378884Y74360742D01*
X-97449991Y74362561D01*
X-97507031Y74364961D01*
X-97552682Y74368022D01*
X-97589621Y74371823D01*
X-97620524Y74376443D01*
X-97648068Y74381961D01*
X-97674932Y74388457D01*
X-97746625Y74410214D01*
X-97825985Y74440043D01*
X-97892355Y74470519D01*
X-97958530Y74511958D01*
X-98047248Y74583191D01*
X-98134006Y74667803D01*
X-98210385Y74757431D01*
X-98267970Y74843715D01*
X-98295178Y74898765D01*
X-98330884Y74989792D01*
X-98360303Y75086185D01*
X-98380273Y75177157D01*
X-98387632Y75251924D01*
X-98387632Y75312836D01*
X-97445879Y75307709D01*
G37*
G36*
X-91871800Y81407000D02*
G01*
X-92246939Y81407000D01*
X-92246939Y76248846D01*
X-93591643Y76248846D01*
X-93587507Y76721676D01*
X-93583370Y77194507D01*
X-93200416Y77203285D01*
X-93200416Y82360476D01*
X-91871800Y82360476D01*
X-91871800Y81407000D01*
G37*
G36*
X-94005483Y78112094D02*
G01*
X-94040095Y77938938D01*
X-94093186Y77757371D01*
X-94143351Y77618992D01*
X-94231949Y77424403D01*
X-94338522Y77244810D01*
X-94467329Y77073340D01*
X-94622629Y76903122D01*
X-94757508Y76776850D01*
X-94965255Y76617272D01*
X-95187309Y76485466D01*
X-95423319Y76381607D01*
X-95672934Y76305866D01*
X-95935800Y76258415D01*
X-95950721Y76257237D01*
X-95998988Y76255767D01*
X-96067967Y76255274D01*
X-96150794Y76255784D01*
X-96240600Y76257321D01*
X-96332750Y76260654D01*
X-96508974Y76276037D01*
X-96671369Y76304573D01*
X-96830629Y76348415D01*
X-96997449Y76409716D01*
X-97103542Y76455992D01*
X-97332578Y76579668D01*
X-97542864Y76727394D01*
X-97733098Y76897598D01*
X-97901982Y77088708D01*
X-98048213Y77299151D01*
X-98170493Y77527354D01*
X-98267521Y77771746D01*
X-98337996Y78030753D01*
X-98344090Y78063208D01*
X-98356446Y78163514D01*
X-98364340Y78282887D01*
X-98367781Y78412991D01*
X-98367002Y78515848D01*
X-97421273Y78515848D01*
X-97420387Y78384276D01*
X-97409864Y78257455D01*
X-97390043Y78147984D01*
X-97388434Y78141677D01*
X-97324938Y77957263D01*
X-97233163Y77784147D01*
X-97114897Y77625167D01*
X-96971922Y77483161D01*
X-96905014Y77432751D01*
X-96809800Y77373661D01*
X-96704431Y77317985D01*
X-96599681Y77271362D01*
X-96506324Y77239433D01*
X-96446554Y77227940D01*
X-96364573Y77218630D01*
X-96269723Y77211980D01*
X-96170771Y77208316D01*
X-96076484Y77207958D01*
X-95995630Y77211232D01*
X-95936976Y77218458D01*
X-95798714Y77256104D01*
X-95638064Y77321367D01*
X-95487186Y77405356D01*
X-95352985Y77504141D01*
X-95242362Y77613794D01*
X-95157048Y77724027D01*
X-95058835Y77888970D01*
X-94989894Y78062455D01*
X-94949185Y78247314D01*
X-94935662Y78446376D01*
X-94940393Y78573808D01*
X-94961853Y78719878D01*
X-95003170Y78860564D01*
X-95067110Y79007676D01*
X-95080419Y79033886D01*
X-95184260Y79200068D01*
X-95311080Y79345152D01*
X-95460215Y79468478D01*
X-95631000Y79569383D01*
X-95790493Y79633622D01*
X-95973930Y79677189D01*
X-96163124Y79693409D01*
X-96353117Y79682245D01*
X-96538953Y79643659D01*
X-96715674Y79577614D01*
X-96753950Y79558832D01*
X-96913526Y79460181D01*
X-97056425Y79338229D01*
X-97179812Y79196628D01*
X-97280853Y79039027D01*
X-97356712Y78869079D01*
X-97404554Y78690434D01*
X-97412186Y78639571D01*
X-97421273Y78515848D01*
X-98367002Y78515848D01*
X-98366778Y78545489D01*
X-98361338Y78672046D01*
X-98351469Y78784326D01*
X-98337180Y78873993D01*
X-98281849Y79082850D01*
X-98188719Y79330352D01*
X-98069970Y79561626D01*
X-97926734Y79775219D01*
X-97760143Y79969675D01*
X-97571328Y80143539D01*
X-97361421Y80295357D01*
X-97131554Y80423675D01*
X-97114095Y80432061D01*
X-96888743Y80525706D01*
X-96664158Y80590734D01*
X-96433751Y80628668D01*
X-96190931Y80641029D01*
X-96175138Y80640996D01*
X-95963805Y80631959D01*
X-95768149Y80605538D01*
X-95577329Y80559749D01*
X-95380503Y80492605D01*
X-95265992Y80444272D01*
X-95045932Y80326813D01*
X-94839681Y80183761D01*
X-94649871Y80017831D01*
X-94479133Y79831737D01*
X-94330098Y79628193D01*
X-94205398Y79409914D01*
X-94107664Y79179615D01*
X-94099633Y79156646D01*
X-94052185Y79002690D01*
X-94018986Y78853593D01*
X-93997876Y78697641D01*
X-93986699Y78523123D01*
X-93985355Y78478760D01*
X-93985765Y78446376D01*
X-93987765Y78288236D01*
X-94005483Y78112094D01*
G37*
G36*
X-97445879Y-79505291D02*
G01*
X-96504125Y-79510418D01*
X-96379079Y-79552723D01*
X-96375937Y-79553796D01*
X-96300452Y-79583763D01*
X-96222236Y-79621182D01*
X-96157734Y-79658214D01*
X-96144316Y-79667276D01*
X-96060735Y-79733435D01*
X-95977016Y-79813916D01*
X-95902447Y-79899137D01*
X-95846320Y-79979511D01*
X-95818421Y-80032849D01*
X-95775520Y-80138762D01*
X-95741908Y-80252043D01*
X-95722484Y-80357728D01*
X-95711701Y-80455420D01*
X-96632951Y-80455420D01*
X-96718647Y-80455413D01*
X-96900245Y-80455310D01*
X-97054390Y-80455022D01*
X-97183761Y-80454470D01*
X-97291033Y-80453576D01*
X-97378884Y-80452258D01*
X-97449991Y-80450439D01*
X-97507031Y-80448039D01*
X-97552682Y-80444978D01*
X-97589621Y-80441177D01*
X-97620524Y-80436557D01*
X-97648068Y-80431039D01*
X-97674932Y-80424543D01*
X-97746625Y-80402786D01*
X-97825985Y-80372957D01*
X-97892355Y-80342481D01*
X-97958530Y-80301042D01*
X-98047248Y-80229809D01*
X-98134006Y-80145197D01*
X-98210385Y-80055569D01*
X-98267970Y-79969285D01*
X-98295178Y-79914235D01*
X-98330884Y-79823208D01*
X-98360303Y-79726815D01*
X-98380273Y-79635843D01*
X-98387632Y-79561076D01*
X-98387632Y-79500164D01*
X-97445879Y-79505291D01*
G37*
G36*
X-91871800Y-73406000D02*
G01*
X-92246939Y-73406000D01*
X-92246939Y-78564154D01*
X-93591643Y-78564154D01*
X-93587507Y-78091324D01*
X-93583370Y-77618493D01*
X-93200416Y-77609715D01*
X-93200416Y-72452524D01*
X-91871800Y-72452524D01*
X-91871800Y-73406000D01*
G37*
G36*
X-94005483Y-76700906D02*
G01*
X-94040095Y-76874062D01*
X-94093186Y-77055629D01*
X-94143351Y-77194008D01*
X-94231949Y-77388597D01*
X-94338522Y-77568190D01*
X-94467329Y-77739660D01*
X-94622629Y-77909878D01*
X-94757508Y-78036150D01*
X-94965255Y-78195728D01*
X-95187309Y-78327534D01*
X-95423319Y-78431393D01*
X-95672934Y-78507134D01*
X-95935800Y-78554585D01*
X-95950721Y-78555763D01*
X-95998988Y-78557233D01*
X-96067967Y-78557726D01*
X-96150794Y-78557216D01*
X-96240600Y-78555679D01*
X-96332750Y-78552346D01*
X-96508974Y-78536963D01*
X-96671369Y-78508427D01*
X-96830629Y-78464585D01*
X-96997449Y-78403284D01*
X-97103542Y-78357008D01*
X-97332578Y-78233332D01*
X-97542864Y-78085606D01*
X-97733098Y-77915402D01*
X-97901982Y-77724292D01*
X-98048213Y-77513849D01*
X-98170493Y-77285646D01*
X-98267521Y-77041254D01*
X-98337996Y-76782247D01*
X-98344090Y-76749792D01*
X-98356446Y-76649486D01*
X-98364340Y-76530113D01*
X-98367781Y-76400009D01*
X-98367002Y-76297152D01*
X-97421273Y-76297152D01*
X-97420387Y-76428724D01*
X-97409864Y-76555545D01*
X-97390043Y-76665016D01*
X-97388434Y-76671323D01*
X-97324938Y-76855737D01*
X-97233163Y-77028853D01*
X-97114897Y-77187833D01*
X-96971922Y-77329839D01*
X-96905014Y-77380249D01*
X-96809800Y-77439339D01*
X-96704431Y-77495015D01*
X-96599681Y-77541638D01*
X-96506324Y-77573567D01*
X-96446554Y-77585060D01*
X-96364573Y-77594370D01*
X-96269723Y-77601020D01*
X-96170771Y-77604684D01*
X-96076484Y-77605042D01*
X-95995630Y-77601768D01*
X-95936976Y-77594542D01*
X-95798714Y-77556896D01*
X-95638064Y-77491633D01*
X-95487186Y-77407644D01*
X-95352985Y-77308859D01*
X-95242362Y-77199206D01*
X-95157048Y-77088973D01*
X-95058835Y-76924030D01*
X-94989894Y-76750545D01*
X-94949185Y-76565686D01*
X-94935662Y-76366624D01*
X-94940393Y-76239192D01*
X-94961853Y-76093122D01*
X-95003170Y-75952436D01*
X-95067110Y-75805324D01*
X-95080419Y-75779114D01*
X-95184260Y-75612932D01*
X-95311080Y-75467848D01*
X-95460215Y-75344522D01*
X-95631000Y-75243617D01*
X-95790493Y-75179378D01*
X-95973930Y-75135811D01*
X-96163124Y-75119591D01*
X-96353117Y-75130755D01*
X-96538953Y-75169341D01*
X-96715674Y-75235386D01*
X-96753950Y-75254168D01*
X-96913526Y-75352819D01*
X-97056425Y-75474771D01*
X-97179812Y-75616372D01*
X-97280853Y-75773973D01*
X-97356712Y-75943921D01*
X-97404554Y-76122566D01*
X-97412186Y-76173429D01*
X-97421273Y-76297152D01*
X-98367002Y-76297152D01*
X-98366778Y-76267511D01*
X-98361338Y-76140954D01*
X-98351469Y-76028674D01*
X-98337180Y-75939007D01*
X-98281849Y-75730150D01*
X-98188719Y-75482648D01*
X-98069970Y-75251374D01*
X-97926734Y-75037781D01*
X-97760143Y-74843325D01*
X-97571328Y-74669461D01*
X-97361421Y-74517643D01*
X-97131554Y-74389325D01*
X-97114095Y-74380939D01*
X-96888743Y-74287294D01*
X-96664158Y-74222266D01*
X-96433751Y-74184332D01*
X-96190931Y-74171971D01*
X-96175138Y-74172004D01*
X-95963805Y-74181041D01*
X-95768149Y-74207462D01*
X-95577329Y-74253251D01*
X-95380503Y-74320395D01*
X-95265992Y-74368728D01*
X-95045932Y-74486187D01*
X-94839681Y-74629239D01*
X-94649871Y-74795169D01*
X-94479133Y-74981263D01*
X-94330098Y-75184807D01*
X-94205398Y-75403086D01*
X-94107664Y-75633385D01*
X-94099633Y-75656354D01*
X-94052185Y-75810310D01*
X-94018986Y-75959407D01*
X-93997876Y-76115359D01*
X-93986699Y-76289877D01*
X-93985355Y-76334240D01*
X-93985765Y-76366624D01*
X-93987765Y-76524764D01*
X-94005483Y-76700906D01*
G37*
%TD*%
D10*
%TO.C,MX43*%
X213614000Y26162000D03*
D11*
X218694000Y26162000D03*
X208534000Y26162000D03*
D12*
X209804000Y28702000D03*
X216154000Y31242000D03*
%TD*%
D13*
%TO.C,MX128*%
X53860700Y-16992600D03*
X60210700Y-14452600D03*
D11*
X51320700Y-11912600D03*
D10*
X56400700Y-11912600D03*
D11*
X61480700Y-11912600D03*
D14*
X63485700Y-14452600D03*
X50558700Y-16992600D03*
%TD*%
D11*
%TO.C,MX65*%
X141859000Y7112000D03*
D10*
X146939000Y7112000D03*
D11*
X152019000Y7112000D03*
D12*
X143129000Y9652000D03*
X149479000Y12192000D03*
%TD*%
D10*
%TO.C,MX91*%
X-29324300Y7137400D03*
D11*
X-24244300Y7137400D03*
D13*
X-31864300Y2057400D03*
D11*
X-34404300Y7137400D03*
D13*
X-25514300Y4597400D03*
D14*
X-22239300Y4597400D03*
X-35166300Y2057400D03*
%TD*%
D10*
%TO.C,MX56*%
X137414000Y26162000D03*
D11*
X132334000Y26162000D03*
D13*
X141224000Y23622000D03*
D11*
X142494000Y26162000D03*
D13*
X134874000Y21082000D03*
D14*
X144499000Y23622000D03*
X131572000Y21082000D03*
%TD*%
D11*
%TO.C,MX169*%
X-86791800Y-50012600D03*
D10*
X-81711800Y-50012600D03*
D11*
X-76631800Y-50012600D03*
D12*
X-85521800Y-47472600D03*
X-79171800Y-44932600D03*
%TD*%
D11*
%TO.C,MX33*%
X9093200Y26187400D03*
X-1066800Y26187400D03*
D10*
X4013200Y26187400D03*
D12*
X203200Y28727400D03*
X6553200Y31267400D03*
%TD*%
D11*
%TO.C,MX127*%
X42430700Y-11912600D03*
D13*
X41160700Y-14452600D03*
D10*
X37350700Y-11912600D03*
D13*
X34810700Y-16992600D03*
D11*
X32270700Y-11912600D03*
D14*
X44435700Y-14452600D03*
X31508700Y-16992600D03*
%TD*%
D11*
%TO.C,MX137*%
X285369000Y-30988000D03*
D10*
X280289000Y-30988000D03*
D11*
X275209000Y-30988000D03*
D12*
X276479000Y-28448000D03*
X282829000Y-25908000D03*
%TD*%
D13*
%TO.C,MX183*%
X-65201800Y-55092600D03*
D11*
X-57581800Y-50012600D03*
D13*
X-58851800Y-52552600D03*
D11*
X-67741800Y-50012600D03*
D10*
X-62661800Y-50012600D03*
D14*
X-55576800Y-52552600D03*
X-68503800Y-55092600D03*
%TD*%
D13*
%TO.C,MX155*%
X-65201800Y-36042600D03*
D11*
X-67741800Y-30962600D03*
D10*
X-62661800Y-30962600D03*
D11*
X-57581800Y-30962600D03*
D13*
X-58851800Y-33502600D03*
D14*
X-55576800Y-33502600D03*
X-68503800Y-36042600D03*
%TD*%
D10*
%TO.C,MX173*%
X18300700Y-50012600D03*
D11*
X23380700Y-50012600D03*
X13220700Y-50012600D03*
D12*
X14490700Y-47472600D03*
X20840700Y-44932600D03*
%TD*%
D11*
%TO.C,MX34*%
X17983200Y26187400D03*
D10*
X23063200Y26187400D03*
D11*
X28143200Y26187400D03*
D12*
X19253200Y28727400D03*
X25603200Y31267400D03*
%TD*%
D11*
%TO.C,MX131*%
X147256500Y-30988000D03*
D10*
X142176500Y-30988000D03*
D11*
X137096500Y-30988000D03*
D12*
X138366500Y-28448000D03*
X144716500Y-25908000D03*
%TD*%
D11*
%TO.C,MX82*%
X141859000Y7112000D03*
X152019000Y7112000D03*
D10*
X146939000Y7112000D03*
D13*
X144399000Y2032000D03*
X150749000Y4572000D03*
D14*
X154024000Y4572000D03*
X141097000Y2032000D03*
%TD*%
D11*
%TO.C,MX6*%
X65608200Y49999900D03*
D10*
X70688200Y49999900D03*
D11*
X75768200Y49999900D03*
D12*
X66878200Y52539900D03*
X73228200Y55079900D03*
%TD*%
D15*
%TO.C,REF\u002A\u002A*%
X76581000Y-59817000D03*
X74041000Y-59817000D03*
X79121000Y-59817000D03*
X75311000Y-59817000D03*
X77851000Y-59817000D03*
%TD*%
D11*
%TO.C,MX22*%
X94818200Y49999900D03*
D10*
X89738200Y49999900D03*
D13*
X87198200Y44919900D03*
X93548200Y47459900D03*
D11*
X84658200Y49999900D03*
D14*
X96823200Y47459900D03*
X83896200Y44919900D03*
%TD*%
D10*
%TO.C,MX58*%
X175514000Y26162000D03*
D13*
X179324000Y23622000D03*
D11*
X170434000Y26162000D03*
X180594000Y26162000D03*
D13*
X172974000Y21082000D03*
D14*
X182599000Y23622000D03*
X169672000Y21082000D03*
%TD*%
D10*
%TO.C,MX41*%
X175514000Y26162000D03*
D11*
X180594000Y26162000D03*
X170434000Y26162000D03*
D12*
X171704000Y28702000D03*
X178054000Y31242000D03*
%TD*%
D11*
%TO.C,MX134*%
X194246500Y-30988000D03*
X204406500Y-30988000D03*
D10*
X199326500Y-30988000D03*
D12*
X195516500Y-28448000D03*
X201866500Y-25908000D03*
%TD*%
D10*
%TO.C,MX151*%
X225520250Y-30988000D03*
D11*
X220440250Y-30988000D03*
X230600250Y-30988000D03*
D13*
X222980250Y-36068000D03*
X229330250Y-33528000D03*
D14*
X232605250Y-33528000D03*
X219678250Y-36068000D03*
%TD*%
D10*
%TO.C,MX142*%
X27825700Y-30962600D03*
D11*
X22745700Y-30962600D03*
X32905700Y-30962600D03*
D12*
X24015700Y-28422600D03*
X30365700Y-25882600D03*
%TD*%
D11*
%TO.C,MX170*%
X-57581800Y-50012600D03*
X-67741800Y-50012600D03*
D10*
X-62661800Y-50012600D03*
D12*
X-66471800Y-47472600D03*
X-60121800Y-44932600D03*
%TD*%
D11*
%TO.C,MX113*%
X80530700Y-11912600D03*
X70370700Y-11912600D03*
D10*
X75450700Y-11912600D03*
D12*
X71640700Y-9372600D03*
X77990700Y-6832600D03*
%TD*%
D11*
%TO.C,MX165*%
X218694000Y-50038000D03*
D10*
X213614000Y-50038000D03*
D11*
X208534000Y-50038000D03*
D12*
X209804000Y-47498000D03*
X216154000Y-44958000D03*
%TD*%
D11*
%TO.C,MX167*%
X261493000Y-54787800D03*
D10*
X256413000Y-54787800D03*
D11*
X251333000Y-54787800D03*
D12*
X252603000Y-52247800D03*
X258953000Y-49707800D03*
%TD*%
D13*
%TO.C,MX185*%
X-1701800Y-52552600D03*
D10*
X-5511800Y-50012600D03*
D11*
X-10591800Y-50012600D03*
D13*
X-8051800Y-55092600D03*
D11*
X-431800Y-50012600D03*
D14*
X1573200Y-52552600D03*
X-11353800Y-55092600D03*
%TD*%
D13*
%TO.C,MX153*%
X277749000Y-36068000D03*
D10*
X280289000Y-30988000D03*
D13*
X284099000Y-33528000D03*
D11*
X285369000Y-30988000D03*
X275209000Y-30988000D03*
D14*
X287374000Y-33528000D03*
X274447000Y-36068000D03*
%TD*%
D11*
%TO.C,MX145*%
X90055700Y-30962600D03*
X79895700Y-30962600D03*
D10*
X84975700Y-30962600D03*
D12*
X81165700Y-28422600D03*
X87515700Y-25882600D03*
%TD*%
D10*
%TO.C,MX148*%
X161226500Y-30988000D03*
D11*
X166306500Y-30988000D03*
X156146500Y-30988000D03*
D13*
X158686500Y-36068000D03*
X165036500Y-33528000D03*
D14*
X168311500Y-33528000D03*
X155384500Y-36068000D03*
%TD*%
D15*
%TO.C,REF\u002A\u002A*%
X-21717000Y-59817000D03*
X-22987000Y-59817000D03*
X-19177000Y-59817000D03*
X-20447000Y-59817000D03*
X-24257000Y-59817000D03*
%TD*%
D11*
%TO.C,MX46*%
X-49523000Y101219000D03*
D10*
X-44443000Y101219000D03*
D11*
X-39363000Y101219000D03*
D12*
X-48253000Y103759000D03*
X-41903000Y106299000D03*
%TD*%
D11*
%TO.C,MX138*%
X-86791800Y-30962600D03*
D10*
X-81711800Y-30962600D03*
D11*
X-76631800Y-30962600D03*
D12*
X-85521800Y-28422600D03*
X-79171800Y-25882600D03*
%TD*%
D10*
%TO.C,MX9*%
X146939000Y50038000D03*
D11*
X152019000Y50038000D03*
X141859000Y50038000D03*
D12*
X143129000Y52578000D03*
X149479000Y55118000D03*
%TD*%
D11*
%TO.C,MX72*%
X-76631800Y7137400D03*
D10*
X-81711800Y7137400D03*
D11*
X-86791800Y7137400D03*
D12*
X-85521800Y9677400D03*
X-79171800Y12217400D03*
%TD*%
D11*
%TO.C,MX107*%
X-21863050Y-11912600D03*
X-32023050Y-11912600D03*
D10*
X-26943050Y-11912600D03*
D12*
X-30753050Y-9372600D03*
X-24403050Y-6832600D03*
%TD*%
D11*
%TO.C,MX77*%
X37668200Y7137400D03*
D10*
X32588200Y7137400D03*
D11*
X27508200Y7137400D03*
D12*
X28778200Y9677400D03*
X35128200Y12217400D03*
%TD*%
D11*
%TO.C,MX84*%
X190119000Y7112000D03*
D13*
X188849000Y4572000D03*
X182499000Y2032000D03*
D10*
X185039000Y7112000D03*
D11*
X179959000Y7112000D03*
D14*
X192124000Y4572000D03*
X179197000Y2032000D03*
%TD*%
D11*
%TO.C,MX161*%
X79895700Y-30962600D03*
X90055700Y-30962600D03*
D13*
X88785700Y-33502600D03*
D10*
X84975700Y-30962600D03*
D13*
X82435700Y-36042600D03*
D14*
X92060700Y-33502600D03*
X79133700Y-36042600D03*
%TD*%
D10*
%TO.C,MX86*%
X223139000Y7112000D03*
D13*
X220599000Y2032000D03*
D11*
X218059000Y7112000D03*
D13*
X226949000Y4572000D03*
D11*
X228219000Y7112000D03*
D14*
X230224000Y4572000D03*
X217297000Y2032000D03*
%TD*%
D11*
%TO.C,MX38*%
X123444000Y26162000D03*
X113284000Y26162000D03*
D10*
X118364000Y26162000D03*
D12*
X114554000Y28702000D03*
X120904000Y31242000D03*
%TD*%
D11*
%TO.C,MX143*%
X51955700Y-30962600D03*
D10*
X46875700Y-30962600D03*
D11*
X41795700Y-30962600D03*
D12*
X43065700Y-28422600D03*
X49415700Y-25882600D03*
%TD*%
D16*
%TO.C,JP1*%
X-45847000Y38608000D03*
X-40767000Y38608000D03*
%TD*%
D13*
%TO.C,MX114*%
X117411500Y-14478000D03*
D11*
X108521500Y-11938000D03*
X118681500Y-11938000D03*
D10*
X113601500Y-11938000D03*
D13*
X111061500Y-17018000D03*
D14*
X120686500Y-14478000D03*
X107759500Y-17018000D03*
%TD*%
D11*
%TO.C,MX36*%
X56083200Y26187400D03*
D10*
X61163200Y26187400D03*
D11*
X66243200Y26187400D03*
D12*
X57353200Y28727400D03*
X63703200Y31267400D03*
%TD*%
D11*
%TO.C,MX88*%
X285369000Y7112000D03*
D13*
X284099000Y4572000D03*
D10*
X280289000Y7112000D03*
D13*
X277749000Y2032000D03*
D11*
X275209000Y7112000D03*
D14*
X287374000Y4572000D03*
X274447000Y2032000D03*
%TD*%
D13*
%TO.C,MX147*%
X145986500Y-33528000D03*
X139636500Y-36068000D03*
D11*
X137096500Y-30988000D03*
X147256500Y-30988000D03*
D10*
X142176500Y-30988000D03*
D14*
X149261500Y-33528000D03*
X136334500Y-36068000D03*
%TD*%
D11*
%TO.C,MX118*%
X184721500Y-11938000D03*
D13*
X193611500Y-14478000D03*
D11*
X194881500Y-11938000D03*
D10*
X189801500Y-11938000D03*
D13*
X187261500Y-17018000D03*
D14*
X196886500Y-14478000D03*
X183959500Y-17018000D03*
%TD*%
D11*
%TO.C,MX37*%
X85293200Y26187400D03*
D10*
X80213200Y26187400D03*
D11*
X75133200Y26187400D03*
D12*
X76403200Y28727400D03*
X82753200Y31267400D03*
%TD*%
D13*
%TO.C,MX89*%
X-84251800Y2057400D03*
D11*
X-76631800Y7137400D03*
D10*
X-81711800Y7137400D03*
D11*
X-86791800Y7137400D03*
D13*
X-77901800Y4597400D03*
D14*
X-74626800Y4597400D03*
X-87553800Y2057400D03*
%TD*%
D11*
%TO.C,MX112*%
X61480700Y-11912600D03*
D10*
X56400700Y-11912600D03*
D11*
X51320700Y-11912600D03*
D12*
X52590700Y-9372600D03*
X58940700Y-6832600D03*
%TD*%
D11*
%TO.C,MX178*%
X208534000Y-50038000D03*
D13*
X217424000Y-52578000D03*
D11*
X218694000Y-50038000D03*
D13*
X211074000Y-55118000D03*
D10*
X213614000Y-50038000D03*
D14*
X220699000Y-52578000D03*
X207772000Y-55118000D03*
%TD*%
D11*
%TO.C,MX19*%
X32905700Y49999900D03*
D10*
X27825700Y49999900D03*
D13*
X31635700Y47459900D03*
D11*
X22745700Y49999900D03*
D13*
X25285700Y44919900D03*
D14*
X34910700Y47459900D03*
X21983700Y44919900D03*
%TD*%
D10*
%TO.C,MX164*%
X194564000Y-50038000D03*
D11*
X199644000Y-50038000D03*
X189484000Y-50038000D03*
D12*
X190754000Y-47498000D03*
X197104000Y-44958000D03*
%TD*%
D10*
%TO.C,MX43*%
X232664000Y26162000D03*
D11*
X237744000Y26162000D03*
X227584000Y26162000D03*
D12*
X228854000Y28702000D03*
X235204000Y31242000D03*
%TD*%
D13*
%TO.C,MX146*%
X126936500Y-33528000D03*
D11*
X128206500Y-30988000D03*
D10*
X123126500Y-30988000D03*
D13*
X120586500Y-36068000D03*
D11*
X118046500Y-30988000D03*
D14*
X130211500Y-33528000D03*
X117284500Y-36068000D03*
%TD*%
D10*
%TO.C,MX16*%
X-34086800Y49999900D03*
D13*
X-36626800Y44919900D03*
D11*
X-39166800Y49999900D03*
X-29006800Y49999900D03*
D13*
X-30276800Y47459900D03*
D14*
X-27001800Y47459900D03*
X-39928800Y44919900D03*
%TD*%
D11*
%TO.C,MX158*%
X22745700Y-30962600D03*
X32905700Y-30962600D03*
D13*
X25285700Y-36042600D03*
D10*
X27825700Y-30962600D03*
D13*
X31635700Y-33502600D03*
D14*
X34910700Y-33502600D03*
X21983700Y-36042600D03*
%TD*%
D11*
%TO.C,MX105*%
X-76631800Y-11912600D03*
D10*
X-81711800Y-11912600D03*
D11*
X-86791800Y-11912600D03*
D12*
X-85521800Y-9372600D03*
X-79171800Y-6832600D03*
%TD*%
D11*
%TO.C,MX74*%
X-34404300Y7137400D03*
X-24244300Y7137400D03*
D10*
X-29324300Y7137400D03*
D12*
X-33134300Y9677400D03*
X-26784300Y12217400D03*
%TD*%
D13*
%TO.C,MX116*%
X155511500Y-14478000D03*
D11*
X156781500Y-11938000D03*
D10*
X151701500Y-11938000D03*
D11*
X146621500Y-11938000D03*
D13*
X149161500Y-17018000D03*
D14*
X158786500Y-14478000D03*
X145859500Y-17018000D03*
%TD*%
D11*
%TO.C,MX76*%
X8458200Y7137400D03*
X18618200Y7137400D03*
D10*
X13538200Y7137400D03*
D12*
X9728200Y9677400D03*
X16078200Y12217400D03*
%TD*%
D11*
%TO.C,MX104*%
X285369000Y-11938000D03*
X275209000Y-11938000D03*
D10*
X280289000Y-11938000D03*
D12*
X276479000Y-9398000D03*
X282829000Y-6858000D03*
%TD*%
D10*
%TO.C,MX154*%
X-81711800Y-30962600D03*
D13*
X-84251800Y-36042600D03*
D11*
X-86791800Y-30962600D03*
X-76631800Y-30962600D03*
D13*
X-77901800Y-33502600D03*
D14*
X-74626800Y-33502600D03*
X-87553800Y-36042600D03*
%TD*%
D11*
%TO.C,MX26*%
X184721500Y50038000D03*
X194881500Y50038000D03*
D13*
X193611500Y47498000D03*
D10*
X189801500Y50038000D03*
D13*
X187261500Y44958000D03*
D14*
X196886500Y47498000D03*
X183959500Y44958000D03*
%TD*%
D11*
%TO.C,MX20*%
X41795700Y49999900D03*
X51955700Y49999900D03*
D10*
X46875700Y49999900D03*
D13*
X44335700Y44919900D03*
X50685700Y47459900D03*
D14*
X53960700Y47459900D03*
X41033700Y44919900D03*
%TD*%
D11*
%TO.C,MX69*%
X228219000Y7112000D03*
D10*
X223139000Y7112000D03*
D11*
X218059000Y7112000D03*
D12*
X219329000Y9652000D03*
X225679000Y12192000D03*
%TD*%
D11*
%TO.C,MX98*%
X127571500Y-11938000D03*
D10*
X132651500Y-11938000D03*
D11*
X137731500Y-11938000D03*
D12*
X128841500Y-9398000D03*
X135191500Y-6858000D03*
%TD*%
D10*
%TO.C,MX2*%
X-10274300Y49999900D03*
D11*
X-5194300Y49999900D03*
X-15354300Y49999900D03*
D12*
X-14084300Y52539900D03*
X-7734300Y55079900D03*
%TD*%
D13*
%TO.C,MX159*%
X50685700Y-33502600D03*
D10*
X46875700Y-30962600D03*
D13*
X44335700Y-36042600D03*
D11*
X51955700Y-30962600D03*
X41795700Y-30962600D03*
D14*
X53960700Y-33502600D03*
X41033700Y-36042600D03*
%TD*%
D11*
%TO.C,MX182*%
X-76631800Y-50012600D03*
D13*
X-84251800Y-55092600D03*
D10*
X-81711800Y-50012600D03*
D13*
X-77901800Y-52552600D03*
D11*
X-86791800Y-50012600D03*
D14*
X-74626800Y-52552600D03*
X-87553800Y-55092600D03*
%TD*%
D11*
%TO.C,MX40*%
X151384000Y26162000D03*
X161544000Y26162000D03*
D10*
X156464000Y26162000D03*
D12*
X152654000Y28702000D03*
X159004000Y31242000D03*
%TD*%
D13*
%TO.C,MX152*%
X253873000Y-40817800D03*
D10*
X256413000Y-35737800D03*
D11*
X251333000Y-35737800D03*
D13*
X260223000Y-38277800D03*
D11*
X261493000Y-35737800D03*
D14*
X263498000Y-38277800D03*
X250571000Y-40817800D03*
%TD*%
D17*
%TO.C,MX61*%
X254127000Y19177000D03*
D13*
X245999000Y23622000D03*
D17*
X230251000Y19177000D03*
D11*
X247269000Y26162000D03*
X237109000Y26162000D03*
D10*
X242189000Y26162000D03*
D13*
X239649000Y21082000D03*
D10*
X254127000Y34417000D03*
X230251000Y34417000D03*
D14*
X249274000Y23622000D03*
X236347000Y21082000D03*
%TD*%
D10*
%TO.C,MX144*%
X65925700Y-30962600D03*
D11*
X71005700Y-30962600D03*
X60845700Y-30962600D03*
D12*
X62115700Y-28422600D03*
X68465700Y-25882600D03*
%TD*%
D11*
%TO.C,MX10*%
X165671500Y50038000D03*
X175831500Y50038000D03*
D10*
X170751500Y50038000D03*
D12*
X166941500Y52578000D03*
X173291500Y55118000D03*
%TD*%
D13*
%TO.C,MX121*%
X277749000Y-17018000D03*
D10*
X280289000Y-11938000D03*
D11*
X285369000Y-11938000D03*
X275209000Y-11938000D03*
D13*
X284099000Y-14478000D03*
D14*
X287374000Y-14478000D03*
X274447000Y-17018000D03*
%TD*%
D15*
%TO.C,REF\u002A\u002A*%
X131953000Y-59817000D03*
X126873000Y-59817000D03*
X130683000Y-59817000D03*
X129413000Y-59817000D03*
X128143000Y-59817000D03*
%TD*%
D11*
%TO.C,MX109*%
X-5829300Y-11912600D03*
D10*
X-749300Y-11912600D03*
D11*
X4330700Y-11912600D03*
D12*
X-4559300Y-9372600D03*
X1790700Y-6832600D03*
%TD*%
D13*
%TO.C,MX120*%
X237267750Y-17018000D03*
D17*
X227869750Y-18923000D03*
D11*
X244887750Y-11938000D03*
D17*
X251745750Y-18923000D03*
D10*
X227869750Y-3683000D03*
X251745750Y-3683000D03*
X239807750Y-11938000D03*
D11*
X234727750Y-11938000D03*
D13*
X243617750Y-14478000D03*
D14*
X246892750Y-14478000D03*
X233965750Y-17018000D03*
%TD*%
D11*
%TO.C,MX13*%
X222821500Y50038000D03*
X232981500Y50038000D03*
D10*
X227901500Y50038000D03*
D12*
X224091500Y52578000D03*
X230441500Y55118000D03*
%TD*%
D13*
%TO.C,MX80*%
X112649000Y4572000D03*
D10*
X108839000Y7112000D03*
D13*
X106299000Y2032000D03*
D11*
X113919000Y7112000D03*
X103759000Y7112000D03*
D14*
X115924000Y4572000D03*
X102997000Y2032000D03*
%TD*%
D15*
%TO.C,REF\u002A\u002A*%
X205105000Y-59817000D03*
X206375000Y-59817000D03*
X210185000Y-59817000D03*
X207645000Y-59817000D03*
X208915000Y-59817000D03*
%TD*%
D11*
%TO.C,MX4*%
X32905700Y49999900D03*
D10*
X27825700Y49999900D03*
D11*
X22745700Y49999900D03*
D12*
X24015700Y52539900D03*
X30365700Y55079900D03*
%TD*%
D11*
%TO.C,MX15*%
X285369000Y50038000D03*
X275209000Y50038000D03*
D10*
X280289000Y50038000D03*
D12*
X276479000Y52578000D03*
X282829000Y55118000D03*
%TD*%
D11*
%TO.C,MX32*%
X-9956800Y26187400D03*
X-20116800Y26187400D03*
D10*
X-15036800Y26187400D03*
D12*
X-18846800Y28727400D03*
X-12496800Y31267400D03*
%TD*%
D10*
%TO.C,MX85*%
X204089000Y7112000D03*
D11*
X199009000Y7112000D03*
X209169000Y7112000D03*
D13*
X201549000Y2032000D03*
X207899000Y4572000D03*
D14*
X211174000Y4572000D03*
X198247000Y2032000D03*
%TD*%
D10*
%TO.C,MX168*%
X275463000Y-54787800D03*
D11*
X270383000Y-54787800D03*
X280543000Y-54787800D03*
D12*
X271653000Y-52247800D03*
X278003000Y-49707800D03*
%TD*%
D13*
%TO.C,MX160*%
X63385700Y-36042600D03*
D11*
X60845700Y-30962600D03*
D10*
X65925700Y-30962600D03*
D13*
X69735700Y-33502600D03*
D11*
X71005700Y-30962600D03*
D14*
X73010700Y-33502600D03*
X60083700Y-36042600D03*
%TD*%
D16*
%TO.C,JP2*%
X55474000Y99060000D03*
X60554000Y99060000D03*
%TD*%
D11*
%TO.C,MX70*%
X241871500Y7112000D03*
D10*
X246951500Y7112000D03*
D11*
X252031500Y7112000D03*
D12*
X243141500Y9652000D03*
X249491500Y12192000D03*
%TD*%
D10*
%TO.C,MX175*%
X137414000Y-50038000D03*
D13*
X141224000Y-52578000D03*
X134874000Y-55118000D03*
D11*
X132334000Y-50038000D03*
X142494000Y-50038000D03*
D14*
X144499000Y-52578000D03*
X131572000Y-55118000D03*
%TD*%
D10*
%TO.C,MX45*%
X254095250Y17907000D03*
D11*
X247269000Y26162000D03*
X237109000Y26162000D03*
D10*
X242189000Y26162000D03*
D17*
X254095250Y33147000D03*
D10*
X230282750Y17907000D03*
D17*
X230282750Y33147000D03*
D12*
X238379000Y28702000D03*
X244729000Y31242000D03*
%TD*%
D11*
%TO.C,MX23*%
X122809000Y50038000D03*
D13*
X131699000Y47498000D03*
D10*
X127889000Y50038000D03*
D13*
X125349000Y44958000D03*
D11*
X132969000Y50038000D03*
D14*
X134974000Y47498000D03*
X122047000Y44958000D03*
%TD*%
D11*
%TO.C,MX139*%
X-57581800Y-30962600D03*
X-67741800Y-30962600D03*
D10*
X-62661800Y-30962600D03*
D12*
X-66471800Y-28422600D03*
X-60121800Y-25882600D03*
%TD*%
D11*
%TO.C,MX18*%
X13855700Y49999900D03*
D13*
X6235700Y44919900D03*
X12585700Y47459900D03*
D10*
X8775700Y49999900D03*
D11*
X3695700Y49999900D03*
D14*
X15860700Y47459900D03*
X2933700Y44919900D03*
%TD*%
D10*
%TO.C,MX93*%
X13538200Y7137400D03*
D11*
X18618200Y7137400D03*
D13*
X17348200Y4597400D03*
X10998200Y2057400D03*
D11*
X8458200Y7137400D03*
D14*
X20623200Y4597400D03*
X7696200Y2057400D03*
%TD*%
D10*
%TO.C,MX141*%
X8775700Y-30962600D03*
D11*
X3695700Y-30962600D03*
X13855700Y-30962600D03*
D12*
X4965700Y-28422600D03*
X11315700Y-25882600D03*
%TD*%
D11*
%TO.C,MX75*%
X-431800Y7137400D03*
X-10591800Y7137400D03*
D10*
X-5511800Y7137400D03*
D12*
X-9321800Y9677400D03*
X-2971800Y12217400D03*
%TD*%
D15*
%TO.C,REF\u002A\u002A*%
X-15367000Y-59817000D03*
X-16637000Y-59817000D03*
X-14097000Y-59817000D03*
X-12827000Y-59817000D03*
X-17907000Y-59817000D03*
%TD*%
D11*
%TO.C,MX119*%
X203771500Y-11938000D03*
X213931500Y-11938000D03*
D10*
X208851500Y-11938000D03*
D13*
X206311500Y-17018000D03*
X212661500Y-14478000D03*
D14*
X215936500Y-14478000D03*
X203009500Y-17018000D03*
%TD*%
D13*
%TO.C,MX60*%
X211074000Y21082000D03*
X217424000Y23622000D03*
D10*
X213614000Y26162000D03*
D11*
X218694000Y26162000D03*
X208534000Y26162000D03*
D14*
X220699000Y23622000D03*
X207772000Y21082000D03*
%TD*%
D13*
%TO.C,MX124*%
X-23133050Y-14452600D03*
D11*
X-21863050Y-11912600D03*
D10*
X-26943050Y-11912600D03*
D13*
X-29483050Y-16992600D03*
D11*
X-32023050Y-11912600D03*
D14*
X-19858050Y-14452600D03*
X-32785050Y-16992600D03*
%TD*%
D11*
%TO.C,MX81*%
X132969000Y7112000D03*
D13*
X131699000Y4572000D03*
X125349000Y2032000D03*
D11*
X122809000Y7112000D03*
D10*
X127889000Y7112000D03*
D14*
X134974000Y4572000D03*
X122047000Y2032000D03*
%TD*%
D11*
%TO.C,MX62*%
X275209000Y26162000D03*
D13*
X284099000Y23622000D03*
D11*
X285369000Y26162000D03*
D10*
X280289000Y26162000D03*
D13*
X277749000Y21082000D03*
D14*
X287374000Y23622000D03*
X274447000Y21082000D03*
%TD*%
D11*
%TO.C,MX140*%
X-17100550Y-30962600D03*
X-27260550Y-30962600D03*
D10*
X-22180550Y-30962600D03*
X-34086800Y-39217600D03*
X-10274300Y-39217600D03*
D17*
X-34086800Y-23977600D03*
X-10274300Y-23977600D03*
D12*
X-25990550Y-28422600D03*
X-19640550Y-25882600D03*
%TD*%
D11*
%TO.C,MX174*%
X56083200Y-50012600D03*
D10*
X80213200Y-41757600D03*
X42113200Y-41757600D03*
D17*
X80213200Y-56997600D03*
D11*
X66243200Y-50012600D03*
D17*
X42113200Y-56997600D03*
D10*
X61163200Y-50012600D03*
D12*
X57353200Y-47472600D03*
X63703200Y-44932600D03*
%TD*%
D11*
%TO.C,MX47*%
X285369000Y26162000D03*
X275209000Y26162000D03*
D10*
X280289000Y26162000D03*
D12*
X276479000Y28702000D03*
X282829000Y31242000D03*
%TD*%
D11*
%TO.C,MX186*%
X23380700Y-50012600D03*
D10*
X18300700Y-50012600D03*
D13*
X22110700Y-52552600D03*
X15760700Y-55092600D03*
D11*
X13220700Y-50012600D03*
D14*
X25385700Y-52552600D03*
X12458700Y-55092600D03*
%TD*%
D10*
%TO.C,MX126*%
X18300700Y-11912600D03*
D11*
X13220700Y-11912600D03*
D13*
X22110700Y-14452600D03*
D11*
X23380700Y-11912600D03*
D13*
X15760700Y-16992600D03*
D14*
X25385700Y-14452600D03*
X12458700Y-16992600D03*
%TD*%
D10*
%TO.C,MX29*%
X251714000Y50038000D03*
D11*
X256794000Y50038000D03*
D13*
X249174000Y44958000D03*
D11*
X246634000Y50038000D03*
D13*
X255524000Y47498000D03*
D14*
X258799000Y47498000D03*
X245872000Y44958000D03*
%TD*%
D10*
%TO.C,MX187*%
X61163200Y-50012600D03*
D11*
X56083200Y-50012600D03*
D13*
X64973200Y-52552600D03*
X58623200Y-55092600D03*
D11*
X66243200Y-50012600D03*
D14*
X68248200Y-52552600D03*
X55321200Y-55092600D03*
%TD*%
D11*
%TO.C,MX122*%
X-86791800Y-11912600D03*
D10*
X-81711800Y-11912600D03*
D13*
X-84251800Y-16992600D03*
D11*
X-76631800Y-11912600D03*
D13*
X-77901800Y-14452600D03*
D14*
X-74626800Y-14452600D03*
X-87553800Y-16992600D03*
%TD*%
D15*
%TO.C,REF\u002A\u002A*%
X82931000Y-59817000D03*
X84201000Y-59817000D03*
X80391000Y-59817000D03*
X85471000Y-59817000D03*
X81661000Y-59817000D03*
%TD*%
%TO.C,REF\u002A\u002A*%
X192151000Y59817000D03*
X190881000Y59817000D03*
X194691000Y59817000D03*
X189611000Y59817000D03*
X193421000Y59817000D03*
%TD*%
%TO.C,REF\u002A\u002A*%
X19812000Y59817000D03*
X21082000Y59817000D03*
X22352000Y59817000D03*
X24892000Y59817000D03*
X23622000Y59817000D03*
%TD*%
D13*
%TO.C,MX55*%
X115824000Y21082000D03*
X122174000Y23622000D03*
D11*
X113284000Y26162000D03*
D10*
X118364000Y26162000D03*
D11*
X123444000Y26162000D03*
D14*
X125449000Y23622000D03*
X112522000Y21082000D03*
%TD*%
D11*
%TO.C,MX99*%
X146621500Y-11938000D03*
D10*
X151701500Y-11938000D03*
D11*
X156781500Y-11938000D03*
D12*
X147891500Y-9398000D03*
X154241500Y-6858000D03*
%TD*%
D11*
%TO.C,MX130*%
X118046500Y-30988000D03*
X128206500Y-30988000D03*
D10*
X123126500Y-30988000D03*
D12*
X119316500Y-28448000D03*
X125666500Y-25908000D03*
%TD*%
D11*
%TO.C,MX64*%
X122809000Y7112000D03*
D10*
X127889000Y7112000D03*
D11*
X132969000Y7112000D03*
D12*
X124079000Y9652000D03*
X130429000Y12192000D03*
%TD*%
D11*
%TO.C,MX3*%
X13855700Y49999900D03*
D10*
X8775700Y49999900D03*
D11*
X3695700Y49999900D03*
D12*
X4965700Y52539900D03*
X11315700Y55079900D03*
%TD*%
D13*
%TO.C,MX24*%
X150749000Y47498000D03*
D11*
X141859000Y50038000D03*
X152019000Y50038000D03*
D13*
X144399000Y44958000D03*
D10*
X146939000Y50038000D03*
D14*
X154024000Y47498000D03*
X141097000Y44958000D03*
%TD*%
D11*
%TO.C,MX135*%
X220440250Y-30988000D03*
X230600250Y-30988000D03*
D10*
X225520250Y-30988000D03*
D12*
X221710250Y-28448000D03*
X228060250Y-25908000D03*
%TD*%
D10*
%TO.C,MX96*%
X70688200Y7137400D03*
D11*
X65608200Y7137400D03*
X75768200Y7137400D03*
D13*
X68148200Y2057400D03*
X74498200Y4597400D03*
D14*
X77773200Y4597400D03*
X64846200Y2057400D03*
%TD*%
D11*
%TO.C,MX83*%
X171069000Y7112000D03*
D13*
X169799000Y4572000D03*
X163449000Y2032000D03*
D11*
X160909000Y7112000D03*
D10*
X165989000Y7112000D03*
D14*
X173074000Y4572000D03*
X160147000Y2032000D03*
%TD*%
D10*
%TO.C,MX103*%
X227901500Y-20193000D03*
D17*
X251714000Y-4953000D03*
X227901500Y-4953000D03*
D11*
X234727750Y-11938000D03*
X244887750Y-11938000D03*
D10*
X239807750Y-11938000D03*
X251714000Y-20193000D03*
D12*
X235997750Y-9398000D03*
X242347750Y-6858000D03*
%TD*%
D11*
%TO.C,MX123*%
X-67741800Y-11912600D03*
D10*
X-62661800Y-11912600D03*
D13*
X-58851800Y-14452600D03*
X-65201800Y-16992600D03*
D11*
X-57581800Y-11912600D03*
D14*
X-55576800Y-14452600D03*
X-68503800Y-16992600D03*
%TD*%
D11*
%TO.C,MX100*%
X165671500Y-11938000D03*
X175831500Y-11938000D03*
D10*
X170751500Y-11938000D03*
D12*
X166941500Y-9398000D03*
X173291500Y-6858000D03*
%TD*%
D10*
%TO.C,MX39*%
X137414000Y26162000D03*
D11*
X132334000Y26162000D03*
X142494000Y26162000D03*
D12*
X133604000Y28702000D03*
X139954000Y31242000D03*
%TD*%
D13*
%TO.C,MX90*%
X-58851800Y4597400D03*
D10*
X-62661800Y7137400D03*
D11*
X-57581800Y7137400D03*
D13*
X-65201800Y2057400D03*
D11*
X-67741800Y7137400D03*
D14*
X-55576800Y4597400D03*
X-68503800Y2057400D03*
%TD*%
D11*
%TO.C,MX50*%
X9093200Y26187400D03*
X-1066800Y26187400D03*
D10*
X4013200Y26187400D03*
D13*
X7823200Y23647400D03*
X1473200Y21107400D03*
D14*
X11098200Y23647400D03*
X-1828800Y21107400D03*
%TD*%
D11*
%TO.C,MX30*%
X275209000Y50038000D03*
D13*
X284099000Y47498000D03*
D10*
X280289000Y50038000D03*
D13*
X277749000Y44958000D03*
D11*
X285369000Y50038000D03*
D14*
X287374000Y47498000D03*
X274447000Y44958000D03*
%TD*%
D11*
%TO.C,MX129*%
X80530700Y-11912600D03*
D10*
X75450700Y-11912600D03*
D13*
X72910700Y-16992600D03*
X79260700Y-14452600D03*
D11*
X70370700Y-11912600D03*
D14*
X82535700Y-14452600D03*
X69608700Y-16992600D03*
%TD*%
D11*
%TO.C,MX51*%
X28143200Y26187400D03*
X17983200Y26187400D03*
D13*
X20523200Y21107400D03*
X26873200Y23647400D03*
D10*
X23063200Y26187400D03*
D14*
X30148200Y23647400D03*
X17221200Y21107400D03*
%TD*%
D13*
%TO.C,MX177*%
X198374000Y-52578000D03*
X192024000Y-55118000D03*
D11*
X199644000Y-50038000D03*
D10*
X194564000Y-50038000D03*
D11*
X189484000Y-50038000D03*
D14*
X201649000Y-52578000D03*
X188722000Y-55118000D03*
%TD*%
D13*
%TO.C,MX95*%
X49098200Y2057400D03*
X55448200Y4597400D03*
D11*
X56718200Y7137400D03*
X46558200Y7137400D03*
D10*
X51638200Y7137400D03*
D14*
X58723200Y4597400D03*
X45796200Y2057400D03*
%TD*%
D11*
%TO.C,MX5*%
X41795700Y49999900D03*
D10*
X46875700Y49999900D03*
D11*
X51955700Y49999900D03*
D12*
X43065700Y52539900D03*
X49415700Y55079900D03*
%TD*%
D11*
%TO.C,MX14*%
X256794000Y50038000D03*
D10*
X251714000Y50038000D03*
D11*
X246634000Y50038000D03*
D12*
X247904000Y52578000D03*
X254254000Y55118000D03*
%TD*%
D11*
%TO.C,MX172*%
X-431800Y-50012600D03*
D10*
X-5511800Y-50012600D03*
D11*
X-10591800Y-50012600D03*
D12*
X-9321800Y-47472600D03*
X-2971800Y-44932600D03*
%TD*%
D15*
%TO.C,REF\u002A\u002A*%
X12700000Y-59817000D03*
X8890000Y-59817000D03*
X7620000Y-59817000D03*
X11430000Y-59817000D03*
X10160000Y-59817000D03*
%TD*%
D10*
%TO.C,MX1*%
X-34086800Y49999900D03*
D11*
X-29006800Y49999900D03*
X-39166800Y49999900D03*
D12*
X-37896800Y52539900D03*
X-31546800Y55079900D03*
%TD*%
D11*
%TO.C,MX184*%
X-24244300Y-50012600D03*
D13*
X-31864300Y-55092600D03*
D10*
X-29324300Y-50012600D03*
D13*
X-25514300Y-52552600D03*
D11*
X-34404300Y-50012600D03*
D14*
X-22239300Y-52552600D03*
X-35166300Y-55092600D03*
%TD*%
D11*
%TO.C,MX132*%
X166306500Y-30988000D03*
D10*
X161226500Y-30988000D03*
D11*
X156146500Y-30988000D03*
D12*
X157416500Y-28448000D03*
X163766500Y-25908000D03*
%TD*%
D10*
%TO.C,MX59*%
X194564000Y26162000D03*
D11*
X199644000Y26162000D03*
D13*
X198374000Y23622000D03*
X192024000Y21082000D03*
D11*
X189484000Y26162000D03*
D14*
X201649000Y23622000D03*
X188722000Y21082000D03*
%TD*%
D11*
%TO.C,MX71*%
X285369000Y7112000D03*
D10*
X280289000Y7112000D03*
D11*
X275209000Y7112000D03*
D12*
X276479000Y9652000D03*
X282829000Y12192000D03*
%TD*%
D10*
%TO.C,MX17*%
X-10274300Y49999900D03*
D11*
X-5194300Y49999900D03*
X-15354300Y49999900D03*
D13*
X-12814300Y44919900D03*
X-6464300Y47459900D03*
D14*
X-3189300Y47459900D03*
X-16116300Y44919900D03*
%TD*%
D15*
%TO.C,REF\u002A\u002A*%
X2540000Y-59817000D03*
X1270000Y-59817000D03*
X6350000Y-59817000D03*
X5080000Y-59817000D03*
X3810000Y-59817000D03*
%TD*%
D13*
%TO.C,MX117*%
X174561500Y-14478000D03*
D11*
X165671500Y-11938000D03*
D10*
X170751500Y-11938000D03*
D11*
X175831500Y-11938000D03*
D13*
X168211500Y-17018000D03*
D14*
X177836500Y-14478000D03*
X164909500Y-17018000D03*
%TD*%
D11*
%TO.C,MX94*%
X37668200Y7137400D03*
D13*
X36398200Y4597400D03*
D10*
X32588200Y7137400D03*
D13*
X30048200Y2057400D03*
D11*
X27508200Y7137400D03*
D14*
X39673200Y4597400D03*
X26746200Y2057400D03*
%TD*%
D11*
%TO.C,MX115*%
X127571500Y-11938000D03*
X137731500Y-11938000D03*
D13*
X136461500Y-14478000D03*
D10*
X132651500Y-11938000D03*
D13*
X130111500Y-17018000D03*
D14*
X139736500Y-14478000D03*
X126809500Y-17018000D03*
%TD*%
D11*
%TO.C,MX87*%
X241871500Y7112000D03*
D10*
X246951500Y7112000D03*
D13*
X244411500Y2032000D03*
D11*
X252031500Y7112000D03*
D13*
X250761500Y4572000D03*
D14*
X254036500Y4572000D03*
X241109500Y2032000D03*
%TD*%
D10*
%TO.C,MX106*%
X-62661800Y-11912600D03*
D11*
X-67741800Y-11912600D03*
X-57581800Y-11912600D03*
D12*
X-66471800Y-9372600D03*
X-60121800Y-6832600D03*
%TD*%
D10*
%TO.C,MX133*%
X180276500Y-30988000D03*
D11*
X175196500Y-30988000D03*
X185356500Y-30988000D03*
D12*
X176466500Y-28448000D03*
X182816500Y-25908000D03*
%TD*%
D11*
%TO.C,MX63*%
X103759000Y7112000D03*
X113919000Y7112000D03*
D10*
X108839000Y7112000D03*
D12*
X105029000Y9652000D03*
X111379000Y12192000D03*
%TD*%
D11*
%TO.C,MX53*%
X66243200Y26187400D03*
X56083200Y26187400D03*
D13*
X64973200Y23647400D03*
D10*
X61163200Y26187400D03*
D13*
X58623200Y21107400D03*
D14*
X68248200Y23647400D03*
X55321200Y21107400D03*
%TD*%
D11*
%TO.C,MX42*%
X199644000Y26162000D03*
D10*
X194564000Y26162000D03*
D11*
X189484000Y26162000D03*
D12*
X190754000Y28702000D03*
X197104000Y31242000D03*
%TD*%
D17*
%TO.C,MX156*%
X-34118550Y-37947600D03*
D11*
X-27260550Y-30962600D03*
D13*
X-18370550Y-33502600D03*
D10*
X-10242550Y-22707600D03*
D13*
X-24720550Y-36042600D03*
D17*
X-10242550Y-37947600D03*
D10*
X-34118550Y-22707600D03*
D11*
X-17100550Y-30962600D03*
D10*
X-22180550Y-30962600D03*
D14*
X-15095550Y-33502600D03*
X-28022550Y-36042600D03*
%TD*%
D10*
%TO.C,MX25*%
X170751500Y50038000D03*
D13*
X168211500Y44958000D03*
X174561500Y47498000D03*
D11*
X175831500Y50038000D03*
X165671500Y50038000D03*
D14*
X177836500Y47498000D03*
X164909500Y44958000D03*
%TD*%
D11*
%TO.C,MX67*%
X190119000Y7112000D03*
X179959000Y7112000D03*
D10*
X185039000Y7112000D03*
D12*
X181229000Y9652000D03*
X187579000Y12192000D03*
%TD*%
D11*
%TO.C,MX12*%
X213931500Y50038000D03*
D10*
X208851500Y50038000D03*
D11*
X203771500Y50038000D03*
D12*
X205041500Y52578000D03*
X211391500Y55118000D03*
%TD*%
D10*
%TO.C,MX11*%
X189801500Y50038000D03*
D11*
X194881500Y50038000D03*
X184721500Y50038000D03*
D12*
X185991500Y52578000D03*
X192341500Y55118000D03*
%TD*%
D11*
%TO.C,MX150*%
X194246500Y-30988000D03*
D13*
X203136500Y-33528000D03*
D10*
X199326500Y-30988000D03*
D11*
X204406500Y-30988000D03*
D13*
X196786500Y-36068000D03*
D14*
X206411500Y-33528000D03*
X193484500Y-36068000D03*
%TD*%
D15*
%TO.C,REF\u002A\u002A*%
X18415000Y59817000D03*
X14605000Y59817000D03*
X15875000Y59817000D03*
X17145000Y59817000D03*
X13335000Y59817000D03*
%TD*%
D11*
%TO.C,MX101*%
X184721500Y-11938000D03*
D10*
X189801500Y-11938000D03*
D11*
X194881500Y-11938000D03*
D12*
X185991500Y-9398000D03*
X192341500Y-6858000D03*
%TD*%
D11*
%TO.C,MX68*%
X199009000Y7112000D03*
D10*
X204089000Y7112000D03*
D11*
X209169000Y7112000D03*
D12*
X200279000Y9652000D03*
X206629000Y12192000D03*
%TD*%
D10*
%TO.C,MX166*%
X237363000Y-54787800D03*
D11*
X242443000Y-54787800D03*
X232283000Y-54787800D03*
D12*
X233553000Y-52247800D03*
X239903000Y-49707800D03*
%TD*%
D13*
%TO.C,MX149*%
X177736500Y-36068000D03*
X184086500Y-33528000D03*
D11*
X175196500Y-30988000D03*
X185356500Y-30988000D03*
D10*
X180276500Y-30988000D03*
D14*
X187361500Y-33528000D03*
X174434500Y-36068000D03*
%TD*%
D11*
%TO.C,MX108*%
X-17100550Y-11912600D03*
X-27260550Y-11912600D03*
D10*
X-22180550Y-11912600D03*
D12*
X-25990550Y-9372600D03*
X-19640550Y-6832600D03*
%TD*%
D10*
%TO.C,MX78*%
X51638200Y7137400D03*
D11*
X46558200Y7137400D03*
X56718200Y7137400D03*
D12*
X47828200Y9677400D03*
X54178200Y12217400D03*
%TD*%
D11*
%TO.C,MX73*%
X-57581800Y7137400D03*
D10*
X-62661800Y7137400D03*
D11*
X-67741800Y7137400D03*
D12*
X-66471800Y9677400D03*
X-60121800Y12217400D03*
%TD*%
D11*
%TO.C,MX136*%
X251333000Y-35737800D03*
X261493000Y-35737800D03*
D10*
X256413000Y-35737800D03*
D12*
X252603000Y-33197800D03*
X258953000Y-30657800D03*
%TD*%
D11*
%TO.C,MX8*%
X132969000Y50038000D03*
X122809000Y50038000D03*
D10*
X127889000Y50038000D03*
D12*
X124079000Y52578000D03*
X130429000Y55118000D03*
%TD*%
D11*
%TO.C,MX157*%
X13855700Y-30962600D03*
D13*
X12585700Y-33502600D03*
D11*
X3695700Y-30962600D03*
D10*
X8775700Y-30962600D03*
D13*
X6235700Y-36042600D03*
D14*
X15860700Y-33502600D03*
X2933700Y-36042600D03*
%TD*%
D13*
%TO.C,MX48*%
X-36626800Y21107400D03*
D10*
X-34086800Y26187400D03*
D13*
X-30276800Y23647400D03*
D11*
X-29006800Y26187400D03*
X-39166800Y26187400D03*
D14*
X-27001800Y23647400D03*
X-39928800Y21107400D03*
%TD*%
D11*
%TO.C,MX44*%
X-69723000Y101219000D03*
D10*
X-64643000Y101219000D03*
D11*
X-59563000Y101219000D03*
D12*
X-68453000Y103759000D03*
X-62103000Y106299000D03*
%TD*%
D10*
%TO.C,MX7*%
X89738200Y49999900D03*
D11*
X84658200Y49999900D03*
X94818200Y49999900D03*
D12*
X85928200Y52539900D03*
X92278200Y55079900D03*
%TD*%
D10*
%TO.C,MX35*%
X42113200Y26187400D03*
D11*
X47193200Y26187400D03*
X37033200Y26187400D03*
D12*
X38303200Y28727400D03*
X44653200Y31267400D03*
%TD*%
D11*
%TO.C,MX54*%
X85293200Y26187400D03*
D13*
X84023200Y23647400D03*
X77673200Y21107400D03*
D10*
X80213200Y26187400D03*
D11*
X75133200Y26187400D03*
D14*
X87298200Y23647400D03*
X74371200Y21107400D03*
%TD*%
D11*
%TO.C,MX181*%
X270383000Y-54787800D03*
X280543000Y-54787800D03*
D13*
X279273000Y-57327800D03*
D10*
X275463000Y-54787800D03*
D13*
X272923000Y-59867800D03*
D14*
X282548000Y-57327800D03*
X269621000Y-59867800D03*
%TD*%
D18*
%TO.C,SW1*%
X-79741600Y45832400D03*
D19*
X-79741600Y40832400D03*
X-79741600Y43332400D03*
D20*
X-72241600Y48932400D03*
X-72241600Y37732400D03*
D19*
X-65241600Y40832400D03*
X-65241600Y45832400D03*
%TD*%
D13*
%TO.C,MX52*%
X39573200Y21107400D03*
D11*
X47193200Y26187400D03*
D10*
X42113200Y26187400D03*
D13*
X45923200Y23647400D03*
D11*
X37033200Y26187400D03*
D14*
X49198200Y23647400D03*
X36271200Y21107400D03*
%TD*%
D13*
%TO.C,MX27*%
X212661500Y47498000D03*
D11*
X203771500Y50038000D03*
X213931500Y50038000D03*
D10*
X208851500Y50038000D03*
D13*
X206311500Y44958000D03*
D14*
X215936500Y47498000D03*
X203009500Y44958000D03*
%TD*%
D10*
%TO.C,MX102*%
X208851500Y-11938000D03*
D11*
X203771500Y-11938000D03*
X213931500Y-11938000D03*
D12*
X205041500Y-9398000D03*
X211391500Y-6858000D03*
%TD*%
D15*
%TO.C,REF\u002A\u002A*%
X124333000Y-59817000D03*
X125603000Y-59817000D03*
X121793000Y-59817000D03*
X120523000Y-59817000D03*
X123063000Y-59817000D03*
%TD*%
D11*
%TO.C,MX163*%
X170434000Y-50038000D03*
X180594000Y-50038000D03*
D10*
X175514000Y-50038000D03*
D12*
X171704000Y-47498000D03*
X178054000Y-44958000D03*
%TD*%
D10*
%TO.C,MX57*%
X156464000Y26162000D03*
D11*
X161544000Y26162000D03*
D13*
X153924000Y21082000D03*
D11*
X151384000Y26162000D03*
D13*
X160274000Y23622000D03*
D14*
X163549000Y23622000D03*
X150622000Y21082000D03*
%TD*%
D10*
%TO.C,MX162*%
X137414000Y-50038000D03*
X156464000Y-41783000D03*
X118364000Y-41783000D03*
D17*
X156464000Y-57023000D03*
D11*
X142494000Y-50038000D03*
D17*
X118364000Y-57023000D03*
D11*
X132334000Y-50038000D03*
D12*
X133604000Y-47498000D03*
X139954000Y-44958000D03*
%TD*%
D15*
%TO.C,REF\u002A\u002A*%
X183134000Y59817000D03*
X185674000Y59817000D03*
X188214000Y59817000D03*
X184404000Y59817000D03*
X186944000Y59817000D03*
%TD*%
D13*
%TO.C,MX176*%
X179324000Y-52578000D03*
X172974000Y-55118000D03*
D10*
X175514000Y-50038000D03*
D11*
X180594000Y-50038000D03*
X170434000Y-50038000D03*
D14*
X182599000Y-52578000D03*
X169672000Y-55118000D03*
%TD*%
D15*
%TO.C,REF\u002A\u002A*%
X211455000Y-59817000D03*
X216535000Y-59817000D03*
X212725000Y-59817000D03*
X215265000Y-59817000D03*
X213995000Y-59817000D03*
%TD*%
D10*
%TO.C,MX66*%
X165989000Y7112000D03*
D11*
X160909000Y7112000D03*
X171069000Y7112000D03*
D12*
X162179000Y9652000D03*
X168529000Y12192000D03*
%TD*%
D10*
%TO.C,MX171*%
X-29324300Y-50012600D03*
D11*
X-34404300Y-50012600D03*
X-24244300Y-50012600D03*
D12*
X-33134300Y-47472600D03*
X-26784300Y-44932600D03*
%TD*%
D13*
%TO.C,MX28*%
X231711500Y47498000D03*
X225361500Y44958000D03*
D11*
X232981500Y50038000D03*
X222821500Y50038000D03*
D10*
X227901500Y50038000D03*
D14*
X234986500Y47498000D03*
X222059500Y44958000D03*
%TD*%
D10*
%TO.C,MX92*%
X-5511800Y7137400D03*
D13*
X-1701800Y4597400D03*
D11*
X-431800Y7137400D03*
D13*
X-8051800Y2057400D03*
D11*
X-10591800Y7137400D03*
D14*
X1573200Y4597400D03*
X-11353800Y2057400D03*
%TD*%
D10*
%TO.C,MX111*%
X37350700Y-11912600D03*
D11*
X42430700Y-11912600D03*
X32270700Y-11912600D03*
D12*
X33540700Y-9372600D03*
X39890700Y-6832600D03*
%TD*%
D11*
%TO.C,MX97*%
X108521500Y-11938000D03*
X118681500Y-11938000D03*
D10*
X113601500Y-11938000D03*
D12*
X109791500Y-9398000D03*
X116141500Y-6858000D03*
%TD*%
D13*
%TO.C,MX180*%
X260223000Y-57327800D03*
D11*
X261493000Y-54787800D03*
D10*
X256413000Y-54787800D03*
D11*
X251333000Y-54787800D03*
D13*
X253873000Y-59867800D03*
D14*
X263498000Y-57327800D03*
X250571000Y-59867800D03*
%TD*%
D13*
%TO.C,MX125*%
X-3289300Y-16992600D03*
D11*
X-5829300Y-11912600D03*
D10*
X-749300Y-11912600D03*
D11*
X4330700Y-11912600D03*
D13*
X3060700Y-14452600D03*
D14*
X6335700Y-14452600D03*
X-6591300Y-16992600D03*
%TD*%
D11*
%TO.C,MX79*%
X75768200Y7137400D03*
X65608200Y7137400D03*
D10*
X70688200Y7137400D03*
D12*
X66878200Y9677400D03*
X73228200Y12217400D03*
%TD*%
D10*
%TO.C,MX49*%
X-15036800Y26187400D03*
D11*
X-20116800Y26187400D03*
D13*
X-17576800Y21107400D03*
D11*
X-9956800Y26187400D03*
D13*
X-11226800Y23647400D03*
D14*
X-7951800Y23647400D03*
X-20878800Y21107400D03*
%TD*%
D11*
%TO.C,MX21*%
X75768200Y49999900D03*
D10*
X70688200Y49999900D03*
D13*
X74498200Y47459900D03*
X68148200Y44919900D03*
D11*
X65608200Y49999900D03*
D14*
X77773200Y47459900D03*
X64846200Y44919900D03*
%TD*%
D11*
%TO.C,MX110*%
X23380700Y-11912600D03*
X13220700Y-11912600D03*
D10*
X18300700Y-11912600D03*
D12*
X14490700Y-9372600D03*
X20840700Y-6832600D03*
%TD*%
D11*
%TO.C,MX31*%
X-39166800Y26187400D03*
D10*
X-34086800Y26187400D03*
D11*
X-29006800Y26187400D03*
D12*
X-37896800Y28727400D03*
X-31546800Y31267400D03*
%TD*%
D11*
%TO.C,MX44*%
X256794000Y26162000D03*
X246634000Y26162000D03*
D10*
X251714000Y26162000D03*
D12*
X247904000Y28702000D03*
X254254000Y31242000D03*
%TD*%
D11*
%TO.C,MX179*%
X232283000Y-54787800D03*
D10*
X237363000Y-54787800D03*
D11*
X242443000Y-54787800D03*
D13*
X241173000Y-57327800D03*
X234823000Y-59867800D03*
D14*
X244448000Y-57327800D03*
X231521000Y-59867800D03*
%TD*%
D21*
%TO.C,D31*%
X233664000Y17512000D03*
X233664000Y20812000D03*
%TD*%
%TO.C,D16*%
X-60960000Y42546000D03*
X-60960000Y45846000D03*
%TD*%
%TO.C,D9*%
X156939000Y41388000D03*
X156939000Y44688000D03*
%TD*%
D22*
%TO.C,R12*%
X75105500Y109347000D03*
X73230500Y109347000D03*
%TD*%
D21*
%TO.C,D24*%
X88213200Y17537400D03*
X88213200Y20837400D03*
%TD*%
D23*
%TO.C,U3*%
X-55470158Y35069620D03*
D24*
X-56080037Y32338420D03*
X-55726484Y31984867D03*
D23*
X-54904472Y34503934D03*
D24*
X-55372930Y31631313D03*
D23*
X-54338787Y33938249D03*
D24*
X-55019377Y31277760D03*
D23*
X-53773101Y33372564D03*
X-53207416Y32806878D03*
D24*
X-54665824Y30924206D03*
X-54312270Y30570653D03*
D23*
X-52641730Y32241193D03*
D24*
X-53958717Y30217100D03*
D23*
X-52076045Y31675507D03*
D24*
X-53605163Y29863546D03*
D23*
X-51510360Y31109822D03*
X-50944674Y30544136D03*
D24*
X-53251610Y29509993D03*
D23*
X-50378989Y29978451D03*
D24*
X-52898057Y29156439D03*
X-52544503Y28802886D03*
D23*
X-49813303Y29412766D03*
D25*
X-49813303Y27008603D03*
D26*
X-52544503Y27618482D03*
X-52898057Y27264929D03*
D25*
X-50378989Y26442917D03*
D26*
X-53251610Y26911375D03*
D25*
X-50944674Y25877232D03*
X-51510360Y25311546D03*
D26*
X-53605163Y26557822D03*
X-53958717Y26204269D03*
D25*
X-52076045Y24745861D03*
X-52641730Y24180175D03*
D26*
X-54312270Y25850715D03*
D25*
X-53207416Y23614490D03*
D26*
X-54665824Y25497162D03*
X-55019377Y25143608D03*
D25*
X-53773101Y23048805D03*
D26*
X-55372930Y24790055D03*
D25*
X-54338787Y22483119D03*
X-54904472Y21917434D03*
D26*
X-55726484Y24436502D03*
D25*
X-55470158Y21351748D03*
D26*
X-56080037Y24082948D03*
D24*
X-57264441Y24082948D03*
D23*
X-57874321Y21351748D03*
D24*
X-57617994Y24436502D03*
D23*
X-58440006Y21917434D03*
X-59005691Y22483119D03*
D24*
X-57971548Y24790055D03*
D23*
X-59571377Y23048805D03*
D24*
X-58325101Y25143608D03*
X-58678655Y25497162D03*
D23*
X-60137062Y23614490D03*
X-60702748Y24180175D03*
D24*
X-59032208Y25850715D03*
D23*
X-61268433Y24745861D03*
D24*
X-59385761Y26204269D03*
X-59739315Y26557822D03*
D23*
X-61834119Y25311546D03*
X-62399804Y25877232D03*
D24*
X-60092868Y26911375D03*
D23*
X-62965489Y26442917D03*
D24*
X-60446422Y27264929D03*
D23*
X-63531175Y27008603D03*
D24*
X-60799975Y27618482D03*
D25*
X-63531175Y29412766D03*
D26*
X-60799975Y28802886D03*
X-60446422Y29156439D03*
D25*
X-62965489Y29978451D03*
X-62399804Y30544136D03*
D26*
X-60067766Y29484891D03*
D25*
X-61834119Y31109822D03*
D26*
X-59739315Y29863546D03*
D25*
X-61268433Y31675507D03*
D26*
X-59385761Y30217100D03*
X-59032208Y30570653D03*
D25*
X-60702748Y32241193D03*
D26*
X-58678655Y30924206D03*
D25*
X-60137062Y32806878D03*
D26*
X-58325101Y31277760D03*
D25*
X-59571377Y33372564D03*
X-59005691Y33938249D03*
D26*
X-57971548Y31631313D03*
X-57617994Y31984867D03*
D25*
X-58440006Y34503934D03*
X-57874321Y35069620D03*
D26*
X-57264441Y32338420D03*
D27*
X-56672239Y28210684D03*
%TD*%
D21*
%TO.C,D22*%
X52113200Y17537400D03*
X52113200Y20837400D03*
%TD*%
%TO.C,D6*%
X80688200Y41349900D03*
X80688200Y44649900D03*
%TD*%
%TO.C,D44*%
X-52661800Y-1512600D03*
X-52661800Y1787400D03*
%TD*%
D28*
%TO.C,D17*%
X-22309000Y59682000D03*
D29*
X-22309000Y61402000D03*
X-20109000Y61402000D03*
X-20109000Y59502000D03*
%TD*%
D21*
%TO.C,D82*%
X92975700Y-39612600D03*
X92975700Y-36312600D03*
%TD*%
%TO.C,D95*%
X28300700Y-57662600D03*
X28300700Y-54362600D03*
%TD*%
D22*
%TO.C,C18*%
X56366500Y131151000D03*
X54491500Y131151000D03*
%TD*%
%TO.C,R5*%
X70695500Y118197000D03*
X68820500Y118197000D03*
%TD*%
D21*
%TO.C,D87*%
X223614000Y-57688000D03*
X223614000Y-54388000D03*
%TD*%
D30*
%TO.C,U2*%
X214122000Y68250000D03*
X214122000Y61250000D03*
D31*
X216422000Y58550000D03*
X211822000Y59650000D03*
X211822000Y63650000D03*
X211822000Y66650000D03*
%TD*%
D21*
%TO.C,D94*%
X4488200Y-57662600D03*
X4488200Y-54362600D03*
%TD*%
%TO.C,D25*%
X128364000Y17512000D03*
X128364000Y20812000D03*
%TD*%
%TO.C,D84*%
X147414000Y-57688000D03*
X147414000Y-54388000D03*
%TD*%
%TO.C,D56*%
X218851500Y-20588000D03*
X218851500Y-17288000D03*
%TD*%
D28*
%TO.C,D83*%
X37606104Y114308000D03*
D29*
X37606104Y112588000D03*
X35406104Y112588000D03*
X35406104Y114488000D03*
%TD*%
D21*
%TO.C,D79*%
X37825700Y-39612600D03*
X37825700Y-36312600D03*
%TD*%
D32*
%TO.C,C9*%
X-57579500Y17653000D03*
X-55704500Y17653000D03*
%TD*%
D21*
%TO.C,D47*%
X23538200Y-1512600D03*
X23538200Y1787400D03*
%TD*%
%TO.C,D30*%
X223614000Y17512000D03*
X223614000Y20812000D03*
%TD*%
%TO.C,D63*%
X28300700Y-20562600D03*
X28300700Y-17262600D03*
%TD*%
%TO.C,D89*%
X266413000Y-62437800D03*
X266413000Y-59137800D03*
%TD*%
%TO.C,D27*%
X166464000Y17512000D03*
X166464000Y20812000D03*
%TD*%
%TO.C,D49*%
X61638200Y-1512600D03*
X61638200Y1787400D03*
%TD*%
%TO.C,D33*%
X287289000Y17512000D03*
X287289000Y20812000D03*
%TD*%
D22*
%TO.C,R6*%
X79205500Y115247000D03*
X77330500Y115247000D03*
%TD*%
D21*
%TO.C,D96*%
X71163200Y-57662600D03*
X71163200Y-54362600D03*
%TD*%
%TO.C,D50*%
X78688200Y-1512600D03*
X78688200Y1787400D03*
%TD*%
%TO.C,D45*%
X-19324300Y-1512600D03*
X-19324300Y1787400D03*
%TD*%
D33*
%TO.C,R9*%
X-52832000Y42974500D03*
X-52832000Y41099500D03*
%TD*%
%TO.C,C12*%
X-46228000Y29131500D03*
X-46228000Y27256500D03*
%TD*%
D21*
%TO.C,D3*%
X18775700Y41349900D03*
X18775700Y44649900D03*
%TD*%
%TO.C,D51*%
X123601500Y-20588000D03*
X123601500Y-17288000D03*
%TD*%
%TO.C,D7*%
X97738200Y41349900D03*
X97738200Y44649900D03*
%TD*%
D34*
%TO.C,U4*%
X20266404Y125563000D03*
D35*
X22628904Y127063000D03*
D34*
X20266404Y125063000D03*
D35*
X22628904Y126263000D03*
D34*
X20266404Y124563000D03*
D35*
X22628904Y125463000D03*
X22628904Y124663000D03*
D34*
X20266404Y124063000D03*
X20266404Y123563000D03*
D35*
X22628904Y123863000D03*
D34*
X20266404Y123063000D03*
D35*
X22628904Y123063000D03*
X22628904Y122263000D03*
D34*
X20266404Y122563000D03*
X20266404Y122063000D03*
D35*
X22628904Y121463000D03*
D34*
X20266404Y121563000D03*
D35*
X22628904Y120663000D03*
D34*
X20266404Y121063000D03*
D35*
X22628904Y119863000D03*
X22628904Y119063000D03*
D34*
X20266404Y120563000D03*
D36*
X19428904Y119725500D03*
D37*
X20928904Y117363000D03*
D36*
X18928904Y119725500D03*
D37*
X20128904Y117363000D03*
X19328904Y117363000D03*
D36*
X18428904Y119725500D03*
X17928904Y119725500D03*
D37*
X18528904Y117363000D03*
X17728904Y117363000D03*
D36*
X17428904Y119725500D03*
D37*
X16928904Y117363000D03*
D36*
X16928904Y119725500D03*
D37*
X16128904Y117363000D03*
D36*
X16428904Y119725500D03*
X15928904Y119725500D03*
D37*
X15328904Y117363000D03*
X14528904Y117363000D03*
D36*
X15428904Y119725500D03*
X14928904Y119725500D03*
D37*
X13728904Y117363000D03*
D36*
X14428904Y119725500D03*
D37*
X12928904Y117363000D03*
D35*
X11228904Y119063000D03*
D34*
X13591404Y120563000D03*
D35*
X11228904Y119863000D03*
D34*
X13591404Y121063000D03*
X13591404Y121563000D03*
D35*
X11228904Y120663000D03*
X11228904Y121463000D03*
D34*
X13591404Y122063000D03*
D35*
X11228904Y122263000D03*
D34*
X13591404Y122563000D03*
D35*
X11228904Y123063000D03*
D34*
X13591404Y123063000D03*
D35*
X11228904Y123863000D03*
D34*
X13591404Y123563000D03*
X13591404Y124063000D03*
D35*
X11228904Y124663000D03*
D34*
X13591404Y124563000D03*
D35*
X11228904Y125463000D03*
X11228904Y126263000D03*
D34*
X13591404Y125063000D03*
D35*
X11228904Y127063000D03*
D34*
X13591404Y125563000D03*
D36*
X14428904Y126400500D03*
D37*
X12928904Y128763000D03*
D36*
X14928904Y126400500D03*
D37*
X13728904Y128763000D03*
D36*
X15428904Y126365000D03*
D37*
X14528904Y128763000D03*
X15328904Y128763000D03*
D36*
X15928904Y126400500D03*
D37*
X16128904Y128763000D03*
D36*
X16428904Y126400500D03*
D37*
X16928904Y128763000D03*
D36*
X16928904Y126400500D03*
X17428904Y126400500D03*
D37*
X17728904Y128763000D03*
X18528904Y128763000D03*
D36*
X17928904Y126400500D03*
X18428904Y126400500D03*
D37*
X19328904Y128763000D03*
D36*
X18928904Y126400500D03*
D37*
X20128904Y128763000D03*
X20928904Y128763000D03*
D36*
X19428904Y126400500D03*
D38*
X16928904Y123063000D03*
%TD*%
D21*
%TO.C,D62*%
X9250700Y-20562600D03*
X9250700Y-17262600D03*
%TD*%
%TO.C,D59*%
X-71711800Y-20562600D03*
X-71711800Y-17262600D03*
%TD*%
%TO.C,D12*%
X218851500Y41388000D03*
X218851500Y44688000D03*
%TD*%
D33*
%TO.C,R10*%
X-50805000Y42974500D03*
X-50805000Y41099500D03*
%TD*%
D21*
%TO.C,D10*%
X180751500Y41388000D03*
X180751500Y44688000D03*
%TD*%
%TO.C,D71*%
X209326500Y-39638000D03*
X209326500Y-36338000D03*
%TD*%
%TO.C,D23*%
X71163200Y17537400D03*
X71163200Y20837400D03*
%TD*%
%TO.C,D11*%
X199801500Y41388000D03*
X199801500Y44688000D03*
%TD*%
%TO.C,D81*%
X75925700Y-39612600D03*
X75925700Y-36312600D03*
%TD*%
%TO.C,D68*%
X152176500Y-39638000D03*
X152176500Y-36338000D03*
%TD*%
%TO.C,D43*%
X-71711800Y-1512600D03*
X-71711800Y1787400D03*
%TD*%
D39*
%TO.C,USB1*%
X-24099000Y65632000D03*
X-18319000Y65632000D03*
D40*
X-24434000Y64187000D03*
X-23659000Y64187000D03*
D41*
X-22959000Y64187000D03*
X-22459000Y64187000D03*
X-21959000Y64187000D03*
X-21459000Y64187000D03*
X-20959000Y64187000D03*
X-20459000Y64187000D03*
X-19959000Y64187000D03*
X-19459000Y64187000D03*
D40*
X-18759000Y64187000D03*
X-17984000Y64187000D03*
%TD*%
D21*
%TO.C,D66*%
X83450700Y-20562600D03*
X83450700Y-17262600D03*
%TD*%
%TO.C,D46*%
X4488200Y-1512600D03*
X4488200Y1787400D03*
%TD*%
%TO.C,D93*%
X-19324300Y-57662600D03*
X-19324300Y-54362600D03*
%TD*%
%TO.C,D57*%
X246807750Y-20588000D03*
X246807750Y-17288000D03*
%TD*%
%TO.C,D19*%
X-5036800Y17537400D03*
X-5036800Y20837400D03*
%TD*%
D42*
%TO.C,C7*%
X-48922913Y38127913D03*
X-47597087Y36802087D03*
%TD*%
D33*
%TO.C,R2*%
X-25654000Y61389500D03*
X-25654000Y59514500D03*
%TD*%
D21*
%TO.C,D91*%
X-71711800Y-57662600D03*
X-71711800Y-54362600D03*
%TD*%
%TO.C,D52*%
X142651500Y-20588000D03*
X142651500Y-17288000D03*
%TD*%
%TO.C,D88*%
X247363000Y-62437800D03*
X247363000Y-59137800D03*
%TD*%
D22*
%TO.C,C14*%
X79515500Y109347000D03*
X77640500Y109347000D03*
%TD*%
%TO.C,C10*%
X-55704500Y38735000D03*
X-57579500Y38735000D03*
%TD*%
D21*
%TO.C,D34*%
X118839000Y-1538000D03*
X118839000Y1762000D03*
%TD*%
%TO.C,D75*%
X-71711800Y-39612600D03*
X-71711800Y-36312600D03*
%TD*%
D39*
%TO.C,USB2*%
X226218000Y65632000D03*
X231998000Y65632000D03*
D40*
X225883000Y64187000D03*
X226658000Y64187000D03*
D41*
X227358000Y64187000D03*
X227858000Y64187000D03*
X228358000Y64187000D03*
X228858000Y64187000D03*
X229358000Y64187000D03*
X229858000Y64187000D03*
X230358000Y64187000D03*
X230858000Y64187000D03*
D40*
X231558000Y64187000D03*
X232333000Y64187000D03*
%TD*%
D21*
%TO.C,D53*%
X161701500Y-20588000D03*
X161701500Y-17288000D03*
%TD*%
%TO.C,D13*%
X237901500Y41388000D03*
X237901500Y44688000D03*
%TD*%
%TO.C,D60*%
X-52661800Y-20562600D03*
X-52661800Y-17262600D03*
%TD*%
%TO.C,D20*%
X14013200Y17537400D03*
X14013200Y20837400D03*
%TD*%
%TO.C,D29*%
X204564000Y17512000D03*
X204564000Y20812000D03*
%TD*%
%TO.C,D61*%
X-13180550Y-20562600D03*
X-13180550Y-17262600D03*
%TD*%
%TO.C,D48*%
X42588200Y-1512600D03*
X42588200Y1787400D03*
%TD*%
D22*
%TO.C,C17*%
X47546500Y122301000D03*
X45671500Y122301000D03*
%TD*%
D21*
%TO.C,D69*%
X171226500Y-39638000D03*
X171226500Y-36338000D03*
%TD*%
D43*
%TO.C,Y2*%
X49109000Y134301000D03*
X46209000Y134301000D03*
X46209000Y136601000D03*
X49109000Y136601000D03*
%TD*%
D21*
%TO.C,D65*%
X66400700Y-20562600D03*
X66400700Y-17262600D03*
%TD*%
D44*
%TO.C,Y1*%
X-46308077Y20151132D03*
X-48358687Y18100522D03*
X-49985033Y19726868D03*
X-47934423Y21777478D03*
%TD*%
D22*
%TO.C,R8*%
X79515500Y106397000D03*
X77640500Y106397000D03*
%TD*%
D21*
%TO.C,D14*%
X261714000Y41388000D03*
X261714000Y44688000D03*
%TD*%
%TO.C,D90*%
X282463000Y-62937800D03*
X282463000Y-59637800D03*
%TD*%
%TO.C,D72*%
X235520250Y-39638000D03*
X235520250Y-36338000D03*
%TD*%
%TO.C,D18*%
X-24086800Y17537400D03*
X-24086800Y20837400D03*
%TD*%
%TO.C,D80*%
X56875700Y-39612600D03*
X56875700Y-36312600D03*
%TD*%
%TO.C,D1*%
X-24086800Y41349900D03*
X-24086800Y44649900D03*
%TD*%
D22*
%TO.C,C2*%
X-18874500Y108959000D03*
X-20749500Y108959000D03*
%TD*%
D21*
%TO.C,D76*%
X-52661800Y-39612600D03*
X-52661800Y-36312600D03*
%TD*%
%TO.C,D35*%
X137889000Y-1538000D03*
X137889000Y1762000D03*
%TD*%
D22*
%TO.C,C15*%
X74795500Y115247000D03*
X72920500Y115247000D03*
%TD*%
D21*
%TO.C,D67*%
X133126500Y-39638000D03*
X133126500Y-36338000D03*
%TD*%
%TO.C,D4*%
X37825700Y41349900D03*
X37825700Y44649900D03*
%TD*%
%TO.C,D86*%
X204564000Y-57688000D03*
X204564000Y-54388000D03*
%TD*%
%TO.C,D8*%
X137889000Y41388000D03*
X137889000Y44688000D03*
%TD*%
D45*
%TO.C,C11*%
X-67183000Y27256500D03*
X-67183000Y29131500D03*
%TD*%
D21*
%TO.C,D32*%
X249189000Y17512000D03*
X249189000Y20812000D03*
%TD*%
%TO.C,D37*%
X175989000Y-1538000D03*
X175989000Y1762000D03*
%TD*%
D42*
%TO.C,C3*%
X-46015468Y23395913D03*
X-44689642Y22070087D03*
%TD*%
D21*
%TO.C,D74*%
X287289000Y-39638000D03*
X287289000Y-36338000D03*
%TD*%
D30*
%TO.C,U1*%
X-6096000Y68250000D03*
X-6096000Y61250000D03*
D31*
X-3796000Y58550000D03*
X-8396000Y59650000D03*
X-8396000Y63650000D03*
X-8396000Y66650000D03*
%TD*%
D22*
%TO.C,C6*%
X51956500Y122301000D03*
X50081500Y122301000D03*
%TD*%
D33*
%TO.C,R3*%
X-17526000Y60627500D03*
X-17526000Y58752500D03*
%TD*%
D22*
%TO.C,R4*%
X-23284500Y108959000D03*
X-25159500Y108959000D03*
%TD*%
D46*
%TO.C,C5*%
X-50277642Y16482087D03*
X-51603468Y17807913D03*
%TD*%
D21*
%TO.C,D2*%
X-274300Y41349900D03*
X-274300Y44649900D03*
%TD*%
%TO.C,D55*%
X199801500Y-20588000D03*
X199801500Y-17288000D03*
%TD*%
%TO.C,D64*%
X47350700Y-20562600D03*
X47350700Y-17262600D03*
%TD*%
D22*
%TO.C,F2*%
X51956500Y131151000D03*
X50081500Y131151000D03*
%TD*%
D32*
%TO.C,C13*%
X-54023500Y38100000D03*
X-52148500Y38100000D03*
%TD*%
D33*
%TO.C,F1*%
X-20066000Y57325500D03*
X-20066000Y55450500D03*
%TD*%
D21*
%TO.C,D36*%
X156939000Y-1538000D03*
X156939000Y1762000D03*
%TD*%
%TO.C,D21*%
X33063200Y17537400D03*
X33063200Y20837400D03*
%TD*%
%TO.C,D92*%
X-52661800Y-57662600D03*
X-52661800Y-54362600D03*
%TD*%
D32*
%TO.C,R7*%
X-44498500Y35687000D03*
X-42623500Y35687000D03*
%TD*%
D21*
%TO.C,D54*%
X180751500Y-20588000D03*
X180751500Y-17288000D03*
%TD*%
%TO.C,D42*%
X287289000Y-1538000D03*
X287289000Y1762000D03*
%TD*%
%TO.C,D41*%
X256951500Y-1538000D03*
X256951500Y1762000D03*
%TD*%
%TO.C,D40*%
X233139000Y-1538000D03*
X233139000Y1762000D03*
%TD*%
D22*
%TO.C,C8*%
X47546500Y131151000D03*
X45671500Y131151000D03*
%TD*%
D21*
%TO.C,D73*%
X266413000Y-44387800D03*
X266413000Y-41087800D03*
%TD*%
%TO.C,D78*%
X18775700Y-39612600D03*
X18775700Y-36312600D03*
%TD*%
%TO.C,D39*%
X214089000Y-1538000D03*
X214089000Y1762000D03*
%TD*%
%TO.C,D58*%
X287289000Y-20588000D03*
X287289000Y-17288000D03*
%TD*%
D22*
%TO.C,C16*%
X47546500Y128201000D03*
X45671500Y128201000D03*
%TD*%
D21*
%TO.C,D5*%
X56875700Y41349900D03*
X56875700Y44649900D03*
%TD*%
%TO.C,D38*%
X195039000Y-1538000D03*
X195039000Y1762000D03*
%TD*%
%TO.C,D85*%
X185514000Y-57688000D03*
X185514000Y-54388000D03*
%TD*%
%TO.C,D70*%
X190276500Y-39638000D03*
X190276500Y-36338000D03*
%TD*%
%TO.C,D28*%
X185514000Y17512000D03*
X185514000Y20812000D03*
%TD*%
%TO.C,D77*%
X-14180550Y-39612600D03*
X-14180550Y-36312600D03*
%TD*%
D22*
%TO.C,C4*%
X79515500Y118197000D03*
X77640500Y118197000D03*
%TD*%
D21*
%TO.C,D26*%
X147414000Y17512000D03*
X147414000Y20812000D03*
%TD*%
D46*
%TO.C,R11*%
X-67536087Y24229087D03*
X-68861913Y25554913D03*
%TD*%
D21*
%TO.C,D15*%
X287289000Y41388000D03*
X287289000Y44688000D03*
%TD*%
M02*
