M48
; DRILL file {KiCad (5.99.0-12118-g897269f33f)} date Sun Sep 12 17:19:35 2021
; FORMAT={-:-/ absolute / inch / decimal}
; #@! TF.CreationDate,2021-09-12T17:19:35-04:00
; #@! TF.GenerationSoftware,Kicad,Pcbnew,(5.99.0-12118-g897269f33f)
; #@! TF.FileFunction,NonPlated,1,2,NPTH
FMAT,2
INCH
; #@! TA.AperFunction,NonPlated,NPTH,ComponentDrill
T1C0.0256
; #@! TA.AperFunction,NonPlated,NPTH,ComponentDrill
T2C0.0310
; #@! TA.AperFunction,NonPlated,NPTH,ComponentDrill
T3C0.0315
; #@! TA.AperFunction,NonPlated,NPTH,ComponentDrill
T4C0.0689
; #@! TA.AperFunction,NonPlated,NPTH,ComponentDrill
T5C0.1181
; #@! TA.AperFunction,NonPlated,NPTH,ComponentDrill
T6C0.1200
; #@! TA.AperFunction,NonPlated,NPTH,ComponentDrill
T7C0.1570
%
G90
G05
T1
X-0.9488Y2.5839
X-0.7212Y2.5839
X8.9062Y2.5839
X9.1338Y2.5839
T2
X-0.955Y-2.355
X-0.905Y-2.355
X-0.855Y-2.355
X-0.805Y-2.355
X-0.755Y-2.355
X-0.705Y-2.355
X-0.655Y-2.355
X-0.605Y-2.355
X-0.555Y-2.355
X-0.505Y-2.355
X0.05Y-2.355
X0.1Y-2.355
X0.15Y-2.355
X0.2Y-2.355
X0.25Y-2.355
X0.3Y-2.355
X0.35Y-2.355
X0.4Y-2.355
X0.45Y-2.355
X0.5Y-2.355
X0.525Y2.355
X0.575Y2.355
X0.625Y2.355
X0.675Y2.355
X0.725Y2.355
X0.78Y2.355
X0.83Y2.355
X0.88Y2.355
X0.93Y2.355
X0.98Y2.355
X2.915Y-2.355
X2.965Y-2.355
X3.015Y-2.355
X3.065Y-2.355
X3.115Y-2.355
X3.165Y-2.355
X3.215Y-2.355
X3.265Y-2.355
X3.315Y-2.355
X3.365Y-2.355
X4.745Y-2.355
X4.795Y-2.355
X4.845Y-2.355
X4.895Y-2.355
X4.945Y-2.355
X4.995Y-2.355
X5.045Y-2.355
X5.095Y-2.355
X5.145Y-2.355
X5.195Y-2.355
X7.21Y2.355
X7.26Y2.355
X7.31Y2.355
X7.36Y2.355
X7.41Y2.355
X7.465Y2.355
X7.515Y2.355
X7.565Y2.355
X7.615Y2.355
X7.665Y2.355
X8.075Y-2.355
X8.125Y-2.355
X8.175Y-2.355
X8.225Y-2.355
X8.275Y-2.355
X8.325Y-2.355
X8.375Y-2.355
X8.425Y-2.355
X8.475Y-2.355
X8.525Y-2.355
T3
X-0.24Y2.687
X-0.24Y2.4114
X8.43Y2.687
X8.43Y2.4114
T4
X-3.417Y0.281
X-3.417Y0.281
X-3.417Y-0.469
X-3.417Y-0.469
X-3.417Y-1.219
X-3.417Y-1.219
X-3.417Y-1.969
X-3.417Y-1.969
X-3.017Y0.281
X-3.017Y0.281
X-3.017Y-0.469
X-3.017Y-0.469
X-3.017Y-1.219
X-3.017Y-1.219
X-3.017Y-1.969
X-3.017Y-1.969
X-2.745Y3.985
X-2.667Y0.281
X-2.667Y0.281
X-2.667Y-0.469
X-2.667Y-0.469
X-2.667Y-1.219
X-2.667Y-1.219
X-2.667Y-1.969
X-2.667Y-1.969
X-2.345Y3.985
X-2.267Y0.281
X-2.267Y0.281
X-2.267Y-0.469
X-2.267Y-0.469
X-2.267Y-1.219
X-2.267Y-1.219
X-2.267Y-1.969
X-2.267Y-1.969
X-1.9497Y3.985
X-1.5497Y3.985
X-1.542Y1.9685
X-1.542Y1.9685
X-1.542Y1.031
X-1.542Y1.031
X-1.3545Y0.281
X-1.3545Y0.281
X-1.3545Y-1.969
X-1.3545Y-1.969
X-1.2608Y-0.469
X-1.2608Y-0.469
X-1.142Y1.9685
X-1.142Y1.9685
X-1.142Y1.031
X-1.142Y1.031
X-1.0733Y-0.469
X-1.0733Y-1.219
X-1.0733Y-1.219
X-0.9545Y0.281
X-0.9545Y0.281
X-0.9545Y-1.969
X-0.9545Y-1.969
X-0.8608Y-0.469
X-0.8608Y-0.469
X-0.792Y1.031
X-0.792Y1.031
X-0.6733Y-0.469
X-0.6733Y-1.219
X-0.6733Y-1.219
X-0.6045Y1.9685
X-0.6045Y1.9685
X-0.417Y0.281
X-0.417Y0.281
X-0.417Y-1.969
X-0.417Y-1.969
X-0.392Y1.031
X-0.392Y1.031
X-0.2295Y-0.469
X-0.2295Y-0.469
X-0.2045Y1.9685
X-0.2045Y1.9685
X-0.042Y1.031
X-0.042Y1.031
X-0.017Y0.281
X-0.017Y0.281
X-0.017Y-1.969
X-0.017Y-1.969
X0.1455Y1.9685
X0.1455Y1.9685
X0.1455Y-1.219
X0.1455Y-1.219
X0.1705Y-0.469
X0.1705Y-0.469
X0.333Y0.281
X0.333Y0.281
X0.358Y1.031
X0.358Y1.031
X0.5205Y-0.469
X0.5205Y-0.469
X0.5205Y-1.969
X0.5205Y-1.969
X0.5455Y1.9685
X0.5455Y1.9685
X0.5455Y-1.219
X0.5455Y-1.219
X0.708Y1.031
X0.708Y1.031
X0.733Y0.281
X0.733Y0.281
X0.8955Y1.9685
X0.8955Y1.9685
X0.8955Y-1.219
X0.8955Y-1.219
X0.9205Y-0.469
X0.9205Y-0.469
X0.9205Y-1.969
X0.9205Y-1.969
X1.083Y0.281
X1.083Y0.281
X1.108Y1.031
X1.108Y1.031
X1.2705Y-0.469
X1.2705Y-0.469
X1.2955Y1.9685
X1.2955Y1.9685
X1.2955Y-1.219
X1.2955Y-1.219
X1.458Y1.031
X1.458Y1.031
X1.483Y0.281
X1.483Y0.281
X1.6455Y1.9685
X1.6455Y1.9685
X1.6455Y-1.219
X1.6455Y-1.219
X1.6705Y-0.469
X1.6705Y-0.469
X1.833Y0.281
X1.833Y0.281
X1.858Y1.031
X1.858Y1.031
X2.0205Y-0.469
X2.0205Y-0.469
X2.0455Y1.9685
X2.0455Y1.9685
X2.0455Y-1.219
X2.0455Y-1.219
X2.208Y1.031
X2.208Y1.031
X2.208Y-1.969
X2.208Y-1.969
X2.233Y0.281
X2.233Y0.281
X2.3955Y-1.219
X2.3955Y-1.219
X2.4205Y-0.469
X2.4205Y-0.469
X2.583Y1.9685
X2.583Y1.9685
X2.583Y0.281
X2.583Y0.281
X2.608Y1.031
X2.608Y1.031
X2.608Y-1.969
X2.608Y-1.969
X2.7705Y-0.469
X2.7705Y-0.469
X2.7955Y-1.219
X2.7955Y-1.219
X2.958Y1.031
X2.958Y1.031
X2.983Y1.9685
X2.983Y1.9685
X2.983Y0.281
X2.983Y0.281
X3.1455Y-1.219
X3.1455Y-1.219
X3.1705Y-0.469
X3.1705Y-0.469
X3.333Y1.9685
X3.333Y1.9685
X3.358Y1.031
X3.358Y1.031
X3.5455Y-1.219
X3.5455Y-1.219
X3.733Y1.9685
X3.733Y1.9685
X4.085Y0.28
X4.085Y0.28
X4.2725Y-0.47
X4.2725Y-0.47
X4.46Y1.03
X4.46Y1.03
X4.485Y0.28
X4.485Y0.28
X4.6475Y-1.22
X4.6475Y-1.22
X4.6725Y-0.47
X4.6725Y-0.47
X4.835Y1.97
X4.835Y1.97
X4.835Y0.28
X4.835Y0.28
X4.86Y1.03
X4.86Y1.03
X5.0225Y-0.47
X5.0225Y-0.47
X5.0475Y-1.22
X5.0475Y-1.22
X5.21Y1.03
X5.21Y1.03
X5.21Y-1.97
X5.21Y-1.97
X5.235Y1.97
X5.235Y1.97
X5.235Y0.28
X5.235Y0.28
X5.3975Y-1.22
X5.3975Y-1.22
X5.4225Y-0.47
X5.4225Y-0.47
X5.585Y1.97
X5.585Y1.97
X5.585Y0.28
X5.585Y0.28
X5.61Y1.03
X5.61Y1.03
X5.61Y-1.97
X5.61Y-1.97
X5.7725Y-0.47
X5.7725Y-0.47
X5.7975Y-1.22
X5.7975Y-1.22
X5.96Y1.03
X5.96Y1.03
X5.985Y1.97
X5.985Y1.97
X5.985Y0.28
X5.985Y0.28
X6.1475Y-1.22
X6.1475Y-1.22
X6.1725Y-0.47
X6.1725Y-0.47
X6.335Y0.28
X6.335Y0.28
X6.36Y1.03
X6.36Y1.03
X6.5225Y1.97
X6.5225Y1.97
X6.5225Y-0.47
X6.5225Y-0.47
X6.5475Y-1.22
X6.5475Y-1.22
X6.71Y1.03
X6.71Y1.03
X6.71Y-1.97
X6.71Y-1.97
X6.735Y0.28
X6.735Y0.28
X6.8975Y-1.22
X6.8975Y-1.22
X6.9225Y1.97
X6.9225Y1.97
X6.9225Y-0.47
X6.9225Y-0.47
X7.085Y0.28
X7.085Y0.28
X7.11Y1.03
X7.11Y1.03
X7.11Y-1.97
X7.11Y-1.97
X7.2725Y1.97
X7.2725Y1.97
X7.2725Y-0.47
X7.2725Y-0.47
X7.2975Y-1.22
X7.2975Y-1.22
X7.46Y1.03
X7.46Y1.03
X7.46Y-1.97
X7.46Y-1.97
X7.485Y0.28
X7.485Y0.28
X7.6475Y-1.22
X7.6475Y-1.22
X7.6725Y1.97
X7.6725Y1.97
X7.6725Y-0.47
X7.6725Y-0.47
X7.835Y0.28
X7.835Y0.28
X7.86Y1.03
X7.86Y1.03
X7.86Y-1.97
X7.86Y-1.97
X8.0225Y1.97
X8.0225Y1.97
X8.0225Y-0.47
X8.0225Y-0.47
X8.0475Y-1.22
X8.0475Y-1.22
X8.21Y1.03
X8.21Y1.03
X8.21Y-1.97
X8.21Y-1.97
X8.235Y0.28
X8.235Y0.28
X8.4225Y1.97
X8.4225Y1.97
X8.4225Y-0.47
X8.4225Y-0.47
X8.585Y0.28
X8.585Y0.28
X8.61Y1.03
X8.61Y1.03
X8.61Y-1.97
X8.61Y-1.97
X8.6787Y-1.22
X8.6787Y-1.22
X8.7725Y1.97
X8.7725Y1.97
X8.96Y1.03
X8.985Y0.28
X8.985Y0.28
X9.0787Y-1.22
X9.0787Y-1.22
X9.145Y-2.157
X9.145Y-2.157
X9.1725Y1.97
X9.1725Y1.97
X9.2412Y-0.47
X9.2412Y-0.47
X9.335Y1.03
X9.335Y1.03
X9.36Y1.03
X9.5225Y0.28
X9.5225Y0.28
X9.545Y-2.157
X9.545Y-2.157
X9.6412Y-0.47
X9.6412Y-0.47
X9.71Y1.97
X9.71Y1.97
X9.71Y1.03
X9.735Y1.03
X9.735Y1.03
X9.895Y-1.407
X9.895Y-1.407
X9.895Y-2.157
X9.895Y-2.157
X9.9225Y0.28
X9.9225Y0.28
X10.11Y1.97
X10.11Y1.97
X10.11Y1.03
X10.295Y-1.407
X10.295Y-1.407
X10.295Y-2.157
X10.295Y-2.157
X10.645Y-2.157
X10.645Y-2.157
X10.835Y1.97
X10.835Y1.97
X10.835Y1.03
X10.835Y1.03
X10.835Y0.28
X10.835Y0.28
X10.835Y-0.47
X10.835Y-0.47
X10.835Y-1.22
X10.835Y-1.22
X11.045Y-2.157
X11.045Y-2.157
X11.235Y1.97
X11.235Y1.97
X11.235Y1.03
X11.235Y1.03
X11.235Y0.28
X11.235Y0.28
X11.235Y-0.47
X11.235Y-0.47
X11.235Y-1.22
X11.235Y-1.22
T5
X-3.317Y0.081
X-3.317Y-0.669
X-3.317Y-1.419
X-3.317Y-2.169
X-3.067Y0.181
X-3.067Y-0.569
X-3.067Y-1.319
X-3.067Y-2.069
X-2.567Y0.081
X-2.567Y-0.669
X-2.567Y-1.419
X-2.567Y-2.169
X-2.317Y0.181
X-2.317Y-0.569
X-2.317Y-1.319
X-2.317Y-2.069
X-1.442Y1.7685
X-1.442Y0.831
X-1.2545Y0.081
X-1.2545Y-2.169
X-1.192Y1.8685
X-1.192Y0.931
X-1.1607Y-0.669
X-1.0045Y0.181
X-1.0045Y-2.069
X-0.9732Y-1.419
X-0.9107Y-0.569
X-0.7232Y-1.319
X-0.692Y0.831
X-0.5045Y1.7685
X-0.442Y0.931
X-0.317Y0.081
X-0.317Y-2.169
X-0.2545Y1.8685
X-0.1295Y-0.669
X-0.067Y0.181
X-0.067Y-2.069
X0.058Y0.831
X0.1205Y-0.569
X0.2455Y1.7685
X0.2455Y-1.419
X0.308Y0.931
X0.433Y0.081
X0.4955Y1.8685
X0.4955Y-1.319
X0.6205Y-0.669
X0.6205Y-2.169
X0.683Y0.181
X0.808Y0.831
X0.8705Y-0.569
X0.8705Y-2.069
X0.9955Y1.7685
X0.9955Y-1.419
X1.058Y0.931
X1.183Y0.081
X1.2455Y1.8685
X1.2455Y-1.319
X1.3705Y-0.669
X1.433Y0.181
X1.558Y0.831
X1.6205Y-0.569
X1.7455Y1.7685
X1.7455Y-1.419
X1.808Y0.931
X1.933Y0.081
X1.9955Y1.8685
X1.9955Y-1.319
X2.1205Y-0.669
X2.183Y0.181
X2.308Y0.831
X2.308Y-2.169
X2.3705Y-0.569
X2.4955Y-1.419
X2.558Y0.931
X2.558Y-2.069
X2.683Y1.7685
X2.683Y0.081
X2.7455Y-1.319
X2.8705Y-0.669
X2.933Y1.8685
X2.933Y0.181
X3.058Y0.831
X3.1205Y-0.569
X3.2455Y-1.419
X3.308Y0.931
X3.433Y1.7685
X3.4955Y-1.319
X3.683Y1.8685
X4.185Y0.08
X4.3725Y-0.67
X4.435Y0.18
X4.56Y0.83
X4.6225Y-0.57
X4.7475Y-1.42
X4.81Y0.93
X4.935Y1.77
X4.935Y0.08
X4.9975Y-1.32
X5.1225Y-0.67
X5.185Y1.87
X5.185Y0.18
X5.31Y0.83
X5.31Y-2.17
X5.3725Y-0.57
X5.4975Y-1.42
X5.56Y0.93
X5.56Y-2.07
X5.685Y1.77
X5.685Y0.08
X5.7475Y-1.32
X5.8725Y-0.67
X5.935Y1.87
X5.935Y0.18
X6.06Y0.83
X6.1225Y-0.57
X6.2475Y-1.42
X6.31Y0.93
X6.435Y0.08
X6.4975Y-1.32
X6.6225Y1.77
X6.6225Y-0.67
X6.685Y0.18
X6.81Y0.83
X6.81Y-2.17
X6.8725Y1.87
X6.8725Y-0.57
X6.9975Y-1.42
X7.06Y0.93
X7.06Y-2.07
X7.185Y0.08
X7.2475Y-1.32
X7.3725Y1.77
X7.3725Y-0.67
X7.435Y0.18
X7.56Y0.83
X7.56Y-2.17
X7.6225Y1.87
X7.6225Y-0.57
X7.7475Y-1.42
X7.81Y0.93
X7.81Y-2.07
X7.935Y0.08
X7.9975Y-1.32
X8.1225Y1.77
X8.1225Y-0.67
X8.185Y0.18
X8.31Y0.83
X8.31Y-2.17
X8.3725Y1.87
X8.3725Y-0.57
X8.56Y0.93
X8.56Y-2.07
X8.685Y0.08
X8.7788Y-1.42
X8.8725Y1.77
X8.935Y0.18
X9.0288Y-1.32
X9.1225Y1.87
X9.245Y-2.357
X9.3413Y-0.67
X9.435Y0.83
X9.495Y-2.257
X9.5913Y-0.57
X9.6225Y0.08
X9.685Y0.93
X9.81Y1.77
X9.8725Y0.18
X9.995Y-1.607
X9.995Y-2.357
X10.06Y1.87
X10.245Y-1.507
X10.245Y-2.257
X10.745Y-2.357
X10.935Y1.77
X10.935Y0.83
X10.935Y0.08
X10.935Y-0.67
X10.935Y-1.42
X10.995Y-2.257
X11.185Y1.87
X11.185Y0.93
X11.185Y0.18
X11.185Y-0.57
X11.185Y-1.32
T6
X-1.3433Y-1.494
X-1.342Y-0.944
X-0.4045Y-0.944
X-0.4032Y-1.494
X1.658Y-2.244
X3.158Y-2.244
X4.66Y-2.245
X6.16Y-2.245
X8.9712Y-0.745
X8.9725Y-0.195
X9.065Y0.755
X9.0663Y1.305
X9.91Y-0.195
X9.9112Y-0.745
X10.0038Y1.305
X10.005Y0.755
T7
X-3.217Y0.281
X-3.217Y0.281
X-3.217Y-0.469
X-3.217Y-0.469
X-3.217Y-1.219
X-3.217Y-1.219
X-3.217Y-1.969
X-3.217Y-1.969
X-2.545Y3.985
X-2.467Y0.281
X-2.467Y0.281
X-2.467Y-0.469
X-2.467Y-0.469
X-2.467Y-1.219
X-2.467Y-1.219
X-2.467Y-1.969
X-2.467Y-1.969
X-1.7497Y3.985
X-1.3433Y-0.894
X-1.342Y1.9685
X-1.342Y1.9685
X-1.342Y1.031
X-1.342Y1.031
X-1.342Y-1.544
X-1.1545Y0.281
X-1.1545Y0.281
X-1.1545Y-1.969
X-1.1545Y-1.969
X-1.0608Y-0.469
X-1.0608Y-0.469
X-0.8732Y-0.469
X-0.8732Y-1.219
X-0.8732Y-1.219
X-0.592Y1.031
X-0.592Y1.031
X-0.4045Y1.9685
X-0.4045Y1.9685
X-0.4045Y-1.544
X-0.4032Y-0.894
X-0.217Y0.281
X-0.217Y0.281
X-0.217Y-1.969
X-0.217Y-1.969
X-0.0295Y-0.469
X-0.0295Y-0.469
X0.158Y1.031
X0.158Y1.031
X0.3455Y1.9685
X0.3455Y1.9685
X0.3455Y-1.219
X0.3455Y-1.219
X0.533Y0.281
X0.533Y0.281
X0.7205Y-0.469
X0.7205Y-0.469
X0.7205Y-1.969
X0.7205Y-1.969
X0.908Y1.031
X0.908Y1.031
X1.0955Y1.9685
X1.0955Y1.9685
X1.0955Y-1.219
X1.0955Y-1.219
X1.283Y0.281
X1.283Y0.281
X1.4705Y-0.469
X1.4705Y-0.469
X1.658Y1.031
X1.658Y1.031
X1.658Y-1.644
X1.8455Y1.9685
X1.8455Y1.9685
X1.8455Y-1.219
X1.8455Y-1.219
X2.033Y0.281
X2.033Y0.281
X2.2205Y-0.469
X2.2205Y-0.469
X2.408Y1.031
X2.408Y1.031
X2.408Y-1.969
X2.408Y-1.969
X2.5955Y-1.219
X2.5955Y-1.219
X2.783Y1.9685
X2.783Y1.9685
X2.783Y0.281
X2.783Y0.281
X2.9705Y-0.469
X2.9705Y-0.469
X3.158Y1.031
X3.158Y1.031
X3.158Y-1.644
X3.3455Y-1.219
X3.3455Y-1.219
X3.533Y1.9685
X3.533Y1.9685
X4.285Y0.28
X4.285Y0.28
X4.4725Y-0.47
X4.4725Y-0.47
X4.66Y1.03
X4.66Y1.03
X4.66Y-1.645
X4.8475Y-1.22
X4.8475Y-1.22
X5.035Y1.97
X5.035Y1.97
X5.035Y0.28
X5.035Y0.28
X5.2225Y-0.47
X5.2225Y-0.47
X5.41Y1.03
X5.41Y1.03
X5.41Y-1.97
X5.41Y-1.97
X5.5975Y-1.22
X5.5975Y-1.22
X5.785Y1.97
X5.785Y1.97
X5.785Y0.28
X5.785Y0.28
X5.9725Y-0.47
X5.9725Y-0.47
X6.16Y1.03
X6.16Y1.03
X6.16Y-1.645
X6.3475Y-1.22
X6.3475Y-1.22
X6.535Y0.28
X6.535Y0.28
X6.7225Y1.97
X6.7225Y1.97
X6.7225Y-0.47
X6.7225Y-0.47
X6.91Y1.03
X6.91Y1.03
X6.91Y-1.97
X6.91Y-1.97
X7.0975Y-1.22
X7.0975Y-1.22
X7.285Y0.28
X7.285Y0.28
X7.4725Y1.97
X7.4725Y1.97
X7.4725Y-0.47
X7.4725Y-0.47
X7.66Y1.03
X7.66Y1.03
X7.66Y-1.97
X7.66Y-1.97
X7.8475Y-1.22
X7.8475Y-1.22
X8.035Y0.28
X8.035Y0.28
X8.2225Y1.97
X8.2225Y1.97
X8.2225Y-0.47
X8.2225Y-0.47
X8.41Y1.03
X8.41Y1.03
X8.41Y-1.97
X8.41Y-1.97
X8.785Y0.28
X8.785Y0.28
X8.8788Y-1.22
X8.8788Y-1.22
X8.9712Y-0.145
X8.9725Y1.97
X8.9725Y1.97
X8.9725Y-0.795
X9.065Y1.355
X9.0663Y0.705
X9.16Y1.03
X9.345Y-2.157
X9.345Y-2.157
X9.4413Y-0.47
X9.4413Y-0.47
X9.535Y1.03
X9.535Y1.03
X9.7225Y0.28
X9.7225Y0.28
X9.91Y1.97
X9.91Y1.97
X9.91Y1.03
X9.91Y-0.795
X9.9112Y-0.145
X10.0038Y0.705
X10.005Y1.355
X10.095Y-1.407
X10.095Y-1.407
X10.095Y-2.157
X10.095Y-2.157
X10.845Y-2.157
X10.845Y-2.157
X11.035Y1.97
X11.035Y1.97
X11.035Y1.03
X11.035Y1.03
X11.035Y0.28
X11.035Y0.28
X11.035Y-0.47
X11.035Y-0.47
X11.035Y-1.22
X11.035Y-1.22
T0
M30
