M48
; DRILL file {KiCad (5.99.0-12118-g897269f33f)} date Sun Sep 12 17:19:35 2021
; FORMAT={-:-/ absolute / inch / decimal}
; #@! TF.CreationDate,2021-09-12T17:19:35-04:00
; #@! TF.GenerationSoftware,Kicad,Pcbnew,(5.99.0-12118-g897269f33f)
; #@! TF.FileFunction,Plated,1,2,PTH
FMAT,2
INCH
; #@! TA.AperFunction,Plated,PTH,ViaDrill
T1C0.0157
; #@! TA.AperFunction,Plated,PTH,ComponentDrill
T2C0.0236
; #@! TA.AperFunction,Plated,PTH,ComponentDrill
T3C0.0354
; #@! TA.AperFunction,Plated,PTH,ComponentDrill
T4C0.0394
; #@! TA.AperFunction,Plated,PTH,ComponentDrill
T5C0.0579
; #@! TA.AperFunction,Plated,PTH,ComponentDrill
T6C0.0591
%
G90
G05
T1
X-2.71Y1.075
X-2.705Y0.38
X-2.695Y0.005
X-2.695Y-0.745
X-2.695Y-1.495
X-2.635Y0.005
X-2.3Y1.64
X-2.27Y0.64
X-2.195Y1.675
X-2.19Y1.47
X-2.1245Y0.8245
X-2.08Y1.575
X-2.0598Y1.3748
X-2.035Y1.565
X-2.0206Y0.8405
X-2.01Y-0.81
X-2.0046Y-1.5596
X-2.0Y-0.06
X-1.985Y1.315
X-1.965Y1.54
X-1.91Y1.085
X-1.755Y1.15
X-1.572Y0.6485
X-1.5452Y1.3766
X-1.5435Y1.64
X-1.485Y1.3766
X-1.4035Y-0.06
X-1.395Y-0.785
X-1.375Y0.005
X-1.28Y-0.745
X-1.1446Y-1.5596
X-1.11Y-1.495
X-1.02Y0.69
X-0.9439Y2.6211
X-0.935Y2.35
X-0.935Y-0.36
X-0.9334Y2.3924
X-0.91Y2.59
X-0.895Y2.2317
X-0.865Y2.19
X-0.775Y2.47
X-0.76Y2.59
X-0.7293Y2.6207
X-0.69Y2.44
X-0.645Y1.695
X-0.435Y0.005
X-0.25Y-0.745
X-0.08Y0.755
X-0.015Y0.755
X0.105Y-1.495
X0.11Y1.695
X0.31Y0.005
X0.5Y-0.745
X0.665Y0.755
X0.735Y0.755
X0.855Y-1.495
X0.86Y1.695
X1.065Y0.005
X1.25Y-0.745
X1.415Y0.755
X1.605Y1.695
X1.81Y0.005
X1.87Y0.005
X2.0Y-0.745
X2.165Y0.755
X2.355Y-1.495
X2.545Y1.695
X2.56Y0.005
X2.75Y-0.745
X2.915Y0.755
X3.295Y1.695
X5.01Y-0.745
X5.16Y0.75
X5.53Y0.0
X5.57Y1.69
X5.775Y-0.75
X5.91Y0.75
X6.135Y-1.505
X6.28Y0.0
X6.51Y1.69
X6.52Y-0.75
X6.665Y0.75
X6.885Y-1.495
X7.04Y0.0
X7.26Y-0.75
X7.265Y1.695
X7.41Y0.75
X7.63Y-1.5
X7.785Y-0.005
X8.005Y1.69
X8.005Y-0.75
X8.17Y0.745
X8.535Y-0.005
X8.68Y-1.505
X8.75Y1.69
X9.23Y-0.75
X9.325Y0.75
X9.48Y-0.005
X9.71Y1.685
X9.88Y-1.685
X10.795Y-1.5
X10.82Y0.75
X10.82Y0.0
X10.82Y-0.745
X10.825Y1.69
T4
X-3.1394Y1.8044
X-3.1394Y1.706
X-3.1394Y1.6076
X-2.5686Y1.8044
X-2.5686Y1.6076
T5
X-3.367Y0.381
X-3.367Y-0.369
X-3.367Y-1.119
X-3.367Y-1.869
X-3.117Y0.481
X-3.117Y-0.269
X-3.117Y-1.019
X-3.117Y-1.769
X-2.695Y4.085
X-2.617Y0.381
X-2.617Y-0.369
X-2.617Y-1.119
X-2.617Y-1.869
X-2.445Y4.185
X-2.367Y0.481
X-2.367Y-0.269
X-2.367Y-1.019
X-2.367Y-1.769
X-1.8997Y4.085
X-1.6497Y4.185
X-1.492Y2.0685
X-1.492Y1.131
X-1.3045Y0.381
X-1.3045Y-1.869
X-1.242Y2.1685
X-1.242Y1.231
X-1.2107Y-0.369
X-1.0545Y0.481
X-1.0545Y-1.769
X-1.0232Y-0.369
X-1.0232Y-1.119
X-0.9607Y-0.269
X-0.7732Y-0.269
X-0.7732Y-1.019
X-0.742Y1.131
X-0.5545Y2.0685
X-0.492Y1.231
X-0.367Y0.381
X-0.367Y-1.869
X-0.3045Y2.1685
X-0.1795Y-0.369
X-0.117Y0.481
X-0.117Y-1.769
X0.008Y1.131
X0.0705Y-0.269
X0.1955Y2.0685
X0.1955Y-1.119
X0.258Y1.231
X0.383Y0.381
X0.4455Y2.1685
X0.4455Y-1.019
X0.5705Y-0.369
X0.5705Y-1.869
X0.633Y0.481
X0.758Y1.131
X0.8205Y-0.269
X0.8205Y-1.769
X0.9455Y2.0685
X0.9455Y-1.119
X1.008Y1.231
X1.133Y0.381
X1.1955Y2.1685
X1.1955Y-1.019
X1.3205Y-0.369
X1.383Y0.481
X1.508Y1.131
X1.5705Y-0.269
X1.6955Y2.0685
X1.6955Y-1.119
X1.758Y1.231
X1.883Y0.381
X1.9455Y2.1685
X1.9455Y-1.019
X2.0705Y-0.369
X2.133Y0.481
X2.258Y1.131
X2.258Y-1.869
X2.3205Y-0.269
X2.4455Y-1.119
X2.508Y1.231
X2.508Y-1.769
X2.633Y2.0685
X2.633Y0.381
X2.6955Y-1.019
X2.8205Y-0.369
X2.883Y2.1685
X2.883Y0.481
X3.008Y1.131
X3.0705Y-0.269
X3.1955Y-1.119
X3.258Y1.231
X3.383Y2.0685
X3.4455Y-1.019
X3.633Y2.1685
X4.135Y0.38
X4.3225Y-0.37
X4.385Y0.48
X4.51Y1.13
X4.5725Y-0.27
X4.6975Y-1.12
X4.76Y1.23
X4.885Y2.07
X4.885Y0.38
X4.9475Y-1.02
X5.0725Y-0.37
X5.135Y2.17
X5.135Y0.48
X5.26Y1.13
X5.26Y-1.87
X5.3225Y-0.27
X5.4475Y-1.12
X5.51Y1.23
X5.51Y-1.77
X5.635Y2.07
X5.635Y0.38
X5.6975Y-1.02
X5.8225Y-0.37
X5.885Y2.17
X5.885Y0.48
X6.01Y1.13
X6.0725Y-0.27
X6.1975Y-1.12
X6.26Y1.23
X6.385Y0.38
X6.4475Y-1.02
X6.5725Y2.07
X6.5725Y-0.37
X6.635Y0.48
X6.76Y1.13
X6.76Y-1.87
X6.8225Y2.17
X6.8225Y-0.27
X6.9475Y-1.12
X7.01Y1.23
X7.01Y-1.77
X7.135Y0.38
X7.1975Y-1.02
X7.3225Y2.07
X7.3225Y-0.37
X7.385Y0.48
X7.51Y1.13
X7.51Y-1.87
X7.5725Y2.17
X7.5725Y-0.27
X7.6975Y-1.12
X7.76Y1.23
X7.76Y-1.77
X7.885Y0.38
X7.9475Y-1.02
X8.0725Y2.07
X8.0725Y-0.37
X8.135Y0.48
X8.26Y1.13
X8.26Y-1.87
X8.3225Y2.17
X8.3225Y-0.27
X8.51Y1.23
X8.51Y-1.77
X8.635Y0.38
X8.7287Y-1.12
X8.8225Y2.07
X8.885Y0.48
X8.9787Y-1.02
X9.01Y1.13
X9.0725Y2.17
X9.195Y-2.057
X9.26Y1.23
X9.2912Y-0.37
X9.385Y1.13
X9.445Y-1.957
X9.5412Y-0.27
X9.5725Y0.38
X9.635Y1.23
X9.76Y2.07
X9.76Y1.13
X9.8225Y0.48
X9.945Y-1.307
X9.945Y-2.057
X10.01Y2.17
X10.01Y1.23
X10.195Y-1.207
X10.195Y-1.957
X10.695Y-2.057
X10.885Y2.07
X10.885Y1.13
X10.885Y0.38
X10.885Y-0.37
X10.885Y-1.12
X10.945Y-1.957
X11.135Y2.17
X11.135Y1.23
X11.135Y0.48
X11.135Y-0.27
X11.135Y-1.02
T6
X-1.805Y1.52
X-1.605Y1.52
X2.184Y3.9
X2.384Y3.9
T2
G00X-1.0051Y2.7394
M15
G01X-1.0051Y2.7158
M16
G05
G00X-1.0051Y2.5847
M15
G01X-1.0051Y2.5414
M16
G05
G00X-0.6649Y2.7394
M15
G01X-0.6649Y2.7158
M16
G05
G00X-0.6649Y2.5847
M15
G01X-0.6649Y2.5414
M16
G05
G00X8.8499Y2.7394
M15
G01X8.8499Y2.7158
M16
G05
G00X8.8499Y2.5847
M15
G01X8.8499Y2.5414
M16
G05
G00X9.1901Y2.7394
M15
G01X9.1901Y2.7158
M16
G05
G00X9.1901Y2.5847
M15
G01X9.1901Y2.5414
M16
G05
T3
G00X-0.3306Y2.6161
M15
G01X-0.3306Y2.6319
M16
G05
G00X-0.3306Y2.498
M15
G01X-0.3306Y2.5138
M16
G05
G00X-0.3306Y2.3406
M15
G01X-0.3306Y2.3563
M16
G05
G00X-0.1494Y2.2972
M15
G01X-0.1494Y2.313
M16
G05
G00X8.3394Y2.6161
M15
G01X8.3394Y2.6319
M16
G05
G00X8.3394Y2.498
M15
G01X8.3394Y2.5138
M16
G05
G00X8.3394Y2.3406
M15
G01X8.3394Y2.3563
M16
G05
G00X8.5206Y2.2972
M15
G01X8.5206Y2.313
M16
G05
T6
G00X-2.8697Y1.9265
M15
G01X-2.8186Y1.9265
M16
G05
G00X-2.8697Y1.4855
M15
G01X-2.8186Y1.4855
M16
G05
T0
M30
