%TF.GenerationSoftware,KiCad,Pcbnew,(5.99.0-12118-g897269f33f)*%
%TF.CreationDate,2021-10-13T23:43:11-04:00*%
%TF.ProjectId,dadboard,64616462-6f61-4726-942e-6b696361645f,rev?*%
%TF.SameCoordinates,Original*%
%TF.FileFunction,Profile,NP*%
%FSLAX46Y46*%
G04 Gerber Fmt 4.6, Leading zero omitted, Abs format (unit mm)*
G04 Created by KiCad (PCBNEW (5.99.0-12118-g897269f33f)) date 2021-10-13 23:43:11*
%MOMM*%
%LPD*%
G01*
G04 APERTURE LIST*
%TA.AperFunction,Profile*%
%ADD10C,0.100000*%
%TD*%
G04 APERTURE END LIST*
D10*
X191025000Y-62281249D02*
X146525000Y-62281249D01*
X223150000Y59531250D02*
X223150000Y67531250D01*
X39250000Y67031250D02*
G75*
G02*
X39750000Y67531250I500000J0D01*
G01*
X144275000Y-67531250D02*
G75*
G02*
X143775000Y-67031250I0J500000D01*
G01*
X69723999Y-59531250D02*
X73724499Y-59531250D01*
X39250000Y59531250D02*
X25125000Y59531250D01*
X-41749999Y67531250D02*
X-90750000Y67531250D01*
X210053792Y59531250D02*
X194900000Y59531250D01*
X99750000Y-2381250D02*
X104012500Y-2381250D01*
X-91250000Y67031250D02*
X-91250000Y24531250D01*
X223153806Y68538785D02*
G75*
G02*
X225153792Y70531228I1999986J-7557D01*
G01*
X297250000Y24531250D02*
G75*
G02*
X297750000Y24031250I0J-500000D01*
G01*
X241068737Y62283089D02*
G75*
G02*
X241066199Y63783087I-1269J749999D01*
G01*
X287692914Y63861988D02*
G75*
G02*
X287695452Y62361990I1269J-749999D01*
G01*
X-33999999Y-60781250D02*
G75*
G02*
X-33999999Y-62281250I0J-750000D01*
G01*
X-33999999Y-62281250D02*
X-78500000Y-62281249D01*
X99250000Y36218750D02*
X99250000Y59031250D01*
X131050000Y60781250D02*
G75*
G02*
X131050000Y62281250I0J750000D01*
G01*
X-24506500Y-59531250D02*
X-24506500Y-71186343D01*
X284987499Y-63793750D02*
G75*
G02*
X284487499Y-64293750I-500000J0D01*
G01*
X-2025000Y59531250D02*
X-2025000Y69531228D01*
X297750000Y-70470812D02*
X297750000Y-79470635D01*
X223161334Y72313092D02*
X194948696Y72419689D01*
X20224000Y-67531250D02*
G75*
G02*
X19724000Y-67031250I0J500000D01*
G01*
X99250000Y36218750D02*
G75*
G02*
X98750000Y35718750I-500000J0D01*
G01*
X223150000Y67531250D02*
X223153806Y68538785D01*
X-27125000Y59531250D02*
X-41250000Y59531250D01*
X297247941Y-69970816D02*
X216850586Y-70301772D01*
X73724499Y-70890951D02*
X12980500Y-71141003D01*
X89724999Y35718750D02*
X98750000Y35718750D01*
X289250000Y67531250D02*
G75*
G02*
X289750000Y67031250I0J-500000D01*
G01*
X-12506500Y-59531250D02*
X-12506500Y-71141003D01*
X289750000Y-39981250D02*
X289750000Y-25468750D01*
X-17125000Y70531228D02*
G75*
G02*
X-15125000Y68531228I0J-2000000D01*
G01*
X99250000Y16168750D02*
G75*
G02*
X99750000Y16668750I500000J0D01*
G01*
X-27125000Y67531250D02*
X-27121193Y68538785D01*
X128300000Y67031250D02*
X128300000Y59531250D01*
X-99250000Y-71966864D02*
X-99250000Y-80966857D01*
X175550000Y62281250D02*
G75*
G02*
X175550000Y60781250I0J-750000D01*
G01*
X223161334Y72313092D02*
X235161334Y72267752D01*
X-25121207Y70531228D02*
X-17125000Y70531228D01*
X128300000Y67031250D02*
G75*
G02*
X128800000Y67531250I500000J0D01*
G01*
X144275000Y-67531250D02*
X193275000Y-67531250D01*
X12980500Y-59531250D02*
X19724000Y-59531250D01*
X-89195452Y62361990D02*
G75*
G02*
X-89192914Y63861988I1269J749999D01*
G01*
X-81250000Y-59531250D02*
X-81250000Y-67031250D01*
X-93999999Y-22718750D02*
X-94000000Y21781250D01*
X131050000Y62281250D02*
X175550000Y62281250D01*
X39250000Y67031250D02*
X39250000Y59531250D01*
X216806250Y-59531250D02*
X227837500Y-59531250D01*
X297259445Y72033124D02*
X235161334Y72267752D01*
X210053792Y69531228D02*
G75*
G02*
X211053792Y70531228I1000000J0D01*
G01*
X182899999Y59531250D02*
X182918641Y72465143D01*
X146525000Y-60781250D02*
X191025000Y-60781250D01*
X94487499Y-39981250D02*
G75*
G02*
X93987499Y-40481250I-500000J0D01*
G01*
X-31250000Y-67031250D02*
G75*
G02*
X-31750000Y-67531250I-500000J0D01*
G01*
X217153792Y70531228D02*
X211053792Y70531228D01*
X66973999Y-62281250D02*
X22474000Y-62281249D01*
X-41250000Y59531250D02*
X-41250000Y67031250D01*
X-24506500Y-71186343D02*
X-98751889Y-71466867D01*
X297250000Y24531249D02*
X289750000Y24531250D01*
X289750000Y24531250D02*
X289750000Y67031250D01*
X297251889Y-79970632D02*
X-98748110Y-81466853D01*
X13125000Y59531250D02*
X-2025000Y59531250D01*
X113537500Y-40481250D02*
X109275000Y-40481250D01*
X289250000Y67531249D02*
X240250000Y67531250D01*
X-41749999Y67531250D02*
G75*
G02*
X-41249999Y67031250I0J-500000D01*
G01*
X108775000Y16668750D02*
X99750000Y16668750D01*
X13136334Y73106637D02*
X-98740554Y73529346D01*
X-78500000Y-60781250D02*
X-33999999Y-60781250D01*
X284987499Y-40481250D02*
X289250000Y-40481250D01*
X120275000Y-59531250D02*
X120320972Y-70699136D01*
X233150000Y70531228D02*
G75*
G02*
X235150000Y68531228I0J-2000000D01*
G01*
X69723999Y-67031250D02*
X69723999Y-59531250D01*
X-91250000Y-25468750D02*
X-91250000Y-59031250D01*
X118299999Y59031250D02*
X118299999Y35718750D01*
X-10125000Y59531250D02*
X-15125000Y59531250D01*
X-98748111Y-81466853D02*
G75*
G02*
X-99250000Y-80966857I-1889J499996D01*
G01*
X94487500Y-39981250D02*
X94487500Y-21931250D01*
X-9124999Y70531228D02*
X-3024999Y70531228D01*
X980500Y-71141003D02*
X-12506500Y-71141003D01*
X89724999Y-59031250D02*
X89724999Y-40481250D01*
X-15125000Y59531250D02*
X-10125000Y59531250D01*
X-98750000Y-25468750D02*
G75*
G02*
X-99250000Y-24968750I0J500000D01*
G01*
X-99250000Y24031250D02*
G75*
G02*
X-98750000Y24531250I500000J0D01*
G01*
X104012500Y-2381250D02*
X104012500Y-20931250D01*
X84462500Y-2381250D02*
G75*
G02*
X84962500Y-2881250I0J-500000D01*
G01*
X177800000Y67531250D02*
X128800000Y67531250D01*
X69723999Y-67031250D02*
G75*
G02*
X69223999Y-67531250I-500000J0D01*
G01*
X297263224Y82033110D02*
X-98736775Y83529332D01*
X-98740554Y73529346D02*
G75*
G02*
X-99238665Y74029342I1889J499996D01*
G01*
X193775000Y-59531250D02*
X204806250Y-59531250D01*
X85724499Y-59531250D02*
X89224999Y-59531250D01*
X-99238666Y83029336D02*
G75*
G02*
X-98736775Y83529332I500001J-1D01*
G01*
X42000000Y60781250D02*
G75*
G02*
X42000000Y62281250I0J750000D01*
G01*
X86500000Y62281250D02*
G75*
G02*
X86500000Y60781250I0J-750000D01*
G01*
X287695452Y62361990D02*
X241068737Y62283089D01*
X89724999Y17168750D02*
G75*
G02*
X89224999Y16668750I-500000J0D01*
G01*
X-12506500Y-59531250D02*
X980500Y-59531250D01*
X-80750000Y-67531250D02*
X-31749999Y-67531250D01*
X182899999Y59531250D02*
X178300000Y59531250D01*
X223150000Y59531250D02*
X218153792Y59531250D01*
X113537500Y-21431250D02*
X113537500Y-40481250D01*
X20224000Y-67531250D02*
X69223999Y-67531250D01*
X89724999Y-40481250D02*
X93987499Y-40481250D01*
X-3024999Y70531228D02*
G75*
G02*
X-2024999Y69531228I0J-1000000D01*
G01*
X193775000Y-67031250D02*
X193775000Y-59531250D01*
X85724499Y-59531250D02*
X85724499Y-70841553D01*
X291000000Y21781250D02*
G75*
G02*
X292500000Y21781250I750000J0D01*
G01*
X-42566199Y63783087D02*
G75*
G02*
X-42568737Y62283089I-1269J-749999D01*
G01*
X108775000Y35218750D02*
X108775000Y16668750D01*
X118299999Y59031250D02*
G75*
G02*
X118799999Y59531250I500000J0D01*
G01*
X143775000Y-59531250D02*
X143775000Y-67031250D01*
X-27125000Y59531250D02*
X-27125000Y67531250D01*
X132275000Y-59531250D02*
X132275000Y-70649927D01*
X42000000Y62281250D02*
X86500000Y62281250D01*
X-90750000Y-59531250D02*
G75*
G02*
X-91250000Y-59031250I0J500000D01*
G01*
X225153792Y70531228D02*
X233150000Y70531228D01*
X297750000Y-24968750D02*
G75*
G02*
X297250000Y-25468750I-500000J0D01*
G01*
X204806250Y-59531250D02*
X204850790Y-70351169D01*
X217153792Y70531228D02*
G75*
G02*
X218153792Y69531228I0J-1000000D01*
G01*
X-98750000Y-25468750D02*
X-91250000Y-25468750D01*
X88750000Y67531250D02*
X39750000Y67531250D01*
X-89192914Y63861988D02*
X-42566199Y63783087D01*
X980500Y-59531250D02*
X980500Y-71141003D01*
X120320972Y-70699136D02*
X85724499Y-70841553D01*
X228337500Y-64293750D02*
X284487499Y-64293750D01*
X-78500000Y-62281248D02*
G75*
G02*
X-78500000Y-60781250I0J749999D01*
G01*
X-10125000Y69531228D02*
X-10125000Y59531250D01*
X-31250000Y-59531250D02*
X-24506500Y-59531250D01*
X216806250Y-59531250D02*
X216850586Y-70301772D01*
X-99250001Y-71966864D02*
G75*
G02*
X-98751889Y-71466867I500001J0D01*
G01*
X-91250000Y67031250D02*
G75*
G02*
X-90750000Y67531250I500000J0D01*
G01*
X-80750000Y-67531250D02*
G75*
G02*
X-81250000Y-67031250I0J500000D01*
G01*
X89724999Y-59031250D02*
G75*
G02*
X89224999Y-59531250I-500000J0D01*
G01*
X210053792Y59531250D02*
X210053792Y69531228D01*
X-94000000Y21781250D02*
G75*
G02*
X-92500000Y21781250I750000J0D01*
G01*
X22474000Y-60781250D02*
X66974000Y-60781250D01*
X104512500Y-21431250D02*
G75*
G02*
X104012500Y-20931250I0J500000D01*
G01*
X99750000Y-2381250D02*
G75*
G02*
X99250000Y-1881250I0J500000D01*
G01*
X289750000Y-25468750D02*
X297250000Y-25468750D01*
X194900000Y59531250D02*
X194948696Y72419689D01*
X-99250000Y24031250D02*
X-99250000Y-24968750D01*
X297761335Y72533121D02*
G75*
G02*
X297259445Y72033124I-500001J0D01*
G01*
X227837500Y-59531250D02*
X227837500Y-63793750D01*
X132275000Y-59531250D02*
X143775000Y-59531250D01*
X178300000Y59531250D02*
X178300000Y67031250D01*
X19724000Y-59531250D02*
X19724000Y-67031250D01*
X25176120Y59531250D02*
X25176120Y73061147D01*
X182918641Y72465143D02*
X25176120Y73061147D01*
X284987499Y-63793750D02*
X284987499Y-40481250D01*
X-31250000Y-67031250D02*
X-31250000Y-59531250D01*
X241066199Y63783087D02*
X287692914Y63861988D01*
X297750000Y-24968750D02*
X297750000Y24031250D01*
X-15125000Y68531228D02*
X-15125000Y59531250D01*
X22474000Y-62281248D02*
G75*
G02*
X22474000Y-60781250I0J749999D01*
G01*
X98750000Y59531250D02*
X89250000Y59531250D01*
X93987499Y-21431250D02*
X84962500Y-21431250D01*
X80200000Y-2381250D02*
X80200000Y16668750D01*
X128300000Y59531250D02*
X118799999Y59531250D01*
X-27121193Y68538785D02*
G75*
G02*
X-25121207Y70531228I1999986J-7557D01*
G01*
X12980500Y-59531250D02*
X12980500Y-71141003D01*
X118299999Y35718750D02*
X109275000Y35718750D01*
X73724499Y-59531250D02*
X73724499Y-70890951D01*
X204850790Y-70351169D02*
X132275000Y-70649927D01*
X13125000Y59531250D02*
X13136334Y73106637D01*
X-42568737Y62283089D02*
X-89195452Y62361990D01*
X108775000Y-40981250D02*
G75*
G02*
X109275000Y-40481250I500000J0D01*
G01*
X-99238665Y74029342D02*
X-99238665Y83029335D01*
X-92500000Y21781250D02*
X-92499999Y-22718750D01*
X235150000Y68531228D02*
X235150000Y59531250D01*
X193775000Y-67031250D02*
G75*
G02*
X193275000Y-67531250I-500000J0D01*
G01*
X108775000Y-40981250D02*
X108775000Y-59031250D01*
X291000000Y-22718750D02*
X291000000Y21781250D01*
X88750000Y67531250D02*
G75*
G02*
X89250000Y67031250I0J-500000D01*
G01*
X177800000Y67531250D02*
G75*
G02*
X178300000Y67031250I0J-500000D01*
G01*
X146525000Y-62281248D02*
G75*
G02*
X146525000Y-60781250I0J749999D01*
G01*
X84462500Y-2381250D02*
X80200000Y-2381250D01*
X292500000Y-22718750D02*
G75*
G02*
X291000000Y-22718750I-750000J0D01*
G01*
X292500000Y21781250D02*
X292499999Y-22718750D01*
X239750000Y67031250D02*
G75*
G02*
X240250000Y67531250I500000J0D01*
G01*
X-91250000Y24531250D02*
X-98750000Y24531250D01*
X89250000Y59531250D02*
X89250000Y67031250D01*
X109275000Y-59531250D02*
G75*
G02*
X108775000Y-59031250I0J500000D01*
G01*
X80200000Y16668750D02*
X89224999Y16668750D01*
X218153792Y69531228D02*
X218153792Y59531250D01*
X108775000Y35218750D02*
G75*
G02*
X109275000Y35718750I500000J0D01*
G01*
X66973999Y-60781250D02*
G75*
G02*
X66973999Y-62281250I0J-750000D01*
G01*
X297247942Y-69970816D02*
G75*
G02*
X297750000Y-70470812I2058J-499996D01*
G01*
X89724999Y17168750D02*
X89724999Y35718750D01*
X-10125000Y69531229D02*
G75*
G02*
X-9124999Y70531228I1000000J-1D01*
G01*
X-92500000Y-22718750D02*
G75*
G02*
X-94000000Y-22718750I-750000J0D01*
G01*
X239750000Y59531250D02*
X235150000Y59531250D01*
X239750000Y67031250D02*
X239750000Y59531250D01*
X86500000Y60781250D02*
X42000000Y60781250D01*
X84962500Y-21431250D02*
X84962500Y-2881250D01*
X228337500Y-64293750D02*
G75*
G02*
X227837500Y-63793750I0J500000D01*
G01*
X-90750000Y-59531250D02*
X-81250000Y-59531250D01*
X104512500Y-21431250D02*
X113537500Y-21431250D01*
X109275000Y-59531250D02*
X120275000Y-59531250D01*
X297263223Y82033110D02*
G75*
G02*
X297761334Y81533114I-1889J-499996D01*
G01*
X93987499Y-21431250D02*
G75*
G02*
X94487499Y-21931250I0J-500000D01*
G01*
X98750000Y59531250D02*
G75*
G02*
X99250000Y59031250I0J-500000D01*
G01*
X297761334Y72533121D02*
X297761334Y81533114D01*
X175550000Y60781250D02*
X131050000Y60781250D01*
X289750000Y-39981250D02*
G75*
G02*
X289250000Y-40481250I-500000J0D01*
G01*
X191025000Y-60781250D02*
G75*
G02*
X191025000Y-62281250I0J-750000D01*
G01*
X297750001Y-79470635D02*
G75*
G02*
X297251889Y-79970632I-500001J0D01*
G01*
X99249999Y16168750D02*
X99249999Y-1881250D01*
M02*
