%FSLAX45Y45*%
G04 Gerber Fmt 4.5, Leading zero omitted, Abs format (unit mm)*
G04 Created by KiCad (PCBNEW (5.99.0-12118-g897269f33f)) date 2021-10-13 23:43:13*
%MOMM*%
%LPD*%
G01*
G04 APERTURE LIST*
%TA.AperFunction,Profile*%
%ADD10C,0.100000*%
%TD*%
%ADD11C,0.200000*%
%ADD12C,0.065000*%
%ADD13C,0.078740*%
%ADD14C,0.080000*%
%ADD15C,0.175000*%
%ADD16C,0.300000*%
%ADD17C,0.304800*%
%ADD18C,0.398780*%
G04 APERTURE END LIST*
D10*
X19102500Y-6228125D02*
X14652500Y-6228125D01*
X22315000Y5953125D02*
X22315000Y6753125D01*
X3925000Y6703125D02*
G75*
G02*
X3975000Y6753125I50000J0D01*
G01*
X14427500Y-6753125D02*
G75*
G02*
X14377500Y-6703125I0J50000D01*
G01*
X6972400Y-5953125D02*
X7372450Y-5953125D01*
X3925000Y5953125D02*
X2512500Y5953125D01*
X-4175000Y6753125D02*
X-9075000Y6753125D01*
X21005379Y5953125D02*
X19490000Y5953125D01*
X9975000Y-238125D02*
X10401250Y-238125D01*
X-9125000Y6703125D02*
X-9125000Y2453125D01*
X22315381Y6853878D02*
G75*
G02*
X22515379Y7053123I199999J-756D01*
G01*
X29725000Y2453125D02*
G75*
G02*
X29775000Y2403125I0J-50000D01*
G01*
X24106874Y6228309D02*
G75*
G02*
X24106620Y6378309I-127J75000D01*
G01*
X28769291Y6386199D02*
G75*
G02*
X28769545Y6236199I127J-75000D01*
G01*
X-3400000Y-6078125D02*
G75*
G02*
X-3400000Y-6228125I0J-75000D01*
G01*
X-3400000Y-6228125D02*
X-7850000Y-6228125D01*
X9925000Y3621875D02*
X9925000Y5903125D01*
X13105000Y6078125D02*
G75*
G02*
X13105000Y6228125I0J75000D01*
G01*
X-2450650Y-5953125D02*
X-2450650Y-7118634D01*
X28498750Y-6379375D02*
G75*
G02*
X28448750Y-6429375I-50000J0D01*
G01*
X-202500Y5953125D02*
X-202500Y6953123D01*
X29775000Y-7047081D02*
X29775000Y-7947063D01*
X22316133Y7231309D02*
X19494870Y7241969D01*
X2022400Y-6753125D02*
G75*
G02*
X1972400Y-6703125I0J50000D01*
G01*
X9925000Y3621875D02*
G75*
G02*
X9875000Y3571875I-50000J0D01*
G01*
X22315000Y6753125D02*
X22315381Y6853878D01*
X-2712500Y5953125D02*
X-4125000Y5953125D01*
X29724794Y-6997082D02*
X21685059Y-7030177D01*
X7372450Y-7089095D02*
X1298050Y-7114100D01*
X8972500Y3571875D02*
X9875000Y3571875D01*
X28925000Y6753125D02*
G75*
G02*
X28975000Y6703125I0J-50000D01*
G01*
X-1250650Y-5953125D02*
X-1250650Y-7114100D01*
X28975000Y-3998125D02*
X28975000Y-2546875D01*
X-1712500Y7053123D02*
G75*
G02*
X-1512500Y6853123I0J-200000D01*
G01*
X9925000Y1616875D02*
G75*
G02*
X9975000Y1666875I50000J0D01*
G01*
X-2712500Y6753125D02*
X-2712119Y6853878D01*
X12830000Y6703125D02*
X12830000Y5953125D01*
X-9925000Y-7196686D02*
X-9925000Y-8096686D01*
X17555000Y6228125D02*
G75*
G02*
X17555000Y6078125I0J-75000D01*
G01*
X22316133Y7231309D02*
X23516133Y7226775D01*
X-2512121Y7053123D02*
X-1712500Y7053123D01*
X12830000Y6703125D02*
G75*
G02*
X12880000Y6753125I50000J0D01*
G01*
X14427500Y-6753125D02*
X19327500Y-6753125D01*
X1298050Y-5953125D02*
X1972400Y-5953125D01*
X-8919545Y6236199D02*
G75*
G02*
X-8919291Y6386199I127J75000D01*
G01*
X-8125000Y-5953125D02*
X-8125000Y-6703125D01*
X-9400000Y-2271875D02*
X-9400000Y2178125D01*
X13105000Y6228125D02*
X17555000Y6228125D01*
X3925000Y6703125D02*
X3925000Y5953125D01*
X21680625Y-5953125D02*
X22783750Y-5953125D01*
X29725944Y7203312D02*
X23516133Y7226775D01*
X21005379Y6953123D02*
G75*
G02*
X21105379Y7053123I100000J0D01*
G01*
X18290000Y5953125D02*
X18291864Y7246514D01*
X14652500Y-6078125D02*
X19102500Y-6078125D01*
X9448750Y-3998125D02*
G75*
G02*
X9398750Y-4048125I-50000J0D01*
G01*
X-3125000Y-6703125D02*
G75*
G02*
X-3175000Y-6753125I-50000J0D01*
G01*
X21715379Y7053123D02*
X21105379Y7053123D01*
X6697400Y-6228125D02*
X2247400Y-6228125D01*
X-4125000Y5953125D02*
X-4125000Y6703125D01*
X-2450650Y-7118634D02*
X-9875189Y-7146687D01*
X29725000Y2453125D02*
X28975000Y2453125D01*
X28975000Y2453125D02*
X28975000Y6703125D01*
X29725189Y-7997063D02*
X-9874811Y-8146685D01*
X1312500Y5953125D02*
X-202500Y5953125D01*
X11353750Y-4048125D02*
X10927500Y-4048125D01*
X28925000Y6753125D02*
X24025000Y6753125D01*
X-4175000Y6753125D02*
G75*
G02*
X-4125000Y6703125I0J-50000D01*
G01*
X10877500Y1666875D02*
X9975000Y1666875D01*
X1313633Y7310664D02*
X-9874055Y7352935D01*
X-7850000Y-6078125D02*
X-3400000Y-6078125D01*
X28498750Y-4048125D02*
X28925000Y-4048125D01*
X12027500Y-5953125D02*
X12032097Y-7069914D01*
X23315000Y7053123D02*
G75*
G02*
X23515000Y6853123I0J-200000D01*
G01*
X6972400Y-6703125D02*
X6972400Y-5953125D01*
X-9125000Y-2546875D02*
X-9125000Y-5903125D01*
X11830000Y5903125D02*
X11830000Y3571875D01*
X-1012500Y5953125D02*
X-1512500Y5953125D01*
X-9874811Y-8146685D02*
G75*
G02*
X-9925000Y-8096686I-189J50000D01*
G01*
X9448750Y-3998125D02*
X9448750Y-2193125D01*
X-912500Y7053123D02*
X-302500Y7053123D01*
X98050Y-7114100D02*
X-1250650Y-7114100D01*
X8972500Y-5903125D02*
X8972500Y-4048125D01*
X-1512500Y5953125D02*
X-1012500Y5953125D01*
X-9875000Y-2546875D02*
G75*
G02*
X-9925000Y-2496875I0J50000D01*
G01*
X-9925000Y2403125D02*
G75*
G02*
X-9875000Y2453125I50000J0D01*
G01*
X10401250Y-238125D02*
X10401250Y-2093125D01*
X8446250Y-238125D02*
G75*
G02*
X8496250Y-288125I0J-50000D01*
G01*
X17780000Y6753125D02*
X12880000Y6753125D01*
X6972400Y-6703125D02*
G75*
G02*
X6922400Y-6753125I-50000J0D01*
G01*
X29726322Y8203311D02*
X-9873678Y8352933D01*
X-9874055Y7352935D02*
G75*
G02*
X-9923867Y7402934I189J50000D01*
G01*
X19377500Y-5953125D02*
X20480625Y-5953125D01*
X8572450Y-5953125D02*
X8922500Y-5953125D01*
X-9923867Y8302934D02*
G75*
G02*
X-9873678Y8352933I50000J0D01*
G01*
X4200000Y6078125D02*
G75*
G02*
X4200000Y6228125I0J75000D01*
G01*
X8650000Y6228125D02*
G75*
G02*
X8650000Y6078125I0J-75000D01*
G01*
X28769545Y6236199D02*
X24106874Y6228309D01*
X8972500Y1716875D02*
G75*
G02*
X8922500Y1666875I-50000J0D01*
G01*
X-1250650Y-5953125D02*
X98050Y-5953125D01*
X-8075000Y-6753125D02*
X-3175000Y-6753125D01*
X18290000Y5953125D02*
X17830000Y5953125D01*
X22315000Y5953125D02*
X21815379Y5953125D01*
X11353750Y-2143125D02*
X11353750Y-4048125D01*
X2022400Y-6753125D02*
X6922400Y-6753125D01*
X8972500Y-4048125D02*
X9398750Y-4048125D01*
X-302500Y7053123D02*
G75*
G02*
X-202500Y6953123I0J-100000D01*
G01*
X19377500Y-6703125D02*
X19377500Y-5953125D01*
X8572450Y-5953125D02*
X8572450Y-7084155D01*
X29100000Y2178125D02*
G75*
G02*
X29250000Y2178125I75000J0D01*
G01*
X-4256620Y6378309D02*
G75*
G02*
X-4256874Y6228309I-127J-75000D01*
G01*
X10877500Y3521875D02*
X10877500Y1666875D01*
X11830000Y5903125D02*
G75*
G02*
X11880000Y5953125I50000J0D01*
G01*
X14377500Y-5953125D02*
X14377500Y-6703125D01*
X-2712500Y5953125D02*
X-2712500Y6753125D01*
X13227500Y-5953125D02*
X13227500Y-7064993D01*
X4200000Y6228125D02*
X8650000Y6228125D01*
X-9075000Y-5953125D02*
G75*
G02*
X-9125000Y-5903125I0J50000D01*
G01*
X22515379Y7053123D02*
X23315000Y7053123D01*
X29775000Y-2496875D02*
G75*
G02*
X29725000Y-2546875I-50000J0D01*
G01*
X20480625Y-5953125D02*
X20485079Y-7035117D01*
X21715379Y7053123D02*
G75*
G02*
X21815379Y6953123I0J-100000D01*
G01*
X-9875000Y-2546875D02*
X-9125000Y-2546875D01*
X8875000Y6753125D02*
X3975000Y6753125D01*
X-8919291Y6386199D02*
X-4256620Y6378309D01*
X98050Y-5953125D02*
X98050Y-7114100D01*
X12032097Y-7069914D02*
X8572450Y-7084155D01*
X22833750Y-6429375D02*
X28448750Y-6429375D01*
X-7850000Y-6228125D02*
G75*
G02*
X-7850000Y-6078125I0J75000D01*
G01*
X-1012500Y6953123D02*
X-1012500Y5953125D01*
X-3125000Y-5953125D02*
X-2450650Y-5953125D01*
X21680625Y-5953125D02*
X21685059Y-7030177D01*
X-9925000Y-7196686D02*
G75*
G02*
X-9875189Y-7146687I50000J0D01*
G01*
X-9125000Y6703125D02*
G75*
G02*
X-9075000Y6753125I50000J0D01*
G01*
X-8075000Y-6753125D02*
G75*
G02*
X-8125000Y-6703125I0J50000D01*
G01*
X8972500Y-5903125D02*
G75*
G02*
X8922500Y-5953125I-50000J0D01*
G01*
X21005379Y5953125D02*
X21005379Y6953123D01*
X-9400000Y2178125D02*
G75*
G02*
X-9250000Y2178125I75000J0D01*
G01*
X2247400Y-6078125D02*
X6697400Y-6078125D01*
X10451250Y-2143125D02*
G75*
G02*
X10401250Y-2093125I0J50000D01*
G01*
X9975000Y-238125D02*
G75*
G02*
X9925000Y-188125I0J50000D01*
G01*
X28975000Y-2546875D02*
X29725000Y-2546875D01*
X19490000Y5953125D02*
X19494870Y7241969D01*
X-9925000Y2403125D02*
X-9925000Y-2496875D01*
X29776133Y7253312D02*
G75*
G02*
X29725944Y7203312I-50000J0D01*
G01*
X22783750Y-5953125D02*
X22783750Y-6379375D01*
X13227500Y-5953125D02*
X14377500Y-5953125D01*
X17830000Y5953125D02*
X17830000Y6703125D01*
X1972400Y-5953125D02*
X1972400Y-6703125D01*
X2517612Y5953125D02*
X2517612Y7306115D01*
X18291864Y7246514D02*
X2517612Y7306115D01*
X28498750Y-6379375D02*
X28498750Y-4048125D01*
X-3125000Y-6703125D02*
X-3125000Y-5953125D01*
X24106620Y6378309D02*
X28769291Y6386199D01*
X29775000Y-2496875D02*
X29775000Y2403125D01*
X-1512500Y6853123D02*
X-1512500Y5953125D01*
X2247400Y-6228125D02*
G75*
G02*
X2247400Y-6078125I0J75000D01*
G01*
X9875000Y5953125D02*
X8925000Y5953125D01*
X9398750Y-2143125D02*
X8496250Y-2143125D01*
X8020000Y-238125D02*
X8020000Y1666875D01*
X12830000Y5953125D02*
X11880000Y5953125D01*
X-2712119Y6853878D02*
G75*
G02*
X-2512121Y7053123I199999J-756D01*
G01*
X1298050Y-5953125D02*
X1298050Y-7114100D01*
X11830000Y3571875D02*
X10927500Y3571875D01*
X7372450Y-5953125D02*
X7372450Y-7089095D01*
X20485079Y-7035117D02*
X13227500Y-7064993D01*
X1312500Y5953125D02*
X1313633Y7310664D01*
X-4256874Y6228309D02*
X-8919545Y6236199D01*
X10877500Y-4098125D02*
G75*
G02*
X10927500Y-4048125I50000J0D01*
G01*
X-9923867Y7402934D02*
X-9923867Y8302933D01*
X-9250000Y2178125D02*
X-9250000Y-2271875D01*
X23515000Y6853123D02*
X23515000Y5953125D01*
X19377500Y-6703125D02*
G75*
G02*
X19327500Y-6753125I-50000J0D01*
G01*
X10877500Y-4098125D02*
X10877500Y-5903125D01*
X29100000Y-2271875D02*
X29100000Y2178125D01*
X8875000Y6753125D02*
G75*
G02*
X8925000Y6703125I0J-50000D01*
G01*
X17780000Y6753125D02*
G75*
G02*
X17830000Y6703125I0J-50000D01*
G01*
X14652500Y-6228125D02*
G75*
G02*
X14652500Y-6078125I0J75000D01*
G01*
X8446250Y-238125D02*
X8020000Y-238125D01*
X29250000Y-2271875D02*
G75*
G02*
X29100000Y-2271875I-75000J0D01*
G01*
X29250000Y2178125D02*
X29250000Y-2271875D01*
X23975000Y6703125D02*
G75*
G02*
X24025000Y6753125I50000J0D01*
G01*
X-9125000Y2453125D02*
X-9875000Y2453125D01*
X8925000Y5953125D02*
X8925000Y6703125D01*
X10927500Y-5953125D02*
G75*
G02*
X10877500Y-5903125I0J50000D01*
G01*
X8020000Y1666875D02*
X8922500Y1666875D01*
X21815379Y6953123D02*
X21815379Y5953125D01*
X10877500Y3521875D02*
G75*
G02*
X10927500Y3571875I50000J0D01*
G01*
X6697400Y-6078125D02*
G75*
G02*
X6697400Y-6228125I0J-75000D01*
G01*
X29724794Y-6997082D02*
G75*
G02*
X29775000Y-7047081I206J-50000D01*
G01*
X8972500Y1716875D02*
X8972500Y3571875D01*
X-1012500Y6953123D02*
G75*
G02*
X-912500Y7053123I100000J0D01*
G01*
X-9250000Y-2271875D02*
G75*
G02*
X-9400000Y-2271875I-75000J0D01*
G01*
X23975000Y5953125D02*
X23515000Y5953125D01*
X23975000Y6703125D02*
X23975000Y5953125D01*
X8650000Y6078125D02*
X4200000Y6078125D01*
X8496250Y-2143125D02*
X8496250Y-288125D01*
X22833750Y-6429375D02*
G75*
G02*
X22783750Y-6379375I0J50000D01*
G01*
X-9075000Y-5953125D02*
X-8125000Y-5953125D01*
X10451250Y-2143125D02*
X11353750Y-2143125D01*
X10927500Y-5953125D02*
X12027500Y-5953125D01*
X29726322Y8203311D02*
G75*
G02*
X29776133Y8153311I-189J-50000D01*
G01*
X9398750Y-2143125D02*
G75*
G02*
X9448750Y-2193125I0J-50000D01*
G01*
X9875000Y5953125D02*
G75*
G02*
X9925000Y5903125I0J-50000D01*
G01*
X29776133Y7253312D02*
X29776133Y8153311D01*
X17555000Y6078125D02*
X13105000Y6078125D01*
X28975000Y-3998125D02*
G75*
G02*
X28925000Y-4048125I-50000J0D01*
G01*
X19102500Y-6078125D02*
G75*
G02*
X19102500Y-6228125I0J-75000D01*
G01*
X29775000Y-7947063D02*
G75*
G02*
X29725189Y-7997063I-50000J0D01*
G01*
X9925000Y1616875D02*
X9925000Y-188125D01*
D11*
D12*
X-2442400Y6595700D02*
X-2377400Y6530700D01*
X-2377400Y6595700D02*
X-2442400Y6530700D01*
X-1864400Y6595700D02*
X-1799400Y6530700D01*
X-1799400Y6595700D02*
X-1864400Y6530700D01*
X22589300Y6595700D02*
X22654300Y6530700D01*
X22654300Y6595700D02*
X22589300Y6530700D01*
X23167300Y6595700D02*
X23232300Y6530700D01*
X23232300Y6595700D02*
X23167300Y6530700D01*
D13*
X-2386330Y-5981700D02*
G75*
G03*
X-2386330Y-5981700I-39370J0D01*
G01*
X-2259330Y-5981700D02*
G75*
G03*
X-2259330Y-5981700I-39370J0D01*
G01*
X-2132330Y-5981700D02*
G75*
G03*
X-2132330Y-5981700I-39370J0D01*
G01*
X-2005330Y-5981700D02*
G75*
G03*
X-2005330Y-5981700I-39370J0D01*
G01*
X-1878330Y-5981700D02*
G75*
G03*
X-1878330Y-5981700I-39370J0D01*
G01*
X-1751330Y-5981700D02*
G75*
G03*
X-1751330Y-5981700I-39370J0D01*
G01*
X-1624330Y-5981700D02*
G75*
G03*
X-1624330Y-5981700I-39370J0D01*
G01*
X-1497330Y-5981700D02*
G75*
G03*
X-1497330Y-5981700I-39370J0D01*
G01*
X-1370330Y-5981700D02*
G75*
G03*
X-1370330Y-5981700I-39370J0D01*
G01*
X-1243330Y-5981700D02*
G75*
G03*
X-1243330Y-5981700I-39370J0D01*
G01*
X166370Y-5981700D02*
G75*
G03*
X166370Y-5981700I-39370J0D01*
G01*
X293370Y-5981700D02*
G75*
G03*
X293370Y-5981700I-39370J0D01*
G01*
X420370Y-5981700D02*
G75*
G03*
X420370Y-5981700I-39370J0D01*
G01*
X547370Y-5981700D02*
G75*
G03*
X547370Y-5981700I-39370J0D01*
G01*
X674370Y-5981700D02*
G75*
G03*
X674370Y-5981700I-39370J0D01*
G01*
X801370Y-5981700D02*
G75*
G03*
X801370Y-5981700I-39370J0D01*
G01*
X928370Y-5981700D02*
G75*
G03*
X928370Y-5981700I-39370J0D01*
G01*
X1055370Y-5981700D02*
G75*
G03*
X1055370Y-5981700I-39370J0D01*
G01*
X1182370Y-5981700D02*
G75*
G03*
X1182370Y-5981700I-39370J0D01*
G01*
X1309370Y-5981700D02*
G75*
G03*
X1309370Y-5981700I-39370J0D01*
G01*
X1372870Y5981700D02*
G75*
G03*
X1372870Y5981700I-39370J0D01*
G01*
X1499870Y5981700D02*
G75*
G03*
X1499870Y5981700I-39370J0D01*
G01*
X1626870Y5981700D02*
G75*
G03*
X1626870Y5981700I-39370J0D01*
G01*
X1753870Y5981700D02*
G75*
G03*
X1753870Y5981700I-39370J0D01*
G01*
X1880870Y5981700D02*
G75*
G03*
X1880870Y5981700I-39370J0D01*
G01*
X2020570Y5981700D02*
G75*
G03*
X2020570Y5981700I-39370J0D01*
G01*
X2147570Y5981700D02*
G75*
G03*
X2147570Y5981700I-39370J0D01*
G01*
X2274570Y5981700D02*
G75*
G03*
X2274570Y5981700I-39370J0D01*
G01*
X2401570Y5981700D02*
G75*
G03*
X2401570Y5981700I-39370J0D01*
G01*
X2528570Y5981700D02*
G75*
G03*
X2528570Y5981700I-39370J0D01*
G01*
X7443470Y-5981700D02*
G75*
G03*
X7443470Y-5981700I-39370J0D01*
G01*
X7570470Y-5981700D02*
G75*
G03*
X7570470Y-5981700I-39370J0D01*
G01*
X7697470Y-5981700D02*
G75*
G03*
X7697470Y-5981700I-39370J0D01*
G01*
X7824470Y-5981700D02*
G75*
G03*
X7824470Y-5981700I-39370J0D01*
G01*
X7951470Y-5981700D02*
G75*
G03*
X7951470Y-5981700I-39370J0D01*
G01*
X8078470Y-5981700D02*
G75*
G03*
X8078470Y-5981700I-39370J0D01*
G01*
X8205470Y-5981700D02*
G75*
G03*
X8205470Y-5981700I-39370J0D01*
G01*
X8332470Y-5981700D02*
G75*
G03*
X8332470Y-5981700I-39370J0D01*
G01*
X8459470Y-5981700D02*
G75*
G03*
X8459470Y-5981700I-39370J0D01*
G01*
X8586470Y-5981700D02*
G75*
G03*
X8586470Y-5981700I-39370J0D01*
G01*
X12091670Y-5981700D02*
G75*
G03*
X12091670Y-5981700I-39370J0D01*
G01*
X12218670Y-5981700D02*
G75*
G03*
X12218670Y-5981700I-39370J0D01*
G01*
X12345670Y-5981700D02*
G75*
G03*
X12345670Y-5981700I-39370J0D01*
G01*
X12472670Y-5981700D02*
G75*
G03*
X12472670Y-5981700I-39370J0D01*
G01*
X12599670Y-5981700D02*
G75*
G03*
X12599670Y-5981700I-39370J0D01*
G01*
X12726670Y-5981700D02*
G75*
G03*
X12726670Y-5981700I-39370J0D01*
G01*
X12853670Y-5981700D02*
G75*
G03*
X12853670Y-5981700I-39370J0D01*
G01*
X12980670Y-5981700D02*
G75*
G03*
X12980670Y-5981700I-39370J0D01*
G01*
X13107670Y-5981700D02*
G75*
G03*
X13107670Y-5981700I-39370J0D01*
G01*
X13234670Y-5981700D02*
G75*
G03*
X13234670Y-5981700I-39370J0D01*
G01*
X18352770Y5981700D02*
G75*
G03*
X18352770Y5981700I-39370J0D01*
G01*
X18479770Y5981700D02*
G75*
G03*
X18479770Y5981700I-39370J0D01*
G01*
X18606770Y5981700D02*
G75*
G03*
X18606770Y5981700I-39370J0D01*
G01*
X18733770Y5981700D02*
G75*
G03*
X18733770Y5981700I-39370J0D01*
G01*
X18860770Y5981700D02*
G75*
G03*
X18860770Y5981700I-39370J0D01*
G01*
X19000470Y5981700D02*
G75*
G03*
X19000470Y5981700I-39370J0D01*
G01*
X19127470Y5981700D02*
G75*
G03*
X19127470Y5981700I-39370J0D01*
G01*
X19254470Y5981700D02*
G75*
G03*
X19254470Y5981700I-39370J0D01*
G01*
X19381470Y5981700D02*
G75*
G03*
X19381470Y5981700I-39370J0D01*
G01*
X19508470Y5981700D02*
G75*
G03*
X19508470Y5981700I-39370J0D01*
G01*
X20549870Y-5981700D02*
G75*
G03*
X20549870Y-5981700I-39370J0D01*
G01*
X20676870Y-5981700D02*
G75*
G03*
X20676870Y-5981700I-39370J0D01*
G01*
X20803870Y-5981700D02*
G75*
G03*
X20803870Y-5981700I-39370J0D01*
G01*
X20930870Y-5981700D02*
G75*
G03*
X20930870Y-5981700I-39370J0D01*
G01*
X21057870Y-5981700D02*
G75*
G03*
X21057870Y-5981700I-39370J0D01*
G01*
X21184870Y-5981700D02*
G75*
G03*
X21184870Y-5981700I-39370J0D01*
G01*
X21311870Y-5981700D02*
G75*
G03*
X21311870Y-5981700I-39370J0D01*
G01*
X21438870Y-5981700D02*
G75*
G03*
X21438870Y-5981700I-39370J0D01*
G01*
X21565870Y-5981700D02*
G75*
G03*
X21565870Y-5981700I-39370J0D01*
G01*
X21692870Y-5981700D02*
G75*
G03*
X21692870Y-5981700I-39370J0D01*
G01*
D14*
X-609600Y6865000D02*
X-609600Y6785000D01*
X-649600Y6825000D02*
X-569600Y6825000D01*
X-609600Y6165000D02*
X-609600Y6085000D01*
X-649600Y6125000D02*
X-569600Y6125000D01*
X21412200Y6865000D02*
X21412200Y6785000D01*
X21372200Y6825000D02*
X21452200Y6825000D01*
X21412200Y6165000D02*
X21412200Y6085000D01*
X21372200Y6125000D02*
X21452200Y6125000D01*
D15*
X-8617308Y651868D02*
X-8617308Y775612D01*
X-8741052Y775612D01*
X-8741052Y651868D01*
X-8617308Y651868D01*
X-8617308Y651868D02*
X-8617308Y775612D01*
X-8741052Y775612D01*
X-8741052Y651868D01*
X-8617308Y651868D01*
X-8617308Y-1253132D02*
X-8617308Y-1129388D01*
X-8741052Y-1129388D01*
X-8741052Y-1253132D01*
X-8617308Y-1253132D01*
X-8617308Y-1253132D02*
X-8617308Y-1129388D01*
X-8741052Y-1129388D01*
X-8741052Y-1253132D01*
X-8617308Y-1253132D01*
X-8617308Y-3158132D02*
X-8617308Y-3034388D01*
X-8741052Y-3034388D01*
X-8741052Y-3158132D01*
X-8617308Y-3158132D01*
X-8617308Y-3158132D02*
X-8617308Y-3034388D01*
X-8741052Y-3034388D01*
X-8741052Y-3158132D01*
X-8617308Y-3158132D01*
X-8617308Y-5063132D02*
X-8617308Y-4939388D01*
X-8741052Y-4939388D01*
X-8741052Y-5063132D01*
X-8617308Y-5063132D01*
X-8617308Y-5063132D02*
X-8617308Y-4939388D01*
X-8741052Y-4939388D01*
X-8741052Y-5063132D01*
X-8617308Y-5063132D01*
X-7601308Y651868D02*
X-7601308Y775612D01*
X-7725052Y775612D01*
X-7725052Y651868D01*
X-7601308Y651868D01*
X-7601308Y651868D02*
X-7601308Y775612D01*
X-7725052Y775612D01*
X-7725052Y651868D01*
X-7601308Y651868D01*
X-7601308Y-1253132D02*
X-7601308Y-1129388D01*
X-7725052Y-1129388D01*
X-7725052Y-1253132D01*
X-7601308Y-1253132D01*
X-7601308Y-1253132D02*
X-7601308Y-1129388D01*
X-7725052Y-1129388D01*
X-7725052Y-1253132D01*
X-7601308Y-1253132D01*
X-7601308Y-3158132D02*
X-7601308Y-3034388D01*
X-7725052Y-3034388D01*
X-7725052Y-3158132D01*
X-7601308Y-3158132D01*
X-7601308Y-3158132D02*
X-7601308Y-3034388D01*
X-7725052Y-3034388D01*
X-7725052Y-3158132D01*
X-7601308Y-3158132D01*
X-7601308Y-5063132D02*
X-7601308Y-4939388D01*
X-7725052Y-4939388D01*
X-7725052Y-5063132D01*
X-7601308Y-5063132D01*
X-7601308Y-5063132D02*
X-7601308Y-4939388D01*
X-7725052Y-4939388D01*
X-7725052Y-5063132D01*
X-7601308Y-5063132D01*
X-6712308Y651868D02*
X-6712308Y775612D01*
X-6836052Y775612D01*
X-6836052Y651868D01*
X-6712308Y651868D01*
X-6712308Y651868D02*
X-6712308Y775612D01*
X-6836052Y775612D01*
X-6836052Y651868D01*
X-6712308Y651868D01*
X-6712308Y-1253132D02*
X-6712308Y-1129388D01*
X-6836052Y-1129388D01*
X-6836052Y-1253132D01*
X-6712308Y-1253132D01*
X-6712308Y-1253132D02*
X-6712308Y-1129388D01*
X-6836052Y-1129388D01*
X-6836052Y-1253132D01*
X-6712308Y-1253132D01*
X-6712308Y-3158132D02*
X-6712308Y-3034388D01*
X-6836052Y-3034388D01*
X-6836052Y-3158132D01*
X-6712308Y-3158132D01*
X-6712308Y-3158132D02*
X-6712308Y-3034388D01*
X-6836052Y-3034388D01*
X-6836052Y-3158132D01*
X-6712308Y-3158132D01*
X-6712308Y-5063132D02*
X-6712308Y-4939388D01*
X-6836052Y-4939388D01*
X-6836052Y-5063132D01*
X-6712308Y-5063132D01*
X-6712308Y-5063132D02*
X-6712308Y-4939388D01*
X-6836052Y-4939388D01*
X-6836052Y-5063132D01*
X-6712308Y-5063132D01*
X-5696308Y651868D02*
X-5696308Y775612D01*
X-5820052Y775612D01*
X-5820052Y651868D01*
X-5696308Y651868D01*
X-5696308Y651868D02*
X-5696308Y775612D01*
X-5820052Y775612D01*
X-5820052Y651868D01*
X-5696308Y651868D01*
X-5696308Y-1253132D02*
X-5696308Y-1129388D01*
X-5820052Y-1129388D01*
X-5820052Y-1253132D01*
X-5696308Y-1253132D01*
X-5696308Y-1253132D02*
X-5696308Y-1129388D01*
X-5820052Y-1129388D01*
X-5820052Y-1253132D01*
X-5696308Y-1253132D01*
X-5696308Y-3158132D02*
X-5696308Y-3034388D01*
X-5820052Y-3034388D01*
X-5820052Y-3158132D01*
X-5696308Y-3158132D01*
X-5696308Y-3158132D02*
X-5696308Y-3034388D01*
X-5820052Y-3034388D01*
X-5820052Y-3158132D01*
X-5696308Y-3158132D01*
X-5696308Y-5063132D02*
X-5696308Y-4939388D01*
X-5820052Y-4939388D01*
X-5820052Y-5063132D01*
X-5696308Y-5063132D01*
X-5696308Y-5063132D02*
X-5696308Y-4939388D01*
X-5820052Y-4939388D01*
X-5820052Y-5063132D01*
X-5696308Y-5063132D01*
X-3854808Y4938118D02*
X-3854808Y5061862D01*
X-3978552Y5061862D01*
X-3978552Y4938118D01*
X-3854808Y4938118D01*
X-3854808Y4938118D02*
X-3854808Y5061862D01*
X-3978552Y5061862D01*
X-3978552Y4938118D01*
X-3854808Y4938118D01*
X-3854808Y2556868D02*
X-3854808Y2680612D01*
X-3978552Y2680612D01*
X-3978552Y2556868D01*
X-3854808Y2556868D01*
X-3854808Y2556868D02*
X-3854808Y2680612D01*
X-3978552Y2680612D01*
X-3978552Y2556868D01*
X-3854808Y2556868D01*
X-3378558Y651868D02*
X-3378558Y775612D01*
X-3502302Y775612D01*
X-3502302Y651868D01*
X-3378558Y651868D01*
X-3378558Y651868D02*
X-3378558Y775612D01*
X-3502302Y775612D01*
X-3502302Y651868D01*
X-3378558Y651868D01*
X-3378558Y-5063132D02*
X-3378558Y-4939388D01*
X-3502302Y-4939388D01*
X-3502302Y-5063132D01*
X-3378558Y-5063132D01*
X-3378558Y-5063132D02*
X-3378558Y-4939388D01*
X-3502302Y-4939388D01*
X-3502302Y-5063132D01*
X-3378558Y-5063132D01*
X-3140433Y-1253132D02*
X-3140433Y-1129388D01*
X-3264177Y-1129388D01*
X-3264177Y-1253132D01*
X-3140433Y-1253132D01*
X-3140433Y-1253132D02*
X-3140433Y-1129388D01*
X-3264177Y-1129388D01*
X-3264177Y-1253132D01*
X-3140433Y-1253132D01*
X-2838808Y4938118D02*
X-2838808Y5061862D01*
X-2962552Y5061862D01*
X-2962552Y4938118D01*
X-2838808Y4938118D01*
X-2838808Y4938118D02*
X-2838808Y5061862D01*
X-2962552Y5061862D01*
X-2962552Y4938118D01*
X-2838808Y4938118D01*
X-2838808Y2556868D02*
X-2838808Y2680612D01*
X-2962552Y2680612D01*
X-2962552Y2556868D01*
X-2838808Y2556868D01*
X-2838808Y2556868D02*
X-2838808Y2680612D01*
X-2962552Y2680612D01*
X-2962552Y2556868D01*
X-2838808Y2556868D01*
X-2664183Y-1253132D02*
X-2664183Y-1129388D01*
X-2787927Y-1129388D01*
X-2787927Y-1253132D01*
X-2664183Y-1253132D01*
X-2664183Y-3158132D02*
X-2664183Y-3034388D01*
X-2787927Y-3034388D01*
X-2787927Y-3158132D01*
X-2664183Y-3158132D01*
X-2664183Y-3158132D02*
X-2664183Y-3034388D01*
X-2787927Y-3034388D01*
X-2787927Y-3158132D01*
X-2664183Y-3158132D01*
X-2362558Y651868D02*
X-2362558Y775612D01*
X-2486302Y775612D01*
X-2486302Y651868D01*
X-2362558Y651868D01*
X-2362558Y651868D02*
X-2362558Y775612D01*
X-2486302Y775612D01*
X-2486302Y651868D01*
X-2362558Y651868D01*
X-2362558Y-5063132D02*
X-2362558Y-4939388D01*
X-2486302Y-4939388D01*
X-2486302Y-5063132D01*
X-2362558Y-5063132D01*
X-2362558Y-5063132D02*
X-2362558Y-4939388D01*
X-2486302Y-4939388D01*
X-2486302Y-5063132D01*
X-2362558Y-5063132D01*
X-2124433Y-1253132D02*
X-2124433Y-1129388D01*
X-2248177Y-1129388D01*
X-2248177Y-1253132D01*
X-2124433Y-1253132D01*
X-2124433Y-1253132D02*
X-2124433Y-1129388D01*
X-2248177Y-1129388D01*
X-2248177Y-1253132D01*
X-2124433Y-1253132D01*
X-1949808Y2556868D02*
X-1949808Y2680612D01*
X-2073552Y2680612D01*
X-2073552Y2556868D01*
X-1949808Y2556868D01*
X-1949808Y2556868D02*
X-1949808Y2680612D01*
X-2073552Y2680612D01*
X-2073552Y2556868D01*
X-1949808Y2556868D01*
X-1648183Y-1253132D02*
X-1648183Y-1129388D01*
X-1771927Y-1129388D01*
X-1771927Y-1253132D01*
X-1648183Y-1253132D01*
X-1648183Y-3158132D02*
X-1648183Y-3034388D01*
X-1771927Y-3034388D01*
X-1771927Y-3158132D01*
X-1648183Y-3158132D01*
X-1648183Y-3158132D02*
X-1648183Y-3034388D01*
X-1771927Y-3034388D01*
X-1771927Y-3158132D01*
X-1648183Y-3158132D01*
X-1473558Y4938118D02*
X-1473558Y5061862D01*
X-1597302Y5061862D01*
X-1597302Y4938118D01*
X-1473558Y4938118D01*
X-1473558Y4938118D02*
X-1473558Y5061862D01*
X-1597302Y5061862D01*
X-1597302Y4938118D01*
X-1473558Y4938118D01*
X-997308Y651868D02*
X-997308Y775612D01*
X-1121052Y775612D01*
X-1121052Y651868D01*
X-997308Y651868D01*
X-997308Y651868D02*
X-997308Y775612D01*
X-1121052Y775612D01*
X-1121052Y651868D01*
X-997308Y651868D01*
X-997308Y-5063132D02*
X-997308Y-4939388D01*
X-1121052Y-4939388D01*
X-1121052Y-5063132D01*
X-997308Y-5063132D01*
X-997308Y-5063132D02*
X-997308Y-4939388D01*
X-1121052Y-4939388D01*
X-1121052Y-5063132D01*
X-997308Y-5063132D01*
X-933808Y2556868D02*
X-933808Y2680612D01*
X-1057552Y2680612D01*
X-1057552Y2556868D01*
X-933808Y2556868D01*
X-933808Y2556868D02*
X-933808Y2680612D01*
X-1057552Y2680612D01*
X-1057552Y2556868D01*
X-933808Y2556868D01*
X-521058Y-1253132D02*
X-521058Y-1129388D01*
X-644802Y-1129388D01*
X-644802Y-1253132D01*
X-521058Y-1253132D01*
X-521058Y-1253132D02*
X-521058Y-1129388D01*
X-644802Y-1129388D01*
X-644802Y-1253132D01*
X-521058Y-1253132D01*
X-457558Y4938118D02*
X-457558Y5061862D01*
X-581302Y5061862D01*
X-581302Y4938118D01*
X-457558Y4938118D01*
X-457558Y4938118D02*
X-457558Y5061862D01*
X-581302Y5061862D01*
X-581302Y4938118D01*
X-457558Y4938118D01*
X-44808Y2556868D02*
X-44808Y2680612D01*
X-168552Y2680612D01*
X-168552Y2556868D01*
X-44808Y2556868D01*
X-44808Y2556868D02*
X-44808Y2680612D01*
X-168552Y2680612D01*
X-168552Y2556868D01*
X-44808Y2556868D01*
X18692Y651868D02*
X18692Y775612D01*
X-105052Y775612D01*
X-105052Y651868D01*
X18692Y651868D01*
X18692Y651868D02*
X18692Y775612D01*
X-105052Y775612D01*
X-105052Y651868D01*
X18692Y651868D01*
X18692Y-5063132D02*
X18692Y-4939388D01*
X-105052Y-4939388D01*
X-105052Y-5063132D01*
X18692Y-5063132D01*
X18692Y-5063132D02*
X18692Y-4939388D01*
X-105052Y-4939388D01*
X-105052Y-5063132D01*
X18692Y-5063132D01*
X431442Y4938118D02*
X431442Y5061862D01*
X307698Y5061862D01*
X307698Y4938118D01*
X431442Y4938118D01*
X431442Y4938118D02*
X431442Y5061862D01*
X307698Y5061862D01*
X307698Y4938118D01*
X431442Y4938118D01*
X431442Y-3158132D02*
X431442Y-3034388D01*
X307698Y-3034388D01*
X307698Y-3158132D01*
X431442Y-3158132D01*
X431442Y-3158132D02*
X431442Y-3034388D01*
X307698Y-3034388D01*
X307698Y-3158132D01*
X431442Y-3158132D01*
X494942Y-1253132D02*
X494942Y-1129388D01*
X371198Y-1129388D01*
X371198Y-1253132D01*
X494942Y-1253132D01*
X494942Y-1253132D02*
X494942Y-1129388D01*
X371198Y-1129388D01*
X371198Y-1253132D01*
X494942Y-1253132D01*
X907692Y651868D02*
X907692Y775612D01*
X783948Y775612D01*
X783948Y651868D01*
X907692Y651868D01*
X907692Y651868D02*
X907692Y775612D01*
X783948Y775612D01*
X783948Y651868D01*
X907692Y651868D01*
X971192Y2556868D02*
X971192Y2680612D01*
X847448Y2680612D01*
X847448Y2556868D01*
X971192Y2556868D01*
X971192Y2556868D02*
X971192Y2680612D01*
X847448Y2680612D01*
X847448Y2556868D01*
X971192Y2556868D01*
X1383942Y-1253132D02*
X1383942Y-1129388D01*
X1260198Y-1129388D01*
X1260198Y-1253132D01*
X1383942Y-1253132D01*
X1383942Y-1253132D02*
X1383942Y-1129388D01*
X1260198Y-1129388D01*
X1260198Y-1253132D01*
X1383942Y-1253132D01*
X1383942Y-5063132D02*
X1383942Y-4939388D01*
X1260198Y-4939388D01*
X1260198Y-5063132D01*
X1383942Y-5063132D01*
X1383942Y-5063132D02*
X1383942Y-4939388D01*
X1260198Y-4939388D01*
X1260198Y-5063132D01*
X1383942Y-5063132D01*
X1447442Y4938118D02*
X1447442Y5061862D01*
X1323698Y5061862D01*
X1323698Y4938118D01*
X1447442Y4938118D01*
X1447442Y4938118D02*
X1447442Y5061862D01*
X1323698Y5061862D01*
X1323698Y4938118D01*
X1447442Y4938118D01*
X1447442Y-3158132D02*
X1447442Y-3034388D01*
X1323698Y-3034388D01*
X1323698Y-3158132D01*
X1447442Y-3158132D01*
X1447442Y-3158132D02*
X1447442Y-3034388D01*
X1323698Y-3034388D01*
X1323698Y-3158132D01*
X1447442Y-3158132D01*
X1860192Y2556868D02*
X1860192Y2680612D01*
X1736448Y2680612D01*
X1736448Y2556868D01*
X1860192Y2556868D01*
X1860192Y2556868D02*
X1860192Y2680612D01*
X1736448Y2680612D01*
X1736448Y2556868D01*
X1860192Y2556868D01*
X1923692Y651868D02*
X1923692Y775612D01*
X1799948Y775612D01*
X1799948Y651868D01*
X1923692Y651868D01*
X1923692Y651868D02*
X1923692Y775612D01*
X1799948Y775612D01*
X1799948Y651868D01*
X1923692Y651868D01*
X2336442Y4938118D02*
X2336442Y5061862D01*
X2212698Y5061862D01*
X2212698Y4938118D01*
X2336442Y4938118D01*
X2336442Y4938118D02*
X2336442Y5061862D01*
X2212698Y5061862D01*
X2212698Y4938118D01*
X2336442Y4938118D01*
X2336442Y-3158132D02*
X2336442Y-3034388D01*
X2212698Y-3034388D01*
X2212698Y-3158132D01*
X2336442Y-3158132D01*
X2336442Y-3158132D02*
X2336442Y-3034388D01*
X2212698Y-3034388D01*
X2212698Y-3158132D01*
X2336442Y-3158132D01*
X2399942Y-1253132D02*
X2399942Y-1129388D01*
X2276198Y-1129388D01*
X2276198Y-1253132D01*
X2399942Y-1253132D01*
X2399942Y-1253132D02*
X2399942Y-1129388D01*
X2276198Y-1129388D01*
X2276198Y-1253132D01*
X2399942Y-1253132D01*
X2399942Y-5063132D02*
X2399942Y-4939388D01*
X2276198Y-4939388D01*
X2276198Y-5063132D01*
X2399942Y-5063132D01*
X2399942Y-5063132D02*
X2399942Y-4939388D01*
X2276198Y-4939388D01*
X2276198Y-5063132D01*
X2399942Y-5063132D01*
X2812692Y651868D02*
X2812692Y775612D01*
X2688948Y775612D01*
X2688948Y651868D01*
X2812692Y651868D01*
X2812692Y651868D02*
X2812692Y775612D01*
X2688948Y775612D01*
X2688948Y651868D01*
X2812692Y651868D01*
X2876192Y2556868D02*
X2876192Y2680612D01*
X2752448Y2680612D01*
X2752448Y2556868D01*
X2876192Y2556868D01*
X2876192Y2556868D02*
X2876192Y2680612D01*
X2752448Y2680612D01*
X2752448Y2556868D01*
X2876192Y2556868D01*
X3288942Y-1253132D02*
X3288942Y-1129388D01*
X3165198Y-1129388D01*
X3165198Y-1253132D01*
X3288942Y-1253132D01*
X3288942Y-1253132D02*
X3288942Y-1129388D01*
X3165198Y-1129388D01*
X3165198Y-1253132D01*
X3288942Y-1253132D01*
X3352442Y4938118D02*
X3352442Y5061862D01*
X3228698Y5061862D01*
X3228698Y4938118D01*
X3352442Y4938118D01*
X3352442Y4938118D02*
X3352442Y5061862D01*
X3228698Y5061862D01*
X3228698Y4938118D01*
X3352442Y4938118D01*
X3352442Y-3158132D02*
X3352442Y-3034388D01*
X3228698Y-3034388D01*
X3228698Y-3158132D01*
X3352442Y-3158132D01*
X3352442Y-3158132D02*
X3352442Y-3034388D01*
X3228698Y-3034388D01*
X3228698Y-3158132D01*
X3352442Y-3158132D01*
X3765192Y2556868D02*
X3765192Y2680612D01*
X3641448Y2680612D01*
X3641448Y2556868D01*
X3765192Y2556868D01*
X3765192Y2556868D02*
X3765192Y2680612D01*
X3641448Y2680612D01*
X3641448Y2556868D01*
X3765192Y2556868D01*
X3828692Y651868D02*
X3828692Y775612D01*
X3704948Y775612D01*
X3704948Y651868D01*
X3828692Y651868D01*
X3828692Y651868D02*
X3828692Y775612D01*
X3704948Y775612D01*
X3704948Y651868D01*
X3828692Y651868D01*
X4241442Y4938118D02*
X4241442Y5061862D01*
X4117698Y5061862D01*
X4117698Y4938118D01*
X4241442Y4938118D01*
X4241442Y4938118D02*
X4241442Y5061862D01*
X4117698Y5061862D01*
X4117698Y4938118D01*
X4241442Y4938118D01*
X4241442Y-3158132D02*
X4241442Y-3034388D01*
X4117698Y-3034388D01*
X4117698Y-3158132D01*
X4241442Y-3158132D01*
X4241442Y-3158132D02*
X4241442Y-3034388D01*
X4117698Y-3034388D01*
X4117698Y-3158132D01*
X4241442Y-3158132D01*
X4304942Y-1253132D02*
X4304942Y-1129388D01*
X4181198Y-1129388D01*
X4181198Y-1253132D01*
X4304942Y-1253132D01*
X4304942Y-1253132D02*
X4304942Y-1129388D01*
X4181198Y-1129388D01*
X4181198Y-1253132D01*
X4304942Y-1253132D01*
X4717692Y651868D02*
X4717692Y775612D01*
X4593948Y775612D01*
X4593948Y651868D01*
X4717692Y651868D01*
X4717692Y651868D02*
X4717692Y775612D01*
X4593948Y775612D01*
X4593948Y651868D01*
X4717692Y651868D01*
X4781192Y2556868D02*
X4781192Y2680612D01*
X4657448Y2680612D01*
X4657448Y2556868D01*
X4781192Y2556868D01*
X4781192Y2556868D02*
X4781192Y2680612D01*
X4657448Y2680612D01*
X4657448Y2556868D01*
X4781192Y2556868D01*
X5193942Y-1253132D02*
X5193942Y-1129388D01*
X5070198Y-1129388D01*
X5070198Y-1253132D01*
X5193942Y-1253132D01*
X5193942Y-1253132D02*
X5193942Y-1129388D01*
X5070198Y-1129388D01*
X5070198Y-1253132D01*
X5193942Y-1253132D01*
X5257442Y4938118D02*
X5257442Y5061862D01*
X5133698Y5061862D01*
X5133698Y4938118D01*
X5257442Y4938118D01*
X5257442Y4938118D02*
X5257442Y5061862D01*
X5133698Y5061862D01*
X5133698Y4938118D01*
X5257442Y4938118D01*
X5257442Y-3158132D02*
X5257442Y-3034388D01*
X5133698Y-3034388D01*
X5133698Y-3158132D01*
X5257442Y-3158132D01*
X5257442Y-3158132D02*
X5257442Y-3034388D01*
X5133698Y-3034388D01*
X5133698Y-3158132D01*
X5257442Y-3158132D01*
X5670192Y2556868D02*
X5670192Y2680612D01*
X5546448Y2680612D01*
X5546448Y2556868D01*
X5670192Y2556868D01*
X5670192Y2556868D02*
X5670192Y2680612D01*
X5546448Y2680612D01*
X5546448Y2556868D01*
X5670192Y2556868D01*
X5670192Y-5063132D02*
X5670192Y-4939388D01*
X5546448Y-4939388D01*
X5546448Y-5063132D01*
X5670192Y-5063132D01*
X5670192Y-5063132D02*
X5670192Y-4939388D01*
X5546448Y-4939388D01*
X5546448Y-5063132D01*
X5670192Y-5063132D01*
X5733692Y651868D02*
X5733692Y775612D01*
X5609948Y775612D01*
X5609948Y651868D01*
X5733692Y651868D01*
X5733692Y651868D02*
X5733692Y775612D01*
X5609948Y775612D01*
X5609948Y651868D01*
X5733692Y651868D01*
X6146442Y-3158132D02*
X6146442Y-3034388D01*
X6022698Y-3034388D01*
X6022698Y-3158132D01*
X6146442Y-3158132D01*
X6146442Y-3158132D02*
X6146442Y-3034388D01*
X6022698Y-3034388D01*
X6022698Y-3158132D01*
X6146442Y-3158132D01*
X6209942Y-1253132D02*
X6209942Y-1129388D01*
X6086198Y-1129388D01*
X6086198Y-1253132D01*
X6209942Y-1253132D01*
X6209942Y-1253132D02*
X6209942Y-1129388D01*
X6086198Y-1129388D01*
X6086198Y-1253132D01*
X6209942Y-1253132D01*
X6622692Y4938118D02*
X6622692Y5061862D01*
X6498948Y5061862D01*
X6498948Y4938118D01*
X6622692Y4938118D01*
X6622692Y4938118D02*
X6622692Y5061862D01*
X6498948Y5061862D01*
X6498948Y4938118D01*
X6622692Y4938118D01*
X6622692Y651868D02*
X6622692Y775612D01*
X6498948Y775612D01*
X6498948Y651868D01*
X6622692Y651868D01*
X6622692Y651868D02*
X6622692Y775612D01*
X6498948Y775612D01*
X6498948Y651868D01*
X6622692Y651868D01*
X6686192Y2556868D02*
X6686192Y2680612D01*
X6562448Y2680612D01*
X6562448Y2556868D01*
X6686192Y2556868D01*
X6686192Y2556868D02*
X6686192Y2680612D01*
X6562448Y2680612D01*
X6562448Y2556868D01*
X6686192Y2556868D01*
X6686192Y-5063132D02*
X6686192Y-4939388D01*
X6562448Y-4939388D01*
X6562448Y-5063132D01*
X6686192Y-5063132D01*
X6686192Y-5063132D02*
X6686192Y-4939388D01*
X6562448Y-4939388D01*
X6562448Y-5063132D01*
X6686192Y-5063132D01*
X7098942Y-1253132D02*
X7098942Y-1129388D01*
X6975198Y-1129388D01*
X6975198Y-1253132D01*
X7098942Y-1253132D01*
X7098942Y-1253132D02*
X7098942Y-1129388D01*
X6975198Y-1129388D01*
X6975198Y-1253132D01*
X7098942Y-1253132D01*
X7162442Y-3158132D02*
X7162442Y-3034388D01*
X7038698Y-3034388D01*
X7038698Y-3158132D01*
X7162442Y-3158132D01*
X7162442Y-3158132D02*
X7162442Y-3034388D01*
X7038698Y-3034388D01*
X7038698Y-3158132D01*
X7162442Y-3158132D01*
X7575192Y2556868D02*
X7575192Y2680612D01*
X7451448Y2680612D01*
X7451448Y2556868D01*
X7575192Y2556868D01*
X7575192Y2556868D02*
X7575192Y2680612D01*
X7451448Y2680612D01*
X7451448Y2556868D01*
X7575192Y2556868D01*
X7638692Y4938118D02*
X7638692Y5061862D01*
X7514948Y5061862D01*
X7514948Y4938118D01*
X7638692Y4938118D01*
X7638692Y4938118D02*
X7638692Y5061862D01*
X7514948Y5061862D01*
X7514948Y4938118D01*
X7638692Y4938118D01*
X7638692Y651868D02*
X7638692Y775612D01*
X7514948Y775612D01*
X7514948Y651868D01*
X7638692Y651868D01*
X7638692Y651868D02*
X7638692Y775612D01*
X7514948Y775612D01*
X7514948Y651868D01*
X7638692Y651868D01*
X8051442Y-3158132D02*
X8051442Y-3034388D01*
X7927698Y-3034388D01*
X7927698Y-3158132D01*
X8051442Y-3158132D01*
X8051442Y-3158132D02*
X8051442Y-3034388D01*
X7927698Y-3034388D01*
X7927698Y-3158132D01*
X8051442Y-3158132D01*
X8114942Y-1253132D02*
X8114942Y-1129388D01*
X7991198Y-1129388D01*
X7991198Y-1253132D01*
X8114942Y-1253132D01*
X8114942Y-1253132D02*
X8114942Y-1129388D01*
X7991198Y-1129388D01*
X7991198Y-1253132D01*
X8114942Y-1253132D01*
X8527692Y4938118D02*
X8527692Y5061862D01*
X8403948Y5061862D01*
X8403948Y4938118D01*
X8527692Y4938118D01*
X8527692Y4938118D02*
X8527692Y5061862D01*
X8403948Y5061862D01*
X8403948Y4938118D01*
X8527692Y4938118D01*
X8591192Y2556868D02*
X8591192Y2680612D01*
X8467448Y2680612D01*
X8467448Y2556868D01*
X8591192Y2556868D01*
X8591192Y2556868D02*
X8591192Y2680612D01*
X8467448Y2680612D01*
X8467448Y2556868D01*
X8591192Y2556868D01*
X9067442Y-3158132D02*
X9067442Y-3034388D01*
X8943698Y-3034388D01*
X8943698Y-3158132D01*
X9067442Y-3158132D01*
X9067442Y-3158132D02*
X9067442Y-3034388D01*
X8943698Y-3034388D01*
X8943698Y-3158132D01*
X9067442Y-3158132D01*
X9543692Y4938118D02*
X9543692Y5061862D01*
X9419948Y5061862D01*
X9419948Y4938118D01*
X9543692Y4938118D01*
X9543692Y4938118D02*
X9543692Y5061862D01*
X9419948Y5061862D01*
X9419948Y4938118D01*
X9543692Y4938118D01*
X10437772Y649328D02*
X10437772Y773072D01*
X10314028Y773072D01*
X10314028Y649328D01*
X10437772Y649328D01*
X10437772Y649328D02*
X10437772Y773072D01*
X10314028Y773072D01*
X10314028Y649328D01*
X10437772Y649328D01*
X10914022Y-1255672D02*
X10914022Y-1131928D01*
X10790278Y-1131928D01*
X10790278Y-1255672D01*
X10914022Y-1255672D01*
X10914022Y-1255672D02*
X10914022Y-1131928D01*
X10790278Y-1131928D01*
X10790278Y-1255672D01*
X10914022Y-1255672D01*
X11390272Y2554328D02*
X11390272Y2678072D01*
X11266528Y2678072D01*
X11266528Y2554328D01*
X11390272Y2554328D01*
X11390272Y2554328D02*
X11390272Y2678072D01*
X11266528Y2678072D01*
X11266528Y2554328D01*
X11390272Y2554328D01*
X11453772Y649328D02*
X11453772Y773072D01*
X11330028Y773072D01*
X11330028Y649328D01*
X11453772Y649328D01*
X11453772Y649328D02*
X11453772Y773072D01*
X11330028Y773072D01*
X11330028Y649328D01*
X11453772Y649328D01*
X11866522Y-3160672D02*
X11866522Y-3036928D01*
X11742778Y-3036928D01*
X11742778Y-3160672D01*
X11866522Y-3160672D01*
X11866522Y-3160672D02*
X11866522Y-3036928D01*
X11742778Y-3036928D01*
X11742778Y-3160672D01*
X11866522Y-3160672D01*
X11930022Y-1255672D02*
X11930022Y-1131928D01*
X11806278Y-1131928D01*
X11806278Y-1255672D01*
X11930022Y-1255672D01*
X11930022Y-1255672D02*
X11930022Y-1131928D01*
X11806278Y-1131928D01*
X11806278Y-1255672D01*
X11930022Y-1255672D01*
X12342772Y4941928D02*
X12342772Y5065672D01*
X12219028Y5065672D01*
X12219028Y4941928D01*
X12342772Y4941928D01*
X12342772Y4941928D02*
X12342772Y5065672D01*
X12219028Y5065672D01*
X12219028Y4941928D01*
X12342772Y4941928D01*
X12342772Y649328D02*
X12342772Y773072D01*
X12219028Y773072D01*
X12219028Y649328D01*
X12342772Y649328D01*
X12342772Y649328D02*
X12342772Y773072D01*
X12219028Y773072D01*
X12219028Y649328D01*
X12342772Y649328D01*
X12406272Y2554328D02*
X12406272Y2678072D01*
X12282528Y2678072D01*
X12282528Y2554328D01*
X12406272Y2554328D01*
X12406272Y2554328D02*
X12406272Y2678072D01*
X12282528Y2678072D01*
X12282528Y2554328D01*
X12406272Y2554328D01*
X12819022Y-1255672D02*
X12819022Y-1131928D01*
X12695278Y-1131928D01*
X12695278Y-1255672D01*
X12819022Y-1255672D01*
X12819022Y-1255672D02*
X12819022Y-1131928D01*
X12695278Y-1131928D01*
X12695278Y-1255672D01*
X12819022Y-1255672D01*
X12882522Y-3160672D02*
X12882522Y-3036928D01*
X12758778Y-3036928D01*
X12758778Y-3160672D01*
X12882522Y-3160672D01*
X12882522Y-3160672D02*
X12882522Y-3036928D01*
X12758778Y-3036928D01*
X12758778Y-3160672D01*
X12882522Y-3160672D01*
X13295272Y2554328D02*
X13295272Y2678072D01*
X13171528Y2678072D01*
X13171528Y2554328D01*
X13295272Y2554328D01*
X13295272Y2554328D02*
X13295272Y2678072D01*
X13171528Y2678072D01*
X13171528Y2554328D01*
X13295272Y2554328D01*
X13295272Y-5065672D02*
X13295272Y-4941928D01*
X13171528Y-4941928D01*
X13171528Y-5065672D01*
X13295272Y-5065672D01*
X13295272Y-5065672D02*
X13295272Y-4941928D01*
X13171528Y-4941928D01*
X13171528Y-5065672D01*
X13295272Y-5065672D01*
X13358772Y4941928D02*
X13358772Y5065672D01*
X13235028Y5065672D01*
X13235028Y4941928D01*
X13358772Y4941928D01*
X13358772Y4941928D02*
X13358772Y5065672D01*
X13235028Y5065672D01*
X13235028Y4941928D01*
X13358772Y4941928D01*
X13358772Y649328D02*
X13358772Y773072D01*
X13235028Y773072D01*
X13235028Y649328D01*
X13358772Y649328D01*
X13358772Y649328D02*
X13358772Y773072D01*
X13235028Y773072D01*
X13235028Y649328D01*
X13358772Y649328D01*
X13771522Y-3160672D02*
X13771522Y-3036928D01*
X13647778Y-3036928D01*
X13647778Y-3160672D01*
X13771522Y-3160672D01*
X13771522Y-3160672D02*
X13771522Y-3036928D01*
X13647778Y-3036928D01*
X13647778Y-3160672D01*
X13771522Y-3160672D01*
X13835022Y-1255672D02*
X13835022Y-1131928D01*
X13711278Y-1131928D01*
X13711278Y-1255672D01*
X13835022Y-1255672D01*
X13835022Y-1255672D02*
X13835022Y-1131928D01*
X13711278Y-1131928D01*
X13711278Y-1255672D01*
X13835022Y-1255672D01*
X14247772Y4941928D02*
X14247772Y5065672D01*
X14124028Y5065672D01*
X14124028Y4941928D01*
X14247772Y4941928D01*
X14247772Y4941928D02*
X14247772Y5065672D01*
X14124028Y5065672D01*
X14124028Y4941928D01*
X14247772Y4941928D01*
X14247772Y649328D02*
X14247772Y773072D01*
X14124028Y773072D01*
X14124028Y649328D01*
X14247772Y649328D01*
X14247772Y649328D02*
X14247772Y773072D01*
X14124028Y773072D01*
X14124028Y649328D01*
X14247772Y649328D01*
X14311272Y2554328D02*
X14311272Y2678072D01*
X14187528Y2678072D01*
X14187528Y2554328D01*
X14311272Y2554328D01*
X14311272Y2554328D02*
X14311272Y2678072D01*
X14187528Y2678072D01*
X14187528Y2554328D01*
X14311272Y2554328D01*
X14311272Y-5065672D02*
X14311272Y-4941928D01*
X14187528Y-4941928D01*
X14187528Y-5065672D01*
X14311272Y-5065672D01*
X14311272Y-5065672D02*
X14311272Y-4941928D01*
X14187528Y-4941928D01*
X14187528Y-5065672D01*
X14311272Y-5065672D01*
X14724022Y-1255672D02*
X14724022Y-1131928D01*
X14600278Y-1131928D01*
X14600278Y-1255672D01*
X14724022Y-1255672D01*
X14724022Y-1255672D02*
X14724022Y-1131928D01*
X14600278Y-1131928D01*
X14600278Y-1255672D01*
X14724022Y-1255672D01*
X14787522Y-3160672D02*
X14787522Y-3036928D01*
X14663778Y-3036928D01*
X14663778Y-3160672D01*
X14787522Y-3160672D01*
X14787522Y-3160672D02*
X14787522Y-3036928D01*
X14663778Y-3036928D01*
X14663778Y-3160672D01*
X14787522Y-3160672D01*
X15200272Y2554328D02*
X15200272Y2678072D01*
X15076528Y2678072D01*
X15076528Y2554328D01*
X15200272Y2554328D01*
X15200272Y2554328D02*
X15200272Y2678072D01*
X15076528Y2678072D01*
X15076528Y2554328D01*
X15200272Y2554328D01*
X15263772Y4941928D02*
X15263772Y5065672D01*
X15140028Y5065672D01*
X15140028Y4941928D01*
X15263772Y4941928D01*
X15263772Y4941928D02*
X15263772Y5065672D01*
X15140028Y5065672D01*
X15140028Y4941928D01*
X15263772Y4941928D01*
X15263772Y649328D02*
X15263772Y773072D01*
X15140028Y773072D01*
X15140028Y649328D01*
X15263772Y649328D01*
X15263772Y649328D02*
X15263772Y773072D01*
X15140028Y773072D01*
X15140028Y649328D01*
X15263772Y649328D01*
X15676522Y-3160672D02*
X15676522Y-3036928D01*
X15552778Y-3036928D01*
X15552778Y-3160672D01*
X15676522Y-3160672D01*
X15676522Y-3160672D02*
X15676522Y-3036928D01*
X15552778Y-3036928D01*
X15552778Y-3160672D01*
X15676522Y-3160672D01*
X15740022Y-1255672D02*
X15740022Y-1131928D01*
X15616278Y-1131928D01*
X15616278Y-1255672D01*
X15740022Y-1255672D01*
X15740022Y-1255672D02*
X15740022Y-1131928D01*
X15616278Y-1131928D01*
X15616278Y-1255672D01*
X15740022Y-1255672D01*
X16152772Y649328D02*
X16152772Y773072D01*
X16029028Y773072D01*
X16029028Y649328D01*
X16152772Y649328D01*
X16152772Y649328D02*
X16152772Y773072D01*
X16029028Y773072D01*
X16029028Y649328D01*
X16152772Y649328D01*
X16216272Y2554328D02*
X16216272Y2678072D01*
X16092528Y2678072D01*
X16092528Y2554328D01*
X16216272Y2554328D01*
X16216272Y2554328D02*
X16216272Y2678072D01*
X16092528Y2678072D01*
X16092528Y2554328D01*
X16216272Y2554328D01*
X16629022Y4941928D02*
X16629022Y5065672D01*
X16505278Y5065672D01*
X16505278Y4941928D01*
X16629022Y4941928D01*
X16629022Y4941928D02*
X16629022Y5065672D01*
X16505278Y5065672D01*
X16505278Y4941928D01*
X16629022Y4941928D01*
X16629022Y-1255672D02*
X16629022Y-1131928D01*
X16505278Y-1131928D01*
X16505278Y-1255672D01*
X16629022Y-1255672D01*
X16629022Y-1255672D02*
X16629022Y-1131928D01*
X16505278Y-1131928D01*
X16505278Y-1255672D01*
X16629022Y-1255672D01*
X16692522Y-3160672D02*
X16692522Y-3036928D01*
X16568778Y-3036928D01*
X16568778Y-3160672D01*
X16692522Y-3160672D01*
X16692522Y-3160672D02*
X16692522Y-3036928D01*
X16568778Y-3036928D01*
X16568778Y-3160672D01*
X16692522Y-3160672D01*
X17105272Y2554328D02*
X17105272Y2678072D01*
X16981528Y2678072D01*
X16981528Y2554328D01*
X17105272Y2554328D01*
X17105272Y2554328D02*
X17105272Y2678072D01*
X16981528Y2678072D01*
X16981528Y2554328D01*
X17105272Y2554328D01*
X17105272Y-5065672D02*
X17105272Y-4941928D01*
X16981528Y-4941928D01*
X16981528Y-5065672D01*
X17105272Y-5065672D01*
X17105272Y-5065672D02*
X17105272Y-4941928D01*
X16981528Y-4941928D01*
X16981528Y-5065672D01*
X17105272Y-5065672D01*
X17168772Y649328D02*
X17168772Y773072D01*
X17045028Y773072D01*
X17045028Y649328D01*
X17168772Y649328D01*
X17168772Y649328D02*
X17168772Y773072D01*
X17045028Y773072D01*
X17045028Y649328D01*
X17168772Y649328D01*
X17581522Y-3160672D02*
X17581522Y-3036928D01*
X17457778Y-3036928D01*
X17457778Y-3160672D01*
X17581522Y-3160672D01*
X17581522Y-3160672D02*
X17581522Y-3036928D01*
X17457778Y-3036928D01*
X17457778Y-3160672D01*
X17581522Y-3160672D01*
X17645022Y4941928D02*
X17645022Y5065672D01*
X17521278Y5065672D01*
X17521278Y4941928D01*
X17645022Y4941928D01*
X17645022Y4941928D02*
X17645022Y5065672D01*
X17521278Y5065672D01*
X17521278Y4941928D01*
X17645022Y4941928D01*
X17645022Y-1255672D02*
X17645022Y-1131928D01*
X17521278Y-1131928D01*
X17521278Y-1255672D01*
X17645022Y-1255672D01*
X17645022Y-1255672D02*
X17645022Y-1131928D01*
X17521278Y-1131928D01*
X17521278Y-1255672D01*
X17645022Y-1255672D01*
X18057772Y649328D02*
X18057772Y773072D01*
X17934028Y773072D01*
X17934028Y649328D01*
X18057772Y649328D01*
X18057772Y649328D02*
X18057772Y773072D01*
X17934028Y773072D01*
X17934028Y649328D01*
X18057772Y649328D01*
X18121272Y2554328D02*
X18121272Y2678072D01*
X17997528Y2678072D01*
X17997528Y2554328D01*
X18121272Y2554328D01*
X18121272Y2554328D02*
X18121272Y2678072D01*
X17997528Y2678072D01*
X17997528Y2554328D01*
X18121272Y2554328D01*
X18121272Y-5065672D02*
X18121272Y-4941928D01*
X17997528Y-4941928D01*
X17997528Y-5065672D01*
X18121272Y-5065672D01*
X18121272Y-5065672D02*
X18121272Y-4941928D01*
X17997528Y-4941928D01*
X17997528Y-5065672D01*
X18121272Y-5065672D01*
X18534022Y4941928D02*
X18534022Y5065672D01*
X18410278Y5065672D01*
X18410278Y4941928D01*
X18534022Y4941928D01*
X18534022Y4941928D02*
X18534022Y5065672D01*
X18410278Y5065672D01*
X18410278Y4941928D01*
X18534022Y4941928D01*
X18534022Y-1255672D02*
X18534022Y-1131928D01*
X18410278Y-1131928D01*
X18410278Y-1255672D01*
X18534022Y-1255672D01*
X18534022Y-1255672D02*
X18534022Y-1131928D01*
X18410278Y-1131928D01*
X18410278Y-1255672D01*
X18534022Y-1255672D01*
X18597522Y-3160672D02*
X18597522Y-3036928D01*
X18473778Y-3036928D01*
X18473778Y-3160672D01*
X18597522Y-3160672D01*
X18597522Y-3160672D02*
X18597522Y-3036928D01*
X18473778Y-3036928D01*
X18473778Y-3160672D01*
X18597522Y-3160672D01*
X19010272Y2554328D02*
X19010272Y2678072D01*
X18886528Y2678072D01*
X18886528Y2554328D01*
X19010272Y2554328D01*
X19010272Y2554328D02*
X19010272Y2678072D01*
X18886528Y2678072D01*
X18886528Y2554328D01*
X19010272Y2554328D01*
X19010272Y-5065672D02*
X19010272Y-4941928D01*
X18886528Y-4941928D01*
X18886528Y-5065672D01*
X19010272Y-5065672D01*
X19010272Y-5065672D02*
X19010272Y-4941928D01*
X18886528Y-4941928D01*
X18886528Y-5065672D01*
X19010272Y-5065672D01*
X19073772Y649328D02*
X19073772Y773072D01*
X18950028Y773072D01*
X18950028Y649328D01*
X19073772Y649328D01*
X19073772Y649328D02*
X19073772Y773072D01*
X18950028Y773072D01*
X18950028Y649328D01*
X19073772Y649328D01*
X19486522Y-3160672D02*
X19486522Y-3036928D01*
X19362778Y-3036928D01*
X19362778Y-3160672D01*
X19486522Y-3160672D01*
X19486522Y-3160672D02*
X19486522Y-3036928D01*
X19362778Y-3036928D01*
X19362778Y-3160672D01*
X19486522Y-3160672D01*
X19550022Y4941928D02*
X19550022Y5065672D01*
X19426278Y5065672D01*
X19426278Y4941928D01*
X19550022Y4941928D01*
X19550022Y4941928D02*
X19550022Y5065672D01*
X19426278Y5065672D01*
X19426278Y4941928D01*
X19550022Y4941928D01*
X19550022Y-1255672D02*
X19550022Y-1131928D01*
X19426278Y-1131928D01*
X19426278Y-1255672D01*
X19550022Y-1255672D01*
X19550022Y-1255672D02*
X19550022Y-1131928D01*
X19426278Y-1131928D01*
X19426278Y-1255672D01*
X19550022Y-1255672D01*
X19962772Y649328D02*
X19962772Y773072D01*
X19839028Y773072D01*
X19839028Y649328D01*
X19962772Y649328D01*
X19962772Y649328D02*
X19962772Y773072D01*
X19839028Y773072D01*
X19839028Y649328D01*
X19962772Y649328D01*
X20026272Y2554328D02*
X20026272Y2678072D01*
X19902528Y2678072D01*
X19902528Y2554328D01*
X20026272Y2554328D01*
X20026272Y2554328D02*
X20026272Y2678072D01*
X19902528Y2678072D01*
X19902528Y2554328D01*
X20026272Y2554328D01*
X20026272Y-5065672D02*
X20026272Y-4941928D01*
X19902528Y-4941928D01*
X19902528Y-5065672D01*
X20026272Y-5065672D01*
X20026272Y-5065672D02*
X20026272Y-4941928D01*
X19902528Y-4941928D01*
X19902528Y-5065672D01*
X20026272Y-5065672D01*
X20439022Y4941928D02*
X20439022Y5065672D01*
X20315278Y5065672D01*
X20315278Y4941928D01*
X20439022Y4941928D01*
X20439022Y4941928D02*
X20439022Y5065672D01*
X20315278Y5065672D01*
X20315278Y4941928D01*
X20439022Y4941928D01*
X20439022Y-1255672D02*
X20439022Y-1131928D01*
X20315278Y-1131928D01*
X20315278Y-1255672D01*
X20439022Y-1255672D01*
X20439022Y-1255672D02*
X20439022Y-1131928D01*
X20315278Y-1131928D01*
X20315278Y-1255672D01*
X20439022Y-1255672D01*
X20502522Y-3160672D02*
X20502522Y-3036928D01*
X20378778Y-3036928D01*
X20378778Y-3160672D01*
X20502522Y-3160672D01*
X20502522Y-3160672D02*
X20502522Y-3036928D01*
X20378778Y-3036928D01*
X20378778Y-3160672D01*
X20502522Y-3160672D01*
X20915272Y2554328D02*
X20915272Y2678072D01*
X20791528Y2678072D01*
X20791528Y2554328D01*
X20915272Y2554328D01*
X20915272Y2554328D02*
X20915272Y2678072D01*
X20791528Y2678072D01*
X20791528Y2554328D01*
X20915272Y2554328D01*
X20915272Y-5065672D02*
X20915272Y-4941928D01*
X20791528Y-4941928D01*
X20791528Y-5065672D01*
X20915272Y-5065672D01*
X20915272Y-5065672D02*
X20915272Y-4941928D01*
X20791528Y-4941928D01*
X20791528Y-5065672D01*
X20915272Y-5065672D01*
X20978772Y649328D02*
X20978772Y773072D01*
X20855028Y773072D01*
X20855028Y649328D01*
X20978772Y649328D01*
X20978772Y649328D02*
X20978772Y773072D01*
X20855028Y773072D01*
X20855028Y649328D01*
X20978772Y649328D01*
X21455022Y4941928D02*
X21455022Y5065672D01*
X21331278Y5065672D01*
X21331278Y4941928D01*
X21455022Y4941928D01*
X21455022Y4941928D02*
X21455022Y5065672D01*
X21331278Y5065672D01*
X21331278Y4941928D01*
X21455022Y4941928D01*
X21455022Y-1255672D02*
X21455022Y-1131928D01*
X21331278Y-1131928D01*
X21331278Y-1255672D01*
X21455022Y-1255672D01*
X21455022Y-1255672D02*
X21455022Y-1131928D01*
X21331278Y-1131928D01*
X21331278Y-1255672D01*
X21455022Y-1255672D01*
X21867772Y649328D02*
X21867772Y773072D01*
X21744028Y773072D01*
X21744028Y649328D01*
X21867772Y649328D01*
X21867772Y649328D02*
X21867772Y773072D01*
X21744028Y773072D01*
X21744028Y649328D01*
X21867772Y649328D01*
X21931272Y2554328D02*
X21931272Y2678072D01*
X21807528Y2678072D01*
X21807528Y2554328D01*
X21931272Y2554328D01*
X21931272Y2554328D02*
X21931272Y2678072D01*
X21807528Y2678072D01*
X21807528Y2554328D01*
X21931272Y2554328D01*
X21931272Y-5065672D02*
X21931272Y-4941928D01*
X21807528Y-4941928D01*
X21807528Y-5065672D01*
X21931272Y-5065672D01*
X21931272Y-5065672D02*
X21931272Y-4941928D01*
X21807528Y-4941928D01*
X21807528Y-5065672D01*
X21931272Y-5065672D01*
X22105897Y-3160672D02*
X22105897Y-3036928D01*
X21982153Y-3036928D01*
X21982153Y-3160672D01*
X22105897Y-3160672D01*
X22105897Y-3160672D02*
X22105897Y-3036928D01*
X21982153Y-3036928D01*
X21982153Y-3160672D01*
X22105897Y-3160672D01*
X22344022Y4941928D02*
X22344022Y5065672D01*
X22220278Y5065672D01*
X22220278Y4941928D01*
X22344022Y4941928D01*
X22344022Y4941928D02*
X22344022Y5065672D01*
X22220278Y5065672D01*
X22220278Y4941928D01*
X22344022Y4941928D01*
X22820272Y2554328D02*
X22820272Y2678072D01*
X22696528Y2678072D01*
X22696528Y2554328D01*
X22820272Y2554328D01*
X22883772Y649328D02*
X22883772Y773072D01*
X22760028Y773072D01*
X22760028Y649328D01*
X22883772Y649328D01*
X22883772Y649328D02*
X22883772Y773072D01*
X22760028Y773072D01*
X22760028Y649328D01*
X22883772Y649328D01*
X23121897Y-3160672D02*
X23121897Y-3036928D01*
X22998153Y-3036928D01*
X22998153Y-3160672D01*
X23121897Y-3160672D01*
X23121897Y-3160672D02*
X23121897Y-3036928D01*
X22998153Y-3036928D01*
X22998153Y-3160672D01*
X23121897Y-3160672D01*
X23290172Y-5540652D02*
X23290172Y-5416908D01*
X23166428Y-5416908D01*
X23166428Y-5540652D01*
X23290172Y-5540652D01*
X23290172Y-5540652D02*
X23290172Y-5416908D01*
X23166428Y-5416908D01*
X23166428Y-5540652D01*
X23290172Y-5540652D01*
X23360022Y4941928D02*
X23360022Y5065672D01*
X23236278Y5065672D01*
X23236278Y4941928D01*
X23360022Y4941928D01*
X23360022Y4941928D02*
X23360022Y5065672D01*
X23236278Y5065672D01*
X23236278Y4941928D01*
X23360022Y4941928D01*
X23534647Y-1255672D02*
X23534647Y-1131928D01*
X23410903Y-1131928D01*
X23410903Y-1255672D01*
X23534647Y-1255672D01*
X23534647Y-1255672D02*
X23534647Y-1131928D01*
X23410903Y-1131928D01*
X23410903Y-1255672D01*
X23534647Y-1255672D01*
X23772772Y2554328D02*
X23772772Y2678072D01*
X23649028Y2678072D01*
X23649028Y2554328D01*
X23772772Y2554328D01*
X23772772Y2554328D02*
X23772772Y2678072D01*
X23649028Y2678072D01*
X23649028Y2554328D01*
X23772772Y2554328D01*
X23836272Y2554328D02*
X23836272Y2678072D01*
X23712528Y2678072D01*
X23712528Y2554328D01*
X23836272Y2554328D01*
X24249022Y649328D02*
X24249022Y773072D01*
X24125278Y773072D01*
X24125278Y649328D01*
X24249022Y649328D01*
X24249022Y649328D02*
X24249022Y773072D01*
X24125278Y773072D01*
X24125278Y649328D01*
X24249022Y649328D01*
X24306172Y-5540652D02*
X24306172Y-5416908D01*
X24182428Y-5416908D01*
X24182428Y-5540652D01*
X24306172Y-5540652D01*
X24306172Y-5540652D02*
X24306172Y-5416908D01*
X24182428Y-5416908D01*
X24182428Y-5540652D01*
X24306172Y-5540652D01*
X24550647Y-1255672D02*
X24550647Y-1131928D01*
X24426903Y-1131928D01*
X24426903Y-1255672D01*
X24550647Y-1255672D01*
X24550647Y-1255672D02*
X24550647Y-1131928D01*
X24426903Y-1131928D01*
X24426903Y-1255672D01*
X24550647Y-1255672D01*
X24725272Y4941928D02*
X24725272Y5065672D01*
X24601528Y5065672D01*
X24601528Y4941928D01*
X24725272Y4941928D01*
X24725272Y4941928D02*
X24725272Y5065672D01*
X24601528Y5065672D01*
X24601528Y4941928D01*
X24725272Y4941928D01*
X24725272Y2554328D02*
X24725272Y2678072D01*
X24601528Y2678072D01*
X24601528Y2554328D01*
X24725272Y2554328D01*
X24788772Y2554328D02*
X24788772Y2678072D01*
X24665028Y2678072D01*
X24665028Y2554328D01*
X24788772Y2554328D01*
X24788772Y2554328D02*
X24788772Y2678072D01*
X24665028Y2678072D01*
X24665028Y2554328D01*
X24788772Y2554328D01*
X25195172Y-3635652D02*
X25195172Y-3511908D01*
X25071428Y-3511908D01*
X25071428Y-3635652D01*
X25195172Y-3635652D01*
X25195172Y-3635652D02*
X25195172Y-3511908D01*
X25071428Y-3511908D01*
X25071428Y-3635652D01*
X25195172Y-3635652D01*
X25195172Y-5540652D02*
X25195172Y-5416908D01*
X25071428Y-5416908D01*
X25071428Y-5540652D01*
X25195172Y-5540652D01*
X25195172Y-5540652D02*
X25195172Y-5416908D01*
X25071428Y-5416908D01*
X25071428Y-5540652D01*
X25195172Y-5540652D01*
X25265022Y649328D02*
X25265022Y773072D01*
X25141278Y773072D01*
X25141278Y649328D01*
X25265022Y649328D01*
X25265022Y649328D02*
X25265022Y773072D01*
X25141278Y773072D01*
X25141278Y649328D01*
X25265022Y649328D01*
X25741272Y4941928D02*
X25741272Y5065672D01*
X25617528Y5065672D01*
X25617528Y4941928D01*
X25741272Y4941928D01*
X25741272Y4941928D02*
X25741272Y5065672D01*
X25617528Y5065672D01*
X25617528Y4941928D01*
X25741272Y4941928D01*
X25741272Y2554328D02*
X25741272Y2678072D01*
X25617528Y2678072D01*
X25617528Y2554328D01*
X25741272Y2554328D01*
X26211172Y-3635652D02*
X26211172Y-3511908D01*
X26087428Y-3511908D01*
X26087428Y-3635652D01*
X26211172Y-3635652D01*
X26211172Y-3635652D02*
X26211172Y-3511908D01*
X26087428Y-3511908D01*
X26087428Y-3635652D01*
X26211172Y-3635652D01*
X26211172Y-5540652D02*
X26211172Y-5416908D01*
X26087428Y-5416908D01*
X26087428Y-5540652D01*
X26211172Y-5540652D01*
X26211172Y-5540652D02*
X26211172Y-5416908D01*
X26087428Y-5416908D01*
X26087428Y-5540652D01*
X26211172Y-5540652D01*
X27100172Y-5540652D02*
X27100172Y-5416908D01*
X26976428Y-5416908D01*
X26976428Y-5540652D01*
X27100172Y-5540652D01*
X27100172Y-5540652D02*
X27100172Y-5416908D01*
X26976428Y-5416908D01*
X26976428Y-5540652D01*
X27100172Y-5540652D01*
X27582772Y4941928D02*
X27582772Y5065672D01*
X27459028Y5065672D01*
X27459028Y4941928D01*
X27582772Y4941928D01*
X27582772Y4941928D02*
X27582772Y5065672D01*
X27459028Y5065672D01*
X27459028Y4941928D01*
X27582772Y4941928D01*
X27582772Y2554328D02*
X27582772Y2678072D01*
X27459028Y2678072D01*
X27459028Y2554328D01*
X27582772Y2554328D01*
X27582772Y2554328D02*
X27582772Y2678072D01*
X27459028Y2678072D01*
X27459028Y2554328D01*
X27582772Y2554328D01*
X27582772Y649328D02*
X27582772Y773072D01*
X27459028Y773072D01*
X27459028Y649328D01*
X27582772Y649328D01*
X27582772Y649328D02*
X27582772Y773072D01*
X27459028Y773072D01*
X27459028Y649328D01*
X27582772Y649328D01*
X27582772Y-1255672D02*
X27582772Y-1131928D01*
X27459028Y-1131928D01*
X27459028Y-1255672D01*
X27582772Y-1255672D01*
X27582772Y-1255672D02*
X27582772Y-1131928D01*
X27459028Y-1131928D01*
X27459028Y-1255672D01*
X27582772Y-1255672D01*
X27582772Y-3160672D02*
X27582772Y-3036928D01*
X27459028Y-3036928D01*
X27459028Y-3160672D01*
X27582772Y-3160672D01*
X27582772Y-3160672D02*
X27582772Y-3036928D01*
X27459028Y-3036928D01*
X27459028Y-3160672D01*
X27582772Y-3160672D01*
X28116172Y-5540652D02*
X28116172Y-5416908D01*
X27992428Y-5416908D01*
X27992428Y-5540652D01*
X28116172Y-5540652D01*
X28116172Y-5540652D02*
X28116172Y-5416908D01*
X27992428Y-5416908D01*
X27992428Y-5540652D01*
X28116172Y-5540652D01*
X28598772Y4941928D02*
X28598772Y5065672D01*
X28475028Y5065672D01*
X28475028Y4941928D01*
X28598772Y4941928D01*
X28598772Y4941928D02*
X28598772Y5065672D01*
X28475028Y5065672D01*
X28475028Y4941928D01*
X28598772Y4941928D01*
X28598772Y2554328D02*
X28598772Y2678072D01*
X28475028Y2678072D01*
X28475028Y2554328D01*
X28598772Y2554328D01*
X28598772Y2554328D02*
X28598772Y2678072D01*
X28475028Y2678072D01*
X28475028Y2554328D01*
X28598772Y2554328D01*
X28598772Y649328D02*
X28598772Y773072D01*
X28475028Y773072D01*
X28475028Y649328D01*
X28598772Y649328D01*
X28598772Y649328D02*
X28598772Y773072D01*
X28475028Y773072D01*
X28475028Y649328D01*
X28598772Y649328D01*
X28598772Y-1255672D02*
X28598772Y-1131928D01*
X28475028Y-1131928D01*
X28475028Y-1255672D01*
X28598772Y-1255672D01*
X28598772Y-1255672D02*
X28598772Y-1131928D01*
X28475028Y-1131928D01*
X28475028Y-1255672D01*
X28598772Y-1255672D01*
X28598772Y-3160672D02*
X28598772Y-3036928D01*
X28475028Y-3036928D01*
X28475028Y-3160672D01*
X28598772Y-3160672D01*
X28598772Y-3160672D02*
X28598772Y-3036928D01*
X28475028Y-3036928D01*
X28475028Y-3160672D01*
X28598772Y-3160672D01*
D16*
X-8425180Y55740D02*
X-8275180Y205740D01*
X-8425180Y355740D01*
X-8575180Y205740D01*
X-8425180Y55740D01*
X-8425180Y-1849260D02*
X-8275180Y-1699260D01*
X-8425180Y-1549260D01*
X-8575180Y-1699260D01*
X-8425180Y-1849260D01*
X-8425180Y-3754260D02*
X-8275180Y-3604260D01*
X-8425180Y-3454260D01*
X-8575180Y-3604260D01*
X-8425180Y-3754260D01*
X-8425180Y-5659260D02*
X-8275180Y-5509260D01*
X-8425180Y-5359260D01*
X-8575180Y-5509260D01*
X-8425180Y-5659260D01*
X-7790180Y309740D02*
X-7640180Y459740D01*
X-7790180Y609740D01*
X-7940180Y459740D01*
X-7790180Y309740D01*
X-7790180Y-1595260D02*
X-7640180Y-1445260D01*
X-7790180Y-1295260D01*
X-7940180Y-1445260D01*
X-7790180Y-1595260D01*
X-7790180Y-3500260D02*
X-7640180Y-3350260D01*
X-7790180Y-3200260D01*
X-7940180Y-3350260D01*
X-7790180Y-3500260D01*
X-7790180Y-5405260D02*
X-7640180Y-5255260D01*
X-7790180Y-5105260D01*
X-7940180Y-5255260D01*
X-7790180Y-5405260D01*
X-6520180Y55740D02*
X-6370180Y205740D01*
X-6520180Y355740D01*
X-6670180Y205740D01*
X-6520180Y55740D01*
X-6520180Y-1849260D02*
X-6370180Y-1699260D01*
X-6520180Y-1549260D01*
X-6670180Y-1699260D01*
X-6520180Y-1849260D01*
X-6520180Y-3754260D02*
X-6370180Y-3604260D01*
X-6520180Y-3454260D01*
X-6670180Y-3604260D01*
X-6520180Y-3754260D01*
X-6520180Y-5659260D02*
X-6370180Y-5509260D01*
X-6520180Y-5359260D01*
X-6670180Y-5509260D01*
X-6520180Y-5659260D01*
X-5885180Y309740D02*
X-5735180Y459740D01*
X-5885180Y609740D01*
X-6035180Y459740D01*
X-5885180Y309740D01*
X-5885180Y-1595260D02*
X-5735180Y-1445260D01*
X-5885180Y-1295260D01*
X-6035180Y-1445260D01*
X-5885180Y-1595260D01*
X-5885180Y-3500260D02*
X-5735180Y-3350260D01*
X-5885180Y-3200260D01*
X-6035180Y-3350260D01*
X-5885180Y-3500260D01*
X-5885180Y-5405260D02*
X-5735180Y-5255260D01*
X-5885180Y-5105260D01*
X-6035180Y-5255260D01*
X-5885180Y-5405260D01*
X-3662680Y4341990D02*
X-3512680Y4491990D01*
X-3662680Y4641990D01*
X-3812680Y4491990D01*
X-3662680Y4341990D01*
X-3662680Y1960740D02*
X-3512680Y2110740D01*
X-3662680Y2260740D01*
X-3812680Y2110740D01*
X-3662680Y1960740D01*
X-3186430Y55740D02*
X-3036430Y205740D01*
X-3186430Y355740D01*
X-3336430Y205740D01*
X-3186430Y55740D01*
X-3186430Y-5659260D02*
X-3036430Y-5509260D01*
X-3186430Y-5359260D01*
X-3336430Y-5509260D01*
X-3186430Y-5659260D01*
X-3027680Y4595990D02*
X-2877680Y4745990D01*
X-3027680Y4895990D01*
X-3177680Y4745990D01*
X-3027680Y4595990D01*
X-3027680Y2214740D02*
X-2877680Y2364740D01*
X-3027680Y2514740D01*
X-3177680Y2364740D01*
X-3027680Y2214740D01*
X-2948305Y-1849260D02*
X-2798305Y-1699260D01*
X-2948305Y-1549260D01*
X-3098305Y-1699260D01*
X-2948305Y-1849260D01*
X-2551430Y309740D02*
X-2401430Y459740D01*
X-2551430Y609740D01*
X-2701430Y459740D01*
X-2551430Y309740D01*
X-2551430Y-5405260D02*
X-2401430Y-5255260D01*
X-2551430Y-5105260D01*
X-2701430Y-5255260D01*
X-2551430Y-5405260D01*
X-2472055Y-3754260D02*
X-2322055Y-3604260D01*
X-2472055Y-3454260D01*
X-2622055Y-3604260D01*
X-2472055Y-3754260D01*
X-2313305Y-1595260D02*
X-2163305Y-1445260D01*
X-2313305Y-1295260D01*
X-2463305Y-1445260D01*
X-2313305Y-1595260D01*
X-1837055Y-3500260D02*
X-1687055Y-3350260D01*
X-1837055Y-3200260D01*
X-1987055Y-3350260D01*
X-1837055Y-3500260D01*
X-1757680Y1960740D02*
X-1607680Y2110740D01*
X-1757680Y2260740D01*
X-1907680Y2110740D01*
X-1757680Y1960740D01*
X-1281430Y4341990D02*
X-1131430Y4491990D01*
X-1281430Y4641990D01*
X-1431430Y4491990D01*
X-1281430Y4341990D01*
X-1122680Y2214740D02*
X-972680Y2364740D01*
X-1122680Y2514740D01*
X-1272680Y2364740D01*
X-1122680Y2214740D01*
X-805180Y55740D02*
X-655180Y205740D01*
X-805180Y355740D01*
X-955180Y205740D01*
X-805180Y55740D01*
X-805180Y-5659260D02*
X-655180Y-5509260D01*
X-805180Y-5359260D01*
X-955180Y-5509260D01*
X-805180Y-5659260D01*
X-646430Y4595990D02*
X-496430Y4745990D01*
X-646430Y4895990D01*
X-796430Y4745990D01*
X-646430Y4595990D01*
X-328930Y-1849260D02*
X-178930Y-1699260D01*
X-328930Y-1549260D01*
X-478930Y-1699260D01*
X-328930Y-1849260D01*
X-170180Y309740D02*
X-20180Y459740D01*
X-170180Y609740D01*
X-320180Y459740D01*
X-170180Y309740D01*
X-170180Y-5405260D02*
X-20180Y-5255260D01*
X-170180Y-5105260D01*
X-320180Y-5255260D01*
X-170180Y-5405260D01*
X147320Y1960740D02*
X297320Y2110740D01*
X147320Y2260740D01*
X-2680Y2110740D01*
X147320Y1960740D01*
X306070Y-1595260D02*
X456070Y-1445260D01*
X306070Y-1295260D01*
X156070Y-1445260D01*
X306070Y-1595260D01*
X623570Y4341990D02*
X773570Y4491990D01*
X623570Y4641990D01*
X473570Y4491990D01*
X623570Y4341990D01*
X623570Y-3754260D02*
X773570Y-3604260D01*
X623570Y-3454260D01*
X473570Y-3604260D01*
X623570Y-3754260D01*
X782320Y2214740D02*
X932320Y2364740D01*
X782320Y2514740D01*
X632320Y2364740D01*
X782320Y2214740D01*
X1099820Y55740D02*
X1249820Y205740D01*
X1099820Y355740D01*
X949820Y205740D01*
X1099820Y55740D01*
X1258570Y4595990D02*
X1408570Y4745990D01*
X1258570Y4895990D01*
X1108570Y4745990D01*
X1258570Y4595990D01*
X1258570Y-3500260D02*
X1408570Y-3350260D01*
X1258570Y-3200260D01*
X1108570Y-3350260D01*
X1258570Y-3500260D01*
X1576070Y-1849260D02*
X1726070Y-1699260D01*
X1576070Y-1549260D01*
X1426070Y-1699260D01*
X1576070Y-1849260D01*
X1576070Y-5659260D02*
X1726070Y-5509260D01*
X1576070Y-5359260D01*
X1426070Y-5509260D01*
X1576070Y-5659260D01*
X1734820Y309740D02*
X1884820Y459740D01*
X1734820Y609740D01*
X1584820Y459740D01*
X1734820Y309740D01*
X2052320Y1960740D02*
X2202320Y2110740D01*
X2052320Y2260740D01*
X1902320Y2110740D01*
X2052320Y1960740D01*
X2211070Y-1595260D02*
X2361070Y-1445260D01*
X2211070Y-1295260D01*
X2061070Y-1445260D01*
X2211070Y-1595260D01*
X2211070Y-5405260D02*
X2361070Y-5255260D01*
X2211070Y-5105260D01*
X2061070Y-5255260D01*
X2211070Y-5405260D01*
X2528570Y4341990D02*
X2678570Y4491990D01*
X2528570Y4641990D01*
X2378570Y4491990D01*
X2528570Y4341990D01*
X2528570Y-3754260D02*
X2678570Y-3604260D01*
X2528570Y-3454260D01*
X2378570Y-3604260D01*
X2528570Y-3754260D01*
X2687320Y2214740D02*
X2837320Y2364740D01*
X2687320Y2514740D01*
X2537320Y2364740D01*
X2687320Y2214740D01*
X3004820Y55740D02*
X3154820Y205740D01*
X3004820Y355740D01*
X2854820Y205740D01*
X3004820Y55740D01*
X3163570Y4595990D02*
X3313570Y4745990D01*
X3163570Y4895990D01*
X3013570Y4745990D01*
X3163570Y4595990D01*
X3163570Y-3500260D02*
X3313570Y-3350260D01*
X3163570Y-3200260D01*
X3013570Y-3350260D01*
X3163570Y-3500260D01*
X3481070Y-1849260D02*
X3631070Y-1699260D01*
X3481070Y-1549260D01*
X3331070Y-1699260D01*
X3481070Y-1849260D01*
X3639820Y309740D02*
X3789820Y459740D01*
X3639820Y609740D01*
X3489820Y459740D01*
X3639820Y309740D01*
X3957320Y1960740D02*
X4107320Y2110740D01*
X3957320Y2260740D01*
X3807320Y2110740D01*
X3957320Y1960740D01*
X4116070Y-1595260D02*
X4266070Y-1445260D01*
X4116070Y-1295260D01*
X3966070Y-1445260D01*
X4116070Y-1595260D01*
X4433570Y4341990D02*
X4583570Y4491990D01*
X4433570Y4641990D01*
X4283570Y4491990D01*
X4433570Y4341990D01*
X4433570Y-3754260D02*
X4583570Y-3604260D01*
X4433570Y-3454260D01*
X4283570Y-3604260D01*
X4433570Y-3754260D01*
X4592320Y2214740D02*
X4742320Y2364740D01*
X4592320Y2514740D01*
X4442320Y2364740D01*
X4592320Y2214740D01*
X4909820Y55740D02*
X5059820Y205740D01*
X4909820Y355740D01*
X4759820Y205740D01*
X4909820Y55740D01*
X5068570Y4595990D02*
X5218570Y4745990D01*
X5068570Y4895990D01*
X4918570Y4745990D01*
X5068570Y4595990D01*
X5068570Y-3500260D02*
X5218570Y-3350260D01*
X5068570Y-3200260D01*
X4918570Y-3350260D01*
X5068570Y-3500260D01*
X5386070Y-1849260D02*
X5536070Y-1699260D01*
X5386070Y-1549260D01*
X5236070Y-1699260D01*
X5386070Y-1849260D01*
X5544820Y309740D02*
X5694820Y459740D01*
X5544820Y609740D01*
X5394820Y459740D01*
X5544820Y309740D01*
X5862320Y1960740D02*
X6012320Y2110740D01*
X5862320Y2260740D01*
X5712320Y2110740D01*
X5862320Y1960740D01*
X5862320Y-5659260D02*
X6012320Y-5509260D01*
X5862320Y-5359260D01*
X5712320Y-5509260D01*
X5862320Y-5659260D01*
X6021070Y-1595260D02*
X6171070Y-1445260D01*
X6021070Y-1295260D01*
X5871070Y-1445260D01*
X6021070Y-1595260D01*
X6338570Y-3754260D02*
X6488570Y-3604260D01*
X6338570Y-3454260D01*
X6188570Y-3604260D01*
X6338570Y-3754260D01*
X6497320Y2214740D02*
X6647320Y2364740D01*
X6497320Y2514740D01*
X6347320Y2364740D01*
X6497320Y2214740D01*
X6497320Y-5405260D02*
X6647320Y-5255260D01*
X6497320Y-5105260D01*
X6347320Y-5255260D01*
X6497320Y-5405260D01*
X6814820Y4341990D02*
X6964820Y4491990D01*
X6814820Y4641990D01*
X6664820Y4491990D01*
X6814820Y4341990D01*
X6814820Y55740D02*
X6964820Y205740D01*
X6814820Y355740D01*
X6664820Y205740D01*
X6814820Y55740D01*
X6973570Y-3500260D02*
X7123570Y-3350260D01*
X6973570Y-3200260D01*
X6823570Y-3350260D01*
X6973570Y-3500260D01*
X7291070Y-1849260D02*
X7441070Y-1699260D01*
X7291070Y-1549260D01*
X7141070Y-1699260D01*
X7291070Y-1849260D01*
X7449820Y4595990D02*
X7599820Y4745990D01*
X7449820Y4895990D01*
X7299820Y4745990D01*
X7449820Y4595990D01*
X7449820Y309740D02*
X7599820Y459740D01*
X7449820Y609740D01*
X7299820Y459740D01*
X7449820Y309740D01*
X7767320Y1960740D02*
X7917320Y2110740D01*
X7767320Y2260740D01*
X7617320Y2110740D01*
X7767320Y1960740D01*
X7926070Y-1595260D02*
X8076070Y-1445260D01*
X7926070Y-1295260D01*
X7776070Y-1445260D01*
X7926070Y-1595260D01*
X8243570Y-3754260D02*
X8393570Y-3604260D01*
X8243570Y-3454260D01*
X8093570Y-3604260D01*
X8243570Y-3754260D01*
X8402320Y2214740D02*
X8552320Y2364740D01*
X8402320Y2514740D01*
X8252320Y2364740D01*
X8402320Y2214740D01*
X8719820Y4341990D02*
X8869820Y4491990D01*
X8719820Y4641990D01*
X8569820Y4491990D01*
X8719820Y4341990D01*
X8878570Y-3500260D02*
X9028570Y-3350260D01*
X8878570Y-3200260D01*
X8728570Y-3350260D01*
X8878570Y-3500260D01*
X9354820Y4595990D02*
X9504820Y4745990D01*
X9354820Y4895990D01*
X9204820Y4745990D01*
X9354820Y4595990D01*
X10629900Y53200D02*
X10779900Y203200D01*
X10629900Y353200D01*
X10479900Y203200D01*
X10629900Y53200D01*
X11106150Y-1851800D02*
X11256150Y-1701800D01*
X11106150Y-1551800D01*
X10956150Y-1701800D01*
X11106150Y-1851800D01*
X11264900Y307200D02*
X11414900Y457200D01*
X11264900Y607200D01*
X11114900Y457200D01*
X11264900Y307200D01*
X11582400Y1958200D02*
X11732400Y2108200D01*
X11582400Y2258200D01*
X11432400Y2108200D01*
X11582400Y1958200D01*
X11741150Y-1597800D02*
X11891150Y-1447800D01*
X11741150Y-1297800D01*
X11591150Y-1447800D01*
X11741150Y-1597800D01*
X12058650Y-3756800D02*
X12208650Y-3606800D01*
X12058650Y-3456800D01*
X11908650Y-3606800D01*
X12058650Y-3756800D01*
X12217400Y2212200D02*
X12367400Y2362200D01*
X12217400Y2512200D01*
X12067400Y2362200D01*
X12217400Y2212200D01*
X12534900Y4345800D02*
X12684900Y4495800D01*
X12534900Y4645800D01*
X12384900Y4495800D01*
X12534900Y4345800D01*
X12534900Y53200D02*
X12684900Y203200D01*
X12534900Y353200D01*
X12384900Y203200D01*
X12534900Y53200D01*
X12693650Y-3502800D02*
X12843650Y-3352800D01*
X12693650Y-3202800D01*
X12543650Y-3352800D01*
X12693650Y-3502800D01*
X13011150Y-1851800D02*
X13161150Y-1701800D01*
X13011150Y-1551800D01*
X12861150Y-1701800D01*
X13011150Y-1851800D01*
X13169900Y4599800D02*
X13319900Y4749800D01*
X13169900Y4899800D01*
X13019900Y4749800D01*
X13169900Y4599800D01*
X13169900Y307200D02*
X13319900Y457200D01*
X13169900Y607200D01*
X13019900Y457200D01*
X13169900Y307200D01*
X13487400Y1958200D02*
X13637400Y2108200D01*
X13487400Y2258200D01*
X13337400Y2108200D01*
X13487400Y1958200D01*
X13487400Y-5661800D02*
X13637400Y-5511800D01*
X13487400Y-5361800D01*
X13337400Y-5511800D01*
X13487400Y-5661800D01*
X13646150Y-1597800D02*
X13796150Y-1447800D01*
X13646150Y-1297800D01*
X13496150Y-1447800D01*
X13646150Y-1597800D01*
X13963650Y-3756800D02*
X14113650Y-3606800D01*
X13963650Y-3456800D01*
X13813650Y-3606800D01*
X13963650Y-3756800D01*
X14122400Y2212200D02*
X14272400Y2362200D01*
X14122400Y2512200D01*
X13972400Y2362200D01*
X14122400Y2212200D01*
X14122400Y-5407800D02*
X14272400Y-5257800D01*
X14122400Y-5107800D01*
X13972400Y-5257800D01*
X14122400Y-5407800D01*
X14439900Y4345800D02*
X14589900Y4495800D01*
X14439900Y4645800D01*
X14289900Y4495800D01*
X14439900Y4345800D01*
X14439900Y53200D02*
X14589900Y203200D01*
X14439900Y353200D01*
X14289900Y203200D01*
X14439900Y53200D01*
X14598650Y-3502800D02*
X14748650Y-3352800D01*
X14598650Y-3202800D01*
X14448650Y-3352800D01*
X14598650Y-3502800D01*
X14916150Y-1851800D02*
X15066150Y-1701800D01*
X14916150Y-1551800D01*
X14766150Y-1701800D01*
X14916150Y-1851800D01*
X15074900Y4599800D02*
X15224900Y4749800D01*
X15074900Y4899800D01*
X14924900Y4749800D01*
X15074900Y4599800D01*
X15074900Y307200D02*
X15224900Y457200D01*
X15074900Y607200D01*
X14924900Y457200D01*
X15074900Y307200D01*
X15392400Y1958200D02*
X15542400Y2108200D01*
X15392400Y2258200D01*
X15242400Y2108200D01*
X15392400Y1958200D01*
X15551150Y-1597800D02*
X15701150Y-1447800D01*
X15551150Y-1297800D01*
X15401150Y-1447800D01*
X15551150Y-1597800D01*
X15868650Y-3756800D02*
X16018650Y-3606800D01*
X15868650Y-3456800D01*
X15718650Y-3606800D01*
X15868650Y-3756800D01*
X16027400Y2212200D02*
X16177400Y2362200D01*
X16027400Y2512200D01*
X15877400Y2362200D01*
X16027400Y2212200D01*
X16344900Y53200D02*
X16494900Y203200D01*
X16344900Y353200D01*
X16194900Y203200D01*
X16344900Y53200D01*
X16503650Y-3502800D02*
X16653650Y-3352800D01*
X16503650Y-3202800D01*
X16353650Y-3352800D01*
X16503650Y-3502800D01*
X16821150Y4345800D02*
X16971150Y4495800D01*
X16821150Y4645800D01*
X16671150Y4495800D01*
X16821150Y4345800D01*
X16821150Y-1851800D02*
X16971150Y-1701800D01*
X16821150Y-1551800D01*
X16671150Y-1701800D01*
X16821150Y-1851800D01*
X16979900Y307200D02*
X17129900Y457200D01*
X16979900Y607200D01*
X16829900Y457200D01*
X16979900Y307200D01*
X17297400Y1958200D02*
X17447400Y2108200D01*
X17297400Y2258200D01*
X17147400Y2108200D01*
X17297400Y1958200D01*
X17297400Y-5661800D02*
X17447400Y-5511800D01*
X17297400Y-5361800D01*
X17147400Y-5511800D01*
X17297400Y-5661800D01*
X17456150Y4599800D02*
X17606150Y4749800D01*
X17456150Y4899800D01*
X17306150Y4749800D01*
X17456150Y4599800D01*
X17456150Y-1597800D02*
X17606150Y-1447800D01*
X17456150Y-1297800D01*
X17306150Y-1447800D01*
X17456150Y-1597800D01*
X17773650Y-3756800D02*
X17923650Y-3606800D01*
X17773650Y-3456800D01*
X17623650Y-3606800D01*
X17773650Y-3756800D01*
X17932400Y2212200D02*
X18082400Y2362200D01*
X17932400Y2512200D01*
X17782400Y2362200D01*
X17932400Y2212200D01*
X17932400Y-5407800D02*
X18082400Y-5257800D01*
X17932400Y-5107800D01*
X17782400Y-5257800D01*
X17932400Y-5407800D01*
X18249900Y53200D02*
X18399900Y203200D01*
X18249900Y353200D01*
X18099900Y203200D01*
X18249900Y53200D01*
X18408650Y-3502800D02*
X18558650Y-3352800D01*
X18408650Y-3202800D01*
X18258650Y-3352800D01*
X18408650Y-3502800D01*
X18726150Y4345800D02*
X18876150Y4495800D01*
X18726150Y4645800D01*
X18576150Y4495800D01*
X18726150Y4345800D01*
X18726150Y-1851800D02*
X18876150Y-1701800D01*
X18726150Y-1551800D01*
X18576150Y-1701800D01*
X18726150Y-1851800D01*
X18884900Y307200D02*
X19034900Y457200D01*
X18884900Y607200D01*
X18734900Y457200D01*
X18884900Y307200D01*
X19202400Y1958200D02*
X19352400Y2108200D01*
X19202400Y2258200D01*
X19052400Y2108200D01*
X19202400Y1958200D01*
X19202400Y-5661800D02*
X19352400Y-5511800D01*
X19202400Y-5361800D01*
X19052400Y-5511800D01*
X19202400Y-5661800D01*
X19361150Y4599800D02*
X19511150Y4749800D01*
X19361150Y4899800D01*
X19211150Y4749800D01*
X19361150Y4599800D01*
X19361150Y-1597800D02*
X19511150Y-1447800D01*
X19361150Y-1297800D01*
X19211150Y-1447800D01*
X19361150Y-1597800D01*
X19678650Y-3756800D02*
X19828650Y-3606800D01*
X19678650Y-3456800D01*
X19528650Y-3606800D01*
X19678650Y-3756800D01*
X19837400Y2212200D02*
X19987400Y2362200D01*
X19837400Y2512200D01*
X19687400Y2362200D01*
X19837400Y2212200D01*
X19837400Y-5407800D02*
X19987400Y-5257800D01*
X19837400Y-5107800D01*
X19687400Y-5257800D01*
X19837400Y-5407800D01*
X20154900Y53200D02*
X20304900Y203200D01*
X20154900Y353200D01*
X20004900Y203200D01*
X20154900Y53200D01*
X20313650Y-3502800D02*
X20463650Y-3352800D01*
X20313650Y-3202800D01*
X20163650Y-3352800D01*
X20313650Y-3502800D01*
X20631150Y4345800D02*
X20781150Y4495800D01*
X20631150Y4645800D01*
X20481150Y4495800D01*
X20631150Y4345800D01*
X20631150Y-1851800D02*
X20781150Y-1701800D01*
X20631150Y-1551800D01*
X20481150Y-1701800D01*
X20631150Y-1851800D01*
X20789900Y307200D02*
X20939900Y457200D01*
X20789900Y607200D01*
X20639900Y457200D01*
X20789900Y307200D01*
X21107400Y1958200D02*
X21257400Y2108200D01*
X21107400Y2258200D01*
X20957400Y2108200D01*
X21107400Y1958200D01*
X21107400Y-5661800D02*
X21257400Y-5511800D01*
X21107400Y-5361800D01*
X20957400Y-5511800D01*
X21107400Y-5661800D01*
X21266150Y4599800D02*
X21416150Y4749800D01*
X21266150Y4899800D01*
X21116150Y4749800D01*
X21266150Y4599800D01*
X21266150Y-1597800D02*
X21416150Y-1447800D01*
X21266150Y-1297800D01*
X21116150Y-1447800D01*
X21266150Y-1597800D01*
X21742400Y2212200D02*
X21892400Y2362200D01*
X21742400Y2512200D01*
X21592400Y2362200D01*
X21742400Y2212200D01*
X21742400Y-5407800D02*
X21892400Y-5257800D01*
X21742400Y-5107800D01*
X21592400Y-5257800D01*
X21742400Y-5407800D01*
X22059900Y53200D02*
X22209900Y203200D01*
X22059900Y353200D01*
X21909900Y203200D01*
X22059900Y53200D01*
X22298025Y-3756800D02*
X22448025Y-3606800D01*
X22298025Y-3456800D01*
X22148025Y-3606800D01*
X22298025Y-3756800D01*
X22536150Y4345800D02*
X22686150Y4495800D01*
X22536150Y4645800D01*
X22386150Y4495800D01*
X22536150Y4345800D01*
X22694900Y307200D02*
X22844900Y457200D01*
X22694900Y607200D01*
X22544900Y457200D01*
X22694900Y307200D01*
X22933025Y-3502800D02*
X23083025Y-3352800D01*
X22933025Y-3202800D01*
X22783025Y-3352800D01*
X22933025Y-3502800D01*
X23171150Y4599800D02*
X23321150Y4749800D01*
X23171150Y4899800D01*
X23021150Y4749800D01*
X23171150Y4599800D01*
X23482300Y-6136780D02*
X23632300Y-5986780D01*
X23482300Y-5836780D01*
X23332300Y-5986780D01*
X23482300Y-6136780D01*
X23726775Y-1851800D02*
X23876775Y-1701800D01*
X23726775Y-1551800D01*
X23576775Y-1701800D01*
X23726775Y-1851800D01*
X23964900Y1958200D02*
X24114900Y2108200D01*
X23964900Y2258200D01*
X23814900Y2108200D01*
X23964900Y1958200D01*
X24117300Y-5882780D02*
X24267300Y-5732780D01*
X24117300Y-5582780D01*
X23967300Y-5732780D01*
X24117300Y-5882780D01*
X24361775Y-1597800D02*
X24511775Y-1447800D01*
X24361775Y-1297800D01*
X24211775Y-1447800D01*
X24361775Y-1597800D01*
X24441150Y53200D02*
X24591150Y203200D01*
X24441150Y353200D01*
X24291150Y203200D01*
X24441150Y53200D01*
X24599900Y2212200D02*
X24749900Y2362200D01*
X24599900Y2512200D01*
X24449900Y2362200D01*
X24599900Y2212200D01*
X24917400Y4345800D02*
X25067400Y4495800D01*
X24917400Y4645800D01*
X24767400Y4495800D01*
X24917400Y4345800D01*
X25076150Y307200D02*
X25226150Y457200D01*
X25076150Y607200D01*
X24926150Y457200D01*
X25076150Y307200D01*
X25387300Y-4231780D02*
X25537300Y-4081780D01*
X25387300Y-3931780D01*
X25237300Y-4081780D01*
X25387300Y-4231780D01*
X25387300Y-6136780D02*
X25537300Y-5986780D01*
X25387300Y-5836780D01*
X25237300Y-5986780D01*
X25387300Y-6136780D01*
X25552400Y4599800D02*
X25702400Y4749800D01*
X25552400Y4899800D01*
X25402400Y4749800D01*
X25552400Y4599800D01*
X26022300Y-3977780D02*
X26172300Y-3827780D01*
X26022300Y-3677780D01*
X25872300Y-3827780D01*
X26022300Y-3977780D01*
X26022300Y-5882780D02*
X26172300Y-5732780D01*
X26022300Y-5582780D01*
X25872300Y-5732780D01*
X26022300Y-5882780D01*
X27292300Y-6136780D02*
X27442300Y-5986780D01*
X27292300Y-5836780D01*
X27142300Y-5986780D01*
X27292300Y-6136780D01*
X27774900Y4345800D02*
X27924900Y4495800D01*
X27774900Y4645800D01*
X27624900Y4495800D01*
X27774900Y4345800D01*
X27774900Y1958200D02*
X27924900Y2108200D01*
X27774900Y2258200D01*
X27624900Y2108200D01*
X27774900Y1958200D01*
X27774900Y53200D02*
X27924900Y203200D01*
X27774900Y353200D01*
X27624900Y203200D01*
X27774900Y53200D01*
X27774900Y-1851800D02*
X27924900Y-1701800D01*
X27774900Y-1551800D01*
X27624900Y-1701800D01*
X27774900Y-1851800D01*
X27774900Y-3756800D02*
X27924900Y-3606800D01*
X27774900Y-3456800D01*
X27624900Y-3606800D01*
X27774900Y-3756800D01*
X27927300Y-5882780D02*
X28077300Y-5732780D01*
X27927300Y-5582780D01*
X27777300Y-5732780D01*
X27927300Y-5882780D01*
X28409900Y4599800D02*
X28559900Y4749800D01*
X28409900Y4899800D01*
X28259900Y4749800D01*
X28409900Y4599800D01*
X28409900Y2212200D02*
X28559900Y2362200D01*
X28409900Y2512200D01*
X28259900Y2362200D01*
X28409900Y2212200D01*
X28409900Y307200D02*
X28559900Y457200D01*
X28409900Y607200D01*
X28259900Y457200D01*
X28409900Y307200D01*
X28409900Y-1597800D02*
X28559900Y-1447800D01*
X28409900Y-1297800D01*
X28259900Y-1447800D01*
X28409900Y-1597800D01*
X28409900Y-3502800D02*
X28559900Y-3352800D01*
X28409900Y-3202800D01*
X28259900Y-3352800D01*
X28409900Y-3502800D01*
D17*
X-3564255Y-3642360D02*
X-3259455Y-3947160D01*
X-3259455Y-3642360D02*
X-3564255Y-3947160D01*
X-3259455Y-3794760D02*
G75*
G03*
X-3259455Y-3794760I-152400J0D01*
G01*
X-3561080Y-2245360D02*
X-3256280Y-2550160D01*
X-3256280Y-2245360D02*
X-3561080Y-2550160D01*
X-3256280Y-2397760D02*
G75*
G03*
X-3256280Y-2397760I-152400J0D01*
G01*
X-1179830Y-2245360D02*
X-875030Y-2550160D01*
X-875030Y-2245360D02*
X-1179830Y-2550160D01*
X-875030Y-2397760D02*
G75*
G03*
X-875030Y-2397760I-152400J0D01*
G01*
X-1176655Y-3642360D02*
X-871855Y-3947160D01*
X-871855Y-3642360D02*
X-1176655Y-3947160D01*
X-871855Y-3794760D02*
G75*
G03*
X-871855Y-3794760I-152400J0D01*
G01*
X4058920Y-5547360D02*
X4363720Y-5852160D01*
X4363720Y-5547360D02*
X4058920Y-5852160D01*
X4363720Y-5699760D02*
G75*
G03*
X4363720Y-5699760I-152400J0D01*
G01*
X7868920Y-5547360D02*
X8173720Y-5852160D01*
X8173720Y-5547360D02*
X7868920Y-5852160D01*
X8173720Y-5699760D02*
G75*
G03*
X8173720Y-5699760I-152400J0D01*
G01*
X11684000Y-5549900D02*
X11988800Y-5854700D01*
X11988800Y-5549900D02*
X11684000Y-5854700D01*
X11988800Y-5702300D02*
G75*
G03*
X11988800Y-5702300I-152400J0D01*
G01*
X15494000Y-5549900D02*
X15798800Y-5854700D01*
X15798800Y-5549900D02*
X15494000Y-5854700D01*
X15798800Y-5702300D02*
G75*
G03*
X15798800Y-5702300I-152400J0D01*
G01*
X22634575Y-1739900D02*
X22939375Y-2044700D01*
X22939375Y-1739900D02*
X22634575Y-2044700D01*
X22939375Y-1892300D02*
G75*
G03*
X22939375Y-1892300I-152400J0D01*
G01*
X22637750Y-342900D02*
X22942550Y-647700D01*
X22942550Y-342900D02*
X22637750Y-647700D01*
X22942550Y-495300D02*
G75*
G03*
X22942550Y-495300I-152400J0D01*
G01*
X22872700Y2070100D02*
X23177500Y1765300D01*
X23177500Y2070100D02*
X22872700Y1765300D01*
X23177500Y1917700D02*
G75*
G03*
X23177500Y1917700I-152400J0D01*
G01*
X22875875Y3467100D02*
X23180675Y3162300D01*
X23180675Y3467100D02*
X22875875Y3162300D01*
X23180675Y3314700D02*
G75*
G03*
X23180675Y3314700I-152400J0D01*
G01*
X25019000Y-342900D02*
X25323800Y-647700D01*
X25323800Y-342900D02*
X25019000Y-647700D01*
X25323800Y-495300D02*
G75*
G03*
X25323800Y-495300I-152400J0D01*
G01*
X25022175Y-1739900D02*
X25326975Y-2044700D01*
X25326975Y-1739900D02*
X25022175Y-2044700D01*
X25326975Y-1892300D02*
G75*
G03*
X25326975Y-1892300I-152400J0D01*
G01*
X25257125Y3467100D02*
X25561925Y3162300D01*
X25561925Y3467100D02*
X25257125Y3162300D01*
X25561925Y3314700D02*
G75*
G03*
X25561925Y3314700I-152400J0D01*
G01*
X25260300Y2070100D02*
X25565100Y1765300D01*
X25565100Y2070100D02*
X25260300Y1765300D01*
X25565100Y1917700D02*
G75*
G03*
X25565100Y1917700I-152400J0D01*
G01*
D18*
X-8370570Y913130D02*
X-7971790Y514350D01*
X-7971790Y913130D02*
X-8370570Y514350D01*
X-8171180Y913130D02*
X-8171180Y514350D01*
X-8370570Y713740D02*
X-7971790Y713740D01*
X-8370570Y913130D02*
X-7971790Y514350D01*
X-7971790Y913130D02*
X-8370570Y514350D01*
X-8171180Y913130D02*
X-8171180Y514350D01*
X-8370570Y713740D02*
X-7971790Y713740D01*
X-8370570Y-991870D02*
X-7971790Y-1390650D01*
X-7971790Y-991870D02*
X-8370570Y-1390650D01*
X-8171180Y-991870D02*
X-8171180Y-1390650D01*
X-8370570Y-1191260D02*
X-7971790Y-1191260D01*
X-8370570Y-991870D02*
X-7971790Y-1390650D01*
X-7971790Y-991870D02*
X-8370570Y-1390650D01*
X-8171180Y-991870D02*
X-8171180Y-1390650D01*
X-8370570Y-1191260D02*
X-7971790Y-1191260D01*
X-8370570Y-2896870D02*
X-7971790Y-3295650D01*
X-7971790Y-2896870D02*
X-8370570Y-3295650D01*
X-8171180Y-2896870D02*
X-8171180Y-3295650D01*
X-8370570Y-3096260D02*
X-7971790Y-3096260D01*
X-8370570Y-2896870D02*
X-7971790Y-3295650D01*
X-7971790Y-2896870D02*
X-8370570Y-3295650D01*
X-8171180Y-2896870D02*
X-8171180Y-3295650D01*
X-8370570Y-3096260D02*
X-7971790Y-3096260D01*
X-8370570Y-4801870D02*
X-7971790Y-5200650D01*
X-7971790Y-4801870D02*
X-8370570Y-5200650D01*
X-8171180Y-4801870D02*
X-8171180Y-5200650D01*
X-8370570Y-5001260D02*
X-7971790Y-5001260D01*
X-8370570Y-4801870D02*
X-7971790Y-5200650D01*
X-7971790Y-4801870D02*
X-8370570Y-5200650D01*
X-8171180Y-4801870D02*
X-8171180Y-5200650D01*
X-8370570Y-5001260D02*
X-7971790Y-5001260D01*
X-6465570Y913130D02*
X-6066790Y514350D01*
X-6066790Y913130D02*
X-6465570Y514350D01*
X-6266180Y913130D02*
X-6266180Y514350D01*
X-6465570Y713740D02*
X-6066790Y713740D01*
X-6465570Y913130D02*
X-6066790Y514350D01*
X-6066790Y913130D02*
X-6465570Y514350D01*
X-6266180Y913130D02*
X-6266180Y514350D01*
X-6465570Y713740D02*
X-6066790Y713740D01*
X-6465570Y-991870D02*
X-6066790Y-1390650D01*
X-6066790Y-991870D02*
X-6465570Y-1390650D01*
X-6266180Y-991870D02*
X-6266180Y-1390650D01*
X-6465570Y-1191260D02*
X-6066790Y-1191260D01*
X-6465570Y-991870D02*
X-6066790Y-1390650D01*
X-6066790Y-991870D02*
X-6465570Y-1390650D01*
X-6266180Y-991870D02*
X-6266180Y-1390650D01*
X-6465570Y-1191260D02*
X-6066790Y-1191260D01*
X-6465570Y-2896870D02*
X-6066790Y-3295650D01*
X-6066790Y-2896870D02*
X-6465570Y-3295650D01*
X-6266180Y-2896870D02*
X-6266180Y-3295650D01*
X-6465570Y-3096260D02*
X-6066790Y-3096260D01*
X-6465570Y-2896870D02*
X-6066790Y-3295650D01*
X-6066790Y-2896870D02*
X-6465570Y-3295650D01*
X-6266180Y-2896870D02*
X-6266180Y-3295650D01*
X-6465570Y-3096260D02*
X-6066790Y-3096260D01*
X-6465570Y-4801870D02*
X-6066790Y-5200650D01*
X-6066790Y-4801870D02*
X-6465570Y-5200650D01*
X-6266180Y-4801870D02*
X-6266180Y-5200650D01*
X-6465570Y-5001260D02*
X-6066790Y-5001260D01*
X-6465570Y-4801870D02*
X-6066790Y-5200650D01*
X-6066790Y-4801870D02*
X-6465570Y-5200650D01*
X-6266180Y-4801870D02*
X-6266180Y-5200650D01*
X-6465570Y-5001260D02*
X-6066790Y-5001260D01*
X-3611245Y-2071370D02*
X-3212465Y-2470150D01*
X-3212465Y-2071370D02*
X-3611245Y-2470150D01*
X-3411855Y-2071370D02*
X-3411855Y-2470150D01*
X-3611245Y-2270760D02*
X-3212465Y-2270760D01*
X-3608070Y5199380D02*
X-3209290Y4800600D01*
X-3209290Y5199380D02*
X-3608070Y4800600D01*
X-3408680Y5199380D02*
X-3408680Y4800600D01*
X-3608070Y4999990D02*
X-3209290Y4999990D01*
X-3608070Y5199380D02*
X-3209290Y4800600D01*
X-3209290Y5199380D02*
X-3608070Y4800600D01*
X-3408680Y5199380D02*
X-3408680Y4800600D01*
X-3608070Y4999990D02*
X-3209290Y4999990D01*
X-3608070Y2818130D02*
X-3209290Y2419350D01*
X-3209290Y2818130D02*
X-3608070Y2419350D01*
X-3408680Y2818130D02*
X-3408680Y2419350D01*
X-3608070Y2618740D02*
X-3209290Y2618740D01*
X-3608070Y2818130D02*
X-3209290Y2419350D01*
X-3209290Y2818130D02*
X-3608070Y2419350D01*
X-3408680Y2818130D02*
X-3408680Y2419350D01*
X-3608070Y2618740D02*
X-3209290Y2618740D01*
X-3608070Y-3722370D02*
X-3209290Y-4121150D01*
X-3209290Y-3722370D02*
X-3608070Y-4121150D01*
X-3408680Y-3722370D02*
X-3408680Y-4121150D01*
X-3608070Y-3921760D02*
X-3209290Y-3921760D01*
X-3131820Y913130D02*
X-2733040Y514350D01*
X-2733040Y913130D02*
X-3131820Y514350D01*
X-2932430Y913130D02*
X-2932430Y514350D01*
X-3131820Y713740D02*
X-2733040Y713740D01*
X-3131820Y913130D02*
X-2733040Y514350D01*
X-2733040Y913130D02*
X-3131820Y514350D01*
X-2932430Y913130D02*
X-2932430Y514350D01*
X-3131820Y713740D02*
X-2733040Y713740D01*
X-3131820Y-4801870D02*
X-2733040Y-5200650D01*
X-2733040Y-4801870D02*
X-3131820Y-5200650D01*
X-2932430Y-4801870D02*
X-2932430Y-5200650D01*
X-3131820Y-5001260D02*
X-2733040Y-5001260D01*
X-3131820Y-4801870D02*
X-2733040Y-5200650D01*
X-2733040Y-4801870D02*
X-3131820Y-5200650D01*
X-2932430Y-4801870D02*
X-2932430Y-5200650D01*
X-3131820Y-5001260D02*
X-2733040Y-5001260D01*
X-2893695Y-991870D02*
X-2494915Y-1390650D01*
X-2494915Y-991870D02*
X-2893695Y-1390650D01*
X-2694305Y-991870D02*
X-2694305Y-1390650D01*
X-2893695Y-1191260D02*
X-2494915Y-1191260D01*
X-2893695Y-991870D02*
X-2494915Y-1390650D01*
X-2494915Y-991870D02*
X-2893695Y-1390650D01*
X-2694305Y-991870D02*
X-2694305Y-1390650D01*
X-2893695Y-1191260D02*
X-2494915Y-1191260D01*
X-2417445Y-991870D02*
X-2018665Y-1390650D01*
X-2018665Y-991870D02*
X-2417445Y-1390650D01*
X-2218055Y-991870D02*
X-2218055Y-1390650D01*
X-2417445Y-1191260D02*
X-2018665Y-1191260D01*
X-2417445Y-2896870D02*
X-2018665Y-3295650D01*
X-2018665Y-2896870D02*
X-2417445Y-3295650D01*
X-2218055Y-2896870D02*
X-2218055Y-3295650D01*
X-2417445Y-3096260D02*
X-2018665Y-3096260D01*
X-2417445Y-2896870D02*
X-2018665Y-3295650D01*
X-2018665Y-2896870D02*
X-2417445Y-3295650D01*
X-2218055Y-2896870D02*
X-2218055Y-3295650D01*
X-2417445Y-3096260D02*
X-2018665Y-3096260D01*
X-1703070Y2818130D02*
X-1304290Y2419350D01*
X-1304290Y2818130D02*
X-1703070Y2419350D01*
X-1503680Y2818130D02*
X-1503680Y2419350D01*
X-1703070Y2618740D02*
X-1304290Y2618740D01*
X-1703070Y2818130D02*
X-1304290Y2419350D01*
X-1304290Y2818130D02*
X-1703070Y2419350D01*
X-1503680Y2818130D02*
X-1503680Y2419350D01*
X-1703070Y2618740D02*
X-1304290Y2618740D01*
X-1226820Y5199380D02*
X-828040Y4800600D01*
X-828040Y5199380D02*
X-1226820Y4800600D01*
X-1027430Y5199380D02*
X-1027430Y4800600D01*
X-1226820Y4999990D02*
X-828040Y4999990D01*
X-1226820Y5199380D02*
X-828040Y4800600D01*
X-828040Y5199380D02*
X-1226820Y4800600D01*
X-1027430Y5199380D02*
X-1027430Y4800600D01*
X-1226820Y4999990D02*
X-828040Y4999990D01*
X-1226820Y-3722370D02*
X-828040Y-4121150D01*
X-828040Y-3722370D02*
X-1226820Y-4121150D01*
X-1027430Y-3722370D02*
X-1027430Y-4121150D01*
X-1226820Y-3921760D02*
X-828040Y-3921760D01*
X-1223645Y-2071370D02*
X-824865Y-2470150D01*
X-824865Y-2071370D02*
X-1223645Y-2470150D01*
X-1024255Y-2071370D02*
X-1024255Y-2470150D01*
X-1223645Y-2270760D02*
X-824865Y-2270760D01*
X-750570Y913130D02*
X-351790Y514350D01*
X-351790Y913130D02*
X-750570Y514350D01*
X-551180Y913130D02*
X-551180Y514350D01*
X-750570Y713740D02*
X-351790Y713740D01*
X-750570Y913130D02*
X-351790Y514350D01*
X-351790Y913130D02*
X-750570Y514350D01*
X-551180Y913130D02*
X-551180Y514350D01*
X-750570Y713740D02*
X-351790Y713740D01*
X-750570Y-4801870D02*
X-351790Y-5200650D01*
X-351790Y-4801870D02*
X-750570Y-5200650D01*
X-551180Y-4801870D02*
X-551180Y-5200650D01*
X-750570Y-5001260D02*
X-351790Y-5001260D01*
X-750570Y-4801870D02*
X-351790Y-5200650D01*
X-351790Y-4801870D02*
X-750570Y-5200650D01*
X-551180Y-4801870D02*
X-551180Y-5200650D01*
X-750570Y-5001260D02*
X-351790Y-5001260D01*
X-274320Y-991870D02*
X124460Y-1390650D01*
X124460Y-991870D02*
X-274320Y-1390650D01*
X-74930Y-991870D02*
X-74930Y-1390650D01*
X-274320Y-1191260D02*
X124460Y-1191260D01*
X-274320Y-991870D02*
X124460Y-1390650D01*
X124460Y-991870D02*
X-274320Y-1390650D01*
X-74930Y-991870D02*
X-74930Y-1390650D01*
X-274320Y-1191260D02*
X124460Y-1191260D01*
X201930Y2818130D02*
X600710Y2419350D01*
X600710Y2818130D02*
X201930Y2419350D01*
X401320Y2818130D02*
X401320Y2419350D01*
X201930Y2618740D02*
X600710Y2618740D01*
X201930Y2818130D02*
X600710Y2419350D01*
X600710Y2818130D02*
X201930Y2419350D01*
X401320Y2818130D02*
X401320Y2419350D01*
X201930Y2618740D02*
X600710Y2618740D01*
X678180Y5199380D02*
X1076960Y4800600D01*
X1076960Y5199380D02*
X678180Y4800600D01*
X877570Y5199380D02*
X877570Y4800600D01*
X678180Y4999990D02*
X1076960Y4999990D01*
X678180Y5199380D02*
X1076960Y4800600D01*
X1076960Y5199380D02*
X678180Y4800600D01*
X877570Y5199380D02*
X877570Y4800600D01*
X678180Y4999990D02*
X1076960Y4999990D01*
X678180Y-2896870D02*
X1076960Y-3295650D01*
X1076960Y-2896870D02*
X678180Y-3295650D01*
X877570Y-2896870D02*
X877570Y-3295650D01*
X678180Y-3096260D02*
X1076960Y-3096260D01*
X678180Y-2896870D02*
X1076960Y-3295650D01*
X1076960Y-2896870D02*
X678180Y-3295650D01*
X877570Y-2896870D02*
X877570Y-3295650D01*
X678180Y-3096260D02*
X1076960Y-3096260D01*
X1154430Y913130D02*
X1553210Y514350D01*
X1553210Y913130D02*
X1154430Y514350D01*
X1353820Y913130D02*
X1353820Y514350D01*
X1154430Y713740D02*
X1553210Y713740D01*
X1154430Y913130D02*
X1553210Y514350D01*
X1553210Y913130D02*
X1154430Y514350D01*
X1353820Y913130D02*
X1353820Y514350D01*
X1154430Y713740D02*
X1553210Y713740D01*
X1630680Y-991870D02*
X2029460Y-1390650D01*
X2029460Y-991870D02*
X1630680Y-1390650D01*
X1830070Y-991870D02*
X1830070Y-1390650D01*
X1630680Y-1191260D02*
X2029460Y-1191260D01*
X1630680Y-991870D02*
X2029460Y-1390650D01*
X2029460Y-991870D02*
X1630680Y-1390650D01*
X1830070Y-991870D02*
X1830070Y-1390650D01*
X1630680Y-1191260D02*
X2029460Y-1191260D01*
X1630680Y-4801870D02*
X2029460Y-5200650D01*
X2029460Y-4801870D02*
X1630680Y-5200650D01*
X1830070Y-4801870D02*
X1830070Y-5200650D01*
X1630680Y-5001260D02*
X2029460Y-5001260D01*
X1630680Y-4801870D02*
X2029460Y-5200650D01*
X2029460Y-4801870D02*
X1630680Y-5200650D01*
X1830070Y-4801870D02*
X1830070Y-5200650D01*
X1630680Y-5001260D02*
X2029460Y-5001260D01*
X2106930Y2818130D02*
X2505710Y2419350D01*
X2505710Y2818130D02*
X2106930Y2419350D01*
X2306320Y2818130D02*
X2306320Y2419350D01*
X2106930Y2618740D02*
X2505710Y2618740D01*
X2106930Y2818130D02*
X2505710Y2419350D01*
X2505710Y2818130D02*
X2106930Y2419350D01*
X2306320Y2818130D02*
X2306320Y2419350D01*
X2106930Y2618740D02*
X2505710Y2618740D01*
X2583180Y5199380D02*
X2981960Y4800600D01*
X2981960Y5199380D02*
X2583180Y4800600D01*
X2782570Y5199380D02*
X2782570Y4800600D01*
X2583180Y4999990D02*
X2981960Y4999990D01*
X2583180Y5199380D02*
X2981960Y4800600D01*
X2981960Y5199380D02*
X2583180Y4800600D01*
X2782570Y5199380D02*
X2782570Y4800600D01*
X2583180Y4999990D02*
X2981960Y4999990D01*
X2583180Y-2896870D02*
X2981960Y-3295650D01*
X2981960Y-2896870D02*
X2583180Y-3295650D01*
X2782570Y-2896870D02*
X2782570Y-3295650D01*
X2583180Y-3096260D02*
X2981960Y-3096260D01*
X2583180Y-2896870D02*
X2981960Y-3295650D01*
X2981960Y-2896870D02*
X2583180Y-3295650D01*
X2782570Y-2896870D02*
X2782570Y-3295650D01*
X2583180Y-3096260D02*
X2981960Y-3096260D01*
X3059430Y913130D02*
X3458210Y514350D01*
X3458210Y913130D02*
X3059430Y514350D01*
X3258820Y913130D02*
X3258820Y514350D01*
X3059430Y713740D02*
X3458210Y713740D01*
X3059430Y913130D02*
X3458210Y514350D01*
X3458210Y913130D02*
X3059430Y514350D01*
X3258820Y913130D02*
X3258820Y514350D01*
X3059430Y713740D02*
X3458210Y713740D01*
X3535680Y-991870D02*
X3934460Y-1390650D01*
X3934460Y-991870D02*
X3535680Y-1390650D01*
X3735070Y-991870D02*
X3735070Y-1390650D01*
X3535680Y-1191260D02*
X3934460Y-1191260D01*
X3535680Y-991870D02*
X3934460Y-1390650D01*
X3934460Y-991870D02*
X3535680Y-1390650D01*
X3735070Y-991870D02*
X3735070Y-1390650D01*
X3535680Y-1191260D02*
X3934460Y-1191260D01*
X4011930Y2818130D02*
X4410710Y2419350D01*
X4410710Y2818130D02*
X4011930Y2419350D01*
X4211320Y2818130D02*
X4211320Y2419350D01*
X4011930Y2618740D02*
X4410710Y2618740D01*
X4011930Y2818130D02*
X4410710Y2419350D01*
X4410710Y2818130D02*
X4011930Y2419350D01*
X4211320Y2818130D02*
X4211320Y2419350D01*
X4011930Y2618740D02*
X4410710Y2618740D01*
X4011930Y-3976370D02*
X4410710Y-4375150D01*
X4410710Y-3976370D02*
X4011930Y-4375150D01*
X4211320Y-3976370D02*
X4211320Y-4375150D01*
X4011930Y-4175760D02*
X4410710Y-4175760D01*
X4488180Y5199380D02*
X4886960Y4800600D01*
X4886960Y5199380D02*
X4488180Y4800600D01*
X4687570Y5199380D02*
X4687570Y4800600D01*
X4488180Y4999990D02*
X4886960Y4999990D01*
X4488180Y5199380D02*
X4886960Y4800600D01*
X4886960Y5199380D02*
X4488180Y4800600D01*
X4687570Y5199380D02*
X4687570Y4800600D01*
X4488180Y4999990D02*
X4886960Y4999990D01*
X4488180Y-2896870D02*
X4886960Y-3295650D01*
X4886960Y-2896870D02*
X4488180Y-3295650D01*
X4687570Y-2896870D02*
X4687570Y-3295650D01*
X4488180Y-3096260D02*
X4886960Y-3096260D01*
X4488180Y-2896870D02*
X4886960Y-3295650D01*
X4886960Y-2896870D02*
X4488180Y-3295650D01*
X4687570Y-2896870D02*
X4687570Y-3295650D01*
X4488180Y-3096260D02*
X4886960Y-3096260D01*
X4964430Y913130D02*
X5363210Y514350D01*
X5363210Y913130D02*
X4964430Y514350D01*
X5163820Y913130D02*
X5163820Y514350D01*
X4964430Y713740D02*
X5363210Y713740D01*
X4964430Y913130D02*
X5363210Y514350D01*
X5363210Y913130D02*
X4964430Y514350D01*
X5163820Y913130D02*
X5163820Y514350D01*
X4964430Y713740D02*
X5363210Y713740D01*
X5440680Y-991870D02*
X5839460Y-1390650D01*
X5839460Y-991870D02*
X5440680Y-1390650D01*
X5640070Y-991870D02*
X5640070Y-1390650D01*
X5440680Y-1191260D02*
X5839460Y-1191260D01*
X5440680Y-991870D02*
X5839460Y-1390650D01*
X5839460Y-991870D02*
X5440680Y-1390650D01*
X5640070Y-991870D02*
X5640070Y-1390650D01*
X5440680Y-1191260D02*
X5839460Y-1191260D01*
X5916930Y2818130D02*
X6315710Y2419350D01*
X6315710Y2818130D02*
X5916930Y2419350D01*
X6116320Y2818130D02*
X6116320Y2419350D01*
X5916930Y2618740D02*
X6315710Y2618740D01*
X5916930Y2818130D02*
X6315710Y2419350D01*
X6315710Y2818130D02*
X5916930Y2419350D01*
X6116320Y2818130D02*
X6116320Y2419350D01*
X5916930Y2618740D02*
X6315710Y2618740D01*
X5916930Y-4801870D02*
X6315710Y-5200650D01*
X6315710Y-4801870D02*
X5916930Y-5200650D01*
X6116320Y-4801870D02*
X6116320Y-5200650D01*
X5916930Y-5001260D02*
X6315710Y-5001260D01*
X5916930Y-4801870D02*
X6315710Y-5200650D01*
X6315710Y-4801870D02*
X5916930Y-5200650D01*
X6116320Y-4801870D02*
X6116320Y-5200650D01*
X5916930Y-5001260D02*
X6315710Y-5001260D01*
X6393180Y-2896870D02*
X6791960Y-3295650D01*
X6791960Y-2896870D02*
X6393180Y-3295650D01*
X6592570Y-2896870D02*
X6592570Y-3295650D01*
X6393180Y-3096260D02*
X6791960Y-3096260D01*
X6393180Y-2896870D02*
X6791960Y-3295650D01*
X6791960Y-2896870D02*
X6393180Y-3295650D01*
X6592570Y-2896870D02*
X6592570Y-3295650D01*
X6393180Y-3096260D02*
X6791960Y-3096260D01*
X6869430Y5199380D02*
X7268210Y4800600D01*
X7268210Y5199380D02*
X6869430Y4800600D01*
X7068820Y5199380D02*
X7068820Y4800600D01*
X6869430Y4999990D02*
X7268210Y4999990D01*
X6869430Y5199380D02*
X7268210Y4800600D01*
X7268210Y5199380D02*
X6869430Y4800600D01*
X7068820Y5199380D02*
X7068820Y4800600D01*
X6869430Y4999990D02*
X7268210Y4999990D01*
X6869430Y913130D02*
X7268210Y514350D01*
X7268210Y913130D02*
X6869430Y514350D01*
X7068820Y913130D02*
X7068820Y514350D01*
X6869430Y713740D02*
X7268210Y713740D01*
X6869430Y913130D02*
X7268210Y514350D01*
X7268210Y913130D02*
X6869430Y514350D01*
X7068820Y913130D02*
X7068820Y514350D01*
X6869430Y713740D02*
X7268210Y713740D01*
X7345680Y-991870D02*
X7744460Y-1390650D01*
X7744460Y-991870D02*
X7345680Y-1390650D01*
X7545070Y-991870D02*
X7545070Y-1390650D01*
X7345680Y-1191260D02*
X7744460Y-1191260D01*
X7345680Y-991870D02*
X7744460Y-1390650D01*
X7744460Y-991870D02*
X7345680Y-1390650D01*
X7545070Y-991870D02*
X7545070Y-1390650D01*
X7345680Y-1191260D02*
X7744460Y-1191260D01*
X7821930Y2818130D02*
X8220710Y2419350D01*
X8220710Y2818130D02*
X7821930Y2419350D01*
X8021320Y2818130D02*
X8021320Y2419350D01*
X7821930Y2618740D02*
X8220710Y2618740D01*
X7821930Y2818130D02*
X8220710Y2419350D01*
X8220710Y2818130D02*
X7821930Y2419350D01*
X8021320Y2818130D02*
X8021320Y2419350D01*
X7821930Y2618740D02*
X8220710Y2618740D01*
X7821930Y-3976370D02*
X8220710Y-4375150D01*
X8220710Y-3976370D02*
X7821930Y-4375150D01*
X8021320Y-3976370D02*
X8021320Y-4375150D01*
X7821930Y-4175760D02*
X8220710Y-4175760D01*
X8298180Y-2896870D02*
X8696960Y-3295650D01*
X8696960Y-2896870D02*
X8298180Y-3295650D01*
X8497570Y-2896870D02*
X8497570Y-3295650D01*
X8298180Y-3096260D02*
X8696960Y-3096260D01*
X8298180Y-2896870D02*
X8696960Y-3295650D01*
X8696960Y-2896870D02*
X8298180Y-3295650D01*
X8497570Y-2896870D02*
X8497570Y-3295650D01*
X8298180Y-3096260D02*
X8696960Y-3096260D01*
X8774430Y5199380D02*
X9173210Y4800600D01*
X9173210Y5199380D02*
X8774430Y4800600D01*
X8973820Y5199380D02*
X8973820Y4800600D01*
X8774430Y4999990D02*
X9173210Y4999990D01*
X8774430Y5199380D02*
X9173210Y4800600D01*
X9173210Y5199380D02*
X8774430Y4800600D01*
X8973820Y5199380D02*
X8973820Y4800600D01*
X8774430Y4999990D02*
X9173210Y4999990D01*
X10684510Y910590D02*
X11083290Y511810D01*
X11083290Y910590D02*
X10684510Y511810D01*
X10883900Y910590D02*
X10883900Y511810D01*
X10684510Y711200D02*
X11083290Y711200D01*
X10684510Y910590D02*
X11083290Y511810D01*
X11083290Y910590D02*
X10684510Y511810D01*
X10883900Y910590D02*
X10883900Y511810D01*
X10684510Y711200D02*
X11083290Y711200D01*
X11160760Y-994410D02*
X11559540Y-1393190D01*
X11559540Y-994410D02*
X11160760Y-1393190D01*
X11360150Y-994410D02*
X11360150Y-1393190D01*
X11160760Y-1193800D02*
X11559540Y-1193800D01*
X11160760Y-994410D02*
X11559540Y-1393190D01*
X11559540Y-994410D02*
X11160760Y-1393190D01*
X11360150Y-994410D02*
X11360150Y-1393190D01*
X11160760Y-1193800D02*
X11559540Y-1193800D01*
X11637010Y2815590D02*
X12035790Y2416810D01*
X12035790Y2815590D02*
X11637010Y2416810D01*
X11836400Y2815590D02*
X11836400Y2416810D01*
X11637010Y2616200D02*
X12035790Y2616200D01*
X11637010Y2815590D02*
X12035790Y2416810D01*
X12035790Y2815590D02*
X11637010Y2416810D01*
X11836400Y2815590D02*
X11836400Y2416810D01*
X11637010Y2616200D02*
X12035790Y2616200D01*
X11637010Y-3978910D02*
X12035790Y-4377690D01*
X12035790Y-3978910D02*
X11637010Y-4377690D01*
X11836400Y-3978910D02*
X11836400Y-4377690D01*
X11637010Y-4178300D02*
X12035790Y-4178300D01*
X12113260Y-2899410D02*
X12512040Y-3298190D01*
X12512040Y-2899410D02*
X12113260Y-3298190D01*
X12312650Y-2899410D02*
X12312650Y-3298190D01*
X12113260Y-3098800D02*
X12512040Y-3098800D01*
X12113260Y-2899410D02*
X12512040Y-3298190D01*
X12512040Y-2899410D02*
X12113260Y-3298190D01*
X12312650Y-2899410D02*
X12312650Y-3298190D01*
X12113260Y-3098800D02*
X12512040Y-3098800D01*
X12589510Y5203190D02*
X12988290Y4804410D01*
X12988290Y5203190D02*
X12589510Y4804410D01*
X12788900Y5203190D02*
X12788900Y4804410D01*
X12589510Y5003800D02*
X12988290Y5003800D01*
X12589510Y5203190D02*
X12988290Y4804410D01*
X12988290Y5203190D02*
X12589510Y4804410D01*
X12788900Y5203190D02*
X12788900Y4804410D01*
X12589510Y5003800D02*
X12988290Y5003800D01*
X12589510Y910590D02*
X12988290Y511810D01*
X12988290Y910590D02*
X12589510Y511810D01*
X12788900Y910590D02*
X12788900Y511810D01*
X12589510Y711200D02*
X12988290Y711200D01*
X12589510Y910590D02*
X12988290Y511810D01*
X12988290Y910590D02*
X12589510Y511810D01*
X12788900Y910590D02*
X12788900Y511810D01*
X12589510Y711200D02*
X12988290Y711200D01*
X13065760Y-994410D02*
X13464540Y-1393190D01*
X13464540Y-994410D02*
X13065760Y-1393190D01*
X13265150Y-994410D02*
X13265150Y-1393190D01*
X13065760Y-1193800D02*
X13464540Y-1193800D01*
X13065760Y-994410D02*
X13464540Y-1393190D01*
X13464540Y-994410D02*
X13065760Y-1393190D01*
X13265150Y-994410D02*
X13265150Y-1393190D01*
X13065760Y-1193800D02*
X13464540Y-1193800D01*
X13542010Y2815590D02*
X13940790Y2416810D01*
X13940790Y2815590D02*
X13542010Y2416810D01*
X13741400Y2815590D02*
X13741400Y2416810D01*
X13542010Y2616200D02*
X13940790Y2616200D01*
X13542010Y2815590D02*
X13940790Y2416810D01*
X13940790Y2815590D02*
X13542010Y2416810D01*
X13741400Y2815590D02*
X13741400Y2416810D01*
X13542010Y2616200D02*
X13940790Y2616200D01*
X13542010Y-4804410D02*
X13940790Y-5203190D01*
X13940790Y-4804410D02*
X13542010Y-5203190D01*
X13741400Y-4804410D02*
X13741400Y-5203190D01*
X13542010Y-5003800D02*
X13940790Y-5003800D01*
X13542010Y-4804410D02*
X13940790Y-5203190D01*
X13940790Y-4804410D02*
X13542010Y-5203190D01*
X13741400Y-4804410D02*
X13741400Y-5203190D01*
X13542010Y-5003800D02*
X13940790Y-5003800D01*
X14018260Y-2899410D02*
X14417040Y-3298190D01*
X14417040Y-2899410D02*
X14018260Y-3298190D01*
X14217650Y-2899410D02*
X14217650Y-3298190D01*
X14018260Y-3098800D02*
X14417040Y-3098800D01*
X14018260Y-2899410D02*
X14417040Y-3298190D01*
X14417040Y-2899410D02*
X14018260Y-3298190D01*
X14217650Y-2899410D02*
X14217650Y-3298190D01*
X14018260Y-3098800D02*
X14417040Y-3098800D01*
X14494510Y5203190D02*
X14893290Y4804410D01*
X14893290Y5203190D02*
X14494510Y4804410D01*
X14693900Y5203190D02*
X14693900Y4804410D01*
X14494510Y5003800D02*
X14893290Y5003800D01*
X14494510Y5203190D02*
X14893290Y4804410D01*
X14893290Y5203190D02*
X14494510Y4804410D01*
X14693900Y5203190D02*
X14693900Y4804410D01*
X14494510Y5003800D02*
X14893290Y5003800D01*
X14494510Y910590D02*
X14893290Y511810D01*
X14893290Y910590D02*
X14494510Y511810D01*
X14693900Y910590D02*
X14693900Y511810D01*
X14494510Y711200D02*
X14893290Y711200D01*
X14494510Y910590D02*
X14893290Y511810D01*
X14893290Y910590D02*
X14494510Y511810D01*
X14693900Y910590D02*
X14693900Y511810D01*
X14494510Y711200D02*
X14893290Y711200D01*
X14970760Y-994410D02*
X15369540Y-1393190D01*
X15369540Y-994410D02*
X14970760Y-1393190D01*
X15170150Y-994410D02*
X15170150Y-1393190D01*
X14970760Y-1193800D02*
X15369540Y-1193800D01*
X14970760Y-994410D02*
X15369540Y-1393190D01*
X15369540Y-994410D02*
X14970760Y-1393190D01*
X15170150Y-994410D02*
X15170150Y-1393190D01*
X14970760Y-1193800D02*
X15369540Y-1193800D01*
X15447010Y2815590D02*
X15845790Y2416810D01*
X15845790Y2815590D02*
X15447010Y2416810D01*
X15646400Y2815590D02*
X15646400Y2416810D01*
X15447010Y2616200D02*
X15845790Y2616200D01*
X15447010Y2815590D02*
X15845790Y2416810D01*
X15845790Y2815590D02*
X15447010Y2416810D01*
X15646400Y2815590D02*
X15646400Y2416810D01*
X15447010Y2616200D02*
X15845790Y2616200D01*
X15447010Y-3978910D02*
X15845790Y-4377690D01*
X15845790Y-3978910D02*
X15447010Y-4377690D01*
X15646400Y-3978910D02*
X15646400Y-4377690D01*
X15447010Y-4178300D02*
X15845790Y-4178300D01*
X15923260Y-2899410D02*
X16322040Y-3298190D01*
X16322040Y-2899410D02*
X15923260Y-3298190D01*
X16122650Y-2899410D02*
X16122650Y-3298190D01*
X15923260Y-3098800D02*
X16322040Y-3098800D01*
X15923260Y-2899410D02*
X16322040Y-3298190D01*
X16322040Y-2899410D02*
X15923260Y-3298190D01*
X16122650Y-2899410D02*
X16122650Y-3298190D01*
X15923260Y-3098800D02*
X16322040Y-3098800D01*
X16399510Y910590D02*
X16798290Y511810D01*
X16798290Y910590D02*
X16399510Y511810D01*
X16598900Y910590D02*
X16598900Y511810D01*
X16399510Y711200D02*
X16798290Y711200D01*
X16399510Y910590D02*
X16798290Y511810D01*
X16798290Y910590D02*
X16399510Y511810D01*
X16598900Y910590D02*
X16598900Y511810D01*
X16399510Y711200D02*
X16798290Y711200D01*
X16875760Y5203190D02*
X17274540Y4804410D01*
X17274540Y5203190D02*
X16875760Y4804410D01*
X17075150Y5203190D02*
X17075150Y4804410D01*
X16875760Y5003800D02*
X17274540Y5003800D01*
X16875760Y5203190D02*
X17274540Y4804410D01*
X17274540Y5203190D02*
X16875760Y4804410D01*
X17075150Y5203190D02*
X17075150Y4804410D01*
X16875760Y5003800D02*
X17274540Y5003800D01*
X16875760Y-994410D02*
X17274540Y-1393190D01*
X17274540Y-994410D02*
X16875760Y-1393190D01*
X17075150Y-994410D02*
X17075150Y-1393190D01*
X16875760Y-1193800D02*
X17274540Y-1193800D01*
X16875760Y-994410D02*
X17274540Y-1393190D01*
X17274540Y-994410D02*
X16875760Y-1393190D01*
X17075150Y-994410D02*
X17075150Y-1393190D01*
X16875760Y-1193800D02*
X17274540Y-1193800D01*
X17352010Y2815590D02*
X17750790Y2416810D01*
X17750790Y2815590D02*
X17352010Y2416810D01*
X17551400Y2815590D02*
X17551400Y2416810D01*
X17352010Y2616200D02*
X17750790Y2616200D01*
X17352010Y2815590D02*
X17750790Y2416810D01*
X17750790Y2815590D02*
X17352010Y2416810D01*
X17551400Y2815590D02*
X17551400Y2416810D01*
X17352010Y2616200D02*
X17750790Y2616200D01*
X17352010Y-4804410D02*
X17750790Y-5203190D01*
X17750790Y-4804410D02*
X17352010Y-5203190D01*
X17551400Y-4804410D02*
X17551400Y-5203190D01*
X17352010Y-5003800D02*
X17750790Y-5003800D01*
X17352010Y-4804410D02*
X17750790Y-5203190D01*
X17750790Y-4804410D02*
X17352010Y-5203190D01*
X17551400Y-4804410D02*
X17551400Y-5203190D01*
X17352010Y-5003800D02*
X17750790Y-5003800D01*
X17828260Y-2899410D02*
X18227040Y-3298190D01*
X18227040Y-2899410D02*
X17828260Y-3298190D01*
X18027650Y-2899410D02*
X18027650Y-3298190D01*
X17828260Y-3098800D02*
X18227040Y-3098800D01*
X17828260Y-2899410D02*
X18227040Y-3298190D01*
X18227040Y-2899410D02*
X17828260Y-3298190D01*
X18027650Y-2899410D02*
X18027650Y-3298190D01*
X17828260Y-3098800D02*
X18227040Y-3098800D01*
X18304510Y910590D02*
X18703290Y511810D01*
X18703290Y910590D02*
X18304510Y511810D01*
X18503900Y910590D02*
X18503900Y511810D01*
X18304510Y711200D02*
X18703290Y711200D01*
X18304510Y910590D02*
X18703290Y511810D01*
X18703290Y910590D02*
X18304510Y511810D01*
X18503900Y910590D02*
X18503900Y511810D01*
X18304510Y711200D02*
X18703290Y711200D01*
X18780760Y5203190D02*
X19179540Y4804410D01*
X19179540Y5203190D02*
X18780760Y4804410D01*
X18980150Y5203190D02*
X18980150Y4804410D01*
X18780760Y5003800D02*
X19179540Y5003800D01*
X18780760Y5203190D02*
X19179540Y4804410D01*
X19179540Y5203190D02*
X18780760Y4804410D01*
X18980150Y5203190D02*
X18980150Y4804410D01*
X18780760Y5003800D02*
X19179540Y5003800D01*
X18780760Y-994410D02*
X19179540Y-1393190D01*
X19179540Y-994410D02*
X18780760Y-1393190D01*
X18980150Y-994410D02*
X18980150Y-1393190D01*
X18780760Y-1193800D02*
X19179540Y-1193800D01*
X18780760Y-994410D02*
X19179540Y-1393190D01*
X19179540Y-994410D02*
X18780760Y-1393190D01*
X18980150Y-994410D02*
X18980150Y-1393190D01*
X18780760Y-1193800D02*
X19179540Y-1193800D01*
X19257010Y2815590D02*
X19655790Y2416810D01*
X19655790Y2815590D02*
X19257010Y2416810D01*
X19456400Y2815590D02*
X19456400Y2416810D01*
X19257010Y2616200D02*
X19655790Y2616200D01*
X19257010Y2815590D02*
X19655790Y2416810D01*
X19655790Y2815590D02*
X19257010Y2416810D01*
X19456400Y2815590D02*
X19456400Y2416810D01*
X19257010Y2616200D02*
X19655790Y2616200D01*
X19257010Y-4804410D02*
X19655790Y-5203190D01*
X19655790Y-4804410D02*
X19257010Y-5203190D01*
X19456400Y-4804410D02*
X19456400Y-5203190D01*
X19257010Y-5003800D02*
X19655790Y-5003800D01*
X19257010Y-4804410D02*
X19655790Y-5203190D01*
X19655790Y-4804410D02*
X19257010Y-5203190D01*
X19456400Y-4804410D02*
X19456400Y-5203190D01*
X19257010Y-5003800D02*
X19655790Y-5003800D01*
X19733260Y-2899410D02*
X20132040Y-3298190D01*
X20132040Y-2899410D02*
X19733260Y-3298190D01*
X19932650Y-2899410D02*
X19932650Y-3298190D01*
X19733260Y-3098800D02*
X20132040Y-3098800D01*
X19733260Y-2899410D02*
X20132040Y-3298190D01*
X20132040Y-2899410D02*
X19733260Y-3298190D01*
X19932650Y-2899410D02*
X19932650Y-3298190D01*
X19733260Y-3098800D02*
X20132040Y-3098800D01*
X20209510Y910590D02*
X20608290Y511810D01*
X20608290Y910590D02*
X20209510Y511810D01*
X20408900Y910590D02*
X20408900Y511810D01*
X20209510Y711200D02*
X20608290Y711200D01*
X20209510Y910590D02*
X20608290Y511810D01*
X20608290Y910590D02*
X20209510Y511810D01*
X20408900Y910590D02*
X20408900Y511810D01*
X20209510Y711200D02*
X20608290Y711200D01*
X20685760Y5203190D02*
X21084540Y4804410D01*
X21084540Y5203190D02*
X20685760Y4804410D01*
X20885150Y5203190D02*
X20885150Y4804410D01*
X20685760Y5003800D02*
X21084540Y5003800D01*
X20685760Y5203190D02*
X21084540Y4804410D01*
X21084540Y5203190D02*
X20685760Y4804410D01*
X20885150Y5203190D02*
X20885150Y4804410D01*
X20685760Y5003800D02*
X21084540Y5003800D01*
X20685760Y-994410D02*
X21084540Y-1393190D01*
X21084540Y-994410D02*
X20685760Y-1393190D01*
X20885150Y-994410D02*
X20885150Y-1393190D01*
X20685760Y-1193800D02*
X21084540Y-1193800D01*
X20685760Y-994410D02*
X21084540Y-1393190D01*
X21084540Y-994410D02*
X20685760Y-1393190D01*
X20885150Y-994410D02*
X20885150Y-1393190D01*
X20685760Y-1193800D02*
X21084540Y-1193800D01*
X21162010Y2815590D02*
X21560790Y2416810D01*
X21560790Y2815590D02*
X21162010Y2416810D01*
X21361400Y2815590D02*
X21361400Y2416810D01*
X21162010Y2616200D02*
X21560790Y2616200D01*
X21162010Y2815590D02*
X21560790Y2416810D01*
X21560790Y2815590D02*
X21162010Y2416810D01*
X21361400Y2815590D02*
X21361400Y2416810D01*
X21162010Y2616200D02*
X21560790Y2616200D01*
X21162010Y-4804410D02*
X21560790Y-5203190D01*
X21560790Y-4804410D02*
X21162010Y-5203190D01*
X21361400Y-4804410D02*
X21361400Y-5203190D01*
X21162010Y-5003800D02*
X21560790Y-5003800D01*
X21162010Y-4804410D02*
X21560790Y-5203190D01*
X21560790Y-4804410D02*
X21162010Y-5203190D01*
X21361400Y-4804410D02*
X21361400Y-5203190D01*
X21162010Y-5003800D02*
X21560790Y-5003800D01*
X22114510Y910590D02*
X22513290Y511810D01*
X22513290Y910590D02*
X22114510Y511810D01*
X22313900Y910590D02*
X22313900Y511810D01*
X22114510Y711200D02*
X22513290Y711200D01*
X22114510Y910590D02*
X22513290Y511810D01*
X22513290Y910590D02*
X22114510Y511810D01*
X22313900Y910590D02*
X22313900Y511810D01*
X22114510Y711200D02*
X22513290Y711200D01*
X22352635Y-2899410D02*
X22751415Y-3298190D01*
X22751415Y-2899410D02*
X22352635Y-3298190D01*
X22552025Y-2899410D02*
X22552025Y-3298190D01*
X22352635Y-3098800D02*
X22751415Y-3098800D01*
X22352635Y-2899410D02*
X22751415Y-3298190D01*
X22751415Y-2899410D02*
X22352635Y-3298190D01*
X22552025Y-2899410D02*
X22552025Y-3298190D01*
X22352635Y-3098800D02*
X22751415Y-3098800D01*
X22587585Y-168910D02*
X22986365Y-567690D01*
X22986365Y-168910D02*
X22587585Y-567690D01*
X22786975Y-168910D02*
X22786975Y-567690D01*
X22587585Y-368300D02*
X22986365Y-368300D01*
X22590760Y5203190D02*
X22989540Y4804410D01*
X22989540Y5203190D02*
X22590760Y4804410D01*
X22790150Y5203190D02*
X22790150Y4804410D01*
X22590760Y5003800D02*
X22989540Y5003800D01*
X22590760Y5203190D02*
X22989540Y4804410D01*
X22989540Y5203190D02*
X22590760Y4804410D01*
X22790150Y5203190D02*
X22790150Y4804410D01*
X22590760Y5003800D02*
X22989540Y5003800D01*
X22590760Y-1819910D02*
X22989540Y-2218690D01*
X22989540Y-1819910D02*
X22590760Y-2218690D01*
X22790150Y-1819910D02*
X22790150Y-2218690D01*
X22590760Y-2019300D02*
X22989540Y-2019300D01*
X22825710Y3641090D02*
X23224490Y3242310D01*
X23224490Y3641090D02*
X22825710Y3242310D01*
X23025100Y3641090D02*
X23025100Y3242310D01*
X22825710Y3441700D02*
X23224490Y3441700D01*
X22828885Y1990090D02*
X23227665Y1591310D01*
X23227665Y1990090D02*
X22828885Y1591310D01*
X23028275Y1990090D02*
X23028275Y1591310D01*
X22828885Y1790700D02*
X23227665Y1790700D01*
X23067010Y2815590D02*
X23465790Y2416810D01*
X23465790Y2815590D02*
X23067010Y2416810D01*
X23266400Y2815590D02*
X23266400Y2416810D01*
X23067010Y2616200D02*
X23465790Y2616200D01*
X23536910Y-5279390D02*
X23935690Y-5678170D01*
X23935690Y-5279390D02*
X23536910Y-5678170D01*
X23736300Y-5279390D02*
X23736300Y-5678170D01*
X23536910Y-5478780D02*
X23935690Y-5478780D01*
X23536910Y-5279390D02*
X23935690Y-5678170D01*
X23935690Y-5279390D02*
X23536910Y-5678170D01*
X23736300Y-5279390D02*
X23736300Y-5678170D01*
X23536910Y-5478780D02*
X23935690Y-5478780D01*
X23781385Y-994410D02*
X24180165Y-1393190D01*
X24180165Y-994410D02*
X23781385Y-1393190D01*
X23980775Y-994410D02*
X23980775Y-1393190D01*
X23781385Y-1193800D02*
X24180165Y-1193800D01*
X23781385Y-994410D02*
X24180165Y-1393190D01*
X24180165Y-994410D02*
X23781385Y-1393190D01*
X23980775Y-994410D02*
X23980775Y-1393190D01*
X23781385Y-1193800D02*
X24180165Y-1193800D01*
X24019510Y2815590D02*
X24418290Y2416810D01*
X24418290Y2815590D02*
X24019510Y2416810D01*
X24218900Y2815590D02*
X24218900Y2416810D01*
X24019510Y2616200D02*
X24418290Y2616200D01*
X24019510Y2815590D02*
X24418290Y2416810D01*
X24418290Y2815590D02*
X24019510Y2416810D01*
X24218900Y2815590D02*
X24218900Y2416810D01*
X24019510Y2616200D02*
X24418290Y2616200D01*
X24495760Y910590D02*
X24894540Y511810D01*
X24894540Y910590D02*
X24495760Y511810D01*
X24695150Y910590D02*
X24695150Y511810D01*
X24495760Y711200D02*
X24894540Y711200D01*
X24495760Y910590D02*
X24894540Y511810D01*
X24894540Y910590D02*
X24495760Y511810D01*
X24695150Y910590D02*
X24695150Y511810D01*
X24495760Y711200D02*
X24894540Y711200D01*
X24972010Y5203190D02*
X25370790Y4804410D01*
X25370790Y5203190D02*
X24972010Y4804410D01*
X25171400Y5203190D02*
X25171400Y4804410D01*
X24972010Y5003800D02*
X25370790Y5003800D01*
X24972010Y5203190D02*
X25370790Y4804410D01*
X25370790Y5203190D02*
X24972010Y4804410D01*
X25171400Y5203190D02*
X25171400Y4804410D01*
X24972010Y5003800D02*
X25370790Y5003800D01*
X24972010Y2815590D02*
X25370790Y2416810D01*
X25370790Y2815590D02*
X24972010Y2416810D01*
X25171400Y2815590D02*
X25171400Y2416810D01*
X24972010Y2616200D02*
X25370790Y2616200D01*
X24972010Y-1819910D02*
X25370790Y-2218690D01*
X25370790Y-1819910D02*
X24972010Y-2218690D01*
X25171400Y-1819910D02*
X25171400Y-2218690D01*
X24972010Y-2019300D02*
X25370790Y-2019300D01*
X24975185Y-168910D02*
X25373965Y-567690D01*
X25373965Y-168910D02*
X24975185Y-567690D01*
X25174575Y-168910D02*
X25174575Y-567690D01*
X24975185Y-368300D02*
X25373965Y-368300D01*
X25210135Y1990090D02*
X25608915Y1591310D01*
X25608915Y1990090D02*
X25210135Y1591310D01*
X25409525Y1990090D02*
X25409525Y1591310D01*
X25210135Y1790700D02*
X25608915Y1790700D01*
X25213310Y3641090D02*
X25612090Y3242310D01*
X25612090Y3641090D02*
X25213310Y3242310D01*
X25412700Y3641090D02*
X25412700Y3242310D01*
X25213310Y3441700D02*
X25612090Y3441700D01*
X25441910Y-3374390D02*
X25840690Y-3773170D01*
X25840690Y-3374390D02*
X25441910Y-3773170D01*
X25641300Y-3374390D02*
X25641300Y-3773170D01*
X25441910Y-3573780D02*
X25840690Y-3573780D01*
X25441910Y-3374390D02*
X25840690Y-3773170D01*
X25840690Y-3374390D02*
X25441910Y-3773170D01*
X25641300Y-3374390D02*
X25641300Y-3773170D01*
X25441910Y-3573780D02*
X25840690Y-3573780D01*
X25441910Y-5279390D02*
X25840690Y-5678170D01*
X25840690Y-5279390D02*
X25441910Y-5678170D01*
X25641300Y-5279390D02*
X25641300Y-5678170D01*
X25441910Y-5478780D02*
X25840690Y-5478780D01*
X25441910Y-5279390D02*
X25840690Y-5678170D01*
X25840690Y-5279390D02*
X25441910Y-5678170D01*
X25641300Y-5279390D02*
X25641300Y-5678170D01*
X25441910Y-5478780D02*
X25840690Y-5478780D01*
X27346910Y-5279390D02*
X27745690Y-5678170D01*
X27745690Y-5279390D02*
X27346910Y-5678170D01*
X27546300Y-5279390D02*
X27546300Y-5678170D01*
X27346910Y-5478780D02*
X27745690Y-5478780D01*
X27346910Y-5279390D02*
X27745690Y-5678170D01*
X27745690Y-5279390D02*
X27346910Y-5678170D01*
X27546300Y-5279390D02*
X27546300Y-5678170D01*
X27346910Y-5478780D02*
X27745690Y-5478780D01*
X27829510Y5203190D02*
X28228290Y4804410D01*
X28228290Y5203190D02*
X27829510Y4804410D01*
X28028900Y5203190D02*
X28028900Y4804410D01*
X27829510Y5003800D02*
X28228290Y5003800D01*
X27829510Y5203190D02*
X28228290Y4804410D01*
X28228290Y5203190D02*
X27829510Y4804410D01*
X28028900Y5203190D02*
X28028900Y4804410D01*
X27829510Y5003800D02*
X28228290Y5003800D01*
X27829510Y2815590D02*
X28228290Y2416810D01*
X28228290Y2815590D02*
X27829510Y2416810D01*
X28028900Y2815590D02*
X28028900Y2416810D01*
X27829510Y2616200D02*
X28228290Y2616200D01*
X27829510Y2815590D02*
X28228290Y2416810D01*
X28228290Y2815590D02*
X27829510Y2416810D01*
X28028900Y2815590D02*
X28028900Y2416810D01*
X27829510Y2616200D02*
X28228290Y2616200D01*
X27829510Y910590D02*
X28228290Y511810D01*
X28228290Y910590D02*
X27829510Y511810D01*
X28028900Y910590D02*
X28028900Y511810D01*
X27829510Y711200D02*
X28228290Y711200D01*
X27829510Y910590D02*
X28228290Y511810D01*
X28228290Y910590D02*
X27829510Y511810D01*
X28028900Y910590D02*
X28028900Y511810D01*
X27829510Y711200D02*
X28228290Y711200D01*
X27829510Y-994410D02*
X28228290Y-1393190D01*
X28228290Y-994410D02*
X27829510Y-1393190D01*
X28028900Y-994410D02*
X28028900Y-1393190D01*
X27829510Y-1193800D02*
X28228290Y-1193800D01*
X27829510Y-994410D02*
X28228290Y-1393190D01*
X28228290Y-994410D02*
X27829510Y-1393190D01*
X28028900Y-994410D02*
X28028900Y-1393190D01*
X27829510Y-1193800D02*
X28228290Y-1193800D01*
X27829510Y-2899410D02*
X28228290Y-3298190D01*
X28228290Y-2899410D02*
X27829510Y-3298190D01*
X28028900Y-2899410D02*
X28028900Y-3298190D01*
X27829510Y-3098800D02*
X28228290Y-3098800D01*
X27829510Y-2899410D02*
X28228290Y-3298190D01*
X28228290Y-2899410D02*
X27829510Y-3298190D01*
X28028900Y-2899410D02*
X28028900Y-3298190D01*
X27829510Y-3098800D02*
X28228290Y-3098800D01*
D11*
X-9682381Y-8472162D02*
X-9682381Y-8272162D01*
X-9634762Y-8272162D01*
X-9606191Y-8281686D01*
X-9587143Y-8300733D01*
X-9577619Y-8319781D01*
X-9568095Y-8357876D01*
X-9568095Y-8386448D01*
X-9577619Y-8424543D01*
X-9587143Y-8443590D01*
X-9606191Y-8462638D01*
X-9634762Y-8472162D01*
X-9682381Y-8472162D01*
X-9482381Y-8472162D02*
X-9482381Y-8338828D01*
X-9482381Y-8376924D02*
X-9472857Y-8357876D01*
X-9463333Y-8348352D01*
X-9444286Y-8338828D01*
X-9425238Y-8338828D01*
X-9358572Y-8472162D02*
X-9358572Y-8338828D01*
X-9358572Y-8272162D02*
X-9368095Y-8281686D01*
X-9358572Y-8291209D01*
X-9349048Y-8281686D01*
X-9358572Y-8272162D01*
X-9358572Y-8291209D01*
X-9234762Y-8472162D02*
X-9253810Y-8462638D01*
X-9263333Y-8443590D01*
X-9263333Y-8272162D01*
X-9130000Y-8472162D02*
X-9149048Y-8462638D01*
X-9158572Y-8443590D01*
X-9158572Y-8272162D01*
X-8901429Y-8472162D02*
X-8901429Y-8272162D01*
X-8834762Y-8415019D01*
X-8768095Y-8272162D01*
X-8768095Y-8472162D01*
X-8587143Y-8472162D02*
X-8587143Y-8367400D01*
X-8596667Y-8348352D01*
X-8615714Y-8338828D01*
X-8653810Y-8338828D01*
X-8672857Y-8348352D01*
X-8587143Y-8462638D02*
X-8606191Y-8472162D01*
X-8653810Y-8472162D01*
X-8672857Y-8462638D01*
X-8682381Y-8443590D01*
X-8682381Y-8424543D01*
X-8672857Y-8405495D01*
X-8653810Y-8395971D01*
X-8606191Y-8395971D01*
X-8587143Y-8386448D01*
X-8491905Y-8338828D02*
X-8491905Y-8538829D01*
X-8491905Y-8348352D02*
X-8472857Y-8338828D01*
X-8434762Y-8338828D01*
X-8415714Y-8348352D01*
X-8406191Y-8357876D01*
X-8396667Y-8376924D01*
X-8396667Y-8434067D01*
X-8406191Y-8453114D01*
X-8415714Y-8462638D01*
X-8434762Y-8472162D01*
X-8472857Y-8472162D01*
X-8491905Y-8462638D01*
X-8310952Y-8453114D02*
X-8301429Y-8462638D01*
X-8310952Y-8472162D01*
X-8320476Y-8462638D01*
X-8310952Y-8453114D01*
X-8310952Y-8472162D01*
X-8310952Y-8348352D02*
X-8301429Y-8357876D01*
X-8310952Y-8367400D01*
X-8320476Y-8357876D01*
X-8310952Y-8348352D01*
X-8310952Y-8367400D01*
D12*
X-10005000Y-8769186D02*
X-9940000Y-8834186D01*
X-9940000Y-8769186D02*
X-10005000Y-8834186D01*
D11*
X-9644286Y-8692162D02*
X-9625238Y-8692162D01*
X-9606191Y-8701686D01*
X-9596667Y-8711210D01*
X-9587143Y-8730257D01*
X-9577619Y-8768352D01*
X-9577619Y-8815971D01*
X-9587143Y-8854067D01*
X-9596667Y-8873114D01*
X-9606191Y-8882638D01*
X-9625238Y-8892162D01*
X-9644286Y-8892162D01*
X-9663333Y-8882638D01*
X-9672857Y-8873114D01*
X-9682381Y-8854067D01*
X-9691905Y-8815971D01*
X-9691905Y-8768352D01*
X-9682381Y-8730257D01*
X-9672857Y-8711210D01*
X-9663333Y-8701686D01*
X-9644286Y-8692162D01*
X-9491905Y-8873114D02*
X-9482381Y-8882638D01*
X-9491905Y-8892162D01*
X-9501429Y-8882638D01*
X-9491905Y-8873114D01*
X-9491905Y-8892162D01*
X-9310952Y-8692162D02*
X-9349048Y-8692162D01*
X-9368095Y-8701686D01*
X-9377619Y-8711210D01*
X-9396667Y-8739781D01*
X-9406191Y-8777876D01*
X-9406191Y-8854067D01*
X-9396667Y-8873114D01*
X-9387143Y-8882638D01*
X-9368095Y-8892162D01*
X-9330000Y-8892162D01*
X-9310952Y-8882638D01*
X-9301429Y-8873114D01*
X-9291905Y-8854067D01*
X-9291905Y-8806448D01*
X-9301429Y-8787400D01*
X-9310952Y-8777876D01*
X-9330000Y-8768352D01*
X-9368095Y-8768352D01*
X-9387143Y-8777876D01*
X-9396667Y-8787400D01*
X-9406191Y-8806448D01*
X-9110952Y-8692162D02*
X-9206191Y-8692162D01*
X-9215714Y-8787400D01*
X-9206191Y-8777876D01*
X-9187143Y-8768352D01*
X-9139524Y-8768352D01*
X-9120476Y-8777876D01*
X-9110952Y-8787400D01*
X-9101429Y-8806448D01*
X-9101429Y-8854067D01*
X-9110952Y-8873114D01*
X-9120476Y-8882638D01*
X-9139524Y-8892162D01*
X-9187143Y-8892162D01*
X-9206191Y-8882638D01*
X-9215714Y-8873114D01*
X-8977619Y-8692162D02*
X-8958572Y-8692162D01*
X-8939524Y-8701686D01*
X-8930000Y-8711210D01*
X-8920476Y-8730257D01*
X-8910952Y-8768352D01*
X-8910952Y-8815971D01*
X-8920476Y-8854067D01*
X-8930000Y-8873114D01*
X-8939524Y-8882638D01*
X-8958572Y-8892162D01*
X-8977619Y-8892162D01*
X-8996667Y-8882638D01*
X-9006191Y-8873114D01*
X-9015714Y-8854067D01*
X-9025238Y-8815971D01*
X-9025238Y-8768352D01*
X-9015714Y-8730257D01*
X-9006191Y-8711210D01*
X-8996667Y-8701686D01*
X-8977619Y-8692162D01*
X-8825238Y-8892162D02*
X-8825238Y-8758829D01*
X-8825238Y-8777876D02*
X-8815714Y-8768352D01*
X-8796667Y-8758829D01*
X-8768095Y-8758829D01*
X-8749048Y-8768352D01*
X-8739524Y-8787400D01*
X-8739524Y-8892162D01*
X-8739524Y-8787400D02*
X-8730000Y-8768352D01*
X-8710952Y-8758829D01*
X-8682381Y-8758829D01*
X-8663333Y-8768352D01*
X-8653810Y-8787400D01*
X-8653810Y-8892162D01*
X-8558572Y-8892162D02*
X-8558572Y-8758829D01*
X-8558572Y-8777876D02*
X-8549048Y-8768352D01*
X-8530000Y-8758829D01*
X-8501429Y-8758829D01*
X-8482381Y-8768352D01*
X-8472857Y-8787400D01*
X-8472857Y-8892162D01*
X-8472857Y-8787400D02*
X-8463333Y-8768352D01*
X-8444286Y-8758829D01*
X-8415714Y-8758829D01*
X-8396667Y-8768352D01*
X-8387143Y-8787400D01*
X-8387143Y-8892162D01*
X-7996667Y-8682638D02*
X-8168095Y-8939781D01*
X-7739524Y-8692162D02*
X-7720476Y-8692162D01*
X-7701429Y-8701686D01*
X-7691905Y-8711210D01*
X-7682381Y-8730257D01*
X-7672857Y-8768352D01*
X-7672857Y-8815971D01*
X-7682381Y-8854067D01*
X-7691905Y-8873114D01*
X-7701429Y-8882638D01*
X-7720476Y-8892162D01*
X-7739524Y-8892162D01*
X-7758571Y-8882638D01*
X-7768095Y-8873114D01*
X-7777619Y-8854067D01*
X-7787143Y-8815971D01*
X-7787143Y-8768352D01*
X-7777619Y-8730257D01*
X-7768095Y-8711210D01*
X-7758571Y-8701686D01*
X-7739524Y-8692162D01*
X-7587143Y-8873114D02*
X-7577619Y-8882638D01*
X-7587143Y-8892162D01*
X-7596667Y-8882638D01*
X-7587143Y-8873114D01*
X-7587143Y-8892162D01*
X-7453810Y-8692162D02*
X-7434762Y-8692162D01*
X-7415714Y-8701686D01*
X-7406190Y-8711210D01*
X-7396667Y-8730257D01*
X-7387143Y-8768352D01*
X-7387143Y-8815971D01*
X-7396667Y-8854067D01*
X-7406190Y-8873114D01*
X-7415714Y-8882638D01*
X-7434762Y-8892162D01*
X-7453810Y-8892162D01*
X-7472857Y-8882638D01*
X-7482381Y-8873114D01*
X-7491905Y-8854067D01*
X-7501429Y-8815971D01*
X-7501429Y-8768352D01*
X-7491905Y-8730257D01*
X-7482381Y-8711210D01*
X-7472857Y-8701686D01*
X-7453810Y-8692162D01*
X-7310952Y-8711210D02*
X-7301429Y-8701686D01*
X-7282381Y-8692162D01*
X-7234762Y-8692162D01*
X-7215714Y-8701686D01*
X-7206190Y-8711210D01*
X-7196667Y-8730257D01*
X-7196667Y-8749305D01*
X-7206190Y-8777876D01*
X-7320476Y-8892162D01*
X-7196667Y-8892162D01*
X-7015714Y-8692162D02*
X-7110952Y-8692162D01*
X-7120476Y-8787400D01*
X-7110952Y-8777876D01*
X-7091905Y-8768352D01*
X-7044286Y-8768352D01*
X-7025238Y-8777876D01*
X-7015714Y-8787400D01*
X-7006190Y-8806448D01*
X-7006190Y-8854067D01*
X-7015714Y-8873114D01*
X-7025238Y-8882638D01*
X-7044286Y-8892162D01*
X-7091905Y-8892162D01*
X-7110952Y-8882638D01*
X-7120476Y-8873114D01*
X-6834762Y-8692162D02*
X-6872857Y-8692162D01*
X-6891905Y-8701686D01*
X-6901429Y-8711210D01*
X-6920476Y-8739781D01*
X-6930000Y-8777876D01*
X-6930000Y-8854067D01*
X-6920476Y-8873114D01*
X-6910952Y-8882638D01*
X-6891905Y-8892162D01*
X-6853810Y-8892162D01*
X-6834762Y-8882638D01*
X-6825238Y-8873114D01*
X-6815714Y-8854067D01*
X-6815714Y-8806448D01*
X-6825238Y-8787400D01*
X-6834762Y-8777876D01*
X-6853810Y-8768352D01*
X-6891905Y-8768352D01*
X-6910952Y-8777876D01*
X-6920476Y-8787400D01*
X-6930000Y-8806448D01*
X-6739524Y-8692162D02*
X-6739524Y-8730257D01*
X-6663333Y-8692162D02*
X-6663333Y-8730257D01*
X-6368095Y-8968352D02*
X-6377619Y-8958829D01*
X-6396667Y-8930257D01*
X-6406190Y-8911210D01*
X-6415714Y-8882638D01*
X-6425238Y-8835019D01*
X-6425238Y-8796924D01*
X-6415714Y-8749305D01*
X-6406190Y-8720733D01*
X-6396667Y-8701686D01*
X-6377619Y-8673114D01*
X-6368095Y-8663590D01*
X-6206190Y-8758829D02*
X-6206190Y-8892162D01*
X-6253810Y-8682638D02*
X-6301429Y-8825495D01*
X-6177619Y-8825495D01*
X-5949048Y-8892162D02*
X-5949048Y-8692162D01*
X-5863333Y-8892162D02*
X-5863333Y-8787400D01*
X-5872857Y-8768352D01*
X-5891905Y-8758829D01*
X-5920476Y-8758829D01*
X-5939524Y-8768352D01*
X-5949048Y-8777876D01*
X-5739524Y-8892162D02*
X-5758571Y-8882638D01*
X-5768095Y-8873114D01*
X-5777619Y-8854067D01*
X-5777619Y-8796924D01*
X-5768095Y-8777876D01*
X-5758571Y-8768352D01*
X-5739524Y-8758829D01*
X-5710952Y-8758829D01*
X-5691905Y-8768352D01*
X-5682381Y-8777876D01*
X-5672857Y-8796924D01*
X-5672857Y-8854067D01*
X-5682381Y-8873114D01*
X-5691905Y-8882638D01*
X-5710952Y-8892162D01*
X-5739524Y-8892162D01*
X-5558572Y-8892162D02*
X-5577619Y-8882638D01*
X-5587143Y-8863590D01*
X-5587143Y-8692162D01*
X-5406191Y-8882638D02*
X-5425238Y-8892162D01*
X-5463333Y-8892162D01*
X-5482381Y-8882638D01*
X-5491905Y-8863590D01*
X-5491905Y-8787400D01*
X-5482381Y-8768352D01*
X-5463333Y-8758829D01*
X-5425238Y-8758829D01*
X-5406191Y-8768352D01*
X-5396667Y-8787400D01*
X-5396667Y-8806448D01*
X-5491905Y-8825495D01*
X-5320476Y-8882638D02*
X-5301429Y-8892162D01*
X-5263333Y-8892162D01*
X-5244286Y-8882638D01*
X-5234762Y-8863590D01*
X-5234762Y-8854067D01*
X-5244286Y-8835019D01*
X-5263333Y-8825495D01*
X-5291905Y-8825495D01*
X-5310952Y-8815971D01*
X-5320476Y-8796924D01*
X-5320476Y-8787400D01*
X-5310952Y-8768352D01*
X-5291905Y-8758829D01*
X-5263333Y-8758829D01*
X-5244286Y-8768352D01*
X-5168095Y-8968352D02*
X-5158572Y-8958829D01*
X-5139524Y-8930257D01*
X-5130000Y-8911210D01*
X-5120476Y-8882638D01*
X-5110952Y-8835019D01*
X-5110952Y-8796924D01*
X-5120476Y-8749305D01*
X-5130000Y-8720733D01*
X-5139524Y-8701686D01*
X-5158572Y-8673114D01*
X-5168095Y-8663590D01*
X-4806191Y-8968352D02*
X-4815714Y-8958829D01*
X-4834762Y-8930257D01*
X-4844286Y-8911210D01*
X-4853810Y-8882638D01*
X-4863333Y-8835019D01*
X-4863333Y-8796924D01*
X-4853810Y-8749305D01*
X-4844286Y-8720733D01*
X-4834762Y-8701686D01*
X-4815714Y-8673114D01*
X-4806191Y-8663590D01*
X-4730000Y-8758829D02*
X-4730000Y-8892162D01*
X-4730000Y-8777876D02*
X-4720476Y-8768352D01*
X-4701429Y-8758829D01*
X-4672857Y-8758829D01*
X-4653810Y-8768352D01*
X-4644286Y-8787400D01*
X-4644286Y-8892162D01*
X-4520476Y-8892162D02*
X-4539524Y-8882638D01*
X-4549048Y-8873114D01*
X-4558572Y-8854067D01*
X-4558572Y-8796924D01*
X-4549048Y-8777876D01*
X-4539524Y-8768352D01*
X-4520476Y-8758829D01*
X-4491905Y-8758829D01*
X-4472857Y-8768352D01*
X-4463333Y-8777876D01*
X-4453810Y-8796924D01*
X-4453810Y-8854067D01*
X-4463333Y-8873114D01*
X-4472857Y-8882638D01*
X-4491905Y-8892162D01*
X-4520476Y-8892162D01*
X-4396667Y-8758829D02*
X-4320476Y-8758829D01*
X-4368095Y-8692162D02*
X-4368095Y-8863590D01*
X-4358572Y-8882638D01*
X-4339524Y-8892162D01*
X-4320476Y-8892162D01*
X-4101429Y-8758829D02*
X-4101429Y-8958829D01*
X-4101429Y-8768352D02*
X-4082381Y-8758829D01*
X-4044286Y-8758829D01*
X-4025238Y-8768352D01*
X-4015714Y-8777876D01*
X-4006190Y-8796924D01*
X-4006190Y-8854067D01*
X-4015714Y-8873114D01*
X-4025238Y-8882638D01*
X-4044286Y-8892162D01*
X-4082381Y-8892162D01*
X-4101429Y-8882638D01*
X-3891905Y-8892162D02*
X-3910952Y-8882638D01*
X-3920476Y-8863590D01*
X-3920476Y-8692162D01*
X-3730000Y-8892162D02*
X-3730000Y-8787400D01*
X-3739524Y-8768352D01*
X-3758571Y-8758829D01*
X-3796667Y-8758829D01*
X-3815714Y-8768352D01*
X-3730000Y-8882638D02*
X-3749048Y-8892162D01*
X-3796667Y-8892162D01*
X-3815714Y-8882638D01*
X-3825238Y-8863590D01*
X-3825238Y-8844543D01*
X-3815714Y-8825495D01*
X-3796667Y-8815971D01*
X-3749048Y-8815971D01*
X-3730000Y-8806448D01*
X-3663333Y-8758829D02*
X-3587143Y-8758829D01*
X-3634762Y-8692162D02*
X-3634762Y-8863590D01*
X-3625238Y-8882638D01*
X-3606190Y-8892162D01*
X-3587143Y-8892162D01*
X-3444286Y-8882638D02*
X-3463333Y-8892162D01*
X-3501429Y-8892162D01*
X-3520476Y-8882638D01*
X-3530000Y-8863590D01*
X-3530000Y-8787400D01*
X-3520476Y-8768352D01*
X-3501429Y-8758829D01*
X-3463333Y-8758829D01*
X-3444286Y-8768352D01*
X-3434762Y-8787400D01*
X-3434762Y-8806448D01*
X-3530000Y-8825495D01*
X-3263333Y-8892162D02*
X-3263333Y-8692162D01*
X-3263333Y-8882638D02*
X-3282381Y-8892162D01*
X-3320476Y-8892162D01*
X-3339524Y-8882638D01*
X-3349048Y-8873114D01*
X-3358571Y-8854067D01*
X-3358571Y-8796924D01*
X-3349048Y-8777876D01*
X-3339524Y-8768352D01*
X-3320476Y-8758829D01*
X-3282381Y-8758829D01*
X-3263333Y-8768352D01*
X-3187143Y-8968352D02*
X-3177619Y-8958829D01*
X-3158571Y-8930257D01*
X-3149048Y-8911210D01*
X-3139524Y-8882638D01*
X-3130000Y-8835019D01*
X-3130000Y-8796924D01*
X-3139524Y-8749305D01*
X-3149048Y-8720733D01*
X-3158571Y-8701686D01*
X-3177619Y-8673114D01*
X-3187143Y-8663590D01*
D13*
X-9940000Y-9065686D02*
G75*
G03*
X-9940000Y-9065686I-39370J0D01*
G01*
D11*
X-9644286Y-8956162D02*
X-9625238Y-8956162D01*
X-9606191Y-8965686D01*
X-9596667Y-8975210D01*
X-9587143Y-8994257D01*
X-9577619Y-9032352D01*
X-9577619Y-9079971D01*
X-9587143Y-9118067D01*
X-9596667Y-9137114D01*
X-9606191Y-9146638D01*
X-9625238Y-9156162D01*
X-9644286Y-9156162D01*
X-9663333Y-9146638D01*
X-9672857Y-9137114D01*
X-9682381Y-9118067D01*
X-9691905Y-9079971D01*
X-9691905Y-9032352D01*
X-9682381Y-8994257D01*
X-9672857Y-8975210D01*
X-9663333Y-8965686D01*
X-9644286Y-8956162D01*
X-9491905Y-9137114D02*
X-9482381Y-9146638D01*
X-9491905Y-9156162D01*
X-9501429Y-9146638D01*
X-9491905Y-9137114D01*
X-9491905Y-9156162D01*
X-9415714Y-8956162D02*
X-9282381Y-8956162D01*
X-9368095Y-9156162D01*
X-9177619Y-9041876D02*
X-9196667Y-9032352D01*
X-9206191Y-9022829D01*
X-9215714Y-9003781D01*
X-9215714Y-8994257D01*
X-9206191Y-8975210D01*
X-9196667Y-8965686D01*
X-9177619Y-8956162D01*
X-9139524Y-8956162D01*
X-9120476Y-8965686D01*
X-9110952Y-8975210D01*
X-9101429Y-8994257D01*
X-9101429Y-9003781D01*
X-9110952Y-9022829D01*
X-9120476Y-9032352D01*
X-9139524Y-9041876D01*
X-9177619Y-9041876D01*
X-9196667Y-9051400D01*
X-9206191Y-9060924D01*
X-9215714Y-9079971D01*
X-9215714Y-9118067D01*
X-9206191Y-9137114D01*
X-9196667Y-9146638D01*
X-9177619Y-9156162D01*
X-9139524Y-9156162D01*
X-9120476Y-9146638D01*
X-9110952Y-9137114D01*
X-9101429Y-9118067D01*
X-9101429Y-9079971D01*
X-9110952Y-9060924D01*
X-9120476Y-9051400D01*
X-9139524Y-9041876D01*
X-9034762Y-8956162D02*
X-8901429Y-8956162D01*
X-8987143Y-9156162D01*
X-8825238Y-9156162D02*
X-8825238Y-9022829D01*
X-8825238Y-9041876D02*
X-8815714Y-9032352D01*
X-8796667Y-9022829D01*
X-8768095Y-9022829D01*
X-8749048Y-9032352D01*
X-8739524Y-9051400D01*
X-8739524Y-9156162D01*
X-8739524Y-9051400D02*
X-8730000Y-9032352D01*
X-8710952Y-9022829D01*
X-8682381Y-9022829D01*
X-8663333Y-9032352D01*
X-8653810Y-9051400D01*
X-8653810Y-9156162D01*
X-8558572Y-9156162D02*
X-8558572Y-9022829D01*
X-8558572Y-9041876D02*
X-8549048Y-9032352D01*
X-8530000Y-9022829D01*
X-8501429Y-9022829D01*
X-8482381Y-9032352D01*
X-8472857Y-9051400D01*
X-8472857Y-9156162D01*
X-8472857Y-9051400D02*
X-8463333Y-9032352D01*
X-8444286Y-9022829D01*
X-8415714Y-9022829D01*
X-8396667Y-9032352D01*
X-8387143Y-9051400D01*
X-8387143Y-9156162D01*
X-7996667Y-8946638D02*
X-8168095Y-9203781D01*
X-7739524Y-8956162D02*
X-7720476Y-8956162D01*
X-7701429Y-8965686D01*
X-7691905Y-8975210D01*
X-7682381Y-8994257D01*
X-7672857Y-9032352D01*
X-7672857Y-9079971D01*
X-7682381Y-9118067D01*
X-7691905Y-9137114D01*
X-7701429Y-9146638D01*
X-7720476Y-9156162D01*
X-7739524Y-9156162D01*
X-7758571Y-9146638D01*
X-7768095Y-9137114D01*
X-7777619Y-9118067D01*
X-7787143Y-9079971D01*
X-7787143Y-9032352D01*
X-7777619Y-8994257D01*
X-7768095Y-8975210D01*
X-7758571Y-8965686D01*
X-7739524Y-8956162D01*
X-7587143Y-9137114D02*
X-7577619Y-9146638D01*
X-7587143Y-9156162D01*
X-7596667Y-9146638D01*
X-7587143Y-9137114D01*
X-7587143Y-9156162D01*
X-7453810Y-8956162D02*
X-7434762Y-8956162D01*
X-7415714Y-8965686D01*
X-7406190Y-8975210D01*
X-7396667Y-8994257D01*
X-7387143Y-9032352D01*
X-7387143Y-9079971D01*
X-7396667Y-9118067D01*
X-7406190Y-9137114D01*
X-7415714Y-9146638D01*
X-7434762Y-9156162D01*
X-7453810Y-9156162D01*
X-7472857Y-9146638D01*
X-7482381Y-9137114D01*
X-7491905Y-9118067D01*
X-7501429Y-9079971D01*
X-7501429Y-9032352D01*
X-7491905Y-8994257D01*
X-7482381Y-8975210D01*
X-7472857Y-8965686D01*
X-7453810Y-8956162D01*
X-7320476Y-8956162D02*
X-7196667Y-8956162D01*
X-7263333Y-9032352D01*
X-7234762Y-9032352D01*
X-7215714Y-9041876D01*
X-7206190Y-9051400D01*
X-7196667Y-9070448D01*
X-7196667Y-9118067D01*
X-7206190Y-9137114D01*
X-7215714Y-9146638D01*
X-7234762Y-9156162D01*
X-7291905Y-9156162D01*
X-7310952Y-9146638D01*
X-7320476Y-9137114D01*
X-7006190Y-9156162D02*
X-7120476Y-9156162D01*
X-7063333Y-9156162D02*
X-7063333Y-8956162D01*
X-7082381Y-8984733D01*
X-7101429Y-9003781D01*
X-7120476Y-9013305D01*
X-6882381Y-8956162D02*
X-6863333Y-8956162D01*
X-6844286Y-8965686D01*
X-6834762Y-8975210D01*
X-6825238Y-8994257D01*
X-6815714Y-9032352D01*
X-6815714Y-9079971D01*
X-6825238Y-9118067D01*
X-6834762Y-9137114D01*
X-6844286Y-9146638D01*
X-6863333Y-9156162D01*
X-6882381Y-9156162D01*
X-6901429Y-9146638D01*
X-6910952Y-9137114D01*
X-6920476Y-9118067D01*
X-6930000Y-9079971D01*
X-6930000Y-9032352D01*
X-6920476Y-8994257D01*
X-6910952Y-8975210D01*
X-6901429Y-8965686D01*
X-6882381Y-8956162D01*
X-6739524Y-8956162D02*
X-6739524Y-8994257D01*
X-6663333Y-8956162D02*
X-6663333Y-8994257D01*
X-6368095Y-9232352D02*
X-6377619Y-9222829D01*
X-6396667Y-9194257D01*
X-6406190Y-9175210D01*
X-6415714Y-9146638D01*
X-6425238Y-9099019D01*
X-6425238Y-9060924D01*
X-6415714Y-9013305D01*
X-6406190Y-8984733D01*
X-6396667Y-8965686D01*
X-6377619Y-8937114D01*
X-6368095Y-8927590D01*
X-6310952Y-8956162D02*
X-6177619Y-8956162D01*
X-6263333Y-9156162D01*
X-6063333Y-8956162D02*
X-6044286Y-8956162D01*
X-6025238Y-8965686D01*
X-6015714Y-8975210D01*
X-6006190Y-8994257D01*
X-5996667Y-9032352D01*
X-5996667Y-9079971D01*
X-6006190Y-9118067D01*
X-6015714Y-9137114D01*
X-6025238Y-9146638D01*
X-6044286Y-9156162D01*
X-6063333Y-9156162D01*
X-6082381Y-9146638D01*
X-6091905Y-9137114D01*
X-6101429Y-9118067D01*
X-6110952Y-9079971D01*
X-6110952Y-9032352D01*
X-6101429Y-8994257D01*
X-6091905Y-8975210D01*
X-6082381Y-8965686D01*
X-6063333Y-8956162D01*
X-5758571Y-9156162D02*
X-5758571Y-8956162D01*
X-5672857Y-9156162D02*
X-5672857Y-9051400D01*
X-5682381Y-9032352D01*
X-5701429Y-9022829D01*
X-5730000Y-9022829D01*
X-5749048Y-9032352D01*
X-5758571Y-9041876D01*
X-5549048Y-9156162D02*
X-5568095Y-9146638D01*
X-5577619Y-9137114D01*
X-5587143Y-9118067D01*
X-5587143Y-9060924D01*
X-5577619Y-9041876D01*
X-5568095Y-9032352D01*
X-5549048Y-9022829D01*
X-5520476Y-9022829D01*
X-5501429Y-9032352D01*
X-5491905Y-9041876D01*
X-5482381Y-9060924D01*
X-5482381Y-9118067D01*
X-5491905Y-9137114D01*
X-5501429Y-9146638D01*
X-5520476Y-9156162D01*
X-5549048Y-9156162D01*
X-5368095Y-9156162D02*
X-5387143Y-9146638D01*
X-5396667Y-9127590D01*
X-5396667Y-8956162D01*
X-5215714Y-9146638D02*
X-5234762Y-9156162D01*
X-5272857Y-9156162D01*
X-5291905Y-9146638D01*
X-5301429Y-9127590D01*
X-5301429Y-9051400D01*
X-5291905Y-9032352D01*
X-5272857Y-9022829D01*
X-5234762Y-9022829D01*
X-5215714Y-9032352D01*
X-5206191Y-9051400D01*
X-5206191Y-9070448D01*
X-5301429Y-9089495D01*
X-5130000Y-9146638D02*
X-5110952Y-9156162D01*
X-5072857Y-9156162D01*
X-5053810Y-9146638D01*
X-5044286Y-9127590D01*
X-5044286Y-9118067D01*
X-5053810Y-9099019D01*
X-5072857Y-9089495D01*
X-5101429Y-9089495D01*
X-5120476Y-9079971D01*
X-5130000Y-9060924D01*
X-5130000Y-9051400D01*
X-5120476Y-9032352D01*
X-5101429Y-9022829D01*
X-5072857Y-9022829D01*
X-5053810Y-9032352D01*
X-4977619Y-9232352D02*
X-4968095Y-9222829D01*
X-4949048Y-9194257D01*
X-4939524Y-9175210D01*
X-4930000Y-9146638D01*
X-4920476Y-9099019D01*
X-4920476Y-9060924D01*
X-4930000Y-9013305D01*
X-4939524Y-8984733D01*
X-4949048Y-8965686D01*
X-4968095Y-8937114D01*
X-4977619Y-8927590D01*
X-4615714Y-9232352D02*
X-4625238Y-9222829D01*
X-4644286Y-9194257D01*
X-4653810Y-9175210D01*
X-4663333Y-9146638D01*
X-4672857Y-9099019D01*
X-4672857Y-9060924D01*
X-4663333Y-9013305D01*
X-4653810Y-8984733D01*
X-4644286Y-8965686D01*
X-4625238Y-8937114D01*
X-4615714Y-8927590D01*
X-4539524Y-9022829D02*
X-4539524Y-9156162D01*
X-4539524Y-9041876D02*
X-4530000Y-9032352D01*
X-4510952Y-9022829D01*
X-4482381Y-9022829D01*
X-4463333Y-9032352D01*
X-4453810Y-9051400D01*
X-4453810Y-9156162D01*
X-4330000Y-9156162D02*
X-4349048Y-9146638D01*
X-4358572Y-9137114D01*
X-4368095Y-9118067D01*
X-4368095Y-9060924D01*
X-4358572Y-9041876D01*
X-4349048Y-9032352D01*
X-4330000Y-9022829D01*
X-4301429Y-9022829D01*
X-4282381Y-9032352D01*
X-4272857Y-9041876D01*
X-4263333Y-9060924D01*
X-4263333Y-9118067D01*
X-4272857Y-9137114D01*
X-4282381Y-9146638D01*
X-4301429Y-9156162D01*
X-4330000Y-9156162D01*
X-4206191Y-9022829D02*
X-4130000Y-9022829D01*
X-4177619Y-8956162D02*
X-4177619Y-9127590D01*
X-4168095Y-9146638D01*
X-4149048Y-9156162D01*
X-4130000Y-9156162D01*
X-3910952Y-9022829D02*
X-3910952Y-9222829D01*
X-3910952Y-9032352D02*
X-3891905Y-9022829D01*
X-3853810Y-9022829D01*
X-3834762Y-9032352D01*
X-3825238Y-9041876D01*
X-3815714Y-9060924D01*
X-3815714Y-9118067D01*
X-3825238Y-9137114D01*
X-3834762Y-9146638D01*
X-3853810Y-9156162D01*
X-3891905Y-9156162D01*
X-3910952Y-9146638D01*
X-3701429Y-9156162D02*
X-3720476Y-9146638D01*
X-3730000Y-9127590D01*
X-3730000Y-8956162D01*
X-3539524Y-9156162D02*
X-3539524Y-9051400D01*
X-3549048Y-9032352D01*
X-3568095Y-9022829D01*
X-3606190Y-9022829D01*
X-3625238Y-9032352D01*
X-3539524Y-9146638D02*
X-3558571Y-9156162D01*
X-3606190Y-9156162D01*
X-3625238Y-9146638D01*
X-3634762Y-9127590D01*
X-3634762Y-9108543D01*
X-3625238Y-9089495D01*
X-3606190Y-9079971D01*
X-3558571Y-9079971D01*
X-3539524Y-9070448D01*
X-3472857Y-9022829D02*
X-3396667Y-9022829D01*
X-3444286Y-8956162D02*
X-3444286Y-9127590D01*
X-3434762Y-9146638D01*
X-3415714Y-9156162D01*
X-3396667Y-9156162D01*
X-3253810Y-9146638D02*
X-3272857Y-9156162D01*
X-3310952Y-9156162D01*
X-3330000Y-9146638D01*
X-3339524Y-9127590D01*
X-3339524Y-9051400D01*
X-3330000Y-9032352D01*
X-3310952Y-9022829D01*
X-3272857Y-9022829D01*
X-3253810Y-9032352D01*
X-3244286Y-9051400D01*
X-3244286Y-9070448D01*
X-3339524Y-9089495D01*
X-3072857Y-9156162D02*
X-3072857Y-8956162D01*
X-3072857Y-9146638D02*
X-3091905Y-9156162D01*
X-3130000Y-9156162D01*
X-3149048Y-9146638D01*
X-3158571Y-9137114D01*
X-3168095Y-9118067D01*
X-3168095Y-9060924D01*
X-3158571Y-9041876D01*
X-3149048Y-9032352D01*
X-3130000Y-9022829D01*
X-3091905Y-9022829D01*
X-3072857Y-9032352D01*
X-2996667Y-9232352D02*
X-2987143Y-9222829D01*
X-2968095Y-9194257D01*
X-2958571Y-9175210D01*
X-2949048Y-9146638D01*
X-2939524Y-9099019D01*
X-2939524Y-9060924D01*
X-2949048Y-9013305D01*
X-2958571Y-8984733D01*
X-2968095Y-8965686D01*
X-2987143Y-8937114D01*
X-2996667Y-8927590D01*
D14*
X-9980000Y-9289686D02*
X-9980000Y-9369686D01*
X-10020000Y-9329686D02*
X-9940000Y-9329686D01*
D11*
X-9644286Y-9220162D02*
X-9625238Y-9220162D01*
X-9606191Y-9229686D01*
X-9596667Y-9239210D01*
X-9587143Y-9258257D01*
X-9577619Y-9296352D01*
X-9577619Y-9343971D01*
X-9587143Y-9382067D01*
X-9596667Y-9401114D01*
X-9606191Y-9410638D01*
X-9625238Y-9420162D01*
X-9644286Y-9420162D01*
X-9663333Y-9410638D01*
X-9672857Y-9401114D01*
X-9682381Y-9382067D01*
X-9691905Y-9343971D01*
X-9691905Y-9296352D01*
X-9682381Y-9258257D01*
X-9672857Y-9239210D01*
X-9663333Y-9229686D01*
X-9644286Y-9220162D01*
X-9491905Y-9401114D02*
X-9482381Y-9410638D01*
X-9491905Y-9420162D01*
X-9501429Y-9410638D01*
X-9491905Y-9401114D01*
X-9491905Y-9420162D01*
X-9368095Y-9305876D02*
X-9387143Y-9296352D01*
X-9396667Y-9286829D01*
X-9406191Y-9267781D01*
X-9406191Y-9258257D01*
X-9396667Y-9239210D01*
X-9387143Y-9229686D01*
X-9368095Y-9220162D01*
X-9330000Y-9220162D01*
X-9310952Y-9229686D01*
X-9301429Y-9239210D01*
X-9291905Y-9258257D01*
X-9291905Y-9267781D01*
X-9301429Y-9286829D01*
X-9310952Y-9296352D01*
X-9330000Y-9305876D01*
X-9368095Y-9305876D01*
X-9387143Y-9315400D01*
X-9396667Y-9324924D01*
X-9406191Y-9343971D01*
X-9406191Y-9382067D01*
X-9396667Y-9401114D01*
X-9387143Y-9410638D01*
X-9368095Y-9420162D01*
X-9330000Y-9420162D01*
X-9310952Y-9410638D01*
X-9301429Y-9401114D01*
X-9291905Y-9382067D01*
X-9291905Y-9343971D01*
X-9301429Y-9324924D01*
X-9310952Y-9315400D01*
X-9330000Y-9305876D01*
X-9168095Y-9220162D02*
X-9149048Y-9220162D01*
X-9130000Y-9229686D01*
X-9120476Y-9239210D01*
X-9110952Y-9258257D01*
X-9101429Y-9296352D01*
X-9101429Y-9343971D01*
X-9110952Y-9382067D01*
X-9120476Y-9401114D01*
X-9130000Y-9410638D01*
X-9149048Y-9420162D01*
X-9168095Y-9420162D01*
X-9187143Y-9410638D01*
X-9196667Y-9401114D01*
X-9206191Y-9382067D01*
X-9215714Y-9343971D01*
X-9215714Y-9296352D01*
X-9206191Y-9258257D01*
X-9196667Y-9239210D01*
X-9187143Y-9229686D01*
X-9168095Y-9220162D01*
X-8977619Y-9220162D02*
X-8958572Y-9220162D01*
X-8939524Y-9229686D01*
X-8930000Y-9239210D01*
X-8920476Y-9258257D01*
X-8910952Y-9296352D01*
X-8910952Y-9343971D01*
X-8920476Y-9382067D01*
X-8930000Y-9401114D01*
X-8939524Y-9410638D01*
X-8958572Y-9420162D01*
X-8977619Y-9420162D01*
X-8996667Y-9410638D01*
X-9006191Y-9401114D01*
X-9015714Y-9382067D01*
X-9025238Y-9343971D01*
X-9025238Y-9296352D01*
X-9015714Y-9258257D01*
X-9006191Y-9239210D01*
X-8996667Y-9229686D01*
X-8977619Y-9220162D01*
X-8825238Y-9420162D02*
X-8825238Y-9286829D01*
X-8825238Y-9305876D02*
X-8815714Y-9296352D01*
X-8796667Y-9286829D01*
X-8768095Y-9286829D01*
X-8749048Y-9296352D01*
X-8739524Y-9315400D01*
X-8739524Y-9420162D01*
X-8739524Y-9315400D02*
X-8730000Y-9296352D01*
X-8710952Y-9286829D01*
X-8682381Y-9286829D01*
X-8663333Y-9296352D01*
X-8653810Y-9315400D01*
X-8653810Y-9420162D01*
X-8558572Y-9420162D02*
X-8558572Y-9286829D01*
X-8558572Y-9305876D02*
X-8549048Y-9296352D01*
X-8530000Y-9286829D01*
X-8501429Y-9286829D01*
X-8482381Y-9296352D01*
X-8472857Y-9315400D01*
X-8472857Y-9420162D01*
X-8472857Y-9315400D02*
X-8463333Y-9296352D01*
X-8444286Y-9286829D01*
X-8415714Y-9286829D01*
X-8396667Y-9296352D01*
X-8387143Y-9315400D01*
X-8387143Y-9420162D01*
X-7996667Y-9210638D02*
X-8168095Y-9467781D01*
X-7739524Y-9220162D02*
X-7720476Y-9220162D01*
X-7701429Y-9229686D01*
X-7691905Y-9239210D01*
X-7682381Y-9258257D01*
X-7672857Y-9296352D01*
X-7672857Y-9343971D01*
X-7682381Y-9382067D01*
X-7691905Y-9401114D01*
X-7701429Y-9410638D01*
X-7720476Y-9420162D01*
X-7739524Y-9420162D01*
X-7758571Y-9410638D01*
X-7768095Y-9401114D01*
X-7777619Y-9382067D01*
X-7787143Y-9343971D01*
X-7787143Y-9296352D01*
X-7777619Y-9258257D01*
X-7768095Y-9239210D01*
X-7758571Y-9229686D01*
X-7739524Y-9220162D01*
X-7587143Y-9401114D02*
X-7577619Y-9410638D01*
X-7587143Y-9420162D01*
X-7596667Y-9410638D01*
X-7587143Y-9401114D01*
X-7587143Y-9420162D01*
X-7453810Y-9220162D02*
X-7434762Y-9220162D01*
X-7415714Y-9229686D01*
X-7406190Y-9239210D01*
X-7396667Y-9258257D01*
X-7387143Y-9296352D01*
X-7387143Y-9343971D01*
X-7396667Y-9382067D01*
X-7406190Y-9401114D01*
X-7415714Y-9410638D01*
X-7434762Y-9420162D01*
X-7453810Y-9420162D01*
X-7472857Y-9410638D01*
X-7482381Y-9401114D01*
X-7491905Y-9382067D01*
X-7501429Y-9343971D01*
X-7501429Y-9296352D01*
X-7491905Y-9258257D01*
X-7482381Y-9239210D01*
X-7472857Y-9229686D01*
X-7453810Y-9220162D01*
X-7320476Y-9220162D02*
X-7196667Y-9220162D01*
X-7263333Y-9296352D01*
X-7234762Y-9296352D01*
X-7215714Y-9305876D01*
X-7206190Y-9315400D01*
X-7196667Y-9334448D01*
X-7196667Y-9382067D01*
X-7206190Y-9401114D01*
X-7215714Y-9410638D01*
X-7234762Y-9420162D01*
X-7291905Y-9420162D01*
X-7310952Y-9410638D01*
X-7320476Y-9401114D01*
X-7006190Y-9420162D02*
X-7120476Y-9420162D01*
X-7063333Y-9420162D02*
X-7063333Y-9220162D01*
X-7082381Y-9248733D01*
X-7101429Y-9267781D01*
X-7120476Y-9277305D01*
X-6825238Y-9220162D02*
X-6920476Y-9220162D01*
X-6930000Y-9315400D01*
X-6920476Y-9305876D01*
X-6901429Y-9296352D01*
X-6853810Y-9296352D01*
X-6834762Y-9305876D01*
X-6825238Y-9315400D01*
X-6815714Y-9334448D01*
X-6815714Y-9382067D01*
X-6825238Y-9401114D01*
X-6834762Y-9410638D01*
X-6853810Y-9420162D01*
X-6901429Y-9420162D01*
X-6920476Y-9410638D01*
X-6930000Y-9401114D01*
X-6739524Y-9220162D02*
X-6739524Y-9258257D01*
X-6663333Y-9220162D02*
X-6663333Y-9258257D01*
X-6368095Y-9496352D02*
X-6377619Y-9486829D01*
X-6396667Y-9458257D01*
X-6406190Y-9439210D01*
X-6415714Y-9410638D01*
X-6425238Y-9363019D01*
X-6425238Y-9324924D01*
X-6415714Y-9277305D01*
X-6406190Y-9248733D01*
X-6396667Y-9229686D01*
X-6377619Y-9201114D01*
X-6368095Y-9191590D01*
X-6206190Y-9286829D02*
X-6206190Y-9420162D01*
X-6253810Y-9210638D02*
X-6301429Y-9353495D01*
X-6177619Y-9353495D01*
X-5949048Y-9420162D02*
X-5949048Y-9220162D01*
X-5863333Y-9420162D02*
X-5863333Y-9315400D01*
X-5872857Y-9296352D01*
X-5891905Y-9286829D01*
X-5920476Y-9286829D01*
X-5939524Y-9296352D01*
X-5949048Y-9305876D01*
X-5739524Y-9420162D02*
X-5758571Y-9410638D01*
X-5768095Y-9401114D01*
X-5777619Y-9382067D01*
X-5777619Y-9324924D01*
X-5768095Y-9305876D01*
X-5758571Y-9296352D01*
X-5739524Y-9286829D01*
X-5710952Y-9286829D01*
X-5691905Y-9296352D01*
X-5682381Y-9305876D01*
X-5672857Y-9324924D01*
X-5672857Y-9382067D01*
X-5682381Y-9401114D01*
X-5691905Y-9410638D01*
X-5710952Y-9420162D01*
X-5739524Y-9420162D01*
X-5558572Y-9420162D02*
X-5577619Y-9410638D01*
X-5587143Y-9391590D01*
X-5587143Y-9220162D01*
X-5406191Y-9410638D02*
X-5425238Y-9420162D01*
X-5463333Y-9420162D01*
X-5482381Y-9410638D01*
X-5491905Y-9391590D01*
X-5491905Y-9315400D01*
X-5482381Y-9296352D01*
X-5463333Y-9286829D01*
X-5425238Y-9286829D01*
X-5406191Y-9296352D01*
X-5396667Y-9315400D01*
X-5396667Y-9334448D01*
X-5491905Y-9353495D01*
X-5320476Y-9410638D02*
X-5301429Y-9420162D01*
X-5263333Y-9420162D01*
X-5244286Y-9410638D01*
X-5234762Y-9391590D01*
X-5234762Y-9382067D01*
X-5244286Y-9363019D01*
X-5263333Y-9353495D01*
X-5291905Y-9353495D01*
X-5310952Y-9343971D01*
X-5320476Y-9324924D01*
X-5320476Y-9315400D01*
X-5310952Y-9296352D01*
X-5291905Y-9286829D01*
X-5263333Y-9286829D01*
X-5244286Y-9296352D01*
X-5168095Y-9496352D02*
X-5158572Y-9486829D01*
X-5139524Y-9458257D01*
X-5130000Y-9439210D01*
X-5120476Y-9410638D01*
X-5110952Y-9363019D01*
X-5110952Y-9324924D01*
X-5120476Y-9277305D01*
X-5130000Y-9248733D01*
X-5139524Y-9229686D01*
X-5158572Y-9201114D01*
X-5168095Y-9191590D01*
X-4806191Y-9496352D02*
X-4815714Y-9486829D01*
X-4834762Y-9458257D01*
X-4844286Y-9439210D01*
X-4853810Y-9410638D01*
X-4863333Y-9363019D01*
X-4863333Y-9324924D01*
X-4853810Y-9277305D01*
X-4844286Y-9248733D01*
X-4834762Y-9229686D01*
X-4815714Y-9201114D01*
X-4806191Y-9191590D01*
X-4730000Y-9286829D02*
X-4730000Y-9420162D01*
X-4730000Y-9305876D02*
X-4720476Y-9296352D01*
X-4701429Y-9286829D01*
X-4672857Y-9286829D01*
X-4653810Y-9296352D01*
X-4644286Y-9315400D01*
X-4644286Y-9420162D01*
X-4520476Y-9420162D02*
X-4539524Y-9410638D01*
X-4549048Y-9401114D01*
X-4558572Y-9382067D01*
X-4558572Y-9324924D01*
X-4549048Y-9305876D01*
X-4539524Y-9296352D01*
X-4520476Y-9286829D01*
X-4491905Y-9286829D01*
X-4472857Y-9296352D01*
X-4463333Y-9305876D01*
X-4453810Y-9324924D01*
X-4453810Y-9382067D01*
X-4463333Y-9401114D01*
X-4472857Y-9410638D01*
X-4491905Y-9420162D01*
X-4520476Y-9420162D01*
X-4396667Y-9286829D02*
X-4320476Y-9286829D01*
X-4368095Y-9220162D02*
X-4368095Y-9391590D01*
X-4358572Y-9410638D01*
X-4339524Y-9420162D01*
X-4320476Y-9420162D01*
X-4101429Y-9286829D02*
X-4101429Y-9486829D01*
X-4101429Y-9296352D02*
X-4082381Y-9286829D01*
X-4044286Y-9286829D01*
X-4025238Y-9296352D01*
X-4015714Y-9305876D01*
X-4006190Y-9324924D01*
X-4006190Y-9382067D01*
X-4015714Y-9401114D01*
X-4025238Y-9410638D01*
X-4044286Y-9420162D01*
X-4082381Y-9420162D01*
X-4101429Y-9410638D01*
X-3891905Y-9420162D02*
X-3910952Y-9410638D01*
X-3920476Y-9391590D01*
X-3920476Y-9220162D01*
X-3730000Y-9420162D02*
X-3730000Y-9315400D01*
X-3739524Y-9296352D01*
X-3758571Y-9286829D01*
X-3796667Y-9286829D01*
X-3815714Y-9296352D01*
X-3730000Y-9410638D02*
X-3749048Y-9420162D01*
X-3796667Y-9420162D01*
X-3815714Y-9410638D01*
X-3825238Y-9391590D01*
X-3825238Y-9372543D01*
X-3815714Y-9353495D01*
X-3796667Y-9343971D01*
X-3749048Y-9343971D01*
X-3730000Y-9334448D01*
X-3663333Y-9286829D02*
X-3587143Y-9286829D01*
X-3634762Y-9220162D02*
X-3634762Y-9391590D01*
X-3625238Y-9410638D01*
X-3606190Y-9420162D01*
X-3587143Y-9420162D01*
X-3444286Y-9410638D02*
X-3463333Y-9420162D01*
X-3501429Y-9420162D01*
X-3520476Y-9410638D01*
X-3530000Y-9391590D01*
X-3530000Y-9315400D01*
X-3520476Y-9296352D01*
X-3501429Y-9286829D01*
X-3463333Y-9286829D01*
X-3444286Y-9296352D01*
X-3434762Y-9315400D01*
X-3434762Y-9334448D01*
X-3530000Y-9353495D01*
X-3263333Y-9420162D02*
X-3263333Y-9220162D01*
X-3263333Y-9410638D02*
X-3282381Y-9420162D01*
X-3320476Y-9420162D01*
X-3339524Y-9410638D01*
X-3349048Y-9401114D01*
X-3358571Y-9382067D01*
X-3358571Y-9324924D01*
X-3349048Y-9305876D01*
X-3339524Y-9296352D01*
X-3320476Y-9286829D01*
X-3282381Y-9286829D01*
X-3263333Y-9296352D01*
X-3187143Y-9496352D02*
X-3177619Y-9486829D01*
X-3158571Y-9458257D01*
X-3149048Y-9439210D01*
X-3139524Y-9410638D01*
X-3130000Y-9363019D01*
X-3130000Y-9324924D01*
X-3139524Y-9277305D01*
X-3149048Y-9248733D01*
X-3158571Y-9229686D01*
X-3177619Y-9201114D01*
X-3187143Y-9191590D01*
D15*
X-9965628Y-9655558D02*
X-9965628Y-9531813D01*
X-10089373Y-9531813D01*
X-10089373Y-9655558D01*
X-9965628Y-9655558D01*
D11*
X-9577619Y-9684162D02*
X-9691905Y-9684162D01*
X-9634762Y-9684162D02*
X-9634762Y-9484162D01*
X-9653810Y-9512733D01*
X-9672857Y-9531781D01*
X-9691905Y-9541305D01*
X-9491905Y-9665114D02*
X-9482381Y-9674638D01*
X-9491905Y-9684162D01*
X-9501429Y-9674638D01*
X-9491905Y-9665114D01*
X-9491905Y-9684162D01*
X-9415714Y-9484162D02*
X-9282381Y-9484162D01*
X-9368095Y-9684162D01*
X-9110952Y-9484162D02*
X-9206191Y-9484162D01*
X-9215714Y-9579400D01*
X-9206191Y-9569876D01*
X-9187143Y-9560352D01*
X-9139524Y-9560352D01*
X-9120476Y-9569876D01*
X-9110952Y-9579400D01*
X-9101429Y-9598448D01*
X-9101429Y-9646067D01*
X-9110952Y-9665114D01*
X-9120476Y-9674638D01*
X-9139524Y-9684162D01*
X-9187143Y-9684162D01*
X-9206191Y-9674638D01*
X-9215714Y-9665114D01*
X-8977619Y-9484162D02*
X-8958572Y-9484162D01*
X-8939524Y-9493686D01*
X-8930000Y-9503210D01*
X-8920476Y-9522257D01*
X-8910952Y-9560352D01*
X-8910952Y-9607971D01*
X-8920476Y-9646067D01*
X-8930000Y-9665114D01*
X-8939524Y-9674638D01*
X-8958572Y-9684162D01*
X-8977619Y-9684162D01*
X-8996667Y-9674638D01*
X-9006191Y-9665114D01*
X-9015714Y-9646067D01*
X-9025238Y-9607971D01*
X-9025238Y-9560352D01*
X-9015714Y-9522257D01*
X-9006191Y-9503210D01*
X-8996667Y-9493686D01*
X-8977619Y-9484162D01*
X-8825238Y-9684162D02*
X-8825238Y-9550829D01*
X-8825238Y-9569876D02*
X-8815714Y-9560352D01*
X-8796667Y-9550829D01*
X-8768095Y-9550829D01*
X-8749048Y-9560352D01*
X-8739524Y-9579400D01*
X-8739524Y-9684162D01*
X-8739524Y-9579400D02*
X-8730000Y-9560352D01*
X-8710952Y-9550829D01*
X-8682381Y-9550829D01*
X-8663333Y-9560352D01*
X-8653810Y-9579400D01*
X-8653810Y-9684162D01*
X-8558572Y-9684162D02*
X-8558572Y-9550829D01*
X-8558572Y-9569876D02*
X-8549048Y-9560352D01*
X-8530000Y-9550829D01*
X-8501429Y-9550829D01*
X-8482381Y-9560352D01*
X-8472857Y-9579400D01*
X-8472857Y-9684162D01*
X-8472857Y-9579400D02*
X-8463333Y-9560352D01*
X-8444286Y-9550829D01*
X-8415714Y-9550829D01*
X-8396667Y-9560352D01*
X-8387143Y-9579400D01*
X-8387143Y-9684162D01*
X-7996667Y-9474638D02*
X-8168095Y-9731781D01*
X-7739524Y-9484162D02*
X-7720476Y-9484162D01*
X-7701429Y-9493686D01*
X-7691905Y-9503210D01*
X-7682381Y-9522257D01*
X-7672857Y-9560352D01*
X-7672857Y-9607971D01*
X-7682381Y-9646067D01*
X-7691905Y-9665114D01*
X-7701429Y-9674638D01*
X-7720476Y-9684162D01*
X-7739524Y-9684162D01*
X-7758571Y-9674638D01*
X-7768095Y-9665114D01*
X-7777619Y-9646067D01*
X-7787143Y-9607971D01*
X-7787143Y-9560352D01*
X-7777619Y-9522257D01*
X-7768095Y-9503210D01*
X-7758571Y-9493686D01*
X-7739524Y-9484162D01*
X-7587143Y-9665114D02*
X-7577619Y-9674638D01*
X-7587143Y-9684162D01*
X-7596667Y-9674638D01*
X-7587143Y-9665114D01*
X-7587143Y-9684162D01*
X-7453810Y-9484162D02*
X-7434762Y-9484162D01*
X-7415714Y-9493686D01*
X-7406190Y-9503210D01*
X-7396667Y-9522257D01*
X-7387143Y-9560352D01*
X-7387143Y-9607971D01*
X-7396667Y-9646067D01*
X-7406190Y-9665114D01*
X-7415714Y-9674638D01*
X-7434762Y-9684162D01*
X-7453810Y-9684162D01*
X-7472857Y-9674638D01*
X-7482381Y-9665114D01*
X-7491905Y-9646067D01*
X-7501429Y-9607971D01*
X-7501429Y-9560352D01*
X-7491905Y-9522257D01*
X-7482381Y-9503210D01*
X-7472857Y-9493686D01*
X-7453810Y-9484162D01*
X-7215714Y-9484162D02*
X-7253810Y-9484162D01*
X-7272857Y-9493686D01*
X-7282381Y-9503210D01*
X-7301429Y-9531781D01*
X-7310952Y-9569876D01*
X-7310952Y-9646067D01*
X-7301429Y-9665114D01*
X-7291905Y-9674638D01*
X-7272857Y-9684162D01*
X-7234762Y-9684162D01*
X-7215714Y-9674638D01*
X-7206190Y-9665114D01*
X-7196667Y-9646067D01*
X-7196667Y-9598448D01*
X-7206190Y-9579400D01*
X-7215714Y-9569876D01*
X-7234762Y-9560352D01*
X-7272857Y-9560352D01*
X-7291905Y-9569876D01*
X-7301429Y-9579400D01*
X-7310952Y-9598448D01*
X-7082381Y-9569876D02*
X-7101429Y-9560352D01*
X-7110952Y-9550829D01*
X-7120476Y-9531781D01*
X-7120476Y-9522257D01*
X-7110952Y-9503210D01*
X-7101429Y-9493686D01*
X-7082381Y-9484162D01*
X-7044286Y-9484162D01*
X-7025238Y-9493686D01*
X-7015714Y-9503210D01*
X-7006190Y-9522257D01*
X-7006190Y-9531781D01*
X-7015714Y-9550829D01*
X-7025238Y-9560352D01*
X-7044286Y-9569876D01*
X-7082381Y-9569876D01*
X-7101429Y-9579400D01*
X-7110952Y-9588924D01*
X-7120476Y-9607971D01*
X-7120476Y-9646067D01*
X-7110952Y-9665114D01*
X-7101429Y-9674638D01*
X-7082381Y-9684162D01*
X-7044286Y-9684162D01*
X-7025238Y-9674638D01*
X-7015714Y-9665114D01*
X-7006190Y-9646067D01*
X-7006190Y-9607971D01*
X-7015714Y-9588924D01*
X-7025238Y-9579400D01*
X-7044286Y-9569876D01*
X-6910952Y-9684162D02*
X-6872857Y-9684162D01*
X-6853810Y-9674638D01*
X-6844286Y-9665114D01*
X-6825238Y-9636543D01*
X-6815714Y-9598448D01*
X-6815714Y-9522257D01*
X-6825238Y-9503210D01*
X-6834762Y-9493686D01*
X-6853810Y-9484162D01*
X-6891905Y-9484162D01*
X-6910952Y-9493686D01*
X-6920476Y-9503210D01*
X-6930000Y-9522257D01*
X-6930000Y-9569876D01*
X-6920476Y-9588924D01*
X-6910952Y-9598448D01*
X-6891905Y-9607971D01*
X-6853810Y-9607971D01*
X-6834762Y-9598448D01*
X-6825238Y-9588924D01*
X-6815714Y-9569876D01*
X-6739524Y-9484162D02*
X-6739524Y-9522257D01*
X-6663333Y-9484162D02*
X-6663333Y-9522257D01*
X-6368095Y-9760352D02*
X-6377619Y-9750829D01*
X-6396667Y-9722257D01*
X-6406190Y-9703210D01*
X-6415714Y-9674638D01*
X-6425238Y-9627019D01*
X-6425238Y-9588924D01*
X-6415714Y-9541305D01*
X-6406190Y-9512733D01*
X-6396667Y-9493686D01*
X-6377619Y-9465114D01*
X-6368095Y-9455590D01*
X-6310952Y-9484162D02*
X-6187143Y-9484162D01*
X-6253810Y-9560352D01*
X-6225238Y-9560352D01*
X-6206190Y-9569876D01*
X-6196667Y-9579400D01*
X-6187143Y-9598448D01*
X-6187143Y-9646067D01*
X-6196667Y-9665114D01*
X-6206190Y-9674638D01*
X-6225238Y-9684162D01*
X-6282381Y-9684162D01*
X-6301429Y-9674638D01*
X-6310952Y-9665114D01*
X-6120476Y-9484162D02*
X-5987143Y-9484162D01*
X-6072857Y-9684162D01*
X-5825238Y-9550829D02*
X-5825238Y-9684162D01*
X-5872857Y-9474638D02*
X-5920476Y-9617495D01*
X-5796667Y-9617495D01*
X-5568095Y-9684162D02*
X-5568095Y-9484162D01*
X-5482381Y-9684162D02*
X-5482381Y-9579400D01*
X-5491905Y-9560352D01*
X-5510952Y-9550829D01*
X-5539524Y-9550829D01*
X-5558572Y-9560352D01*
X-5568095Y-9569876D01*
X-5358572Y-9684162D02*
X-5377619Y-9674638D01*
X-5387143Y-9665114D01*
X-5396667Y-9646067D01*
X-5396667Y-9588924D01*
X-5387143Y-9569876D01*
X-5377619Y-9560352D01*
X-5358572Y-9550829D01*
X-5330000Y-9550829D01*
X-5310952Y-9560352D01*
X-5301429Y-9569876D01*
X-5291905Y-9588924D01*
X-5291905Y-9646067D01*
X-5301429Y-9665114D01*
X-5310952Y-9674638D01*
X-5330000Y-9684162D01*
X-5358572Y-9684162D01*
X-5177619Y-9684162D02*
X-5196667Y-9674638D01*
X-5206191Y-9655590D01*
X-5206191Y-9484162D01*
X-5025238Y-9674638D02*
X-5044286Y-9684162D01*
X-5082381Y-9684162D01*
X-5101429Y-9674638D01*
X-5110952Y-9655590D01*
X-5110952Y-9579400D01*
X-5101429Y-9560352D01*
X-5082381Y-9550829D01*
X-5044286Y-9550829D01*
X-5025238Y-9560352D01*
X-5015714Y-9579400D01*
X-5015714Y-9598448D01*
X-5110952Y-9617495D01*
X-4939524Y-9674638D02*
X-4920476Y-9684162D01*
X-4882381Y-9684162D01*
X-4863333Y-9674638D01*
X-4853810Y-9655590D01*
X-4853810Y-9646067D01*
X-4863333Y-9627019D01*
X-4882381Y-9617495D01*
X-4910952Y-9617495D01*
X-4930000Y-9607971D01*
X-4939524Y-9588924D01*
X-4939524Y-9579400D01*
X-4930000Y-9560352D01*
X-4910952Y-9550829D01*
X-4882381Y-9550829D01*
X-4863333Y-9560352D01*
X-4787143Y-9760352D02*
X-4777619Y-9750829D01*
X-4758572Y-9722257D01*
X-4749048Y-9703210D01*
X-4739524Y-9674638D01*
X-4730000Y-9627019D01*
X-4730000Y-9588924D01*
X-4739524Y-9541305D01*
X-4749048Y-9512733D01*
X-4758572Y-9493686D01*
X-4777619Y-9465114D01*
X-4787143Y-9455590D01*
X-4425238Y-9760352D02*
X-4434762Y-9750829D01*
X-4453810Y-9722257D01*
X-4463333Y-9703210D01*
X-4472857Y-9674638D01*
X-4482381Y-9627019D01*
X-4482381Y-9588924D01*
X-4472857Y-9541305D01*
X-4463333Y-9512733D01*
X-4453810Y-9493686D01*
X-4434762Y-9465114D01*
X-4425238Y-9455590D01*
X-4349048Y-9550829D02*
X-4349048Y-9684162D01*
X-4349048Y-9569876D02*
X-4339524Y-9560352D01*
X-4320476Y-9550829D01*
X-4291905Y-9550829D01*
X-4272857Y-9560352D01*
X-4263333Y-9579400D01*
X-4263333Y-9684162D01*
X-4139524Y-9684162D02*
X-4158571Y-9674638D01*
X-4168095Y-9665114D01*
X-4177619Y-9646067D01*
X-4177619Y-9588924D01*
X-4168095Y-9569876D01*
X-4158571Y-9560352D01*
X-4139524Y-9550829D01*
X-4110952Y-9550829D01*
X-4091905Y-9560352D01*
X-4082381Y-9569876D01*
X-4072857Y-9588924D01*
X-4072857Y-9646067D01*
X-4082381Y-9665114D01*
X-4091905Y-9674638D01*
X-4110952Y-9684162D01*
X-4139524Y-9684162D01*
X-4015714Y-9550829D02*
X-3939524Y-9550829D01*
X-3987143Y-9484162D02*
X-3987143Y-9655590D01*
X-3977619Y-9674638D01*
X-3958571Y-9684162D01*
X-3939524Y-9684162D01*
X-3720476Y-9550829D02*
X-3720476Y-9750829D01*
X-3720476Y-9560352D02*
X-3701429Y-9550829D01*
X-3663333Y-9550829D01*
X-3644286Y-9560352D01*
X-3634762Y-9569876D01*
X-3625238Y-9588924D01*
X-3625238Y-9646067D01*
X-3634762Y-9665114D01*
X-3644286Y-9674638D01*
X-3663333Y-9684162D01*
X-3701429Y-9684162D01*
X-3720476Y-9674638D01*
X-3510952Y-9684162D02*
X-3530000Y-9674638D01*
X-3539524Y-9655590D01*
X-3539524Y-9484162D01*
X-3349048Y-9684162D02*
X-3349048Y-9579400D01*
X-3358571Y-9560352D01*
X-3377619Y-9550829D01*
X-3415714Y-9550829D01*
X-3434762Y-9560352D01*
X-3349048Y-9674638D02*
X-3368095Y-9684162D01*
X-3415714Y-9684162D01*
X-3434762Y-9674638D01*
X-3444286Y-9655590D01*
X-3444286Y-9636543D01*
X-3434762Y-9617495D01*
X-3415714Y-9607971D01*
X-3368095Y-9607971D01*
X-3349048Y-9598448D01*
X-3282381Y-9550829D02*
X-3206190Y-9550829D01*
X-3253810Y-9484162D02*
X-3253810Y-9655590D01*
X-3244286Y-9674638D01*
X-3225238Y-9684162D01*
X-3206190Y-9684162D01*
X-3063333Y-9674638D02*
X-3082381Y-9684162D01*
X-3120476Y-9684162D01*
X-3139524Y-9674638D01*
X-3149048Y-9655590D01*
X-3149048Y-9579400D01*
X-3139524Y-9560352D01*
X-3120476Y-9550829D01*
X-3082381Y-9550829D01*
X-3063333Y-9560352D01*
X-3053810Y-9579400D01*
X-3053810Y-9598448D01*
X-3149048Y-9617495D01*
X-2882381Y-9684162D02*
X-2882381Y-9484162D01*
X-2882381Y-9674638D02*
X-2901429Y-9684162D01*
X-2939524Y-9684162D01*
X-2958571Y-9674638D01*
X-2968095Y-9665114D01*
X-2977619Y-9646067D01*
X-2977619Y-9588924D01*
X-2968095Y-9569876D01*
X-2958571Y-9560352D01*
X-2939524Y-9550829D01*
X-2901429Y-9550829D01*
X-2882381Y-9560352D01*
X-2806190Y-9760352D02*
X-2796667Y-9750829D01*
X-2777619Y-9722257D01*
X-2768095Y-9703210D01*
X-2758572Y-9674638D01*
X-2749048Y-9627019D01*
X-2749048Y-9588924D01*
X-2758572Y-9541305D01*
X-2768095Y-9512733D01*
X-2777619Y-9493686D01*
X-2796667Y-9465114D01*
X-2806190Y-9455590D01*
X-10040000Y-9988686D02*
X-9940000Y-9888686D01*
X-10040000Y-9788686D01*
X-10140000Y-9888686D01*
X-10040000Y-9988686D01*
X-9701429Y-9779162D02*
X-9577619Y-9779162D01*
X-9644286Y-9855352D01*
X-9615714Y-9855352D01*
X-9596667Y-9864876D01*
X-9587143Y-9874400D01*
X-9577619Y-9893448D01*
X-9577619Y-9941067D01*
X-9587143Y-9960114D01*
X-9596667Y-9969638D01*
X-9615714Y-9979162D01*
X-9672857Y-9979162D01*
X-9691905Y-9969638D01*
X-9701429Y-9960114D01*
X-9491905Y-9960114D02*
X-9482381Y-9969638D01*
X-9491905Y-9979162D01*
X-9501429Y-9969638D01*
X-9491905Y-9960114D01*
X-9491905Y-9979162D01*
X-9358572Y-9779162D02*
X-9339524Y-9779162D01*
X-9320476Y-9788686D01*
X-9310952Y-9798210D01*
X-9301429Y-9817257D01*
X-9291905Y-9855352D01*
X-9291905Y-9902971D01*
X-9301429Y-9941067D01*
X-9310952Y-9960114D01*
X-9320476Y-9969638D01*
X-9339524Y-9979162D01*
X-9358572Y-9979162D01*
X-9377619Y-9969638D01*
X-9387143Y-9960114D01*
X-9396667Y-9941067D01*
X-9406191Y-9902971D01*
X-9406191Y-9855352D01*
X-9396667Y-9817257D01*
X-9387143Y-9798210D01*
X-9377619Y-9788686D01*
X-9358572Y-9779162D01*
X-9168095Y-9779162D02*
X-9149048Y-9779162D01*
X-9130000Y-9788686D01*
X-9120476Y-9798210D01*
X-9110952Y-9817257D01*
X-9101429Y-9855352D01*
X-9101429Y-9902971D01*
X-9110952Y-9941067D01*
X-9120476Y-9960114D01*
X-9130000Y-9969638D01*
X-9149048Y-9979162D01*
X-9168095Y-9979162D01*
X-9187143Y-9969638D01*
X-9196667Y-9960114D01*
X-9206191Y-9941067D01*
X-9215714Y-9902971D01*
X-9215714Y-9855352D01*
X-9206191Y-9817257D01*
X-9196667Y-9798210D01*
X-9187143Y-9788686D01*
X-9168095Y-9779162D01*
X-8977619Y-9779162D02*
X-8958572Y-9779162D01*
X-8939524Y-9788686D01*
X-8930000Y-9798210D01*
X-8920476Y-9817257D01*
X-8910952Y-9855352D01*
X-8910952Y-9902971D01*
X-8920476Y-9941067D01*
X-8930000Y-9960114D01*
X-8939524Y-9969638D01*
X-8958572Y-9979162D01*
X-8977619Y-9979162D01*
X-8996667Y-9969638D01*
X-9006191Y-9960114D01*
X-9015714Y-9941067D01*
X-9025238Y-9902971D01*
X-9025238Y-9855352D01*
X-9015714Y-9817257D01*
X-9006191Y-9798210D01*
X-8996667Y-9788686D01*
X-8977619Y-9779162D01*
X-8825238Y-9979162D02*
X-8825238Y-9845829D01*
X-8825238Y-9864876D02*
X-8815714Y-9855352D01*
X-8796667Y-9845829D01*
X-8768095Y-9845829D01*
X-8749048Y-9855352D01*
X-8739524Y-9874400D01*
X-8739524Y-9979162D01*
X-8739524Y-9874400D02*
X-8730000Y-9855352D01*
X-8710952Y-9845829D01*
X-8682381Y-9845829D01*
X-8663333Y-9855352D01*
X-8653810Y-9874400D01*
X-8653810Y-9979162D01*
X-8558572Y-9979162D02*
X-8558572Y-9845829D01*
X-8558572Y-9864876D02*
X-8549048Y-9855352D01*
X-8530000Y-9845829D01*
X-8501429Y-9845829D01*
X-8482381Y-9855352D01*
X-8472857Y-9874400D01*
X-8472857Y-9979162D01*
X-8472857Y-9874400D02*
X-8463333Y-9855352D01*
X-8444286Y-9845829D01*
X-8415714Y-9845829D01*
X-8396667Y-9855352D01*
X-8387143Y-9874400D01*
X-8387143Y-9979162D01*
X-7996667Y-9769638D02*
X-8168095Y-10026781D01*
X-7739524Y-9779162D02*
X-7720476Y-9779162D01*
X-7701429Y-9788686D01*
X-7691905Y-9798210D01*
X-7682381Y-9817257D01*
X-7672857Y-9855352D01*
X-7672857Y-9902971D01*
X-7682381Y-9941067D01*
X-7691905Y-9960114D01*
X-7701429Y-9969638D01*
X-7720476Y-9979162D01*
X-7739524Y-9979162D01*
X-7758571Y-9969638D01*
X-7768095Y-9960114D01*
X-7777619Y-9941067D01*
X-7787143Y-9902971D01*
X-7787143Y-9855352D01*
X-7777619Y-9817257D01*
X-7768095Y-9798210D01*
X-7758571Y-9788686D01*
X-7739524Y-9779162D01*
X-7587143Y-9960114D02*
X-7577619Y-9969638D01*
X-7587143Y-9979162D01*
X-7596667Y-9969638D01*
X-7587143Y-9960114D01*
X-7587143Y-9979162D01*
X-7387143Y-9979162D02*
X-7501429Y-9979162D01*
X-7444286Y-9979162D02*
X-7444286Y-9779162D01*
X-7463333Y-9807733D01*
X-7482381Y-9826781D01*
X-7501429Y-9836305D01*
X-7196667Y-9979162D02*
X-7310952Y-9979162D01*
X-7253810Y-9979162D02*
X-7253810Y-9779162D01*
X-7272857Y-9807733D01*
X-7291905Y-9826781D01*
X-7310952Y-9836305D01*
X-7082381Y-9864876D02*
X-7101429Y-9855352D01*
X-7110952Y-9845829D01*
X-7120476Y-9826781D01*
X-7120476Y-9817257D01*
X-7110952Y-9798210D01*
X-7101429Y-9788686D01*
X-7082381Y-9779162D01*
X-7044286Y-9779162D01*
X-7025238Y-9788686D01*
X-7015714Y-9798210D01*
X-7006190Y-9817257D01*
X-7006190Y-9826781D01*
X-7015714Y-9845829D01*
X-7025238Y-9855352D01*
X-7044286Y-9864876D01*
X-7082381Y-9864876D01*
X-7101429Y-9874400D01*
X-7110952Y-9883924D01*
X-7120476Y-9902971D01*
X-7120476Y-9941067D01*
X-7110952Y-9960114D01*
X-7101429Y-9969638D01*
X-7082381Y-9979162D01*
X-7044286Y-9979162D01*
X-7025238Y-9969638D01*
X-7015714Y-9960114D01*
X-7006190Y-9941067D01*
X-7006190Y-9902971D01*
X-7015714Y-9883924D01*
X-7025238Y-9874400D01*
X-7044286Y-9864876D01*
X-6815714Y-9979162D02*
X-6930000Y-9979162D01*
X-6872857Y-9979162D02*
X-6872857Y-9779162D01*
X-6891905Y-9807733D01*
X-6910952Y-9826781D01*
X-6930000Y-9836305D01*
X-6739524Y-9779162D02*
X-6739524Y-9817257D01*
X-6663333Y-9779162D02*
X-6663333Y-9817257D01*
X-6368095Y-10055352D02*
X-6377619Y-10045829D01*
X-6396667Y-10017257D01*
X-6406190Y-9998210D01*
X-6415714Y-9969638D01*
X-6425238Y-9922019D01*
X-6425238Y-9883924D01*
X-6415714Y-9836305D01*
X-6406190Y-9807733D01*
X-6396667Y-9788686D01*
X-6377619Y-9760114D01*
X-6368095Y-9750590D01*
X-6187143Y-9979162D02*
X-6301429Y-9979162D01*
X-6244286Y-9979162D02*
X-6244286Y-9779162D01*
X-6263333Y-9807733D01*
X-6282381Y-9826781D01*
X-6301429Y-9836305D01*
X-6072857Y-9864876D02*
X-6091905Y-9855352D01*
X-6101429Y-9845829D01*
X-6110952Y-9826781D01*
X-6110952Y-9817257D01*
X-6101429Y-9798210D01*
X-6091905Y-9788686D01*
X-6072857Y-9779162D01*
X-6034762Y-9779162D01*
X-6015714Y-9788686D01*
X-6006190Y-9798210D01*
X-5996667Y-9817257D01*
X-5996667Y-9826781D01*
X-6006190Y-9845829D01*
X-6015714Y-9855352D01*
X-6034762Y-9864876D01*
X-6072857Y-9864876D01*
X-6091905Y-9874400D01*
X-6101429Y-9883924D01*
X-6110952Y-9902971D01*
X-6110952Y-9941067D01*
X-6101429Y-9960114D01*
X-6091905Y-9969638D01*
X-6072857Y-9979162D01*
X-6034762Y-9979162D01*
X-6015714Y-9969638D01*
X-6006190Y-9960114D01*
X-5996667Y-9941067D01*
X-5996667Y-9902971D01*
X-6006190Y-9883924D01*
X-6015714Y-9874400D01*
X-6034762Y-9864876D01*
X-5825238Y-9845829D02*
X-5825238Y-9979162D01*
X-5872857Y-9769638D02*
X-5920476Y-9912495D01*
X-5796667Y-9912495D01*
X-5568095Y-9979162D02*
X-5568095Y-9779162D01*
X-5482381Y-9979162D02*
X-5482381Y-9874400D01*
X-5491905Y-9855352D01*
X-5510952Y-9845829D01*
X-5539524Y-9845829D01*
X-5558572Y-9855352D01*
X-5568095Y-9864876D01*
X-5358572Y-9979162D02*
X-5377619Y-9969638D01*
X-5387143Y-9960114D01*
X-5396667Y-9941067D01*
X-5396667Y-9883924D01*
X-5387143Y-9864876D01*
X-5377619Y-9855352D01*
X-5358572Y-9845829D01*
X-5330000Y-9845829D01*
X-5310952Y-9855352D01*
X-5301429Y-9864876D01*
X-5291905Y-9883924D01*
X-5291905Y-9941067D01*
X-5301429Y-9960114D01*
X-5310952Y-9969638D01*
X-5330000Y-9979162D01*
X-5358572Y-9979162D01*
X-5177619Y-9979162D02*
X-5196667Y-9969638D01*
X-5206191Y-9950590D01*
X-5206191Y-9779162D01*
X-5025238Y-9969638D02*
X-5044286Y-9979162D01*
X-5082381Y-9979162D01*
X-5101429Y-9969638D01*
X-5110952Y-9950590D01*
X-5110952Y-9874400D01*
X-5101429Y-9855352D01*
X-5082381Y-9845829D01*
X-5044286Y-9845829D01*
X-5025238Y-9855352D01*
X-5015714Y-9874400D01*
X-5015714Y-9893448D01*
X-5110952Y-9912495D01*
X-4939524Y-9969638D02*
X-4920476Y-9979162D01*
X-4882381Y-9979162D01*
X-4863333Y-9969638D01*
X-4853810Y-9950590D01*
X-4853810Y-9941067D01*
X-4863333Y-9922019D01*
X-4882381Y-9912495D01*
X-4910952Y-9912495D01*
X-4930000Y-9902971D01*
X-4939524Y-9883924D01*
X-4939524Y-9874400D01*
X-4930000Y-9855352D01*
X-4910952Y-9845829D01*
X-4882381Y-9845829D01*
X-4863333Y-9855352D01*
X-4787143Y-10055352D02*
X-4777619Y-10045829D01*
X-4758572Y-10017257D01*
X-4749048Y-9998210D01*
X-4739524Y-9969638D01*
X-4730000Y-9922019D01*
X-4730000Y-9883924D01*
X-4739524Y-9836305D01*
X-4749048Y-9807733D01*
X-4758572Y-9788686D01*
X-4777619Y-9760114D01*
X-4787143Y-9750590D01*
X-4425238Y-10055352D02*
X-4434762Y-10045829D01*
X-4453810Y-10017257D01*
X-4463333Y-9998210D01*
X-4472857Y-9969638D01*
X-4482381Y-9922019D01*
X-4482381Y-9883924D01*
X-4472857Y-9836305D01*
X-4463333Y-9807733D01*
X-4453810Y-9788686D01*
X-4434762Y-9760114D01*
X-4425238Y-9750590D01*
X-4349048Y-9845829D02*
X-4349048Y-9979162D01*
X-4349048Y-9864876D02*
X-4339524Y-9855352D01*
X-4320476Y-9845829D01*
X-4291905Y-9845829D01*
X-4272857Y-9855352D01*
X-4263333Y-9874400D01*
X-4263333Y-9979162D01*
X-4139524Y-9979162D02*
X-4158571Y-9969638D01*
X-4168095Y-9960114D01*
X-4177619Y-9941067D01*
X-4177619Y-9883924D01*
X-4168095Y-9864876D01*
X-4158571Y-9855352D01*
X-4139524Y-9845829D01*
X-4110952Y-9845829D01*
X-4091905Y-9855352D01*
X-4082381Y-9864876D01*
X-4072857Y-9883924D01*
X-4072857Y-9941067D01*
X-4082381Y-9960114D01*
X-4091905Y-9969638D01*
X-4110952Y-9979162D01*
X-4139524Y-9979162D01*
X-4015714Y-9845829D02*
X-3939524Y-9845829D01*
X-3987143Y-9779162D02*
X-3987143Y-9950590D01*
X-3977619Y-9969638D01*
X-3958571Y-9979162D01*
X-3939524Y-9979162D01*
X-3720476Y-9845829D02*
X-3720476Y-10045829D01*
X-3720476Y-9855352D02*
X-3701429Y-9845829D01*
X-3663333Y-9845829D01*
X-3644286Y-9855352D01*
X-3634762Y-9864876D01*
X-3625238Y-9883924D01*
X-3625238Y-9941067D01*
X-3634762Y-9960114D01*
X-3644286Y-9969638D01*
X-3663333Y-9979162D01*
X-3701429Y-9979162D01*
X-3720476Y-9969638D01*
X-3510952Y-9979162D02*
X-3530000Y-9969638D01*
X-3539524Y-9950590D01*
X-3539524Y-9779162D01*
X-3349048Y-9979162D02*
X-3349048Y-9874400D01*
X-3358571Y-9855352D01*
X-3377619Y-9845829D01*
X-3415714Y-9845829D01*
X-3434762Y-9855352D01*
X-3349048Y-9969638D02*
X-3368095Y-9979162D01*
X-3415714Y-9979162D01*
X-3434762Y-9969638D01*
X-3444286Y-9950590D01*
X-3444286Y-9931543D01*
X-3434762Y-9912495D01*
X-3415714Y-9902971D01*
X-3368095Y-9902971D01*
X-3349048Y-9893448D01*
X-3282381Y-9845829D02*
X-3206190Y-9845829D01*
X-3253810Y-9779162D02*
X-3253810Y-9950590D01*
X-3244286Y-9969638D01*
X-3225238Y-9979162D01*
X-3206190Y-9979162D01*
X-3063333Y-9969638D02*
X-3082381Y-9979162D01*
X-3120476Y-9979162D01*
X-3139524Y-9969638D01*
X-3149048Y-9950590D01*
X-3149048Y-9874400D01*
X-3139524Y-9855352D01*
X-3120476Y-9845829D01*
X-3082381Y-9845829D01*
X-3063333Y-9855352D01*
X-3053810Y-9874400D01*
X-3053810Y-9893448D01*
X-3149048Y-9912495D01*
X-2882381Y-9979162D02*
X-2882381Y-9779162D01*
X-2882381Y-9969638D02*
X-2901429Y-9979162D01*
X-2939524Y-9979162D01*
X-2958571Y-9969638D01*
X-2968095Y-9960114D01*
X-2977619Y-9941067D01*
X-2977619Y-9883924D01*
X-2968095Y-9864876D01*
X-2958571Y-9855352D01*
X-2939524Y-9845829D01*
X-2901429Y-9845829D01*
X-2882381Y-9855352D01*
X-2806190Y-10055352D02*
X-2796667Y-10045829D01*
X-2777619Y-10017257D01*
X-2768095Y-9998210D01*
X-2758572Y-9969638D01*
X-2749048Y-9922019D01*
X-2749048Y-9883924D01*
X-2758572Y-9836305D01*
X-2768095Y-9807733D01*
X-2777619Y-9788686D01*
X-2796667Y-9760114D01*
X-2806190Y-9750590D01*
X-10140000Y-10108686D02*
X-9940000Y-10308686D01*
X-9940000Y-10108686D02*
X-10140000Y-10308686D01*
X-9940000Y-10208686D02*
G75*
G03*
X-9940000Y-10208686I-100000J0D01*
G01*
X-9701429Y-10099162D02*
X-9577619Y-10099162D01*
X-9644286Y-10175352D01*
X-9615714Y-10175352D01*
X-9596667Y-10184876D01*
X-9587143Y-10194400D01*
X-9577619Y-10213448D01*
X-9577619Y-10261067D01*
X-9587143Y-10280114D01*
X-9596667Y-10289638D01*
X-9615714Y-10299162D01*
X-9672857Y-10299162D01*
X-9691905Y-10289638D01*
X-9701429Y-10280114D01*
X-9491905Y-10280114D02*
X-9482381Y-10289638D01*
X-9491905Y-10299162D01*
X-9501429Y-10289638D01*
X-9491905Y-10280114D01*
X-9491905Y-10299162D01*
X-9358572Y-10099162D02*
X-9339524Y-10099162D01*
X-9320476Y-10108686D01*
X-9310952Y-10118210D01*
X-9301429Y-10137257D01*
X-9291905Y-10175352D01*
X-9291905Y-10222971D01*
X-9301429Y-10261067D01*
X-9310952Y-10280114D01*
X-9320476Y-10289638D01*
X-9339524Y-10299162D01*
X-9358572Y-10299162D01*
X-9377619Y-10289638D01*
X-9387143Y-10280114D01*
X-9396667Y-10261067D01*
X-9406191Y-10222971D01*
X-9406191Y-10175352D01*
X-9396667Y-10137257D01*
X-9387143Y-10118210D01*
X-9377619Y-10108686D01*
X-9358572Y-10099162D01*
X-9120476Y-10165829D02*
X-9120476Y-10299162D01*
X-9168095Y-10089638D02*
X-9215714Y-10232495D01*
X-9091905Y-10232495D01*
X-8987143Y-10184876D02*
X-9006191Y-10175352D01*
X-9015714Y-10165829D01*
X-9025238Y-10146781D01*
X-9025238Y-10137257D01*
X-9015714Y-10118210D01*
X-9006191Y-10108686D01*
X-8987143Y-10099162D01*
X-8949048Y-10099162D01*
X-8930000Y-10108686D01*
X-8920476Y-10118210D01*
X-8910952Y-10137257D01*
X-8910952Y-10146781D01*
X-8920476Y-10165829D01*
X-8930000Y-10175352D01*
X-8949048Y-10184876D01*
X-8987143Y-10184876D01*
X-9006191Y-10194400D01*
X-9015714Y-10203924D01*
X-9025238Y-10222971D01*
X-9025238Y-10261067D01*
X-9015714Y-10280114D01*
X-9006191Y-10289638D01*
X-8987143Y-10299162D01*
X-8949048Y-10299162D01*
X-8930000Y-10289638D01*
X-8920476Y-10280114D01*
X-8910952Y-10261067D01*
X-8910952Y-10222971D01*
X-8920476Y-10203924D01*
X-8930000Y-10194400D01*
X-8949048Y-10184876D01*
X-8825238Y-10299162D02*
X-8825238Y-10165829D01*
X-8825238Y-10184876D02*
X-8815714Y-10175352D01*
X-8796667Y-10165829D01*
X-8768095Y-10165829D01*
X-8749048Y-10175352D01*
X-8739524Y-10194400D01*
X-8739524Y-10299162D01*
X-8739524Y-10194400D02*
X-8730000Y-10175352D01*
X-8710952Y-10165829D01*
X-8682381Y-10165829D01*
X-8663333Y-10175352D01*
X-8653810Y-10194400D01*
X-8653810Y-10299162D01*
X-8558572Y-10299162D02*
X-8558572Y-10165829D01*
X-8558572Y-10184876D02*
X-8549048Y-10175352D01*
X-8530000Y-10165829D01*
X-8501429Y-10165829D01*
X-8482381Y-10175352D01*
X-8472857Y-10194400D01*
X-8472857Y-10299162D01*
X-8472857Y-10194400D02*
X-8463333Y-10175352D01*
X-8444286Y-10165829D01*
X-8415714Y-10165829D01*
X-8396667Y-10175352D01*
X-8387143Y-10194400D01*
X-8387143Y-10299162D01*
X-7996667Y-10089638D02*
X-8168095Y-10346781D01*
X-7739524Y-10099162D02*
X-7720476Y-10099162D01*
X-7701429Y-10108686D01*
X-7691905Y-10118210D01*
X-7682381Y-10137257D01*
X-7672857Y-10175352D01*
X-7672857Y-10222971D01*
X-7682381Y-10261067D01*
X-7691905Y-10280114D01*
X-7701429Y-10289638D01*
X-7720476Y-10299162D01*
X-7739524Y-10299162D01*
X-7758571Y-10289638D01*
X-7768095Y-10280114D01*
X-7777619Y-10261067D01*
X-7787143Y-10222971D01*
X-7787143Y-10175352D01*
X-7777619Y-10137257D01*
X-7768095Y-10118210D01*
X-7758571Y-10108686D01*
X-7739524Y-10099162D01*
X-7587143Y-10280114D02*
X-7577619Y-10289638D01*
X-7587143Y-10299162D01*
X-7596667Y-10289638D01*
X-7587143Y-10280114D01*
X-7587143Y-10299162D01*
X-7387143Y-10299162D02*
X-7501429Y-10299162D01*
X-7444286Y-10299162D02*
X-7444286Y-10099162D01*
X-7463333Y-10127733D01*
X-7482381Y-10146781D01*
X-7501429Y-10156305D01*
X-7310952Y-10118210D02*
X-7301429Y-10108686D01*
X-7282381Y-10099162D01*
X-7234762Y-10099162D01*
X-7215714Y-10108686D01*
X-7206190Y-10118210D01*
X-7196667Y-10137257D01*
X-7196667Y-10156305D01*
X-7206190Y-10184876D01*
X-7320476Y-10299162D01*
X-7196667Y-10299162D01*
X-7072857Y-10099162D02*
X-7053810Y-10099162D01*
X-7034762Y-10108686D01*
X-7025238Y-10118210D01*
X-7015714Y-10137257D01*
X-7006190Y-10175352D01*
X-7006190Y-10222971D01*
X-7015714Y-10261067D01*
X-7025238Y-10280114D01*
X-7034762Y-10289638D01*
X-7053810Y-10299162D01*
X-7072857Y-10299162D01*
X-7091905Y-10289638D01*
X-7101429Y-10280114D01*
X-7110952Y-10261067D01*
X-7120476Y-10222971D01*
X-7120476Y-10175352D01*
X-7110952Y-10137257D01*
X-7101429Y-10118210D01*
X-7091905Y-10108686D01*
X-7072857Y-10099162D01*
X-6882381Y-10099162D02*
X-6863333Y-10099162D01*
X-6844286Y-10108686D01*
X-6834762Y-10118210D01*
X-6825238Y-10137257D01*
X-6815714Y-10175352D01*
X-6815714Y-10222971D01*
X-6825238Y-10261067D01*
X-6834762Y-10280114D01*
X-6844286Y-10289638D01*
X-6863333Y-10299162D01*
X-6882381Y-10299162D01*
X-6901429Y-10289638D01*
X-6910952Y-10280114D01*
X-6920476Y-10261067D01*
X-6930000Y-10222971D01*
X-6930000Y-10175352D01*
X-6920476Y-10137257D01*
X-6910952Y-10118210D01*
X-6901429Y-10108686D01*
X-6882381Y-10099162D01*
X-6739524Y-10099162D02*
X-6739524Y-10137257D01*
X-6663333Y-10099162D02*
X-6663333Y-10137257D01*
X-6368095Y-10375352D02*
X-6377619Y-10365829D01*
X-6396667Y-10337257D01*
X-6406190Y-10318210D01*
X-6415714Y-10289638D01*
X-6425238Y-10242019D01*
X-6425238Y-10203924D01*
X-6415714Y-10156305D01*
X-6406190Y-10127733D01*
X-6396667Y-10108686D01*
X-6377619Y-10080114D01*
X-6368095Y-10070590D01*
X-6187143Y-10299162D02*
X-6301429Y-10299162D01*
X-6244286Y-10299162D02*
X-6244286Y-10099162D01*
X-6263333Y-10127733D01*
X-6282381Y-10146781D01*
X-6301429Y-10156305D01*
X-6015714Y-10099162D02*
X-6053810Y-10099162D01*
X-6072857Y-10108686D01*
X-6082381Y-10118210D01*
X-6101429Y-10146781D01*
X-6110952Y-10184876D01*
X-6110952Y-10261067D01*
X-6101429Y-10280114D01*
X-6091905Y-10289638D01*
X-6072857Y-10299162D01*
X-6034762Y-10299162D01*
X-6015714Y-10289638D01*
X-6006190Y-10280114D01*
X-5996667Y-10261067D01*
X-5996667Y-10213448D01*
X-6006190Y-10194400D01*
X-6015714Y-10184876D01*
X-6034762Y-10175352D01*
X-6072857Y-10175352D01*
X-6091905Y-10184876D01*
X-6101429Y-10194400D01*
X-6110952Y-10213448D01*
X-5758571Y-10299162D02*
X-5758571Y-10099162D01*
X-5672857Y-10299162D02*
X-5672857Y-10194400D01*
X-5682381Y-10175352D01*
X-5701429Y-10165829D01*
X-5730000Y-10165829D01*
X-5749048Y-10175352D01*
X-5758571Y-10184876D01*
X-5549048Y-10299162D02*
X-5568095Y-10289638D01*
X-5577619Y-10280114D01*
X-5587143Y-10261067D01*
X-5587143Y-10203924D01*
X-5577619Y-10184876D01*
X-5568095Y-10175352D01*
X-5549048Y-10165829D01*
X-5520476Y-10165829D01*
X-5501429Y-10175352D01*
X-5491905Y-10184876D01*
X-5482381Y-10203924D01*
X-5482381Y-10261067D01*
X-5491905Y-10280114D01*
X-5501429Y-10289638D01*
X-5520476Y-10299162D01*
X-5549048Y-10299162D01*
X-5368095Y-10299162D02*
X-5387143Y-10289638D01*
X-5396667Y-10270590D01*
X-5396667Y-10099162D01*
X-5215714Y-10289638D02*
X-5234762Y-10299162D01*
X-5272857Y-10299162D01*
X-5291905Y-10289638D01*
X-5301429Y-10270590D01*
X-5301429Y-10194400D01*
X-5291905Y-10175352D01*
X-5272857Y-10165829D01*
X-5234762Y-10165829D01*
X-5215714Y-10175352D01*
X-5206191Y-10194400D01*
X-5206191Y-10213448D01*
X-5301429Y-10232495D01*
X-5130000Y-10289638D02*
X-5110952Y-10299162D01*
X-5072857Y-10299162D01*
X-5053810Y-10289638D01*
X-5044286Y-10270590D01*
X-5044286Y-10261067D01*
X-5053810Y-10242019D01*
X-5072857Y-10232495D01*
X-5101429Y-10232495D01*
X-5120476Y-10222971D01*
X-5130000Y-10203924D01*
X-5130000Y-10194400D01*
X-5120476Y-10175352D01*
X-5101429Y-10165829D01*
X-5072857Y-10165829D01*
X-5053810Y-10175352D01*
X-4977619Y-10375352D02*
X-4968095Y-10365829D01*
X-4949048Y-10337257D01*
X-4939524Y-10318210D01*
X-4930000Y-10289638D01*
X-4920476Y-10242019D01*
X-4920476Y-10203924D01*
X-4930000Y-10156305D01*
X-4939524Y-10127733D01*
X-4949048Y-10108686D01*
X-4968095Y-10080114D01*
X-4977619Y-10070590D01*
X-4615714Y-10375352D02*
X-4625238Y-10365829D01*
X-4644286Y-10337257D01*
X-4653810Y-10318210D01*
X-4663333Y-10289638D01*
X-4672857Y-10242019D01*
X-4672857Y-10203924D01*
X-4663333Y-10156305D01*
X-4653810Y-10127733D01*
X-4644286Y-10108686D01*
X-4625238Y-10080114D01*
X-4615714Y-10070590D01*
X-4539524Y-10165829D02*
X-4539524Y-10299162D01*
X-4539524Y-10184876D02*
X-4530000Y-10175352D01*
X-4510952Y-10165829D01*
X-4482381Y-10165829D01*
X-4463333Y-10175352D01*
X-4453810Y-10194400D01*
X-4453810Y-10299162D01*
X-4330000Y-10299162D02*
X-4349048Y-10289638D01*
X-4358572Y-10280114D01*
X-4368095Y-10261067D01*
X-4368095Y-10203924D01*
X-4358572Y-10184876D01*
X-4349048Y-10175352D01*
X-4330000Y-10165829D01*
X-4301429Y-10165829D01*
X-4282381Y-10175352D01*
X-4272857Y-10184876D01*
X-4263333Y-10203924D01*
X-4263333Y-10261067D01*
X-4272857Y-10280114D01*
X-4282381Y-10289638D01*
X-4301429Y-10299162D01*
X-4330000Y-10299162D01*
X-4206191Y-10165829D02*
X-4130000Y-10165829D01*
X-4177619Y-10099162D02*
X-4177619Y-10270590D01*
X-4168095Y-10289638D01*
X-4149048Y-10299162D01*
X-4130000Y-10299162D01*
X-3910952Y-10165829D02*
X-3910952Y-10365829D01*
X-3910952Y-10175352D02*
X-3891905Y-10165829D01*
X-3853810Y-10165829D01*
X-3834762Y-10175352D01*
X-3825238Y-10184876D01*
X-3815714Y-10203924D01*
X-3815714Y-10261067D01*
X-3825238Y-10280114D01*
X-3834762Y-10289638D01*
X-3853810Y-10299162D01*
X-3891905Y-10299162D01*
X-3910952Y-10289638D01*
X-3701429Y-10299162D02*
X-3720476Y-10289638D01*
X-3730000Y-10270590D01*
X-3730000Y-10099162D01*
X-3539524Y-10299162D02*
X-3539524Y-10194400D01*
X-3549048Y-10175352D01*
X-3568095Y-10165829D01*
X-3606190Y-10165829D01*
X-3625238Y-10175352D01*
X-3539524Y-10289638D02*
X-3558571Y-10299162D01*
X-3606190Y-10299162D01*
X-3625238Y-10289638D01*
X-3634762Y-10270590D01*
X-3634762Y-10251543D01*
X-3625238Y-10232495D01*
X-3606190Y-10222971D01*
X-3558571Y-10222971D01*
X-3539524Y-10213448D01*
X-3472857Y-10165829D02*
X-3396667Y-10165829D01*
X-3444286Y-10099162D02*
X-3444286Y-10270590D01*
X-3434762Y-10289638D01*
X-3415714Y-10299162D01*
X-3396667Y-10299162D01*
X-3253810Y-10289638D02*
X-3272857Y-10299162D01*
X-3310952Y-10299162D01*
X-3330000Y-10289638D01*
X-3339524Y-10270590D01*
X-3339524Y-10194400D01*
X-3330000Y-10175352D01*
X-3310952Y-10165829D01*
X-3272857Y-10165829D01*
X-3253810Y-10175352D01*
X-3244286Y-10194400D01*
X-3244286Y-10213448D01*
X-3339524Y-10232495D01*
X-3072857Y-10299162D02*
X-3072857Y-10099162D01*
X-3072857Y-10289638D02*
X-3091905Y-10299162D01*
X-3130000Y-10299162D01*
X-3149048Y-10289638D01*
X-3158571Y-10280114D01*
X-3168095Y-10261067D01*
X-3168095Y-10203924D01*
X-3158571Y-10184876D01*
X-3149048Y-10175352D01*
X-3130000Y-10165829D01*
X-3091905Y-10165829D01*
X-3072857Y-10175352D01*
X-2996667Y-10375352D02*
X-2987143Y-10365829D01*
X-2968095Y-10337257D01*
X-2958571Y-10318210D01*
X-2949048Y-10289638D01*
X-2939524Y-10242019D01*
X-2939524Y-10203924D01*
X-2949048Y-10156305D01*
X-2958571Y-10127733D01*
X-2968095Y-10108686D01*
X-2987143Y-10080114D01*
X-2996667Y-10070590D01*
X-10140000Y-10428686D02*
X-9940000Y-10628686D01*
X-9940000Y-10428686D02*
X-10140000Y-10628686D01*
X-10040000Y-10428686D02*
X-10040000Y-10628686D01*
X-10140000Y-10528686D02*
X-9940000Y-10528686D01*
X-9701429Y-10419162D02*
X-9577619Y-10419162D01*
X-9644286Y-10495352D01*
X-9615714Y-10495352D01*
X-9596667Y-10504876D01*
X-9587143Y-10514400D01*
X-9577619Y-10533448D01*
X-9577619Y-10581067D01*
X-9587143Y-10600114D01*
X-9596667Y-10609638D01*
X-9615714Y-10619162D01*
X-9672857Y-10619162D01*
X-9691905Y-10609638D01*
X-9701429Y-10600114D01*
X-9491905Y-10600114D02*
X-9482381Y-10609638D01*
X-9491905Y-10619162D01*
X-9501429Y-10609638D01*
X-9491905Y-10600114D01*
X-9491905Y-10619162D01*
X-9387143Y-10619162D02*
X-9349048Y-10619162D01*
X-9330000Y-10609638D01*
X-9320476Y-10600114D01*
X-9301429Y-10571543D01*
X-9291905Y-10533448D01*
X-9291905Y-10457257D01*
X-9301429Y-10438210D01*
X-9310952Y-10428686D01*
X-9330000Y-10419162D01*
X-9368095Y-10419162D01*
X-9387143Y-10428686D01*
X-9396667Y-10438210D01*
X-9406191Y-10457257D01*
X-9406191Y-10504876D01*
X-9396667Y-10523924D01*
X-9387143Y-10533448D01*
X-9368095Y-10542971D01*
X-9330000Y-10542971D01*
X-9310952Y-10533448D01*
X-9301429Y-10523924D01*
X-9291905Y-10504876D01*
X-9177619Y-10504876D02*
X-9196667Y-10495352D01*
X-9206191Y-10485829D01*
X-9215714Y-10466781D01*
X-9215714Y-10457257D01*
X-9206191Y-10438210D01*
X-9196667Y-10428686D01*
X-9177619Y-10419162D01*
X-9139524Y-10419162D01*
X-9120476Y-10428686D01*
X-9110952Y-10438210D01*
X-9101429Y-10457257D01*
X-9101429Y-10466781D01*
X-9110952Y-10485829D01*
X-9120476Y-10495352D01*
X-9139524Y-10504876D01*
X-9177619Y-10504876D01*
X-9196667Y-10514400D01*
X-9206191Y-10523924D01*
X-9215714Y-10542971D01*
X-9215714Y-10581067D01*
X-9206191Y-10600114D01*
X-9196667Y-10609638D01*
X-9177619Y-10619162D01*
X-9139524Y-10619162D01*
X-9120476Y-10609638D01*
X-9110952Y-10600114D01*
X-9101429Y-10581067D01*
X-9101429Y-10542971D01*
X-9110952Y-10523924D01*
X-9120476Y-10514400D01*
X-9139524Y-10504876D01*
X-8987143Y-10504876D02*
X-9006191Y-10495352D01*
X-9015714Y-10485829D01*
X-9025238Y-10466781D01*
X-9025238Y-10457257D01*
X-9015714Y-10438210D01*
X-9006191Y-10428686D01*
X-8987143Y-10419162D01*
X-8949048Y-10419162D01*
X-8930000Y-10428686D01*
X-8920476Y-10438210D01*
X-8910952Y-10457257D01*
X-8910952Y-10466781D01*
X-8920476Y-10485829D01*
X-8930000Y-10495352D01*
X-8949048Y-10504876D01*
X-8987143Y-10504876D01*
X-9006191Y-10514400D01*
X-9015714Y-10523924D01*
X-9025238Y-10542971D01*
X-9025238Y-10581067D01*
X-9015714Y-10600114D01*
X-9006191Y-10609638D01*
X-8987143Y-10619162D01*
X-8949048Y-10619162D01*
X-8930000Y-10609638D01*
X-8920476Y-10600114D01*
X-8910952Y-10581067D01*
X-8910952Y-10542971D01*
X-8920476Y-10523924D01*
X-8930000Y-10514400D01*
X-8949048Y-10504876D01*
X-8825238Y-10619162D02*
X-8825238Y-10485829D01*
X-8825238Y-10504876D02*
X-8815714Y-10495352D01*
X-8796667Y-10485829D01*
X-8768095Y-10485829D01*
X-8749048Y-10495352D01*
X-8739524Y-10514400D01*
X-8739524Y-10619162D01*
X-8739524Y-10514400D02*
X-8730000Y-10495352D01*
X-8710952Y-10485829D01*
X-8682381Y-10485829D01*
X-8663333Y-10495352D01*
X-8653810Y-10514400D01*
X-8653810Y-10619162D01*
X-8558572Y-10619162D02*
X-8558572Y-10485829D01*
X-8558572Y-10504876D02*
X-8549048Y-10495352D01*
X-8530000Y-10485829D01*
X-8501429Y-10485829D01*
X-8482381Y-10495352D01*
X-8472857Y-10514400D01*
X-8472857Y-10619162D01*
X-8472857Y-10514400D02*
X-8463333Y-10495352D01*
X-8444286Y-10485829D01*
X-8415714Y-10485829D01*
X-8396667Y-10495352D01*
X-8387143Y-10514400D01*
X-8387143Y-10619162D01*
X-7996667Y-10409638D02*
X-8168095Y-10666781D01*
X-7739524Y-10419162D02*
X-7720476Y-10419162D01*
X-7701429Y-10428686D01*
X-7691905Y-10438210D01*
X-7682381Y-10457257D01*
X-7672857Y-10495352D01*
X-7672857Y-10542971D01*
X-7682381Y-10581067D01*
X-7691905Y-10600114D01*
X-7701429Y-10609638D01*
X-7720476Y-10619162D01*
X-7739524Y-10619162D01*
X-7758571Y-10609638D01*
X-7768095Y-10600114D01*
X-7777619Y-10581067D01*
X-7787143Y-10542971D01*
X-7787143Y-10495352D01*
X-7777619Y-10457257D01*
X-7768095Y-10438210D01*
X-7758571Y-10428686D01*
X-7739524Y-10419162D01*
X-7587143Y-10600114D02*
X-7577619Y-10609638D01*
X-7587143Y-10619162D01*
X-7596667Y-10609638D01*
X-7587143Y-10600114D01*
X-7587143Y-10619162D01*
X-7387143Y-10619162D02*
X-7501429Y-10619162D01*
X-7444286Y-10619162D02*
X-7444286Y-10419162D01*
X-7463333Y-10447733D01*
X-7482381Y-10466781D01*
X-7501429Y-10476305D01*
X-7206190Y-10419162D02*
X-7301429Y-10419162D01*
X-7310952Y-10514400D01*
X-7301429Y-10504876D01*
X-7282381Y-10495352D01*
X-7234762Y-10495352D01*
X-7215714Y-10504876D01*
X-7206190Y-10514400D01*
X-7196667Y-10533448D01*
X-7196667Y-10581067D01*
X-7206190Y-10600114D01*
X-7215714Y-10609638D01*
X-7234762Y-10619162D01*
X-7282381Y-10619162D01*
X-7301429Y-10609638D01*
X-7310952Y-10600114D01*
X-7130000Y-10419162D02*
X-6996667Y-10419162D01*
X-7082381Y-10619162D01*
X-6882381Y-10419162D02*
X-6863333Y-10419162D01*
X-6844286Y-10428686D01*
X-6834762Y-10438210D01*
X-6825238Y-10457257D01*
X-6815714Y-10495352D01*
X-6815714Y-10542971D01*
X-6825238Y-10581067D01*
X-6834762Y-10600114D01*
X-6844286Y-10609638D01*
X-6863333Y-10619162D01*
X-6882381Y-10619162D01*
X-6901429Y-10609638D01*
X-6910952Y-10600114D01*
X-6920476Y-10581067D01*
X-6930000Y-10542971D01*
X-6930000Y-10495352D01*
X-6920476Y-10457257D01*
X-6910952Y-10438210D01*
X-6901429Y-10428686D01*
X-6882381Y-10419162D01*
X-6739524Y-10419162D02*
X-6739524Y-10457257D01*
X-6663333Y-10419162D02*
X-6663333Y-10457257D01*
X-6368095Y-10695352D02*
X-6377619Y-10685829D01*
X-6396667Y-10657257D01*
X-6406190Y-10638210D01*
X-6415714Y-10609638D01*
X-6425238Y-10562019D01*
X-6425238Y-10523924D01*
X-6415714Y-10476305D01*
X-6406190Y-10447733D01*
X-6396667Y-10428686D01*
X-6377619Y-10400114D01*
X-6368095Y-10390590D01*
X-6301429Y-10438210D02*
X-6291905Y-10428686D01*
X-6272857Y-10419162D01*
X-6225238Y-10419162D01*
X-6206190Y-10428686D01*
X-6196667Y-10438210D01*
X-6187143Y-10457257D01*
X-6187143Y-10476305D01*
X-6196667Y-10504876D01*
X-6310952Y-10619162D01*
X-6187143Y-10619162D01*
X-6063333Y-10419162D02*
X-6044286Y-10419162D01*
X-6025238Y-10428686D01*
X-6015714Y-10438210D01*
X-6006190Y-10457257D01*
X-5996667Y-10495352D01*
X-5996667Y-10542971D01*
X-6006190Y-10581067D01*
X-6015714Y-10600114D01*
X-6025238Y-10609638D01*
X-6044286Y-10619162D01*
X-6063333Y-10619162D01*
X-6082381Y-10609638D01*
X-6091905Y-10600114D01*
X-6101429Y-10581067D01*
X-6110952Y-10542971D01*
X-6110952Y-10495352D01*
X-6101429Y-10457257D01*
X-6091905Y-10438210D01*
X-6082381Y-10428686D01*
X-6063333Y-10419162D01*
X-5930000Y-10419162D02*
X-5806190Y-10419162D01*
X-5872857Y-10495352D01*
X-5844286Y-10495352D01*
X-5825238Y-10504876D01*
X-5815714Y-10514400D01*
X-5806190Y-10533448D01*
X-5806190Y-10581067D01*
X-5815714Y-10600114D01*
X-5825238Y-10609638D01*
X-5844286Y-10619162D01*
X-5901429Y-10619162D01*
X-5920476Y-10609638D01*
X-5930000Y-10600114D01*
X-5568095Y-10619162D02*
X-5568095Y-10419162D01*
X-5482381Y-10619162D02*
X-5482381Y-10514400D01*
X-5491905Y-10495352D01*
X-5510952Y-10485829D01*
X-5539524Y-10485829D01*
X-5558572Y-10495352D01*
X-5568095Y-10504876D01*
X-5358572Y-10619162D02*
X-5377619Y-10609638D01*
X-5387143Y-10600114D01*
X-5396667Y-10581067D01*
X-5396667Y-10523924D01*
X-5387143Y-10504876D01*
X-5377619Y-10495352D01*
X-5358572Y-10485829D01*
X-5330000Y-10485829D01*
X-5310952Y-10495352D01*
X-5301429Y-10504876D01*
X-5291905Y-10523924D01*
X-5291905Y-10581067D01*
X-5301429Y-10600114D01*
X-5310952Y-10609638D01*
X-5330000Y-10619162D01*
X-5358572Y-10619162D01*
X-5177619Y-10619162D02*
X-5196667Y-10609638D01*
X-5206191Y-10590590D01*
X-5206191Y-10419162D01*
X-5025238Y-10609638D02*
X-5044286Y-10619162D01*
X-5082381Y-10619162D01*
X-5101429Y-10609638D01*
X-5110952Y-10590590D01*
X-5110952Y-10514400D01*
X-5101429Y-10495352D01*
X-5082381Y-10485829D01*
X-5044286Y-10485829D01*
X-5025238Y-10495352D01*
X-5015714Y-10514400D01*
X-5015714Y-10533448D01*
X-5110952Y-10552495D01*
X-4939524Y-10609638D02*
X-4920476Y-10619162D01*
X-4882381Y-10619162D01*
X-4863333Y-10609638D01*
X-4853810Y-10590590D01*
X-4853810Y-10581067D01*
X-4863333Y-10562019D01*
X-4882381Y-10552495D01*
X-4910952Y-10552495D01*
X-4930000Y-10542971D01*
X-4939524Y-10523924D01*
X-4939524Y-10514400D01*
X-4930000Y-10495352D01*
X-4910952Y-10485829D01*
X-4882381Y-10485829D01*
X-4863333Y-10495352D01*
X-4787143Y-10695352D02*
X-4777619Y-10685829D01*
X-4758572Y-10657257D01*
X-4749048Y-10638210D01*
X-4739524Y-10609638D01*
X-4730000Y-10562019D01*
X-4730000Y-10523924D01*
X-4739524Y-10476305D01*
X-4749048Y-10447733D01*
X-4758572Y-10428686D01*
X-4777619Y-10400114D01*
X-4787143Y-10390590D01*
X-4425238Y-10695352D02*
X-4434762Y-10685829D01*
X-4453810Y-10657257D01*
X-4463333Y-10638210D01*
X-4472857Y-10609638D01*
X-4482381Y-10562019D01*
X-4482381Y-10523924D01*
X-4472857Y-10476305D01*
X-4463333Y-10447733D01*
X-4453810Y-10428686D01*
X-4434762Y-10400114D01*
X-4425238Y-10390590D01*
X-4349048Y-10485829D02*
X-4349048Y-10619162D01*
X-4349048Y-10504876D02*
X-4339524Y-10495352D01*
X-4320476Y-10485829D01*
X-4291905Y-10485829D01*
X-4272857Y-10495352D01*
X-4263333Y-10514400D01*
X-4263333Y-10619162D01*
X-4139524Y-10619162D02*
X-4158571Y-10609638D01*
X-4168095Y-10600114D01*
X-4177619Y-10581067D01*
X-4177619Y-10523924D01*
X-4168095Y-10504876D01*
X-4158571Y-10495352D01*
X-4139524Y-10485829D01*
X-4110952Y-10485829D01*
X-4091905Y-10495352D01*
X-4082381Y-10504876D01*
X-4072857Y-10523924D01*
X-4072857Y-10581067D01*
X-4082381Y-10600114D01*
X-4091905Y-10609638D01*
X-4110952Y-10619162D01*
X-4139524Y-10619162D01*
X-4015714Y-10485829D02*
X-3939524Y-10485829D01*
X-3987143Y-10419162D02*
X-3987143Y-10590590D01*
X-3977619Y-10609638D01*
X-3958571Y-10619162D01*
X-3939524Y-10619162D01*
X-3720476Y-10485829D02*
X-3720476Y-10685829D01*
X-3720476Y-10495352D02*
X-3701429Y-10485829D01*
X-3663333Y-10485829D01*
X-3644286Y-10495352D01*
X-3634762Y-10504876D01*
X-3625238Y-10523924D01*
X-3625238Y-10581067D01*
X-3634762Y-10600114D01*
X-3644286Y-10609638D01*
X-3663333Y-10619162D01*
X-3701429Y-10619162D01*
X-3720476Y-10609638D01*
X-3510952Y-10619162D02*
X-3530000Y-10609638D01*
X-3539524Y-10590590D01*
X-3539524Y-10419162D01*
X-3349048Y-10619162D02*
X-3349048Y-10514400D01*
X-3358571Y-10495352D01*
X-3377619Y-10485829D01*
X-3415714Y-10485829D01*
X-3434762Y-10495352D01*
X-3349048Y-10609638D02*
X-3368095Y-10619162D01*
X-3415714Y-10619162D01*
X-3434762Y-10609638D01*
X-3444286Y-10590590D01*
X-3444286Y-10571543D01*
X-3434762Y-10552495D01*
X-3415714Y-10542971D01*
X-3368095Y-10542971D01*
X-3349048Y-10533448D01*
X-3282381Y-10485829D02*
X-3206190Y-10485829D01*
X-3253810Y-10419162D02*
X-3253810Y-10590590D01*
X-3244286Y-10609638D01*
X-3225238Y-10619162D01*
X-3206190Y-10619162D01*
X-3063333Y-10609638D02*
X-3082381Y-10619162D01*
X-3120476Y-10619162D01*
X-3139524Y-10609638D01*
X-3149048Y-10590590D01*
X-3149048Y-10514400D01*
X-3139524Y-10495352D01*
X-3120476Y-10485829D01*
X-3082381Y-10485829D01*
X-3063333Y-10495352D01*
X-3053810Y-10514400D01*
X-3053810Y-10533448D01*
X-3149048Y-10552495D01*
X-2882381Y-10619162D02*
X-2882381Y-10419162D01*
X-2882381Y-10609638D02*
X-2901429Y-10619162D01*
X-2939524Y-10619162D01*
X-2958571Y-10609638D01*
X-2968095Y-10600114D01*
X-2977619Y-10581067D01*
X-2977619Y-10523924D01*
X-2968095Y-10504876D01*
X-2958571Y-10495352D01*
X-2939524Y-10485829D01*
X-2901429Y-10485829D01*
X-2882381Y-10495352D01*
X-2806190Y-10695352D02*
X-2796667Y-10685829D01*
X-2777619Y-10657257D01*
X-2768095Y-10638210D01*
X-2758572Y-10609638D01*
X-2749048Y-10562019D01*
X-2749048Y-10523924D01*
X-2758572Y-10476305D01*
X-2768095Y-10447733D01*
X-2777619Y-10428686D01*
X-2796667Y-10400114D01*
X-2806190Y-10390590D01*
M02*
