%TF.GenerationSoftware,KiCad,Pcbnew,(5.99.0-12118-g897269f33f)*%
%TF.CreationDate,2021-10-13T23:43:10-04:00*%
%TF.ProjectId,dadboard,64616462-6f61-4726-942e-6b696361645f,rev?*%
%TF.SameCoordinates,Original*%
%TF.FileFunction,Soldermask,Bot*%
%TF.FilePolarity,Negative*%
%FSLAX46Y46*%
G04 Gerber Fmt 4.6, Leading zero omitted, Abs format (unit mm)*
G04 Created by KiCad (PCBNEW (5.99.0-12118-g897269f33f)) date 2021-10-13 23:43:10*
%MOMM*%
%LPD*%
G01*
G04 APERTURE LIST*
G04 Aperture macros list*
%AMRoundRect*
0 Rectangle with rounded corners*
0 $1 Rounding radius*
0 $2 $3 $4 $5 $6 $7 $8 $9 X,Y pos of 4 corners*
0 Add a 4 corners polygon primitive as box body*
4,1,4,$2,$3,$4,$5,$6,$7,$8,$9,$2,$3,0*
0 Add four circle primitives for the rounded corners*
1,1,$1+$1,$2,$3*
1,1,$1+$1,$4,$5*
1,1,$1+$1,$6,$7*
1,1,$1+$1,$8,$9*
0 Add four rect primitives between the rounded corners*
20,1,$1+$1,$2,$3,$4,$5,0*
20,1,$1+$1,$4,$5,$6,$7,0*
20,1,$1+$1,$6,$7,$8,$9,0*
20,1,$1+$1,$8,$9,$2,$3,0*%
%AMRotRect*
0 Rectangle, with rotation*
0 The origin of the aperture is its center*
0 $1 length*
0 $2 width*
0 $3 Rotation angle, in degrees counterclockwise*
0 Add horizontal line*
21,1,$1,$2,0,0,$3*%
G04 Aperture macros list end*
%ADD10C,3.987800*%
%ADD11C,1.750000*%
%ADD12C,2.250000*%
%ADD13C,3.000000*%
%ADD14R,2.550000X2.500000*%
%ADD15C,0.787400*%
%ADD16C,2.200000*%
%ADD17C,3.048000*%
%ADD18R,2.000000X2.000000*%
%ADD19C,2.000000*%
%ADD20R,3.200000X2.000000*%
%ADD21R,1.200000X0.900000*%
%ADD22RoundRect,0.243750X0.456250X-0.243750X0.456250X0.243750X-0.456250X0.243750X-0.456250X-0.243750X0*%
%ADD23RotRect,1.500000X0.550000X225.000000*%
%ADD24RoundRect,0.062500X0.291682X0.380070X-0.380070X-0.291682X-0.291682X-0.380070X0.380070X0.291682X0*%
%ADD25RoundRect,0.062500X-0.291682X0.380070X-0.380070X0.291682X0.291682X-0.380070X0.380070X-0.291682X0*%
%ADD26RotRect,1.500000X0.550000X135.000000*%
%ADD27RoundRect,0.250000X0.000000X3.323402X-3.323402X0.000000X0.000000X-3.323402X3.323402X0.000000X0*%
%ADD28R,1.400000X1.200000*%
%ADD29R,1.400000X1.000000*%
%ADD30RoundRect,0.243750X0.243750X0.456250X-0.243750X0.456250X-0.243750X-0.456250X0.243750X-0.456250X0*%
%ADD31RoundRect,0.243750X-0.456250X0.243750X-0.456250X-0.243750X0.456250X-0.243750X0.456250X0.243750X0*%
%ADD32C,0.800000*%
%ADD33O,1.600000X2.000000*%
%ADD34RoundRect,0.243750X-0.243750X-0.456250X0.243750X-0.456250X0.243750X0.456250X-0.243750X0.456250X0*%
%ADD35C,0.650000*%
%ADD36R,0.600000X1.450000*%
%ADD37R,0.300000X1.450000*%
%ADD38RoundRect,0.243750X-0.494975X-0.150260X-0.150260X-0.494975X0.494975X0.150260X0.150260X0.494975X0*%
%ADD39R,2.100000X1.800000*%
%ADD40RotRect,2.100000X1.800000X225.000000*%
%ADD41RoundRect,0.243750X0.494975X0.150260X0.150260X0.494975X-0.494975X-0.150260X-0.150260X-0.494975X0*%
%ADD42RoundRect,0.062500X0.475000X0.062500X-0.475000X0.062500X-0.475000X-0.062500X0.475000X-0.062500X0*%
%ADD43R,1.500000X0.550000*%
%ADD44RoundRect,0.062500X0.062500X0.475000X-0.062500X0.475000X-0.062500X-0.475000X0.062500X-0.475000X0*%
%ADD45R,0.550000X1.500000*%
%ADD46RoundRect,0.250000X2.350000X2.350000X-2.350000X2.350000X-2.350000X-2.350000X2.350000X-2.350000X0*%
G04 APERTURE END LIST*
%TO.C,G\u002A\u002A\u002A*%
G36*
X-35977879Y75434709D02*
G01*
X-35036125Y75429582D01*
X-34911079Y75387277D01*
X-34907937Y75386204D01*
X-34832452Y75356237D01*
X-34754236Y75318818D01*
X-34689734Y75281786D01*
X-34676316Y75272724D01*
X-34592735Y75206565D01*
X-34509016Y75126084D01*
X-34434447Y75040863D01*
X-34378320Y74960489D01*
X-34350421Y74907151D01*
X-34307520Y74801238D01*
X-34273908Y74687957D01*
X-34254484Y74582272D01*
X-34243701Y74484580D01*
X-35164951Y74484580D01*
X-35250647Y74484587D01*
X-35432245Y74484690D01*
X-35586390Y74484978D01*
X-35715761Y74485530D01*
X-35823033Y74486424D01*
X-35910884Y74487742D01*
X-35981991Y74489561D01*
X-36039031Y74491961D01*
X-36084682Y74495022D01*
X-36121621Y74498823D01*
X-36152524Y74503443D01*
X-36180068Y74508961D01*
X-36206932Y74515457D01*
X-36278625Y74537214D01*
X-36357985Y74567043D01*
X-36424355Y74597519D01*
X-36490530Y74638958D01*
X-36579248Y74710191D01*
X-36666006Y74794803D01*
X-36742385Y74884431D01*
X-36799970Y74970715D01*
X-36827178Y75025765D01*
X-36862884Y75116792D01*
X-36892303Y75213185D01*
X-36912273Y75304157D01*
X-36919632Y75378924D01*
X-36919632Y75439836D01*
X-35977879Y75434709D01*
G37*
G36*
X-30403800Y81534000D02*
G01*
X-30778939Y81534000D01*
X-30778939Y76375846D01*
X-32123643Y76375846D01*
X-32119507Y76848676D01*
X-32115370Y77321507D01*
X-31732416Y77330285D01*
X-31732416Y82487476D01*
X-30403800Y82487476D01*
X-30403800Y81534000D01*
G37*
G36*
X-32537483Y78239094D02*
G01*
X-32572095Y78065938D01*
X-32625186Y77884371D01*
X-32675351Y77745992D01*
X-32763949Y77551403D01*
X-32870522Y77371810D01*
X-32999329Y77200340D01*
X-33154629Y77030122D01*
X-33289508Y76903850D01*
X-33497255Y76744272D01*
X-33719309Y76612466D01*
X-33955319Y76508607D01*
X-34204934Y76432866D01*
X-34467800Y76385415D01*
X-34482721Y76384237D01*
X-34530988Y76382767D01*
X-34599967Y76382274D01*
X-34682794Y76382784D01*
X-34772600Y76384321D01*
X-34864750Y76387654D01*
X-35040974Y76403037D01*
X-35203369Y76431573D01*
X-35362629Y76475415D01*
X-35529449Y76536716D01*
X-35635542Y76582992D01*
X-35864578Y76706668D01*
X-36074864Y76854394D01*
X-36265098Y77024598D01*
X-36433982Y77215708D01*
X-36580213Y77426151D01*
X-36702493Y77654354D01*
X-36799521Y77898746D01*
X-36869996Y78157753D01*
X-36876090Y78190208D01*
X-36888446Y78290514D01*
X-36896340Y78409887D01*
X-36899781Y78539991D01*
X-36899002Y78642848D01*
X-35953273Y78642848D01*
X-35952387Y78511276D01*
X-35941864Y78384455D01*
X-35922043Y78274984D01*
X-35920434Y78268677D01*
X-35856938Y78084263D01*
X-35765163Y77911147D01*
X-35646897Y77752167D01*
X-35503922Y77610161D01*
X-35437014Y77559751D01*
X-35341800Y77500661D01*
X-35236431Y77444985D01*
X-35131681Y77398362D01*
X-35038324Y77366433D01*
X-34978554Y77354940D01*
X-34896573Y77345630D01*
X-34801723Y77338980D01*
X-34702771Y77335316D01*
X-34608484Y77334958D01*
X-34527630Y77338232D01*
X-34468976Y77345458D01*
X-34330714Y77383104D01*
X-34170064Y77448367D01*
X-34019186Y77532356D01*
X-33884985Y77631141D01*
X-33774362Y77740794D01*
X-33689048Y77851027D01*
X-33590835Y78015970D01*
X-33521894Y78189455D01*
X-33481185Y78374314D01*
X-33467662Y78573376D01*
X-33472393Y78700808D01*
X-33493853Y78846878D01*
X-33535170Y78987564D01*
X-33599110Y79134676D01*
X-33612419Y79160886D01*
X-33716260Y79327068D01*
X-33843080Y79472152D01*
X-33992215Y79595478D01*
X-34163000Y79696383D01*
X-34322493Y79760622D01*
X-34505930Y79804189D01*
X-34695124Y79820409D01*
X-34885117Y79809245D01*
X-35070953Y79770659D01*
X-35247674Y79704614D01*
X-35285950Y79685832D01*
X-35445526Y79587181D01*
X-35588425Y79465229D01*
X-35711812Y79323628D01*
X-35812853Y79166027D01*
X-35888712Y78996079D01*
X-35936554Y78817434D01*
X-35944186Y78766571D01*
X-35953273Y78642848D01*
X-36899002Y78642848D01*
X-36898778Y78672489D01*
X-36893338Y78799046D01*
X-36883469Y78911326D01*
X-36869180Y79000993D01*
X-36813849Y79209850D01*
X-36720719Y79457352D01*
X-36601970Y79688626D01*
X-36458734Y79902219D01*
X-36292143Y80096675D01*
X-36103328Y80270539D01*
X-35893421Y80422357D01*
X-35663554Y80550675D01*
X-35646095Y80559061D01*
X-35420743Y80652706D01*
X-35196158Y80717734D01*
X-34965751Y80755668D01*
X-34722931Y80768029D01*
X-34707138Y80767996D01*
X-34495805Y80758959D01*
X-34300149Y80732538D01*
X-34109329Y80686749D01*
X-33912503Y80619605D01*
X-33797992Y80571272D01*
X-33577932Y80453813D01*
X-33371681Y80310761D01*
X-33181871Y80144831D01*
X-33011133Y79958737D01*
X-32862098Y79755193D01*
X-32737398Y79536914D01*
X-32639664Y79306615D01*
X-32631633Y79283646D01*
X-32584185Y79129690D01*
X-32550986Y78980593D01*
X-32529876Y78824641D01*
X-32518699Y78650123D01*
X-32517355Y78605760D01*
X-32517765Y78573376D01*
X-32519765Y78415236D01*
X-32537483Y78239094D01*
G37*
G36*
X-32410483Y-76700906D02*
G01*
X-32445095Y-76874062D01*
X-32498186Y-77055629D01*
X-32548351Y-77194008D01*
X-32636949Y-77388597D01*
X-32743522Y-77568190D01*
X-32872329Y-77739660D01*
X-33027629Y-77909878D01*
X-33162508Y-78036150D01*
X-33370255Y-78195728D01*
X-33592309Y-78327534D01*
X-33828319Y-78431393D01*
X-34077934Y-78507134D01*
X-34340800Y-78554585D01*
X-34355721Y-78555763D01*
X-34403988Y-78557233D01*
X-34472967Y-78557726D01*
X-34555794Y-78557216D01*
X-34645600Y-78555679D01*
X-34737750Y-78552346D01*
X-34913974Y-78536963D01*
X-35076369Y-78508427D01*
X-35235629Y-78464585D01*
X-35402449Y-78403284D01*
X-35508542Y-78357008D01*
X-35737578Y-78233332D01*
X-35947864Y-78085606D01*
X-36138098Y-77915402D01*
X-36306982Y-77724292D01*
X-36453213Y-77513849D01*
X-36575493Y-77285646D01*
X-36672521Y-77041254D01*
X-36742996Y-76782247D01*
X-36749090Y-76749792D01*
X-36761446Y-76649486D01*
X-36769340Y-76530113D01*
X-36772781Y-76400009D01*
X-36772002Y-76297152D01*
X-35826273Y-76297152D01*
X-35825387Y-76428724D01*
X-35814864Y-76555545D01*
X-35795043Y-76665016D01*
X-35793434Y-76671323D01*
X-35729938Y-76855737D01*
X-35638163Y-77028853D01*
X-35519897Y-77187833D01*
X-35376922Y-77329839D01*
X-35310014Y-77380249D01*
X-35214800Y-77439339D01*
X-35109431Y-77495015D01*
X-35004681Y-77541638D01*
X-34911324Y-77573567D01*
X-34851554Y-77585060D01*
X-34769573Y-77594370D01*
X-34674723Y-77601020D01*
X-34575771Y-77604684D01*
X-34481484Y-77605042D01*
X-34400630Y-77601768D01*
X-34341976Y-77594542D01*
X-34203714Y-77556896D01*
X-34043064Y-77491633D01*
X-33892186Y-77407644D01*
X-33757985Y-77308859D01*
X-33647362Y-77199206D01*
X-33562048Y-77088973D01*
X-33463835Y-76924030D01*
X-33394894Y-76750545D01*
X-33354185Y-76565686D01*
X-33340662Y-76366624D01*
X-33345393Y-76239192D01*
X-33366853Y-76093122D01*
X-33408170Y-75952436D01*
X-33472110Y-75805324D01*
X-33485419Y-75779114D01*
X-33589260Y-75612932D01*
X-33716080Y-75467848D01*
X-33865215Y-75344522D01*
X-34036000Y-75243617D01*
X-34195493Y-75179378D01*
X-34378930Y-75135811D01*
X-34568124Y-75119591D01*
X-34758117Y-75130755D01*
X-34943953Y-75169341D01*
X-35120674Y-75235386D01*
X-35158950Y-75254168D01*
X-35318526Y-75352819D01*
X-35461425Y-75474771D01*
X-35584812Y-75616372D01*
X-35685853Y-75773973D01*
X-35761712Y-75943921D01*
X-35809554Y-76122566D01*
X-35817186Y-76173429D01*
X-35826273Y-76297152D01*
X-36772002Y-76297152D01*
X-36771778Y-76267511D01*
X-36766338Y-76140954D01*
X-36756469Y-76028674D01*
X-36742180Y-75939007D01*
X-36686849Y-75730150D01*
X-36593719Y-75482648D01*
X-36474970Y-75251374D01*
X-36331734Y-75037781D01*
X-36165143Y-74843325D01*
X-35976328Y-74669461D01*
X-35766421Y-74517643D01*
X-35536554Y-74389325D01*
X-35519095Y-74380939D01*
X-35293743Y-74287294D01*
X-35069158Y-74222266D01*
X-34838751Y-74184332D01*
X-34595931Y-74171971D01*
X-34580138Y-74172004D01*
X-34368805Y-74181041D01*
X-34173149Y-74207462D01*
X-33982329Y-74253251D01*
X-33785503Y-74320395D01*
X-33670992Y-74368728D01*
X-33450932Y-74486187D01*
X-33244681Y-74629239D01*
X-33054871Y-74795169D01*
X-32884133Y-74981263D01*
X-32735098Y-75184807D01*
X-32610398Y-75403086D01*
X-32512664Y-75633385D01*
X-32504633Y-75656354D01*
X-32457185Y-75810310D01*
X-32423986Y-75959407D01*
X-32402876Y-76115359D01*
X-32391699Y-76289877D01*
X-32390355Y-76334240D01*
X-32390765Y-76366624D01*
X-32392765Y-76524764D01*
X-32410483Y-76700906D01*
G37*
G36*
X-30276800Y-73406000D02*
G01*
X-30651939Y-73406000D01*
X-30651939Y-78564154D01*
X-31996643Y-78564154D01*
X-31992507Y-78091324D01*
X-31988370Y-77618493D01*
X-31605416Y-77609715D01*
X-31605416Y-72452524D01*
X-30276800Y-72452524D01*
X-30276800Y-73406000D01*
G37*
G36*
X-35850879Y-79505291D02*
G01*
X-34909125Y-79510418D01*
X-34784079Y-79552723D01*
X-34780937Y-79553796D01*
X-34705452Y-79583763D01*
X-34627236Y-79621182D01*
X-34562734Y-79658214D01*
X-34549316Y-79667276D01*
X-34465735Y-79733435D01*
X-34382016Y-79813916D01*
X-34307447Y-79899137D01*
X-34251320Y-79979511D01*
X-34223421Y-80032849D01*
X-34180520Y-80138762D01*
X-34146908Y-80252043D01*
X-34127484Y-80357728D01*
X-34116701Y-80455420D01*
X-35037951Y-80455420D01*
X-35123647Y-80455413D01*
X-35305245Y-80455310D01*
X-35459390Y-80455022D01*
X-35588761Y-80454470D01*
X-35696033Y-80453576D01*
X-35783884Y-80452258D01*
X-35854991Y-80450439D01*
X-35912031Y-80448039D01*
X-35957682Y-80444978D01*
X-35994621Y-80441177D01*
X-36025524Y-80436557D01*
X-36053068Y-80431039D01*
X-36079932Y-80424543D01*
X-36151625Y-80402786D01*
X-36230985Y-80372957D01*
X-36297355Y-80342481D01*
X-36363530Y-80301042D01*
X-36452248Y-80229809D01*
X-36539006Y-80145197D01*
X-36615385Y-80055569D01*
X-36672970Y-79969285D01*
X-36700178Y-79914235D01*
X-36735884Y-79823208D01*
X-36765303Y-79726815D01*
X-36785273Y-79635843D01*
X-36792632Y-79561076D01*
X-36792632Y-79500164D01*
X-35850879Y-79505291D01*
G37*
G36*
X156667200Y-46863000D02*
G01*
X156292061Y-46863000D01*
X156292061Y-52021154D01*
X154947357Y-52021154D01*
X154951493Y-51548324D01*
X154955630Y-51075493D01*
X155338584Y-51066715D01*
X155338584Y-45909524D01*
X156667200Y-45909524D01*
X156667200Y-46863000D01*
G37*
G36*
X151093121Y-52962291D02*
G01*
X152034875Y-52967418D01*
X152159921Y-53009723D01*
X152163063Y-53010796D01*
X152238548Y-53040763D01*
X152316764Y-53078182D01*
X152381266Y-53115214D01*
X152394684Y-53124276D01*
X152478265Y-53190435D01*
X152561984Y-53270916D01*
X152636553Y-53356137D01*
X152692680Y-53436511D01*
X152720579Y-53489849D01*
X152763480Y-53595762D01*
X152797092Y-53709043D01*
X152816516Y-53814728D01*
X152827299Y-53912420D01*
X151906049Y-53912420D01*
X151820353Y-53912413D01*
X151638755Y-53912310D01*
X151484610Y-53912022D01*
X151355239Y-53911470D01*
X151247967Y-53910576D01*
X151160116Y-53909258D01*
X151089009Y-53907439D01*
X151031969Y-53905039D01*
X150986318Y-53901978D01*
X150949379Y-53898177D01*
X150918476Y-53893557D01*
X150890932Y-53888039D01*
X150864068Y-53881543D01*
X150792375Y-53859786D01*
X150713015Y-53829957D01*
X150646645Y-53799481D01*
X150580470Y-53758042D01*
X150491752Y-53686809D01*
X150404994Y-53602197D01*
X150328615Y-53512569D01*
X150271030Y-53426285D01*
X150243822Y-53371235D01*
X150208116Y-53280208D01*
X150178697Y-53183815D01*
X150158727Y-53092843D01*
X150151368Y-53018076D01*
X150151368Y-52957164D01*
X151093121Y-52962291D01*
G37*
G36*
X154533517Y-50157906D02*
G01*
X154498905Y-50331062D01*
X154445814Y-50512629D01*
X154395649Y-50651008D01*
X154307051Y-50845597D01*
X154200478Y-51025190D01*
X154071671Y-51196660D01*
X153916371Y-51366878D01*
X153781492Y-51493150D01*
X153573745Y-51652728D01*
X153351691Y-51784534D01*
X153115681Y-51888393D01*
X152866066Y-51964134D01*
X152603200Y-52011585D01*
X152588279Y-52012763D01*
X152540012Y-52014233D01*
X152471033Y-52014726D01*
X152388206Y-52014216D01*
X152298400Y-52012679D01*
X152206250Y-52009346D01*
X152030026Y-51993963D01*
X151867631Y-51965427D01*
X151708371Y-51921585D01*
X151541551Y-51860284D01*
X151435458Y-51814008D01*
X151206422Y-51690332D01*
X150996136Y-51542606D01*
X150805902Y-51372402D01*
X150637018Y-51181292D01*
X150490787Y-50970849D01*
X150368507Y-50742646D01*
X150271479Y-50498254D01*
X150201004Y-50239247D01*
X150194910Y-50206792D01*
X150182554Y-50106486D01*
X150174660Y-49987113D01*
X150171219Y-49857009D01*
X150171998Y-49754152D01*
X151117727Y-49754152D01*
X151118613Y-49885724D01*
X151129136Y-50012545D01*
X151148957Y-50122016D01*
X151150566Y-50128323D01*
X151214062Y-50312737D01*
X151305837Y-50485853D01*
X151424103Y-50644833D01*
X151567078Y-50786839D01*
X151633986Y-50837249D01*
X151729200Y-50896339D01*
X151834569Y-50952015D01*
X151939319Y-50998638D01*
X152032676Y-51030567D01*
X152092446Y-51042060D01*
X152174427Y-51051370D01*
X152269277Y-51058020D01*
X152368229Y-51061684D01*
X152462516Y-51062042D01*
X152543370Y-51058768D01*
X152602024Y-51051542D01*
X152740286Y-51013896D01*
X152900936Y-50948633D01*
X153051814Y-50864644D01*
X153186015Y-50765859D01*
X153296638Y-50656206D01*
X153381952Y-50545973D01*
X153480165Y-50381030D01*
X153549106Y-50207545D01*
X153589815Y-50022686D01*
X153603338Y-49823624D01*
X153598607Y-49696192D01*
X153577147Y-49550122D01*
X153535830Y-49409436D01*
X153471890Y-49262324D01*
X153458581Y-49236114D01*
X153354740Y-49069932D01*
X153227920Y-48924848D01*
X153078785Y-48801522D01*
X152908000Y-48700617D01*
X152748507Y-48636378D01*
X152565070Y-48592811D01*
X152375876Y-48576591D01*
X152185883Y-48587755D01*
X152000047Y-48626341D01*
X151823326Y-48692386D01*
X151785050Y-48711168D01*
X151625474Y-48809819D01*
X151482575Y-48931771D01*
X151359188Y-49073372D01*
X151258147Y-49230973D01*
X151182288Y-49400921D01*
X151134446Y-49579566D01*
X151126814Y-49630429D01*
X151117727Y-49754152D01*
X150171998Y-49754152D01*
X150172222Y-49724511D01*
X150177662Y-49597954D01*
X150187531Y-49485674D01*
X150201820Y-49396007D01*
X150257151Y-49187150D01*
X150350281Y-48939648D01*
X150469030Y-48708374D01*
X150612266Y-48494781D01*
X150778857Y-48300325D01*
X150967672Y-48126461D01*
X151177579Y-47974643D01*
X151407446Y-47846325D01*
X151424905Y-47837939D01*
X151650257Y-47744294D01*
X151874842Y-47679266D01*
X152105249Y-47641332D01*
X152348069Y-47628971D01*
X152363862Y-47629004D01*
X152575195Y-47638041D01*
X152770851Y-47664462D01*
X152961671Y-47710251D01*
X153158497Y-47777395D01*
X153273008Y-47825728D01*
X153493068Y-47943187D01*
X153699319Y-48086239D01*
X153889129Y-48252169D01*
X154059867Y-48438263D01*
X154208902Y-48641807D01*
X154333602Y-48860086D01*
X154431336Y-49090385D01*
X154439367Y-49113354D01*
X154486815Y-49267310D01*
X154520014Y-49416407D01*
X154541124Y-49572359D01*
X154552301Y-49746877D01*
X154553645Y-49791240D01*
X154553235Y-49823624D01*
X154551235Y-49981764D01*
X154533517Y-50157906D01*
G37*
G36*
X49758517Y-50792906D02*
G01*
X49723905Y-50966062D01*
X49670814Y-51147629D01*
X49620649Y-51286008D01*
X49532051Y-51480597D01*
X49425478Y-51660190D01*
X49296671Y-51831660D01*
X49141371Y-52001878D01*
X49006492Y-52128150D01*
X48798745Y-52287728D01*
X48576691Y-52419534D01*
X48340681Y-52523393D01*
X48091066Y-52599134D01*
X47828200Y-52646585D01*
X47813279Y-52647763D01*
X47765012Y-52649233D01*
X47696033Y-52649726D01*
X47613206Y-52649216D01*
X47523400Y-52647679D01*
X47431250Y-52644346D01*
X47255026Y-52628963D01*
X47092631Y-52600427D01*
X46933371Y-52556585D01*
X46766551Y-52495284D01*
X46660458Y-52449008D01*
X46431422Y-52325332D01*
X46221136Y-52177606D01*
X46030902Y-52007402D01*
X45862018Y-51816292D01*
X45715787Y-51605849D01*
X45593507Y-51377646D01*
X45496479Y-51133254D01*
X45426004Y-50874247D01*
X45419910Y-50841792D01*
X45407554Y-50741486D01*
X45399660Y-50622113D01*
X45396219Y-50492009D01*
X45396998Y-50389152D01*
X46342727Y-50389152D01*
X46343613Y-50520724D01*
X46354136Y-50647545D01*
X46373957Y-50757016D01*
X46375566Y-50763323D01*
X46439062Y-50947737D01*
X46530837Y-51120853D01*
X46649103Y-51279833D01*
X46792078Y-51421839D01*
X46858986Y-51472249D01*
X46954200Y-51531339D01*
X47059569Y-51587015D01*
X47164319Y-51633638D01*
X47257676Y-51665567D01*
X47317446Y-51677060D01*
X47399427Y-51686370D01*
X47494277Y-51693020D01*
X47593229Y-51696684D01*
X47687516Y-51697042D01*
X47768370Y-51693768D01*
X47827024Y-51686542D01*
X47965286Y-51648896D01*
X48125936Y-51583633D01*
X48276814Y-51499644D01*
X48411015Y-51400859D01*
X48521638Y-51291206D01*
X48606952Y-51180973D01*
X48705165Y-51016030D01*
X48774106Y-50842545D01*
X48814815Y-50657686D01*
X48828338Y-50458624D01*
X48823607Y-50331192D01*
X48802147Y-50185122D01*
X48760830Y-50044436D01*
X48696890Y-49897324D01*
X48683581Y-49871114D01*
X48579740Y-49704932D01*
X48452920Y-49559848D01*
X48303785Y-49436522D01*
X48133000Y-49335617D01*
X47973507Y-49271378D01*
X47790070Y-49227811D01*
X47600876Y-49211591D01*
X47410883Y-49222755D01*
X47225047Y-49261341D01*
X47048326Y-49327386D01*
X47010050Y-49346168D01*
X46850474Y-49444819D01*
X46707575Y-49566771D01*
X46584188Y-49708372D01*
X46483147Y-49865973D01*
X46407288Y-50035921D01*
X46359446Y-50214566D01*
X46351814Y-50265429D01*
X46342727Y-50389152D01*
X45396998Y-50389152D01*
X45397222Y-50359511D01*
X45402662Y-50232954D01*
X45412531Y-50120674D01*
X45426820Y-50031007D01*
X45482151Y-49822150D01*
X45575281Y-49574648D01*
X45694030Y-49343374D01*
X45837266Y-49129781D01*
X46003857Y-48935325D01*
X46192672Y-48761461D01*
X46402579Y-48609643D01*
X46632446Y-48481325D01*
X46649905Y-48472939D01*
X46875257Y-48379294D01*
X47099842Y-48314266D01*
X47330249Y-48276332D01*
X47573069Y-48263971D01*
X47588862Y-48264004D01*
X47800195Y-48273041D01*
X47995851Y-48299462D01*
X48186671Y-48345251D01*
X48383497Y-48412395D01*
X48498008Y-48460728D01*
X48718068Y-48578187D01*
X48924319Y-48721239D01*
X49114129Y-48887169D01*
X49284867Y-49073263D01*
X49433902Y-49276807D01*
X49558602Y-49495086D01*
X49656336Y-49725385D01*
X49664367Y-49748354D01*
X49711815Y-49902310D01*
X49745014Y-50051407D01*
X49766124Y-50207359D01*
X49777301Y-50381877D01*
X49778645Y-50426240D01*
X49778235Y-50458624D01*
X49776235Y-50616764D01*
X49758517Y-50792906D01*
G37*
G36*
X46318121Y-53597291D02*
G01*
X47259875Y-53602418D01*
X47384921Y-53644723D01*
X47388063Y-53645796D01*
X47463548Y-53675763D01*
X47541764Y-53713182D01*
X47606266Y-53750214D01*
X47619684Y-53759276D01*
X47703265Y-53825435D01*
X47786984Y-53905916D01*
X47861553Y-53991137D01*
X47917680Y-54071511D01*
X47945579Y-54124849D01*
X47988480Y-54230762D01*
X48022092Y-54344043D01*
X48041516Y-54449728D01*
X48052299Y-54547420D01*
X47131049Y-54547420D01*
X47045353Y-54547413D01*
X46863755Y-54547310D01*
X46709610Y-54547022D01*
X46580239Y-54546470D01*
X46472967Y-54545576D01*
X46385116Y-54544258D01*
X46314009Y-54542439D01*
X46256969Y-54540039D01*
X46211318Y-54536978D01*
X46174379Y-54533177D01*
X46143476Y-54528557D01*
X46115932Y-54523039D01*
X46089068Y-54516543D01*
X46017375Y-54494786D01*
X45938015Y-54464957D01*
X45871645Y-54434481D01*
X45805470Y-54393042D01*
X45716752Y-54321809D01*
X45629994Y-54237197D01*
X45553615Y-54147569D01*
X45496030Y-54061285D01*
X45468822Y-54006235D01*
X45433116Y-53915208D01*
X45403697Y-53818815D01*
X45383727Y-53727843D01*
X45376368Y-53653076D01*
X45376368Y-53592164D01*
X46318121Y-53597291D01*
G37*
G36*
X51892200Y-47498000D02*
G01*
X51517061Y-47498000D01*
X51517061Y-52656154D01*
X50172357Y-52656154D01*
X50176493Y-52183324D01*
X50180630Y-51710493D01*
X50563584Y-51701715D01*
X50563584Y-46544524D01*
X51892200Y-46544524D01*
X51892200Y-47498000D01*
G37*
%TD*%
D10*
%TO.C,MX43*%
X213614000Y26162000D03*
D11*
X218694000Y26162000D03*
X208534000Y26162000D03*
D12*
X209804000Y28702000D03*
X216154000Y31242000D03*
%TD*%
D10*
%TO.C,MX128*%
X56400700Y-11912600D03*
D13*
X60210700Y-14452600D03*
D11*
X61480700Y-11912600D03*
D13*
X53860700Y-16992600D03*
D11*
X51320700Y-11912600D03*
D14*
X63485700Y-14452600D03*
X50558700Y-16992600D03*
%TD*%
D11*
%TO.C,MX65*%
X141859000Y7112000D03*
D10*
X146939000Y7112000D03*
D11*
X152019000Y7112000D03*
D12*
X143129000Y9652000D03*
X149479000Y12192000D03*
%TD*%
D13*
%TO.C,MX91*%
X-31864300Y2057400D03*
D11*
X-24244300Y7137400D03*
X-34404300Y7137400D03*
D10*
X-29324300Y7137400D03*
D13*
X-25514300Y4597400D03*
D14*
X-22239300Y4597400D03*
X-35166300Y2057400D03*
%TD*%
D13*
%TO.C,MX56*%
X141224000Y23622000D03*
D11*
X132334000Y26162000D03*
D10*
X137414000Y26162000D03*
D11*
X142494000Y26162000D03*
D13*
X134874000Y21082000D03*
D14*
X144499000Y23622000D03*
X131572000Y21082000D03*
%TD*%
D11*
%TO.C,MX169*%
X-76631800Y-50012600D03*
D10*
X-81711800Y-50012600D03*
D11*
X-86791800Y-50012600D03*
D12*
X-85521800Y-47472600D03*
X-79171800Y-44932600D03*
%TD*%
D10*
%TO.C,MX33*%
X4013200Y26187400D03*
D11*
X9093200Y26187400D03*
X-1066800Y26187400D03*
D12*
X203200Y28727400D03*
X6553200Y31267400D03*
%TD*%
D11*
%TO.C,MX127*%
X42430700Y-11912600D03*
D13*
X34810700Y-16992600D03*
X41160700Y-14452600D03*
D10*
X37350700Y-11912600D03*
D11*
X32270700Y-11912600D03*
D14*
X44435700Y-14452600D03*
X31508700Y-16992600D03*
%TD*%
D11*
%TO.C,MX137*%
X285369000Y-30988000D03*
X275209000Y-30988000D03*
D10*
X280289000Y-30988000D03*
D12*
X276479000Y-28448000D03*
X282829000Y-25908000D03*
%TD*%
D13*
%TO.C,MX183*%
X-58851800Y-52552600D03*
D11*
X-67741800Y-50012600D03*
D13*
X-65201800Y-55092600D03*
D11*
X-57581800Y-50012600D03*
D10*
X-62661800Y-50012600D03*
D14*
X-55576800Y-52552600D03*
X-68503800Y-55092600D03*
%TD*%
D10*
%TO.C,MX155*%
X-62661800Y-30962600D03*
D13*
X-65201800Y-36042600D03*
D11*
X-67741800Y-30962600D03*
D13*
X-58851800Y-33502600D03*
D11*
X-57581800Y-30962600D03*
D14*
X-55576800Y-33502600D03*
X-68503800Y-36042600D03*
%TD*%
D11*
%TO.C,MX173*%
X23380700Y-50012600D03*
D10*
X18300700Y-50012600D03*
D11*
X13220700Y-50012600D03*
D12*
X14490700Y-47472600D03*
X20840700Y-44932600D03*
%TD*%
D11*
%TO.C,MX34*%
X17983200Y26187400D03*
X28143200Y26187400D03*
D10*
X23063200Y26187400D03*
D12*
X19253200Y28727400D03*
X25603200Y31267400D03*
%TD*%
D11*
%TO.C,MX131*%
X137096500Y-30988000D03*
D10*
X142176500Y-30988000D03*
D11*
X147256500Y-30988000D03*
D12*
X138366500Y-28448000D03*
X144716500Y-25908000D03*
%TD*%
D13*
%TO.C,MX82*%
X150749000Y4572000D03*
D11*
X141859000Y7112000D03*
D13*
X144399000Y2032000D03*
D10*
X146939000Y7112000D03*
D11*
X152019000Y7112000D03*
D14*
X154024000Y4572000D03*
X141097000Y2032000D03*
%TD*%
D10*
%TO.C,MX6*%
X70688200Y49999900D03*
D11*
X75768200Y49999900D03*
X65608200Y49999900D03*
D12*
X66878200Y52539900D03*
X73228200Y55079900D03*
%TD*%
D15*
%TO.C,REF\u002A\u002A*%
X79121000Y-59817000D03*
X76581000Y-59817000D03*
X77851000Y-59817000D03*
X74041000Y-59817000D03*
X75311000Y-59817000D03*
%TD*%
D13*
%TO.C,MX22*%
X93548200Y47459900D03*
D11*
X94818200Y49999900D03*
X84658200Y49999900D03*
D13*
X87198200Y44919900D03*
D10*
X89738200Y49999900D03*
D14*
X96823200Y47459900D03*
X83896200Y44919900D03*
%TD*%
D13*
%TO.C,MX58*%
X172974000Y21082000D03*
D10*
X175514000Y26162000D03*
D13*
X179324000Y23622000D03*
D11*
X180594000Y26162000D03*
X170434000Y26162000D03*
D14*
X182599000Y23622000D03*
X169672000Y21082000D03*
%TD*%
D11*
%TO.C,MX41*%
X170434000Y26162000D03*
X180594000Y26162000D03*
D10*
X175514000Y26162000D03*
D12*
X171704000Y28702000D03*
X178054000Y31242000D03*
%TD*%
D11*
%TO.C,MX134*%
X194246500Y-30988000D03*
X204406500Y-30988000D03*
D10*
X199326500Y-30988000D03*
D12*
X195516500Y-28448000D03*
X201866500Y-25908000D03*
%TD*%
D13*
%TO.C,MX151*%
X229330250Y-33528000D03*
D10*
X225520250Y-30988000D03*
D11*
X230600250Y-30988000D03*
X220440250Y-30988000D03*
D13*
X222980250Y-36068000D03*
D14*
X232605250Y-33528000D03*
X219678250Y-36068000D03*
%TD*%
D10*
%TO.C,MX142*%
X27825700Y-30962600D03*
D11*
X32905700Y-30962600D03*
X22745700Y-30962600D03*
D12*
X24015700Y-28422600D03*
X30365700Y-25882600D03*
%TD*%
D11*
%TO.C,MX170*%
X-57581800Y-50012600D03*
X-67741800Y-50012600D03*
D10*
X-62661800Y-50012600D03*
D12*
X-66471800Y-47472600D03*
X-60121800Y-44932600D03*
%TD*%
D10*
%TO.C,MX113*%
X75450700Y-11912600D03*
D11*
X70370700Y-11912600D03*
X80530700Y-11912600D03*
D12*
X71640700Y-9372600D03*
X77990700Y-6832600D03*
%TD*%
D11*
%TO.C,MX165*%
X208534000Y-50038000D03*
X218694000Y-50038000D03*
D10*
X213614000Y-50038000D03*
D12*
X209804000Y-47498000D03*
X216154000Y-44958000D03*
%TD*%
D11*
%TO.C,MX167*%
X261493000Y-54787800D03*
D10*
X256413000Y-54787800D03*
D11*
X251333000Y-54787800D03*
D12*
X252603000Y-52247800D03*
X258953000Y-49707800D03*
%TD*%
D11*
%TO.C,MX185*%
X-431800Y-50012600D03*
D13*
X-1701800Y-52552600D03*
D11*
X-10591800Y-50012600D03*
D10*
X-5511800Y-50012600D03*
D13*
X-8051800Y-55092600D03*
D14*
X1573200Y-52552600D03*
X-11353800Y-55092600D03*
%TD*%
D13*
%TO.C,MX153*%
X284099000Y-33528000D03*
D10*
X280289000Y-30988000D03*
D13*
X277749000Y-36068000D03*
D11*
X275209000Y-30988000D03*
X285369000Y-30988000D03*
D14*
X287374000Y-33528000D03*
X274447000Y-36068000D03*
%TD*%
D11*
%TO.C,MX145*%
X79895700Y-30962600D03*
X90055700Y-30962600D03*
D10*
X84975700Y-30962600D03*
D12*
X81165700Y-28422600D03*
X87515700Y-25882600D03*
%TD*%
D10*
%TO.C,MX148*%
X161226500Y-30988000D03*
D11*
X166306500Y-30988000D03*
X156146500Y-30988000D03*
D13*
X165036500Y-33528000D03*
X158686500Y-36068000D03*
D14*
X168311500Y-33528000D03*
X155384500Y-36068000D03*
%TD*%
D15*
%TO.C,REF\u002A\u002A*%
X-24257000Y-59817000D03*
X-19177000Y-59817000D03*
X-22987000Y-59817000D03*
X-20447000Y-59817000D03*
X-21717000Y-59817000D03*
%TD*%
D11*
%TO.C,MX138*%
X-86791800Y-30962600D03*
X-76631800Y-30962600D03*
D10*
X-81711800Y-30962600D03*
D12*
X-85521800Y-28422600D03*
X-79171800Y-25882600D03*
%TD*%
D10*
%TO.C,MX9*%
X146939000Y50038000D03*
D11*
X152019000Y50038000D03*
X141859000Y50038000D03*
D12*
X143129000Y52578000D03*
X149479000Y55118000D03*
%TD*%
D11*
%TO.C,MX72*%
X-76631800Y7137400D03*
D10*
X-81711800Y7137400D03*
D11*
X-86791800Y7137400D03*
D12*
X-85521800Y9677400D03*
X-79171800Y12217400D03*
%TD*%
D10*
%TO.C,MX107*%
X-26943050Y-11912600D03*
D11*
X-21863050Y-11912600D03*
X-32023050Y-11912600D03*
D12*
X-30753050Y-9372600D03*
X-24403050Y-6832600D03*
%TD*%
D10*
%TO.C,MX77*%
X32588200Y7137400D03*
D11*
X37668200Y7137400D03*
X27508200Y7137400D03*
D12*
X28778200Y9677400D03*
X35128200Y12217400D03*
%TD*%
D11*
%TO.C,MX84*%
X179959000Y7112000D03*
D10*
X185039000Y7112000D03*
D11*
X190119000Y7112000D03*
D13*
X182499000Y2032000D03*
X188849000Y4572000D03*
D14*
X192124000Y4572000D03*
X179197000Y2032000D03*
%TD*%
D11*
%TO.C,MX161*%
X90055700Y-30962600D03*
X79895700Y-30962600D03*
D13*
X88785700Y-33502600D03*
D10*
X84975700Y-30962600D03*
D13*
X82435700Y-36042600D03*
D14*
X92060700Y-33502600D03*
X79133700Y-36042600D03*
%TD*%
D13*
%TO.C,MX86*%
X226949000Y4572000D03*
D11*
X218059000Y7112000D03*
X228219000Y7112000D03*
D10*
X223139000Y7112000D03*
D13*
X220599000Y2032000D03*
D14*
X230224000Y4572000D03*
X217297000Y2032000D03*
%TD*%
D10*
%TO.C,MX38*%
X118364000Y26162000D03*
D11*
X113284000Y26162000D03*
X123444000Y26162000D03*
D12*
X114554000Y28702000D03*
X120904000Y31242000D03*
%TD*%
D11*
%TO.C,MX143*%
X41795700Y-30962600D03*
X51955700Y-30962600D03*
D10*
X46875700Y-30962600D03*
D12*
X43065700Y-28422600D03*
X49415700Y-25882600D03*
%TD*%
D16*
%TO.C,JP1*%
X-45847000Y38608000D03*
X-40767000Y38608000D03*
%TD*%
D13*
%TO.C,MX114*%
X117411500Y-14478000D03*
D11*
X118681500Y-11938000D03*
D10*
X113601500Y-11938000D03*
D13*
X111061500Y-17018000D03*
D11*
X108521500Y-11938000D03*
D14*
X120686500Y-14478000D03*
X107759500Y-17018000D03*
%TD*%
D11*
%TO.C,MX36*%
X56083200Y26187400D03*
D10*
X61163200Y26187400D03*
D11*
X66243200Y26187400D03*
D12*
X57353200Y28727400D03*
X63703200Y31267400D03*
%TD*%
D10*
%TO.C,MX88*%
X280289000Y7112000D03*
D11*
X285369000Y7112000D03*
D13*
X277749000Y2032000D03*
D11*
X275209000Y7112000D03*
D13*
X284099000Y4572000D03*
D14*
X287374000Y4572000D03*
X274447000Y2032000D03*
%TD*%
D10*
%TO.C,MX147*%
X142176500Y-30988000D03*
D11*
X147256500Y-30988000D03*
D13*
X139636500Y-36068000D03*
X145986500Y-33528000D03*
D11*
X137096500Y-30988000D03*
D14*
X149261500Y-33528000D03*
X136334500Y-36068000D03*
%TD*%
D10*
%TO.C,MX118*%
X189801500Y-11938000D03*
D13*
X187261500Y-17018000D03*
D11*
X194881500Y-11938000D03*
D13*
X193611500Y-14478000D03*
D11*
X184721500Y-11938000D03*
D14*
X196886500Y-14478000D03*
X183959500Y-17018000D03*
%TD*%
D10*
%TO.C,MX37*%
X80213200Y26187400D03*
D11*
X85293200Y26187400D03*
X75133200Y26187400D03*
D12*
X76403200Y28727400D03*
X82753200Y31267400D03*
%TD*%
D13*
%TO.C,MX89*%
X-84251800Y2057400D03*
D11*
X-86791800Y7137400D03*
D13*
X-77901800Y4597400D03*
D10*
X-81711800Y7137400D03*
D11*
X-76631800Y7137400D03*
D14*
X-74626800Y4597400D03*
X-87553800Y2057400D03*
%TD*%
D11*
%TO.C,MX112*%
X51320700Y-11912600D03*
X61480700Y-11912600D03*
D10*
X56400700Y-11912600D03*
D12*
X52590700Y-9372600D03*
X58940700Y-6832600D03*
%TD*%
D13*
%TO.C,MX178*%
X217424000Y-52578000D03*
D11*
X208534000Y-50038000D03*
X218694000Y-50038000D03*
D10*
X213614000Y-50038000D03*
D13*
X211074000Y-55118000D03*
D14*
X220699000Y-52578000D03*
X207772000Y-55118000D03*
%TD*%
D13*
%TO.C,MX19*%
X25285700Y44919900D03*
X31635700Y47459900D03*
D10*
X27825700Y49999900D03*
D11*
X32905700Y49999900D03*
X22745700Y49999900D03*
D14*
X34910700Y47459900D03*
X21983700Y44919900D03*
%TD*%
D11*
%TO.C,MX164*%
X189484000Y-50038000D03*
X199644000Y-50038000D03*
D10*
X194564000Y-50038000D03*
D12*
X190754000Y-47498000D03*
X197104000Y-44958000D03*
%TD*%
D11*
%TO.C,MX43*%
X227584000Y26162000D03*
D10*
X232664000Y26162000D03*
D11*
X237744000Y26162000D03*
D12*
X228854000Y28702000D03*
X235204000Y31242000D03*
%TD*%
D11*
%TO.C,MX146*%
X128206500Y-30988000D03*
X118046500Y-30988000D03*
D10*
X123126500Y-30988000D03*
D13*
X126936500Y-33528000D03*
X120586500Y-36068000D03*
D14*
X130211500Y-33528000D03*
X117284500Y-36068000D03*
%TD*%
D11*
%TO.C,MX16*%
X-39166800Y49999900D03*
D10*
X-34086800Y49999900D03*
D13*
X-36626800Y44919900D03*
X-30276800Y47459900D03*
D11*
X-29006800Y49999900D03*
D14*
X-27001800Y47459900D03*
X-39928800Y44919900D03*
%TD*%
D13*
%TO.C,MX158*%
X25285700Y-36042600D03*
D11*
X22745700Y-30962600D03*
X32905700Y-30962600D03*
D13*
X31635700Y-33502600D03*
D10*
X27825700Y-30962600D03*
D14*
X34910700Y-33502600D03*
X21983700Y-36042600D03*
%TD*%
D10*
%TO.C,MX105*%
X-81711800Y-11912600D03*
D11*
X-76631800Y-11912600D03*
X-86791800Y-11912600D03*
D12*
X-85521800Y-9372600D03*
X-79171800Y-6832600D03*
%TD*%
D11*
%TO.C,MX74*%
X-34404300Y7137400D03*
D10*
X-29324300Y7137400D03*
D11*
X-24244300Y7137400D03*
D12*
X-33134300Y9677400D03*
X-26784300Y12217400D03*
%TD*%
D11*
%TO.C,MX116*%
X146621500Y-11938000D03*
D10*
X151701500Y-11938000D03*
D13*
X155511500Y-14478000D03*
D11*
X156781500Y-11938000D03*
D13*
X149161500Y-17018000D03*
D14*
X158786500Y-14478000D03*
X145859500Y-17018000D03*
%TD*%
D10*
%TO.C,MX76*%
X13538200Y7137400D03*
D11*
X8458200Y7137400D03*
X18618200Y7137400D03*
D12*
X9728200Y9677400D03*
X16078200Y12217400D03*
%TD*%
D10*
%TO.C,MX104*%
X280289000Y-11938000D03*
D11*
X275209000Y-11938000D03*
X285369000Y-11938000D03*
D12*
X276479000Y-9398000D03*
X282829000Y-6858000D03*
%TD*%
D11*
%TO.C,MX154*%
X-86791800Y-30962600D03*
X-76631800Y-30962600D03*
D13*
X-77901800Y-33502600D03*
D10*
X-81711800Y-30962600D03*
D13*
X-84251800Y-36042600D03*
D14*
X-74626800Y-33502600D03*
X-87553800Y-36042600D03*
%TD*%
D13*
%TO.C,MX26*%
X193611500Y47498000D03*
X187261500Y44958000D03*
D11*
X184721500Y50038000D03*
D10*
X189801500Y50038000D03*
D11*
X194881500Y50038000D03*
D14*
X196886500Y47498000D03*
X183959500Y44958000D03*
%TD*%
D13*
%TO.C,MX20*%
X50685700Y47459900D03*
D11*
X41795700Y49999900D03*
X51955700Y49999900D03*
D13*
X44335700Y44919900D03*
D10*
X46875700Y49999900D03*
D14*
X53960700Y47459900D03*
X41033700Y44919900D03*
%TD*%
D11*
%TO.C,MX69*%
X228219000Y7112000D03*
D10*
X223139000Y7112000D03*
D11*
X218059000Y7112000D03*
D12*
X219329000Y9652000D03*
X225679000Y12192000D03*
%TD*%
D11*
%TO.C,MX98*%
X137731500Y-11938000D03*
X127571500Y-11938000D03*
D10*
X132651500Y-11938000D03*
D12*
X128841500Y-9398000D03*
X135191500Y-6858000D03*
%TD*%
D11*
%TO.C,MX2*%
X-5194300Y49999900D03*
D10*
X-10274300Y49999900D03*
D11*
X-15354300Y49999900D03*
D12*
X-14084300Y52539900D03*
X-7734300Y55079900D03*
%TD*%
D13*
%TO.C,MX159*%
X44335700Y-36042600D03*
D11*
X41795700Y-30962600D03*
X51955700Y-30962600D03*
D13*
X50685700Y-33502600D03*
D10*
X46875700Y-30962600D03*
D14*
X53960700Y-33502600D03*
X41033700Y-36042600D03*
%TD*%
D11*
%TO.C,MX182*%
X-76631800Y-50012600D03*
D13*
X-84251800Y-55092600D03*
X-77901800Y-52552600D03*
D11*
X-86791800Y-50012600D03*
D10*
X-81711800Y-50012600D03*
D14*
X-74626800Y-52552600D03*
X-87553800Y-55092600D03*
%TD*%
D11*
%TO.C,MX40*%
X161544000Y26162000D03*
D10*
X156464000Y26162000D03*
D11*
X151384000Y26162000D03*
D12*
X152654000Y28702000D03*
X159004000Y31242000D03*
%TD*%
D11*
%TO.C,MX152*%
X251333000Y-35737800D03*
D13*
X260223000Y-38277800D03*
D11*
X261493000Y-35737800D03*
D13*
X253873000Y-40817800D03*
D10*
X256413000Y-35737800D03*
D14*
X263498000Y-38277800D03*
X250571000Y-40817800D03*
%TD*%
D11*
%TO.C,MX61*%
X237109000Y26162000D03*
D10*
X254127000Y34417000D03*
X242189000Y26162000D03*
D13*
X245999000Y23622000D03*
D10*
X230251000Y34417000D03*
D11*
X247269000Y26162000D03*
D17*
X254127000Y19177000D03*
D13*
X239649000Y21082000D03*
D17*
X230251000Y19177000D03*
D14*
X249274000Y23622000D03*
X236347000Y21082000D03*
%TD*%
D11*
%TO.C,MX144*%
X60845700Y-30962600D03*
X71005700Y-30962600D03*
D10*
X65925700Y-30962600D03*
D12*
X62115700Y-28422600D03*
X68465700Y-25882600D03*
%TD*%
D11*
%TO.C,MX10*%
X175831500Y50038000D03*
D10*
X170751500Y50038000D03*
D11*
X165671500Y50038000D03*
D12*
X166941500Y52578000D03*
X173291500Y55118000D03*
%TD*%
D13*
%TO.C,MX121*%
X277749000Y-17018000D03*
D11*
X275209000Y-11938000D03*
D13*
X284099000Y-14478000D03*
D10*
X280289000Y-11938000D03*
D11*
X285369000Y-11938000D03*
D14*
X287374000Y-14478000D03*
X274447000Y-17018000D03*
%TD*%
D15*
%TO.C,REF\u002A\u002A*%
X131953000Y-59817000D03*
X130683000Y-59817000D03*
X126873000Y-59817000D03*
X129413000Y-59817000D03*
X128143000Y-59817000D03*
%TD*%
D11*
%TO.C,MX109*%
X4330700Y-11912600D03*
D10*
X-749300Y-11912600D03*
D11*
X-5829300Y-11912600D03*
D12*
X-4559300Y-9372600D03*
X1790700Y-6832600D03*
%TD*%
D13*
%TO.C,MX120*%
X243617750Y-14478000D03*
D17*
X251745750Y-18923000D03*
D11*
X244887750Y-11938000D03*
D17*
X227869750Y-18923000D03*
D13*
X237267750Y-17018000D03*
D10*
X239807750Y-11938000D03*
D11*
X234727750Y-11938000D03*
D10*
X227869750Y-3683000D03*
X251745750Y-3683000D03*
D14*
X246892750Y-14478000D03*
X233965750Y-17018000D03*
%TD*%
D10*
%TO.C,MX13*%
X227901500Y50038000D03*
D11*
X232981500Y50038000D03*
X222821500Y50038000D03*
D12*
X224091500Y52578000D03*
X230441500Y55118000D03*
%TD*%
D13*
%TO.C,MX80*%
X106299000Y2032000D03*
D10*
X108839000Y7112000D03*
D11*
X103759000Y7112000D03*
D13*
X112649000Y4572000D03*
D11*
X113919000Y7112000D03*
D14*
X115924000Y4572000D03*
X102997000Y2032000D03*
%TD*%
D15*
%TO.C,REF\u002A\u002A*%
X207645000Y-59817000D03*
X206375000Y-59817000D03*
X208915000Y-59817000D03*
X210185000Y-59817000D03*
X205105000Y-59817000D03*
%TD*%
D11*
%TO.C,MX4*%
X32905700Y49999900D03*
X22745700Y49999900D03*
D10*
X27825700Y49999900D03*
D12*
X24015700Y52539900D03*
X30365700Y55079900D03*
%TD*%
D11*
%TO.C,MX15*%
X275209000Y50038000D03*
D10*
X280289000Y50038000D03*
D11*
X285369000Y50038000D03*
D12*
X276479000Y52578000D03*
X282829000Y55118000D03*
%TD*%
D10*
%TO.C,MX32*%
X-15036800Y26187400D03*
D11*
X-9956800Y26187400D03*
X-20116800Y26187400D03*
D12*
X-18846800Y28727400D03*
X-12496800Y31267400D03*
%TD*%
D11*
%TO.C,MX85*%
X209169000Y7112000D03*
D13*
X207899000Y4572000D03*
X201549000Y2032000D03*
D10*
X204089000Y7112000D03*
D11*
X199009000Y7112000D03*
D14*
X211174000Y4572000D03*
X198247000Y2032000D03*
%TD*%
D11*
%TO.C,MX168*%
X280543000Y-54787800D03*
X270383000Y-54787800D03*
D10*
X275463000Y-54787800D03*
D12*
X271653000Y-52247800D03*
X278003000Y-49707800D03*
%TD*%
D13*
%TO.C,MX160*%
X63385700Y-36042600D03*
X69735700Y-33502600D03*
D11*
X60845700Y-30962600D03*
X71005700Y-30962600D03*
D10*
X65925700Y-30962600D03*
D14*
X73010700Y-33502600D03*
X60083700Y-36042600D03*
%TD*%
D16*
%TO.C,JP2*%
X264541000Y-24257000D03*
X269621000Y-24257000D03*
%TD*%
D11*
%TO.C,MX70*%
X252031500Y7112000D03*
X241871500Y7112000D03*
D10*
X246951500Y7112000D03*
D12*
X243141500Y9652000D03*
X249491500Y12192000D03*
%TD*%
D13*
%TO.C,MX175*%
X134874000Y-55118000D03*
D11*
X142494000Y-50038000D03*
D13*
X141224000Y-52578000D03*
D11*
X132334000Y-50038000D03*
D10*
X137414000Y-50038000D03*
D14*
X144499000Y-52578000D03*
X131572000Y-55118000D03*
%TD*%
D11*
%TO.C,MX45*%
X237109000Y26162000D03*
D17*
X254095250Y33147000D03*
D11*
X247269000Y26162000D03*
D10*
X230282750Y17907000D03*
X242189000Y26162000D03*
X254095250Y17907000D03*
D17*
X230282750Y33147000D03*
D12*
X238379000Y28702000D03*
X244729000Y31242000D03*
%TD*%
D11*
%TO.C,MX23*%
X132969000Y50038000D03*
D10*
X127889000Y50038000D03*
D13*
X131699000Y47498000D03*
X125349000Y44958000D03*
D11*
X122809000Y50038000D03*
D14*
X134974000Y47498000D03*
X122047000Y44958000D03*
%TD*%
D10*
%TO.C,MX139*%
X-62661800Y-30962600D03*
D11*
X-57581800Y-30962600D03*
X-67741800Y-30962600D03*
D12*
X-66471800Y-28422600D03*
X-60121800Y-25882600D03*
%TD*%
D13*
%TO.C,MX18*%
X6235700Y44919900D03*
D11*
X3695700Y49999900D03*
D13*
X12585700Y47459900D03*
D10*
X8775700Y49999900D03*
D11*
X13855700Y49999900D03*
D14*
X15860700Y47459900D03*
X2933700Y44919900D03*
%TD*%
D13*
%TO.C,MX93*%
X17348200Y4597400D03*
D10*
X13538200Y7137400D03*
D11*
X18618200Y7137400D03*
D13*
X10998200Y2057400D03*
D11*
X8458200Y7137400D03*
D14*
X20623200Y4597400D03*
X7696200Y2057400D03*
%TD*%
D11*
%TO.C,MX141*%
X13855700Y-30962600D03*
D10*
X8775700Y-30962600D03*
D11*
X3695700Y-30962600D03*
D12*
X4965700Y-28422600D03*
X11315700Y-25882600D03*
%TD*%
D11*
%TO.C,MX75*%
X-10591800Y7137400D03*
D10*
X-5511800Y7137400D03*
D11*
X-431800Y7137400D03*
D12*
X-9321800Y9677400D03*
X-2971800Y12217400D03*
%TD*%
D15*
%TO.C,REF\u002A\u002A*%
X-15367000Y-59817000D03*
X-14097000Y-59817000D03*
X-12827000Y-59817000D03*
X-17907000Y-59817000D03*
X-16637000Y-59817000D03*
%TD*%
D13*
%TO.C,MX119*%
X206311500Y-17018000D03*
D10*
X208851500Y-11938000D03*
D11*
X203771500Y-11938000D03*
D13*
X212661500Y-14478000D03*
D11*
X213931500Y-11938000D03*
D14*
X215936500Y-14478000D03*
X203009500Y-17018000D03*
%TD*%
D13*
%TO.C,MX60*%
X211074000Y21082000D03*
D11*
X218694000Y26162000D03*
D13*
X217424000Y23622000D03*
D11*
X208534000Y26162000D03*
D10*
X213614000Y26162000D03*
D14*
X220699000Y23622000D03*
X207772000Y21082000D03*
%TD*%
D10*
%TO.C,MX124*%
X-26943050Y-11912600D03*
D13*
X-29483050Y-16992600D03*
D11*
X-32023050Y-11912600D03*
X-21863050Y-11912600D03*
D13*
X-23133050Y-14452600D03*
D14*
X-19858050Y-14452600D03*
X-32785050Y-16992600D03*
%TD*%
D10*
%TO.C,MX81*%
X127889000Y7112000D03*
D11*
X122809000Y7112000D03*
D13*
X131699000Y4572000D03*
X125349000Y2032000D03*
D11*
X132969000Y7112000D03*
D14*
X134974000Y4572000D03*
X122047000Y2032000D03*
%TD*%
D11*
%TO.C,MX62*%
X275209000Y26162000D03*
X285369000Y26162000D03*
D13*
X284099000Y23622000D03*
D10*
X280289000Y26162000D03*
D13*
X277749000Y21082000D03*
D14*
X287374000Y23622000D03*
X274447000Y21082000D03*
%TD*%
D10*
%TO.C,MX140*%
X-34086800Y-39217600D03*
D11*
X-27260550Y-30962600D03*
D17*
X-10274300Y-23977600D03*
D10*
X-22180550Y-30962600D03*
D11*
X-17100550Y-30962600D03*
D17*
X-34086800Y-23977600D03*
D10*
X-10274300Y-39217600D03*
D12*
X-25990550Y-28422600D03*
X-19640550Y-25882600D03*
%TD*%
D10*
%TO.C,MX174*%
X42113200Y-41757600D03*
D11*
X56083200Y-50012600D03*
D17*
X80213200Y-56997600D03*
D10*
X61163200Y-50012600D03*
D17*
X42113200Y-56997600D03*
D10*
X80213200Y-41757600D03*
D11*
X66243200Y-50012600D03*
D12*
X57353200Y-47472600D03*
X63703200Y-44932600D03*
%TD*%
D11*
%TO.C,MX47*%
X275209000Y26162000D03*
D10*
X280289000Y26162000D03*
D11*
X285369000Y26162000D03*
D12*
X276479000Y28702000D03*
X282829000Y31242000D03*
%TD*%
D10*
%TO.C,MX186*%
X18300700Y-50012600D03*
D11*
X13220700Y-50012600D03*
D13*
X15760700Y-55092600D03*
D11*
X23380700Y-50012600D03*
D13*
X22110700Y-52552600D03*
D14*
X25385700Y-52552600D03*
X12458700Y-55092600D03*
%TD*%
D13*
%TO.C,MX126*%
X22110700Y-14452600D03*
X15760700Y-16992600D03*
D11*
X13220700Y-11912600D03*
X23380700Y-11912600D03*
D10*
X18300700Y-11912600D03*
D14*
X25385700Y-14452600D03*
X12458700Y-16992600D03*
%TD*%
D11*
%TO.C,MX29*%
X246634000Y50038000D03*
X256794000Y50038000D03*
D13*
X249174000Y44958000D03*
D10*
X251714000Y50038000D03*
D13*
X255524000Y47498000D03*
D14*
X258799000Y47498000D03*
X245872000Y44958000D03*
%TD*%
D13*
%TO.C,MX187*%
X64973200Y-52552600D03*
D11*
X56083200Y-50012600D03*
D13*
X58623200Y-55092600D03*
D10*
X61163200Y-50012600D03*
D11*
X66243200Y-50012600D03*
D14*
X68248200Y-52552600D03*
X55321200Y-55092600D03*
%TD*%
D11*
%TO.C,MX122*%
X-76631800Y-11912600D03*
D13*
X-77901800Y-14452600D03*
D11*
X-86791800Y-11912600D03*
D10*
X-81711800Y-11912600D03*
D13*
X-84251800Y-16992600D03*
D14*
X-74626800Y-14452600D03*
X-87553800Y-16992600D03*
%TD*%
D15*
%TO.C,REF\u002A\u002A*%
X85471000Y-59817000D03*
X81661000Y-59817000D03*
X82931000Y-59817000D03*
X84201000Y-59817000D03*
X80391000Y-59817000D03*
%TD*%
%TO.C,REF\u002A\u002A*%
X194691000Y59817000D03*
X189611000Y59817000D03*
X193421000Y59817000D03*
X190881000Y59817000D03*
X192151000Y59817000D03*
%TD*%
%TO.C,REF\u002A\u002A*%
X24892000Y59817000D03*
X21082000Y59817000D03*
X23622000Y59817000D03*
X19812000Y59817000D03*
X22352000Y59817000D03*
%TD*%
D11*
%TO.C,MX55*%
X123444000Y26162000D03*
X113284000Y26162000D03*
D10*
X118364000Y26162000D03*
D13*
X115824000Y21082000D03*
X122174000Y23622000D03*
D14*
X125449000Y23622000D03*
X112522000Y21082000D03*
%TD*%
D11*
%TO.C,MX99*%
X146621500Y-11938000D03*
X156781500Y-11938000D03*
D10*
X151701500Y-11938000D03*
D12*
X147891500Y-9398000D03*
X154241500Y-6858000D03*
%TD*%
D10*
%TO.C,MX130*%
X123126500Y-30988000D03*
D11*
X118046500Y-30988000D03*
X128206500Y-30988000D03*
D12*
X119316500Y-28448000D03*
X125666500Y-25908000D03*
%TD*%
D11*
%TO.C,MX64*%
X122809000Y7112000D03*
X132969000Y7112000D03*
D10*
X127889000Y7112000D03*
D12*
X124079000Y9652000D03*
X130429000Y12192000D03*
%TD*%
D10*
%TO.C,MX3*%
X8775700Y49999900D03*
D11*
X13855700Y49999900D03*
X3695700Y49999900D03*
D12*
X4965700Y52539900D03*
X11315700Y55079900D03*
%TD*%
D13*
%TO.C,MX24*%
X150749000Y47498000D03*
X144399000Y44958000D03*
D11*
X141859000Y50038000D03*
D10*
X146939000Y50038000D03*
D11*
X152019000Y50038000D03*
D14*
X154024000Y47498000D03*
X141097000Y44958000D03*
%TD*%
D10*
%TO.C,MX135*%
X225520250Y-30988000D03*
D11*
X230600250Y-30988000D03*
X220440250Y-30988000D03*
D12*
X221710250Y-28448000D03*
X228060250Y-25908000D03*
%TD*%
D13*
%TO.C,MX96*%
X74498200Y4597400D03*
X68148200Y2057400D03*
D10*
X70688200Y7137400D03*
D11*
X65608200Y7137400D03*
X75768200Y7137400D03*
D14*
X77773200Y4597400D03*
X64846200Y2057400D03*
%TD*%
D11*
%TO.C,MX83*%
X160909000Y7112000D03*
D13*
X169799000Y4572000D03*
D11*
X171069000Y7112000D03*
D13*
X163449000Y2032000D03*
D10*
X165989000Y7112000D03*
D14*
X173074000Y4572000D03*
X160147000Y2032000D03*
%TD*%
D11*
%TO.C,MX103*%
X234727750Y-11938000D03*
D10*
X239807750Y-11938000D03*
D17*
X227901500Y-4953000D03*
D10*
X251714000Y-20193000D03*
X227901500Y-20193000D03*
D17*
X251714000Y-4953000D03*
D11*
X244887750Y-11938000D03*
D12*
X235997750Y-9398000D03*
X242347750Y-6858000D03*
%TD*%
D10*
%TO.C,MX123*%
X-62661800Y-11912600D03*
D11*
X-57581800Y-11912600D03*
D13*
X-65201800Y-16992600D03*
X-58851800Y-14452600D03*
D11*
X-67741800Y-11912600D03*
D14*
X-55576800Y-14452600D03*
X-68503800Y-16992600D03*
%TD*%
D10*
%TO.C,MX100*%
X170751500Y-11938000D03*
D11*
X165671500Y-11938000D03*
X175831500Y-11938000D03*
D12*
X166941500Y-9398000D03*
X173291500Y-6858000D03*
%TD*%
D11*
%TO.C,MX39*%
X142494000Y26162000D03*
D10*
X137414000Y26162000D03*
D11*
X132334000Y26162000D03*
D12*
X133604000Y28702000D03*
X139954000Y31242000D03*
%TD*%
D11*
%TO.C,MX90*%
X-57581800Y7137400D03*
D13*
X-58851800Y4597400D03*
D11*
X-67741800Y7137400D03*
D10*
X-62661800Y7137400D03*
D13*
X-65201800Y2057400D03*
D14*
X-55576800Y4597400D03*
X-68503800Y2057400D03*
%TD*%
D11*
%TO.C,MX50*%
X-1066800Y26187400D03*
D13*
X1473200Y21107400D03*
D11*
X9093200Y26187400D03*
D13*
X7823200Y23647400D03*
D10*
X4013200Y26187400D03*
D14*
X11098200Y23647400D03*
X-1828800Y21107400D03*
%TD*%
D11*
%TO.C,MX30*%
X275209000Y50038000D03*
X285369000Y50038000D03*
D13*
X284099000Y47498000D03*
X277749000Y44958000D03*
D10*
X280289000Y50038000D03*
D14*
X287374000Y47498000D03*
X274447000Y44958000D03*
%TD*%
D11*
%TO.C,MX129*%
X70370700Y-11912600D03*
D13*
X79260700Y-14452600D03*
D11*
X80530700Y-11912600D03*
D13*
X72910700Y-16992600D03*
D10*
X75450700Y-11912600D03*
D14*
X82535700Y-14452600D03*
X69608700Y-16992600D03*
%TD*%
D11*
%TO.C,MX51*%
X28143200Y26187400D03*
D10*
X23063200Y26187400D03*
D13*
X20523200Y21107400D03*
D11*
X17983200Y26187400D03*
D13*
X26873200Y23647400D03*
D14*
X30148200Y23647400D03*
X17221200Y21107400D03*
%TD*%
D13*
%TO.C,MX177*%
X198374000Y-52578000D03*
D10*
X194564000Y-50038000D03*
D11*
X189484000Y-50038000D03*
X199644000Y-50038000D03*
D13*
X192024000Y-55118000D03*
D14*
X201649000Y-52578000D03*
X188722000Y-55118000D03*
%TD*%
D13*
%TO.C,MX95*%
X55448200Y4597400D03*
X49098200Y2057400D03*
D10*
X51638200Y7137400D03*
D11*
X46558200Y7137400D03*
X56718200Y7137400D03*
D14*
X58723200Y4597400D03*
X45796200Y2057400D03*
%TD*%
D11*
%TO.C,MX5*%
X51955700Y49999900D03*
X41795700Y49999900D03*
D10*
X46875700Y49999900D03*
D12*
X43065700Y52539900D03*
X49415700Y55079900D03*
%TD*%
D11*
%TO.C,MX14*%
X246634000Y50038000D03*
X256794000Y50038000D03*
D10*
X251714000Y50038000D03*
D12*
X247904000Y52578000D03*
X254254000Y55118000D03*
%TD*%
D11*
%TO.C,MX172*%
X-431800Y-50012600D03*
D10*
X-5511800Y-50012600D03*
D11*
X-10591800Y-50012600D03*
D12*
X-9321800Y-47472600D03*
X-2971800Y-44932600D03*
%TD*%
D15*
%TO.C,REF\u002A\u002A*%
X10160000Y-59817000D03*
X7620000Y-59817000D03*
X12700000Y-59817000D03*
X8890000Y-59817000D03*
X11430000Y-59817000D03*
%TD*%
D11*
%TO.C,MX1*%
X-29006800Y49999900D03*
D10*
X-34086800Y49999900D03*
D11*
X-39166800Y49999900D03*
D12*
X-37896800Y52539900D03*
X-31546800Y55079900D03*
%TD*%
D11*
%TO.C,MX184*%
X-24244300Y-50012600D03*
D10*
X-29324300Y-50012600D03*
D13*
X-31864300Y-55092600D03*
X-25514300Y-52552600D03*
D11*
X-34404300Y-50012600D03*
D14*
X-22239300Y-52552600D03*
X-35166300Y-55092600D03*
%TD*%
D11*
%TO.C,MX132*%
X166306500Y-30988000D03*
X156146500Y-30988000D03*
D10*
X161226500Y-30988000D03*
D12*
X157416500Y-28448000D03*
X163766500Y-25908000D03*
%TD*%
D13*
%TO.C,MX59*%
X198374000Y23622000D03*
D11*
X199644000Y26162000D03*
D13*
X192024000Y21082000D03*
D11*
X189484000Y26162000D03*
D10*
X194564000Y26162000D03*
D14*
X201649000Y23622000D03*
X188722000Y21082000D03*
%TD*%
D11*
%TO.C,MX71*%
X275209000Y7112000D03*
X285369000Y7112000D03*
D10*
X280289000Y7112000D03*
D12*
X276479000Y9652000D03*
X282829000Y12192000D03*
%TD*%
D11*
%TO.C,MX17*%
X-5194300Y49999900D03*
D13*
X-6464300Y47459900D03*
D11*
X-15354300Y49999900D03*
D10*
X-10274300Y49999900D03*
D13*
X-12814300Y44919900D03*
D14*
X-3189300Y47459900D03*
X-16116300Y44919900D03*
%TD*%
D15*
%TO.C,REF\u002A\u002A*%
X3810000Y-59817000D03*
X5080000Y-59817000D03*
X6350000Y-59817000D03*
X2540000Y-59817000D03*
X1270000Y-59817000D03*
%TD*%
D13*
%TO.C,MX117*%
X174561500Y-14478000D03*
X168211500Y-17018000D03*
D11*
X175831500Y-11938000D03*
D10*
X170751500Y-11938000D03*
D11*
X165671500Y-11938000D03*
D14*
X177836500Y-14478000D03*
X164909500Y-17018000D03*
%TD*%
D10*
%TO.C,MX94*%
X32588200Y7137400D03*
D13*
X30048200Y2057400D03*
D11*
X37668200Y7137400D03*
X27508200Y7137400D03*
D13*
X36398200Y4597400D03*
D14*
X39673200Y4597400D03*
X26746200Y2057400D03*
%TD*%
D10*
%TO.C,MX115*%
X132651500Y-11938000D03*
D11*
X137731500Y-11938000D03*
D13*
X130111500Y-17018000D03*
X136461500Y-14478000D03*
D11*
X127571500Y-11938000D03*
D14*
X139736500Y-14478000D03*
X126809500Y-17018000D03*
%TD*%
D11*
%TO.C,MX87*%
X252031500Y7112000D03*
X241871500Y7112000D03*
D13*
X250761500Y4572000D03*
D10*
X246951500Y7112000D03*
D13*
X244411500Y2032000D03*
D14*
X254036500Y4572000D03*
X241109500Y2032000D03*
%TD*%
D11*
%TO.C,MX106*%
X-67741800Y-11912600D03*
D10*
X-62661800Y-11912600D03*
D11*
X-57581800Y-11912600D03*
D12*
X-66471800Y-9372600D03*
X-60121800Y-6832600D03*
%TD*%
D11*
%TO.C,MX133*%
X185356500Y-30988000D03*
D10*
X180276500Y-30988000D03*
D11*
X175196500Y-30988000D03*
D12*
X176466500Y-28448000D03*
X182816500Y-25908000D03*
%TD*%
D11*
%TO.C,MX63*%
X103759000Y7112000D03*
D10*
X108839000Y7112000D03*
D11*
X113919000Y7112000D03*
D12*
X105029000Y9652000D03*
X111379000Y12192000D03*
%TD*%
D11*
%TO.C,MX53*%
X66243200Y26187400D03*
X56083200Y26187400D03*
D13*
X64973200Y23647400D03*
X58623200Y21107400D03*
D10*
X61163200Y26187400D03*
D14*
X68248200Y23647400D03*
X55321200Y21107400D03*
%TD*%
D11*
%TO.C,MX42*%
X189484000Y26162000D03*
X199644000Y26162000D03*
D10*
X194564000Y26162000D03*
D12*
X190754000Y28702000D03*
X197104000Y31242000D03*
%TD*%
D10*
%TO.C,MX156*%
X-22180550Y-30962600D03*
D17*
X-10242550Y-37947600D03*
D11*
X-17100550Y-30962600D03*
D17*
X-34118550Y-37947600D03*
D10*
X-10242550Y-22707600D03*
X-34118550Y-22707600D03*
D13*
X-18370550Y-33502600D03*
D11*
X-27260550Y-30962600D03*
D13*
X-24720550Y-36042600D03*
D14*
X-15095550Y-33502600D03*
X-28022550Y-36042600D03*
%TD*%
D13*
%TO.C,MX25*%
X174561500Y47498000D03*
X168211500Y44958000D03*
D10*
X170751500Y50038000D03*
D11*
X165671500Y50038000D03*
X175831500Y50038000D03*
D14*
X177836500Y47498000D03*
X164909500Y44958000D03*
%TD*%
D10*
%TO.C,MX67*%
X185039000Y7112000D03*
D11*
X179959000Y7112000D03*
X190119000Y7112000D03*
D12*
X181229000Y9652000D03*
X187579000Y12192000D03*
%TD*%
D10*
%TO.C,MX12*%
X208851500Y50038000D03*
D11*
X213931500Y50038000D03*
X203771500Y50038000D03*
D12*
X205041500Y52578000D03*
X211391500Y55118000D03*
%TD*%
D11*
%TO.C,MX11*%
X184721500Y50038000D03*
D10*
X189801500Y50038000D03*
D11*
X194881500Y50038000D03*
D12*
X185991500Y52578000D03*
X192341500Y55118000D03*
%TD*%
D13*
%TO.C,MX150*%
X203136500Y-33528000D03*
D11*
X204406500Y-30988000D03*
D10*
X199326500Y-30988000D03*
D13*
X196786500Y-36068000D03*
D11*
X194246500Y-30988000D03*
D14*
X206411500Y-33528000D03*
X193484500Y-36068000D03*
%TD*%
D15*
%TO.C,REF\u002A\u002A*%
X15875000Y59817000D03*
X17145000Y59817000D03*
X18415000Y59817000D03*
X14605000Y59817000D03*
X13335000Y59817000D03*
%TD*%
D11*
%TO.C,MX101*%
X184721500Y-11938000D03*
X194881500Y-11938000D03*
D10*
X189801500Y-11938000D03*
D12*
X185991500Y-9398000D03*
X192341500Y-6858000D03*
%TD*%
D11*
%TO.C,MX68*%
X199009000Y7112000D03*
X209169000Y7112000D03*
D10*
X204089000Y7112000D03*
D12*
X200279000Y9652000D03*
X206629000Y12192000D03*
%TD*%
D11*
%TO.C,MX166*%
X242443000Y-54787800D03*
D10*
X237363000Y-54787800D03*
D11*
X232283000Y-54787800D03*
D12*
X233553000Y-52247800D03*
X239903000Y-49707800D03*
%TD*%
D13*
%TO.C,MX149*%
X177736500Y-36068000D03*
X184086500Y-33528000D03*
D10*
X180276500Y-30988000D03*
D11*
X185356500Y-30988000D03*
X175196500Y-30988000D03*
D14*
X187361500Y-33528000D03*
X174434500Y-36068000D03*
%TD*%
D11*
%TO.C,MX108*%
X-17100550Y-11912600D03*
X-27260550Y-11912600D03*
D10*
X-22180550Y-11912600D03*
D12*
X-25990550Y-9372600D03*
X-19640550Y-6832600D03*
%TD*%
D10*
%TO.C,MX78*%
X51638200Y7137400D03*
D11*
X46558200Y7137400D03*
X56718200Y7137400D03*
D12*
X47828200Y9677400D03*
X54178200Y12217400D03*
%TD*%
D10*
%TO.C,MX73*%
X-62661800Y7137400D03*
D11*
X-67741800Y7137400D03*
X-57581800Y7137400D03*
D12*
X-66471800Y9677400D03*
X-60121800Y12217400D03*
%TD*%
D11*
%TO.C,MX136*%
X261493000Y-35737800D03*
X251333000Y-35737800D03*
D10*
X256413000Y-35737800D03*
D12*
X252603000Y-33197800D03*
X258953000Y-30657800D03*
%TD*%
D11*
%TO.C,MX8*%
X132969000Y50038000D03*
D10*
X127889000Y50038000D03*
D11*
X122809000Y50038000D03*
D12*
X124079000Y52578000D03*
X130429000Y55118000D03*
%TD*%
D13*
%TO.C,MX157*%
X12585700Y-33502600D03*
D11*
X3695700Y-30962600D03*
D13*
X6235700Y-36042600D03*
D11*
X13855700Y-30962600D03*
D10*
X8775700Y-30962600D03*
D14*
X15860700Y-33502600D03*
X2933700Y-36042600D03*
%TD*%
D13*
%TO.C,MX48*%
X-36626800Y21107400D03*
X-30276800Y23647400D03*
D10*
X-34086800Y26187400D03*
D11*
X-39166800Y26187400D03*
X-29006800Y26187400D03*
D14*
X-27001800Y23647400D03*
X-39928800Y21107400D03*
%TD*%
D11*
%TO.C,MX7*%
X84658200Y49999900D03*
X94818200Y49999900D03*
D10*
X89738200Y49999900D03*
D12*
X85928200Y52539900D03*
X92278200Y55079900D03*
%TD*%
D11*
%TO.C,MX35*%
X47193200Y26187400D03*
X37033200Y26187400D03*
D10*
X42113200Y26187400D03*
D12*
X38303200Y28727400D03*
X44653200Y31267400D03*
%TD*%
D13*
%TO.C,MX54*%
X77673200Y21107400D03*
X84023200Y23647400D03*
D11*
X85293200Y26187400D03*
D10*
X80213200Y26187400D03*
D11*
X75133200Y26187400D03*
D14*
X87298200Y23647400D03*
X74371200Y21107400D03*
%TD*%
D10*
%TO.C,MX181*%
X275463000Y-54787800D03*
D13*
X272923000Y-59867800D03*
X279273000Y-57327800D03*
D11*
X270383000Y-54787800D03*
X280543000Y-54787800D03*
D14*
X282548000Y-57327800D03*
X269621000Y-59867800D03*
%TD*%
D18*
%TO.C,SW1*%
X-79741600Y45832400D03*
D19*
X-79741600Y40832400D03*
X-79741600Y43332400D03*
D20*
X-72241600Y37732400D03*
X-72241600Y48932400D03*
D19*
X-65241600Y40832400D03*
X-65241600Y45832400D03*
%TD*%
D10*
%TO.C,MX52*%
X42113200Y26187400D03*
D13*
X45923200Y23647400D03*
D11*
X47193200Y26187400D03*
D13*
X39573200Y21107400D03*
D11*
X37033200Y26187400D03*
D14*
X49198200Y23647400D03*
X36271200Y21107400D03*
%TD*%
D10*
%TO.C,MX27*%
X208851500Y50038000D03*
D11*
X213931500Y50038000D03*
D13*
X212661500Y47498000D03*
D11*
X203771500Y50038000D03*
D13*
X206311500Y44958000D03*
D14*
X215936500Y47498000D03*
X203009500Y44958000D03*
%TD*%
D10*
%TO.C,MX102*%
X208851500Y-11938000D03*
D11*
X203771500Y-11938000D03*
X213931500Y-11938000D03*
D12*
X205041500Y-9398000D03*
X211391500Y-6858000D03*
%TD*%
D15*
%TO.C,REF\u002A\u002A*%
X123063000Y-59817000D03*
X125603000Y-59817000D03*
X121793000Y-59817000D03*
X124333000Y-59817000D03*
X120523000Y-59817000D03*
%TD*%
D11*
%TO.C,MX163*%
X170434000Y-50038000D03*
D10*
X175514000Y-50038000D03*
D11*
X180594000Y-50038000D03*
D12*
X171704000Y-47498000D03*
X178054000Y-44958000D03*
%TD*%
D11*
%TO.C,MX57*%
X151384000Y26162000D03*
X161544000Y26162000D03*
D13*
X160274000Y23622000D03*
D10*
X156464000Y26162000D03*
D13*
X153924000Y21082000D03*
D14*
X163549000Y23622000D03*
X150622000Y21082000D03*
%TD*%
D10*
%TO.C,MX162*%
X118364000Y-41783000D03*
X137414000Y-50038000D03*
D17*
X156464000Y-57023000D03*
D11*
X142494000Y-50038000D03*
X132334000Y-50038000D03*
D17*
X118364000Y-57023000D03*
D10*
X156464000Y-41783000D03*
D12*
X133604000Y-47498000D03*
X139954000Y-44958000D03*
%TD*%
D15*
%TO.C,REF\u002A\u002A*%
X186944000Y59817000D03*
X185674000Y59817000D03*
X183134000Y59817000D03*
X188214000Y59817000D03*
X184404000Y59817000D03*
%TD*%
D13*
%TO.C,MX176*%
X179324000Y-52578000D03*
D11*
X170434000Y-50038000D03*
D13*
X172974000Y-55118000D03*
D11*
X180594000Y-50038000D03*
D10*
X175514000Y-50038000D03*
D14*
X182599000Y-52578000D03*
X169672000Y-55118000D03*
%TD*%
D15*
%TO.C,REF\u002A\u002A*%
X215265000Y-59817000D03*
X216535000Y-59817000D03*
X212725000Y-59817000D03*
X211455000Y-59817000D03*
X213995000Y-59817000D03*
%TD*%
D11*
%TO.C,MX66*%
X171069000Y7112000D03*
X160909000Y7112000D03*
D10*
X165989000Y7112000D03*
D12*
X162179000Y9652000D03*
X168529000Y12192000D03*
%TD*%
D11*
%TO.C,MX171*%
X-34404300Y-50012600D03*
X-24244300Y-50012600D03*
D10*
X-29324300Y-50012600D03*
D12*
X-33134300Y-47472600D03*
X-26784300Y-44932600D03*
%TD*%
D13*
%TO.C,MX28*%
X225361500Y44958000D03*
D10*
X227901500Y50038000D03*
D11*
X222821500Y50038000D03*
X232981500Y50038000D03*
D13*
X231711500Y47498000D03*
D14*
X234986500Y47498000D03*
X222059500Y44958000D03*
%TD*%
D13*
%TO.C,MX92*%
X-1701800Y4597400D03*
D11*
X-10591800Y7137400D03*
D10*
X-5511800Y7137400D03*
D13*
X-8051800Y2057400D03*
D11*
X-431800Y7137400D03*
D14*
X1573200Y4597400D03*
X-11353800Y2057400D03*
%TD*%
D11*
%TO.C,MX111*%
X32270700Y-11912600D03*
D10*
X37350700Y-11912600D03*
D11*
X42430700Y-11912600D03*
D12*
X33540700Y-9372600D03*
X39890700Y-6832600D03*
%TD*%
D11*
%TO.C,MX97*%
X108521500Y-11938000D03*
X118681500Y-11938000D03*
D10*
X113601500Y-11938000D03*
D12*
X109791500Y-9398000D03*
X116141500Y-6858000D03*
%TD*%
D11*
%TO.C,MX180*%
X251333000Y-54787800D03*
D10*
X256413000Y-54787800D03*
D11*
X261493000Y-54787800D03*
D13*
X253873000Y-59867800D03*
X260223000Y-57327800D03*
D14*
X263498000Y-57327800D03*
X250571000Y-59867800D03*
%TD*%
D13*
%TO.C,MX125*%
X3060700Y-14452600D03*
X-3289300Y-16992600D03*
D11*
X-5829300Y-11912600D03*
X4330700Y-11912600D03*
D10*
X-749300Y-11912600D03*
D14*
X6335700Y-14452600D03*
X-6591300Y-16992600D03*
%TD*%
D10*
%TO.C,MX79*%
X70688200Y7137400D03*
D11*
X75768200Y7137400D03*
X65608200Y7137400D03*
D12*
X66878200Y9677400D03*
X73228200Y12217400D03*
%TD*%
D13*
%TO.C,MX49*%
X-11226800Y23647400D03*
X-17576800Y21107400D03*
D11*
X-9956800Y26187400D03*
X-20116800Y26187400D03*
D10*
X-15036800Y26187400D03*
D14*
X-7951800Y23647400D03*
X-20878800Y21107400D03*
%TD*%
D11*
%TO.C,MX21*%
X75768200Y49999900D03*
X65608200Y49999900D03*
D13*
X74498200Y47459900D03*
X68148200Y44919900D03*
D10*
X70688200Y49999900D03*
D14*
X77773200Y47459900D03*
X64846200Y44919900D03*
%TD*%
D10*
%TO.C,MX110*%
X18300700Y-11912600D03*
D11*
X23380700Y-11912600D03*
X13220700Y-11912600D03*
D12*
X14490700Y-9372600D03*
X20840700Y-6832600D03*
%TD*%
D11*
%TO.C,MX31*%
X-39166800Y26187400D03*
X-29006800Y26187400D03*
D10*
X-34086800Y26187400D03*
D12*
X-37896800Y28727400D03*
X-31546800Y31267400D03*
%TD*%
D10*
%TO.C,MX44*%
X251714000Y26162000D03*
D11*
X256794000Y26162000D03*
X246634000Y26162000D03*
D12*
X247904000Y28702000D03*
X254254000Y31242000D03*
%TD*%
D11*
%TO.C,MX179*%
X242443000Y-54787800D03*
D10*
X237363000Y-54787800D03*
D13*
X234823000Y-59867800D03*
D11*
X232283000Y-54787800D03*
D13*
X241173000Y-57327800D03*
D14*
X244448000Y-57327800D03*
X231521000Y-59867800D03*
%TD*%
D21*
%TO.C,D31*%
X233664000Y17512000D03*
X233664000Y20812000D03*
%TD*%
%TO.C,D16*%
X-60960000Y42546000D03*
X-60960000Y45846000D03*
%TD*%
%TO.C,D9*%
X156939000Y41388000D03*
X156939000Y44688000D03*
%TD*%
D22*
%TO.C,R12*%
X254508000Y-1826500D03*
X254508000Y48500D03*
%TD*%
D21*
%TO.C,D24*%
X88213200Y17537400D03*
X88213200Y20837400D03*
%TD*%
D23*
%TO.C,U3*%
X-55470158Y35069620D03*
D24*
X-56080037Y32338420D03*
X-55726484Y31984867D03*
D23*
X-54904472Y34503934D03*
D24*
X-55372930Y31631313D03*
D23*
X-54338787Y33938249D03*
X-53773101Y33372564D03*
D24*
X-55019377Y31277760D03*
X-54665824Y30924206D03*
D23*
X-53207416Y32806878D03*
X-52641730Y32241193D03*
D24*
X-54312270Y30570653D03*
D23*
X-52076045Y31675507D03*
D24*
X-53958717Y30217100D03*
D23*
X-51510360Y31109822D03*
D24*
X-53605163Y29863546D03*
D23*
X-50944674Y30544136D03*
D24*
X-53251610Y29509993D03*
X-52898057Y29156439D03*
D23*
X-50378989Y29978451D03*
X-49813303Y29412766D03*
D24*
X-52544503Y28802886D03*
D25*
X-52544503Y27618482D03*
D26*
X-49813303Y27008603D03*
X-50378989Y26442917D03*
D25*
X-52898057Y27264929D03*
D26*
X-50944674Y25877232D03*
D25*
X-53251610Y26911375D03*
X-53605163Y26557822D03*
D26*
X-51510360Y25311546D03*
D25*
X-53958717Y26204269D03*
D26*
X-52076045Y24745861D03*
X-52641730Y24180175D03*
D25*
X-54312270Y25850715D03*
D26*
X-53207416Y23614490D03*
D25*
X-54665824Y25497162D03*
D26*
X-53773101Y23048805D03*
D25*
X-55019377Y25143608D03*
D26*
X-54338787Y22483119D03*
D25*
X-55372930Y24790055D03*
D26*
X-54904472Y21917434D03*
D25*
X-55726484Y24436502D03*
X-56080037Y24082948D03*
D26*
X-55470158Y21351748D03*
D23*
X-57874321Y21351748D03*
D24*
X-57264441Y24082948D03*
X-57617994Y24436502D03*
D23*
X-58440006Y21917434D03*
D24*
X-57971548Y24790055D03*
D23*
X-59005691Y22483119D03*
D24*
X-58325101Y25143608D03*
D23*
X-59571377Y23048805D03*
X-60137062Y23614490D03*
D24*
X-58678655Y25497162D03*
X-59032208Y25850715D03*
D23*
X-60702748Y24180175D03*
D24*
X-59385761Y26204269D03*
D23*
X-61268433Y24745861D03*
X-61834119Y25311546D03*
D24*
X-59739315Y26557822D03*
X-60092868Y26911375D03*
D23*
X-62399804Y25877232D03*
D24*
X-60446422Y27264929D03*
D23*
X-62965489Y26442917D03*
X-63531175Y27008603D03*
D24*
X-60799975Y27618482D03*
D26*
X-63531175Y29412766D03*
D25*
X-60799975Y28802886D03*
X-60446422Y29156439D03*
D26*
X-62965489Y29978451D03*
X-62399804Y30544136D03*
D25*
X-60067766Y29484891D03*
X-59739315Y29863546D03*
D26*
X-61834119Y31109822D03*
X-61268433Y31675507D03*
D25*
X-59385761Y30217100D03*
D26*
X-60702748Y32241193D03*
D25*
X-59032208Y30570653D03*
D26*
X-60137062Y32806878D03*
D25*
X-58678655Y30924206D03*
X-58325101Y31277760D03*
D26*
X-59571377Y33372564D03*
D25*
X-57971548Y31631313D03*
D26*
X-59005691Y33938249D03*
D25*
X-57617994Y31984867D03*
D26*
X-58440006Y34503934D03*
D25*
X-57264441Y32338420D03*
D26*
X-57874321Y35069620D03*
D27*
X-56672239Y28210684D03*
%TD*%
D21*
%TO.C,D22*%
X52113200Y17537400D03*
X52113200Y20837400D03*
%TD*%
%TO.C,D6*%
X80688200Y41349900D03*
X80688200Y44649900D03*
%TD*%
%TO.C,D44*%
X-52661800Y-1512600D03*
X-52661800Y1787400D03*
%TD*%
D28*
%TO.C,D17*%
X-22309000Y59682000D03*
D29*
X-22309000Y61402000D03*
X-20109000Y61402000D03*
X-20109000Y59502000D03*
%TD*%
D21*
%TO.C,D82*%
X92975700Y-39612600D03*
X92975700Y-36312600D03*
%TD*%
%TO.C,D95*%
X28300700Y-57662600D03*
X28300700Y-54362600D03*
%TD*%
D30*
%TO.C,C16*%
X266240500Y-14478000D03*
X264365500Y-14478000D03*
%TD*%
D31*
%TO.C,R3*%
X225552000Y61643500D03*
X225552000Y59768500D03*
%TD*%
D21*
%TO.C,D87*%
X223614000Y-57688000D03*
X223614000Y-54388000D03*
%TD*%
D32*
%TO.C,U2*%
X214122000Y61250000D03*
X214122000Y68250000D03*
D33*
X216422000Y58550000D03*
X211822000Y59650000D03*
X211822000Y63650000D03*
X211822000Y66650000D03*
%TD*%
D21*
%TO.C,D94*%
X4488200Y-57662600D03*
X4488200Y-54362600D03*
%TD*%
%TO.C,D25*%
X128364000Y17512000D03*
X128364000Y20812000D03*
%TD*%
%TO.C,D84*%
X147414000Y-57688000D03*
X147414000Y-54388000D03*
%TD*%
%TO.C,D56*%
X218851500Y-20588000D03*
X218851500Y-17288000D03*
%TD*%
D28*
%TO.C,D83*%
X228262000Y59936000D03*
D29*
X228262000Y61656000D03*
X230462000Y61656000D03*
X230462000Y59756000D03*
%TD*%
D21*
%TO.C,D79*%
X37825700Y-39612600D03*
X37825700Y-36312600D03*
%TD*%
D34*
%TO.C,C7*%
X-57579500Y17653000D03*
X-55704500Y17653000D03*
%TD*%
D21*
%TO.C,D47*%
X23538200Y-1512600D03*
X23538200Y1787400D03*
%TD*%
%TO.C,D30*%
X223614000Y17512000D03*
X223614000Y20812000D03*
%TD*%
%TO.C,D63*%
X28300700Y-20562600D03*
X28300700Y-17262600D03*
%TD*%
%TO.C,D89*%
X266413000Y-62437800D03*
X266413000Y-59137800D03*
%TD*%
%TO.C,D27*%
X166464000Y17512000D03*
X166464000Y20812000D03*
%TD*%
D31*
%TO.C,R8*%
X272034000Y6906500D03*
X272034000Y5031500D03*
%TD*%
D21*
%TO.C,D49*%
X61638200Y-1512600D03*
X61638200Y1787400D03*
%TD*%
%TO.C,D33*%
X287289000Y17512000D03*
X287289000Y20812000D03*
%TD*%
D31*
%TO.C,R4*%
X232918000Y61262500D03*
X232918000Y59387500D03*
%TD*%
D21*
%TO.C,D96*%
X71163200Y-57662600D03*
X71163200Y-54362600D03*
%TD*%
%TO.C,D50*%
X78688200Y-1512600D03*
X78688200Y1787400D03*
%TD*%
%TO.C,D45*%
X-19324300Y-1512600D03*
X-19324300Y1787400D03*
%TD*%
D31*
%TO.C,R7*%
X-52832000Y42974500D03*
X-52832000Y41099500D03*
%TD*%
%TO.C,C10*%
X-46228000Y29131500D03*
X-46228000Y27256500D03*
%TD*%
D21*
%TO.C,D3*%
X18775700Y41349900D03*
X18775700Y44649900D03*
%TD*%
%TO.C,D51*%
X123601500Y-20588000D03*
X123601500Y-17288000D03*
%TD*%
%TO.C,D7*%
X97738200Y41349900D03*
X97738200Y44649900D03*
%TD*%
%TO.C,D62*%
X9250700Y-20562600D03*
X9250700Y-17262600D03*
%TD*%
%TO.C,D59*%
X-71711800Y-20562600D03*
X-71711800Y-17262600D03*
%TD*%
%TO.C,D12*%
X218851500Y41388000D03*
X218851500Y44688000D03*
%TD*%
D31*
%TO.C,R9*%
X-50805000Y42974500D03*
X-50805000Y41099500D03*
%TD*%
D21*
%TO.C,D10*%
X180751500Y41388000D03*
X180751500Y44688000D03*
%TD*%
%TO.C,D71*%
X209326500Y-39638000D03*
X209326500Y-36338000D03*
%TD*%
%TO.C,D23*%
X71163200Y17537400D03*
X71163200Y20837400D03*
%TD*%
%TO.C,D11*%
X199801500Y41388000D03*
X199801500Y44688000D03*
%TD*%
%TO.C,D81*%
X75925700Y-39612600D03*
X75925700Y-36312600D03*
%TD*%
%TO.C,D68*%
X152176500Y-39638000D03*
X152176500Y-36338000D03*
%TD*%
%TO.C,D43*%
X-71711800Y-1512600D03*
X-71711800Y1787400D03*
%TD*%
D35*
%TO.C,USB1*%
X-24099000Y65632000D03*
X-18319000Y65632000D03*
D36*
X-24434000Y64187000D03*
X-23659000Y64187000D03*
D37*
X-22959000Y64187000D03*
X-22459000Y64187000D03*
X-21959000Y64187000D03*
X-21459000Y64187000D03*
X-20959000Y64187000D03*
X-20459000Y64187000D03*
X-19959000Y64187000D03*
X-19459000Y64187000D03*
D36*
X-18759000Y64187000D03*
X-17984000Y64187000D03*
%TD*%
D21*
%TO.C,D66*%
X83450700Y-20562600D03*
X83450700Y-17262600D03*
%TD*%
%TO.C,D46*%
X4488200Y-1512600D03*
X4488200Y1787400D03*
%TD*%
%TO.C,D93*%
X-19324300Y-57662600D03*
X-19324300Y-54362600D03*
%TD*%
%TO.C,D57*%
X246807750Y-20588000D03*
X246807750Y-17288000D03*
%TD*%
%TO.C,D19*%
X-5036800Y17537400D03*
X-5036800Y20837400D03*
%TD*%
D38*
%TO.C,C5*%
X-48922913Y38127913D03*
X-47597087Y36802087D03*
%TD*%
D31*
%TO.C,R1*%
X-25654000Y61389500D03*
X-25654000Y59514500D03*
%TD*%
D21*
%TO.C,D91*%
X-71711800Y-57662600D03*
X-71711800Y-54362600D03*
%TD*%
%TO.C,D52*%
X142651500Y-20588000D03*
X142651500Y-17288000D03*
%TD*%
%TO.C,D88*%
X247363000Y-62437800D03*
X247363000Y-59137800D03*
%TD*%
D31*
%TO.C,R10*%
X270002000Y6906500D03*
X270002000Y5031500D03*
%TD*%
D30*
%TO.C,C12*%
X267002500Y3429000D03*
X265127500Y3429000D03*
%TD*%
%TO.C,C8*%
X-55704500Y38735000D03*
X-57579500Y38735000D03*
%TD*%
D21*
%TO.C,D34*%
X118839000Y-1538000D03*
X118839000Y1762000D03*
%TD*%
%TO.C,D75*%
X-71711800Y-39612600D03*
X-71711800Y-36312600D03*
%TD*%
D35*
%TO.C,USB2*%
X226218000Y65632000D03*
X231998000Y65632000D03*
D36*
X225883000Y64187000D03*
X226658000Y64187000D03*
D37*
X227358000Y64187000D03*
X227858000Y64187000D03*
X228358000Y64187000D03*
X228858000Y64187000D03*
X229358000Y64187000D03*
X229858000Y64187000D03*
X230358000Y64187000D03*
X230858000Y64187000D03*
D36*
X231558000Y64187000D03*
X232333000Y64187000D03*
%TD*%
D21*
%TO.C,D53*%
X161701500Y-20588000D03*
X161701500Y-17288000D03*
%TD*%
%TO.C,D13*%
X237901500Y41388000D03*
X237901500Y44688000D03*
%TD*%
%TO.C,D60*%
X-52661800Y-20562600D03*
X-52661800Y-17262600D03*
%TD*%
%TO.C,D20*%
X14013200Y17537400D03*
X14013200Y20837400D03*
%TD*%
%TO.C,D29*%
X204564000Y17512000D03*
X204564000Y20812000D03*
%TD*%
%TO.C,D61*%
X-13180550Y-20562600D03*
X-13180550Y-17262600D03*
%TD*%
%TO.C,D48*%
X42588200Y-1512600D03*
X42588200Y1787400D03*
%TD*%
D34*
%TO.C,C15*%
X272366500Y-8128000D03*
X274241500Y-8128000D03*
%TD*%
D21*
%TO.C,D69*%
X171226500Y-39638000D03*
X171226500Y-36338000D03*
%TD*%
D39*
%TO.C,Y2*%
X264975000Y-19057000D03*
X262075000Y-19057000D03*
X262075000Y-16757000D03*
X264975000Y-16757000D03*
%TD*%
D21*
%TO.C,D65*%
X66400700Y-20562600D03*
X66400700Y-17262600D03*
%TD*%
D40*
%TO.C,Y1*%
X-46308077Y20151132D03*
X-48358687Y18100522D03*
X-49985033Y19726868D03*
X-47934423Y21777478D03*
%TD*%
D34*
%TO.C,R6*%
X267794500Y-14478000D03*
X269669500Y-14478000D03*
%TD*%
D21*
%TO.C,D14*%
X261714000Y41388000D03*
X261714000Y44688000D03*
%TD*%
%TO.C,D90*%
X282463000Y-62937800D03*
X282463000Y-59637800D03*
%TD*%
%TO.C,D72*%
X235520250Y-39638000D03*
X235520250Y-36338000D03*
%TD*%
%TO.C,D18*%
X-24086800Y17537400D03*
X-24086800Y20837400D03*
%TD*%
%TO.C,D80*%
X56875700Y-39612600D03*
X56875700Y-36312600D03*
%TD*%
%TO.C,D1*%
X-24086800Y41349900D03*
X-24086800Y44649900D03*
%TD*%
%TO.C,D76*%
X-52661800Y-39612600D03*
X-52661800Y-36312600D03*
%TD*%
%TO.C,D35*%
X137889000Y-1538000D03*
X137889000Y1762000D03*
%TD*%
D34*
%TO.C,C13*%
X257888500Y2794000D03*
X259763500Y2794000D03*
%TD*%
D21*
%TO.C,D67*%
X133126500Y-39638000D03*
X133126500Y-36338000D03*
%TD*%
%TO.C,D4*%
X37825700Y41349900D03*
X37825700Y44649900D03*
%TD*%
%TO.C,D86*%
X204564000Y-57688000D03*
X204564000Y-54388000D03*
%TD*%
%TO.C,D8*%
X137889000Y41388000D03*
X137889000Y44688000D03*
%TD*%
D22*
%TO.C,C9*%
X-67183000Y27256500D03*
X-67183000Y29131500D03*
%TD*%
D21*
%TO.C,D32*%
X249189000Y17512000D03*
X249189000Y20812000D03*
%TD*%
%TO.C,D37*%
X175989000Y-1538000D03*
X175989000Y1762000D03*
%TD*%
D38*
%TO.C,C1*%
X-46015468Y23395913D03*
X-44689642Y22070087D03*
%TD*%
D21*
%TO.C,D74*%
X287289000Y-39638000D03*
X287289000Y-36338000D03*
%TD*%
D32*
%TO.C,U1*%
X-6096000Y61250000D03*
X-6096000Y68250000D03*
D33*
X-3796000Y58550000D03*
X-8396000Y59650000D03*
X-8396000Y63650000D03*
X-8396000Y66650000D03*
%TD*%
D22*
%TO.C,C4*%
X259588000Y-18971500D03*
X259588000Y-17096500D03*
%TD*%
D31*
%TO.C,R2*%
X-17526000Y60627500D03*
X-17526000Y58752500D03*
%TD*%
D41*
%TO.C,C3*%
X-50277642Y16482087D03*
X-51603468Y17807913D03*
%TD*%
D21*
%TO.C,D2*%
X-274300Y41349900D03*
X-274300Y44649900D03*
%TD*%
%TO.C,D55*%
X199801500Y-20588000D03*
X199801500Y-17288000D03*
%TD*%
%TO.C,D64*%
X47350700Y-20562600D03*
X47350700Y-17262600D03*
%TD*%
D34*
%TO.C,F2*%
X234774500Y58420000D03*
X236649500Y58420000D03*
%TD*%
%TO.C,C11*%
X-54023500Y38100000D03*
X-52148500Y38100000D03*
%TD*%
D31*
%TO.C,F1*%
X-20066000Y57325500D03*
X-20066000Y55450500D03*
%TD*%
D21*
%TO.C,D36*%
X156939000Y-1538000D03*
X156939000Y1762000D03*
%TD*%
%TO.C,D21*%
X33063200Y17537400D03*
X33063200Y20837400D03*
%TD*%
%TO.C,D92*%
X-52661800Y-57662600D03*
X-52661800Y-54362600D03*
%TD*%
D34*
%TO.C,R5*%
X-44498500Y35687000D03*
X-42623500Y35687000D03*
%TD*%
D21*
%TO.C,D54*%
X180751500Y-20588000D03*
X180751500Y-17288000D03*
%TD*%
%TO.C,D42*%
X287289000Y-1538000D03*
X287289000Y1762000D03*
%TD*%
%TO.C,D41*%
X256951500Y5462000D03*
X256951500Y8762000D03*
%TD*%
%TO.C,D40*%
X233139000Y-1538000D03*
X233139000Y1762000D03*
%TD*%
D30*
%TO.C,C6*%
X274241500Y-6096000D03*
X272366500Y-6096000D03*
%TD*%
D21*
%TO.C,D73*%
X266413000Y-44387800D03*
X266413000Y-41087800D03*
%TD*%
%TO.C,D78*%
X18775700Y-39612600D03*
X18775700Y-36312600D03*
%TD*%
%TO.C,D39*%
X214089000Y-1538000D03*
X214089000Y1762000D03*
%TD*%
%TO.C,D58*%
X287289000Y-20588000D03*
X287289000Y-17288000D03*
%TD*%
D31*
%TO.C,C14*%
X253111000Y-11762500D03*
X253111000Y-13637500D03*
%TD*%
D21*
%TO.C,D5*%
X56875700Y41349900D03*
X56875700Y44649900D03*
%TD*%
%TO.C,D38*%
X195039000Y-1538000D03*
X195039000Y1762000D03*
%TD*%
%TO.C,D85*%
X185514000Y-57688000D03*
X185514000Y-54388000D03*
%TD*%
%TO.C,D70*%
X190276500Y-39638000D03*
X190276500Y-36338000D03*
%TD*%
%TO.C,D28*%
X185514000Y17512000D03*
X185514000Y20812000D03*
%TD*%
%TO.C,D77*%
X-14180550Y-39612600D03*
X-14180550Y-36312600D03*
%TD*%
D42*
%TO.C,U4*%
X265704500Y-3738000D03*
D43*
X268067000Y-2238000D03*
D42*
X265704500Y-4238000D03*
D43*
X268067000Y-3038000D03*
D42*
X265704500Y-4738000D03*
D43*
X268067000Y-3838000D03*
X268067000Y-4638000D03*
D42*
X265704500Y-5238000D03*
D43*
X268067000Y-5438000D03*
D42*
X265704500Y-5738000D03*
X265704500Y-6238000D03*
D43*
X268067000Y-6238000D03*
D42*
X265704500Y-6738000D03*
D43*
X268067000Y-7038000D03*
D42*
X265704500Y-7238000D03*
D43*
X268067000Y-7838000D03*
D42*
X265704500Y-7738000D03*
D43*
X268067000Y-8638000D03*
X268067000Y-9438000D03*
D42*
X265704500Y-8238000D03*
D43*
X268067000Y-10238000D03*
D42*
X265704500Y-8738000D03*
D44*
X264867000Y-9575500D03*
D45*
X266367000Y-11938000D03*
X265567000Y-11938000D03*
D44*
X264367000Y-9575500D03*
X263867000Y-9575500D03*
D45*
X264767000Y-11938000D03*
X263967000Y-11938000D03*
D44*
X263367000Y-9575500D03*
X262867000Y-9575500D03*
D45*
X263167000Y-11938000D03*
X262367000Y-11938000D03*
D44*
X262367000Y-9575500D03*
X261867000Y-9575500D03*
D45*
X261567000Y-11938000D03*
X260767000Y-11938000D03*
D44*
X261367000Y-9575500D03*
D45*
X259967000Y-11938000D03*
D44*
X260867000Y-9575500D03*
D45*
X259167000Y-11938000D03*
D44*
X260367000Y-9575500D03*
D45*
X258367000Y-11938000D03*
D44*
X259867000Y-9575500D03*
D42*
X259029500Y-8738000D03*
D43*
X256667000Y-10238000D03*
D42*
X259029500Y-8238000D03*
D43*
X256667000Y-9438000D03*
X256667000Y-8638000D03*
D42*
X259029500Y-7738000D03*
D43*
X256667000Y-7838000D03*
D42*
X259029500Y-7238000D03*
X259029500Y-6738000D03*
D43*
X256667000Y-7038000D03*
D42*
X259029500Y-6238000D03*
D43*
X256667000Y-6238000D03*
X256667000Y-5438000D03*
D42*
X259029500Y-5738000D03*
D43*
X256667000Y-4638000D03*
D42*
X259029500Y-5238000D03*
X259029500Y-4738000D03*
D43*
X256667000Y-3838000D03*
X256667000Y-3038000D03*
D42*
X259029500Y-4238000D03*
D43*
X256667000Y-2238000D03*
D42*
X259029500Y-3738000D03*
D44*
X259867000Y-2900500D03*
D45*
X258367000Y-538000D03*
D44*
X260367000Y-2900500D03*
D45*
X259167000Y-538000D03*
X259967000Y-538000D03*
D44*
X260867000Y-2936000D03*
X261367000Y-2900500D03*
D45*
X260767000Y-538000D03*
D44*
X261867000Y-2900500D03*
D45*
X261567000Y-538000D03*
D44*
X262367000Y-2900500D03*
D45*
X262367000Y-538000D03*
X263167000Y-538000D03*
D44*
X262867000Y-2900500D03*
D45*
X263967000Y-538000D03*
D44*
X263367000Y-2900500D03*
D45*
X264767000Y-538000D03*
D44*
X263867000Y-2900500D03*
D45*
X265567000Y-538000D03*
D44*
X264367000Y-2900500D03*
X264867000Y-2900500D03*
D45*
X266367000Y-538000D03*
D46*
X262367000Y-6238000D03*
%TD*%
D31*
%TO.C,C2*%
X267462000Y-16969500D03*
X267462000Y-18844500D03*
%TD*%
D21*
%TO.C,D26*%
X147414000Y17512000D03*
X147414000Y20812000D03*
%TD*%
D41*
%TO.C,R11*%
X-67536087Y24229087D03*
X-68861913Y25554913D03*
%TD*%
D21*
%TO.C,D15*%
X287289000Y41388000D03*
X287289000Y44688000D03*
%TD*%
M02*
