%TF.GenerationSoftware,KiCad,Pcbnew,(5.99.0-12118-g897269f33f)*%
%TF.CreationDate,2021-09-12T17:19:33-04:00*%
%TF.ProjectId,dadboard,64616462-6f61-4726-942e-6b696361645f,rev?*%
%TF.SameCoordinates,Original*%
%TF.FileFunction,Paste,Bot*%
%TF.FilePolarity,Positive*%
%FSLAX46Y46*%
G04 Gerber Fmt 4.6, Leading zero omitted, Abs format (unit mm)*
G04 Created by KiCad (PCBNEW (5.99.0-12118-g897269f33f)) date 2021-09-12 17:19:33*
%MOMM*%
%LPD*%
G01*
G04 APERTURE LIST*
G04 Aperture macros list*
%AMRoundRect*
0 Rectangle with rounded corners*
0 $1 Rounding radius*
0 $2 $3 $4 $5 $6 $7 $8 $9 X,Y pos of 4 corners*
0 Add a 4 corners polygon primitive as box body*
4,1,4,$2,$3,$4,$5,$6,$7,$8,$9,$2,$3,0*
0 Add four circle primitives for the rounded corners*
1,1,$1+$1,$2,$3*
1,1,$1+$1,$4,$5*
1,1,$1+$1,$6,$7*
1,1,$1+$1,$8,$9*
0 Add four rect primitives between the rounded corners*
20,1,$1+$1,$2,$3,$4,$5,0*
20,1,$1+$1,$4,$5,$6,$7,0*
20,1,$1+$1,$6,$7,$8,$9,0*
20,1,$1+$1,$8,$9,$2,$3,0*%
%AMRotRect*
0 Rectangle, with rotation*
0 The origin of the aperture is its center*
0 $1 length*
0 $2 width*
0 $3 Rotation angle, in degrees counterclockwise*
0 Add horizontal line*
21,1,$1,$2,0,0,$3*%
G04 Aperture macros list end*
%ADD10R,2.550000X2.500000*%
%ADD11R,1.200000X0.900000*%
%ADD12RoundRect,0.243750X0.243750X0.456250X-0.243750X0.456250X-0.243750X-0.456250X0.243750X-0.456250X0*%
%ADD13RoundRect,0.250000X0.000000X0.388909X-0.388909X0.000000X0.000000X-0.388909X0.388909X0.000000X0*%
%ADD14RotRect,1.500000X0.550000X225.000000*%
%ADD15RoundRect,0.062500X0.291682X0.380070X-0.380070X-0.291682X-0.291682X-0.380070X0.380070X0.291682X0*%
%ADD16RotRect,1.500000X0.550000X135.000000*%
%ADD17RoundRect,0.062500X-0.291682X0.380070X-0.380070X0.291682X0.291682X-0.380070X0.380070X-0.291682X0*%
%ADD18R,1.400000X1.200000*%
%ADD19R,1.400000X1.000000*%
%ADD20RoundRect,0.243750X-0.243750X-0.456250X0.243750X-0.456250X0.243750X0.456250X-0.243750X0.456250X0*%
%ADD21RoundRect,0.243750X-0.456250X0.243750X-0.456250X-0.243750X0.456250X-0.243750X0.456250X0.243750X0*%
%ADD22RoundRect,0.250000X0.275000X0.275000X-0.275000X0.275000X-0.275000X-0.275000X0.275000X-0.275000X0*%
%ADD23RoundRect,0.062500X0.475000X0.062500X-0.475000X0.062500X-0.475000X-0.062500X0.475000X-0.062500X0*%
%ADD24R,1.500000X0.550000*%
%ADD25RoundRect,0.062500X0.062500X0.475000X-0.062500X0.475000X-0.062500X-0.475000X0.062500X-0.475000X0*%
%ADD26R,0.550000X1.500000*%
%ADD27R,0.600000X1.450000*%
%ADD28R,0.300000X1.450000*%
%ADD29RoundRect,0.243750X-0.494975X-0.150260X-0.150260X-0.494975X0.494975X0.150260X0.150260X0.494975X0*%
%ADD30R,2.100000X1.800000*%
%ADD31RotRect,2.100000X1.800000X225.000000*%
%ADD32RoundRect,0.243750X0.456250X-0.243750X0.456250X0.243750X-0.456250X0.243750X-0.456250X-0.243750X0*%
%ADD33RoundRect,0.243750X0.494975X0.150260X0.150260X0.494975X-0.494975X-0.150260X-0.150260X-0.494975X0*%
G04 APERTURE END LIST*
D10*
%TO.C,MX128*%
X63485700Y-14452600D03*
X50558700Y-16992600D03*
%TD*%
%TO.C,MX91*%
X-22239300Y4597400D03*
X-35166300Y2057400D03*
%TD*%
%TO.C,MX56*%
X144499000Y23622000D03*
X131572000Y21082000D03*
%TD*%
%TO.C,MX127*%
X44435700Y-14452600D03*
X31508700Y-16992600D03*
%TD*%
%TO.C,MX183*%
X-55576800Y-52552600D03*
X-68503800Y-55092600D03*
%TD*%
%TO.C,MX155*%
X-55576800Y-33502600D03*
X-68503800Y-36042600D03*
%TD*%
%TO.C,MX82*%
X154024000Y4572000D03*
X141097000Y2032000D03*
%TD*%
%TO.C,MX22*%
X96823200Y47459900D03*
X83896200Y44919900D03*
%TD*%
%TO.C,MX58*%
X182599000Y23622000D03*
X169672000Y21082000D03*
%TD*%
%TO.C,MX151*%
X232605250Y-33528000D03*
X219678250Y-36068000D03*
%TD*%
%TO.C,MX185*%
X1573200Y-52552600D03*
X-11353800Y-55092600D03*
%TD*%
%TO.C,MX153*%
X287374000Y-33528000D03*
X274447000Y-36068000D03*
%TD*%
%TO.C,MX148*%
X168311500Y-33528000D03*
X155384500Y-36068000D03*
%TD*%
%TO.C,MX84*%
X192124000Y4572000D03*
X179197000Y2032000D03*
%TD*%
%TO.C,MX161*%
X92060700Y-33502600D03*
X79133700Y-36042600D03*
%TD*%
%TO.C,MX86*%
X230224000Y4572000D03*
X217297000Y2032000D03*
%TD*%
%TO.C,MX114*%
X120686500Y-14478000D03*
X107759500Y-17018000D03*
%TD*%
%TO.C,MX88*%
X287374000Y4572000D03*
X274447000Y2032000D03*
%TD*%
%TO.C,MX147*%
X149261500Y-33528000D03*
X136334500Y-36068000D03*
%TD*%
%TO.C,MX118*%
X196886500Y-14478000D03*
X183959500Y-17018000D03*
%TD*%
%TO.C,MX89*%
X-74626800Y4597400D03*
X-87553800Y2057400D03*
%TD*%
%TO.C,MX178*%
X220699000Y-52578000D03*
X207772000Y-55118000D03*
%TD*%
%TO.C,MX19*%
X34910700Y47459900D03*
X21983700Y44919900D03*
%TD*%
%TO.C,MX146*%
X130211500Y-33528000D03*
X117284500Y-36068000D03*
%TD*%
%TO.C,MX16*%
X-27001800Y47459900D03*
X-39928800Y44919900D03*
%TD*%
%TO.C,MX158*%
X34910700Y-33502600D03*
X21983700Y-36042600D03*
%TD*%
%TO.C,MX116*%
X158786500Y-14478000D03*
X145859500Y-17018000D03*
%TD*%
%TO.C,MX154*%
X-74626800Y-33502600D03*
X-87553800Y-36042600D03*
%TD*%
%TO.C,MX26*%
X196886500Y47498000D03*
X183959500Y44958000D03*
%TD*%
%TO.C,MX20*%
X53960700Y47459900D03*
X41033700Y44919900D03*
%TD*%
%TO.C,MX159*%
X53960700Y-33502600D03*
X41033700Y-36042600D03*
%TD*%
%TO.C,MX182*%
X-74626800Y-52552600D03*
X-87553800Y-55092600D03*
%TD*%
%TO.C,MX152*%
X263498000Y-38277800D03*
X250571000Y-40817800D03*
%TD*%
%TO.C,MX61*%
X249274000Y23622000D03*
X236347000Y21082000D03*
%TD*%
%TO.C,MX121*%
X287374000Y-14478000D03*
X274447000Y-17018000D03*
%TD*%
%TO.C,MX120*%
X246892750Y-14478000D03*
X233965750Y-17018000D03*
%TD*%
%TO.C,MX80*%
X115924000Y4572000D03*
X102997000Y2032000D03*
%TD*%
%TO.C,MX85*%
X211174000Y4572000D03*
X198247000Y2032000D03*
%TD*%
%TO.C,MX160*%
X73010700Y-33502600D03*
X60083700Y-36042600D03*
%TD*%
%TO.C,MX175*%
X144499000Y-52578000D03*
X131572000Y-55118000D03*
%TD*%
%TO.C,MX23*%
X134974000Y47498000D03*
X122047000Y44958000D03*
%TD*%
%TO.C,MX18*%
X15860700Y47459900D03*
X2933700Y44919900D03*
%TD*%
%TO.C,MX93*%
X20623200Y4597400D03*
X7696200Y2057400D03*
%TD*%
%TO.C,MX119*%
X215936500Y-14478000D03*
X203009500Y-17018000D03*
%TD*%
%TO.C,MX60*%
X220699000Y23622000D03*
X207772000Y21082000D03*
%TD*%
%TO.C,MX124*%
X-19858050Y-14452600D03*
X-32785050Y-16992600D03*
%TD*%
%TO.C,MX81*%
X134974000Y4572000D03*
X122047000Y2032000D03*
%TD*%
%TO.C,MX62*%
X287374000Y23622000D03*
X274447000Y21082000D03*
%TD*%
%TO.C,MX186*%
X25385700Y-52552600D03*
X12458700Y-55092600D03*
%TD*%
%TO.C,MX126*%
X25385700Y-14452600D03*
X12458700Y-16992600D03*
%TD*%
%TO.C,MX29*%
X258799000Y47498000D03*
X245872000Y44958000D03*
%TD*%
%TO.C,MX187*%
X68248200Y-52552600D03*
X55321200Y-55092600D03*
%TD*%
%TO.C,MX122*%
X-74626800Y-14452600D03*
X-87553800Y-16992600D03*
%TD*%
%TO.C,MX55*%
X125449000Y23622000D03*
X112522000Y21082000D03*
%TD*%
%TO.C,MX24*%
X154024000Y47498000D03*
X141097000Y44958000D03*
%TD*%
%TO.C,MX96*%
X77773200Y4597400D03*
X64846200Y2057400D03*
%TD*%
%TO.C,MX83*%
X173074000Y4572000D03*
X160147000Y2032000D03*
%TD*%
%TO.C,MX123*%
X-55576800Y-14452600D03*
X-68503800Y-16992600D03*
%TD*%
%TO.C,MX90*%
X-55576800Y4597400D03*
X-68503800Y2057400D03*
%TD*%
%TO.C,MX50*%
X11098200Y23647400D03*
X-1828800Y21107400D03*
%TD*%
%TO.C,MX30*%
X287374000Y47498000D03*
X274447000Y44958000D03*
%TD*%
%TO.C,MX129*%
X82535700Y-14452600D03*
X69608700Y-16992600D03*
%TD*%
%TO.C,MX51*%
X30148200Y23647400D03*
X17221200Y21107400D03*
%TD*%
%TO.C,MX177*%
X201649000Y-52578000D03*
X188722000Y-55118000D03*
%TD*%
%TO.C,MX95*%
X58723200Y4597400D03*
X45796200Y2057400D03*
%TD*%
%TO.C,MX184*%
X-22239300Y-52552600D03*
X-35166300Y-55092600D03*
%TD*%
%TO.C,MX59*%
X201649000Y23622000D03*
X188722000Y21082000D03*
%TD*%
%TO.C,MX17*%
X-3189300Y47459900D03*
X-16116300Y44919900D03*
%TD*%
%TO.C,MX117*%
X177836500Y-14478000D03*
X164909500Y-17018000D03*
%TD*%
%TO.C,MX94*%
X39673200Y4597400D03*
X26746200Y2057400D03*
%TD*%
%TO.C,MX115*%
X139736500Y-14478000D03*
X126809500Y-17018000D03*
%TD*%
%TO.C,MX87*%
X254036500Y4572000D03*
X241109500Y2032000D03*
%TD*%
%TO.C,MX53*%
X68248200Y23647400D03*
X55321200Y21107400D03*
%TD*%
%TO.C,MX156*%
X-15095550Y-33502600D03*
X-28022550Y-36042600D03*
%TD*%
%TO.C,MX25*%
X177836500Y47498000D03*
X164909500Y44958000D03*
%TD*%
%TO.C,MX150*%
X206411500Y-33528000D03*
X193484500Y-36068000D03*
%TD*%
%TO.C,MX149*%
X187361500Y-33528000D03*
X174434500Y-36068000D03*
%TD*%
%TO.C,MX157*%
X15860700Y-33502600D03*
X2933700Y-36042600D03*
%TD*%
%TO.C,MX48*%
X-27001800Y23647400D03*
X-39928800Y21107400D03*
%TD*%
%TO.C,MX54*%
X87298200Y23647400D03*
X74371200Y21107400D03*
%TD*%
%TO.C,MX181*%
X282548000Y-57327800D03*
X269621000Y-59867800D03*
%TD*%
%TO.C,MX52*%
X49198200Y23647400D03*
X36271200Y21107400D03*
%TD*%
%TO.C,MX27*%
X215936500Y47498000D03*
X203009500Y44958000D03*
%TD*%
%TO.C,MX57*%
X163549000Y23622000D03*
X150622000Y21082000D03*
%TD*%
%TO.C,MX176*%
X182599000Y-52578000D03*
X169672000Y-55118000D03*
%TD*%
%TO.C,MX28*%
X234986500Y47498000D03*
X222059500Y44958000D03*
%TD*%
%TO.C,MX92*%
X1573200Y4597400D03*
X-11353800Y2057400D03*
%TD*%
%TO.C,MX180*%
X263498000Y-57327800D03*
X250571000Y-59867800D03*
%TD*%
%TO.C,MX125*%
X6335700Y-14452600D03*
X-6591300Y-16992600D03*
%TD*%
%TO.C,MX49*%
X-7951800Y23647400D03*
X-20878800Y21107400D03*
%TD*%
%TO.C,MX21*%
X77773200Y47459900D03*
X64846200Y44919900D03*
%TD*%
%TO.C,MX179*%
X244448000Y-57327800D03*
X231521000Y-59867800D03*
%TD*%
D11*
%TO.C,D31*%
X233664000Y17512000D03*
X233664000Y20812000D03*
%TD*%
%TO.C,D16*%
X-60960000Y42546000D03*
X-60960000Y45846000D03*
%TD*%
%TO.C,D9*%
X156939000Y41388000D03*
X156939000Y44688000D03*
%TD*%
D12*
%TO.C,R12*%
X75105500Y109347000D03*
X73230500Y109347000D03*
%TD*%
D11*
%TO.C,D24*%
X88213200Y17537400D03*
X88213200Y20837400D03*
%TD*%
D13*
%TO.C,U3*%
X-55753000Y30049162D03*
X-56672239Y29129923D03*
X-58510717Y27291445D03*
X-56672239Y30968401D03*
X-57591478Y30049162D03*
X-57591478Y26372206D03*
X-55753000Y26372206D03*
X-53914523Y28210684D03*
X-58510717Y29129923D03*
X-54833761Y27291445D03*
X-56672239Y27291445D03*
X-57591478Y28210684D03*
X-56672239Y25452968D03*
X-55753000Y28210684D03*
X-54833761Y29129923D03*
X-59429956Y28210684D03*
D14*
X-55470158Y35069620D03*
D15*
X-56080037Y32338420D03*
X-55726484Y31984867D03*
D14*
X-54904472Y34503934D03*
D15*
X-55372930Y31631313D03*
D14*
X-54338787Y33938249D03*
D15*
X-55019377Y31277760D03*
D14*
X-53773101Y33372564D03*
X-53207416Y32806878D03*
D15*
X-54665824Y30924206D03*
X-54312270Y30570653D03*
D14*
X-52641730Y32241193D03*
D15*
X-53958717Y30217100D03*
D14*
X-52076045Y31675507D03*
D15*
X-53605163Y29863546D03*
D14*
X-51510360Y31109822D03*
X-50944674Y30544136D03*
D15*
X-53251610Y29509993D03*
D14*
X-50378989Y29978451D03*
D15*
X-52898057Y29156439D03*
X-52544503Y28802886D03*
D14*
X-49813303Y29412766D03*
D16*
X-49813303Y27008603D03*
D17*
X-52544503Y27618482D03*
X-52898057Y27264929D03*
D16*
X-50378989Y26442917D03*
D17*
X-53251610Y26911375D03*
D16*
X-50944674Y25877232D03*
X-51510360Y25311546D03*
D17*
X-53605163Y26557822D03*
X-53958717Y26204269D03*
D16*
X-52076045Y24745861D03*
X-52641730Y24180175D03*
D17*
X-54312270Y25850715D03*
D16*
X-53207416Y23614490D03*
D17*
X-54665824Y25497162D03*
X-55019377Y25143608D03*
D16*
X-53773101Y23048805D03*
D17*
X-55372930Y24790055D03*
D16*
X-54338787Y22483119D03*
X-54904472Y21917434D03*
D17*
X-55726484Y24436502D03*
D16*
X-55470158Y21351748D03*
D17*
X-56080037Y24082948D03*
D15*
X-57264441Y24082948D03*
D14*
X-57874321Y21351748D03*
D15*
X-57617994Y24436502D03*
D14*
X-58440006Y21917434D03*
X-59005691Y22483119D03*
D15*
X-57971548Y24790055D03*
D14*
X-59571377Y23048805D03*
D15*
X-58325101Y25143608D03*
X-58678655Y25497162D03*
D14*
X-60137062Y23614490D03*
X-60702748Y24180175D03*
D15*
X-59032208Y25850715D03*
D14*
X-61268433Y24745861D03*
D15*
X-59385761Y26204269D03*
X-59739315Y26557822D03*
D14*
X-61834119Y25311546D03*
X-62399804Y25877232D03*
D15*
X-60092868Y26911375D03*
D14*
X-62965489Y26442917D03*
D15*
X-60446422Y27264929D03*
D14*
X-63531175Y27008603D03*
D15*
X-60799975Y27618482D03*
D16*
X-63531175Y29412766D03*
D17*
X-60799975Y28802886D03*
X-60446422Y29156439D03*
D16*
X-62965489Y29978451D03*
X-62399804Y30544136D03*
D17*
X-60067766Y29484891D03*
D16*
X-61834119Y31109822D03*
D17*
X-59739315Y29863546D03*
D16*
X-61268433Y31675507D03*
D17*
X-59385761Y30217100D03*
X-59032208Y30570653D03*
D16*
X-60702748Y32241193D03*
D17*
X-58678655Y30924206D03*
D16*
X-60137062Y32806878D03*
D17*
X-58325101Y31277760D03*
D16*
X-59571377Y33372564D03*
X-59005691Y33938249D03*
D17*
X-57971548Y31631313D03*
X-57617994Y31984867D03*
D16*
X-58440006Y34503934D03*
X-57874321Y35069620D03*
D17*
X-57264441Y32338420D03*
%TD*%
D11*
%TO.C,D22*%
X52113200Y17537400D03*
X52113200Y20837400D03*
%TD*%
%TO.C,D6*%
X80688200Y41349900D03*
X80688200Y44649900D03*
%TD*%
%TO.C,D44*%
X-52661800Y-1512600D03*
X-52661800Y1787400D03*
%TD*%
D18*
%TO.C,D17*%
X-22309000Y59682000D03*
D19*
X-22309000Y61402000D03*
X-20109000Y61402000D03*
X-20109000Y59502000D03*
%TD*%
D11*
%TO.C,D82*%
X92975700Y-39612600D03*
X92975700Y-36312600D03*
%TD*%
%TO.C,D95*%
X28300700Y-57662600D03*
X28300700Y-54362600D03*
%TD*%
D12*
%TO.C,C18*%
X56366500Y131151000D03*
X54491500Y131151000D03*
%TD*%
%TO.C,R5*%
X70695500Y118197000D03*
X68820500Y118197000D03*
%TD*%
D11*
%TO.C,D87*%
X223614000Y-57688000D03*
X223614000Y-54388000D03*
%TD*%
%TO.C,D94*%
X4488200Y-57662600D03*
X4488200Y-54362600D03*
%TD*%
%TO.C,D25*%
X128364000Y17512000D03*
X128364000Y20812000D03*
%TD*%
%TO.C,D84*%
X147414000Y-57688000D03*
X147414000Y-54388000D03*
%TD*%
%TO.C,D56*%
X218851500Y-20588000D03*
X218851500Y-17288000D03*
%TD*%
D18*
%TO.C,D83*%
X37606104Y114308000D03*
D19*
X37606104Y112588000D03*
X35406104Y112588000D03*
X35406104Y114488000D03*
%TD*%
D11*
%TO.C,D79*%
X37825700Y-39612600D03*
X37825700Y-36312600D03*
%TD*%
D20*
%TO.C,C9*%
X-57579500Y17653000D03*
X-55704500Y17653000D03*
%TD*%
D11*
%TO.C,D47*%
X23538200Y-1512600D03*
X23538200Y1787400D03*
%TD*%
%TO.C,D30*%
X223614000Y17512000D03*
X223614000Y20812000D03*
%TD*%
%TO.C,D63*%
X28300700Y-20562600D03*
X28300700Y-17262600D03*
%TD*%
%TO.C,D89*%
X266413000Y-62437800D03*
X266413000Y-59137800D03*
%TD*%
%TO.C,D27*%
X166464000Y17512000D03*
X166464000Y20812000D03*
%TD*%
%TO.C,D49*%
X61638200Y-1512600D03*
X61638200Y1787400D03*
%TD*%
%TO.C,D33*%
X287289000Y17512000D03*
X287289000Y20812000D03*
%TD*%
D12*
%TO.C,R6*%
X79205500Y115247000D03*
X77330500Y115247000D03*
%TD*%
D11*
%TO.C,D96*%
X71163200Y-57662600D03*
X71163200Y-54362600D03*
%TD*%
%TO.C,D50*%
X78688200Y-1512600D03*
X78688200Y1787400D03*
%TD*%
%TO.C,D45*%
X-19324300Y-1512600D03*
X-19324300Y1787400D03*
%TD*%
D21*
%TO.C,R9*%
X-52832000Y42974500D03*
X-52832000Y41099500D03*
%TD*%
%TO.C,C12*%
X-46228000Y29131500D03*
X-46228000Y27256500D03*
%TD*%
D11*
%TO.C,D3*%
X18775700Y41349900D03*
X18775700Y44649900D03*
%TD*%
%TO.C,D51*%
X123601500Y-20588000D03*
X123601500Y-17288000D03*
%TD*%
%TO.C,D7*%
X97738200Y41349900D03*
X97738200Y44649900D03*
%TD*%
D22*
%TO.C,U4*%
X17578904Y125013000D03*
X18878904Y122413000D03*
X14978904Y122413000D03*
X17578904Y121113000D03*
X17578904Y122413000D03*
X18878904Y123713000D03*
X16278904Y121113000D03*
X16278904Y125013000D03*
X14978904Y121113000D03*
X16278904Y122413000D03*
X14978904Y123713000D03*
X18878904Y121113000D03*
X14978904Y125013000D03*
X16278904Y123713000D03*
X17578904Y123713000D03*
X18878904Y125013000D03*
D23*
X20266404Y125563000D03*
D24*
X22628904Y127063000D03*
D23*
X20266404Y125063000D03*
D24*
X22628904Y126263000D03*
D23*
X20266404Y124563000D03*
D24*
X22628904Y125463000D03*
X22628904Y124663000D03*
D23*
X20266404Y124063000D03*
X20266404Y123563000D03*
D24*
X22628904Y123863000D03*
D23*
X20266404Y123063000D03*
D24*
X22628904Y123063000D03*
X22628904Y122263000D03*
D23*
X20266404Y122563000D03*
X20266404Y122063000D03*
D24*
X22628904Y121463000D03*
D23*
X20266404Y121563000D03*
D24*
X22628904Y120663000D03*
D23*
X20266404Y121063000D03*
D24*
X22628904Y119863000D03*
X22628904Y119063000D03*
D23*
X20266404Y120563000D03*
D25*
X19428904Y119725500D03*
D26*
X20928904Y117363000D03*
D25*
X18928904Y119725500D03*
D26*
X20128904Y117363000D03*
X19328904Y117363000D03*
D25*
X18428904Y119725500D03*
X17928904Y119725500D03*
D26*
X18528904Y117363000D03*
X17728904Y117363000D03*
D25*
X17428904Y119725500D03*
D26*
X16928904Y117363000D03*
D25*
X16928904Y119725500D03*
D26*
X16128904Y117363000D03*
D25*
X16428904Y119725500D03*
X15928904Y119725500D03*
D26*
X15328904Y117363000D03*
X14528904Y117363000D03*
D25*
X15428904Y119725500D03*
X14928904Y119725500D03*
D26*
X13728904Y117363000D03*
D25*
X14428904Y119725500D03*
D26*
X12928904Y117363000D03*
D24*
X11228904Y119063000D03*
D23*
X13591404Y120563000D03*
D24*
X11228904Y119863000D03*
D23*
X13591404Y121063000D03*
X13591404Y121563000D03*
D24*
X11228904Y120663000D03*
X11228904Y121463000D03*
D23*
X13591404Y122063000D03*
D24*
X11228904Y122263000D03*
D23*
X13591404Y122563000D03*
D24*
X11228904Y123063000D03*
D23*
X13591404Y123063000D03*
D24*
X11228904Y123863000D03*
D23*
X13591404Y123563000D03*
X13591404Y124063000D03*
D24*
X11228904Y124663000D03*
D23*
X13591404Y124563000D03*
D24*
X11228904Y125463000D03*
X11228904Y126263000D03*
D23*
X13591404Y125063000D03*
D24*
X11228904Y127063000D03*
D23*
X13591404Y125563000D03*
D25*
X14428904Y126400500D03*
D26*
X12928904Y128763000D03*
D25*
X14928904Y126400500D03*
D26*
X13728904Y128763000D03*
D25*
X15428904Y126365000D03*
D26*
X14528904Y128763000D03*
X15328904Y128763000D03*
D25*
X15928904Y126400500D03*
D26*
X16128904Y128763000D03*
D25*
X16428904Y126400500D03*
D26*
X16928904Y128763000D03*
D25*
X16928904Y126400500D03*
X17428904Y126400500D03*
D26*
X17728904Y128763000D03*
X18528904Y128763000D03*
D25*
X17928904Y126400500D03*
X18428904Y126400500D03*
D26*
X19328904Y128763000D03*
D25*
X18928904Y126400500D03*
D26*
X20128904Y128763000D03*
X20928904Y128763000D03*
D25*
X19428904Y126400500D03*
%TD*%
D11*
%TO.C,D62*%
X9250700Y-20562600D03*
X9250700Y-17262600D03*
%TD*%
%TO.C,D59*%
X-71711800Y-20562600D03*
X-71711800Y-17262600D03*
%TD*%
%TO.C,D12*%
X218851500Y41388000D03*
X218851500Y44688000D03*
%TD*%
D21*
%TO.C,R10*%
X-50805000Y42974500D03*
X-50805000Y41099500D03*
%TD*%
D11*
%TO.C,D10*%
X180751500Y41388000D03*
X180751500Y44688000D03*
%TD*%
%TO.C,D71*%
X209326500Y-39638000D03*
X209326500Y-36338000D03*
%TD*%
%TO.C,D23*%
X71163200Y17537400D03*
X71163200Y20837400D03*
%TD*%
%TO.C,D11*%
X199801500Y41388000D03*
X199801500Y44688000D03*
%TD*%
%TO.C,D81*%
X75925700Y-39612600D03*
X75925700Y-36312600D03*
%TD*%
%TO.C,D68*%
X152176500Y-39638000D03*
X152176500Y-36338000D03*
%TD*%
%TO.C,D43*%
X-71711800Y-1512600D03*
X-71711800Y1787400D03*
%TD*%
D27*
%TO.C,USB1*%
X-24434000Y64187000D03*
X-23659000Y64187000D03*
D28*
X-22959000Y64187000D03*
X-22459000Y64187000D03*
X-21959000Y64187000D03*
X-21459000Y64187000D03*
X-20959000Y64187000D03*
X-20459000Y64187000D03*
X-19959000Y64187000D03*
X-19459000Y64187000D03*
D27*
X-18759000Y64187000D03*
X-17984000Y64187000D03*
%TD*%
D11*
%TO.C,D66*%
X83450700Y-20562600D03*
X83450700Y-17262600D03*
%TD*%
%TO.C,D46*%
X4488200Y-1512600D03*
X4488200Y1787400D03*
%TD*%
%TO.C,D93*%
X-19324300Y-57662600D03*
X-19324300Y-54362600D03*
%TD*%
%TO.C,D57*%
X246807750Y-20588000D03*
X246807750Y-17288000D03*
%TD*%
%TO.C,D19*%
X-5036800Y17537400D03*
X-5036800Y20837400D03*
%TD*%
D29*
%TO.C,C7*%
X-48922913Y38127913D03*
X-47597087Y36802087D03*
%TD*%
D21*
%TO.C,R2*%
X-25654000Y61389500D03*
X-25654000Y59514500D03*
%TD*%
D11*
%TO.C,D91*%
X-71711800Y-57662600D03*
X-71711800Y-54362600D03*
%TD*%
%TO.C,D52*%
X142651500Y-20588000D03*
X142651500Y-17288000D03*
%TD*%
%TO.C,D88*%
X247363000Y-62437800D03*
X247363000Y-59137800D03*
%TD*%
D12*
%TO.C,C14*%
X79515500Y109347000D03*
X77640500Y109347000D03*
%TD*%
%TO.C,C10*%
X-55704500Y38735000D03*
X-57579500Y38735000D03*
%TD*%
D11*
%TO.C,D34*%
X118839000Y-1538000D03*
X118839000Y1762000D03*
%TD*%
%TO.C,D75*%
X-71711800Y-39612600D03*
X-71711800Y-36312600D03*
%TD*%
D27*
%TO.C,USB2*%
X225883000Y64187000D03*
X226658000Y64187000D03*
D28*
X227358000Y64187000D03*
X227858000Y64187000D03*
X228358000Y64187000D03*
X228858000Y64187000D03*
X229358000Y64187000D03*
X229858000Y64187000D03*
X230358000Y64187000D03*
X230858000Y64187000D03*
D27*
X231558000Y64187000D03*
X232333000Y64187000D03*
%TD*%
D11*
%TO.C,D53*%
X161701500Y-20588000D03*
X161701500Y-17288000D03*
%TD*%
%TO.C,D13*%
X237901500Y41388000D03*
X237901500Y44688000D03*
%TD*%
%TO.C,D60*%
X-52661800Y-20562600D03*
X-52661800Y-17262600D03*
%TD*%
%TO.C,D20*%
X14013200Y17537400D03*
X14013200Y20837400D03*
%TD*%
%TO.C,D29*%
X204564000Y17512000D03*
X204564000Y20812000D03*
%TD*%
%TO.C,D61*%
X-13180550Y-20562600D03*
X-13180550Y-17262600D03*
%TD*%
%TO.C,D48*%
X42588200Y-1512600D03*
X42588200Y1787400D03*
%TD*%
D12*
%TO.C,C17*%
X47546500Y122301000D03*
X45671500Y122301000D03*
%TD*%
D11*
%TO.C,D69*%
X171226500Y-39638000D03*
X171226500Y-36338000D03*
%TD*%
D30*
%TO.C,Y2*%
X49109000Y134301000D03*
X46209000Y134301000D03*
X46209000Y136601000D03*
X49109000Y136601000D03*
%TD*%
D11*
%TO.C,D65*%
X66400700Y-20562600D03*
X66400700Y-17262600D03*
%TD*%
D31*
%TO.C,Y1*%
X-46308077Y20151132D03*
X-48358687Y18100522D03*
X-49985033Y19726868D03*
X-47934423Y21777478D03*
%TD*%
D12*
%TO.C,R8*%
X79515500Y106397000D03*
X77640500Y106397000D03*
%TD*%
D11*
%TO.C,D14*%
X261714000Y41388000D03*
X261714000Y44688000D03*
%TD*%
%TO.C,D90*%
X282463000Y-62937800D03*
X282463000Y-59637800D03*
%TD*%
%TO.C,D72*%
X235520250Y-39638000D03*
X235520250Y-36338000D03*
%TD*%
%TO.C,D18*%
X-24086800Y17537400D03*
X-24086800Y20837400D03*
%TD*%
%TO.C,D80*%
X56875700Y-39612600D03*
X56875700Y-36312600D03*
%TD*%
%TO.C,D1*%
X-24086800Y41349900D03*
X-24086800Y44649900D03*
%TD*%
D12*
%TO.C,C2*%
X-18874500Y108959000D03*
X-20749500Y108959000D03*
%TD*%
D11*
%TO.C,D76*%
X-52661800Y-39612600D03*
X-52661800Y-36312600D03*
%TD*%
%TO.C,D35*%
X137889000Y-1538000D03*
X137889000Y1762000D03*
%TD*%
D12*
%TO.C,C15*%
X74795500Y115247000D03*
X72920500Y115247000D03*
%TD*%
D11*
%TO.C,D67*%
X133126500Y-39638000D03*
X133126500Y-36338000D03*
%TD*%
%TO.C,D4*%
X37825700Y41349900D03*
X37825700Y44649900D03*
%TD*%
%TO.C,D86*%
X204564000Y-57688000D03*
X204564000Y-54388000D03*
%TD*%
%TO.C,D8*%
X137889000Y41388000D03*
X137889000Y44688000D03*
%TD*%
D32*
%TO.C,C11*%
X-67183000Y27256500D03*
X-67183000Y29131500D03*
%TD*%
D11*
%TO.C,D32*%
X249189000Y17512000D03*
X249189000Y20812000D03*
%TD*%
%TO.C,D37*%
X175989000Y-1538000D03*
X175989000Y1762000D03*
%TD*%
D29*
%TO.C,C3*%
X-46015468Y23395913D03*
X-44689642Y22070087D03*
%TD*%
D11*
%TO.C,D74*%
X287289000Y-39638000D03*
X287289000Y-36338000D03*
%TD*%
D12*
%TO.C,C6*%
X51956500Y122301000D03*
X50081500Y122301000D03*
%TD*%
D21*
%TO.C,R3*%
X-17526000Y60627500D03*
X-17526000Y58752500D03*
%TD*%
D12*
%TO.C,R4*%
X-23284500Y108959000D03*
X-25159500Y108959000D03*
%TD*%
D33*
%TO.C,C5*%
X-50277642Y16482087D03*
X-51603468Y17807913D03*
%TD*%
D11*
%TO.C,D2*%
X-274300Y41349900D03*
X-274300Y44649900D03*
%TD*%
%TO.C,D55*%
X199801500Y-20588000D03*
X199801500Y-17288000D03*
%TD*%
%TO.C,D64*%
X47350700Y-20562600D03*
X47350700Y-17262600D03*
%TD*%
D12*
%TO.C,F2*%
X51956500Y131151000D03*
X50081500Y131151000D03*
%TD*%
D20*
%TO.C,C13*%
X-54023500Y38100000D03*
X-52148500Y38100000D03*
%TD*%
D21*
%TO.C,F1*%
X-20066000Y57325500D03*
X-20066000Y55450500D03*
%TD*%
D11*
%TO.C,D36*%
X156939000Y-1538000D03*
X156939000Y1762000D03*
%TD*%
%TO.C,D21*%
X33063200Y17537400D03*
X33063200Y20837400D03*
%TD*%
%TO.C,D92*%
X-52661800Y-57662600D03*
X-52661800Y-54362600D03*
%TD*%
D20*
%TO.C,R7*%
X-44498500Y35687000D03*
X-42623500Y35687000D03*
%TD*%
D11*
%TO.C,D54*%
X180751500Y-20588000D03*
X180751500Y-17288000D03*
%TD*%
%TO.C,D42*%
X287289000Y-1538000D03*
X287289000Y1762000D03*
%TD*%
%TO.C,D41*%
X256951500Y-1538000D03*
X256951500Y1762000D03*
%TD*%
%TO.C,D40*%
X233139000Y-1538000D03*
X233139000Y1762000D03*
%TD*%
D12*
%TO.C,C8*%
X47546500Y131151000D03*
X45671500Y131151000D03*
%TD*%
D11*
%TO.C,D73*%
X266413000Y-44387800D03*
X266413000Y-41087800D03*
%TD*%
%TO.C,D78*%
X18775700Y-39612600D03*
X18775700Y-36312600D03*
%TD*%
%TO.C,D39*%
X214089000Y-1538000D03*
X214089000Y1762000D03*
%TD*%
%TO.C,D58*%
X287289000Y-20588000D03*
X287289000Y-17288000D03*
%TD*%
D12*
%TO.C,C16*%
X47546500Y128201000D03*
X45671500Y128201000D03*
%TD*%
D11*
%TO.C,D5*%
X56875700Y41349900D03*
X56875700Y44649900D03*
%TD*%
%TO.C,D38*%
X195039000Y-1538000D03*
X195039000Y1762000D03*
%TD*%
%TO.C,D85*%
X185514000Y-57688000D03*
X185514000Y-54388000D03*
%TD*%
%TO.C,D70*%
X190276500Y-39638000D03*
X190276500Y-36338000D03*
%TD*%
%TO.C,D28*%
X185514000Y17512000D03*
X185514000Y20812000D03*
%TD*%
%TO.C,D77*%
X-14180550Y-39612600D03*
X-14180550Y-36312600D03*
%TD*%
D12*
%TO.C,C4*%
X79515500Y118197000D03*
X77640500Y118197000D03*
%TD*%
D11*
%TO.C,D26*%
X147414000Y17512000D03*
X147414000Y20812000D03*
%TD*%
D33*
%TO.C,R11*%
X-67536087Y24229087D03*
X-68861913Y25554913D03*
%TD*%
D11*
%TO.C,D15*%
X287289000Y41388000D03*
X287289000Y44688000D03*
%TD*%
M02*
