%FSLAX45Y45*%
G04 Gerber Fmt 4.5, Leading zero omitted, Abs format (unit mm)*
G04 Created by KiCad (PCBNEW (5.99.0-12118-g897269f33f)) date 2021-09-12 17:19:36*
%MOMM*%
%LPD*%
G01*
G04 APERTURE LIST*
%TA.AperFunction,Profile*%
%ADD10C,0.100000*%
%TD*%
%ADD11C,0.200000*%
%ADD12C,0.040000*%
%ADD13C,0.060000*%
%ADD14C,0.090000*%
%ADD15C,0.100000*%
%ADD16C,0.147000*%
%ADD17C,0.150000*%
G04 APERTURE END LIST*
D10*
X19102500Y-6228125D02*
X14652500Y-6228125D01*
X22315000Y5953125D02*
X22315000Y6753125D01*
X3925000Y6703125D02*
G75*
G02*
X3975000Y6753125I50000J0D01*
G01*
X14427500Y-6753125D02*
G75*
G02*
X14377500Y-6703125I0J50000D01*
G01*
X6972400Y-5953125D02*
X7372450Y-5953125D01*
X3925000Y5953125D02*
X2512500Y5953125D01*
X-4175000Y6753125D02*
X-9075000Y6753125D01*
X21005379Y5953125D02*
X19490000Y5953125D01*
X9975000Y-238125D02*
X10401250Y-238125D01*
X-9125000Y6703125D02*
X-9125000Y2453125D01*
X22315381Y6853878D02*
G75*
G02*
X22515379Y7053123I199999J-756D01*
G01*
X29725000Y2453125D02*
G75*
G02*
X29775000Y2403125I0J-50000D01*
G01*
X24106874Y6228309D02*
G75*
G02*
X24106620Y6378309I-127J75000D01*
G01*
X28769291Y6386199D02*
G75*
G02*
X28769545Y6236199I127J-75000D01*
G01*
X-3400000Y-6078125D02*
G75*
G02*
X-3400000Y-6228125I0J-75000D01*
G01*
X-3400000Y-6228125D02*
X-7850000Y-6228125D01*
X9925000Y3621875D02*
X9925000Y5903125D01*
X13105000Y6078125D02*
G75*
G02*
X13105000Y6228125I0J75000D01*
G01*
X-2450650Y-5953125D02*
X-2450650Y-7118634D01*
X28498750Y-6379375D02*
G75*
G02*
X28448750Y-6429375I-50000J0D01*
G01*
X-202500Y5953125D02*
X-202500Y6953123D01*
X29775000Y-7047081D02*
X29775000Y-7947063D01*
X22316133Y7231309D02*
X19494870Y7241969D01*
X2022400Y-6753125D02*
G75*
G02*
X1972400Y-6703125I0J50000D01*
G01*
X9925000Y3621875D02*
G75*
G02*
X9875000Y3571875I-50000J0D01*
G01*
X22315000Y6753125D02*
X22315381Y6853878D01*
X-2712500Y5953125D02*
X-4125000Y5953125D01*
X29724794Y-6997082D02*
X21685059Y-7030177D01*
X7372450Y-7089095D02*
X1298050Y-7114100D01*
X8972500Y3571875D02*
X9875000Y3571875D01*
X28925000Y6753125D02*
G75*
G02*
X28975000Y6703125I0J-50000D01*
G01*
X-1250650Y-5953125D02*
X-1250650Y-7114100D01*
X28975000Y-3998125D02*
X28975000Y-2546875D01*
X-1712500Y7053123D02*
G75*
G02*
X-1512500Y6853123I0J-200000D01*
G01*
X9925000Y1616875D02*
G75*
G02*
X9975000Y1666875I50000J0D01*
G01*
X-2712500Y6753125D02*
X-2712119Y6853878D01*
X12830000Y6703125D02*
X12830000Y5953125D01*
X-9925000Y-7196686D02*
X-9925000Y-8096686D01*
X17555000Y6228125D02*
G75*
G02*
X17555000Y6078125I0J-75000D01*
G01*
X22316133Y7231309D02*
X23516133Y7226775D01*
X-2512121Y7053123D02*
X-1712500Y7053123D01*
X12830000Y6703125D02*
G75*
G02*
X12880000Y6753125I50000J0D01*
G01*
X14427500Y-6753125D02*
X19327500Y-6753125D01*
X1298050Y-5953125D02*
X1972400Y-5953125D01*
X-8919545Y6236199D02*
G75*
G02*
X-8919291Y6386199I127J75000D01*
G01*
X-8125000Y-5953125D02*
X-8125000Y-6703125D01*
X-9400000Y-2271875D02*
X-9400000Y2178125D01*
X13105000Y6228125D02*
X17555000Y6228125D01*
X3925000Y6703125D02*
X3925000Y5953125D01*
X21680625Y-5953125D02*
X22783750Y-5953125D01*
X29725944Y7203312D02*
X23516133Y7226775D01*
X21005379Y6953123D02*
G75*
G02*
X21105379Y7053123I100000J0D01*
G01*
X18290000Y5953125D02*
X18291864Y7246514D01*
X14652500Y-6078125D02*
X19102500Y-6078125D01*
X9448750Y-3998125D02*
G75*
G02*
X9398750Y-4048125I-50000J0D01*
G01*
X-3125000Y-6703125D02*
G75*
G02*
X-3175000Y-6753125I-50000J0D01*
G01*
X21715379Y7053123D02*
X21105379Y7053123D01*
X6697400Y-6228125D02*
X2247400Y-6228125D01*
X-4125000Y5953125D02*
X-4125000Y6703125D01*
X-2450650Y-7118634D02*
X-9875189Y-7146687D01*
X29725000Y2453125D02*
X28975000Y2453125D01*
X28975000Y2453125D02*
X28975000Y6703125D01*
X29725189Y-7997063D02*
X-9874811Y-8146685D01*
X1312500Y5953125D02*
X-202500Y5953125D01*
X11353750Y-4048125D02*
X10927500Y-4048125D01*
X28925000Y6753125D02*
X24025000Y6753125D01*
X-4175000Y6753125D02*
G75*
G02*
X-4125000Y6703125I0J-50000D01*
G01*
X10877500Y1666875D02*
X9975000Y1666875D01*
X1313633Y7310664D02*
X-9874055Y7352935D01*
X-7850000Y-6078125D02*
X-3400000Y-6078125D01*
X28498750Y-4048125D02*
X28925000Y-4048125D01*
X12027500Y-5953125D02*
X12032097Y-7069914D01*
X23315000Y7053123D02*
G75*
G02*
X23515000Y6853123I0J-200000D01*
G01*
X6972400Y-6703125D02*
X6972400Y-5953125D01*
X-9125000Y-2546875D02*
X-9125000Y-5903125D01*
X11830000Y5903125D02*
X11830000Y3571875D01*
X-1012500Y5953125D02*
X-1512500Y5953125D01*
X-9874811Y-8146685D02*
G75*
G02*
X-9925000Y-8096686I-189J50000D01*
G01*
X9448750Y-3998125D02*
X9448750Y-2193125D01*
X-912500Y7053123D02*
X-302500Y7053123D01*
X98050Y-7114100D02*
X-1250650Y-7114100D01*
X8972500Y-5903125D02*
X8972500Y-4048125D01*
X-1512500Y5953125D02*
X-1012500Y5953125D01*
X-9875000Y-2546875D02*
G75*
G02*
X-9925000Y-2496875I0J50000D01*
G01*
X-9925000Y2403125D02*
G75*
G02*
X-9875000Y2453125I50000J0D01*
G01*
X10401250Y-238125D02*
X10401250Y-2093125D01*
X8446250Y-238125D02*
G75*
G02*
X8496250Y-288125I0J-50000D01*
G01*
X17780000Y6753125D02*
X12880000Y6753125D01*
X6972400Y-6703125D02*
G75*
G02*
X6922400Y-6753125I-50000J0D01*
G01*
X29726322Y8203311D02*
X-9873678Y8352933D01*
X-9874055Y7352935D02*
G75*
G02*
X-9923867Y7402934I189J50000D01*
G01*
X19377500Y-5953125D02*
X20480625Y-5953125D01*
X8572450Y-5953125D02*
X8922500Y-5953125D01*
X-9923867Y8302934D02*
G75*
G02*
X-9873678Y8352933I50000J0D01*
G01*
X4200000Y6078125D02*
G75*
G02*
X4200000Y6228125I0J75000D01*
G01*
X8650000Y6228125D02*
G75*
G02*
X8650000Y6078125I0J-75000D01*
G01*
X28769545Y6236199D02*
X24106874Y6228309D01*
X8972500Y1716875D02*
G75*
G02*
X8922500Y1666875I-50000J0D01*
G01*
X-1250650Y-5953125D02*
X98050Y-5953125D01*
X-8075000Y-6753125D02*
X-3175000Y-6753125D01*
X18290000Y5953125D02*
X17830000Y5953125D01*
X22315000Y5953125D02*
X21815379Y5953125D01*
X11353750Y-2143125D02*
X11353750Y-4048125D01*
X2022400Y-6753125D02*
X6922400Y-6753125D01*
X8972500Y-4048125D02*
X9398750Y-4048125D01*
X-302500Y7053123D02*
G75*
G02*
X-202500Y6953123I0J-100000D01*
G01*
X19377500Y-6703125D02*
X19377500Y-5953125D01*
X8572450Y-5953125D02*
X8572450Y-7084155D01*
X29100000Y2178125D02*
G75*
G02*
X29250000Y2178125I75000J0D01*
G01*
X-4256620Y6378309D02*
G75*
G02*
X-4256874Y6228309I-127J-75000D01*
G01*
X10877500Y3521875D02*
X10877500Y1666875D01*
X11830000Y5903125D02*
G75*
G02*
X11880000Y5953125I50000J0D01*
G01*
X14377500Y-5953125D02*
X14377500Y-6703125D01*
X-2712500Y5953125D02*
X-2712500Y6753125D01*
X13227500Y-5953125D02*
X13227500Y-7064993D01*
X4200000Y6228125D02*
X8650000Y6228125D01*
X-9075000Y-5953125D02*
G75*
G02*
X-9125000Y-5903125I0J50000D01*
G01*
X22515379Y7053123D02*
X23315000Y7053123D01*
X29775000Y-2496875D02*
G75*
G02*
X29725000Y-2546875I-50000J0D01*
G01*
X20480625Y-5953125D02*
X20485079Y-7035117D01*
X21715379Y7053123D02*
G75*
G02*
X21815379Y6953123I0J-100000D01*
G01*
X-9875000Y-2546875D02*
X-9125000Y-2546875D01*
X8875000Y6753125D02*
X3975000Y6753125D01*
X-8919291Y6386199D02*
X-4256620Y6378309D01*
X98050Y-5953125D02*
X98050Y-7114100D01*
X12032097Y-7069914D02*
X8572450Y-7084155D01*
X22833750Y-6429375D02*
X28448750Y-6429375D01*
X-7850000Y-6228125D02*
G75*
G02*
X-7850000Y-6078125I0J75000D01*
G01*
X-1012500Y6953123D02*
X-1012500Y5953125D01*
X-3125000Y-5953125D02*
X-2450650Y-5953125D01*
X21680625Y-5953125D02*
X21685059Y-7030177D01*
X-9925000Y-7196686D02*
G75*
G02*
X-9875189Y-7146687I50000J0D01*
G01*
X-9125000Y6703125D02*
G75*
G02*
X-9075000Y6753125I50000J0D01*
G01*
X-8075000Y-6753125D02*
G75*
G02*
X-8125000Y-6703125I0J50000D01*
G01*
X8972500Y-5903125D02*
G75*
G02*
X8922500Y-5953125I-50000J0D01*
G01*
X21005379Y5953125D02*
X21005379Y6953123D01*
X-9400000Y2178125D02*
G75*
G02*
X-9250000Y2178125I75000J0D01*
G01*
X2247400Y-6078125D02*
X6697400Y-6078125D01*
X10451250Y-2143125D02*
G75*
G02*
X10401250Y-2093125I0J50000D01*
G01*
X9975000Y-238125D02*
G75*
G02*
X9925000Y-188125I0J50000D01*
G01*
X28975000Y-2546875D02*
X29725000Y-2546875D01*
X19490000Y5953125D02*
X19494870Y7241969D01*
X-9925000Y2403125D02*
X-9925000Y-2496875D01*
X29776133Y7253312D02*
G75*
G02*
X29725944Y7203312I-50000J0D01*
G01*
X22783750Y-5953125D02*
X22783750Y-6379375D01*
X13227500Y-5953125D02*
X14377500Y-5953125D01*
X17830000Y5953125D02*
X17830000Y6703125D01*
X1972400Y-5953125D02*
X1972400Y-6703125D01*
X2517612Y5953125D02*
X2517612Y7306115D01*
X18291864Y7246514D02*
X2517612Y7306115D01*
X28498750Y-6379375D02*
X28498750Y-4048125D01*
X-3125000Y-6703125D02*
X-3125000Y-5953125D01*
X24106620Y6378309D02*
X28769291Y6386199D01*
X29775000Y-2496875D02*
X29775000Y2403125D01*
X-1512500Y6853123D02*
X-1512500Y5953125D01*
X2247400Y-6228125D02*
G75*
G02*
X2247400Y-6078125I0J75000D01*
G01*
X9875000Y5953125D02*
X8925000Y5953125D01*
X9398750Y-2143125D02*
X8496250Y-2143125D01*
X8020000Y-238125D02*
X8020000Y1666875D01*
X12830000Y5953125D02*
X11880000Y5953125D01*
X-2712119Y6853878D02*
G75*
G02*
X-2512121Y7053123I199999J-756D01*
G01*
X1298050Y-5953125D02*
X1298050Y-7114100D01*
X11830000Y3571875D02*
X10927500Y3571875D01*
X7372450Y-5953125D02*
X7372450Y-7089095D01*
X20485079Y-7035117D02*
X13227500Y-7064993D01*
X1312500Y5953125D02*
X1313633Y7310664D01*
X-4256874Y6228309D02*
X-8919545Y6236199D01*
X10877500Y-4098125D02*
G75*
G02*
X10927500Y-4048125I50000J0D01*
G01*
X-9923867Y7402934D02*
X-9923867Y8302933D01*
X-9250000Y2178125D02*
X-9250000Y-2271875D01*
X23515000Y6853123D02*
X23515000Y5953125D01*
X19377500Y-6703125D02*
G75*
G02*
X19327500Y-6753125I-50000J0D01*
G01*
X10877500Y-4098125D02*
X10877500Y-5903125D01*
X29100000Y-2271875D02*
X29100000Y2178125D01*
X8875000Y6753125D02*
G75*
G02*
X8925000Y6703125I0J-50000D01*
G01*
X17780000Y6753125D02*
G75*
G02*
X17830000Y6703125I0J-50000D01*
G01*
X14652500Y-6228125D02*
G75*
G02*
X14652500Y-6078125I0J75000D01*
G01*
X8446250Y-238125D02*
X8020000Y-238125D01*
X29250000Y-2271875D02*
G75*
G02*
X29100000Y-2271875I-75000J0D01*
G01*
X29250000Y2178125D02*
X29250000Y-2271875D01*
X23975000Y6703125D02*
G75*
G02*
X24025000Y6753125I50000J0D01*
G01*
X-9125000Y2453125D02*
X-9875000Y2453125D01*
X8925000Y5953125D02*
X8925000Y6703125D01*
X10927500Y-5953125D02*
G75*
G02*
X10877500Y-5903125I0J50000D01*
G01*
X8020000Y1666875D02*
X8922500Y1666875D01*
X21815379Y6953123D02*
X21815379Y5953125D01*
X10877500Y3521875D02*
G75*
G02*
X10927500Y3571875I50000J0D01*
G01*
X6697400Y-6078125D02*
G75*
G02*
X6697400Y-6228125I0J-75000D01*
G01*
X29724794Y-6997082D02*
G75*
G02*
X29775000Y-7047081I206J-50000D01*
G01*
X8972500Y1716875D02*
X8972500Y3571875D01*
X-1012500Y6953123D02*
G75*
G02*
X-912500Y7053123I100000J0D01*
G01*
X-9250000Y-2271875D02*
G75*
G02*
X-9400000Y-2271875I-75000J0D01*
G01*
X23975000Y5953125D02*
X23515000Y5953125D01*
X23975000Y6703125D02*
X23975000Y5953125D01*
X8650000Y6078125D02*
X4200000Y6078125D01*
X8496250Y-2143125D02*
X8496250Y-288125D01*
X22833750Y-6429375D02*
G75*
G02*
X22783750Y-6379375I0J50000D01*
G01*
X-9075000Y-5953125D02*
X-8125000Y-5953125D01*
X10451250Y-2143125D02*
X11353750Y-2143125D01*
X10927500Y-5953125D02*
X12027500Y-5953125D01*
X29726322Y8203311D02*
G75*
G02*
X29776133Y8153311I-189J-50000D01*
G01*
X9398750Y-2143125D02*
G75*
G02*
X9448750Y-2193125I0J-50000D01*
G01*
X9875000Y5953125D02*
G75*
G02*
X9925000Y5903125I0J-50000D01*
G01*
X29776133Y7253312D02*
X29776133Y8153311D01*
X17555000Y6078125D02*
X13105000Y6078125D01*
X28975000Y-3998125D02*
G75*
G02*
X28925000Y-4048125I-50000J0D01*
G01*
X19102500Y-6078125D02*
G75*
G02*
X19102500Y-6228125I0J-75000D01*
G01*
X29775000Y-7947063D02*
G75*
G02*
X29725189Y-7997063I-50000J0D01*
G01*
X9925000Y1616875D02*
X9925000Y-188125D01*
D11*
D12*
X-6903400Y2750500D02*
X-6863400Y2710500D01*
X-6863400Y2750500D02*
X-6903400Y2710500D01*
X-6890700Y985200D02*
X-6850700Y945200D01*
X-6850700Y985200D02*
X-6890700Y945200D01*
X-6865300Y32700D02*
X-6825300Y-7300D01*
X-6825300Y32700D02*
X-6865300Y-7300D01*
X-6865300Y-1872300D02*
X-6825300Y-1912300D01*
X-6825300Y-1872300D02*
X-6865300Y-1912300D01*
X-6865300Y-3777300D02*
X-6825300Y-3817300D01*
X-6825300Y-3777300D02*
X-6865300Y-3817300D01*
X-6712900Y32700D02*
X-6672900Y-7300D01*
X-6672900Y32700D02*
X-6712900Y-7300D01*
X-5862000Y4185600D02*
X-5822000Y4145600D01*
X-5822000Y4185600D02*
X-5862000Y4145600D01*
X-5785800Y1645600D02*
X-5745800Y1605600D01*
X-5745800Y1645600D02*
X-5785800Y1605600D01*
X-5595300Y4274500D02*
X-5555300Y4234500D01*
X-5555300Y4274500D02*
X-5595300Y4234500D01*
X-5582600Y3753800D02*
X-5542600Y3713800D01*
X-5542600Y3753800D02*
X-5582600Y3713800D01*
X-5416212Y2114212D02*
X-5376212Y2074211D01*
X-5376212Y2114212D02*
X-5416212Y2074211D01*
X-5303200Y4020500D02*
X-5263200Y3980500D01*
X-5263200Y4020500D02*
X-5303200Y3980500D01*
X-5251970Y3512070D02*
X-5211970Y3472070D01*
X-5211970Y3512070D02*
X-5251970Y3472070D01*
X-5188900Y3995100D02*
X-5148900Y3955100D01*
X-5148900Y3995100D02*
X-5188900Y3955100D01*
X-5152205Y2154773D02*
X-5112205Y2114773D01*
X-5112205Y2154773D02*
X-5152205Y2114773D01*
X-5125400Y-2037400D02*
X-5085400Y-2077400D01*
X-5085400Y-2037400D02*
X-5125400Y-2077400D01*
X-5111560Y-3941260D02*
X-5071560Y-3981260D01*
X-5071560Y-3941260D02*
X-5111560Y-3981260D01*
X-5100000Y-132400D02*
X-5060000Y-172400D01*
X-5060000Y-132400D02*
X-5100000Y-172400D01*
X-5061900Y3360100D02*
X-5021900Y3320100D01*
X-5021900Y3360100D02*
X-5061900Y3320100D01*
X-5011100Y3931600D02*
X-4971100Y3891600D01*
X-4971100Y3931600D02*
X-5011100Y3891600D01*
X-4871400Y2775900D02*
X-4831400Y2735900D01*
X-4831400Y2775900D02*
X-4871400Y2735900D01*
X-4477700Y2941000D02*
X-4437700Y2901000D01*
X-4437700Y2941000D02*
X-4477700Y2901000D01*
X-4012880Y1667190D02*
X-3972880Y1627190D01*
X-3972880Y1667190D02*
X-4012880Y1627190D01*
X-3944777Y3516606D02*
X-3904777Y3476606D01*
X-3904777Y3516606D02*
X-3944777Y3476606D01*
X-3940430Y4185600D02*
X-3900430Y4145600D01*
X-3900430Y4185600D02*
X-3940430Y4145600D01*
X-3791900Y3516606D02*
X-3751900Y3476606D01*
X-3751900Y3516606D02*
X-3791900Y3476606D01*
X-3584950Y-132400D02*
X-3544950Y-172400D01*
X-3544950Y-132400D02*
X-3584950Y-172400D01*
X-3563300Y-1973900D02*
X-3523300Y-2013900D01*
X-3523300Y-1973900D02*
X-3563300Y-2013900D01*
X-3512500Y32700D02*
X-3472500Y-7300D01*
X-3472500Y32700D02*
X-3512500Y-7300D01*
X-3271200Y-1872300D02*
X-3231200Y-1912300D01*
X-3231200Y-1872300D02*
X-3271200Y-1912300D01*
X-2927160Y-3941260D02*
X-2887160Y-3981260D01*
X-2887160Y-3941260D02*
X-2927160Y-3981260D01*
X-2839400Y-3777300D02*
X-2799400Y-3817300D01*
X-2799400Y-3777300D02*
X-2839400Y-3817300D01*
X-2610800Y1772600D02*
X-2570800Y1732600D01*
X-2570800Y1772600D02*
X-2610800Y1732600D01*
X-2417499Y6677601D02*
X-2377499Y6637601D01*
X-2377499Y6677601D02*
X-2417499Y6637601D01*
X-2394900Y5989000D02*
X-2354900Y5949000D01*
X-2354900Y5989000D02*
X-2394900Y5949000D01*
X-2394900Y-894400D02*
X-2354900Y-934400D01*
X-2354900Y-894400D02*
X-2394900Y-934400D01*
X-2390954Y6096777D02*
X-2350954Y6056777D01*
X-2350954Y6096777D02*
X-2390954Y6056777D01*
X-2331400Y6598600D02*
X-2291400Y6558600D01*
X-2291400Y6598600D02*
X-2331400Y6558600D01*
X-2293300Y5688598D02*
X-2253300Y5648598D01*
X-2253300Y5688598D02*
X-2293300Y5648598D01*
X-2217100Y5582600D02*
X-2177100Y5542600D01*
X-2177100Y5582600D02*
X-2217100Y5542600D01*
X-1988500Y6293800D02*
X-1948500Y6253800D01*
X-1948500Y6293800D02*
X-1988500Y6253800D01*
X-1950400Y6598600D02*
X-1910400Y6558600D01*
X-1910400Y6598600D02*
X-1950400Y6558600D01*
X-1872398Y6676602D02*
X-1832398Y6636602D01*
X-1832398Y6676602D02*
X-1872398Y6636602D01*
X-1772600Y6217600D02*
X-1732600Y6177600D01*
X-1732600Y6217600D02*
X-1772600Y6177600D01*
X-1658300Y4325300D02*
X-1618300Y4285300D01*
X-1618300Y4325300D02*
X-1658300Y4285300D01*
X-1124900Y32700D02*
X-1084900Y-7300D01*
X-1084900Y32700D02*
X-1124900Y-7300D01*
X-655000Y-1872300D02*
X-615000Y-1912300D01*
X-615000Y-1872300D02*
X-655000Y-1912300D01*
X-223200Y1937700D02*
X-183200Y1897700D01*
X-183200Y1937700D02*
X-223200Y1897700D01*
X-58100Y1937700D02*
X-18100Y1897700D01*
X-18100Y1937700D02*
X-58100Y1897700D01*
X246700Y-3777300D02*
X286700Y-3817300D01*
X286700Y-3777300D02*
X246700Y-3817300D01*
X259400Y4325300D02*
X299400Y4285300D01*
X299400Y4325300D02*
X259400Y4285300D01*
X767400Y32700D02*
X807400Y-7300D01*
X807400Y32700D02*
X767400Y-7300D01*
X1250000Y-1872300D02*
X1290000Y-1912300D01*
X1290000Y-1872300D02*
X1250000Y-1912300D01*
X1669100Y1937700D02*
X1709100Y1897700D01*
X1709100Y1937700D02*
X1669100Y1897700D01*
X1846900Y1937700D02*
X1886900Y1897700D01*
X1886900Y1937700D02*
X1846900Y1897700D01*
X2151700Y-3777300D02*
X2191700Y-3817300D01*
X2191700Y-3777300D02*
X2151700Y-3817300D01*
X2164400Y4325300D02*
X2204400Y4285300D01*
X2204400Y4325300D02*
X2164400Y4285300D01*
X2685100Y32700D02*
X2725100Y-7300D01*
X2725100Y32700D02*
X2685100Y-7300D01*
X3155000Y-1872300D02*
X3195000Y-1912300D01*
X3195000Y-1872300D02*
X3155000Y-1912300D01*
X3574100Y1937700D02*
X3614100Y1897700D01*
X3614100Y1937700D02*
X3574100Y1897700D01*
X4056700Y4325300D02*
X4096700Y4285300D01*
X4096700Y4325300D02*
X4056700Y4285300D01*
X4577400Y32700D02*
X4617400Y-7300D01*
X4617400Y32700D02*
X4577400Y-7300D01*
X4729800Y32700D02*
X4769800Y-7300D01*
X4769800Y32700D02*
X4729800Y-7300D01*
X5060000Y-1872300D02*
X5100000Y-1912300D01*
X5100000Y-1872300D02*
X5060000Y-1912300D01*
X5479100Y1937700D02*
X5519100Y1897700D01*
X5519100Y1937700D02*
X5479100Y1897700D01*
X5961700Y-3777300D02*
X6001700Y-3817300D01*
X6001700Y-3777300D02*
X5961700Y-3817300D01*
X6444300Y4325300D02*
X6484300Y4285300D01*
X6484300Y4325300D02*
X6444300Y4285300D01*
X6482400Y32700D02*
X6522400Y-7300D01*
X6522400Y32700D02*
X6482400Y-7300D01*
X6965000Y-1872300D02*
X7005000Y-1912300D01*
X7005000Y-1872300D02*
X6965000Y-1912300D01*
X7384100Y1937700D02*
X7424100Y1897700D01*
X7424100Y1937700D02*
X7384100Y1897700D01*
X8349300Y4325300D02*
X8389300Y4285300D01*
X8389300Y4325300D02*
X8349300Y4285300D01*
X12705400Y-1872300D02*
X12745400Y-1912300D01*
X12745400Y-1872300D02*
X12705400Y-1912300D01*
X13086400Y1925000D02*
X13126400Y1885000D01*
X13126400Y1925000D02*
X13086400Y1885000D01*
X14026200Y20000D02*
X14066200Y-20000D01*
X14066200Y20000D02*
X14026200Y-20000D01*
X14127800Y4312600D02*
X14167800Y4272600D01*
X14167800Y4312600D02*
X14127800Y4272600D01*
X14648500Y-1885000D02*
X14688500Y-1925000D01*
X14688500Y-1885000D02*
X14648500Y-1925000D01*
X14991400Y1925000D02*
X15031400Y1885000D01*
X15031400Y1925000D02*
X14991400Y1885000D01*
X15562900Y-3802700D02*
X15602900Y-3842700D01*
X15602900Y-3802700D02*
X15562900Y-3842700D01*
X15931200Y20000D02*
X15971200Y-20000D01*
X15971200Y20000D02*
X15931200Y-20000D01*
X16515400Y4312600D02*
X16555400Y4272600D01*
X16555400Y4312600D02*
X16515400Y4272600D01*
X16540800Y-1885000D02*
X16580800Y-1925000D01*
X16580800Y-1885000D02*
X16540800Y-1925000D01*
X16909100Y1925000D02*
X16949100Y1885000D01*
X16949100Y1925000D02*
X16909100Y1885000D01*
X17467900Y-3777300D02*
X17507900Y-3817300D01*
X17507900Y-3777300D02*
X17467900Y-3817300D01*
X17861600Y20000D02*
X17901600Y-20000D01*
X17901600Y20000D02*
X17861600Y-20000D01*
X18420400Y-1885000D02*
X18460400Y-1925000D01*
X18460400Y-1885000D02*
X18420400Y-1925000D01*
X18433100Y4325300D02*
X18473100Y4285300D01*
X18473100Y4325300D02*
X18433100Y4285300D01*
X18801400Y1925000D02*
X18841400Y1885000D01*
X18841400Y1925000D02*
X18801400Y1885000D01*
X19360200Y-3790000D02*
X19400200Y-3830000D01*
X19400200Y-3790000D02*
X19360200Y-3830000D01*
X19753900Y7300D02*
X19793900Y-32700D01*
X19793900Y7300D02*
X19753900Y-32700D01*
X20312700Y4312600D02*
X20352700Y4272600D01*
X20352700Y4312600D02*
X20312700Y4272600D01*
X20312700Y-1885000D02*
X20352700Y-1925000D01*
X20352700Y-1885000D02*
X20312700Y-1925000D01*
X20731800Y1912300D02*
X20771800Y1872300D01*
X20771800Y1912300D02*
X20731800Y1872300D01*
X21658900Y7300D02*
X21698900Y-32700D01*
X21698900Y7300D02*
X21658900Y-32700D01*
X22027200Y-3802700D02*
X22067200Y-3842700D01*
X22067200Y-3802700D02*
X22027200Y-3842700D01*
X22205000Y4312600D02*
X22245000Y4272600D01*
X22245000Y4312600D02*
X22205000Y4272600D01*
X23424200Y-1885000D02*
X23464200Y-1925000D01*
X23464200Y-1885000D02*
X23424200Y-1925000D01*
X23665500Y1925000D02*
X23705500Y1885000D01*
X23705500Y1925000D02*
X23665500Y1885000D01*
X24059200Y7300D02*
X24099200Y-32700D01*
X24099200Y7300D02*
X24059200Y-32700D01*
X24643400Y4299900D02*
X24683400Y4259900D01*
X24683400Y4299900D02*
X24643400Y4259900D01*
X25075200Y-4259900D02*
X25115200Y-4299900D01*
X25115200Y-4259900D02*
X25075200Y-4299900D01*
X27399300Y-3790000D02*
X27439300Y-3830000D01*
X27439300Y-3790000D02*
X27399300Y-3830000D01*
X27462800Y1925000D02*
X27502800Y1885000D01*
X27502800Y1925000D02*
X27462800Y1885000D01*
X27462800Y20000D02*
X27502800Y-20000D01*
X27502800Y20000D02*
X27462800Y-20000D01*
X27462800Y-1872300D02*
X27502800Y-1912300D01*
X27502800Y-1872300D02*
X27462800Y-1912300D01*
X27475500Y4312600D02*
X27515500Y4272600D01*
X27515500Y4312600D02*
X27475500Y4272600D01*
D13*
X-2522900Y6928200D02*
G75*
G03*
X-2522900Y6928200I-30000J0D01*
G01*
D11*
X-2572900Y6958200D02*
X-2572900Y6898200D01*
X-2532900Y6958200D02*
X-2532900Y6898200D01*
X-2572900Y6898200D02*
G75*
G03*
X-2532900Y6898200I20000J0D01*
G01*
X-2532900Y6958200D02*
G75*
G03*
X-2572900Y6958200I-20000J0D01*
G01*
D13*
X-2522900Y6510200D02*
G75*
G03*
X-2522900Y6510200I-30000J0D01*
G01*
D11*
X-2572900Y6565200D02*
X-2572900Y6455200D01*
X-2532900Y6565200D02*
X-2532900Y6455200D01*
X-2572900Y6455200D02*
G75*
G03*
X-2532900Y6455200I20000J0D01*
G01*
X-2532900Y6565200D02*
G75*
G03*
X-2572900Y6565200I-20000J0D01*
G01*
D13*
X-1658900Y6928200D02*
G75*
G03*
X-1658900Y6928200I-30000J0D01*
G01*
D11*
X-1708900Y6958200D02*
X-1708900Y6898200D01*
X-1668900Y6958200D02*
X-1668900Y6898200D01*
X-1708900Y6898200D02*
G75*
G03*
X-1668900Y6898200I20000J0D01*
G01*
X-1668900Y6958200D02*
G75*
G03*
X-1708900Y6958200I-20000J0D01*
G01*
D13*
X-1658900Y6510200D02*
G75*
G03*
X-1658900Y6510200I-30000J0D01*
G01*
D11*
X-1708900Y6565200D02*
X-1708900Y6455200D01*
X-1668900Y6565200D02*
X-1668900Y6455200D01*
X-1708900Y6455200D02*
G75*
G03*
X-1668900Y6455200I20000J0D01*
G01*
X-1668900Y6565200D02*
G75*
G03*
X-1708900Y6565200I-20000J0D01*
G01*
D13*
X22508800Y6928200D02*
G75*
G03*
X22508800Y6928200I-30000J0D01*
G01*
D11*
X22458800Y6958200D02*
X22458800Y6898200D01*
X22498800Y6958200D02*
X22498800Y6898200D01*
X22458800Y6898200D02*
G75*
G03*
X22498800Y6898200I20000J0D01*
G01*
X22498800Y6958200D02*
G75*
G03*
X22458800Y6958200I-20000J0D01*
G01*
D13*
X22508800Y6510200D02*
G75*
G03*
X22508800Y6510200I-30000J0D01*
G01*
D11*
X22458800Y6565200D02*
X22458800Y6455200D01*
X22498800Y6565200D02*
X22498800Y6455200D01*
X22458800Y6455200D02*
G75*
G03*
X22498800Y6455200I20000J0D01*
G01*
X22498800Y6565200D02*
G75*
G03*
X22458800Y6565200I-20000J0D01*
G01*
D13*
X23372800Y6928200D02*
G75*
G03*
X23372800Y6928200I-30000J0D01*
G01*
D11*
X23322800Y6958200D02*
X23322800Y6898200D01*
X23362800Y6958200D02*
X23362800Y6898200D01*
X23322800Y6898200D02*
G75*
G03*
X23362800Y6898200I20000J0D01*
G01*
X23362800Y6958200D02*
G75*
G03*
X23322800Y6958200I-20000J0D01*
G01*
D13*
X23372800Y6510200D02*
G75*
G03*
X23372800Y6510200I-30000J0D01*
G01*
D11*
X23322800Y6565200D02*
X23322800Y6455200D01*
X23362800Y6565200D02*
X23362800Y6455200D01*
X23322800Y6455200D02*
G75*
G03*
X23362800Y6455200I20000J0D01*
G01*
X23362800Y6565200D02*
G75*
G03*
X23322800Y6565200I-20000J0D01*
G01*
D14*
X-839600Y6710000D02*
X-839600Y6620000D01*
X-884600Y6665000D02*
X-794600Y6665000D01*
D11*
X-804600Y6645000D02*
X-804600Y6685000D01*
X-874600Y6645000D02*
X-874600Y6685000D01*
X-804600Y6685000D02*
G75*
G03*
X-874600Y6685000I-35000J0D01*
G01*
X-874600Y6645000D02*
G75*
G03*
X-804600Y6645000I35000J0D01*
G01*
D14*
X-839600Y6410000D02*
X-839600Y6320000D01*
X-884600Y6365000D02*
X-794600Y6365000D01*
D11*
X-804600Y6345000D02*
X-804600Y6385000D01*
X-874600Y6345000D02*
X-874600Y6385000D01*
X-804600Y6385000D02*
G75*
G03*
X-874600Y6385000I-35000J0D01*
G01*
X-874600Y6345000D02*
G75*
G03*
X-804600Y6345000I35000J0D01*
G01*
D14*
X-839600Y6010000D02*
X-839600Y5920000D01*
X-884600Y5965000D02*
X-794600Y5965000D01*
D11*
X-804600Y5945000D02*
X-804600Y5985000D01*
X-874600Y5945000D02*
X-874600Y5985000D01*
X-804600Y5985000D02*
G75*
G03*
X-874600Y5985000I-35000J0D01*
G01*
X-874600Y5945000D02*
G75*
G03*
X-804600Y5945000I35000J0D01*
G01*
D14*
X-379600Y5900000D02*
X-379600Y5810000D01*
X-424600Y5855000D02*
X-334600Y5855000D01*
D11*
X-344600Y5835000D02*
X-344600Y5875000D01*
X-414600Y5835000D02*
X-414600Y5875000D01*
X-344600Y5875000D02*
G75*
G03*
X-414600Y5875000I-35000J0D01*
G01*
X-414600Y5835000D02*
G75*
G03*
X-344600Y5835000I35000J0D01*
G01*
D14*
X21182200Y6710000D02*
X21182200Y6620000D01*
X21137200Y6665000D02*
X21227200Y6665000D01*
D11*
X21217200Y6645000D02*
X21217200Y6685000D01*
X21147200Y6645000D02*
X21147200Y6685000D01*
X21217200Y6685000D02*
G75*
G03*
X21147200Y6685000I-35000J0D01*
G01*
X21147200Y6645000D02*
G75*
G03*
X21217200Y6645000I35000J0D01*
G01*
D14*
X21182200Y6410000D02*
X21182200Y6320000D01*
X21137200Y6365000D02*
X21227200Y6365000D01*
D11*
X21217200Y6345000D02*
X21217200Y6385000D01*
X21147200Y6345000D02*
X21147200Y6385000D01*
X21217200Y6385000D02*
G75*
G03*
X21147200Y6385000I-35000J0D01*
G01*
X21147200Y6345000D02*
G75*
G03*
X21217200Y6345000I35000J0D01*
G01*
D14*
X21182200Y6010000D02*
X21182200Y5920000D01*
X21137200Y5965000D02*
X21227200Y5965000D01*
D11*
X21217200Y5945000D02*
X21217200Y5985000D01*
X21147200Y5945000D02*
X21147200Y5985000D01*
X21217200Y5985000D02*
G75*
G03*
X21147200Y5985000I-35000J0D01*
G01*
X21147200Y5945000D02*
G75*
G03*
X21217200Y5945000I35000J0D01*
G01*
D14*
X21642200Y5900000D02*
X21642200Y5810000D01*
X21597200Y5855000D02*
X21687200Y5855000D01*
D11*
X21677200Y5835000D02*
X21677200Y5875000D01*
X21607200Y5835000D02*
X21607200Y5875000D01*
X21677200Y5875000D02*
G75*
G03*
X21607200Y5875000I-35000J0D01*
G01*
X21607200Y5835000D02*
G75*
G03*
X21677200Y5835000I35000J0D01*
G01*
D15*
X-7938804Y4547884D02*
X-7938804Y4618596D01*
X-8009516Y4618596D01*
X-8009516Y4547884D01*
X-7938804Y4547884D01*
X-7938804Y4297884D02*
X-7938804Y4368596D01*
X-8009516Y4368596D01*
X-8009516Y4297884D01*
X-7938804Y4297884D01*
X-7938804Y4047884D02*
X-7938804Y4118596D01*
X-8009516Y4118596D01*
X-8009516Y4047884D01*
X-7938804Y4047884D01*
X-6488804Y4547884D02*
X-6488804Y4618596D01*
X-6559516Y4618596D01*
X-6559516Y4547884D01*
X-6488804Y4547884D01*
X-6488804Y4047884D02*
X-6488804Y4118596D01*
X-6559516Y4118596D01*
X-6559516Y4047884D01*
X-6488804Y4047884D01*
D16*
X-8552180Y894240D02*
X-8478680Y967740D01*
X-8552180Y1041240D01*
X-8625680Y967740D01*
X-8552180Y894240D01*
X-8552180Y-1010760D02*
X-8478680Y-937260D01*
X-8552180Y-863760D01*
X-8625680Y-937260D01*
X-8552180Y-1010760D01*
X-8552180Y-2915760D02*
X-8478680Y-2842260D01*
X-8552180Y-2768760D01*
X-8625680Y-2842260D01*
X-8552180Y-2915760D01*
X-8552180Y-4820760D02*
X-8478680Y-4747260D01*
X-8552180Y-4673760D01*
X-8625680Y-4747260D01*
X-8552180Y-4820760D01*
X-7917180Y1148240D02*
X-7843680Y1221740D01*
X-7917180Y1295240D01*
X-7990680Y1221740D01*
X-7917180Y1148240D01*
X-7917180Y-756760D02*
X-7843680Y-683260D01*
X-7917180Y-609760D01*
X-7990680Y-683260D01*
X-7917180Y-756760D01*
X-7917180Y-2661760D02*
X-7843680Y-2588260D01*
X-7917180Y-2514760D01*
X-7990680Y-2588260D01*
X-7917180Y-2661760D01*
X-7917180Y-4566760D02*
X-7843680Y-4493260D01*
X-7917180Y-4419760D01*
X-7990680Y-4493260D01*
X-7917180Y-4566760D01*
X-6845300Y10302400D02*
X-6771800Y10375900D01*
X-6845300Y10449400D01*
X-6918800Y10375900D01*
X-6845300Y10302400D01*
X-6647180Y894240D02*
X-6573680Y967740D01*
X-6647180Y1041240D01*
X-6720680Y967740D01*
X-6647180Y894240D01*
X-6647180Y-1010760D02*
X-6573680Y-937260D01*
X-6647180Y-863760D01*
X-6720680Y-937260D01*
X-6647180Y-1010760D01*
X-6647180Y-2915760D02*
X-6573680Y-2842260D01*
X-6647180Y-2768760D01*
X-6720680Y-2842260D01*
X-6647180Y-2915760D01*
X-6647180Y-4820760D02*
X-6573680Y-4747260D01*
X-6647180Y-4673760D01*
X-6720680Y-4747260D01*
X-6647180Y-4820760D01*
X-6210300Y10556400D02*
X-6136800Y10629900D01*
X-6210300Y10703400D01*
X-6283800Y10629900D01*
X-6210300Y10556400D01*
X-6012180Y1148240D02*
X-5938680Y1221740D01*
X-6012180Y1295240D01*
X-6085680Y1221740D01*
X-6012180Y1148240D01*
X-6012180Y-756760D02*
X-5938680Y-683260D01*
X-6012180Y-609760D01*
X-6085680Y-683260D01*
X-6012180Y-756760D01*
X-6012180Y-2661760D02*
X-5938680Y-2588260D01*
X-6012180Y-2514760D01*
X-6085680Y-2588260D01*
X-6012180Y-2661760D01*
X-6012180Y-4566760D02*
X-5938680Y-4493260D01*
X-6012180Y-4419760D01*
X-6085680Y-4493260D01*
X-6012180Y-4566760D01*
X-4825300Y10302400D02*
X-4751800Y10375900D01*
X-4825300Y10449400D01*
X-4898800Y10375900D01*
X-4825300Y10302400D01*
X-4190300Y10556400D02*
X-4116800Y10629900D01*
X-4190300Y10703400D01*
X-4263800Y10629900D01*
X-4190300Y10556400D01*
X-3789680Y5180490D02*
X-3716180Y5253990D01*
X-3789680Y5327490D01*
X-3863180Y5253990D01*
X-3789680Y5180490D01*
X-3789680Y2799240D02*
X-3716180Y2872740D01*
X-3789680Y2946240D01*
X-3863180Y2872740D01*
X-3789680Y2799240D01*
X-3313430Y894240D02*
X-3239930Y967740D01*
X-3313430Y1041240D01*
X-3386930Y967740D01*
X-3313430Y894240D01*
X-3313430Y-4820760D02*
X-3239930Y-4747260D01*
X-3313430Y-4673760D01*
X-3386930Y-4747260D01*
X-3313430Y-4820760D01*
X-3154680Y5434490D02*
X-3081180Y5507990D01*
X-3154680Y5581490D01*
X-3228180Y5507990D01*
X-3154680Y5434490D01*
X-3154680Y3053240D02*
X-3081180Y3126740D01*
X-3154680Y3200240D01*
X-3228180Y3126740D01*
X-3154680Y3053240D01*
X-3075305Y-1010760D02*
X-3001805Y-937260D01*
X-3075305Y-863760D01*
X-3148805Y-937260D01*
X-3075305Y-1010760D01*
X-2678430Y1148240D02*
X-2604930Y1221740D01*
X-2678430Y1295240D01*
X-2751930Y1221740D01*
X-2678430Y1148240D01*
X-2678430Y-4566760D02*
X-2604930Y-4493260D01*
X-2678430Y-4419760D01*
X-2751930Y-4493260D01*
X-2678430Y-4566760D01*
X-2599055Y-1010760D02*
X-2525555Y-937260D01*
X-2599055Y-863760D01*
X-2672555Y-937260D01*
X-2599055Y-1010760D01*
X-2599055Y-2915760D02*
X-2525555Y-2842260D01*
X-2599055Y-2768760D01*
X-2672555Y-2842260D01*
X-2599055Y-2915760D01*
X-2440305Y-756760D02*
X-2366805Y-683260D01*
X-2440305Y-609760D01*
X-2513805Y-683260D01*
X-2440305Y-756760D01*
X-1964055Y-756760D02*
X-1890555Y-683260D01*
X-1964055Y-609760D01*
X-2037555Y-683260D01*
X-1964055Y-756760D01*
X-1964055Y-2661760D02*
X-1890555Y-2588260D01*
X-1964055Y-2514760D01*
X-2037555Y-2588260D01*
X-1964055Y-2661760D01*
X-1884680Y2799240D02*
X-1811180Y2872740D01*
X-1884680Y2946240D01*
X-1958180Y2872740D01*
X-1884680Y2799240D01*
X-1408430Y5180490D02*
X-1334930Y5253990D01*
X-1408430Y5327490D01*
X-1481930Y5253990D01*
X-1408430Y5180490D01*
X-1249680Y3053240D02*
X-1176180Y3126740D01*
X-1249680Y3200240D01*
X-1323180Y3126740D01*
X-1249680Y3053240D01*
X-932180Y894240D02*
X-858680Y967740D01*
X-932180Y1041240D01*
X-1005680Y967740D01*
X-932180Y894240D01*
X-932180Y-4820760D02*
X-858680Y-4747260D01*
X-932180Y-4673760D01*
X-1005680Y-4747260D01*
X-932180Y-4820760D01*
X-773430Y5434490D02*
X-699930Y5507990D01*
X-773430Y5581490D01*
X-846930Y5507990D01*
X-773430Y5434490D01*
X-455930Y-1010760D02*
X-382430Y-937260D01*
X-455930Y-863760D01*
X-529430Y-937260D01*
X-455930Y-1010760D01*
X-297180Y1148240D02*
X-223680Y1221740D01*
X-297180Y1295240D01*
X-370680Y1221740D01*
X-297180Y1148240D01*
X-297180Y-4566760D02*
X-223680Y-4493260D01*
X-297180Y-4419760D01*
X-370680Y-4493260D01*
X-297180Y-4566760D01*
X20320Y2799240D02*
X93820Y2872740D01*
X20320Y2946240D01*
X-53180Y2872740D01*
X20320Y2799240D01*
X179070Y-756760D02*
X252570Y-683260D01*
X179070Y-609760D01*
X105570Y-683260D01*
X179070Y-756760D01*
X496570Y5180490D02*
X570070Y5253990D01*
X496570Y5327490D01*
X423070Y5253990D01*
X496570Y5180490D01*
X496570Y-2915760D02*
X570070Y-2842260D01*
X496570Y-2768760D01*
X423070Y-2842260D01*
X496570Y-2915760D01*
X655320Y3053240D02*
X728820Y3126740D01*
X655320Y3200240D01*
X581820Y3126740D01*
X655320Y3053240D01*
X972820Y894240D02*
X1046320Y967740D01*
X972820Y1041240D01*
X899320Y967740D01*
X972820Y894240D01*
X1131570Y5434490D02*
X1205070Y5507990D01*
X1131570Y5581490D01*
X1058070Y5507990D01*
X1131570Y5434490D01*
X1131570Y-2661760D02*
X1205070Y-2588260D01*
X1131570Y-2514760D01*
X1058070Y-2588260D01*
X1131570Y-2661760D01*
X1449070Y-1010760D02*
X1522570Y-937260D01*
X1449070Y-863760D01*
X1375570Y-937260D01*
X1449070Y-1010760D01*
X1449070Y-4820760D02*
X1522570Y-4747260D01*
X1449070Y-4673760D01*
X1375570Y-4747260D01*
X1449070Y-4820760D01*
X1607820Y1148240D02*
X1681320Y1221740D01*
X1607820Y1295240D01*
X1534320Y1221740D01*
X1607820Y1148240D01*
X1925320Y2799240D02*
X1998820Y2872740D01*
X1925320Y2946240D01*
X1851820Y2872740D01*
X1925320Y2799240D01*
X2084070Y-756760D02*
X2157570Y-683260D01*
X2084070Y-609760D01*
X2010570Y-683260D01*
X2084070Y-756760D01*
X2084070Y-4566760D02*
X2157570Y-4493260D01*
X2084070Y-4419760D01*
X2010570Y-4493260D01*
X2084070Y-4566760D01*
X2401570Y5180490D02*
X2475070Y5253990D01*
X2401570Y5327490D01*
X2328070Y5253990D01*
X2401570Y5180490D01*
X2401570Y-2915760D02*
X2475070Y-2842260D01*
X2401570Y-2768760D01*
X2328070Y-2842260D01*
X2401570Y-2915760D01*
X2560320Y3053240D02*
X2633820Y3126740D01*
X2560320Y3200240D01*
X2486820Y3126740D01*
X2560320Y3053240D01*
X2877820Y894240D02*
X2951320Y967740D01*
X2877820Y1041240D01*
X2804320Y967740D01*
X2877820Y894240D01*
X3036570Y5434490D02*
X3110070Y5507990D01*
X3036570Y5581490D01*
X2963070Y5507990D01*
X3036570Y5434490D01*
X3036570Y-2661760D02*
X3110070Y-2588260D01*
X3036570Y-2514760D01*
X2963070Y-2588260D01*
X3036570Y-2661760D01*
X3354070Y-1010760D02*
X3427570Y-937260D01*
X3354070Y-863760D01*
X3280570Y-937260D01*
X3354070Y-1010760D01*
X3512820Y1148240D02*
X3586320Y1221740D01*
X3512820Y1295240D01*
X3439320Y1221740D01*
X3512820Y1148240D01*
X3830320Y2799240D02*
X3903820Y2872740D01*
X3830320Y2946240D01*
X3756820Y2872740D01*
X3830320Y2799240D01*
X3989070Y-756760D02*
X4062570Y-683260D01*
X3989070Y-609760D01*
X3915570Y-683260D01*
X3989070Y-756760D01*
X4306570Y5180490D02*
X4380070Y5253990D01*
X4306570Y5327490D01*
X4233070Y5253990D01*
X4306570Y5180490D01*
X4306570Y-2915760D02*
X4380070Y-2842260D01*
X4306570Y-2768760D01*
X4233070Y-2842260D01*
X4306570Y-2915760D01*
X4465320Y3053240D02*
X4538820Y3126740D01*
X4465320Y3200240D01*
X4391820Y3126740D01*
X4465320Y3053240D01*
X4782820Y894240D02*
X4856320Y967740D01*
X4782820Y1041240D01*
X4709320Y967740D01*
X4782820Y894240D01*
X4941570Y5434490D02*
X5015070Y5507990D01*
X4941570Y5581490D01*
X4868070Y5507990D01*
X4941570Y5434490D01*
X4941570Y-2661760D02*
X5015070Y-2588260D01*
X4941570Y-2514760D01*
X4868070Y-2588260D01*
X4941570Y-2661760D01*
X5259070Y-1010760D02*
X5332570Y-937260D01*
X5259070Y-863760D01*
X5185570Y-937260D01*
X5259070Y-1010760D01*
X5417820Y1148240D02*
X5491320Y1221740D01*
X5417820Y1295240D01*
X5344320Y1221740D01*
X5417820Y1148240D01*
X5735320Y2799240D02*
X5808820Y2872740D01*
X5735320Y2946240D01*
X5661820Y2872740D01*
X5735320Y2799240D01*
X5735320Y-4820760D02*
X5808820Y-4747260D01*
X5735320Y-4673760D01*
X5661820Y-4747260D01*
X5735320Y-4820760D01*
X5894070Y-756760D02*
X5967570Y-683260D01*
X5894070Y-609760D01*
X5820570Y-683260D01*
X5894070Y-756760D01*
X6211570Y-2915760D02*
X6285070Y-2842260D01*
X6211570Y-2768760D01*
X6138070Y-2842260D01*
X6211570Y-2915760D01*
X6370320Y3053240D02*
X6443820Y3126740D01*
X6370320Y3200240D01*
X6296820Y3126740D01*
X6370320Y3053240D01*
X6370320Y-4566760D02*
X6443820Y-4493260D01*
X6370320Y-4419760D01*
X6296820Y-4493260D01*
X6370320Y-4566760D01*
X6687820Y5180490D02*
X6761320Y5253990D01*
X6687820Y5327490D01*
X6614320Y5253990D01*
X6687820Y5180490D01*
X6687820Y894240D02*
X6761320Y967740D01*
X6687820Y1041240D01*
X6614320Y967740D01*
X6687820Y894240D01*
X6846570Y-2661760D02*
X6920070Y-2588260D01*
X6846570Y-2514760D01*
X6773070Y-2588260D01*
X6846570Y-2661760D01*
X7164070Y-1010760D02*
X7237570Y-937260D01*
X7164070Y-863760D01*
X7090570Y-937260D01*
X7164070Y-1010760D01*
X7322820Y5434490D02*
X7396320Y5507990D01*
X7322820Y5581490D01*
X7249320Y5507990D01*
X7322820Y5434490D01*
X7322820Y1148240D02*
X7396320Y1221740D01*
X7322820Y1295240D01*
X7249320Y1221740D01*
X7322820Y1148240D01*
X7640320Y2799240D02*
X7713820Y2872740D01*
X7640320Y2946240D01*
X7566820Y2872740D01*
X7640320Y2799240D01*
X7799070Y-756760D02*
X7872570Y-683260D01*
X7799070Y-609760D01*
X7725570Y-683260D01*
X7799070Y-756760D01*
X8116570Y-2915760D02*
X8190070Y-2842260D01*
X8116570Y-2768760D01*
X8043070Y-2842260D01*
X8116570Y-2915760D01*
X8275320Y3053240D02*
X8348820Y3126740D01*
X8275320Y3200240D01*
X8201820Y3126740D01*
X8275320Y3053240D01*
X8592820Y5180490D02*
X8666320Y5253990D01*
X8592820Y5327490D01*
X8519320Y5253990D01*
X8592820Y5180490D01*
X8751570Y-2661760D02*
X8825070Y-2588260D01*
X8751570Y-2514760D01*
X8678070Y-2588260D01*
X8751570Y-2661760D01*
X9227820Y5434490D02*
X9301320Y5507990D01*
X9227820Y5581490D01*
X9154320Y5507990D01*
X9227820Y5434490D01*
X10502900Y891700D02*
X10576400Y965200D01*
X10502900Y1038700D01*
X10429400Y965200D01*
X10502900Y891700D01*
X10979150Y-1013300D02*
X11052650Y-939800D01*
X10979150Y-866300D01*
X10905650Y-939800D01*
X10979150Y-1013300D01*
X11137900Y1145700D02*
X11211400Y1219200D01*
X11137900Y1292700D01*
X11064400Y1219200D01*
X11137900Y1145700D01*
X11455400Y2796700D02*
X11528900Y2870200D01*
X11455400Y2943700D01*
X11381900Y2870200D01*
X11455400Y2796700D01*
X11614150Y-759300D02*
X11687650Y-685800D01*
X11614150Y-612300D01*
X11540650Y-685800D01*
X11614150Y-759300D01*
X11931650Y-2918300D02*
X12005150Y-2844800D01*
X11931650Y-2771300D01*
X11858150Y-2844800D01*
X11931650Y-2918300D01*
X12090400Y3050700D02*
X12163900Y3124200D01*
X12090400Y3197700D01*
X12016900Y3124200D01*
X12090400Y3050700D01*
X12407900Y5184300D02*
X12481400Y5257800D01*
X12407900Y5331300D01*
X12334400Y5257800D01*
X12407900Y5184300D01*
X12407900Y891700D02*
X12481400Y965200D01*
X12407900Y1038700D01*
X12334400Y965200D01*
X12407900Y891700D01*
X12566650Y-2664300D02*
X12640150Y-2590800D01*
X12566650Y-2517300D01*
X12493150Y-2590800D01*
X12566650Y-2664300D01*
X12884150Y-1013300D02*
X12957650Y-939800D01*
X12884150Y-866300D01*
X12810650Y-939800D01*
X12884150Y-1013300D01*
X13042900Y5438300D02*
X13116400Y5511800D01*
X13042900Y5585300D01*
X12969400Y5511800D01*
X13042900Y5438300D01*
X13042900Y1145700D02*
X13116400Y1219200D01*
X13042900Y1292700D01*
X12969400Y1219200D01*
X13042900Y1145700D01*
X13360400Y2796700D02*
X13433900Y2870200D01*
X13360400Y2943700D01*
X13286900Y2870200D01*
X13360400Y2796700D01*
X13360400Y-4823300D02*
X13433900Y-4749800D01*
X13360400Y-4676300D01*
X13286900Y-4749800D01*
X13360400Y-4823300D01*
X13519150Y-759300D02*
X13592650Y-685800D01*
X13519150Y-612300D01*
X13445650Y-685800D01*
X13519150Y-759300D01*
X13836650Y-2918300D02*
X13910150Y-2844800D01*
X13836650Y-2771300D01*
X13763150Y-2844800D01*
X13836650Y-2918300D01*
X13995400Y3050700D02*
X14068900Y3124200D01*
X13995400Y3197700D01*
X13921900Y3124200D01*
X13995400Y3050700D01*
X13995400Y-4569300D02*
X14068900Y-4495800D01*
X13995400Y-4422300D01*
X13921900Y-4495800D01*
X13995400Y-4569300D01*
X14312900Y5184300D02*
X14386400Y5257800D01*
X14312900Y5331300D01*
X14239400Y5257800D01*
X14312900Y5184300D01*
X14312900Y891700D02*
X14386400Y965200D01*
X14312900Y1038700D01*
X14239400Y965200D01*
X14312900Y891700D01*
X14471650Y-2664300D02*
X14545150Y-2590800D01*
X14471650Y-2517300D01*
X14398150Y-2590800D01*
X14471650Y-2664300D01*
X14789150Y-1013300D02*
X14862650Y-939800D01*
X14789150Y-866300D01*
X14715650Y-939800D01*
X14789150Y-1013300D01*
X14947900Y5438300D02*
X15021400Y5511800D01*
X14947900Y5585300D01*
X14874400Y5511800D01*
X14947900Y5438300D01*
X14947900Y1145700D02*
X15021400Y1219200D01*
X14947900Y1292700D01*
X14874400Y1219200D01*
X14947900Y1145700D01*
X15265400Y2796700D02*
X15338900Y2870200D01*
X15265400Y2943700D01*
X15191900Y2870200D01*
X15265400Y2796700D01*
X15424150Y-759300D02*
X15497650Y-685800D01*
X15424150Y-612300D01*
X15350650Y-685800D01*
X15424150Y-759300D01*
X15741650Y-2918300D02*
X15815150Y-2844800D01*
X15741650Y-2771300D01*
X15668150Y-2844800D01*
X15741650Y-2918300D01*
X15900400Y3050700D02*
X15973900Y3124200D01*
X15900400Y3197700D01*
X15826900Y3124200D01*
X15900400Y3050700D01*
X16217900Y891700D02*
X16291400Y965200D01*
X16217900Y1038700D01*
X16144400Y965200D01*
X16217900Y891700D01*
X16376650Y-2664300D02*
X16450150Y-2590800D01*
X16376650Y-2517300D01*
X16303150Y-2590800D01*
X16376650Y-2664300D01*
X16694150Y5184300D02*
X16767650Y5257800D01*
X16694150Y5331300D01*
X16620650Y5257800D01*
X16694150Y5184300D01*
X16694150Y-1013300D02*
X16767650Y-939800D01*
X16694150Y-866300D01*
X16620650Y-939800D01*
X16694150Y-1013300D01*
X16852900Y1145700D02*
X16926400Y1219200D01*
X16852900Y1292700D01*
X16779400Y1219200D01*
X16852900Y1145700D01*
X17170400Y2796700D02*
X17243900Y2870200D01*
X17170400Y2943700D01*
X17096900Y2870200D01*
X17170400Y2796700D01*
X17170400Y-4823300D02*
X17243900Y-4749800D01*
X17170400Y-4676300D01*
X17096900Y-4749800D01*
X17170400Y-4823300D01*
X17329150Y5438300D02*
X17402650Y5511800D01*
X17329150Y5585300D01*
X17255650Y5511800D01*
X17329150Y5438300D01*
X17329150Y-759300D02*
X17402650Y-685800D01*
X17329150Y-612300D01*
X17255650Y-685800D01*
X17329150Y-759300D01*
X17646650Y-2918300D02*
X17720150Y-2844800D01*
X17646650Y-2771300D01*
X17573150Y-2844800D01*
X17646650Y-2918300D01*
X17805400Y3050700D02*
X17878900Y3124200D01*
X17805400Y3197700D01*
X17731900Y3124200D01*
X17805400Y3050700D01*
X17805400Y-4569300D02*
X17878900Y-4495800D01*
X17805400Y-4422300D01*
X17731900Y-4495800D01*
X17805400Y-4569300D01*
X18122900Y891700D02*
X18196400Y965200D01*
X18122900Y1038700D01*
X18049400Y965200D01*
X18122900Y891700D01*
X18281650Y-2664300D02*
X18355150Y-2590800D01*
X18281650Y-2517300D01*
X18208150Y-2590800D01*
X18281650Y-2664300D01*
X18599150Y5184300D02*
X18672650Y5257800D01*
X18599150Y5331300D01*
X18525650Y5257800D01*
X18599150Y5184300D01*
X18599150Y-1013300D02*
X18672650Y-939800D01*
X18599150Y-866300D01*
X18525650Y-939800D01*
X18599150Y-1013300D01*
X18757900Y1145700D02*
X18831400Y1219200D01*
X18757900Y1292700D01*
X18684400Y1219200D01*
X18757900Y1145700D01*
X19075400Y2796700D02*
X19148900Y2870200D01*
X19075400Y2943700D01*
X19001900Y2870200D01*
X19075400Y2796700D01*
X19075400Y-4823300D02*
X19148900Y-4749800D01*
X19075400Y-4676300D01*
X19001900Y-4749800D01*
X19075400Y-4823300D01*
X19234150Y5438300D02*
X19307650Y5511800D01*
X19234150Y5585300D01*
X19160650Y5511800D01*
X19234150Y5438300D01*
X19234150Y-759300D02*
X19307650Y-685800D01*
X19234150Y-612300D01*
X19160650Y-685800D01*
X19234150Y-759300D01*
X19551650Y-2918300D02*
X19625150Y-2844800D01*
X19551650Y-2771300D01*
X19478150Y-2844800D01*
X19551650Y-2918300D01*
X19710400Y3050700D02*
X19783900Y3124200D01*
X19710400Y3197700D01*
X19636900Y3124200D01*
X19710400Y3050700D01*
X19710400Y-4569300D02*
X19783900Y-4495800D01*
X19710400Y-4422300D01*
X19636900Y-4495800D01*
X19710400Y-4569300D01*
X20027900Y891700D02*
X20101400Y965200D01*
X20027900Y1038700D01*
X19954400Y965200D01*
X20027900Y891700D01*
X20186650Y-2664300D02*
X20260150Y-2590800D01*
X20186650Y-2517300D01*
X20113150Y-2590800D01*
X20186650Y-2664300D01*
X20504150Y5184300D02*
X20577650Y5257800D01*
X20504150Y5331300D01*
X20430650Y5257800D01*
X20504150Y5184300D01*
X20504150Y-1013300D02*
X20577650Y-939800D01*
X20504150Y-866300D01*
X20430650Y-939800D01*
X20504150Y-1013300D01*
X20662900Y1145700D02*
X20736400Y1219200D01*
X20662900Y1292700D01*
X20589400Y1219200D01*
X20662900Y1145700D01*
X20980400Y2796700D02*
X21053900Y2870200D01*
X20980400Y2943700D01*
X20906900Y2870200D01*
X20980400Y2796700D01*
X20980400Y-4823300D02*
X21053900Y-4749800D01*
X20980400Y-4676300D01*
X20906900Y-4749800D01*
X20980400Y-4823300D01*
X21139150Y5438300D02*
X21212650Y5511800D01*
X21139150Y5585300D01*
X21065650Y5511800D01*
X21139150Y5438300D01*
X21139150Y-759300D02*
X21212650Y-685800D01*
X21139150Y-612300D01*
X21065650Y-685800D01*
X21139150Y-759300D01*
X21615400Y3050700D02*
X21688900Y3124200D01*
X21615400Y3197700D01*
X21541900Y3124200D01*
X21615400Y3050700D01*
X21615400Y-4569300D02*
X21688900Y-4495800D01*
X21615400Y-4422300D01*
X21541900Y-4495800D01*
X21615400Y-4569300D01*
X21932900Y891700D02*
X22006400Y965200D01*
X21932900Y1038700D01*
X21859400Y965200D01*
X21932900Y891700D01*
X22171025Y-2918300D02*
X22244525Y-2844800D01*
X22171025Y-2771300D01*
X22097525Y-2844800D01*
X22171025Y-2918300D01*
X22409150Y5184300D02*
X22482650Y5257800D01*
X22409150Y5331300D01*
X22335650Y5257800D01*
X22409150Y5184300D01*
X22567900Y1145700D02*
X22641400Y1219200D01*
X22567900Y1292700D01*
X22494400Y1219200D01*
X22567900Y1145700D01*
X22806025Y-2664300D02*
X22879525Y-2590800D01*
X22806025Y-2517300D01*
X22732525Y-2590800D01*
X22806025Y-2664300D01*
X22885400Y2796700D02*
X22958900Y2870200D01*
X22885400Y2943700D01*
X22811900Y2870200D01*
X22885400Y2796700D01*
X23044150Y5438300D02*
X23117650Y5511800D01*
X23044150Y5585300D01*
X22970650Y5511800D01*
X23044150Y5438300D01*
X23355300Y-5298280D02*
X23428800Y-5224780D01*
X23355300Y-5151280D01*
X23281800Y-5224780D01*
X23355300Y-5298280D01*
X23520400Y3050700D02*
X23593900Y3124200D01*
X23520400Y3197700D01*
X23446900Y3124200D01*
X23520400Y3050700D01*
X23599775Y-1013300D02*
X23673275Y-939800D01*
X23599775Y-866300D01*
X23526275Y-939800D01*
X23599775Y-1013300D01*
X23837900Y2796700D02*
X23911400Y2870200D01*
X23837900Y2943700D01*
X23764400Y2870200D01*
X23837900Y2796700D01*
X23990300Y-5044280D02*
X24063800Y-4970780D01*
X23990300Y-4897280D01*
X23916800Y-4970780D01*
X23990300Y-5044280D01*
X24234775Y-759300D02*
X24308275Y-685800D01*
X24234775Y-612300D01*
X24161275Y-685800D01*
X24234775Y-759300D01*
X24314150Y891700D02*
X24387650Y965200D01*
X24314150Y1038700D01*
X24240650Y965200D01*
X24314150Y891700D01*
X24472900Y3050700D02*
X24546400Y3124200D01*
X24472900Y3197700D01*
X24399400Y3124200D01*
X24472900Y3050700D01*
X24790400Y5184300D02*
X24863900Y5257800D01*
X24790400Y5331300D01*
X24716900Y5257800D01*
X24790400Y5184300D01*
X24790400Y2796700D02*
X24863900Y2870200D01*
X24790400Y2943700D01*
X24716900Y2870200D01*
X24790400Y2796700D01*
X24949150Y1145700D02*
X25022650Y1219200D01*
X24949150Y1292700D01*
X24875650Y1219200D01*
X24949150Y1145700D01*
X25260300Y-3393280D02*
X25333800Y-3319780D01*
X25260300Y-3246280D01*
X25186800Y-3319780D01*
X25260300Y-3393280D01*
X25260300Y-5298280D02*
X25333800Y-5224780D01*
X25260300Y-5151280D01*
X25186800Y-5224780D01*
X25260300Y-5298280D01*
X25425400Y5438300D02*
X25498900Y5511800D01*
X25425400Y5585300D01*
X25351900Y5511800D01*
X25425400Y5438300D01*
X25425400Y3050700D02*
X25498900Y3124200D01*
X25425400Y3197700D01*
X25351900Y3124200D01*
X25425400Y3050700D01*
X25895300Y-3139280D02*
X25968800Y-3065780D01*
X25895300Y-2992280D01*
X25821800Y-3065780D01*
X25895300Y-3139280D01*
X25895300Y-5044280D02*
X25968800Y-4970780D01*
X25895300Y-4897280D01*
X25821800Y-4970780D01*
X25895300Y-5044280D01*
X27165300Y-5298280D02*
X27238800Y-5224780D01*
X27165300Y-5151280D01*
X27091800Y-5224780D01*
X27165300Y-5298280D01*
X27647900Y5184300D02*
X27721400Y5257800D01*
X27647900Y5331300D01*
X27574400Y5257800D01*
X27647900Y5184300D01*
X27647900Y2796700D02*
X27721400Y2870200D01*
X27647900Y2943700D01*
X27574400Y2870200D01*
X27647900Y2796700D01*
X27647900Y891700D02*
X27721400Y965200D01*
X27647900Y1038700D01*
X27574400Y965200D01*
X27647900Y891700D01*
X27647900Y-1013300D02*
X27721400Y-939800D01*
X27647900Y-866300D01*
X27574400Y-939800D01*
X27647900Y-1013300D01*
X27647900Y-2918300D02*
X27721400Y-2844800D01*
X27647900Y-2771300D01*
X27574400Y-2844800D01*
X27647900Y-2918300D01*
X27800300Y-5044280D02*
X27873800Y-4970780D01*
X27800300Y-4897280D01*
X27726800Y-4970780D01*
X27800300Y-5044280D01*
X28282900Y5438300D02*
X28356400Y5511800D01*
X28282900Y5585300D01*
X28209400Y5511800D01*
X28282900Y5438300D01*
X28282900Y3050700D02*
X28356400Y3124200D01*
X28282900Y3197700D01*
X28209400Y3124200D01*
X28282900Y3050700D01*
X28282900Y1145700D02*
X28356400Y1219200D01*
X28282900Y1292700D01*
X28209400Y1219200D01*
X28282900Y1145700D01*
X28282900Y-759300D02*
X28356400Y-685800D01*
X28282900Y-612300D01*
X28209400Y-685800D01*
X28282900Y-759300D01*
X28282900Y-2664300D02*
X28356400Y-2590800D01*
X28282900Y-2517300D01*
X28209400Y-2590800D01*
X28282900Y-2664300D01*
D17*
X-7299160Y4968240D02*
X-7149160Y4818240D01*
X-7149160Y4968240D02*
X-7299160Y4818240D01*
X-7149160Y4893240D02*
G75*
G03*
X-7149160Y4893240I-75000J0D01*
G01*
D11*
X-7289160Y4828240D02*
X-7159160Y4828240D01*
X-7289160Y4958240D02*
X-7159160Y4958240D01*
X-7159160Y4828240D02*
G75*
G03*
X-7159160Y4958240I0J65000D01*
G01*
X-7289160Y4958240D02*
G75*
G03*
X-7289160Y4828240I0J-65000D01*
G01*
D17*
X-7299160Y3848240D02*
X-7149160Y3698240D01*
X-7149160Y3848240D02*
X-7299160Y3698240D01*
X-7149160Y3773240D02*
G75*
G03*
X-7149160Y3773240I-75000J0D01*
G01*
D11*
X-7289160Y3708240D02*
X-7159160Y3708240D01*
X-7289160Y3838240D02*
X-7159160Y3838240D01*
X-7159160Y3708240D02*
G75*
G03*
X-7159160Y3838240I0J65000D01*
G01*
X-7289160Y3838240D02*
G75*
G03*
X-7289160Y3708240I0J-65000D01*
G01*
D17*
X-4659700Y3935800D02*
X-4509700Y3785800D01*
X-4509700Y3935800D02*
X-4659700Y3785800D01*
X-4509700Y3860800D02*
G75*
G03*
X-4509700Y3860800I-75000J0D01*
G01*
X-4151700Y3935800D02*
X-4001700Y3785800D01*
X-4001700Y3935800D02*
X-4151700Y3785800D01*
X-4001700Y3860800D02*
G75*
G03*
X-4001700Y3860800I-75000J0D01*
G01*
X5472400Y9981000D02*
X5622400Y9831000D01*
X5622400Y9981000D02*
X5472400Y9831000D01*
X5622400Y9906000D02*
G75*
G03*
X5622400Y9906000I-75000J0D01*
G01*
X5980400Y9981000D02*
X6130400Y9831000D01*
X6130400Y9981000D02*
X5980400Y9831000D01*
X6130400Y9906000D02*
G75*
G03*
X6130400Y9906000I-75000J0D01*
G01*
D11*
X-9682381Y-8472162D02*
X-9682381Y-8272162D01*
X-9634762Y-8272162D01*
X-9606191Y-8281686D01*
X-9587143Y-8300733D01*
X-9577619Y-8319781D01*
X-9568095Y-8357876D01*
X-9568095Y-8386448D01*
X-9577619Y-8424543D01*
X-9587143Y-8443590D01*
X-9606191Y-8462638D01*
X-9634762Y-8472162D01*
X-9682381Y-8472162D01*
X-9482381Y-8472162D02*
X-9482381Y-8338828D01*
X-9482381Y-8376924D02*
X-9472857Y-8357876D01*
X-9463333Y-8348352D01*
X-9444286Y-8338828D01*
X-9425238Y-8338828D01*
X-9358572Y-8472162D02*
X-9358572Y-8338828D01*
X-9358572Y-8272162D02*
X-9368095Y-8281686D01*
X-9358572Y-8291209D01*
X-9349048Y-8281686D01*
X-9358572Y-8272162D01*
X-9358572Y-8291209D01*
X-9234762Y-8472162D02*
X-9253810Y-8462638D01*
X-9263333Y-8443590D01*
X-9263333Y-8272162D01*
X-9130000Y-8472162D02*
X-9149048Y-8462638D01*
X-9158572Y-8443590D01*
X-9158572Y-8272162D01*
X-8901429Y-8472162D02*
X-8901429Y-8272162D01*
X-8834762Y-8415019D01*
X-8768095Y-8272162D01*
X-8768095Y-8472162D01*
X-8587143Y-8472162D02*
X-8587143Y-8367400D01*
X-8596667Y-8348352D01*
X-8615714Y-8338828D01*
X-8653810Y-8338828D01*
X-8672857Y-8348352D01*
X-8587143Y-8462638D02*
X-8606191Y-8472162D01*
X-8653810Y-8472162D01*
X-8672857Y-8462638D01*
X-8682381Y-8443590D01*
X-8682381Y-8424543D01*
X-8672857Y-8405495D01*
X-8653810Y-8395971D01*
X-8606191Y-8395971D01*
X-8587143Y-8386448D01*
X-8491905Y-8338828D02*
X-8491905Y-8538829D01*
X-8491905Y-8348352D02*
X-8472857Y-8338828D01*
X-8434762Y-8338828D01*
X-8415714Y-8348352D01*
X-8406191Y-8357876D01*
X-8396667Y-8376924D01*
X-8396667Y-8434067D01*
X-8406191Y-8453114D01*
X-8415714Y-8462638D01*
X-8434762Y-8472162D01*
X-8472857Y-8472162D01*
X-8491905Y-8462638D01*
X-8310952Y-8453114D02*
X-8301429Y-8462638D01*
X-8310952Y-8472162D01*
X-8320476Y-8462638D01*
X-8310952Y-8453114D01*
X-8310952Y-8472162D01*
X-8310952Y-8348352D02*
X-8301429Y-8357876D01*
X-8310952Y-8367400D01*
X-8320476Y-8357876D01*
X-8310952Y-8348352D01*
X-8310952Y-8367400D01*
D12*
X-9980000Y-8781686D02*
X-9940000Y-8821686D01*
X-9940000Y-8781686D02*
X-9980000Y-8821686D01*
D11*
X-9644286Y-8692162D02*
X-9625238Y-8692162D01*
X-9606191Y-8701686D01*
X-9596667Y-8711210D01*
X-9587143Y-8730257D01*
X-9577619Y-8768352D01*
X-9577619Y-8815971D01*
X-9587143Y-8854067D01*
X-9596667Y-8873114D01*
X-9606191Y-8882638D01*
X-9625238Y-8892162D01*
X-9644286Y-8892162D01*
X-9663333Y-8882638D01*
X-9672857Y-8873114D01*
X-9682381Y-8854067D01*
X-9691905Y-8815971D01*
X-9691905Y-8768352D01*
X-9682381Y-8730257D01*
X-9672857Y-8711210D01*
X-9663333Y-8701686D01*
X-9644286Y-8692162D01*
X-9491905Y-8873114D02*
X-9482381Y-8882638D01*
X-9491905Y-8892162D01*
X-9501429Y-8882638D01*
X-9491905Y-8873114D01*
X-9491905Y-8892162D01*
X-9310952Y-8758829D02*
X-9310952Y-8892162D01*
X-9358572Y-8682638D02*
X-9406191Y-8825495D01*
X-9282381Y-8825495D01*
X-9168095Y-8692162D02*
X-9149048Y-8692162D01*
X-9130000Y-8701686D01*
X-9120476Y-8711210D01*
X-9110952Y-8730257D01*
X-9101429Y-8768352D01*
X-9101429Y-8815971D01*
X-9110952Y-8854067D01*
X-9120476Y-8873114D01*
X-9130000Y-8882638D01*
X-9149048Y-8892162D01*
X-9168095Y-8892162D01*
X-9187143Y-8882638D01*
X-9196667Y-8873114D01*
X-9206191Y-8854067D01*
X-9215714Y-8815971D01*
X-9215714Y-8768352D01*
X-9206191Y-8730257D01*
X-9196667Y-8711210D01*
X-9187143Y-8701686D01*
X-9168095Y-8692162D01*
X-8977619Y-8692162D02*
X-8958572Y-8692162D01*
X-8939524Y-8701686D01*
X-8930000Y-8711210D01*
X-8920476Y-8730257D01*
X-8910952Y-8768352D01*
X-8910952Y-8815971D01*
X-8920476Y-8854067D01*
X-8930000Y-8873114D01*
X-8939524Y-8882638D01*
X-8958572Y-8892162D01*
X-8977619Y-8892162D01*
X-8996667Y-8882638D01*
X-9006191Y-8873114D01*
X-9015714Y-8854067D01*
X-9025238Y-8815971D01*
X-9025238Y-8768352D01*
X-9015714Y-8730257D01*
X-9006191Y-8711210D01*
X-8996667Y-8701686D01*
X-8977619Y-8692162D01*
X-8825238Y-8892162D02*
X-8825238Y-8758829D01*
X-8825238Y-8777876D02*
X-8815714Y-8768352D01*
X-8796667Y-8758829D01*
X-8768095Y-8758829D01*
X-8749048Y-8768352D01*
X-8739524Y-8787400D01*
X-8739524Y-8892162D01*
X-8739524Y-8787400D02*
X-8730000Y-8768352D01*
X-8710952Y-8758829D01*
X-8682381Y-8758829D01*
X-8663333Y-8768352D01*
X-8653810Y-8787400D01*
X-8653810Y-8892162D01*
X-8558572Y-8892162D02*
X-8558572Y-8758829D01*
X-8558572Y-8777876D02*
X-8549048Y-8768352D01*
X-8530000Y-8758829D01*
X-8501429Y-8758829D01*
X-8482381Y-8768352D01*
X-8472857Y-8787400D01*
X-8472857Y-8892162D01*
X-8472857Y-8787400D02*
X-8463333Y-8768352D01*
X-8444286Y-8758829D01*
X-8415714Y-8758829D01*
X-8396667Y-8768352D01*
X-8387143Y-8787400D01*
X-8387143Y-8892162D01*
X-7996667Y-8682638D02*
X-8168095Y-8939781D01*
X-7739524Y-8692162D02*
X-7720476Y-8692162D01*
X-7701429Y-8701686D01*
X-7691905Y-8711210D01*
X-7682381Y-8730257D01*
X-7672857Y-8768352D01*
X-7672857Y-8815971D01*
X-7682381Y-8854067D01*
X-7691905Y-8873114D01*
X-7701429Y-8882638D01*
X-7720476Y-8892162D01*
X-7739524Y-8892162D01*
X-7758571Y-8882638D01*
X-7768095Y-8873114D01*
X-7777619Y-8854067D01*
X-7787143Y-8815971D01*
X-7787143Y-8768352D01*
X-7777619Y-8730257D01*
X-7768095Y-8711210D01*
X-7758571Y-8701686D01*
X-7739524Y-8692162D01*
X-7587143Y-8873114D02*
X-7577619Y-8882638D01*
X-7587143Y-8892162D01*
X-7596667Y-8882638D01*
X-7587143Y-8873114D01*
X-7587143Y-8892162D01*
X-7453810Y-8692162D02*
X-7434762Y-8692162D01*
X-7415714Y-8701686D01*
X-7406190Y-8711210D01*
X-7396667Y-8730257D01*
X-7387143Y-8768352D01*
X-7387143Y-8815971D01*
X-7396667Y-8854067D01*
X-7406190Y-8873114D01*
X-7415714Y-8882638D01*
X-7434762Y-8892162D01*
X-7453810Y-8892162D01*
X-7472857Y-8882638D01*
X-7482381Y-8873114D01*
X-7491905Y-8854067D01*
X-7501429Y-8815971D01*
X-7501429Y-8768352D01*
X-7491905Y-8730257D01*
X-7482381Y-8711210D01*
X-7472857Y-8701686D01*
X-7453810Y-8692162D01*
X-7196667Y-8892162D02*
X-7310952Y-8892162D01*
X-7253810Y-8892162D02*
X-7253810Y-8692162D01*
X-7272857Y-8720733D01*
X-7291905Y-8739781D01*
X-7310952Y-8749305D01*
X-7015714Y-8692162D02*
X-7110952Y-8692162D01*
X-7120476Y-8787400D01*
X-7110952Y-8777876D01*
X-7091905Y-8768352D01*
X-7044286Y-8768352D01*
X-7025238Y-8777876D01*
X-7015714Y-8787400D01*
X-7006190Y-8806448D01*
X-7006190Y-8854067D01*
X-7015714Y-8873114D01*
X-7025238Y-8882638D01*
X-7044286Y-8892162D01*
X-7091905Y-8892162D01*
X-7110952Y-8882638D01*
X-7120476Y-8873114D01*
X-6939524Y-8692162D02*
X-6806190Y-8692162D01*
X-6891905Y-8892162D01*
X-6739524Y-8692162D02*
X-6739524Y-8730257D01*
X-6663333Y-8692162D02*
X-6663333Y-8730257D01*
X-6368095Y-8968352D02*
X-6377619Y-8958829D01*
X-6396667Y-8930257D01*
X-6406190Y-8911210D01*
X-6415714Y-8882638D01*
X-6425238Y-8835019D01*
X-6425238Y-8796924D01*
X-6415714Y-8749305D01*
X-6406190Y-8720733D01*
X-6396667Y-8701686D01*
X-6377619Y-8673114D01*
X-6368095Y-8663590D01*
X-6187143Y-8892162D02*
X-6301429Y-8892162D01*
X-6244286Y-8892162D02*
X-6244286Y-8692162D01*
X-6263333Y-8720733D01*
X-6282381Y-8739781D01*
X-6301429Y-8749305D01*
X-6063333Y-8692162D02*
X-6044286Y-8692162D01*
X-6025238Y-8701686D01*
X-6015714Y-8711210D01*
X-6006190Y-8730257D01*
X-5996667Y-8768352D01*
X-5996667Y-8815971D01*
X-6006190Y-8854067D01*
X-6015714Y-8873114D01*
X-6025238Y-8882638D01*
X-6044286Y-8892162D01*
X-6063333Y-8892162D01*
X-6082381Y-8882638D01*
X-6091905Y-8873114D01*
X-6101429Y-8854067D01*
X-6110952Y-8815971D01*
X-6110952Y-8768352D01*
X-6101429Y-8730257D01*
X-6091905Y-8711210D01*
X-6082381Y-8701686D01*
X-6063333Y-8692162D01*
X-5815714Y-8692162D02*
X-5910952Y-8692162D01*
X-5920476Y-8787400D01*
X-5910952Y-8777876D01*
X-5891905Y-8768352D01*
X-5844286Y-8768352D01*
X-5825238Y-8777876D01*
X-5815714Y-8787400D01*
X-5806190Y-8806448D01*
X-5806190Y-8854067D01*
X-5815714Y-8873114D01*
X-5825238Y-8882638D01*
X-5844286Y-8892162D01*
X-5891905Y-8892162D01*
X-5910952Y-8882638D01*
X-5920476Y-8873114D01*
X-5568095Y-8892162D02*
X-5568095Y-8692162D01*
X-5482381Y-8892162D02*
X-5482381Y-8787400D01*
X-5491905Y-8768352D01*
X-5510952Y-8758829D01*
X-5539524Y-8758829D01*
X-5558572Y-8768352D01*
X-5568095Y-8777876D01*
X-5358572Y-8892162D02*
X-5377619Y-8882638D01*
X-5387143Y-8873114D01*
X-5396667Y-8854067D01*
X-5396667Y-8796924D01*
X-5387143Y-8777876D01*
X-5377619Y-8768352D01*
X-5358572Y-8758829D01*
X-5330000Y-8758829D01*
X-5310952Y-8768352D01*
X-5301429Y-8777876D01*
X-5291905Y-8796924D01*
X-5291905Y-8854067D01*
X-5301429Y-8873114D01*
X-5310952Y-8882638D01*
X-5330000Y-8892162D01*
X-5358572Y-8892162D01*
X-5177619Y-8892162D02*
X-5196667Y-8882638D01*
X-5206191Y-8863590D01*
X-5206191Y-8692162D01*
X-5025238Y-8882638D02*
X-5044286Y-8892162D01*
X-5082381Y-8892162D01*
X-5101429Y-8882638D01*
X-5110952Y-8863590D01*
X-5110952Y-8787400D01*
X-5101429Y-8768352D01*
X-5082381Y-8758829D01*
X-5044286Y-8758829D01*
X-5025238Y-8768352D01*
X-5015714Y-8787400D01*
X-5015714Y-8806448D01*
X-5110952Y-8825495D01*
X-4939524Y-8882638D02*
X-4920476Y-8892162D01*
X-4882381Y-8892162D01*
X-4863333Y-8882638D01*
X-4853810Y-8863590D01*
X-4853810Y-8854067D01*
X-4863333Y-8835019D01*
X-4882381Y-8825495D01*
X-4910952Y-8825495D01*
X-4930000Y-8815971D01*
X-4939524Y-8796924D01*
X-4939524Y-8787400D01*
X-4930000Y-8768352D01*
X-4910952Y-8758829D01*
X-4882381Y-8758829D01*
X-4863333Y-8768352D01*
X-4787143Y-8968352D02*
X-4777619Y-8958829D01*
X-4758572Y-8930257D01*
X-4749048Y-8911210D01*
X-4739524Y-8882638D01*
X-4730000Y-8835019D01*
X-4730000Y-8796924D01*
X-4739524Y-8749305D01*
X-4749048Y-8720733D01*
X-4758572Y-8701686D01*
X-4777619Y-8673114D01*
X-4787143Y-8663590D01*
D13*
X-9940000Y-9065686D02*
G75*
G03*
X-9940000Y-9065686I-30000J0D01*
G01*
D11*
X-9644286Y-8956162D02*
X-9625238Y-8956162D01*
X-9606191Y-8965686D01*
X-9596667Y-8975210D01*
X-9587143Y-8994257D01*
X-9577619Y-9032352D01*
X-9577619Y-9079971D01*
X-9587143Y-9118067D01*
X-9596667Y-9137114D01*
X-9606191Y-9146638D01*
X-9625238Y-9156162D01*
X-9644286Y-9156162D01*
X-9663333Y-9146638D01*
X-9672857Y-9137114D01*
X-9682381Y-9118067D01*
X-9691905Y-9079971D01*
X-9691905Y-9032352D01*
X-9682381Y-8994257D01*
X-9672857Y-8975210D01*
X-9663333Y-8965686D01*
X-9644286Y-8956162D01*
X-9491905Y-9137114D02*
X-9482381Y-9146638D01*
X-9491905Y-9156162D01*
X-9501429Y-9146638D01*
X-9491905Y-9137114D01*
X-9491905Y-9156162D01*
X-9310952Y-8956162D02*
X-9349048Y-8956162D01*
X-9368095Y-8965686D01*
X-9377619Y-8975210D01*
X-9396667Y-9003781D01*
X-9406191Y-9041876D01*
X-9406191Y-9118067D01*
X-9396667Y-9137114D01*
X-9387143Y-9146638D01*
X-9368095Y-9156162D01*
X-9330000Y-9156162D01*
X-9310952Y-9146638D01*
X-9301429Y-9137114D01*
X-9291905Y-9118067D01*
X-9291905Y-9070448D01*
X-9301429Y-9051400D01*
X-9310952Y-9041876D01*
X-9330000Y-9032352D01*
X-9368095Y-9032352D01*
X-9387143Y-9041876D01*
X-9396667Y-9051400D01*
X-9406191Y-9070448D01*
X-9168095Y-8956162D02*
X-9149048Y-8956162D01*
X-9130000Y-8965686D01*
X-9120476Y-8975210D01*
X-9110952Y-8994257D01*
X-9101429Y-9032352D01*
X-9101429Y-9079971D01*
X-9110952Y-9118067D01*
X-9120476Y-9137114D01*
X-9130000Y-9146638D01*
X-9149048Y-9156162D01*
X-9168095Y-9156162D01*
X-9187143Y-9146638D01*
X-9196667Y-9137114D01*
X-9206191Y-9118067D01*
X-9215714Y-9079971D01*
X-9215714Y-9032352D01*
X-9206191Y-8994257D01*
X-9196667Y-8975210D01*
X-9187143Y-8965686D01*
X-9168095Y-8956162D01*
X-8977619Y-8956162D02*
X-8958572Y-8956162D01*
X-8939524Y-8965686D01*
X-8930000Y-8975210D01*
X-8920476Y-8994257D01*
X-8910952Y-9032352D01*
X-8910952Y-9079971D01*
X-8920476Y-9118067D01*
X-8930000Y-9137114D01*
X-8939524Y-9146638D01*
X-8958572Y-9156162D01*
X-8977619Y-9156162D01*
X-8996667Y-9146638D01*
X-9006191Y-9137114D01*
X-9015714Y-9118067D01*
X-9025238Y-9079971D01*
X-9025238Y-9032352D01*
X-9015714Y-8994257D01*
X-9006191Y-8975210D01*
X-8996667Y-8965686D01*
X-8977619Y-8956162D01*
X-8825238Y-9156162D02*
X-8825238Y-9022829D01*
X-8825238Y-9041876D02*
X-8815714Y-9032352D01*
X-8796667Y-9022829D01*
X-8768095Y-9022829D01*
X-8749048Y-9032352D01*
X-8739524Y-9051400D01*
X-8739524Y-9156162D01*
X-8739524Y-9051400D02*
X-8730000Y-9032352D01*
X-8710952Y-9022829D01*
X-8682381Y-9022829D01*
X-8663333Y-9032352D01*
X-8653810Y-9051400D01*
X-8653810Y-9156162D01*
X-8558572Y-9156162D02*
X-8558572Y-9022829D01*
X-8558572Y-9041876D02*
X-8549048Y-9032352D01*
X-8530000Y-9022829D01*
X-8501429Y-9022829D01*
X-8482381Y-9032352D01*
X-8472857Y-9051400D01*
X-8472857Y-9156162D01*
X-8472857Y-9051400D02*
X-8463333Y-9032352D01*
X-8444286Y-9022829D01*
X-8415714Y-9022829D01*
X-8396667Y-9032352D01*
X-8387143Y-9051400D01*
X-8387143Y-9156162D01*
X-7996667Y-8946638D02*
X-8168095Y-9203781D01*
X-7739524Y-8956162D02*
X-7720476Y-8956162D01*
X-7701429Y-8965686D01*
X-7691905Y-8975210D01*
X-7682381Y-8994257D01*
X-7672857Y-9032352D01*
X-7672857Y-9079971D01*
X-7682381Y-9118067D01*
X-7691905Y-9137114D01*
X-7701429Y-9146638D01*
X-7720476Y-9156162D01*
X-7739524Y-9156162D01*
X-7758571Y-9146638D01*
X-7768095Y-9137114D01*
X-7777619Y-9118067D01*
X-7787143Y-9079971D01*
X-7787143Y-9032352D01*
X-7777619Y-8994257D01*
X-7768095Y-8975210D01*
X-7758571Y-8965686D01*
X-7739524Y-8956162D01*
X-7587143Y-9137114D02*
X-7577619Y-9146638D01*
X-7587143Y-9156162D01*
X-7596667Y-9146638D01*
X-7587143Y-9137114D01*
X-7587143Y-9156162D01*
X-7453810Y-8956162D02*
X-7434762Y-8956162D01*
X-7415714Y-8965686D01*
X-7406190Y-8975210D01*
X-7396667Y-8994257D01*
X-7387143Y-9032352D01*
X-7387143Y-9079971D01*
X-7396667Y-9118067D01*
X-7406190Y-9137114D01*
X-7415714Y-9146638D01*
X-7434762Y-9156162D01*
X-7453810Y-9156162D01*
X-7472857Y-9146638D01*
X-7482381Y-9137114D01*
X-7491905Y-9118067D01*
X-7501429Y-9079971D01*
X-7501429Y-9032352D01*
X-7491905Y-8994257D01*
X-7482381Y-8975210D01*
X-7472857Y-8965686D01*
X-7453810Y-8956162D01*
X-7310952Y-8975210D02*
X-7301429Y-8965686D01*
X-7282381Y-8956162D01*
X-7234762Y-8956162D01*
X-7215714Y-8965686D01*
X-7206190Y-8975210D01*
X-7196667Y-8994257D01*
X-7196667Y-9013305D01*
X-7206190Y-9041876D01*
X-7320476Y-9156162D01*
X-7196667Y-9156162D01*
X-7130000Y-8956162D02*
X-7006190Y-8956162D01*
X-7072857Y-9032352D01*
X-7044286Y-9032352D01*
X-7025238Y-9041876D01*
X-7015714Y-9051400D01*
X-7006190Y-9070448D01*
X-7006190Y-9118067D01*
X-7015714Y-9137114D01*
X-7025238Y-9146638D01*
X-7044286Y-9156162D01*
X-7101429Y-9156162D01*
X-7120476Y-9146638D01*
X-7130000Y-9137114D01*
X-6834762Y-8956162D02*
X-6872857Y-8956162D01*
X-6891905Y-8965686D01*
X-6901429Y-8975210D01*
X-6920476Y-9003781D01*
X-6930000Y-9041876D01*
X-6930000Y-9118067D01*
X-6920476Y-9137114D01*
X-6910952Y-9146638D01*
X-6891905Y-9156162D01*
X-6853810Y-9156162D01*
X-6834762Y-9146638D01*
X-6825238Y-9137114D01*
X-6815714Y-9118067D01*
X-6815714Y-9070448D01*
X-6825238Y-9051400D01*
X-6834762Y-9041876D01*
X-6853810Y-9032352D01*
X-6891905Y-9032352D01*
X-6910952Y-9041876D01*
X-6920476Y-9051400D01*
X-6930000Y-9070448D01*
X-6739524Y-8956162D02*
X-6739524Y-8994257D01*
X-6663333Y-8956162D02*
X-6663333Y-8994257D01*
X-6368095Y-9232352D02*
X-6377619Y-9222829D01*
X-6396667Y-9194257D01*
X-6406190Y-9175210D01*
X-6415714Y-9146638D01*
X-6425238Y-9099019D01*
X-6425238Y-9060924D01*
X-6415714Y-9013305D01*
X-6406190Y-8984733D01*
X-6396667Y-8965686D01*
X-6377619Y-8937114D01*
X-6368095Y-8927590D01*
X-6253810Y-8956162D02*
X-6234762Y-8956162D01*
X-6215714Y-8965686D01*
X-6206190Y-8975210D01*
X-6196667Y-8994257D01*
X-6187143Y-9032352D01*
X-6187143Y-9079971D01*
X-6196667Y-9118067D01*
X-6206190Y-9137114D01*
X-6215714Y-9146638D01*
X-6234762Y-9156162D01*
X-6253810Y-9156162D01*
X-6272857Y-9146638D01*
X-6282381Y-9137114D01*
X-6291905Y-9118067D01*
X-6301429Y-9079971D01*
X-6301429Y-9032352D01*
X-6291905Y-8994257D01*
X-6282381Y-8975210D01*
X-6272857Y-8965686D01*
X-6253810Y-8956162D01*
X-5949048Y-9156162D02*
X-5949048Y-8956162D01*
X-5863333Y-9156162D02*
X-5863333Y-9051400D01*
X-5872857Y-9032352D01*
X-5891905Y-9022829D01*
X-5920476Y-9022829D01*
X-5939524Y-9032352D01*
X-5949048Y-9041876D01*
X-5739524Y-9156162D02*
X-5758571Y-9146638D01*
X-5768095Y-9137114D01*
X-5777619Y-9118067D01*
X-5777619Y-9060924D01*
X-5768095Y-9041876D01*
X-5758571Y-9032352D01*
X-5739524Y-9022829D01*
X-5710952Y-9022829D01*
X-5691905Y-9032352D01*
X-5682381Y-9041876D01*
X-5672857Y-9060924D01*
X-5672857Y-9118067D01*
X-5682381Y-9137114D01*
X-5691905Y-9146638D01*
X-5710952Y-9156162D01*
X-5739524Y-9156162D01*
X-5558572Y-9156162D02*
X-5577619Y-9146638D01*
X-5587143Y-9127590D01*
X-5587143Y-8956162D01*
X-5406191Y-9146638D02*
X-5425238Y-9156162D01*
X-5463333Y-9156162D01*
X-5482381Y-9146638D01*
X-5491905Y-9127590D01*
X-5491905Y-9051400D01*
X-5482381Y-9032352D01*
X-5463333Y-9022829D01*
X-5425238Y-9022829D01*
X-5406191Y-9032352D01*
X-5396667Y-9051400D01*
X-5396667Y-9070448D01*
X-5491905Y-9089495D01*
X-5320476Y-9146638D02*
X-5301429Y-9156162D01*
X-5263333Y-9156162D01*
X-5244286Y-9146638D01*
X-5234762Y-9127590D01*
X-5234762Y-9118067D01*
X-5244286Y-9099019D01*
X-5263333Y-9089495D01*
X-5291905Y-9089495D01*
X-5310952Y-9079971D01*
X-5320476Y-9060924D01*
X-5320476Y-9051400D01*
X-5310952Y-9032352D01*
X-5291905Y-9022829D01*
X-5263333Y-9022829D01*
X-5244286Y-9032352D01*
X-4996667Y-9079971D02*
X-4844286Y-9079971D01*
X-4920476Y-9156162D02*
X-4920476Y-9003781D01*
X-4568095Y-9041876D02*
X-4587143Y-9032352D01*
X-4596667Y-9022829D01*
X-4606191Y-9003781D01*
X-4606191Y-8994257D01*
X-4596667Y-8975210D01*
X-4587143Y-8965686D01*
X-4568095Y-8956162D01*
X-4530000Y-8956162D01*
X-4510952Y-8965686D01*
X-4501429Y-8975210D01*
X-4491905Y-8994257D01*
X-4491905Y-9003781D01*
X-4501429Y-9022829D01*
X-4510952Y-9032352D01*
X-4530000Y-9041876D01*
X-4568095Y-9041876D01*
X-4587143Y-9051400D01*
X-4596667Y-9060924D01*
X-4606191Y-9079971D01*
X-4606191Y-9118067D01*
X-4596667Y-9137114D01*
X-4587143Y-9146638D01*
X-4568095Y-9156162D01*
X-4530000Y-9156162D01*
X-4510952Y-9146638D01*
X-4501429Y-9137114D01*
X-4491905Y-9118067D01*
X-4491905Y-9079971D01*
X-4501429Y-9060924D01*
X-4510952Y-9051400D01*
X-4530000Y-9041876D01*
X-4263333Y-9146638D02*
X-4244286Y-9156162D01*
X-4206191Y-9156162D01*
X-4187143Y-9146638D01*
X-4177619Y-9127590D01*
X-4177619Y-9118067D01*
X-4187143Y-9099019D01*
X-4206191Y-9089495D01*
X-4234762Y-9089495D01*
X-4253810Y-9079971D01*
X-4263333Y-9060924D01*
X-4263333Y-9051400D01*
X-4253810Y-9032352D01*
X-4234762Y-9022829D01*
X-4206191Y-9022829D01*
X-4187143Y-9032352D01*
X-4063333Y-9156162D02*
X-4082381Y-9146638D01*
X-4091905Y-9127590D01*
X-4091905Y-8956162D01*
X-3958571Y-9156162D02*
X-3977619Y-9146638D01*
X-3987143Y-9137114D01*
X-3996667Y-9118067D01*
X-3996667Y-9060924D01*
X-3987143Y-9041876D01*
X-3977619Y-9032352D01*
X-3958571Y-9022829D01*
X-3930000Y-9022829D01*
X-3910952Y-9032352D01*
X-3901429Y-9041876D01*
X-3891905Y-9060924D01*
X-3891905Y-9118067D01*
X-3901429Y-9137114D01*
X-3910952Y-9146638D01*
X-3930000Y-9156162D01*
X-3958571Y-9156162D01*
X-3834762Y-9022829D02*
X-3758571Y-9022829D01*
X-3806190Y-8956162D02*
X-3806190Y-9127590D01*
X-3796667Y-9146638D01*
X-3777619Y-9156162D01*
X-3758571Y-9156162D01*
X-3701429Y-9146638D02*
X-3682381Y-9156162D01*
X-3644286Y-9156162D01*
X-3625238Y-9146638D01*
X-3615714Y-9127590D01*
X-3615714Y-9118067D01*
X-3625238Y-9099019D01*
X-3644286Y-9089495D01*
X-3672857Y-9089495D01*
X-3691905Y-9079971D01*
X-3701429Y-9060924D01*
X-3701429Y-9051400D01*
X-3691905Y-9032352D01*
X-3672857Y-9022829D01*
X-3644286Y-9022829D01*
X-3625238Y-9032352D01*
X-3549048Y-9232352D02*
X-3539524Y-9222829D01*
X-3520476Y-9194257D01*
X-3510952Y-9175210D01*
X-3501429Y-9146638D01*
X-3491905Y-9099019D01*
X-3491905Y-9060924D01*
X-3501429Y-9013305D01*
X-3510952Y-8984733D01*
X-3520476Y-8965686D01*
X-3539524Y-8937114D01*
X-3549048Y-8927590D01*
D14*
X-9985000Y-9284686D02*
X-9985000Y-9374686D01*
X-10030000Y-9329686D02*
X-9940000Y-9329686D01*
D11*
X-9644286Y-9220162D02*
X-9625238Y-9220162D01*
X-9606191Y-9229686D01*
X-9596667Y-9239210D01*
X-9587143Y-9258257D01*
X-9577619Y-9296352D01*
X-9577619Y-9343971D01*
X-9587143Y-9382067D01*
X-9596667Y-9401114D01*
X-9606191Y-9410638D01*
X-9625238Y-9420162D01*
X-9644286Y-9420162D01*
X-9663333Y-9410638D01*
X-9672857Y-9401114D01*
X-9682381Y-9382067D01*
X-9691905Y-9343971D01*
X-9691905Y-9296352D01*
X-9682381Y-9258257D01*
X-9672857Y-9239210D01*
X-9663333Y-9229686D01*
X-9644286Y-9220162D01*
X-9491905Y-9401114D02*
X-9482381Y-9410638D01*
X-9491905Y-9420162D01*
X-9501429Y-9410638D01*
X-9491905Y-9401114D01*
X-9491905Y-9420162D01*
X-9387143Y-9420162D02*
X-9349048Y-9420162D01*
X-9330000Y-9410638D01*
X-9320476Y-9401114D01*
X-9301429Y-9372543D01*
X-9291905Y-9334448D01*
X-9291905Y-9258257D01*
X-9301429Y-9239210D01*
X-9310952Y-9229686D01*
X-9330000Y-9220162D01*
X-9368095Y-9220162D01*
X-9387143Y-9229686D01*
X-9396667Y-9239210D01*
X-9406191Y-9258257D01*
X-9406191Y-9305876D01*
X-9396667Y-9324924D01*
X-9387143Y-9334448D01*
X-9368095Y-9343971D01*
X-9330000Y-9343971D01*
X-9310952Y-9334448D01*
X-9301429Y-9324924D01*
X-9291905Y-9305876D01*
X-9168095Y-9220162D02*
X-9149048Y-9220162D01*
X-9130000Y-9229686D01*
X-9120476Y-9239210D01*
X-9110952Y-9258257D01*
X-9101429Y-9296352D01*
X-9101429Y-9343971D01*
X-9110952Y-9382067D01*
X-9120476Y-9401114D01*
X-9130000Y-9410638D01*
X-9149048Y-9420162D01*
X-9168095Y-9420162D01*
X-9187143Y-9410638D01*
X-9196667Y-9401114D01*
X-9206191Y-9382067D01*
X-9215714Y-9343971D01*
X-9215714Y-9296352D01*
X-9206191Y-9258257D01*
X-9196667Y-9239210D01*
X-9187143Y-9229686D01*
X-9168095Y-9220162D01*
X-8977619Y-9220162D02*
X-8958572Y-9220162D01*
X-8939524Y-9229686D01*
X-8930000Y-9239210D01*
X-8920476Y-9258257D01*
X-8910952Y-9296352D01*
X-8910952Y-9343971D01*
X-8920476Y-9382067D01*
X-8930000Y-9401114D01*
X-8939524Y-9410638D01*
X-8958572Y-9420162D01*
X-8977619Y-9420162D01*
X-8996667Y-9410638D01*
X-9006191Y-9401114D01*
X-9015714Y-9382067D01*
X-9025238Y-9343971D01*
X-9025238Y-9296352D01*
X-9015714Y-9258257D01*
X-9006191Y-9239210D01*
X-8996667Y-9229686D01*
X-8977619Y-9220162D01*
X-8825238Y-9420162D02*
X-8825238Y-9286829D01*
X-8825238Y-9305876D02*
X-8815714Y-9296352D01*
X-8796667Y-9286829D01*
X-8768095Y-9286829D01*
X-8749048Y-9296352D01*
X-8739524Y-9315400D01*
X-8739524Y-9420162D01*
X-8739524Y-9315400D02*
X-8730000Y-9296352D01*
X-8710952Y-9286829D01*
X-8682381Y-9286829D01*
X-8663333Y-9296352D01*
X-8653810Y-9315400D01*
X-8653810Y-9420162D01*
X-8558572Y-9420162D02*
X-8558572Y-9286829D01*
X-8558572Y-9305876D02*
X-8549048Y-9296352D01*
X-8530000Y-9286829D01*
X-8501429Y-9286829D01*
X-8482381Y-9296352D01*
X-8472857Y-9315400D01*
X-8472857Y-9420162D01*
X-8472857Y-9315400D02*
X-8463333Y-9296352D01*
X-8444286Y-9286829D01*
X-8415714Y-9286829D01*
X-8396667Y-9296352D01*
X-8387143Y-9315400D01*
X-8387143Y-9420162D01*
X-7996667Y-9210638D02*
X-8168095Y-9467781D01*
X-7739524Y-9220162D02*
X-7720476Y-9220162D01*
X-7701429Y-9229686D01*
X-7691905Y-9239210D01*
X-7682381Y-9258257D01*
X-7672857Y-9296352D01*
X-7672857Y-9343971D01*
X-7682381Y-9382067D01*
X-7691905Y-9401114D01*
X-7701429Y-9410638D01*
X-7720476Y-9420162D01*
X-7739524Y-9420162D01*
X-7758571Y-9410638D01*
X-7768095Y-9401114D01*
X-7777619Y-9382067D01*
X-7787143Y-9343971D01*
X-7787143Y-9296352D01*
X-7777619Y-9258257D01*
X-7768095Y-9239210D01*
X-7758571Y-9229686D01*
X-7739524Y-9220162D01*
X-7587143Y-9401114D02*
X-7577619Y-9410638D01*
X-7587143Y-9420162D01*
X-7596667Y-9410638D01*
X-7587143Y-9401114D01*
X-7587143Y-9420162D01*
X-7453810Y-9220162D02*
X-7434762Y-9220162D01*
X-7415714Y-9229686D01*
X-7406190Y-9239210D01*
X-7396667Y-9258257D01*
X-7387143Y-9296352D01*
X-7387143Y-9343971D01*
X-7396667Y-9382067D01*
X-7406190Y-9401114D01*
X-7415714Y-9410638D01*
X-7434762Y-9420162D01*
X-7453810Y-9420162D01*
X-7472857Y-9410638D01*
X-7482381Y-9401114D01*
X-7491905Y-9382067D01*
X-7501429Y-9343971D01*
X-7501429Y-9296352D01*
X-7491905Y-9258257D01*
X-7482381Y-9239210D01*
X-7472857Y-9229686D01*
X-7453810Y-9220162D01*
X-7320476Y-9220162D02*
X-7196667Y-9220162D01*
X-7263333Y-9296352D01*
X-7234762Y-9296352D01*
X-7215714Y-9305876D01*
X-7206190Y-9315400D01*
X-7196667Y-9334448D01*
X-7196667Y-9382067D01*
X-7206190Y-9401114D01*
X-7215714Y-9410638D01*
X-7234762Y-9420162D01*
X-7291905Y-9420162D01*
X-7310952Y-9410638D01*
X-7320476Y-9401114D01*
X-7015714Y-9220162D02*
X-7110952Y-9220162D01*
X-7120476Y-9315400D01*
X-7110952Y-9305876D01*
X-7091905Y-9296352D01*
X-7044286Y-9296352D01*
X-7025238Y-9305876D01*
X-7015714Y-9315400D01*
X-7006190Y-9334448D01*
X-7006190Y-9382067D01*
X-7015714Y-9401114D01*
X-7025238Y-9410638D01*
X-7044286Y-9420162D01*
X-7091905Y-9420162D01*
X-7110952Y-9410638D01*
X-7120476Y-9401114D01*
X-6834762Y-9286829D02*
X-6834762Y-9420162D01*
X-6882381Y-9210638D02*
X-6930000Y-9353495D01*
X-6806190Y-9353495D01*
X-6739524Y-9220162D02*
X-6739524Y-9258257D01*
X-6663333Y-9220162D02*
X-6663333Y-9258257D01*
X-6368095Y-9496352D02*
X-6377619Y-9486829D01*
X-6396667Y-9458257D01*
X-6406190Y-9439210D01*
X-6415714Y-9410638D01*
X-6425238Y-9363019D01*
X-6425238Y-9324924D01*
X-6415714Y-9277305D01*
X-6406190Y-9248733D01*
X-6396667Y-9229686D01*
X-6377619Y-9201114D01*
X-6368095Y-9191590D01*
X-6253810Y-9220162D02*
X-6234762Y-9220162D01*
X-6215714Y-9229686D01*
X-6206190Y-9239210D01*
X-6196667Y-9258257D01*
X-6187143Y-9296352D01*
X-6187143Y-9343971D01*
X-6196667Y-9382067D01*
X-6206190Y-9401114D01*
X-6215714Y-9410638D01*
X-6234762Y-9420162D01*
X-6253810Y-9420162D01*
X-6272857Y-9410638D01*
X-6282381Y-9401114D01*
X-6291905Y-9382067D01*
X-6301429Y-9343971D01*
X-6301429Y-9296352D01*
X-6291905Y-9258257D01*
X-6282381Y-9239210D01*
X-6272857Y-9229686D01*
X-6253810Y-9220162D01*
X-5949048Y-9420162D02*
X-5949048Y-9220162D01*
X-5863333Y-9420162D02*
X-5863333Y-9315400D01*
X-5872857Y-9296352D01*
X-5891905Y-9286829D01*
X-5920476Y-9286829D01*
X-5939524Y-9296352D01*
X-5949048Y-9305876D01*
X-5739524Y-9420162D02*
X-5758571Y-9410638D01*
X-5768095Y-9401114D01*
X-5777619Y-9382067D01*
X-5777619Y-9324924D01*
X-5768095Y-9305876D01*
X-5758571Y-9296352D01*
X-5739524Y-9286829D01*
X-5710952Y-9286829D01*
X-5691905Y-9296352D01*
X-5682381Y-9305876D01*
X-5672857Y-9324924D01*
X-5672857Y-9382067D01*
X-5682381Y-9401114D01*
X-5691905Y-9410638D01*
X-5710952Y-9420162D01*
X-5739524Y-9420162D01*
X-5558572Y-9420162D02*
X-5577619Y-9410638D01*
X-5587143Y-9391590D01*
X-5587143Y-9220162D01*
X-5406191Y-9410638D02*
X-5425238Y-9420162D01*
X-5463333Y-9420162D01*
X-5482381Y-9410638D01*
X-5491905Y-9391590D01*
X-5491905Y-9315400D01*
X-5482381Y-9296352D01*
X-5463333Y-9286829D01*
X-5425238Y-9286829D01*
X-5406191Y-9296352D01*
X-5396667Y-9315400D01*
X-5396667Y-9334448D01*
X-5491905Y-9353495D01*
X-5320476Y-9410638D02*
X-5301429Y-9420162D01*
X-5263333Y-9420162D01*
X-5244286Y-9410638D01*
X-5234762Y-9391590D01*
X-5234762Y-9382067D01*
X-5244286Y-9363019D01*
X-5263333Y-9353495D01*
X-5291905Y-9353495D01*
X-5310952Y-9343971D01*
X-5320476Y-9324924D01*
X-5320476Y-9315400D01*
X-5310952Y-9296352D01*
X-5291905Y-9286829D01*
X-5263333Y-9286829D01*
X-5244286Y-9296352D01*
X-4996667Y-9343971D02*
X-4844286Y-9343971D01*
X-4920476Y-9420162D02*
X-4920476Y-9267781D01*
X-4568095Y-9305876D02*
X-4587143Y-9296352D01*
X-4596667Y-9286829D01*
X-4606191Y-9267781D01*
X-4606191Y-9258257D01*
X-4596667Y-9239210D01*
X-4587143Y-9229686D01*
X-4568095Y-9220162D01*
X-4530000Y-9220162D01*
X-4510952Y-9229686D01*
X-4501429Y-9239210D01*
X-4491905Y-9258257D01*
X-4491905Y-9267781D01*
X-4501429Y-9286829D01*
X-4510952Y-9296352D01*
X-4530000Y-9305876D01*
X-4568095Y-9305876D01*
X-4587143Y-9315400D01*
X-4596667Y-9324924D01*
X-4606191Y-9343971D01*
X-4606191Y-9382067D01*
X-4596667Y-9401114D01*
X-4587143Y-9410638D01*
X-4568095Y-9420162D01*
X-4530000Y-9420162D01*
X-4510952Y-9410638D01*
X-4501429Y-9401114D01*
X-4491905Y-9382067D01*
X-4491905Y-9343971D01*
X-4501429Y-9324924D01*
X-4510952Y-9315400D01*
X-4530000Y-9305876D01*
X-4263333Y-9410638D02*
X-4244286Y-9420162D01*
X-4206191Y-9420162D01*
X-4187143Y-9410638D01*
X-4177619Y-9391590D01*
X-4177619Y-9382067D01*
X-4187143Y-9363019D01*
X-4206191Y-9353495D01*
X-4234762Y-9353495D01*
X-4253810Y-9343971D01*
X-4263333Y-9324924D01*
X-4263333Y-9315400D01*
X-4253810Y-9296352D01*
X-4234762Y-9286829D01*
X-4206191Y-9286829D01*
X-4187143Y-9296352D01*
X-4063333Y-9420162D02*
X-4082381Y-9410638D01*
X-4091905Y-9391590D01*
X-4091905Y-9220162D01*
X-3958571Y-9420162D02*
X-3977619Y-9410638D01*
X-3987143Y-9401114D01*
X-3996667Y-9382067D01*
X-3996667Y-9324924D01*
X-3987143Y-9305876D01*
X-3977619Y-9296352D01*
X-3958571Y-9286829D01*
X-3930000Y-9286829D01*
X-3910952Y-9296352D01*
X-3901429Y-9305876D01*
X-3891905Y-9324924D01*
X-3891905Y-9382067D01*
X-3901429Y-9401114D01*
X-3910952Y-9410638D01*
X-3930000Y-9420162D01*
X-3958571Y-9420162D01*
X-3834762Y-9286829D02*
X-3758571Y-9286829D01*
X-3806190Y-9220162D02*
X-3806190Y-9391590D01*
X-3796667Y-9410638D01*
X-3777619Y-9420162D01*
X-3758571Y-9420162D01*
X-3701429Y-9410638D02*
X-3682381Y-9420162D01*
X-3644286Y-9420162D01*
X-3625238Y-9410638D01*
X-3615714Y-9391590D01*
X-3615714Y-9382067D01*
X-3625238Y-9363019D01*
X-3644286Y-9353495D01*
X-3672857Y-9353495D01*
X-3691905Y-9343971D01*
X-3701429Y-9324924D01*
X-3701429Y-9315400D01*
X-3691905Y-9296352D01*
X-3672857Y-9286829D01*
X-3644286Y-9286829D01*
X-3625238Y-9296352D01*
X-3549048Y-9496352D02*
X-3539524Y-9486829D01*
X-3520476Y-9458257D01*
X-3510952Y-9439210D01*
X-3501429Y-9410638D01*
X-3491905Y-9363019D01*
X-3491905Y-9324924D01*
X-3501429Y-9277305D01*
X-3510952Y-9248733D01*
X-3520476Y-9229686D01*
X-3539524Y-9201114D01*
X-3549048Y-9191590D01*
D15*
X-9954644Y-9629041D02*
X-9954644Y-9558330D01*
X-10025356Y-9558330D01*
X-10025356Y-9629041D01*
X-9954644Y-9629041D01*
D11*
X-9577619Y-9684162D02*
X-9691905Y-9684162D01*
X-9634762Y-9684162D02*
X-9634762Y-9484162D01*
X-9653810Y-9512733D01*
X-9672857Y-9531781D01*
X-9691905Y-9541305D01*
X-9491905Y-9665114D02*
X-9482381Y-9674638D01*
X-9491905Y-9684162D01*
X-9501429Y-9674638D01*
X-9491905Y-9665114D01*
X-9491905Y-9684162D01*
X-9358572Y-9484162D02*
X-9339524Y-9484162D01*
X-9320476Y-9493686D01*
X-9310952Y-9503210D01*
X-9301429Y-9522257D01*
X-9291905Y-9560352D01*
X-9291905Y-9607971D01*
X-9301429Y-9646067D01*
X-9310952Y-9665114D01*
X-9320476Y-9674638D01*
X-9339524Y-9684162D01*
X-9358572Y-9684162D01*
X-9377619Y-9674638D01*
X-9387143Y-9665114D01*
X-9396667Y-9646067D01*
X-9406191Y-9607971D01*
X-9406191Y-9560352D01*
X-9396667Y-9522257D01*
X-9387143Y-9503210D01*
X-9377619Y-9493686D01*
X-9358572Y-9484162D01*
X-9168095Y-9484162D02*
X-9149048Y-9484162D01*
X-9130000Y-9493686D01*
X-9120476Y-9503210D01*
X-9110952Y-9522257D01*
X-9101429Y-9560352D01*
X-9101429Y-9607971D01*
X-9110952Y-9646067D01*
X-9120476Y-9665114D01*
X-9130000Y-9674638D01*
X-9149048Y-9684162D01*
X-9168095Y-9684162D01*
X-9187143Y-9674638D01*
X-9196667Y-9665114D01*
X-9206191Y-9646067D01*
X-9215714Y-9607971D01*
X-9215714Y-9560352D01*
X-9206191Y-9522257D01*
X-9196667Y-9503210D01*
X-9187143Y-9493686D01*
X-9168095Y-9484162D01*
X-8977619Y-9484162D02*
X-8958572Y-9484162D01*
X-8939524Y-9493686D01*
X-8930000Y-9503210D01*
X-8920476Y-9522257D01*
X-8910952Y-9560352D01*
X-8910952Y-9607971D01*
X-8920476Y-9646067D01*
X-8930000Y-9665114D01*
X-8939524Y-9674638D01*
X-8958572Y-9684162D01*
X-8977619Y-9684162D01*
X-8996667Y-9674638D01*
X-9006191Y-9665114D01*
X-9015714Y-9646067D01*
X-9025238Y-9607971D01*
X-9025238Y-9560352D01*
X-9015714Y-9522257D01*
X-9006191Y-9503210D01*
X-8996667Y-9493686D01*
X-8977619Y-9484162D01*
X-8825238Y-9684162D02*
X-8825238Y-9550829D01*
X-8825238Y-9569876D02*
X-8815714Y-9560352D01*
X-8796667Y-9550829D01*
X-8768095Y-9550829D01*
X-8749048Y-9560352D01*
X-8739524Y-9579400D01*
X-8739524Y-9684162D01*
X-8739524Y-9579400D02*
X-8730000Y-9560352D01*
X-8710952Y-9550829D01*
X-8682381Y-9550829D01*
X-8663333Y-9560352D01*
X-8653810Y-9579400D01*
X-8653810Y-9684162D01*
X-8558572Y-9684162D02*
X-8558572Y-9550829D01*
X-8558572Y-9569876D02*
X-8549048Y-9560352D01*
X-8530000Y-9550829D01*
X-8501429Y-9550829D01*
X-8482381Y-9560352D01*
X-8472857Y-9579400D01*
X-8472857Y-9684162D01*
X-8472857Y-9579400D02*
X-8463333Y-9560352D01*
X-8444286Y-9550829D01*
X-8415714Y-9550829D01*
X-8396667Y-9560352D01*
X-8387143Y-9579400D01*
X-8387143Y-9684162D01*
X-7996667Y-9474638D02*
X-8168095Y-9731781D01*
X-7739524Y-9484162D02*
X-7720476Y-9484162D01*
X-7701429Y-9493686D01*
X-7691905Y-9503210D01*
X-7682381Y-9522257D01*
X-7672857Y-9560352D01*
X-7672857Y-9607971D01*
X-7682381Y-9646067D01*
X-7691905Y-9665114D01*
X-7701429Y-9674638D01*
X-7720476Y-9684162D01*
X-7739524Y-9684162D01*
X-7758571Y-9674638D01*
X-7768095Y-9665114D01*
X-7777619Y-9646067D01*
X-7787143Y-9607971D01*
X-7787143Y-9560352D01*
X-7777619Y-9522257D01*
X-7768095Y-9503210D01*
X-7758571Y-9493686D01*
X-7739524Y-9484162D01*
X-7587143Y-9665114D02*
X-7577619Y-9674638D01*
X-7587143Y-9684162D01*
X-7596667Y-9674638D01*
X-7587143Y-9665114D01*
X-7587143Y-9684162D01*
X-7453810Y-9484162D02*
X-7434762Y-9484162D01*
X-7415714Y-9493686D01*
X-7406190Y-9503210D01*
X-7396667Y-9522257D01*
X-7387143Y-9560352D01*
X-7387143Y-9607971D01*
X-7396667Y-9646067D01*
X-7406190Y-9665114D01*
X-7415714Y-9674638D01*
X-7434762Y-9684162D01*
X-7453810Y-9684162D01*
X-7472857Y-9674638D01*
X-7482381Y-9665114D01*
X-7491905Y-9646067D01*
X-7501429Y-9607971D01*
X-7501429Y-9560352D01*
X-7491905Y-9522257D01*
X-7482381Y-9503210D01*
X-7472857Y-9493686D01*
X-7453810Y-9484162D01*
X-7320476Y-9484162D02*
X-7196667Y-9484162D01*
X-7263333Y-9560352D01*
X-7234762Y-9560352D01*
X-7215714Y-9569876D01*
X-7206190Y-9579400D01*
X-7196667Y-9598448D01*
X-7196667Y-9646067D01*
X-7206190Y-9665114D01*
X-7215714Y-9674638D01*
X-7234762Y-9684162D01*
X-7291905Y-9684162D01*
X-7310952Y-9674638D01*
X-7320476Y-9665114D01*
X-7101429Y-9684162D02*
X-7063333Y-9684162D01*
X-7044286Y-9674638D01*
X-7034762Y-9665114D01*
X-7015714Y-9636543D01*
X-7006190Y-9598448D01*
X-7006190Y-9522257D01*
X-7015714Y-9503210D01*
X-7025238Y-9493686D01*
X-7044286Y-9484162D01*
X-7082381Y-9484162D01*
X-7101429Y-9493686D01*
X-7110952Y-9503210D01*
X-7120476Y-9522257D01*
X-7120476Y-9569876D01*
X-7110952Y-9588924D01*
X-7101429Y-9598448D01*
X-7082381Y-9607971D01*
X-7044286Y-9607971D01*
X-7025238Y-9598448D01*
X-7015714Y-9588924D01*
X-7006190Y-9569876D01*
X-6834762Y-9550829D02*
X-6834762Y-9684162D01*
X-6882381Y-9474638D02*
X-6930000Y-9617495D01*
X-6806190Y-9617495D01*
X-6739524Y-9484162D02*
X-6739524Y-9522257D01*
X-6663333Y-9484162D02*
X-6663333Y-9522257D01*
X-6368095Y-9760352D02*
X-6377619Y-9750829D01*
X-6396667Y-9722257D01*
X-6406190Y-9703210D01*
X-6415714Y-9674638D01*
X-6425238Y-9627019D01*
X-6425238Y-9588924D01*
X-6415714Y-9541305D01*
X-6406190Y-9512733D01*
X-6396667Y-9493686D01*
X-6377619Y-9465114D01*
X-6368095Y-9455590D01*
X-6196667Y-9484162D02*
X-6291905Y-9484162D01*
X-6301429Y-9579400D01*
X-6291905Y-9569876D01*
X-6272857Y-9560352D01*
X-6225238Y-9560352D01*
X-6206190Y-9569876D01*
X-6196667Y-9579400D01*
X-6187143Y-9598448D01*
X-6187143Y-9646067D01*
X-6196667Y-9665114D01*
X-6206190Y-9674638D01*
X-6225238Y-9684162D01*
X-6272857Y-9684162D01*
X-6291905Y-9674638D01*
X-6301429Y-9665114D01*
X-5949048Y-9684162D02*
X-5949048Y-9484162D01*
X-5863333Y-9684162D02*
X-5863333Y-9579400D01*
X-5872857Y-9560352D01*
X-5891905Y-9550829D01*
X-5920476Y-9550829D01*
X-5939524Y-9560352D01*
X-5949048Y-9569876D01*
X-5739524Y-9684162D02*
X-5758571Y-9674638D01*
X-5768095Y-9665114D01*
X-5777619Y-9646067D01*
X-5777619Y-9588924D01*
X-5768095Y-9569876D01*
X-5758571Y-9560352D01*
X-5739524Y-9550829D01*
X-5710952Y-9550829D01*
X-5691905Y-9560352D01*
X-5682381Y-9569876D01*
X-5672857Y-9588924D01*
X-5672857Y-9646067D01*
X-5682381Y-9665114D01*
X-5691905Y-9674638D01*
X-5710952Y-9684162D01*
X-5739524Y-9684162D01*
X-5558572Y-9684162D02*
X-5577619Y-9674638D01*
X-5587143Y-9655590D01*
X-5587143Y-9484162D01*
X-5406191Y-9674638D02*
X-5425238Y-9684162D01*
X-5463333Y-9684162D01*
X-5482381Y-9674638D01*
X-5491905Y-9655590D01*
X-5491905Y-9579400D01*
X-5482381Y-9560352D01*
X-5463333Y-9550829D01*
X-5425238Y-9550829D01*
X-5406191Y-9560352D01*
X-5396667Y-9579400D01*
X-5396667Y-9598448D01*
X-5491905Y-9617495D01*
X-5320476Y-9674638D02*
X-5301429Y-9684162D01*
X-5263333Y-9684162D01*
X-5244286Y-9674638D01*
X-5234762Y-9655590D01*
X-5234762Y-9646067D01*
X-5244286Y-9627019D01*
X-5263333Y-9617495D01*
X-5291905Y-9617495D01*
X-5310952Y-9607971D01*
X-5320476Y-9588924D01*
X-5320476Y-9579400D01*
X-5310952Y-9560352D01*
X-5291905Y-9550829D01*
X-5263333Y-9550829D01*
X-5244286Y-9560352D01*
X-5168095Y-9760352D02*
X-5158572Y-9750829D01*
X-5139524Y-9722257D01*
X-5130000Y-9703210D01*
X-5120476Y-9674638D01*
X-5110952Y-9627019D01*
X-5110952Y-9588924D01*
X-5120476Y-9541305D01*
X-5130000Y-9512733D01*
X-5139524Y-9493686D01*
X-5158572Y-9465114D01*
X-5168095Y-9455590D01*
D16*
X-10013500Y-9931186D02*
X-9940000Y-9857686D01*
X-10013500Y-9784186D01*
X-10087000Y-9857686D01*
X-10013500Y-9931186D01*
D11*
X-9577619Y-9948162D02*
X-9691905Y-9948162D01*
X-9634762Y-9948162D02*
X-9634762Y-9748162D01*
X-9653810Y-9776733D01*
X-9672857Y-9795781D01*
X-9691905Y-9805305D01*
X-9491905Y-9929114D02*
X-9482381Y-9938638D01*
X-9491905Y-9948162D01*
X-9501429Y-9938638D01*
X-9491905Y-9929114D01*
X-9491905Y-9948162D01*
X-9310952Y-9814829D02*
X-9310952Y-9948162D01*
X-9358572Y-9738638D02*
X-9406191Y-9881495D01*
X-9282381Y-9881495D01*
X-9225238Y-9748162D02*
X-9091905Y-9748162D01*
X-9177619Y-9948162D01*
X-8977619Y-9748162D02*
X-8958572Y-9748162D01*
X-8939524Y-9757686D01*
X-8930000Y-9767210D01*
X-8920476Y-9786257D01*
X-8910952Y-9824352D01*
X-8910952Y-9871971D01*
X-8920476Y-9910067D01*
X-8930000Y-9929114D01*
X-8939524Y-9938638D01*
X-8958572Y-9948162D01*
X-8977619Y-9948162D01*
X-8996667Y-9938638D01*
X-9006191Y-9929114D01*
X-9015714Y-9910067D01*
X-9025238Y-9871971D01*
X-9025238Y-9824352D01*
X-9015714Y-9786257D01*
X-9006191Y-9767210D01*
X-8996667Y-9757686D01*
X-8977619Y-9748162D01*
X-8825238Y-9948162D02*
X-8825238Y-9814829D01*
X-8825238Y-9833876D02*
X-8815714Y-9824352D01*
X-8796667Y-9814829D01*
X-8768095Y-9814829D01*
X-8749048Y-9824352D01*
X-8739524Y-9843400D01*
X-8739524Y-9948162D01*
X-8739524Y-9843400D02*
X-8730000Y-9824352D01*
X-8710952Y-9814829D01*
X-8682381Y-9814829D01*
X-8663333Y-9824352D01*
X-8653810Y-9843400D01*
X-8653810Y-9948162D01*
X-8558572Y-9948162D02*
X-8558572Y-9814829D01*
X-8558572Y-9833876D02*
X-8549048Y-9824352D01*
X-8530000Y-9814829D01*
X-8501429Y-9814829D01*
X-8482381Y-9824352D01*
X-8472857Y-9843400D01*
X-8472857Y-9948162D01*
X-8472857Y-9843400D02*
X-8463333Y-9824352D01*
X-8444286Y-9814829D01*
X-8415714Y-9814829D01*
X-8396667Y-9824352D01*
X-8387143Y-9843400D01*
X-8387143Y-9948162D01*
X-7996667Y-9738638D02*
X-8168095Y-9995781D01*
X-7739524Y-9748162D02*
X-7720476Y-9748162D01*
X-7701429Y-9757686D01*
X-7691905Y-9767210D01*
X-7682381Y-9786257D01*
X-7672857Y-9824352D01*
X-7672857Y-9871971D01*
X-7682381Y-9910067D01*
X-7691905Y-9929114D01*
X-7701429Y-9938638D01*
X-7720476Y-9948162D01*
X-7739524Y-9948162D01*
X-7758571Y-9938638D01*
X-7768095Y-9929114D01*
X-7777619Y-9910067D01*
X-7787143Y-9871971D01*
X-7787143Y-9824352D01*
X-7777619Y-9786257D01*
X-7768095Y-9767210D01*
X-7758571Y-9757686D01*
X-7739524Y-9748162D01*
X-7587143Y-9929114D02*
X-7577619Y-9938638D01*
X-7587143Y-9948162D01*
X-7596667Y-9938638D01*
X-7587143Y-9929114D01*
X-7587143Y-9948162D01*
X-7453810Y-9748162D02*
X-7434762Y-9748162D01*
X-7415714Y-9757686D01*
X-7406190Y-9767210D01*
X-7396667Y-9786257D01*
X-7387143Y-9824352D01*
X-7387143Y-9871971D01*
X-7396667Y-9910067D01*
X-7406190Y-9929114D01*
X-7415714Y-9938638D01*
X-7434762Y-9948162D01*
X-7453810Y-9948162D01*
X-7472857Y-9938638D01*
X-7482381Y-9929114D01*
X-7491905Y-9910067D01*
X-7501429Y-9871971D01*
X-7501429Y-9824352D01*
X-7491905Y-9786257D01*
X-7482381Y-9767210D01*
X-7472857Y-9757686D01*
X-7453810Y-9748162D01*
X-7206190Y-9748162D02*
X-7301429Y-9748162D01*
X-7310952Y-9843400D01*
X-7301429Y-9833876D01*
X-7282381Y-9824352D01*
X-7234762Y-9824352D01*
X-7215714Y-9833876D01*
X-7206190Y-9843400D01*
X-7196667Y-9862448D01*
X-7196667Y-9910067D01*
X-7206190Y-9929114D01*
X-7215714Y-9938638D01*
X-7234762Y-9948162D01*
X-7282381Y-9948162D01*
X-7301429Y-9938638D01*
X-7310952Y-9929114D01*
X-7130000Y-9748162D02*
X-6996667Y-9748162D01*
X-7082381Y-9948162D01*
X-6910952Y-9948162D02*
X-6872857Y-9948162D01*
X-6853810Y-9938638D01*
X-6844286Y-9929114D01*
X-6825238Y-9900543D01*
X-6815714Y-9862448D01*
X-6815714Y-9786257D01*
X-6825238Y-9767210D01*
X-6834762Y-9757686D01*
X-6853810Y-9748162D01*
X-6891905Y-9748162D01*
X-6910952Y-9757686D01*
X-6920476Y-9767210D01*
X-6930000Y-9786257D01*
X-6930000Y-9833876D01*
X-6920476Y-9852924D01*
X-6910952Y-9862448D01*
X-6891905Y-9871971D01*
X-6853810Y-9871971D01*
X-6834762Y-9862448D01*
X-6825238Y-9852924D01*
X-6815714Y-9833876D01*
X-6739524Y-9748162D02*
X-6739524Y-9786257D01*
X-6663333Y-9748162D02*
X-6663333Y-9786257D01*
X-6368095Y-10024352D02*
X-6377619Y-10014829D01*
X-6396667Y-9986257D01*
X-6406190Y-9967210D01*
X-6415714Y-9938638D01*
X-6425238Y-9891019D01*
X-6425238Y-9852924D01*
X-6415714Y-9805305D01*
X-6406190Y-9776733D01*
X-6396667Y-9757686D01*
X-6377619Y-9729114D01*
X-6368095Y-9719590D01*
X-6187143Y-9948162D02*
X-6301429Y-9948162D01*
X-6244286Y-9948162D02*
X-6244286Y-9748162D01*
X-6263333Y-9776733D01*
X-6282381Y-9795781D01*
X-6301429Y-9805305D01*
X-6091905Y-9948162D02*
X-6053810Y-9948162D01*
X-6034762Y-9938638D01*
X-6025238Y-9929114D01*
X-6006190Y-9900543D01*
X-5996667Y-9862448D01*
X-5996667Y-9786257D01*
X-6006190Y-9767210D01*
X-6015714Y-9757686D01*
X-6034762Y-9748162D01*
X-6072857Y-9748162D01*
X-6091905Y-9757686D01*
X-6101429Y-9767210D01*
X-6110952Y-9786257D01*
X-6110952Y-9833876D01*
X-6101429Y-9852924D01*
X-6091905Y-9862448D01*
X-6072857Y-9871971D01*
X-6034762Y-9871971D01*
X-6015714Y-9862448D01*
X-6006190Y-9852924D01*
X-5996667Y-9833876D01*
X-5825238Y-9814829D02*
X-5825238Y-9948162D01*
X-5872857Y-9738638D02*
X-5920476Y-9881495D01*
X-5796667Y-9881495D01*
X-5568095Y-9948162D02*
X-5568095Y-9748162D01*
X-5482381Y-9948162D02*
X-5482381Y-9843400D01*
X-5491905Y-9824352D01*
X-5510952Y-9814829D01*
X-5539524Y-9814829D01*
X-5558572Y-9824352D01*
X-5568095Y-9833876D01*
X-5358572Y-9948162D02*
X-5377619Y-9938638D01*
X-5387143Y-9929114D01*
X-5396667Y-9910067D01*
X-5396667Y-9852924D01*
X-5387143Y-9833876D01*
X-5377619Y-9824352D01*
X-5358572Y-9814829D01*
X-5330000Y-9814829D01*
X-5310952Y-9824352D01*
X-5301429Y-9833876D01*
X-5291905Y-9852924D01*
X-5291905Y-9910067D01*
X-5301429Y-9929114D01*
X-5310952Y-9938638D01*
X-5330000Y-9948162D01*
X-5358572Y-9948162D01*
X-5177619Y-9948162D02*
X-5196667Y-9938638D01*
X-5206191Y-9919590D01*
X-5206191Y-9748162D01*
X-5025238Y-9938638D02*
X-5044286Y-9948162D01*
X-5082381Y-9948162D01*
X-5101429Y-9938638D01*
X-5110952Y-9919590D01*
X-5110952Y-9843400D01*
X-5101429Y-9824352D01*
X-5082381Y-9814829D01*
X-5044286Y-9814829D01*
X-5025238Y-9824352D01*
X-5015714Y-9843400D01*
X-5015714Y-9862448D01*
X-5110952Y-9881495D01*
X-4939524Y-9938638D02*
X-4920476Y-9948162D01*
X-4882381Y-9948162D01*
X-4863333Y-9938638D01*
X-4853810Y-9919590D01*
X-4853810Y-9910067D01*
X-4863333Y-9891019D01*
X-4882381Y-9881495D01*
X-4910952Y-9881495D01*
X-4930000Y-9871971D01*
X-4939524Y-9852924D01*
X-4939524Y-9843400D01*
X-4930000Y-9824352D01*
X-4910952Y-9814829D01*
X-4882381Y-9814829D01*
X-4863333Y-9824352D01*
X-4787143Y-10024352D02*
X-4777619Y-10014829D01*
X-4758572Y-9986257D01*
X-4749048Y-9967210D01*
X-4739524Y-9938638D01*
X-4730000Y-9891019D01*
X-4730000Y-9852924D01*
X-4739524Y-9805305D01*
X-4749048Y-9776733D01*
X-4758572Y-9757686D01*
X-4777619Y-9729114D01*
X-4787143Y-9719590D01*
D17*
X-10090000Y-10049686D02*
X-9940000Y-10199686D01*
X-9940000Y-10049686D02*
X-10090000Y-10199686D01*
X-9940000Y-10124686D02*
G75*
G03*
X-9940000Y-10124686I-75000J0D01*
G01*
D11*
X-9577619Y-10215162D02*
X-9691905Y-10215162D01*
X-9634762Y-10215162D02*
X-9634762Y-10015162D01*
X-9653810Y-10043733D01*
X-9672857Y-10062781D01*
X-9691905Y-10072305D01*
X-9491905Y-10196114D02*
X-9482381Y-10205638D01*
X-9491905Y-10215162D01*
X-9501429Y-10205638D01*
X-9491905Y-10196114D01*
X-9491905Y-10215162D01*
X-9301429Y-10015162D02*
X-9396667Y-10015162D01*
X-9406191Y-10110400D01*
X-9396667Y-10100876D01*
X-9377619Y-10091352D01*
X-9330000Y-10091352D01*
X-9310952Y-10100876D01*
X-9301429Y-10110400D01*
X-9291905Y-10129448D01*
X-9291905Y-10177067D01*
X-9301429Y-10196114D01*
X-9310952Y-10205638D01*
X-9330000Y-10215162D01*
X-9377619Y-10215162D01*
X-9396667Y-10205638D01*
X-9406191Y-10196114D01*
X-9168095Y-10015162D02*
X-9149048Y-10015162D01*
X-9130000Y-10024686D01*
X-9120476Y-10034210D01*
X-9110952Y-10053257D01*
X-9101429Y-10091352D01*
X-9101429Y-10138971D01*
X-9110952Y-10177067D01*
X-9120476Y-10196114D01*
X-9130000Y-10205638D01*
X-9149048Y-10215162D01*
X-9168095Y-10215162D01*
X-9187143Y-10205638D01*
X-9196667Y-10196114D01*
X-9206191Y-10177067D01*
X-9215714Y-10138971D01*
X-9215714Y-10091352D01*
X-9206191Y-10053257D01*
X-9196667Y-10034210D01*
X-9187143Y-10024686D01*
X-9168095Y-10015162D01*
X-8977619Y-10015162D02*
X-8958572Y-10015162D01*
X-8939524Y-10024686D01*
X-8930000Y-10034210D01*
X-8920476Y-10053257D01*
X-8910952Y-10091352D01*
X-8910952Y-10138971D01*
X-8920476Y-10177067D01*
X-8930000Y-10196114D01*
X-8939524Y-10205638D01*
X-8958572Y-10215162D01*
X-8977619Y-10215162D01*
X-8996667Y-10205638D01*
X-9006191Y-10196114D01*
X-9015714Y-10177067D01*
X-9025238Y-10138971D01*
X-9025238Y-10091352D01*
X-9015714Y-10053257D01*
X-9006191Y-10034210D01*
X-8996667Y-10024686D01*
X-8977619Y-10015162D01*
X-8825238Y-10215162D02*
X-8825238Y-10081829D01*
X-8825238Y-10100876D02*
X-8815714Y-10091352D01*
X-8796667Y-10081829D01*
X-8768095Y-10081829D01*
X-8749048Y-10091352D01*
X-8739524Y-10110400D01*
X-8739524Y-10215162D01*
X-8739524Y-10110400D02*
X-8730000Y-10091352D01*
X-8710952Y-10081829D01*
X-8682381Y-10081829D01*
X-8663333Y-10091352D01*
X-8653810Y-10110400D01*
X-8653810Y-10215162D01*
X-8558572Y-10215162D02*
X-8558572Y-10081829D01*
X-8558572Y-10100876D02*
X-8549048Y-10091352D01*
X-8530000Y-10081829D01*
X-8501429Y-10081829D01*
X-8482381Y-10091352D01*
X-8472857Y-10110400D01*
X-8472857Y-10215162D01*
X-8472857Y-10110400D02*
X-8463333Y-10091352D01*
X-8444286Y-10081829D01*
X-8415714Y-10081829D01*
X-8396667Y-10091352D01*
X-8387143Y-10110400D01*
X-8387143Y-10215162D01*
X-7996667Y-10005638D02*
X-8168095Y-10262781D01*
X-7739524Y-10015162D02*
X-7720476Y-10015162D01*
X-7701429Y-10024686D01*
X-7691905Y-10034210D01*
X-7682381Y-10053257D01*
X-7672857Y-10091352D01*
X-7672857Y-10138971D01*
X-7682381Y-10177067D01*
X-7691905Y-10196114D01*
X-7701429Y-10205638D01*
X-7720476Y-10215162D01*
X-7739524Y-10215162D01*
X-7758571Y-10205638D01*
X-7768095Y-10196114D01*
X-7777619Y-10177067D01*
X-7787143Y-10138971D01*
X-7787143Y-10091352D01*
X-7777619Y-10053257D01*
X-7768095Y-10034210D01*
X-7758571Y-10024686D01*
X-7739524Y-10015162D01*
X-7587143Y-10196114D02*
X-7577619Y-10205638D01*
X-7587143Y-10215162D01*
X-7596667Y-10205638D01*
X-7587143Y-10196114D01*
X-7587143Y-10215162D01*
X-7453810Y-10015162D02*
X-7434762Y-10015162D01*
X-7415714Y-10024686D01*
X-7406190Y-10034210D01*
X-7396667Y-10053257D01*
X-7387143Y-10091352D01*
X-7387143Y-10138971D01*
X-7396667Y-10177067D01*
X-7406190Y-10196114D01*
X-7415714Y-10205638D01*
X-7434762Y-10215162D01*
X-7453810Y-10215162D01*
X-7472857Y-10205638D01*
X-7482381Y-10196114D01*
X-7491905Y-10177067D01*
X-7501429Y-10138971D01*
X-7501429Y-10091352D01*
X-7491905Y-10053257D01*
X-7482381Y-10034210D01*
X-7472857Y-10024686D01*
X-7453810Y-10015162D01*
X-7206190Y-10015162D02*
X-7301429Y-10015162D01*
X-7310952Y-10110400D01*
X-7301429Y-10100876D01*
X-7282381Y-10091352D01*
X-7234762Y-10091352D01*
X-7215714Y-10100876D01*
X-7206190Y-10110400D01*
X-7196667Y-10129448D01*
X-7196667Y-10177067D01*
X-7206190Y-10196114D01*
X-7215714Y-10205638D01*
X-7234762Y-10215162D01*
X-7282381Y-10215162D01*
X-7301429Y-10205638D01*
X-7310952Y-10196114D01*
X-7101429Y-10215162D02*
X-7063333Y-10215162D01*
X-7044286Y-10205638D01*
X-7034762Y-10196114D01*
X-7015714Y-10167543D01*
X-7006190Y-10129448D01*
X-7006190Y-10053257D01*
X-7015714Y-10034210D01*
X-7025238Y-10024686D01*
X-7044286Y-10015162D01*
X-7082381Y-10015162D01*
X-7101429Y-10024686D01*
X-7110952Y-10034210D01*
X-7120476Y-10053257D01*
X-7120476Y-10100876D01*
X-7110952Y-10119924D01*
X-7101429Y-10129448D01*
X-7082381Y-10138971D01*
X-7044286Y-10138971D01*
X-7025238Y-10129448D01*
X-7015714Y-10119924D01*
X-7006190Y-10100876D01*
X-6815714Y-10215162D02*
X-6930000Y-10215162D01*
X-6872857Y-10215162D02*
X-6872857Y-10015162D01*
X-6891905Y-10043733D01*
X-6910952Y-10062781D01*
X-6930000Y-10072305D01*
X-6739524Y-10015162D02*
X-6739524Y-10053257D01*
X-6663333Y-10015162D02*
X-6663333Y-10053257D01*
X-6368095Y-10291352D02*
X-6377619Y-10281829D01*
X-6396667Y-10253257D01*
X-6406190Y-10234210D01*
X-6415714Y-10205638D01*
X-6425238Y-10158019D01*
X-6425238Y-10119924D01*
X-6415714Y-10072305D01*
X-6406190Y-10043733D01*
X-6396667Y-10024686D01*
X-6377619Y-9996114D01*
X-6368095Y-9986590D01*
X-6206190Y-10081829D02*
X-6206190Y-10215162D01*
X-6253810Y-10005638D02*
X-6301429Y-10148495D01*
X-6177619Y-10148495D01*
X-5949048Y-10215162D02*
X-5949048Y-10015162D01*
X-5863333Y-10215162D02*
X-5863333Y-10110400D01*
X-5872857Y-10091352D01*
X-5891905Y-10081829D01*
X-5920476Y-10081829D01*
X-5939524Y-10091352D01*
X-5949048Y-10100876D01*
X-5739524Y-10215162D02*
X-5758571Y-10205638D01*
X-5768095Y-10196114D01*
X-5777619Y-10177067D01*
X-5777619Y-10119924D01*
X-5768095Y-10100876D01*
X-5758571Y-10091352D01*
X-5739524Y-10081829D01*
X-5710952Y-10081829D01*
X-5691905Y-10091352D01*
X-5682381Y-10100876D01*
X-5672857Y-10119924D01*
X-5672857Y-10177067D01*
X-5682381Y-10196114D01*
X-5691905Y-10205638D01*
X-5710952Y-10215162D01*
X-5739524Y-10215162D01*
X-5558572Y-10215162D02*
X-5577619Y-10205638D01*
X-5587143Y-10186590D01*
X-5587143Y-10015162D01*
X-5406191Y-10205638D02*
X-5425238Y-10215162D01*
X-5463333Y-10215162D01*
X-5482381Y-10205638D01*
X-5491905Y-10186590D01*
X-5491905Y-10110400D01*
X-5482381Y-10091352D01*
X-5463333Y-10081829D01*
X-5425238Y-10081829D01*
X-5406191Y-10091352D01*
X-5396667Y-10110400D01*
X-5396667Y-10129448D01*
X-5491905Y-10148495D01*
X-5320476Y-10205638D02*
X-5301429Y-10215162D01*
X-5263333Y-10215162D01*
X-5244286Y-10205638D01*
X-5234762Y-10186590D01*
X-5234762Y-10177067D01*
X-5244286Y-10158019D01*
X-5263333Y-10148495D01*
X-5291905Y-10148495D01*
X-5310952Y-10138971D01*
X-5320476Y-10119924D01*
X-5320476Y-10110400D01*
X-5310952Y-10091352D01*
X-5291905Y-10081829D01*
X-5263333Y-10081829D01*
X-5244286Y-10091352D01*
X-4996667Y-10138971D02*
X-4844286Y-10138971D01*
X-4920476Y-10215162D02*
X-4920476Y-10062781D01*
X-4606191Y-10034210D02*
X-4596667Y-10024686D01*
X-4577619Y-10015162D01*
X-4530000Y-10015162D01*
X-4510952Y-10024686D01*
X-4501429Y-10034210D01*
X-4491905Y-10053257D01*
X-4491905Y-10072305D01*
X-4501429Y-10100876D01*
X-4615714Y-10215162D01*
X-4491905Y-10215162D01*
X-4263333Y-10205638D02*
X-4244286Y-10215162D01*
X-4206191Y-10215162D01*
X-4187143Y-10205638D01*
X-4177619Y-10186590D01*
X-4177619Y-10177067D01*
X-4187143Y-10158019D01*
X-4206191Y-10148495D01*
X-4234762Y-10148495D01*
X-4253810Y-10138971D01*
X-4263333Y-10119924D01*
X-4263333Y-10110400D01*
X-4253810Y-10091352D01*
X-4234762Y-10081829D01*
X-4206191Y-10081829D01*
X-4187143Y-10091352D01*
X-4063333Y-10215162D02*
X-4082381Y-10205638D01*
X-4091905Y-10186590D01*
X-4091905Y-10015162D01*
X-3958571Y-10215162D02*
X-3977619Y-10205638D01*
X-3987143Y-10196114D01*
X-3996667Y-10177067D01*
X-3996667Y-10119924D01*
X-3987143Y-10100876D01*
X-3977619Y-10091352D01*
X-3958571Y-10081829D01*
X-3930000Y-10081829D01*
X-3910952Y-10091352D01*
X-3901429Y-10100876D01*
X-3891905Y-10119924D01*
X-3891905Y-10177067D01*
X-3901429Y-10196114D01*
X-3910952Y-10205638D01*
X-3930000Y-10215162D01*
X-3958571Y-10215162D01*
X-3834762Y-10081829D02*
X-3758571Y-10081829D01*
X-3806190Y-10015162D02*
X-3806190Y-10186590D01*
X-3796667Y-10205638D01*
X-3777619Y-10215162D01*
X-3758571Y-10215162D01*
X-3701429Y-10205638D02*
X-3682381Y-10215162D01*
X-3644286Y-10215162D01*
X-3625238Y-10205638D01*
X-3615714Y-10186590D01*
X-3615714Y-10177067D01*
X-3625238Y-10158019D01*
X-3644286Y-10148495D01*
X-3672857Y-10148495D01*
X-3691905Y-10138971D01*
X-3701429Y-10119924D01*
X-3701429Y-10110400D01*
X-3691905Y-10091352D01*
X-3672857Y-10081829D01*
X-3644286Y-10081829D01*
X-3625238Y-10091352D01*
X-3549048Y-10291352D02*
X-3539524Y-10281829D01*
X-3520476Y-10253257D01*
X-3510952Y-10234210D01*
X-3501429Y-10205638D01*
X-3491905Y-10158019D01*
X-3491905Y-10119924D01*
X-3501429Y-10072305D01*
X-3510952Y-10043733D01*
X-3520476Y-10024686D01*
X-3539524Y-9996114D01*
X-3549048Y-9986590D01*
M02*
