%TF.GenerationSoftware,KiCad,Pcbnew,(5.99.0-12118-g897269f33f)*%
%TF.CreationDate,2021-09-12T17:19:33-04:00*%
%TF.ProjectId,dadboard,64616462-6f61-4726-942e-6b696361645f,rev?*%
%TF.SameCoordinates,Original*%
%TF.FileFunction,Legend,Bot*%
%TF.FilePolarity,Positive*%
%FSLAX46Y46*%
G04 Gerber Fmt 4.6, Leading zero omitted, Abs format (unit mm)*
G04 Created by KiCad (PCBNEW (5.99.0-12118-g897269f33f)) date 2021-09-12 17:19:33*
%MOMM*%
%LPD*%
G01*
G04 APERTURE LIST*
%ADD10C,0.150000*%
%ADD11C,0.120000*%
G04 APERTURE END LIST*
D10*
%TO.C,MX128*%
X58638795Y-9316980D02*
X58638795Y-8316980D01*
X58305461Y-9031266D01*
X57972128Y-8316980D01*
X57972128Y-9316980D01*
X57591176Y-8316980D02*
X56924509Y-9316980D01*
X56924509Y-8316980D02*
X57591176Y-9316980D01*
X56019747Y-9316980D02*
X56591176Y-9316980D01*
X56305461Y-9316980D02*
X56305461Y-8316980D01*
X56400700Y-8459838D01*
X56495938Y-8555076D01*
X56591176Y-8602695D01*
X55638795Y-8412219D02*
X55591176Y-8364600D01*
X55495938Y-8316980D01*
X55257842Y-8316980D01*
X55162604Y-8364600D01*
X55114985Y-8412219D01*
X55067366Y-8507457D01*
X55067366Y-8602695D01*
X55114985Y-8745552D01*
X55686414Y-9316980D01*
X55067366Y-9316980D01*
X54495938Y-8745552D02*
X54591176Y-8697933D01*
X54638795Y-8650314D01*
X54686414Y-8555076D01*
X54686414Y-8507457D01*
X54638795Y-8412219D01*
X54591176Y-8364600D01*
X54495938Y-8316980D01*
X54305461Y-8316980D01*
X54210223Y-8364600D01*
X54162604Y-8412219D01*
X54114985Y-8507457D01*
X54114985Y-8555076D01*
X54162604Y-8650314D01*
X54210223Y-8697933D01*
X54305461Y-8745552D01*
X54495938Y-8745552D01*
X54591176Y-8793171D01*
X54638795Y-8840790D01*
X54686414Y-8936028D01*
X54686414Y-9126504D01*
X54638795Y-9221742D01*
X54591176Y-9269361D01*
X54495938Y-9316980D01*
X54305461Y-9316980D01*
X54210223Y-9269361D01*
X54162604Y-9221742D01*
X54114985Y-9126504D01*
X54114985Y-8936028D01*
X54162604Y-8840790D01*
X54210223Y-8793171D01*
X54305461Y-8745552D01*
%TO.C,MX91*%
X-27562395Y9733019D02*
X-27562395Y10733019D01*
X-27895728Y10018733D01*
X-28229061Y10733019D01*
X-28229061Y9733019D01*
X-28610014Y10733019D02*
X-29276680Y9733019D01*
X-29276680Y10733019D02*
X-28610014Y9733019D01*
X-29705252Y9733019D02*
X-29895728Y9733019D01*
X-29990966Y9780638D01*
X-30038585Y9828257D01*
X-30133823Y9971114D01*
X-30181442Y10161590D01*
X-30181442Y10542542D01*
X-30133823Y10637780D01*
X-30086204Y10685400D01*
X-29990966Y10733019D01*
X-29800490Y10733019D01*
X-29705252Y10685400D01*
X-29657633Y10637780D01*
X-29610014Y10542542D01*
X-29610014Y10304447D01*
X-29657633Y10209209D01*
X-29705252Y10161590D01*
X-29800490Y10113971D01*
X-29990966Y10113971D01*
X-30086204Y10161590D01*
X-30133823Y10209209D01*
X-30181442Y10304447D01*
X-31133823Y9733019D02*
X-30562395Y9733019D01*
X-30848109Y9733019D02*
X-30848109Y10733019D01*
X-30752871Y10590161D01*
X-30657633Y10494923D01*
X-30562395Y10447304D01*
%TO.C,MX56*%
X139175904Y28757619D02*
X139175904Y29757619D01*
X138842571Y29043333D01*
X138509238Y29757619D01*
X138509238Y28757619D01*
X138128285Y29757619D02*
X137461619Y28757619D01*
X137461619Y29757619D02*
X138128285Y28757619D01*
X136604476Y29757619D02*
X137080666Y29757619D01*
X137128285Y29281428D01*
X137080666Y29329047D01*
X136985428Y29376666D01*
X136747333Y29376666D01*
X136652095Y29329047D01*
X136604476Y29281428D01*
X136556857Y29186190D01*
X136556857Y28948095D01*
X136604476Y28852857D01*
X136652095Y28805238D01*
X136747333Y28757619D01*
X136985428Y28757619D01*
X137080666Y28805238D01*
X137128285Y28852857D01*
X135699714Y29757619D02*
X135890190Y29757619D01*
X135985428Y29710000D01*
X136033047Y29662380D01*
X136128285Y29519523D01*
X136175904Y29329047D01*
X136175904Y28948095D01*
X136128285Y28852857D01*
X136080666Y28805238D01*
X135985428Y28757619D01*
X135794952Y28757619D01*
X135699714Y28805238D01*
X135652095Y28852857D01*
X135604476Y28948095D01*
X135604476Y29186190D01*
X135652095Y29281428D01*
X135699714Y29329047D01*
X135794952Y29376666D01*
X135985428Y29376666D01*
X136080666Y29329047D01*
X136128285Y29281428D01*
X136175904Y29186190D01*
%TO.C,MX127*%
X39588795Y-9316980D02*
X39588795Y-8316980D01*
X39255461Y-9031266D01*
X38922128Y-8316980D01*
X38922128Y-9316980D01*
X38541176Y-8316980D02*
X37874509Y-9316980D01*
X37874509Y-8316980D02*
X38541176Y-9316980D01*
X36969747Y-9316980D02*
X37541176Y-9316980D01*
X37255461Y-9316980D02*
X37255461Y-8316980D01*
X37350700Y-8459838D01*
X37445938Y-8555076D01*
X37541176Y-8602695D01*
X36588795Y-8412219D02*
X36541176Y-8364600D01*
X36445938Y-8316980D01*
X36207842Y-8316980D01*
X36112604Y-8364600D01*
X36064985Y-8412219D01*
X36017366Y-8507457D01*
X36017366Y-8602695D01*
X36064985Y-8745552D01*
X36636414Y-9316980D01*
X36017366Y-9316980D01*
X35684033Y-8316980D02*
X35017366Y-8316980D01*
X35445938Y-9316980D01*
%TO.C,MX183*%
X-60423704Y-47416980D02*
X-60423704Y-46416980D01*
X-60757038Y-47131266D01*
X-61090371Y-46416980D01*
X-61090371Y-47416980D01*
X-61471323Y-46416980D02*
X-62137990Y-47416980D01*
X-62137990Y-46416980D02*
X-61471323Y-47416980D01*
X-63042752Y-47416980D02*
X-62471323Y-47416980D01*
X-62757038Y-47416980D02*
X-62757038Y-46416980D01*
X-62661800Y-46559838D01*
X-62566561Y-46655076D01*
X-62471323Y-46702695D01*
X-63614180Y-46845552D02*
X-63518942Y-46797933D01*
X-63471323Y-46750314D01*
X-63423704Y-46655076D01*
X-63423704Y-46607457D01*
X-63471323Y-46512219D01*
X-63518942Y-46464600D01*
X-63614180Y-46416980D01*
X-63804657Y-46416980D01*
X-63899895Y-46464600D01*
X-63947514Y-46512219D01*
X-63995133Y-46607457D01*
X-63995133Y-46655076D01*
X-63947514Y-46750314D01*
X-63899895Y-46797933D01*
X-63804657Y-46845552D01*
X-63614180Y-46845552D01*
X-63518942Y-46893171D01*
X-63471323Y-46940790D01*
X-63423704Y-47036028D01*
X-63423704Y-47226504D01*
X-63471323Y-47321742D01*
X-63518942Y-47369361D01*
X-63614180Y-47416980D01*
X-63804657Y-47416980D01*
X-63899895Y-47369361D01*
X-63947514Y-47321742D01*
X-63995133Y-47226504D01*
X-63995133Y-47036028D01*
X-63947514Y-46940790D01*
X-63899895Y-46893171D01*
X-63804657Y-46845552D01*
X-64328466Y-46416980D02*
X-64947514Y-46416980D01*
X-64614180Y-46797933D01*
X-64757038Y-46797933D01*
X-64852276Y-46845552D01*
X-64899895Y-46893171D01*
X-64947514Y-46988409D01*
X-64947514Y-47226504D01*
X-64899895Y-47321742D01*
X-64852276Y-47369361D01*
X-64757038Y-47416980D01*
X-64471323Y-47416980D01*
X-64376085Y-47369361D01*
X-64328466Y-47321742D01*
%TO.C,MX155*%
X-60423704Y-28366980D02*
X-60423704Y-27366980D01*
X-60757038Y-28081266D01*
X-61090371Y-27366980D01*
X-61090371Y-28366980D01*
X-61471323Y-27366980D02*
X-62137990Y-28366980D01*
X-62137990Y-27366980D02*
X-61471323Y-28366980D01*
X-63042752Y-28366980D02*
X-62471323Y-28366980D01*
X-62757038Y-28366980D02*
X-62757038Y-27366980D01*
X-62661800Y-27509838D01*
X-62566561Y-27605076D01*
X-62471323Y-27652695D01*
X-63947514Y-27366980D02*
X-63471323Y-27366980D01*
X-63423704Y-27843171D01*
X-63471323Y-27795552D01*
X-63566561Y-27747933D01*
X-63804657Y-27747933D01*
X-63899895Y-27795552D01*
X-63947514Y-27843171D01*
X-63995133Y-27938409D01*
X-63995133Y-28176504D01*
X-63947514Y-28271742D01*
X-63899895Y-28319361D01*
X-63804657Y-28366980D01*
X-63566561Y-28366980D01*
X-63471323Y-28319361D01*
X-63423704Y-28271742D01*
X-64899895Y-27366980D02*
X-64423704Y-27366980D01*
X-64376085Y-27843171D01*
X-64423704Y-27795552D01*
X-64518942Y-27747933D01*
X-64757038Y-27747933D01*
X-64852276Y-27795552D01*
X-64899895Y-27843171D01*
X-64947514Y-27938409D01*
X-64947514Y-28176504D01*
X-64899895Y-28271742D01*
X-64852276Y-28319361D01*
X-64757038Y-28366980D01*
X-64518942Y-28366980D01*
X-64423704Y-28319361D01*
X-64376085Y-28271742D01*
%TO.C,MX82*%
X148700904Y9707619D02*
X148700904Y10707619D01*
X148367571Y9993333D01*
X148034238Y10707619D01*
X148034238Y9707619D01*
X147653285Y10707619D02*
X146986619Y9707619D01*
X146986619Y10707619D02*
X147653285Y9707619D01*
X146462809Y10279047D02*
X146558047Y10326666D01*
X146605666Y10374285D01*
X146653285Y10469523D01*
X146653285Y10517142D01*
X146605666Y10612380D01*
X146558047Y10660000D01*
X146462809Y10707619D01*
X146272333Y10707619D01*
X146177095Y10660000D01*
X146129476Y10612380D01*
X146081857Y10517142D01*
X146081857Y10469523D01*
X146129476Y10374285D01*
X146177095Y10326666D01*
X146272333Y10279047D01*
X146462809Y10279047D01*
X146558047Y10231428D01*
X146605666Y10183809D01*
X146653285Y10088571D01*
X146653285Y9898095D01*
X146605666Y9802857D01*
X146558047Y9755238D01*
X146462809Y9707619D01*
X146272333Y9707619D01*
X146177095Y9755238D01*
X146129476Y9802857D01*
X146081857Y9898095D01*
X146081857Y10088571D01*
X146129476Y10183809D01*
X146177095Y10231428D01*
X146272333Y10279047D01*
X145700904Y10612380D02*
X145653285Y10660000D01*
X145558047Y10707619D01*
X145319952Y10707619D01*
X145224714Y10660000D01*
X145177095Y10612380D01*
X145129476Y10517142D01*
X145129476Y10421904D01*
X145177095Y10279047D01*
X145748523Y9707619D01*
X145129476Y9707619D01*
%TO.C,MX22*%
X91500104Y52595519D02*
X91500104Y53595519D01*
X91166771Y52881233D01*
X90833438Y53595519D01*
X90833438Y52595519D01*
X90452485Y53595519D02*
X89785819Y52595519D01*
X89785819Y53595519D02*
X90452485Y52595519D01*
X89452485Y53500280D02*
X89404866Y53547900D01*
X89309628Y53595519D01*
X89071533Y53595519D01*
X88976295Y53547900D01*
X88928676Y53500280D01*
X88881057Y53405042D01*
X88881057Y53309804D01*
X88928676Y53166947D01*
X89500104Y52595519D01*
X88881057Y52595519D01*
X88500104Y53500280D02*
X88452485Y53547900D01*
X88357247Y53595519D01*
X88119152Y53595519D01*
X88023914Y53547900D01*
X87976295Y53500280D01*
X87928676Y53405042D01*
X87928676Y53309804D01*
X87976295Y53166947D01*
X88547723Y52595519D01*
X87928676Y52595519D01*
%TO.C,MX58*%
X177275904Y28757619D02*
X177275904Y29757619D01*
X176942571Y29043333D01*
X176609238Y29757619D01*
X176609238Y28757619D01*
X176228285Y29757619D02*
X175561619Y28757619D01*
X175561619Y29757619D02*
X176228285Y28757619D01*
X174704476Y29757619D02*
X175180666Y29757619D01*
X175228285Y29281428D01*
X175180666Y29329047D01*
X175085428Y29376666D01*
X174847333Y29376666D01*
X174752095Y29329047D01*
X174704476Y29281428D01*
X174656857Y29186190D01*
X174656857Y28948095D01*
X174704476Y28852857D01*
X174752095Y28805238D01*
X174847333Y28757619D01*
X175085428Y28757619D01*
X175180666Y28805238D01*
X175228285Y28852857D01*
X174085428Y29329047D02*
X174180666Y29376666D01*
X174228285Y29424285D01*
X174275904Y29519523D01*
X174275904Y29567142D01*
X174228285Y29662380D01*
X174180666Y29710000D01*
X174085428Y29757619D01*
X173894952Y29757619D01*
X173799714Y29710000D01*
X173752095Y29662380D01*
X173704476Y29567142D01*
X173704476Y29519523D01*
X173752095Y29424285D01*
X173799714Y29376666D01*
X173894952Y29329047D01*
X174085428Y29329047D01*
X174180666Y29281428D01*
X174228285Y29233809D01*
X174275904Y29138571D01*
X174275904Y28948095D01*
X174228285Y28852857D01*
X174180666Y28805238D01*
X174085428Y28757619D01*
X173894952Y28757619D01*
X173799714Y28805238D01*
X173752095Y28852857D01*
X173704476Y28948095D01*
X173704476Y29138571D01*
X173752095Y29233809D01*
X173799714Y29281428D01*
X173894952Y29329047D01*
%TO.C,MX151*%
X227758345Y-28392380D02*
X227758345Y-27392380D01*
X227425011Y-28106666D01*
X227091678Y-27392380D01*
X227091678Y-28392380D01*
X226710726Y-27392380D02*
X226044059Y-28392380D01*
X226044059Y-27392380D02*
X226710726Y-28392380D01*
X225139297Y-28392380D02*
X225710726Y-28392380D01*
X225425011Y-28392380D02*
X225425011Y-27392380D01*
X225520250Y-27535238D01*
X225615488Y-27630476D01*
X225710726Y-27678095D01*
X224234535Y-27392380D02*
X224710726Y-27392380D01*
X224758345Y-27868571D01*
X224710726Y-27820952D01*
X224615488Y-27773333D01*
X224377392Y-27773333D01*
X224282154Y-27820952D01*
X224234535Y-27868571D01*
X224186916Y-27963809D01*
X224186916Y-28201904D01*
X224234535Y-28297142D01*
X224282154Y-28344761D01*
X224377392Y-28392380D01*
X224615488Y-28392380D01*
X224710726Y-28344761D01*
X224758345Y-28297142D01*
X223234535Y-28392380D02*
X223805964Y-28392380D01*
X223520250Y-28392380D02*
X223520250Y-27392380D01*
X223615488Y-27535238D01*
X223710726Y-27630476D01*
X223805964Y-27678095D01*
%TO.C,MX185*%
X-3273704Y-47416980D02*
X-3273704Y-46416980D01*
X-3607038Y-47131266D01*
X-3940371Y-46416980D01*
X-3940371Y-47416980D01*
X-4321323Y-46416980D02*
X-4987990Y-47416980D01*
X-4987990Y-46416980D02*
X-4321323Y-47416980D01*
X-5892752Y-47416980D02*
X-5321323Y-47416980D01*
X-5607038Y-47416980D02*
X-5607038Y-46416980D01*
X-5511800Y-46559838D01*
X-5416561Y-46655076D01*
X-5321323Y-46702695D01*
X-6464180Y-46845552D02*
X-6368942Y-46797933D01*
X-6321323Y-46750314D01*
X-6273704Y-46655076D01*
X-6273704Y-46607457D01*
X-6321323Y-46512219D01*
X-6368942Y-46464600D01*
X-6464180Y-46416980D01*
X-6654657Y-46416980D01*
X-6749895Y-46464600D01*
X-6797514Y-46512219D01*
X-6845133Y-46607457D01*
X-6845133Y-46655076D01*
X-6797514Y-46750314D01*
X-6749895Y-46797933D01*
X-6654657Y-46845552D01*
X-6464180Y-46845552D01*
X-6368942Y-46893171D01*
X-6321323Y-46940790D01*
X-6273704Y-47036028D01*
X-6273704Y-47226504D01*
X-6321323Y-47321742D01*
X-6368942Y-47369361D01*
X-6464180Y-47416980D01*
X-6654657Y-47416980D01*
X-6749895Y-47369361D01*
X-6797514Y-47321742D01*
X-6845133Y-47226504D01*
X-6845133Y-47036028D01*
X-6797514Y-46940790D01*
X-6749895Y-46893171D01*
X-6654657Y-46845552D01*
X-7749895Y-46416980D02*
X-7273704Y-46416980D01*
X-7226085Y-46893171D01*
X-7273704Y-46845552D01*
X-7368942Y-46797933D01*
X-7607038Y-46797933D01*
X-7702276Y-46845552D01*
X-7749895Y-46893171D01*
X-7797514Y-46988409D01*
X-7797514Y-47226504D01*
X-7749895Y-47321742D01*
X-7702276Y-47369361D01*
X-7607038Y-47416980D01*
X-7368942Y-47416980D01*
X-7273704Y-47369361D01*
X-7226085Y-47321742D01*
%TO.C,MX153*%
X282527095Y-28392380D02*
X282527095Y-27392380D01*
X282193761Y-28106666D01*
X281860428Y-27392380D01*
X281860428Y-28392380D01*
X281479476Y-27392380D02*
X280812809Y-28392380D01*
X280812809Y-27392380D02*
X281479476Y-28392380D01*
X279908047Y-28392380D02*
X280479476Y-28392380D01*
X280193761Y-28392380D02*
X280193761Y-27392380D01*
X280289000Y-27535238D01*
X280384238Y-27630476D01*
X280479476Y-27678095D01*
X279003285Y-27392380D02*
X279479476Y-27392380D01*
X279527095Y-27868571D01*
X279479476Y-27820952D01*
X279384238Y-27773333D01*
X279146142Y-27773333D01*
X279050904Y-27820952D01*
X279003285Y-27868571D01*
X278955666Y-27963809D01*
X278955666Y-28201904D01*
X279003285Y-28297142D01*
X279050904Y-28344761D01*
X279146142Y-28392380D01*
X279384238Y-28392380D01*
X279479476Y-28344761D01*
X279527095Y-28297142D01*
X278622333Y-27392380D02*
X278003285Y-27392380D01*
X278336619Y-27773333D01*
X278193761Y-27773333D01*
X278098523Y-27820952D01*
X278050904Y-27868571D01*
X278003285Y-27963809D01*
X278003285Y-28201904D01*
X278050904Y-28297142D01*
X278098523Y-28344761D01*
X278193761Y-28392380D01*
X278479476Y-28392380D01*
X278574714Y-28344761D01*
X278622333Y-28297142D01*
%TO.C,MX148*%
X163464595Y-28392380D02*
X163464595Y-27392380D01*
X163131261Y-28106666D01*
X162797928Y-27392380D01*
X162797928Y-28392380D01*
X162416976Y-27392380D02*
X161750309Y-28392380D01*
X161750309Y-27392380D02*
X162416976Y-28392380D01*
X160845547Y-28392380D02*
X161416976Y-28392380D01*
X161131261Y-28392380D02*
X161131261Y-27392380D01*
X161226500Y-27535238D01*
X161321738Y-27630476D01*
X161416976Y-27678095D01*
X159988404Y-27725714D02*
X159988404Y-28392380D01*
X160226500Y-27344761D02*
X160464595Y-28059047D01*
X159845547Y-28059047D01*
X159321738Y-27820952D02*
X159416976Y-27773333D01*
X159464595Y-27725714D01*
X159512214Y-27630476D01*
X159512214Y-27582857D01*
X159464595Y-27487619D01*
X159416976Y-27440000D01*
X159321738Y-27392380D01*
X159131261Y-27392380D01*
X159036023Y-27440000D01*
X158988404Y-27487619D01*
X158940785Y-27582857D01*
X158940785Y-27630476D01*
X158988404Y-27725714D01*
X159036023Y-27773333D01*
X159131261Y-27820952D01*
X159321738Y-27820952D01*
X159416976Y-27868571D01*
X159464595Y-27916190D01*
X159512214Y-28011428D01*
X159512214Y-28201904D01*
X159464595Y-28297142D01*
X159416976Y-28344761D01*
X159321738Y-28392380D01*
X159131261Y-28392380D01*
X159036023Y-28344761D01*
X158988404Y-28297142D01*
X158940785Y-28201904D01*
X158940785Y-28011428D01*
X158988404Y-27916190D01*
X159036023Y-27868571D01*
X159131261Y-27820952D01*
%TO.C,MX84*%
X186800904Y9707619D02*
X186800904Y10707619D01*
X186467571Y9993333D01*
X186134238Y10707619D01*
X186134238Y9707619D01*
X185753285Y10707619D02*
X185086619Y9707619D01*
X185086619Y10707619D02*
X185753285Y9707619D01*
X184562809Y10279047D02*
X184658047Y10326666D01*
X184705666Y10374285D01*
X184753285Y10469523D01*
X184753285Y10517142D01*
X184705666Y10612380D01*
X184658047Y10660000D01*
X184562809Y10707619D01*
X184372333Y10707619D01*
X184277095Y10660000D01*
X184229476Y10612380D01*
X184181857Y10517142D01*
X184181857Y10469523D01*
X184229476Y10374285D01*
X184277095Y10326666D01*
X184372333Y10279047D01*
X184562809Y10279047D01*
X184658047Y10231428D01*
X184705666Y10183809D01*
X184753285Y10088571D01*
X184753285Y9898095D01*
X184705666Y9802857D01*
X184658047Y9755238D01*
X184562809Y9707619D01*
X184372333Y9707619D01*
X184277095Y9755238D01*
X184229476Y9802857D01*
X184181857Y9898095D01*
X184181857Y10088571D01*
X184229476Y10183809D01*
X184277095Y10231428D01*
X184372333Y10279047D01*
X183324714Y10374285D02*
X183324714Y9707619D01*
X183562809Y10755238D02*
X183800904Y10040952D01*
X183181857Y10040952D01*
%TO.C,MX161*%
X87213795Y-28366980D02*
X87213795Y-27366980D01*
X86880461Y-28081266D01*
X86547128Y-27366980D01*
X86547128Y-28366980D01*
X86166176Y-27366980D02*
X85499509Y-28366980D01*
X85499509Y-27366980D02*
X86166176Y-28366980D01*
X84594747Y-28366980D02*
X85166176Y-28366980D01*
X84880461Y-28366980D02*
X84880461Y-27366980D01*
X84975700Y-27509838D01*
X85070938Y-27605076D01*
X85166176Y-27652695D01*
X83737604Y-27366980D02*
X83928080Y-27366980D01*
X84023319Y-27414600D01*
X84070938Y-27462219D01*
X84166176Y-27605076D01*
X84213795Y-27795552D01*
X84213795Y-28176504D01*
X84166176Y-28271742D01*
X84118557Y-28319361D01*
X84023319Y-28366980D01*
X83832842Y-28366980D01*
X83737604Y-28319361D01*
X83689985Y-28271742D01*
X83642366Y-28176504D01*
X83642366Y-27938409D01*
X83689985Y-27843171D01*
X83737604Y-27795552D01*
X83832842Y-27747933D01*
X84023319Y-27747933D01*
X84118557Y-27795552D01*
X84166176Y-27843171D01*
X84213795Y-27938409D01*
X82689985Y-28366980D02*
X83261414Y-28366980D01*
X82975700Y-28366980D02*
X82975700Y-27366980D01*
X83070938Y-27509838D01*
X83166176Y-27605076D01*
X83261414Y-27652695D01*
%TO.C,MX86*%
X224900904Y9707619D02*
X224900904Y10707619D01*
X224567571Y9993333D01*
X224234238Y10707619D01*
X224234238Y9707619D01*
X223853285Y10707619D02*
X223186619Y9707619D01*
X223186619Y10707619D02*
X223853285Y9707619D01*
X222662809Y10279047D02*
X222758047Y10326666D01*
X222805666Y10374285D01*
X222853285Y10469523D01*
X222853285Y10517142D01*
X222805666Y10612380D01*
X222758047Y10660000D01*
X222662809Y10707619D01*
X222472333Y10707619D01*
X222377095Y10660000D01*
X222329476Y10612380D01*
X222281857Y10517142D01*
X222281857Y10469523D01*
X222329476Y10374285D01*
X222377095Y10326666D01*
X222472333Y10279047D01*
X222662809Y10279047D01*
X222758047Y10231428D01*
X222805666Y10183809D01*
X222853285Y10088571D01*
X222853285Y9898095D01*
X222805666Y9802857D01*
X222758047Y9755238D01*
X222662809Y9707619D01*
X222472333Y9707619D01*
X222377095Y9755238D01*
X222329476Y9802857D01*
X222281857Y9898095D01*
X222281857Y10088571D01*
X222329476Y10183809D01*
X222377095Y10231428D01*
X222472333Y10279047D01*
X221424714Y10707619D02*
X221615190Y10707619D01*
X221710428Y10660000D01*
X221758047Y10612380D01*
X221853285Y10469523D01*
X221900904Y10279047D01*
X221900904Y9898095D01*
X221853285Y9802857D01*
X221805666Y9755238D01*
X221710428Y9707619D01*
X221519952Y9707619D01*
X221424714Y9755238D01*
X221377095Y9802857D01*
X221329476Y9898095D01*
X221329476Y10136190D01*
X221377095Y10231428D01*
X221424714Y10279047D01*
X221519952Y10326666D01*
X221710428Y10326666D01*
X221805666Y10279047D01*
X221853285Y10231428D01*
X221900904Y10136190D01*
%TO.C,JP1*%
X-41874619Y36205619D02*
X-41541285Y36681809D01*
X-41303190Y36205619D02*
X-41303190Y37205619D01*
X-41684142Y37205619D01*
X-41779380Y37158000D01*
X-41827000Y37110380D01*
X-41874619Y37015142D01*
X-41874619Y36872285D01*
X-41827000Y36777047D01*
X-41779380Y36729428D01*
X-41684142Y36681809D01*
X-41303190Y36681809D01*
X-42303190Y36729428D02*
X-42636523Y36729428D01*
X-42779380Y36205619D02*
X-42303190Y36205619D01*
X-42303190Y37205619D01*
X-42779380Y37205619D01*
X-43160333Y36253238D02*
X-43303190Y36205619D01*
X-43541285Y36205619D01*
X-43636523Y36253238D01*
X-43684142Y36300857D01*
X-43731761Y36396095D01*
X-43731761Y36491333D01*
X-43684142Y36586571D01*
X-43636523Y36634190D01*
X-43541285Y36681809D01*
X-43350809Y36729428D01*
X-43255571Y36777047D01*
X-43207952Y36824666D01*
X-43160333Y36919904D01*
X-43160333Y37015142D01*
X-43207952Y37110380D01*
X-43255571Y37158000D01*
X-43350809Y37205619D01*
X-43588904Y37205619D01*
X-43731761Y37158000D01*
X-44160333Y36729428D02*
X-44493666Y36729428D01*
X-44636523Y36205619D02*
X-44160333Y36205619D01*
X-44160333Y37205619D01*
X-44636523Y37205619D01*
X-44922238Y37205619D02*
X-45493666Y37205619D01*
X-45207952Y36205619D02*
X-45207952Y37205619D01*
%TO.C,MX114*%
X115839595Y-9342380D02*
X115839595Y-8342380D01*
X115506261Y-9056666D01*
X115172928Y-8342380D01*
X115172928Y-9342380D01*
X114791976Y-8342380D02*
X114125309Y-9342380D01*
X114125309Y-8342380D02*
X114791976Y-9342380D01*
X113220547Y-9342380D02*
X113791976Y-9342380D01*
X113506261Y-9342380D02*
X113506261Y-8342380D01*
X113601500Y-8485238D01*
X113696738Y-8580476D01*
X113791976Y-8628095D01*
X112268166Y-9342380D02*
X112839595Y-9342380D01*
X112553880Y-9342380D02*
X112553880Y-8342380D01*
X112649119Y-8485238D01*
X112744357Y-8580476D01*
X112839595Y-8628095D01*
X111411023Y-8675714D02*
X111411023Y-9342380D01*
X111649119Y-8294761D02*
X111887214Y-9009047D01*
X111268166Y-9009047D01*
%TO.C,MX88*%
X282050904Y9707619D02*
X282050904Y10707619D01*
X281717571Y9993333D01*
X281384238Y10707619D01*
X281384238Y9707619D01*
X281003285Y10707619D02*
X280336619Y9707619D01*
X280336619Y10707619D02*
X281003285Y9707619D01*
X279812809Y10279047D02*
X279908047Y10326666D01*
X279955666Y10374285D01*
X280003285Y10469523D01*
X280003285Y10517142D01*
X279955666Y10612380D01*
X279908047Y10660000D01*
X279812809Y10707619D01*
X279622333Y10707619D01*
X279527095Y10660000D01*
X279479476Y10612380D01*
X279431857Y10517142D01*
X279431857Y10469523D01*
X279479476Y10374285D01*
X279527095Y10326666D01*
X279622333Y10279047D01*
X279812809Y10279047D01*
X279908047Y10231428D01*
X279955666Y10183809D01*
X280003285Y10088571D01*
X280003285Y9898095D01*
X279955666Y9802857D01*
X279908047Y9755238D01*
X279812809Y9707619D01*
X279622333Y9707619D01*
X279527095Y9755238D01*
X279479476Y9802857D01*
X279431857Y9898095D01*
X279431857Y10088571D01*
X279479476Y10183809D01*
X279527095Y10231428D01*
X279622333Y10279047D01*
X278860428Y10279047D02*
X278955666Y10326666D01*
X279003285Y10374285D01*
X279050904Y10469523D01*
X279050904Y10517142D01*
X279003285Y10612380D01*
X278955666Y10660000D01*
X278860428Y10707619D01*
X278669952Y10707619D01*
X278574714Y10660000D01*
X278527095Y10612380D01*
X278479476Y10517142D01*
X278479476Y10469523D01*
X278527095Y10374285D01*
X278574714Y10326666D01*
X278669952Y10279047D01*
X278860428Y10279047D01*
X278955666Y10231428D01*
X279003285Y10183809D01*
X279050904Y10088571D01*
X279050904Y9898095D01*
X279003285Y9802857D01*
X278955666Y9755238D01*
X278860428Y9707619D01*
X278669952Y9707619D01*
X278574714Y9755238D01*
X278527095Y9802857D01*
X278479476Y9898095D01*
X278479476Y10088571D01*
X278527095Y10183809D01*
X278574714Y10231428D01*
X278669952Y10279047D01*
%TO.C,MX147*%
X144414595Y-28392380D02*
X144414595Y-27392380D01*
X144081261Y-28106666D01*
X143747928Y-27392380D01*
X143747928Y-28392380D01*
X143366976Y-27392380D02*
X142700309Y-28392380D01*
X142700309Y-27392380D02*
X143366976Y-28392380D01*
X141795547Y-28392380D02*
X142366976Y-28392380D01*
X142081261Y-28392380D02*
X142081261Y-27392380D01*
X142176500Y-27535238D01*
X142271738Y-27630476D01*
X142366976Y-27678095D01*
X140938404Y-27725714D02*
X140938404Y-28392380D01*
X141176500Y-27344761D02*
X141414595Y-28059047D01*
X140795547Y-28059047D01*
X140509833Y-27392380D02*
X139843166Y-27392380D01*
X140271738Y-28392380D01*
%TO.C,MX118*%
X192039595Y-9342380D02*
X192039595Y-8342380D01*
X191706261Y-9056666D01*
X191372928Y-8342380D01*
X191372928Y-9342380D01*
X190991976Y-8342380D02*
X190325309Y-9342380D01*
X190325309Y-8342380D02*
X190991976Y-9342380D01*
X189420547Y-9342380D02*
X189991976Y-9342380D01*
X189706261Y-9342380D02*
X189706261Y-8342380D01*
X189801500Y-8485238D01*
X189896738Y-8580476D01*
X189991976Y-8628095D01*
X188468166Y-9342380D02*
X189039595Y-9342380D01*
X188753880Y-9342380D02*
X188753880Y-8342380D01*
X188849119Y-8485238D01*
X188944357Y-8580476D01*
X189039595Y-8628095D01*
X187896738Y-8770952D02*
X187991976Y-8723333D01*
X188039595Y-8675714D01*
X188087214Y-8580476D01*
X188087214Y-8532857D01*
X188039595Y-8437619D01*
X187991976Y-8390000D01*
X187896738Y-8342380D01*
X187706261Y-8342380D01*
X187611023Y-8390000D01*
X187563404Y-8437619D01*
X187515785Y-8532857D01*
X187515785Y-8580476D01*
X187563404Y-8675714D01*
X187611023Y-8723333D01*
X187706261Y-8770952D01*
X187896738Y-8770952D01*
X187991976Y-8818571D01*
X188039595Y-8866190D01*
X188087214Y-8961428D01*
X188087214Y-9151904D01*
X188039595Y-9247142D01*
X187991976Y-9294761D01*
X187896738Y-9342380D01*
X187706261Y-9342380D01*
X187611023Y-9294761D01*
X187563404Y-9247142D01*
X187515785Y-9151904D01*
X187515785Y-8961428D01*
X187563404Y-8866190D01*
X187611023Y-8818571D01*
X187706261Y-8770952D01*
%TO.C,MX89*%
X-79949895Y9733019D02*
X-79949895Y10733019D01*
X-80283228Y10018733D01*
X-80616561Y10733019D01*
X-80616561Y9733019D01*
X-80997514Y10733019D02*
X-81664180Y9733019D01*
X-81664180Y10733019D02*
X-80997514Y9733019D01*
X-82187990Y10304447D02*
X-82092752Y10352066D01*
X-82045133Y10399685D01*
X-81997514Y10494923D01*
X-81997514Y10542542D01*
X-82045133Y10637780D01*
X-82092752Y10685400D01*
X-82187990Y10733019D01*
X-82378466Y10733019D01*
X-82473704Y10685400D01*
X-82521323Y10637780D01*
X-82568942Y10542542D01*
X-82568942Y10494923D01*
X-82521323Y10399685D01*
X-82473704Y10352066D01*
X-82378466Y10304447D01*
X-82187990Y10304447D01*
X-82092752Y10256828D01*
X-82045133Y10209209D01*
X-81997514Y10113971D01*
X-81997514Y9923495D01*
X-82045133Y9828257D01*
X-82092752Y9780638D01*
X-82187990Y9733019D01*
X-82378466Y9733019D01*
X-82473704Y9780638D01*
X-82521323Y9828257D01*
X-82568942Y9923495D01*
X-82568942Y10113971D01*
X-82521323Y10209209D01*
X-82473704Y10256828D01*
X-82378466Y10304447D01*
X-83045133Y9733019D02*
X-83235609Y9733019D01*
X-83330847Y9780638D01*
X-83378466Y9828257D01*
X-83473704Y9971114D01*
X-83521323Y10161590D01*
X-83521323Y10542542D01*
X-83473704Y10637780D01*
X-83426085Y10685400D01*
X-83330847Y10733019D01*
X-83140371Y10733019D01*
X-83045133Y10685400D01*
X-82997514Y10637780D01*
X-82949895Y10542542D01*
X-82949895Y10304447D01*
X-82997514Y10209209D01*
X-83045133Y10161590D01*
X-83140371Y10113971D01*
X-83330847Y10113971D01*
X-83426085Y10161590D01*
X-83473704Y10209209D01*
X-83521323Y10304447D01*
%TO.C,MX178*%
X215852095Y-47442380D02*
X215852095Y-46442380D01*
X215518761Y-47156666D01*
X215185428Y-46442380D01*
X215185428Y-47442380D01*
X214804476Y-46442380D02*
X214137809Y-47442380D01*
X214137809Y-46442380D02*
X214804476Y-47442380D01*
X213233047Y-47442380D02*
X213804476Y-47442380D01*
X213518761Y-47442380D02*
X213518761Y-46442380D01*
X213614000Y-46585238D01*
X213709238Y-46680476D01*
X213804476Y-46728095D01*
X212899714Y-46442380D02*
X212233047Y-46442380D01*
X212661619Y-47442380D01*
X211709238Y-46870952D02*
X211804476Y-46823333D01*
X211852095Y-46775714D01*
X211899714Y-46680476D01*
X211899714Y-46632857D01*
X211852095Y-46537619D01*
X211804476Y-46490000D01*
X211709238Y-46442380D01*
X211518761Y-46442380D01*
X211423523Y-46490000D01*
X211375904Y-46537619D01*
X211328285Y-46632857D01*
X211328285Y-46680476D01*
X211375904Y-46775714D01*
X211423523Y-46823333D01*
X211518761Y-46870952D01*
X211709238Y-46870952D01*
X211804476Y-46918571D01*
X211852095Y-46966190D01*
X211899714Y-47061428D01*
X211899714Y-47251904D01*
X211852095Y-47347142D01*
X211804476Y-47394761D01*
X211709238Y-47442380D01*
X211518761Y-47442380D01*
X211423523Y-47394761D01*
X211375904Y-47347142D01*
X211328285Y-47251904D01*
X211328285Y-47061428D01*
X211375904Y-46966190D01*
X211423523Y-46918571D01*
X211518761Y-46870952D01*
%TO.C,MX19*%
X29587604Y52595519D02*
X29587604Y53595519D01*
X29254271Y52881233D01*
X28920938Y53595519D01*
X28920938Y52595519D01*
X28539985Y53595519D02*
X27873319Y52595519D01*
X27873319Y53595519D02*
X28539985Y52595519D01*
X26968557Y52595519D02*
X27539985Y52595519D01*
X27254271Y52595519D02*
X27254271Y53595519D01*
X27349509Y53452661D01*
X27444747Y53357423D01*
X27539985Y53309804D01*
X26492366Y52595519D02*
X26301890Y52595519D01*
X26206652Y52643138D01*
X26159033Y52690757D01*
X26063795Y52833614D01*
X26016176Y53024090D01*
X26016176Y53405042D01*
X26063795Y53500280D01*
X26111414Y53547900D01*
X26206652Y53595519D01*
X26397128Y53595519D01*
X26492366Y53547900D01*
X26539985Y53500280D01*
X26587604Y53405042D01*
X26587604Y53166947D01*
X26539985Y53071709D01*
X26492366Y53024090D01*
X26397128Y52976471D01*
X26206652Y52976471D01*
X26111414Y53024090D01*
X26063795Y53071709D01*
X26016176Y53166947D01*
%TO.C,MX146*%
X125364595Y-28392380D02*
X125364595Y-27392380D01*
X125031261Y-28106666D01*
X124697928Y-27392380D01*
X124697928Y-28392380D01*
X124316976Y-27392380D02*
X123650309Y-28392380D01*
X123650309Y-27392380D02*
X124316976Y-28392380D01*
X122745547Y-28392380D02*
X123316976Y-28392380D01*
X123031261Y-28392380D02*
X123031261Y-27392380D01*
X123126500Y-27535238D01*
X123221738Y-27630476D01*
X123316976Y-27678095D01*
X121888404Y-27725714D02*
X121888404Y-28392380D01*
X122126500Y-27344761D02*
X122364595Y-28059047D01*
X121745547Y-28059047D01*
X120936023Y-27392380D02*
X121126500Y-27392380D01*
X121221738Y-27440000D01*
X121269357Y-27487619D01*
X121364595Y-27630476D01*
X121412214Y-27820952D01*
X121412214Y-28201904D01*
X121364595Y-28297142D01*
X121316976Y-28344761D01*
X121221738Y-28392380D01*
X121031261Y-28392380D01*
X120936023Y-28344761D01*
X120888404Y-28297142D01*
X120840785Y-28201904D01*
X120840785Y-27963809D01*
X120888404Y-27868571D01*
X120936023Y-27820952D01*
X121031261Y-27773333D01*
X121221738Y-27773333D01*
X121316976Y-27820952D01*
X121364595Y-27868571D01*
X121412214Y-27963809D01*
%TO.C,MX16*%
X-32324895Y52595519D02*
X-32324895Y53595519D01*
X-32658228Y52881233D01*
X-32991561Y53595519D01*
X-32991561Y52595519D01*
X-33372514Y53595519D02*
X-34039180Y52595519D01*
X-34039180Y53595519D02*
X-33372514Y52595519D01*
X-34943942Y52595519D02*
X-34372514Y52595519D01*
X-34658228Y52595519D02*
X-34658228Y53595519D01*
X-34562990Y53452661D01*
X-34467752Y53357423D01*
X-34372514Y53309804D01*
X-35801085Y53595519D02*
X-35610609Y53595519D01*
X-35515371Y53547900D01*
X-35467752Y53500280D01*
X-35372514Y53357423D01*
X-35324895Y53166947D01*
X-35324895Y52785995D01*
X-35372514Y52690757D01*
X-35420133Y52643138D01*
X-35515371Y52595519D01*
X-35705847Y52595519D01*
X-35801085Y52643138D01*
X-35848704Y52690757D01*
X-35896323Y52785995D01*
X-35896323Y53024090D01*
X-35848704Y53119328D01*
X-35801085Y53166947D01*
X-35705847Y53214566D01*
X-35515371Y53214566D01*
X-35420133Y53166947D01*
X-35372514Y53119328D01*
X-35324895Y53024090D01*
%TO.C,MX158*%
X30063795Y-28366980D02*
X30063795Y-27366980D01*
X29730461Y-28081266D01*
X29397128Y-27366980D01*
X29397128Y-28366980D01*
X29016176Y-27366980D02*
X28349509Y-28366980D01*
X28349509Y-27366980D02*
X29016176Y-28366980D01*
X27444747Y-28366980D02*
X28016176Y-28366980D01*
X27730461Y-28366980D02*
X27730461Y-27366980D01*
X27825700Y-27509838D01*
X27920938Y-27605076D01*
X28016176Y-27652695D01*
X26539985Y-27366980D02*
X27016176Y-27366980D01*
X27063795Y-27843171D01*
X27016176Y-27795552D01*
X26920938Y-27747933D01*
X26682842Y-27747933D01*
X26587604Y-27795552D01*
X26539985Y-27843171D01*
X26492366Y-27938409D01*
X26492366Y-28176504D01*
X26539985Y-28271742D01*
X26587604Y-28319361D01*
X26682842Y-28366980D01*
X26920938Y-28366980D01*
X27016176Y-28319361D01*
X27063795Y-28271742D01*
X25920938Y-27795552D02*
X26016176Y-27747933D01*
X26063795Y-27700314D01*
X26111414Y-27605076D01*
X26111414Y-27557457D01*
X26063795Y-27462219D01*
X26016176Y-27414600D01*
X25920938Y-27366980D01*
X25730461Y-27366980D01*
X25635223Y-27414600D01*
X25587604Y-27462219D01*
X25539985Y-27557457D01*
X25539985Y-27605076D01*
X25587604Y-27700314D01*
X25635223Y-27747933D01*
X25730461Y-27795552D01*
X25920938Y-27795552D01*
X26016176Y-27843171D01*
X26063795Y-27890790D01*
X26111414Y-27986028D01*
X26111414Y-28176504D01*
X26063795Y-28271742D01*
X26016176Y-28319361D01*
X25920938Y-28366980D01*
X25730461Y-28366980D01*
X25635223Y-28319361D01*
X25587604Y-28271742D01*
X25539985Y-28176504D01*
X25539985Y-27986028D01*
X25587604Y-27890790D01*
X25635223Y-27843171D01*
X25730461Y-27795552D01*
%TO.C,MX116*%
X153939595Y-9342380D02*
X153939595Y-8342380D01*
X153606261Y-9056666D01*
X153272928Y-8342380D01*
X153272928Y-9342380D01*
X152891976Y-8342380D02*
X152225309Y-9342380D01*
X152225309Y-8342380D02*
X152891976Y-9342380D01*
X151320547Y-9342380D02*
X151891976Y-9342380D01*
X151606261Y-9342380D02*
X151606261Y-8342380D01*
X151701500Y-8485238D01*
X151796738Y-8580476D01*
X151891976Y-8628095D01*
X150368166Y-9342380D02*
X150939595Y-9342380D01*
X150653880Y-9342380D02*
X150653880Y-8342380D01*
X150749119Y-8485238D01*
X150844357Y-8580476D01*
X150939595Y-8628095D01*
X149511023Y-8342380D02*
X149701500Y-8342380D01*
X149796738Y-8390000D01*
X149844357Y-8437619D01*
X149939595Y-8580476D01*
X149987214Y-8770952D01*
X149987214Y-9151904D01*
X149939595Y-9247142D01*
X149891976Y-9294761D01*
X149796738Y-9342380D01*
X149606261Y-9342380D01*
X149511023Y-9294761D01*
X149463404Y-9247142D01*
X149415785Y-9151904D01*
X149415785Y-8913809D01*
X149463404Y-8818571D01*
X149511023Y-8770952D01*
X149606261Y-8723333D01*
X149796738Y-8723333D01*
X149891976Y-8770952D01*
X149939595Y-8818571D01*
X149987214Y-8913809D01*
%TO.C,MX154*%
X-79473704Y-28366980D02*
X-79473704Y-27366980D01*
X-79807038Y-28081266D01*
X-80140371Y-27366980D01*
X-80140371Y-28366980D01*
X-80521323Y-27366980D02*
X-81187990Y-28366980D01*
X-81187990Y-27366980D02*
X-80521323Y-28366980D01*
X-82092752Y-28366980D02*
X-81521323Y-28366980D01*
X-81807038Y-28366980D02*
X-81807038Y-27366980D01*
X-81711800Y-27509838D01*
X-81616561Y-27605076D01*
X-81521323Y-27652695D01*
X-82997514Y-27366980D02*
X-82521323Y-27366980D01*
X-82473704Y-27843171D01*
X-82521323Y-27795552D01*
X-82616561Y-27747933D01*
X-82854657Y-27747933D01*
X-82949895Y-27795552D01*
X-82997514Y-27843171D01*
X-83045133Y-27938409D01*
X-83045133Y-28176504D01*
X-82997514Y-28271742D01*
X-82949895Y-28319361D01*
X-82854657Y-28366980D01*
X-82616561Y-28366980D01*
X-82521323Y-28319361D01*
X-82473704Y-28271742D01*
X-83902276Y-27700314D02*
X-83902276Y-28366980D01*
X-83664180Y-27319361D02*
X-83426085Y-28033647D01*
X-84045133Y-28033647D01*
%TO.C,MX26*%
X191563404Y52633619D02*
X191563404Y53633619D01*
X191230071Y52919333D01*
X190896738Y53633619D01*
X190896738Y52633619D01*
X190515785Y53633619D02*
X189849119Y52633619D01*
X189849119Y53633619D02*
X190515785Y52633619D01*
X189515785Y53538380D02*
X189468166Y53586000D01*
X189372928Y53633619D01*
X189134833Y53633619D01*
X189039595Y53586000D01*
X188991976Y53538380D01*
X188944357Y53443142D01*
X188944357Y53347904D01*
X188991976Y53205047D01*
X189563404Y52633619D01*
X188944357Y52633619D01*
X188087214Y53633619D02*
X188277690Y53633619D01*
X188372928Y53586000D01*
X188420547Y53538380D01*
X188515785Y53395523D01*
X188563404Y53205047D01*
X188563404Y52824095D01*
X188515785Y52728857D01*
X188468166Y52681238D01*
X188372928Y52633619D01*
X188182452Y52633619D01*
X188087214Y52681238D01*
X188039595Y52728857D01*
X187991976Y52824095D01*
X187991976Y53062190D01*
X188039595Y53157428D01*
X188087214Y53205047D01*
X188182452Y53252666D01*
X188372928Y53252666D01*
X188468166Y53205047D01*
X188515785Y53157428D01*
X188563404Y53062190D01*
%TO.C,MX20*%
X48637604Y52595519D02*
X48637604Y53595519D01*
X48304271Y52881233D01*
X47970938Y53595519D01*
X47970938Y52595519D01*
X47589985Y53595519D02*
X46923319Y52595519D01*
X46923319Y53595519D02*
X47589985Y52595519D01*
X46589985Y53500280D02*
X46542366Y53547900D01*
X46447128Y53595519D01*
X46209033Y53595519D01*
X46113795Y53547900D01*
X46066176Y53500280D01*
X46018557Y53405042D01*
X46018557Y53309804D01*
X46066176Y53166947D01*
X46637604Y52595519D01*
X46018557Y52595519D01*
X45399509Y53595519D02*
X45304271Y53595519D01*
X45209033Y53547900D01*
X45161414Y53500280D01*
X45113795Y53405042D01*
X45066176Y53214566D01*
X45066176Y52976471D01*
X45113795Y52785995D01*
X45161414Y52690757D01*
X45209033Y52643138D01*
X45304271Y52595519D01*
X45399509Y52595519D01*
X45494747Y52643138D01*
X45542366Y52690757D01*
X45589985Y52785995D01*
X45637604Y52976471D01*
X45637604Y53214566D01*
X45589985Y53405042D01*
X45542366Y53500280D01*
X45494747Y53547900D01*
X45399509Y53595519D01*
%TO.C,MX159*%
X49113795Y-28366980D02*
X49113795Y-27366980D01*
X48780461Y-28081266D01*
X48447128Y-27366980D01*
X48447128Y-28366980D01*
X48066176Y-27366980D02*
X47399509Y-28366980D01*
X47399509Y-27366980D02*
X48066176Y-28366980D01*
X46494747Y-28366980D02*
X47066176Y-28366980D01*
X46780461Y-28366980D02*
X46780461Y-27366980D01*
X46875700Y-27509838D01*
X46970938Y-27605076D01*
X47066176Y-27652695D01*
X45589985Y-27366980D02*
X46066176Y-27366980D01*
X46113795Y-27843171D01*
X46066176Y-27795552D01*
X45970938Y-27747933D01*
X45732842Y-27747933D01*
X45637604Y-27795552D01*
X45589985Y-27843171D01*
X45542366Y-27938409D01*
X45542366Y-28176504D01*
X45589985Y-28271742D01*
X45637604Y-28319361D01*
X45732842Y-28366980D01*
X45970938Y-28366980D01*
X46066176Y-28319361D01*
X46113795Y-28271742D01*
X45066176Y-28366980D02*
X44875700Y-28366980D01*
X44780461Y-28319361D01*
X44732842Y-28271742D01*
X44637604Y-28128885D01*
X44589985Y-27938409D01*
X44589985Y-27557457D01*
X44637604Y-27462219D01*
X44685223Y-27414600D01*
X44780461Y-27366980D01*
X44970938Y-27366980D01*
X45066176Y-27414600D01*
X45113795Y-27462219D01*
X45161414Y-27557457D01*
X45161414Y-27795552D01*
X45113795Y-27890790D01*
X45066176Y-27938409D01*
X44970938Y-27986028D01*
X44780461Y-27986028D01*
X44685223Y-27938409D01*
X44637604Y-27890790D01*
X44589985Y-27795552D01*
%TO.C,MX182*%
X-79473704Y-47416980D02*
X-79473704Y-46416980D01*
X-79807038Y-47131266D01*
X-80140371Y-46416980D01*
X-80140371Y-47416980D01*
X-80521323Y-46416980D02*
X-81187990Y-47416980D01*
X-81187990Y-46416980D02*
X-80521323Y-47416980D01*
X-82092752Y-47416980D02*
X-81521323Y-47416980D01*
X-81807038Y-47416980D02*
X-81807038Y-46416980D01*
X-81711800Y-46559838D01*
X-81616561Y-46655076D01*
X-81521323Y-46702695D01*
X-82664180Y-46845552D02*
X-82568942Y-46797933D01*
X-82521323Y-46750314D01*
X-82473704Y-46655076D01*
X-82473704Y-46607457D01*
X-82521323Y-46512219D01*
X-82568942Y-46464600D01*
X-82664180Y-46416980D01*
X-82854657Y-46416980D01*
X-82949895Y-46464600D01*
X-82997514Y-46512219D01*
X-83045133Y-46607457D01*
X-83045133Y-46655076D01*
X-82997514Y-46750314D01*
X-82949895Y-46797933D01*
X-82854657Y-46845552D01*
X-82664180Y-46845552D01*
X-82568942Y-46893171D01*
X-82521323Y-46940790D01*
X-82473704Y-47036028D01*
X-82473704Y-47226504D01*
X-82521323Y-47321742D01*
X-82568942Y-47369361D01*
X-82664180Y-47416980D01*
X-82854657Y-47416980D01*
X-82949895Y-47369361D01*
X-82997514Y-47321742D01*
X-83045133Y-47226504D01*
X-83045133Y-47036028D01*
X-82997514Y-46940790D01*
X-82949895Y-46893171D01*
X-82854657Y-46845552D01*
X-83426085Y-46512219D02*
X-83473704Y-46464600D01*
X-83568942Y-46416980D01*
X-83807038Y-46416980D01*
X-83902276Y-46464600D01*
X-83949895Y-46512219D01*
X-83997514Y-46607457D01*
X-83997514Y-46702695D01*
X-83949895Y-46845552D01*
X-83378466Y-47416980D01*
X-83997514Y-47416980D01*
%TO.C,MX152*%
X258651095Y-33142180D02*
X258651095Y-32142180D01*
X258317761Y-32856466D01*
X257984428Y-32142180D01*
X257984428Y-33142180D01*
X257603476Y-32142180D02*
X256936809Y-33142180D01*
X256936809Y-32142180D02*
X257603476Y-33142180D01*
X256032047Y-33142180D02*
X256603476Y-33142180D01*
X256317761Y-33142180D02*
X256317761Y-32142180D01*
X256413000Y-32285038D01*
X256508238Y-32380276D01*
X256603476Y-32427895D01*
X255127285Y-32142180D02*
X255603476Y-32142180D01*
X255651095Y-32618371D01*
X255603476Y-32570752D01*
X255508238Y-32523133D01*
X255270142Y-32523133D01*
X255174904Y-32570752D01*
X255127285Y-32618371D01*
X255079666Y-32713609D01*
X255079666Y-32951704D01*
X255127285Y-33046942D01*
X255174904Y-33094561D01*
X255270142Y-33142180D01*
X255508238Y-33142180D01*
X255603476Y-33094561D01*
X255651095Y-33046942D01*
X254698714Y-32237419D02*
X254651095Y-32189800D01*
X254555857Y-32142180D01*
X254317761Y-32142180D01*
X254222523Y-32189800D01*
X254174904Y-32237419D01*
X254127285Y-32332657D01*
X254127285Y-32427895D01*
X254174904Y-32570752D01*
X254746333Y-33142180D01*
X254127285Y-33142180D01*
%TO.C,MX61*%
X243950904Y28757619D02*
X243950904Y29757619D01*
X243617571Y29043333D01*
X243284238Y29757619D01*
X243284238Y28757619D01*
X242903285Y29757619D02*
X242236619Y28757619D01*
X242236619Y29757619D02*
X242903285Y28757619D01*
X241427095Y29757619D02*
X241617571Y29757619D01*
X241712809Y29710000D01*
X241760428Y29662380D01*
X241855666Y29519523D01*
X241903285Y29329047D01*
X241903285Y28948095D01*
X241855666Y28852857D01*
X241808047Y28805238D01*
X241712809Y28757619D01*
X241522333Y28757619D01*
X241427095Y28805238D01*
X241379476Y28852857D01*
X241331857Y28948095D01*
X241331857Y29186190D01*
X241379476Y29281428D01*
X241427095Y29329047D01*
X241522333Y29376666D01*
X241712809Y29376666D01*
X241808047Y29329047D01*
X241855666Y29281428D01*
X241903285Y29186190D01*
X240379476Y28757619D02*
X240950904Y28757619D01*
X240665190Y28757619D02*
X240665190Y29757619D01*
X240760428Y29614761D01*
X240855666Y29519523D01*
X240950904Y29471904D01*
%TO.C,MX121*%
X282527095Y-9342380D02*
X282527095Y-8342380D01*
X282193761Y-9056666D01*
X281860428Y-8342380D01*
X281860428Y-9342380D01*
X281479476Y-8342380D02*
X280812809Y-9342380D01*
X280812809Y-8342380D02*
X281479476Y-9342380D01*
X279908047Y-9342380D02*
X280479476Y-9342380D01*
X280193761Y-9342380D02*
X280193761Y-8342380D01*
X280289000Y-8485238D01*
X280384238Y-8580476D01*
X280479476Y-8628095D01*
X279527095Y-8437619D02*
X279479476Y-8390000D01*
X279384238Y-8342380D01*
X279146142Y-8342380D01*
X279050904Y-8390000D01*
X279003285Y-8437619D01*
X278955666Y-8532857D01*
X278955666Y-8628095D01*
X279003285Y-8770952D01*
X279574714Y-9342380D01*
X278955666Y-9342380D01*
X278003285Y-9342380D02*
X278574714Y-9342380D01*
X278289000Y-9342380D02*
X278289000Y-8342380D01*
X278384238Y-8485238D01*
X278479476Y-8580476D01*
X278574714Y-8628095D01*
%TO.C,MX120*%
X242045845Y-9342380D02*
X242045845Y-8342380D01*
X241712511Y-9056666D01*
X241379178Y-8342380D01*
X241379178Y-9342380D01*
X240998226Y-8342380D02*
X240331559Y-9342380D01*
X240331559Y-8342380D02*
X240998226Y-9342380D01*
X239426797Y-9342380D02*
X239998226Y-9342380D01*
X239712511Y-9342380D02*
X239712511Y-8342380D01*
X239807750Y-8485238D01*
X239902988Y-8580476D01*
X239998226Y-8628095D01*
X239045845Y-8437619D02*
X238998226Y-8390000D01*
X238902988Y-8342380D01*
X238664892Y-8342380D01*
X238569654Y-8390000D01*
X238522035Y-8437619D01*
X238474416Y-8532857D01*
X238474416Y-8628095D01*
X238522035Y-8770952D01*
X239093464Y-9342380D01*
X238474416Y-9342380D01*
X237855369Y-8342380D02*
X237760130Y-8342380D01*
X237664892Y-8390000D01*
X237617273Y-8437619D01*
X237569654Y-8532857D01*
X237522035Y-8723333D01*
X237522035Y-8961428D01*
X237569654Y-9151904D01*
X237617273Y-9247142D01*
X237664892Y-9294761D01*
X237760130Y-9342380D01*
X237855369Y-9342380D01*
X237950607Y-9294761D01*
X237998226Y-9247142D01*
X238045845Y-9151904D01*
X238093464Y-8961428D01*
X238093464Y-8723333D01*
X238045845Y-8532857D01*
X237998226Y-8437619D01*
X237950607Y-8390000D01*
X237855369Y-8342380D01*
%TO.C,MX80*%
X110600904Y9707619D02*
X110600904Y10707619D01*
X110267571Y9993333D01*
X109934238Y10707619D01*
X109934238Y9707619D01*
X109553285Y10707619D02*
X108886619Y9707619D01*
X108886619Y10707619D02*
X109553285Y9707619D01*
X108362809Y10279047D02*
X108458047Y10326666D01*
X108505666Y10374285D01*
X108553285Y10469523D01*
X108553285Y10517142D01*
X108505666Y10612380D01*
X108458047Y10660000D01*
X108362809Y10707619D01*
X108172333Y10707619D01*
X108077095Y10660000D01*
X108029476Y10612380D01*
X107981857Y10517142D01*
X107981857Y10469523D01*
X108029476Y10374285D01*
X108077095Y10326666D01*
X108172333Y10279047D01*
X108362809Y10279047D01*
X108458047Y10231428D01*
X108505666Y10183809D01*
X108553285Y10088571D01*
X108553285Y9898095D01*
X108505666Y9802857D01*
X108458047Y9755238D01*
X108362809Y9707619D01*
X108172333Y9707619D01*
X108077095Y9755238D01*
X108029476Y9802857D01*
X107981857Y9898095D01*
X107981857Y10088571D01*
X108029476Y10183809D01*
X108077095Y10231428D01*
X108172333Y10279047D01*
X107362809Y10707619D02*
X107267571Y10707619D01*
X107172333Y10660000D01*
X107124714Y10612380D01*
X107077095Y10517142D01*
X107029476Y10326666D01*
X107029476Y10088571D01*
X107077095Y9898095D01*
X107124714Y9802857D01*
X107172333Y9755238D01*
X107267571Y9707619D01*
X107362809Y9707619D01*
X107458047Y9755238D01*
X107505666Y9802857D01*
X107553285Y9898095D01*
X107600904Y10088571D01*
X107600904Y10326666D01*
X107553285Y10517142D01*
X107505666Y10612380D01*
X107458047Y10660000D01*
X107362809Y10707619D01*
%TO.C,MX85*%
X205850904Y9707619D02*
X205850904Y10707619D01*
X205517571Y9993333D01*
X205184238Y10707619D01*
X205184238Y9707619D01*
X204803285Y10707619D02*
X204136619Y9707619D01*
X204136619Y10707619D02*
X204803285Y9707619D01*
X203612809Y10279047D02*
X203708047Y10326666D01*
X203755666Y10374285D01*
X203803285Y10469523D01*
X203803285Y10517142D01*
X203755666Y10612380D01*
X203708047Y10660000D01*
X203612809Y10707619D01*
X203422333Y10707619D01*
X203327095Y10660000D01*
X203279476Y10612380D01*
X203231857Y10517142D01*
X203231857Y10469523D01*
X203279476Y10374285D01*
X203327095Y10326666D01*
X203422333Y10279047D01*
X203612809Y10279047D01*
X203708047Y10231428D01*
X203755666Y10183809D01*
X203803285Y10088571D01*
X203803285Y9898095D01*
X203755666Y9802857D01*
X203708047Y9755238D01*
X203612809Y9707619D01*
X203422333Y9707619D01*
X203327095Y9755238D01*
X203279476Y9802857D01*
X203231857Y9898095D01*
X203231857Y10088571D01*
X203279476Y10183809D01*
X203327095Y10231428D01*
X203422333Y10279047D01*
X202327095Y10707619D02*
X202803285Y10707619D01*
X202850904Y10231428D01*
X202803285Y10279047D01*
X202708047Y10326666D01*
X202469952Y10326666D01*
X202374714Y10279047D01*
X202327095Y10231428D01*
X202279476Y10136190D01*
X202279476Y9898095D01*
X202327095Y9802857D01*
X202374714Y9755238D01*
X202469952Y9707619D01*
X202708047Y9707619D01*
X202803285Y9755238D01*
X202850904Y9802857D01*
%TO.C,MX160*%
X68163795Y-28366980D02*
X68163795Y-27366980D01*
X67830461Y-28081266D01*
X67497128Y-27366980D01*
X67497128Y-28366980D01*
X67116176Y-27366980D02*
X66449509Y-28366980D01*
X66449509Y-27366980D02*
X67116176Y-28366980D01*
X65544747Y-28366980D02*
X66116176Y-28366980D01*
X65830461Y-28366980D02*
X65830461Y-27366980D01*
X65925700Y-27509838D01*
X66020938Y-27605076D01*
X66116176Y-27652695D01*
X64687604Y-27366980D02*
X64878080Y-27366980D01*
X64973319Y-27414600D01*
X65020938Y-27462219D01*
X65116176Y-27605076D01*
X65163795Y-27795552D01*
X65163795Y-28176504D01*
X65116176Y-28271742D01*
X65068557Y-28319361D01*
X64973319Y-28366980D01*
X64782842Y-28366980D01*
X64687604Y-28319361D01*
X64639985Y-28271742D01*
X64592366Y-28176504D01*
X64592366Y-27938409D01*
X64639985Y-27843171D01*
X64687604Y-27795552D01*
X64782842Y-27747933D01*
X64973319Y-27747933D01*
X65068557Y-27795552D01*
X65116176Y-27843171D01*
X65163795Y-27938409D01*
X63973319Y-27366980D02*
X63878080Y-27366980D01*
X63782842Y-27414600D01*
X63735223Y-27462219D01*
X63687604Y-27557457D01*
X63639985Y-27747933D01*
X63639985Y-27986028D01*
X63687604Y-28176504D01*
X63735223Y-28271742D01*
X63782842Y-28319361D01*
X63878080Y-28366980D01*
X63973319Y-28366980D01*
X64068557Y-28319361D01*
X64116176Y-28271742D01*
X64163795Y-28176504D01*
X64211414Y-27986028D01*
X64211414Y-27747933D01*
X64163795Y-27557457D01*
X64116176Y-27462219D01*
X64068557Y-27414600D01*
X63973319Y-27366980D01*
%TO.C,JP2*%
X59446380Y96657619D02*
X59779714Y97133809D01*
X60017809Y96657619D02*
X60017809Y97657619D01*
X59636857Y97657619D01*
X59541619Y97610000D01*
X59494000Y97562380D01*
X59446380Y97467142D01*
X59446380Y97324285D01*
X59494000Y97229047D01*
X59541619Y97181428D01*
X59636857Y97133809D01*
X60017809Y97133809D01*
X59017809Y97181428D02*
X58684476Y97181428D01*
X58541619Y96657619D02*
X59017809Y96657619D01*
X59017809Y97657619D01*
X58541619Y97657619D01*
X58160666Y96705238D02*
X58017809Y96657619D01*
X57779714Y96657619D01*
X57684476Y96705238D01*
X57636857Y96752857D01*
X57589238Y96848095D01*
X57589238Y96943333D01*
X57636857Y97038571D01*
X57684476Y97086190D01*
X57779714Y97133809D01*
X57970190Y97181428D01*
X58065428Y97229047D01*
X58113047Y97276666D01*
X58160666Y97371904D01*
X58160666Y97467142D01*
X58113047Y97562380D01*
X58065428Y97610000D01*
X57970190Y97657619D01*
X57732095Y97657619D01*
X57589238Y97610000D01*
X57160666Y97181428D02*
X56827333Y97181428D01*
X56684476Y96657619D02*
X57160666Y96657619D01*
X57160666Y97657619D01*
X56684476Y97657619D01*
X56398761Y97657619D02*
X55827333Y97657619D01*
X56113047Y96657619D02*
X56113047Y97657619D01*
%TO.C,MX175*%
X139652095Y-47442380D02*
X139652095Y-46442380D01*
X139318761Y-47156666D01*
X138985428Y-46442380D01*
X138985428Y-47442380D01*
X138604476Y-46442380D02*
X137937809Y-47442380D01*
X137937809Y-46442380D02*
X138604476Y-47442380D01*
X137033047Y-47442380D02*
X137604476Y-47442380D01*
X137318761Y-47442380D02*
X137318761Y-46442380D01*
X137414000Y-46585238D01*
X137509238Y-46680476D01*
X137604476Y-46728095D01*
X136699714Y-46442380D02*
X136033047Y-46442380D01*
X136461619Y-47442380D01*
X135175904Y-46442380D02*
X135652095Y-46442380D01*
X135699714Y-46918571D01*
X135652095Y-46870952D01*
X135556857Y-46823333D01*
X135318761Y-46823333D01*
X135223523Y-46870952D01*
X135175904Y-46918571D01*
X135128285Y-47013809D01*
X135128285Y-47251904D01*
X135175904Y-47347142D01*
X135223523Y-47394761D01*
X135318761Y-47442380D01*
X135556857Y-47442380D01*
X135652095Y-47394761D01*
X135699714Y-47347142D01*
%TO.C,MX23*%
X129650904Y52633619D02*
X129650904Y53633619D01*
X129317571Y52919333D01*
X128984238Y53633619D01*
X128984238Y52633619D01*
X128603285Y53633619D02*
X127936619Y52633619D01*
X127936619Y53633619D02*
X128603285Y52633619D01*
X127603285Y53538380D02*
X127555666Y53586000D01*
X127460428Y53633619D01*
X127222333Y53633619D01*
X127127095Y53586000D01*
X127079476Y53538380D01*
X127031857Y53443142D01*
X127031857Y53347904D01*
X127079476Y53205047D01*
X127650904Y52633619D01*
X127031857Y52633619D01*
X126698523Y53633619D02*
X126079476Y53633619D01*
X126412809Y53252666D01*
X126269952Y53252666D01*
X126174714Y53205047D01*
X126127095Y53157428D01*
X126079476Y53062190D01*
X126079476Y52824095D01*
X126127095Y52728857D01*
X126174714Y52681238D01*
X126269952Y52633619D01*
X126555666Y52633619D01*
X126650904Y52681238D01*
X126698523Y52728857D01*
%TO.C,MX18*%
X10537604Y52595519D02*
X10537604Y53595519D01*
X10204271Y52881233D01*
X9870938Y53595519D01*
X9870938Y52595519D01*
X9489985Y53595519D02*
X8823319Y52595519D01*
X8823319Y53595519D02*
X9489985Y52595519D01*
X7918557Y52595519D02*
X8489985Y52595519D01*
X8204271Y52595519D02*
X8204271Y53595519D01*
X8299509Y53452661D01*
X8394747Y53357423D01*
X8489985Y53309804D01*
X7347128Y53166947D02*
X7442366Y53214566D01*
X7489985Y53262185D01*
X7537604Y53357423D01*
X7537604Y53405042D01*
X7489985Y53500280D01*
X7442366Y53547900D01*
X7347128Y53595519D01*
X7156652Y53595519D01*
X7061414Y53547900D01*
X7013795Y53500280D01*
X6966176Y53405042D01*
X6966176Y53357423D01*
X7013795Y53262185D01*
X7061414Y53214566D01*
X7156652Y53166947D01*
X7347128Y53166947D01*
X7442366Y53119328D01*
X7489985Y53071709D01*
X7537604Y52976471D01*
X7537604Y52785995D01*
X7489985Y52690757D01*
X7442366Y52643138D01*
X7347128Y52595519D01*
X7156652Y52595519D01*
X7061414Y52643138D01*
X7013795Y52690757D01*
X6966176Y52785995D01*
X6966176Y52976471D01*
X7013795Y53071709D01*
X7061414Y53119328D01*
X7156652Y53166947D01*
%TO.C,MX93*%
X15300104Y9733019D02*
X15300104Y10733019D01*
X14966771Y10018733D01*
X14633438Y10733019D01*
X14633438Y9733019D01*
X14252485Y10733019D02*
X13585819Y9733019D01*
X13585819Y10733019D02*
X14252485Y9733019D01*
X13157247Y9733019D02*
X12966771Y9733019D01*
X12871533Y9780638D01*
X12823914Y9828257D01*
X12728676Y9971114D01*
X12681057Y10161590D01*
X12681057Y10542542D01*
X12728676Y10637780D01*
X12776295Y10685400D01*
X12871533Y10733019D01*
X13062009Y10733019D01*
X13157247Y10685400D01*
X13204866Y10637780D01*
X13252485Y10542542D01*
X13252485Y10304447D01*
X13204866Y10209209D01*
X13157247Y10161590D01*
X13062009Y10113971D01*
X12871533Y10113971D01*
X12776295Y10161590D01*
X12728676Y10209209D01*
X12681057Y10304447D01*
X12347723Y10733019D02*
X11728676Y10733019D01*
X12062009Y10352066D01*
X11919152Y10352066D01*
X11823914Y10304447D01*
X11776295Y10256828D01*
X11728676Y10161590D01*
X11728676Y9923495D01*
X11776295Y9828257D01*
X11823914Y9780638D01*
X11919152Y9733019D01*
X12204866Y9733019D01*
X12300104Y9780638D01*
X12347723Y9828257D01*
%TO.C,MX119*%
X211089595Y-9342380D02*
X211089595Y-8342380D01*
X210756261Y-9056666D01*
X210422928Y-8342380D01*
X210422928Y-9342380D01*
X210041976Y-8342380D02*
X209375309Y-9342380D01*
X209375309Y-8342380D02*
X210041976Y-9342380D01*
X208470547Y-9342380D02*
X209041976Y-9342380D01*
X208756261Y-9342380D02*
X208756261Y-8342380D01*
X208851500Y-8485238D01*
X208946738Y-8580476D01*
X209041976Y-8628095D01*
X207518166Y-9342380D02*
X208089595Y-9342380D01*
X207803880Y-9342380D02*
X207803880Y-8342380D01*
X207899119Y-8485238D01*
X207994357Y-8580476D01*
X208089595Y-8628095D01*
X207041976Y-9342380D02*
X206851500Y-9342380D01*
X206756261Y-9294761D01*
X206708642Y-9247142D01*
X206613404Y-9104285D01*
X206565785Y-8913809D01*
X206565785Y-8532857D01*
X206613404Y-8437619D01*
X206661023Y-8390000D01*
X206756261Y-8342380D01*
X206946738Y-8342380D01*
X207041976Y-8390000D01*
X207089595Y-8437619D01*
X207137214Y-8532857D01*
X207137214Y-8770952D01*
X207089595Y-8866190D01*
X207041976Y-8913809D01*
X206946738Y-8961428D01*
X206756261Y-8961428D01*
X206661023Y-8913809D01*
X206613404Y-8866190D01*
X206565785Y-8770952D01*
%TO.C,MX60*%
X215375904Y28757619D02*
X215375904Y29757619D01*
X215042571Y29043333D01*
X214709238Y29757619D01*
X214709238Y28757619D01*
X214328285Y29757619D02*
X213661619Y28757619D01*
X213661619Y29757619D02*
X214328285Y28757619D01*
X212852095Y29757619D02*
X213042571Y29757619D01*
X213137809Y29710000D01*
X213185428Y29662380D01*
X213280666Y29519523D01*
X213328285Y29329047D01*
X213328285Y28948095D01*
X213280666Y28852857D01*
X213233047Y28805238D01*
X213137809Y28757619D01*
X212947333Y28757619D01*
X212852095Y28805238D01*
X212804476Y28852857D01*
X212756857Y28948095D01*
X212756857Y29186190D01*
X212804476Y29281428D01*
X212852095Y29329047D01*
X212947333Y29376666D01*
X213137809Y29376666D01*
X213233047Y29329047D01*
X213280666Y29281428D01*
X213328285Y29186190D01*
X212137809Y29757619D02*
X212042571Y29757619D01*
X211947333Y29710000D01*
X211899714Y29662380D01*
X211852095Y29567142D01*
X211804476Y29376666D01*
X211804476Y29138571D01*
X211852095Y28948095D01*
X211899714Y28852857D01*
X211947333Y28805238D01*
X212042571Y28757619D01*
X212137809Y28757619D01*
X212233047Y28805238D01*
X212280666Y28852857D01*
X212328285Y28948095D01*
X212375904Y29138571D01*
X212375904Y29376666D01*
X212328285Y29567142D01*
X212280666Y29662380D01*
X212233047Y29710000D01*
X212137809Y29757619D01*
%TO.C,MX124*%
X-24704954Y-9316980D02*
X-24704954Y-8316980D01*
X-25038288Y-9031266D01*
X-25371621Y-8316980D01*
X-25371621Y-9316980D01*
X-25752573Y-8316980D02*
X-26419240Y-9316980D01*
X-26419240Y-8316980D02*
X-25752573Y-9316980D01*
X-27324002Y-9316980D02*
X-26752573Y-9316980D01*
X-27038288Y-9316980D02*
X-27038288Y-8316980D01*
X-26943050Y-8459838D01*
X-26847811Y-8555076D01*
X-26752573Y-8602695D01*
X-27704954Y-8412219D02*
X-27752573Y-8364600D01*
X-27847811Y-8316980D01*
X-28085907Y-8316980D01*
X-28181145Y-8364600D01*
X-28228764Y-8412219D01*
X-28276383Y-8507457D01*
X-28276383Y-8602695D01*
X-28228764Y-8745552D01*
X-27657335Y-9316980D01*
X-28276383Y-9316980D01*
X-29133526Y-8650314D02*
X-29133526Y-9316980D01*
X-28895430Y-8269361D02*
X-28657335Y-8983647D01*
X-29276383Y-8983647D01*
%TO.C,MX81*%
X129650904Y9707619D02*
X129650904Y10707619D01*
X129317571Y9993333D01*
X128984238Y10707619D01*
X128984238Y9707619D01*
X128603285Y10707619D02*
X127936619Y9707619D01*
X127936619Y10707619D02*
X128603285Y9707619D01*
X127412809Y10279047D02*
X127508047Y10326666D01*
X127555666Y10374285D01*
X127603285Y10469523D01*
X127603285Y10517142D01*
X127555666Y10612380D01*
X127508047Y10660000D01*
X127412809Y10707619D01*
X127222333Y10707619D01*
X127127095Y10660000D01*
X127079476Y10612380D01*
X127031857Y10517142D01*
X127031857Y10469523D01*
X127079476Y10374285D01*
X127127095Y10326666D01*
X127222333Y10279047D01*
X127412809Y10279047D01*
X127508047Y10231428D01*
X127555666Y10183809D01*
X127603285Y10088571D01*
X127603285Y9898095D01*
X127555666Y9802857D01*
X127508047Y9755238D01*
X127412809Y9707619D01*
X127222333Y9707619D01*
X127127095Y9755238D01*
X127079476Y9802857D01*
X127031857Y9898095D01*
X127031857Y10088571D01*
X127079476Y10183809D01*
X127127095Y10231428D01*
X127222333Y10279047D01*
X126079476Y9707619D02*
X126650904Y9707619D01*
X126365190Y9707619D02*
X126365190Y10707619D01*
X126460428Y10564761D01*
X126555666Y10469523D01*
X126650904Y10421904D01*
%TO.C,MX62*%
X282050904Y28757619D02*
X282050904Y29757619D01*
X281717571Y29043333D01*
X281384238Y29757619D01*
X281384238Y28757619D01*
X281003285Y29757619D02*
X280336619Y28757619D01*
X280336619Y29757619D02*
X281003285Y28757619D01*
X279527095Y29757619D02*
X279717571Y29757619D01*
X279812809Y29710000D01*
X279860428Y29662380D01*
X279955666Y29519523D01*
X280003285Y29329047D01*
X280003285Y28948095D01*
X279955666Y28852857D01*
X279908047Y28805238D01*
X279812809Y28757619D01*
X279622333Y28757619D01*
X279527095Y28805238D01*
X279479476Y28852857D01*
X279431857Y28948095D01*
X279431857Y29186190D01*
X279479476Y29281428D01*
X279527095Y29329047D01*
X279622333Y29376666D01*
X279812809Y29376666D01*
X279908047Y29329047D01*
X279955666Y29281428D01*
X280003285Y29186190D01*
X279050904Y29662380D02*
X279003285Y29710000D01*
X278908047Y29757619D01*
X278669952Y29757619D01*
X278574714Y29710000D01*
X278527095Y29662380D01*
X278479476Y29567142D01*
X278479476Y29471904D01*
X278527095Y29329047D01*
X279098523Y28757619D01*
X278479476Y28757619D01*
%TO.C,MX186*%
X20538795Y-47416980D02*
X20538795Y-46416980D01*
X20205461Y-47131266D01*
X19872128Y-46416980D01*
X19872128Y-47416980D01*
X19491176Y-46416980D02*
X18824509Y-47416980D01*
X18824509Y-46416980D02*
X19491176Y-47416980D01*
X17919747Y-47416980D02*
X18491176Y-47416980D01*
X18205461Y-47416980D02*
X18205461Y-46416980D01*
X18300700Y-46559838D01*
X18395938Y-46655076D01*
X18491176Y-46702695D01*
X17348319Y-46845552D02*
X17443557Y-46797933D01*
X17491176Y-46750314D01*
X17538795Y-46655076D01*
X17538795Y-46607457D01*
X17491176Y-46512219D01*
X17443557Y-46464600D01*
X17348319Y-46416980D01*
X17157842Y-46416980D01*
X17062604Y-46464600D01*
X17014985Y-46512219D01*
X16967366Y-46607457D01*
X16967366Y-46655076D01*
X17014985Y-46750314D01*
X17062604Y-46797933D01*
X17157842Y-46845552D01*
X17348319Y-46845552D01*
X17443557Y-46893171D01*
X17491176Y-46940790D01*
X17538795Y-47036028D01*
X17538795Y-47226504D01*
X17491176Y-47321742D01*
X17443557Y-47369361D01*
X17348319Y-47416980D01*
X17157842Y-47416980D01*
X17062604Y-47369361D01*
X17014985Y-47321742D01*
X16967366Y-47226504D01*
X16967366Y-47036028D01*
X17014985Y-46940790D01*
X17062604Y-46893171D01*
X17157842Y-46845552D01*
X16110223Y-46416980D02*
X16300700Y-46416980D01*
X16395938Y-46464600D01*
X16443557Y-46512219D01*
X16538795Y-46655076D01*
X16586414Y-46845552D01*
X16586414Y-47226504D01*
X16538795Y-47321742D01*
X16491176Y-47369361D01*
X16395938Y-47416980D01*
X16205461Y-47416980D01*
X16110223Y-47369361D01*
X16062604Y-47321742D01*
X16014985Y-47226504D01*
X16014985Y-46988409D01*
X16062604Y-46893171D01*
X16110223Y-46845552D01*
X16205461Y-46797933D01*
X16395938Y-46797933D01*
X16491176Y-46845552D01*
X16538795Y-46893171D01*
X16586414Y-46988409D01*
%TO.C,MX126*%
X20538795Y-9316980D02*
X20538795Y-8316980D01*
X20205461Y-9031266D01*
X19872128Y-8316980D01*
X19872128Y-9316980D01*
X19491176Y-8316980D02*
X18824509Y-9316980D01*
X18824509Y-8316980D02*
X19491176Y-9316980D01*
X17919747Y-9316980D02*
X18491176Y-9316980D01*
X18205461Y-9316980D02*
X18205461Y-8316980D01*
X18300700Y-8459838D01*
X18395938Y-8555076D01*
X18491176Y-8602695D01*
X17538795Y-8412219D02*
X17491176Y-8364600D01*
X17395938Y-8316980D01*
X17157842Y-8316980D01*
X17062604Y-8364600D01*
X17014985Y-8412219D01*
X16967366Y-8507457D01*
X16967366Y-8602695D01*
X17014985Y-8745552D01*
X17586414Y-9316980D01*
X16967366Y-9316980D01*
X16110223Y-8316980D02*
X16300700Y-8316980D01*
X16395938Y-8364600D01*
X16443557Y-8412219D01*
X16538795Y-8555076D01*
X16586414Y-8745552D01*
X16586414Y-9126504D01*
X16538795Y-9221742D01*
X16491176Y-9269361D01*
X16395938Y-9316980D01*
X16205461Y-9316980D01*
X16110223Y-9269361D01*
X16062604Y-9221742D01*
X16014985Y-9126504D01*
X16014985Y-8888409D01*
X16062604Y-8793171D01*
X16110223Y-8745552D01*
X16205461Y-8697933D01*
X16395938Y-8697933D01*
X16491176Y-8745552D01*
X16538795Y-8793171D01*
X16586414Y-8888409D01*
%TO.C,MX29*%
X253475904Y52633619D02*
X253475904Y53633619D01*
X253142571Y52919333D01*
X252809238Y53633619D01*
X252809238Y52633619D01*
X252428285Y53633619D02*
X251761619Y52633619D01*
X251761619Y53633619D02*
X252428285Y52633619D01*
X251428285Y53538380D02*
X251380666Y53586000D01*
X251285428Y53633619D01*
X251047333Y53633619D01*
X250952095Y53586000D01*
X250904476Y53538380D01*
X250856857Y53443142D01*
X250856857Y53347904D01*
X250904476Y53205047D01*
X251475904Y52633619D01*
X250856857Y52633619D01*
X250380666Y52633619D02*
X250190190Y52633619D01*
X250094952Y52681238D01*
X250047333Y52728857D01*
X249952095Y52871714D01*
X249904476Y53062190D01*
X249904476Y53443142D01*
X249952095Y53538380D01*
X249999714Y53586000D01*
X250094952Y53633619D01*
X250285428Y53633619D01*
X250380666Y53586000D01*
X250428285Y53538380D01*
X250475904Y53443142D01*
X250475904Y53205047D01*
X250428285Y53109809D01*
X250380666Y53062190D01*
X250285428Y53014571D01*
X250094952Y53014571D01*
X249999714Y53062190D01*
X249952095Y53109809D01*
X249904476Y53205047D01*
%TO.C,MX187*%
X63401295Y-47416980D02*
X63401295Y-46416980D01*
X63067961Y-47131266D01*
X62734628Y-46416980D01*
X62734628Y-47416980D01*
X62353676Y-46416980D02*
X61687009Y-47416980D01*
X61687009Y-46416980D02*
X62353676Y-47416980D01*
X60782247Y-47416980D02*
X61353676Y-47416980D01*
X61067961Y-47416980D02*
X61067961Y-46416980D01*
X61163200Y-46559838D01*
X61258438Y-46655076D01*
X61353676Y-46702695D01*
X60210819Y-46845552D02*
X60306057Y-46797933D01*
X60353676Y-46750314D01*
X60401295Y-46655076D01*
X60401295Y-46607457D01*
X60353676Y-46512219D01*
X60306057Y-46464600D01*
X60210819Y-46416980D01*
X60020342Y-46416980D01*
X59925104Y-46464600D01*
X59877485Y-46512219D01*
X59829866Y-46607457D01*
X59829866Y-46655076D01*
X59877485Y-46750314D01*
X59925104Y-46797933D01*
X60020342Y-46845552D01*
X60210819Y-46845552D01*
X60306057Y-46893171D01*
X60353676Y-46940790D01*
X60401295Y-47036028D01*
X60401295Y-47226504D01*
X60353676Y-47321742D01*
X60306057Y-47369361D01*
X60210819Y-47416980D01*
X60020342Y-47416980D01*
X59925104Y-47369361D01*
X59877485Y-47321742D01*
X59829866Y-47226504D01*
X59829866Y-47036028D01*
X59877485Y-46940790D01*
X59925104Y-46893171D01*
X60020342Y-46845552D01*
X59496533Y-46416980D02*
X58829866Y-46416980D01*
X59258438Y-47416980D01*
%TO.C,MX122*%
X-79473704Y-9316980D02*
X-79473704Y-8316980D01*
X-79807038Y-9031266D01*
X-80140371Y-8316980D01*
X-80140371Y-9316980D01*
X-80521323Y-8316980D02*
X-81187990Y-9316980D01*
X-81187990Y-8316980D02*
X-80521323Y-9316980D01*
X-82092752Y-9316980D02*
X-81521323Y-9316980D01*
X-81807038Y-9316980D02*
X-81807038Y-8316980D01*
X-81711800Y-8459838D01*
X-81616561Y-8555076D01*
X-81521323Y-8602695D01*
X-82473704Y-8412219D02*
X-82521323Y-8364600D01*
X-82616561Y-8316980D01*
X-82854657Y-8316980D01*
X-82949895Y-8364600D01*
X-82997514Y-8412219D01*
X-83045133Y-8507457D01*
X-83045133Y-8602695D01*
X-82997514Y-8745552D01*
X-82426085Y-9316980D01*
X-83045133Y-9316980D01*
X-83426085Y-8412219D02*
X-83473704Y-8364600D01*
X-83568942Y-8316980D01*
X-83807038Y-8316980D01*
X-83902276Y-8364600D01*
X-83949895Y-8412219D01*
X-83997514Y-8507457D01*
X-83997514Y-8602695D01*
X-83949895Y-8745552D01*
X-83378466Y-9316980D01*
X-83997514Y-9316980D01*
%TO.C,MX55*%
X120125904Y28757619D02*
X120125904Y29757619D01*
X119792571Y29043333D01*
X119459238Y29757619D01*
X119459238Y28757619D01*
X119078285Y29757619D02*
X118411619Y28757619D01*
X118411619Y29757619D02*
X119078285Y28757619D01*
X117554476Y29757619D02*
X118030666Y29757619D01*
X118078285Y29281428D01*
X118030666Y29329047D01*
X117935428Y29376666D01*
X117697333Y29376666D01*
X117602095Y29329047D01*
X117554476Y29281428D01*
X117506857Y29186190D01*
X117506857Y28948095D01*
X117554476Y28852857D01*
X117602095Y28805238D01*
X117697333Y28757619D01*
X117935428Y28757619D01*
X118030666Y28805238D01*
X118078285Y28852857D01*
X116602095Y29757619D02*
X117078285Y29757619D01*
X117125904Y29281428D01*
X117078285Y29329047D01*
X116983047Y29376666D01*
X116744952Y29376666D01*
X116649714Y29329047D01*
X116602095Y29281428D01*
X116554476Y29186190D01*
X116554476Y28948095D01*
X116602095Y28852857D01*
X116649714Y28805238D01*
X116744952Y28757619D01*
X116983047Y28757619D01*
X117078285Y28805238D01*
X117125904Y28852857D01*
%TO.C,MX24*%
X148700904Y52633619D02*
X148700904Y53633619D01*
X148367571Y52919333D01*
X148034238Y53633619D01*
X148034238Y52633619D01*
X147653285Y53633619D02*
X146986619Y52633619D01*
X146986619Y53633619D02*
X147653285Y52633619D01*
X146653285Y53538380D02*
X146605666Y53586000D01*
X146510428Y53633619D01*
X146272333Y53633619D01*
X146177095Y53586000D01*
X146129476Y53538380D01*
X146081857Y53443142D01*
X146081857Y53347904D01*
X146129476Y53205047D01*
X146700904Y52633619D01*
X146081857Y52633619D01*
X145224714Y53300285D02*
X145224714Y52633619D01*
X145462809Y53681238D02*
X145700904Y52966952D01*
X145081857Y52966952D01*
%TO.C,MX96*%
X72450104Y9733019D02*
X72450104Y10733019D01*
X72116771Y10018733D01*
X71783438Y10733019D01*
X71783438Y9733019D01*
X71402485Y10733019D02*
X70735819Y9733019D01*
X70735819Y10733019D02*
X71402485Y9733019D01*
X70307247Y9733019D02*
X70116771Y9733019D01*
X70021533Y9780638D01*
X69973914Y9828257D01*
X69878676Y9971114D01*
X69831057Y10161590D01*
X69831057Y10542542D01*
X69878676Y10637780D01*
X69926295Y10685400D01*
X70021533Y10733019D01*
X70212009Y10733019D01*
X70307247Y10685400D01*
X70354866Y10637780D01*
X70402485Y10542542D01*
X70402485Y10304447D01*
X70354866Y10209209D01*
X70307247Y10161590D01*
X70212009Y10113971D01*
X70021533Y10113971D01*
X69926295Y10161590D01*
X69878676Y10209209D01*
X69831057Y10304447D01*
X68973914Y10733019D02*
X69164390Y10733019D01*
X69259628Y10685400D01*
X69307247Y10637780D01*
X69402485Y10494923D01*
X69450104Y10304447D01*
X69450104Y9923495D01*
X69402485Y9828257D01*
X69354866Y9780638D01*
X69259628Y9733019D01*
X69069152Y9733019D01*
X68973914Y9780638D01*
X68926295Y9828257D01*
X68878676Y9923495D01*
X68878676Y10161590D01*
X68926295Y10256828D01*
X68973914Y10304447D01*
X69069152Y10352066D01*
X69259628Y10352066D01*
X69354866Y10304447D01*
X69402485Y10256828D01*
X69450104Y10161590D01*
%TO.C,MX83*%
X167750904Y9707619D02*
X167750904Y10707619D01*
X167417571Y9993333D01*
X167084238Y10707619D01*
X167084238Y9707619D01*
X166703285Y10707619D02*
X166036619Y9707619D01*
X166036619Y10707619D02*
X166703285Y9707619D01*
X165512809Y10279047D02*
X165608047Y10326666D01*
X165655666Y10374285D01*
X165703285Y10469523D01*
X165703285Y10517142D01*
X165655666Y10612380D01*
X165608047Y10660000D01*
X165512809Y10707619D01*
X165322333Y10707619D01*
X165227095Y10660000D01*
X165179476Y10612380D01*
X165131857Y10517142D01*
X165131857Y10469523D01*
X165179476Y10374285D01*
X165227095Y10326666D01*
X165322333Y10279047D01*
X165512809Y10279047D01*
X165608047Y10231428D01*
X165655666Y10183809D01*
X165703285Y10088571D01*
X165703285Y9898095D01*
X165655666Y9802857D01*
X165608047Y9755238D01*
X165512809Y9707619D01*
X165322333Y9707619D01*
X165227095Y9755238D01*
X165179476Y9802857D01*
X165131857Y9898095D01*
X165131857Y10088571D01*
X165179476Y10183809D01*
X165227095Y10231428D01*
X165322333Y10279047D01*
X164798523Y10707619D02*
X164179476Y10707619D01*
X164512809Y10326666D01*
X164369952Y10326666D01*
X164274714Y10279047D01*
X164227095Y10231428D01*
X164179476Y10136190D01*
X164179476Y9898095D01*
X164227095Y9802857D01*
X164274714Y9755238D01*
X164369952Y9707619D01*
X164655666Y9707619D01*
X164750904Y9755238D01*
X164798523Y9802857D01*
%TO.C,MX123*%
X-60423704Y-9316980D02*
X-60423704Y-8316980D01*
X-60757038Y-9031266D01*
X-61090371Y-8316980D01*
X-61090371Y-9316980D01*
X-61471323Y-8316980D02*
X-62137990Y-9316980D01*
X-62137990Y-8316980D02*
X-61471323Y-9316980D01*
X-63042752Y-9316980D02*
X-62471323Y-9316980D01*
X-62757038Y-9316980D02*
X-62757038Y-8316980D01*
X-62661800Y-8459838D01*
X-62566561Y-8555076D01*
X-62471323Y-8602695D01*
X-63423704Y-8412219D02*
X-63471323Y-8364600D01*
X-63566561Y-8316980D01*
X-63804657Y-8316980D01*
X-63899895Y-8364600D01*
X-63947514Y-8412219D01*
X-63995133Y-8507457D01*
X-63995133Y-8602695D01*
X-63947514Y-8745552D01*
X-63376085Y-9316980D01*
X-63995133Y-9316980D01*
X-64328466Y-8316980D02*
X-64947514Y-8316980D01*
X-64614180Y-8697933D01*
X-64757038Y-8697933D01*
X-64852276Y-8745552D01*
X-64899895Y-8793171D01*
X-64947514Y-8888409D01*
X-64947514Y-9126504D01*
X-64899895Y-9221742D01*
X-64852276Y-9269361D01*
X-64757038Y-9316980D01*
X-64471323Y-9316980D01*
X-64376085Y-9269361D01*
X-64328466Y-9221742D01*
%TO.C,MX90*%
X-60899895Y9733019D02*
X-60899895Y10733019D01*
X-61233228Y10018733D01*
X-61566561Y10733019D01*
X-61566561Y9733019D01*
X-61947514Y10733019D02*
X-62614180Y9733019D01*
X-62614180Y10733019D02*
X-61947514Y9733019D01*
X-63042752Y9733019D02*
X-63233228Y9733019D01*
X-63328466Y9780638D01*
X-63376085Y9828257D01*
X-63471323Y9971114D01*
X-63518942Y10161590D01*
X-63518942Y10542542D01*
X-63471323Y10637780D01*
X-63423704Y10685400D01*
X-63328466Y10733019D01*
X-63137990Y10733019D01*
X-63042752Y10685400D01*
X-62995133Y10637780D01*
X-62947514Y10542542D01*
X-62947514Y10304447D01*
X-62995133Y10209209D01*
X-63042752Y10161590D01*
X-63137990Y10113971D01*
X-63328466Y10113971D01*
X-63423704Y10161590D01*
X-63471323Y10209209D01*
X-63518942Y10304447D01*
X-64137990Y10733019D02*
X-64233228Y10733019D01*
X-64328466Y10685400D01*
X-64376085Y10637780D01*
X-64423704Y10542542D01*
X-64471323Y10352066D01*
X-64471323Y10113971D01*
X-64423704Y9923495D01*
X-64376085Y9828257D01*
X-64328466Y9780638D01*
X-64233228Y9733019D01*
X-64137990Y9733019D01*
X-64042752Y9780638D01*
X-63995133Y9828257D01*
X-63947514Y9923495D01*
X-63899895Y10113971D01*
X-63899895Y10352066D01*
X-63947514Y10542542D01*
X-63995133Y10637780D01*
X-64042752Y10685400D01*
X-64137990Y10733019D01*
%TO.C,MX50*%
X5775104Y28783019D02*
X5775104Y29783019D01*
X5441771Y29068733D01*
X5108438Y29783019D01*
X5108438Y28783019D01*
X4727485Y29783019D02*
X4060819Y28783019D01*
X4060819Y29783019D02*
X4727485Y28783019D01*
X3203676Y29783019D02*
X3679866Y29783019D01*
X3727485Y29306828D01*
X3679866Y29354447D01*
X3584628Y29402066D01*
X3346533Y29402066D01*
X3251295Y29354447D01*
X3203676Y29306828D01*
X3156057Y29211590D01*
X3156057Y28973495D01*
X3203676Y28878257D01*
X3251295Y28830638D01*
X3346533Y28783019D01*
X3584628Y28783019D01*
X3679866Y28830638D01*
X3727485Y28878257D01*
X2537009Y29783019D02*
X2441771Y29783019D01*
X2346533Y29735400D01*
X2298914Y29687780D01*
X2251295Y29592542D01*
X2203676Y29402066D01*
X2203676Y29163971D01*
X2251295Y28973495D01*
X2298914Y28878257D01*
X2346533Y28830638D01*
X2441771Y28783019D01*
X2537009Y28783019D01*
X2632247Y28830638D01*
X2679866Y28878257D01*
X2727485Y28973495D01*
X2775104Y29163971D01*
X2775104Y29402066D01*
X2727485Y29592542D01*
X2679866Y29687780D01*
X2632247Y29735400D01*
X2537009Y29783019D01*
%TO.C,MX30*%
X282050904Y52633619D02*
X282050904Y53633619D01*
X281717571Y52919333D01*
X281384238Y53633619D01*
X281384238Y52633619D01*
X281003285Y53633619D02*
X280336619Y52633619D01*
X280336619Y53633619D02*
X281003285Y52633619D01*
X280050904Y53633619D02*
X279431857Y53633619D01*
X279765190Y53252666D01*
X279622333Y53252666D01*
X279527095Y53205047D01*
X279479476Y53157428D01*
X279431857Y53062190D01*
X279431857Y52824095D01*
X279479476Y52728857D01*
X279527095Y52681238D01*
X279622333Y52633619D01*
X279908047Y52633619D01*
X280003285Y52681238D01*
X280050904Y52728857D01*
X278812809Y53633619D02*
X278717571Y53633619D01*
X278622333Y53586000D01*
X278574714Y53538380D01*
X278527095Y53443142D01*
X278479476Y53252666D01*
X278479476Y53014571D01*
X278527095Y52824095D01*
X278574714Y52728857D01*
X278622333Y52681238D01*
X278717571Y52633619D01*
X278812809Y52633619D01*
X278908047Y52681238D01*
X278955666Y52728857D01*
X279003285Y52824095D01*
X279050904Y53014571D01*
X279050904Y53252666D01*
X279003285Y53443142D01*
X278955666Y53538380D01*
X278908047Y53586000D01*
X278812809Y53633619D01*
%TO.C,MX129*%
X77688795Y-9316980D02*
X77688795Y-8316980D01*
X77355461Y-9031266D01*
X77022128Y-8316980D01*
X77022128Y-9316980D01*
X76641176Y-8316980D02*
X75974509Y-9316980D01*
X75974509Y-8316980D02*
X76641176Y-9316980D01*
X75069747Y-9316980D02*
X75641176Y-9316980D01*
X75355461Y-9316980D02*
X75355461Y-8316980D01*
X75450700Y-8459838D01*
X75545938Y-8555076D01*
X75641176Y-8602695D01*
X74688795Y-8412219D02*
X74641176Y-8364600D01*
X74545938Y-8316980D01*
X74307842Y-8316980D01*
X74212604Y-8364600D01*
X74164985Y-8412219D01*
X74117366Y-8507457D01*
X74117366Y-8602695D01*
X74164985Y-8745552D01*
X74736414Y-9316980D01*
X74117366Y-9316980D01*
X73641176Y-9316980D02*
X73450700Y-9316980D01*
X73355461Y-9269361D01*
X73307842Y-9221742D01*
X73212604Y-9078885D01*
X73164985Y-8888409D01*
X73164985Y-8507457D01*
X73212604Y-8412219D01*
X73260223Y-8364600D01*
X73355461Y-8316980D01*
X73545938Y-8316980D01*
X73641176Y-8364600D01*
X73688795Y-8412219D01*
X73736414Y-8507457D01*
X73736414Y-8745552D01*
X73688795Y-8840790D01*
X73641176Y-8888409D01*
X73545938Y-8936028D01*
X73355461Y-8936028D01*
X73260223Y-8888409D01*
X73212604Y-8840790D01*
X73164985Y-8745552D01*
%TO.C,MX51*%
X24825104Y28783019D02*
X24825104Y29783019D01*
X24491771Y29068733D01*
X24158438Y29783019D01*
X24158438Y28783019D01*
X23777485Y29783019D02*
X23110819Y28783019D01*
X23110819Y29783019D02*
X23777485Y28783019D01*
X22253676Y29783019D02*
X22729866Y29783019D01*
X22777485Y29306828D01*
X22729866Y29354447D01*
X22634628Y29402066D01*
X22396533Y29402066D01*
X22301295Y29354447D01*
X22253676Y29306828D01*
X22206057Y29211590D01*
X22206057Y28973495D01*
X22253676Y28878257D01*
X22301295Y28830638D01*
X22396533Y28783019D01*
X22634628Y28783019D01*
X22729866Y28830638D01*
X22777485Y28878257D01*
X21253676Y28783019D02*
X21825104Y28783019D01*
X21539390Y28783019D02*
X21539390Y29783019D01*
X21634628Y29640161D01*
X21729866Y29544923D01*
X21825104Y29497304D01*
%TO.C,MX177*%
X196802095Y-47442380D02*
X196802095Y-46442380D01*
X196468761Y-47156666D01*
X196135428Y-46442380D01*
X196135428Y-47442380D01*
X195754476Y-46442380D02*
X195087809Y-47442380D01*
X195087809Y-46442380D02*
X195754476Y-47442380D01*
X194183047Y-47442380D02*
X194754476Y-47442380D01*
X194468761Y-47442380D02*
X194468761Y-46442380D01*
X194564000Y-46585238D01*
X194659238Y-46680476D01*
X194754476Y-46728095D01*
X193849714Y-46442380D02*
X193183047Y-46442380D01*
X193611619Y-47442380D01*
X192897333Y-46442380D02*
X192230666Y-46442380D01*
X192659238Y-47442380D01*
%TO.C,MX95*%
X53400104Y9733019D02*
X53400104Y10733019D01*
X53066771Y10018733D01*
X52733438Y10733019D01*
X52733438Y9733019D01*
X52352485Y10733019D02*
X51685819Y9733019D01*
X51685819Y10733019D02*
X52352485Y9733019D01*
X51257247Y9733019D02*
X51066771Y9733019D01*
X50971533Y9780638D01*
X50923914Y9828257D01*
X50828676Y9971114D01*
X50781057Y10161590D01*
X50781057Y10542542D01*
X50828676Y10637780D01*
X50876295Y10685400D01*
X50971533Y10733019D01*
X51162009Y10733019D01*
X51257247Y10685400D01*
X51304866Y10637780D01*
X51352485Y10542542D01*
X51352485Y10304447D01*
X51304866Y10209209D01*
X51257247Y10161590D01*
X51162009Y10113971D01*
X50971533Y10113971D01*
X50876295Y10161590D01*
X50828676Y10209209D01*
X50781057Y10304447D01*
X49876295Y10733019D02*
X50352485Y10733019D01*
X50400104Y10256828D01*
X50352485Y10304447D01*
X50257247Y10352066D01*
X50019152Y10352066D01*
X49923914Y10304447D01*
X49876295Y10256828D01*
X49828676Y10161590D01*
X49828676Y9923495D01*
X49876295Y9828257D01*
X49923914Y9780638D01*
X50019152Y9733019D01*
X50257247Y9733019D01*
X50352485Y9780638D01*
X50400104Y9828257D01*
%TO.C,MX184*%
X-27086204Y-47416980D02*
X-27086204Y-46416980D01*
X-27419538Y-47131266D01*
X-27752871Y-46416980D01*
X-27752871Y-47416980D01*
X-28133823Y-46416980D02*
X-28800490Y-47416980D01*
X-28800490Y-46416980D02*
X-28133823Y-47416980D01*
X-29705252Y-47416980D02*
X-29133823Y-47416980D01*
X-29419538Y-47416980D02*
X-29419538Y-46416980D01*
X-29324300Y-46559838D01*
X-29229061Y-46655076D01*
X-29133823Y-46702695D01*
X-30276680Y-46845552D02*
X-30181442Y-46797933D01*
X-30133823Y-46750314D01*
X-30086204Y-46655076D01*
X-30086204Y-46607457D01*
X-30133823Y-46512219D01*
X-30181442Y-46464600D01*
X-30276680Y-46416980D01*
X-30467157Y-46416980D01*
X-30562395Y-46464600D01*
X-30610014Y-46512219D01*
X-30657633Y-46607457D01*
X-30657633Y-46655076D01*
X-30610014Y-46750314D01*
X-30562395Y-46797933D01*
X-30467157Y-46845552D01*
X-30276680Y-46845552D01*
X-30181442Y-46893171D01*
X-30133823Y-46940790D01*
X-30086204Y-47036028D01*
X-30086204Y-47226504D01*
X-30133823Y-47321742D01*
X-30181442Y-47369361D01*
X-30276680Y-47416980D01*
X-30467157Y-47416980D01*
X-30562395Y-47369361D01*
X-30610014Y-47321742D01*
X-30657633Y-47226504D01*
X-30657633Y-47036028D01*
X-30610014Y-46940790D01*
X-30562395Y-46893171D01*
X-30467157Y-46845552D01*
X-31514776Y-46750314D02*
X-31514776Y-47416980D01*
X-31276680Y-46369361D02*
X-31038585Y-47083647D01*
X-31657633Y-47083647D01*
%TO.C,MX59*%
X196325904Y28757619D02*
X196325904Y29757619D01*
X195992571Y29043333D01*
X195659238Y29757619D01*
X195659238Y28757619D01*
X195278285Y29757619D02*
X194611619Y28757619D01*
X194611619Y29757619D02*
X195278285Y28757619D01*
X193754476Y29757619D02*
X194230666Y29757619D01*
X194278285Y29281428D01*
X194230666Y29329047D01*
X194135428Y29376666D01*
X193897333Y29376666D01*
X193802095Y29329047D01*
X193754476Y29281428D01*
X193706857Y29186190D01*
X193706857Y28948095D01*
X193754476Y28852857D01*
X193802095Y28805238D01*
X193897333Y28757619D01*
X194135428Y28757619D01*
X194230666Y28805238D01*
X194278285Y28852857D01*
X193230666Y28757619D02*
X193040190Y28757619D01*
X192944952Y28805238D01*
X192897333Y28852857D01*
X192802095Y28995714D01*
X192754476Y29186190D01*
X192754476Y29567142D01*
X192802095Y29662380D01*
X192849714Y29710000D01*
X192944952Y29757619D01*
X193135428Y29757619D01*
X193230666Y29710000D01*
X193278285Y29662380D01*
X193325904Y29567142D01*
X193325904Y29329047D01*
X193278285Y29233809D01*
X193230666Y29186190D01*
X193135428Y29138571D01*
X192944952Y29138571D01*
X192849714Y29186190D01*
X192802095Y29233809D01*
X192754476Y29329047D01*
%TO.C,MX17*%
X-8512395Y52595519D02*
X-8512395Y53595519D01*
X-8845728Y52881233D01*
X-9179061Y53595519D01*
X-9179061Y52595519D01*
X-9560014Y53595519D02*
X-10226680Y52595519D01*
X-10226680Y53595519D02*
X-9560014Y52595519D01*
X-11131442Y52595519D02*
X-10560014Y52595519D01*
X-10845728Y52595519D02*
X-10845728Y53595519D01*
X-10750490Y53452661D01*
X-10655252Y53357423D01*
X-10560014Y53309804D01*
X-11464776Y53595519D02*
X-12131442Y53595519D01*
X-11702871Y52595519D01*
%TO.C,MX117*%
X172989595Y-9342380D02*
X172989595Y-8342380D01*
X172656261Y-9056666D01*
X172322928Y-8342380D01*
X172322928Y-9342380D01*
X171941976Y-8342380D02*
X171275309Y-9342380D01*
X171275309Y-8342380D02*
X171941976Y-9342380D01*
X170370547Y-9342380D02*
X170941976Y-9342380D01*
X170656261Y-9342380D02*
X170656261Y-8342380D01*
X170751500Y-8485238D01*
X170846738Y-8580476D01*
X170941976Y-8628095D01*
X169418166Y-9342380D02*
X169989595Y-9342380D01*
X169703880Y-9342380D02*
X169703880Y-8342380D01*
X169799119Y-8485238D01*
X169894357Y-8580476D01*
X169989595Y-8628095D01*
X169084833Y-8342380D02*
X168418166Y-8342380D01*
X168846738Y-9342380D01*
%TO.C,MX94*%
X34350104Y9733019D02*
X34350104Y10733019D01*
X34016771Y10018733D01*
X33683438Y10733019D01*
X33683438Y9733019D01*
X33302485Y10733019D02*
X32635819Y9733019D01*
X32635819Y10733019D02*
X33302485Y9733019D01*
X32207247Y9733019D02*
X32016771Y9733019D01*
X31921533Y9780638D01*
X31873914Y9828257D01*
X31778676Y9971114D01*
X31731057Y10161590D01*
X31731057Y10542542D01*
X31778676Y10637780D01*
X31826295Y10685400D01*
X31921533Y10733019D01*
X32112009Y10733019D01*
X32207247Y10685400D01*
X32254866Y10637780D01*
X32302485Y10542542D01*
X32302485Y10304447D01*
X32254866Y10209209D01*
X32207247Y10161590D01*
X32112009Y10113971D01*
X31921533Y10113971D01*
X31826295Y10161590D01*
X31778676Y10209209D01*
X31731057Y10304447D01*
X30873914Y10399685D02*
X30873914Y9733019D01*
X31112009Y10780638D02*
X31350104Y10066352D01*
X30731057Y10066352D01*
%TO.C,MX115*%
X134889595Y-9342380D02*
X134889595Y-8342380D01*
X134556261Y-9056666D01*
X134222928Y-8342380D01*
X134222928Y-9342380D01*
X133841976Y-8342380D02*
X133175309Y-9342380D01*
X133175309Y-8342380D02*
X133841976Y-9342380D01*
X132270547Y-9342380D02*
X132841976Y-9342380D01*
X132556261Y-9342380D02*
X132556261Y-8342380D01*
X132651500Y-8485238D01*
X132746738Y-8580476D01*
X132841976Y-8628095D01*
X131318166Y-9342380D02*
X131889595Y-9342380D01*
X131603880Y-9342380D02*
X131603880Y-8342380D01*
X131699119Y-8485238D01*
X131794357Y-8580476D01*
X131889595Y-8628095D01*
X130413404Y-8342380D02*
X130889595Y-8342380D01*
X130937214Y-8818571D01*
X130889595Y-8770952D01*
X130794357Y-8723333D01*
X130556261Y-8723333D01*
X130461023Y-8770952D01*
X130413404Y-8818571D01*
X130365785Y-8913809D01*
X130365785Y-9151904D01*
X130413404Y-9247142D01*
X130461023Y-9294761D01*
X130556261Y-9342380D01*
X130794357Y-9342380D01*
X130889595Y-9294761D01*
X130937214Y-9247142D01*
%TO.C,MX87*%
X248713404Y9707619D02*
X248713404Y10707619D01*
X248380071Y9993333D01*
X248046738Y10707619D01*
X248046738Y9707619D01*
X247665785Y10707619D02*
X246999119Y9707619D01*
X246999119Y10707619D02*
X247665785Y9707619D01*
X246475309Y10279047D02*
X246570547Y10326666D01*
X246618166Y10374285D01*
X246665785Y10469523D01*
X246665785Y10517142D01*
X246618166Y10612380D01*
X246570547Y10660000D01*
X246475309Y10707619D01*
X246284833Y10707619D01*
X246189595Y10660000D01*
X246141976Y10612380D01*
X246094357Y10517142D01*
X246094357Y10469523D01*
X246141976Y10374285D01*
X246189595Y10326666D01*
X246284833Y10279047D01*
X246475309Y10279047D01*
X246570547Y10231428D01*
X246618166Y10183809D01*
X246665785Y10088571D01*
X246665785Y9898095D01*
X246618166Y9802857D01*
X246570547Y9755238D01*
X246475309Y9707619D01*
X246284833Y9707619D01*
X246189595Y9755238D01*
X246141976Y9802857D01*
X246094357Y9898095D01*
X246094357Y10088571D01*
X246141976Y10183809D01*
X246189595Y10231428D01*
X246284833Y10279047D01*
X245761023Y10707619D02*
X245094357Y10707619D01*
X245522928Y9707619D01*
%TO.C,MX53*%
X62925104Y28783019D02*
X62925104Y29783019D01*
X62591771Y29068733D01*
X62258438Y29783019D01*
X62258438Y28783019D01*
X61877485Y29783019D02*
X61210819Y28783019D01*
X61210819Y29783019D02*
X61877485Y28783019D01*
X60353676Y29783019D02*
X60829866Y29783019D01*
X60877485Y29306828D01*
X60829866Y29354447D01*
X60734628Y29402066D01*
X60496533Y29402066D01*
X60401295Y29354447D01*
X60353676Y29306828D01*
X60306057Y29211590D01*
X60306057Y28973495D01*
X60353676Y28878257D01*
X60401295Y28830638D01*
X60496533Y28783019D01*
X60734628Y28783019D01*
X60829866Y28830638D01*
X60877485Y28878257D01*
X59972723Y29783019D02*
X59353676Y29783019D01*
X59687009Y29402066D01*
X59544152Y29402066D01*
X59448914Y29354447D01*
X59401295Y29306828D01*
X59353676Y29211590D01*
X59353676Y28973495D01*
X59401295Y28878257D01*
X59448914Y28830638D01*
X59544152Y28783019D01*
X59829866Y28783019D01*
X59925104Y28830638D01*
X59972723Y28878257D01*
%TO.C,MX156*%
X-19942454Y-28366980D02*
X-19942454Y-27366980D01*
X-20275788Y-28081266D01*
X-20609121Y-27366980D01*
X-20609121Y-28366980D01*
X-20990073Y-27366980D02*
X-21656740Y-28366980D01*
X-21656740Y-27366980D02*
X-20990073Y-28366980D01*
X-22561502Y-28366980D02*
X-21990073Y-28366980D01*
X-22275788Y-28366980D02*
X-22275788Y-27366980D01*
X-22180550Y-27509838D01*
X-22085311Y-27605076D01*
X-21990073Y-27652695D01*
X-23466264Y-27366980D02*
X-22990073Y-27366980D01*
X-22942454Y-27843171D01*
X-22990073Y-27795552D01*
X-23085311Y-27747933D01*
X-23323407Y-27747933D01*
X-23418645Y-27795552D01*
X-23466264Y-27843171D01*
X-23513883Y-27938409D01*
X-23513883Y-28176504D01*
X-23466264Y-28271742D01*
X-23418645Y-28319361D01*
X-23323407Y-28366980D01*
X-23085311Y-28366980D01*
X-22990073Y-28319361D01*
X-22942454Y-28271742D01*
X-24371026Y-27366980D02*
X-24180550Y-27366980D01*
X-24085311Y-27414600D01*
X-24037692Y-27462219D01*
X-23942454Y-27605076D01*
X-23894835Y-27795552D01*
X-23894835Y-28176504D01*
X-23942454Y-28271742D01*
X-23990073Y-28319361D01*
X-24085311Y-28366980D01*
X-24275788Y-28366980D01*
X-24371026Y-28319361D01*
X-24418645Y-28271742D01*
X-24466264Y-28176504D01*
X-24466264Y-27938409D01*
X-24418645Y-27843171D01*
X-24371026Y-27795552D01*
X-24275788Y-27747933D01*
X-24085311Y-27747933D01*
X-23990073Y-27795552D01*
X-23942454Y-27843171D01*
X-23894835Y-27938409D01*
%TO.C,MX25*%
X172513404Y52633619D02*
X172513404Y53633619D01*
X172180071Y52919333D01*
X171846738Y53633619D01*
X171846738Y52633619D01*
X171465785Y53633619D02*
X170799119Y52633619D01*
X170799119Y53633619D02*
X171465785Y52633619D01*
X170465785Y53538380D02*
X170418166Y53586000D01*
X170322928Y53633619D01*
X170084833Y53633619D01*
X169989595Y53586000D01*
X169941976Y53538380D01*
X169894357Y53443142D01*
X169894357Y53347904D01*
X169941976Y53205047D01*
X170513404Y52633619D01*
X169894357Y52633619D01*
X168989595Y53633619D02*
X169465785Y53633619D01*
X169513404Y53157428D01*
X169465785Y53205047D01*
X169370547Y53252666D01*
X169132452Y53252666D01*
X169037214Y53205047D01*
X168989595Y53157428D01*
X168941976Y53062190D01*
X168941976Y52824095D01*
X168989595Y52728857D01*
X169037214Y52681238D01*
X169132452Y52633619D01*
X169370547Y52633619D01*
X169465785Y52681238D01*
X169513404Y52728857D01*
%TO.C,MX150*%
X201564595Y-28392380D02*
X201564595Y-27392380D01*
X201231261Y-28106666D01*
X200897928Y-27392380D01*
X200897928Y-28392380D01*
X200516976Y-27392380D02*
X199850309Y-28392380D01*
X199850309Y-27392380D02*
X200516976Y-28392380D01*
X198945547Y-28392380D02*
X199516976Y-28392380D01*
X199231261Y-28392380D02*
X199231261Y-27392380D01*
X199326500Y-27535238D01*
X199421738Y-27630476D01*
X199516976Y-27678095D01*
X198040785Y-27392380D02*
X198516976Y-27392380D01*
X198564595Y-27868571D01*
X198516976Y-27820952D01*
X198421738Y-27773333D01*
X198183642Y-27773333D01*
X198088404Y-27820952D01*
X198040785Y-27868571D01*
X197993166Y-27963809D01*
X197993166Y-28201904D01*
X198040785Y-28297142D01*
X198088404Y-28344761D01*
X198183642Y-28392380D01*
X198421738Y-28392380D01*
X198516976Y-28344761D01*
X198564595Y-28297142D01*
X197374119Y-27392380D02*
X197278880Y-27392380D01*
X197183642Y-27440000D01*
X197136023Y-27487619D01*
X197088404Y-27582857D01*
X197040785Y-27773333D01*
X197040785Y-28011428D01*
X197088404Y-28201904D01*
X197136023Y-28297142D01*
X197183642Y-28344761D01*
X197278880Y-28392380D01*
X197374119Y-28392380D01*
X197469357Y-28344761D01*
X197516976Y-28297142D01*
X197564595Y-28201904D01*
X197612214Y-28011428D01*
X197612214Y-27773333D01*
X197564595Y-27582857D01*
X197516976Y-27487619D01*
X197469357Y-27440000D01*
X197374119Y-27392380D01*
%TO.C,MX149*%
X182514595Y-28392380D02*
X182514595Y-27392380D01*
X182181261Y-28106666D01*
X181847928Y-27392380D01*
X181847928Y-28392380D01*
X181466976Y-27392380D02*
X180800309Y-28392380D01*
X180800309Y-27392380D02*
X181466976Y-28392380D01*
X179895547Y-28392380D02*
X180466976Y-28392380D01*
X180181261Y-28392380D02*
X180181261Y-27392380D01*
X180276500Y-27535238D01*
X180371738Y-27630476D01*
X180466976Y-27678095D01*
X179038404Y-27725714D02*
X179038404Y-28392380D01*
X179276500Y-27344761D02*
X179514595Y-28059047D01*
X178895547Y-28059047D01*
X178466976Y-28392380D02*
X178276500Y-28392380D01*
X178181261Y-28344761D01*
X178133642Y-28297142D01*
X178038404Y-28154285D01*
X177990785Y-27963809D01*
X177990785Y-27582857D01*
X178038404Y-27487619D01*
X178086023Y-27440000D01*
X178181261Y-27392380D01*
X178371738Y-27392380D01*
X178466976Y-27440000D01*
X178514595Y-27487619D01*
X178562214Y-27582857D01*
X178562214Y-27820952D01*
X178514595Y-27916190D01*
X178466976Y-27963809D01*
X178371738Y-28011428D01*
X178181261Y-28011428D01*
X178086023Y-27963809D01*
X178038404Y-27916190D01*
X177990785Y-27820952D01*
%TO.C,MX157*%
X11013795Y-28366980D02*
X11013795Y-27366980D01*
X10680461Y-28081266D01*
X10347128Y-27366980D01*
X10347128Y-28366980D01*
X9966176Y-27366980D02*
X9299509Y-28366980D01*
X9299509Y-27366980D02*
X9966176Y-28366980D01*
X8394747Y-28366980D02*
X8966176Y-28366980D01*
X8680461Y-28366980D02*
X8680461Y-27366980D01*
X8775700Y-27509838D01*
X8870938Y-27605076D01*
X8966176Y-27652695D01*
X7489985Y-27366980D02*
X7966176Y-27366980D01*
X8013795Y-27843171D01*
X7966176Y-27795552D01*
X7870938Y-27747933D01*
X7632842Y-27747933D01*
X7537604Y-27795552D01*
X7489985Y-27843171D01*
X7442366Y-27938409D01*
X7442366Y-28176504D01*
X7489985Y-28271742D01*
X7537604Y-28319361D01*
X7632842Y-28366980D01*
X7870938Y-28366980D01*
X7966176Y-28319361D01*
X8013795Y-28271742D01*
X7109033Y-27366980D02*
X6442366Y-27366980D01*
X6870938Y-28366980D01*
%TO.C,MX48*%
X-32324895Y28783019D02*
X-32324895Y29783019D01*
X-32658228Y29068733D01*
X-32991561Y29783019D01*
X-32991561Y28783019D01*
X-33372514Y29783019D02*
X-34039180Y28783019D01*
X-34039180Y29783019D02*
X-33372514Y28783019D01*
X-34848704Y29449685D02*
X-34848704Y28783019D01*
X-34610609Y29830638D02*
X-34372514Y29116352D01*
X-34991561Y29116352D01*
X-35515371Y29354447D02*
X-35420133Y29402066D01*
X-35372514Y29449685D01*
X-35324895Y29544923D01*
X-35324895Y29592542D01*
X-35372514Y29687780D01*
X-35420133Y29735400D01*
X-35515371Y29783019D01*
X-35705847Y29783019D01*
X-35801085Y29735400D01*
X-35848704Y29687780D01*
X-35896323Y29592542D01*
X-35896323Y29544923D01*
X-35848704Y29449685D01*
X-35801085Y29402066D01*
X-35705847Y29354447D01*
X-35515371Y29354447D01*
X-35420133Y29306828D01*
X-35372514Y29259209D01*
X-35324895Y29163971D01*
X-35324895Y28973495D01*
X-35372514Y28878257D01*
X-35420133Y28830638D01*
X-35515371Y28783019D01*
X-35705847Y28783019D01*
X-35801085Y28830638D01*
X-35848704Y28878257D01*
X-35896323Y28973495D01*
X-35896323Y29163971D01*
X-35848704Y29259209D01*
X-35801085Y29306828D01*
X-35705847Y29354447D01*
%TO.C,MX54*%
X81975104Y28783019D02*
X81975104Y29783019D01*
X81641771Y29068733D01*
X81308438Y29783019D01*
X81308438Y28783019D01*
X80927485Y29783019D02*
X80260819Y28783019D01*
X80260819Y29783019D02*
X80927485Y28783019D01*
X79403676Y29783019D02*
X79879866Y29783019D01*
X79927485Y29306828D01*
X79879866Y29354447D01*
X79784628Y29402066D01*
X79546533Y29402066D01*
X79451295Y29354447D01*
X79403676Y29306828D01*
X79356057Y29211590D01*
X79356057Y28973495D01*
X79403676Y28878257D01*
X79451295Y28830638D01*
X79546533Y28783019D01*
X79784628Y28783019D01*
X79879866Y28830638D01*
X79927485Y28878257D01*
X78498914Y29449685D02*
X78498914Y28783019D01*
X78737009Y29830638D02*
X78975104Y29116352D01*
X78356057Y29116352D01*
%TO.C,MX181*%
X277701095Y-52192180D02*
X277701095Y-51192180D01*
X277367761Y-51906466D01*
X277034428Y-51192180D01*
X277034428Y-52192180D01*
X276653476Y-51192180D02*
X275986809Y-52192180D01*
X275986809Y-51192180D02*
X276653476Y-52192180D01*
X275082047Y-52192180D02*
X275653476Y-52192180D01*
X275367761Y-52192180D02*
X275367761Y-51192180D01*
X275463000Y-51335038D01*
X275558238Y-51430276D01*
X275653476Y-51477895D01*
X274510619Y-51620752D02*
X274605857Y-51573133D01*
X274653476Y-51525514D01*
X274701095Y-51430276D01*
X274701095Y-51382657D01*
X274653476Y-51287419D01*
X274605857Y-51239800D01*
X274510619Y-51192180D01*
X274320142Y-51192180D01*
X274224904Y-51239800D01*
X274177285Y-51287419D01*
X274129666Y-51382657D01*
X274129666Y-51430276D01*
X274177285Y-51525514D01*
X274224904Y-51573133D01*
X274320142Y-51620752D01*
X274510619Y-51620752D01*
X274605857Y-51668371D01*
X274653476Y-51715990D01*
X274701095Y-51811228D01*
X274701095Y-52001704D01*
X274653476Y-52096942D01*
X274605857Y-52144561D01*
X274510619Y-52192180D01*
X274320142Y-52192180D01*
X274224904Y-52144561D01*
X274177285Y-52096942D01*
X274129666Y-52001704D01*
X274129666Y-51811228D01*
X274177285Y-51715990D01*
X274224904Y-51668371D01*
X274320142Y-51620752D01*
X273177285Y-52192180D02*
X273748714Y-52192180D01*
X273463000Y-52192180D02*
X273463000Y-51192180D01*
X273558238Y-51335038D01*
X273653476Y-51430276D01*
X273748714Y-51477895D01*
%TO.C,MX52*%
X43875104Y28783019D02*
X43875104Y29783019D01*
X43541771Y29068733D01*
X43208438Y29783019D01*
X43208438Y28783019D01*
X42827485Y29783019D02*
X42160819Y28783019D01*
X42160819Y29783019D02*
X42827485Y28783019D01*
X41303676Y29783019D02*
X41779866Y29783019D01*
X41827485Y29306828D01*
X41779866Y29354447D01*
X41684628Y29402066D01*
X41446533Y29402066D01*
X41351295Y29354447D01*
X41303676Y29306828D01*
X41256057Y29211590D01*
X41256057Y28973495D01*
X41303676Y28878257D01*
X41351295Y28830638D01*
X41446533Y28783019D01*
X41684628Y28783019D01*
X41779866Y28830638D01*
X41827485Y28878257D01*
X40875104Y29687780D02*
X40827485Y29735400D01*
X40732247Y29783019D01*
X40494152Y29783019D01*
X40398914Y29735400D01*
X40351295Y29687780D01*
X40303676Y29592542D01*
X40303676Y29497304D01*
X40351295Y29354447D01*
X40922723Y28783019D01*
X40303676Y28783019D01*
%TO.C,MX27*%
X210613404Y52633619D02*
X210613404Y53633619D01*
X210280071Y52919333D01*
X209946738Y53633619D01*
X209946738Y52633619D01*
X209565785Y53633619D02*
X208899119Y52633619D01*
X208899119Y53633619D02*
X209565785Y52633619D01*
X208565785Y53538380D02*
X208518166Y53586000D01*
X208422928Y53633619D01*
X208184833Y53633619D01*
X208089595Y53586000D01*
X208041976Y53538380D01*
X207994357Y53443142D01*
X207994357Y53347904D01*
X208041976Y53205047D01*
X208613404Y52633619D01*
X207994357Y52633619D01*
X207661023Y53633619D02*
X206994357Y53633619D01*
X207422928Y52633619D01*
%TO.C,MX57*%
X158225904Y28757619D02*
X158225904Y29757619D01*
X157892571Y29043333D01*
X157559238Y29757619D01*
X157559238Y28757619D01*
X157178285Y29757619D02*
X156511619Y28757619D01*
X156511619Y29757619D02*
X157178285Y28757619D01*
X155654476Y29757619D02*
X156130666Y29757619D01*
X156178285Y29281428D01*
X156130666Y29329047D01*
X156035428Y29376666D01*
X155797333Y29376666D01*
X155702095Y29329047D01*
X155654476Y29281428D01*
X155606857Y29186190D01*
X155606857Y28948095D01*
X155654476Y28852857D01*
X155702095Y28805238D01*
X155797333Y28757619D01*
X156035428Y28757619D01*
X156130666Y28805238D01*
X156178285Y28852857D01*
X155273523Y29757619D02*
X154606857Y29757619D01*
X155035428Y28757619D01*
%TO.C,MX176*%
X177752095Y-47442380D02*
X177752095Y-46442380D01*
X177418761Y-47156666D01*
X177085428Y-46442380D01*
X177085428Y-47442380D01*
X176704476Y-46442380D02*
X176037809Y-47442380D01*
X176037809Y-46442380D02*
X176704476Y-47442380D01*
X175133047Y-47442380D02*
X175704476Y-47442380D01*
X175418761Y-47442380D02*
X175418761Y-46442380D01*
X175514000Y-46585238D01*
X175609238Y-46680476D01*
X175704476Y-46728095D01*
X174799714Y-46442380D02*
X174133047Y-46442380D01*
X174561619Y-47442380D01*
X173323523Y-46442380D02*
X173514000Y-46442380D01*
X173609238Y-46490000D01*
X173656857Y-46537619D01*
X173752095Y-46680476D01*
X173799714Y-46870952D01*
X173799714Y-47251904D01*
X173752095Y-47347142D01*
X173704476Y-47394761D01*
X173609238Y-47442380D01*
X173418761Y-47442380D01*
X173323523Y-47394761D01*
X173275904Y-47347142D01*
X173228285Y-47251904D01*
X173228285Y-47013809D01*
X173275904Y-46918571D01*
X173323523Y-46870952D01*
X173418761Y-46823333D01*
X173609238Y-46823333D01*
X173704476Y-46870952D01*
X173752095Y-46918571D01*
X173799714Y-47013809D01*
%TO.C,MX28*%
X229663404Y52633619D02*
X229663404Y53633619D01*
X229330071Y52919333D01*
X228996738Y53633619D01*
X228996738Y52633619D01*
X228615785Y53633619D02*
X227949119Y52633619D01*
X227949119Y53633619D02*
X228615785Y52633619D01*
X227615785Y53538380D02*
X227568166Y53586000D01*
X227472928Y53633619D01*
X227234833Y53633619D01*
X227139595Y53586000D01*
X227091976Y53538380D01*
X227044357Y53443142D01*
X227044357Y53347904D01*
X227091976Y53205047D01*
X227663404Y52633619D01*
X227044357Y52633619D01*
X226472928Y53205047D02*
X226568166Y53252666D01*
X226615785Y53300285D01*
X226663404Y53395523D01*
X226663404Y53443142D01*
X226615785Y53538380D01*
X226568166Y53586000D01*
X226472928Y53633619D01*
X226282452Y53633619D01*
X226187214Y53586000D01*
X226139595Y53538380D01*
X226091976Y53443142D01*
X226091976Y53395523D01*
X226139595Y53300285D01*
X226187214Y53252666D01*
X226282452Y53205047D01*
X226472928Y53205047D01*
X226568166Y53157428D01*
X226615785Y53109809D01*
X226663404Y53014571D01*
X226663404Y52824095D01*
X226615785Y52728857D01*
X226568166Y52681238D01*
X226472928Y52633619D01*
X226282452Y52633619D01*
X226187214Y52681238D01*
X226139595Y52728857D01*
X226091976Y52824095D01*
X226091976Y53014571D01*
X226139595Y53109809D01*
X226187214Y53157428D01*
X226282452Y53205047D01*
%TO.C,MX92*%
X-3749895Y9733019D02*
X-3749895Y10733019D01*
X-4083228Y10018733D01*
X-4416561Y10733019D01*
X-4416561Y9733019D01*
X-4797514Y10733019D02*
X-5464180Y9733019D01*
X-5464180Y10733019D02*
X-4797514Y9733019D01*
X-5892752Y9733019D02*
X-6083228Y9733019D01*
X-6178466Y9780638D01*
X-6226085Y9828257D01*
X-6321323Y9971114D01*
X-6368942Y10161590D01*
X-6368942Y10542542D01*
X-6321323Y10637780D01*
X-6273704Y10685400D01*
X-6178466Y10733019D01*
X-5987990Y10733019D01*
X-5892752Y10685400D01*
X-5845133Y10637780D01*
X-5797514Y10542542D01*
X-5797514Y10304447D01*
X-5845133Y10209209D01*
X-5892752Y10161590D01*
X-5987990Y10113971D01*
X-6178466Y10113971D01*
X-6273704Y10161590D01*
X-6321323Y10209209D01*
X-6368942Y10304447D01*
X-6749895Y10637780D02*
X-6797514Y10685400D01*
X-6892752Y10733019D01*
X-7130847Y10733019D01*
X-7226085Y10685400D01*
X-7273704Y10637780D01*
X-7321323Y10542542D01*
X-7321323Y10447304D01*
X-7273704Y10304447D01*
X-6702276Y9733019D01*
X-7321323Y9733019D01*
%TO.C,MX180*%
X258651095Y-52192180D02*
X258651095Y-51192180D01*
X258317761Y-51906466D01*
X257984428Y-51192180D01*
X257984428Y-52192180D01*
X257603476Y-51192180D02*
X256936809Y-52192180D01*
X256936809Y-51192180D02*
X257603476Y-52192180D01*
X256032047Y-52192180D02*
X256603476Y-52192180D01*
X256317761Y-52192180D02*
X256317761Y-51192180D01*
X256413000Y-51335038D01*
X256508238Y-51430276D01*
X256603476Y-51477895D01*
X255460619Y-51620752D02*
X255555857Y-51573133D01*
X255603476Y-51525514D01*
X255651095Y-51430276D01*
X255651095Y-51382657D01*
X255603476Y-51287419D01*
X255555857Y-51239800D01*
X255460619Y-51192180D01*
X255270142Y-51192180D01*
X255174904Y-51239800D01*
X255127285Y-51287419D01*
X255079666Y-51382657D01*
X255079666Y-51430276D01*
X255127285Y-51525514D01*
X255174904Y-51573133D01*
X255270142Y-51620752D01*
X255460619Y-51620752D01*
X255555857Y-51668371D01*
X255603476Y-51715990D01*
X255651095Y-51811228D01*
X255651095Y-52001704D01*
X255603476Y-52096942D01*
X255555857Y-52144561D01*
X255460619Y-52192180D01*
X255270142Y-52192180D01*
X255174904Y-52144561D01*
X255127285Y-52096942D01*
X255079666Y-52001704D01*
X255079666Y-51811228D01*
X255127285Y-51715990D01*
X255174904Y-51668371D01*
X255270142Y-51620752D01*
X254460619Y-51192180D02*
X254365380Y-51192180D01*
X254270142Y-51239800D01*
X254222523Y-51287419D01*
X254174904Y-51382657D01*
X254127285Y-51573133D01*
X254127285Y-51811228D01*
X254174904Y-52001704D01*
X254222523Y-52096942D01*
X254270142Y-52144561D01*
X254365380Y-52192180D01*
X254460619Y-52192180D01*
X254555857Y-52144561D01*
X254603476Y-52096942D01*
X254651095Y-52001704D01*
X254698714Y-51811228D01*
X254698714Y-51573133D01*
X254651095Y-51382657D01*
X254603476Y-51287419D01*
X254555857Y-51239800D01*
X254460619Y-51192180D01*
%TO.C,MX125*%
X1488795Y-9316980D02*
X1488795Y-8316980D01*
X1155461Y-9031266D01*
X822128Y-8316980D01*
X822128Y-9316980D01*
X441176Y-8316980D02*
X-225490Y-9316980D01*
X-225490Y-8316980D02*
X441176Y-9316980D01*
X-1130252Y-9316980D02*
X-558823Y-9316980D01*
X-844538Y-9316980D02*
X-844538Y-8316980D01*
X-749300Y-8459838D01*
X-654061Y-8555076D01*
X-558823Y-8602695D01*
X-1511204Y-8412219D02*
X-1558823Y-8364600D01*
X-1654061Y-8316980D01*
X-1892157Y-8316980D01*
X-1987395Y-8364600D01*
X-2035014Y-8412219D01*
X-2082633Y-8507457D01*
X-2082633Y-8602695D01*
X-2035014Y-8745552D01*
X-1463585Y-9316980D01*
X-2082633Y-9316980D01*
X-2987395Y-8316980D02*
X-2511204Y-8316980D01*
X-2463585Y-8793171D01*
X-2511204Y-8745552D01*
X-2606442Y-8697933D01*
X-2844538Y-8697933D01*
X-2939776Y-8745552D01*
X-2987395Y-8793171D01*
X-3035014Y-8888409D01*
X-3035014Y-9126504D01*
X-2987395Y-9221742D01*
X-2939776Y-9269361D01*
X-2844538Y-9316980D01*
X-2606442Y-9316980D01*
X-2511204Y-9269361D01*
X-2463585Y-9221742D01*
%TO.C,MX49*%
X-13274895Y28783019D02*
X-13274895Y29783019D01*
X-13608228Y29068733D01*
X-13941561Y29783019D01*
X-13941561Y28783019D01*
X-14322514Y29783019D02*
X-14989180Y28783019D01*
X-14989180Y29783019D02*
X-14322514Y28783019D01*
X-15798704Y29449685D02*
X-15798704Y28783019D01*
X-15560609Y29830638D02*
X-15322514Y29116352D01*
X-15941561Y29116352D01*
X-16370133Y28783019D02*
X-16560609Y28783019D01*
X-16655847Y28830638D01*
X-16703466Y28878257D01*
X-16798704Y29021114D01*
X-16846323Y29211590D01*
X-16846323Y29592542D01*
X-16798704Y29687780D01*
X-16751085Y29735400D01*
X-16655847Y29783019D01*
X-16465371Y29783019D01*
X-16370133Y29735400D01*
X-16322514Y29687780D01*
X-16274895Y29592542D01*
X-16274895Y29354447D01*
X-16322514Y29259209D01*
X-16370133Y29211590D01*
X-16465371Y29163971D01*
X-16655847Y29163971D01*
X-16751085Y29211590D01*
X-16798704Y29259209D01*
X-16846323Y29354447D01*
%TO.C,MX21*%
X72450104Y52595519D02*
X72450104Y53595519D01*
X72116771Y52881233D01*
X71783438Y53595519D01*
X71783438Y52595519D01*
X71402485Y53595519D02*
X70735819Y52595519D01*
X70735819Y53595519D02*
X71402485Y52595519D01*
X70402485Y53500280D02*
X70354866Y53547900D01*
X70259628Y53595519D01*
X70021533Y53595519D01*
X69926295Y53547900D01*
X69878676Y53500280D01*
X69831057Y53405042D01*
X69831057Y53309804D01*
X69878676Y53166947D01*
X70450104Y52595519D01*
X69831057Y52595519D01*
X68878676Y52595519D02*
X69450104Y52595519D01*
X69164390Y52595519D02*
X69164390Y53595519D01*
X69259628Y53452661D01*
X69354866Y53357423D01*
X69450104Y53309804D01*
%TO.C,MX179*%
X239601095Y-52192180D02*
X239601095Y-51192180D01*
X239267761Y-51906466D01*
X238934428Y-51192180D01*
X238934428Y-52192180D01*
X238553476Y-51192180D02*
X237886809Y-52192180D01*
X237886809Y-51192180D02*
X238553476Y-52192180D01*
X236982047Y-52192180D02*
X237553476Y-52192180D01*
X237267761Y-52192180D02*
X237267761Y-51192180D01*
X237363000Y-51335038D01*
X237458238Y-51430276D01*
X237553476Y-51477895D01*
X236648714Y-51192180D02*
X235982047Y-51192180D01*
X236410619Y-52192180D01*
X235553476Y-52192180D02*
X235363000Y-52192180D01*
X235267761Y-52144561D01*
X235220142Y-52096942D01*
X235124904Y-51954085D01*
X235077285Y-51763609D01*
X235077285Y-51382657D01*
X235124904Y-51287419D01*
X235172523Y-51239800D01*
X235267761Y-51192180D01*
X235458238Y-51192180D01*
X235553476Y-51239800D01*
X235601095Y-51287419D01*
X235648714Y-51382657D01*
X235648714Y-51620752D01*
X235601095Y-51715990D01*
X235553476Y-51763609D01*
X235458238Y-51811228D01*
X235267761Y-51811228D01*
X235172523Y-51763609D01*
X235124904Y-51715990D01*
X235077285Y-51620752D01*
%TO.C,U3*%
X-61788662Y34404603D02*
X-61216242Y33832183D01*
X-61182570Y33731168D01*
X-61182570Y33663824D01*
X-61216242Y33562809D01*
X-61350929Y33428122D01*
X-61451944Y33394450D01*
X-61519288Y33394450D01*
X-61620303Y33428122D01*
X-62192723Y34000542D01*
X-62462097Y33731168D02*
X-62899829Y33293435D01*
X-62394753Y33259763D01*
X-62495768Y33158748D01*
X-62529440Y33057733D01*
X-62529440Y32990389D01*
X-62495768Y32889374D01*
X-62327410Y32721015D01*
X-62226394Y32687343D01*
X-62159051Y32687343D01*
X-62058036Y32721015D01*
X-61856005Y32923046D01*
X-61822333Y33024061D01*
X-61822333Y33091404D01*
%TO.C,D17*%
X-19974714Y57619619D02*
X-19974714Y58619619D01*
X-20212809Y58619619D01*
X-20355666Y58572000D01*
X-20450904Y58476761D01*
X-20498523Y58381523D01*
X-20546142Y58191047D01*
X-20546142Y58048190D01*
X-20498523Y57857714D01*
X-20450904Y57762476D01*
X-20355666Y57667238D01*
X-20212809Y57619619D01*
X-19974714Y57619619D01*
X-21498523Y57619619D02*
X-20927095Y57619619D01*
X-21212809Y57619619D02*
X-21212809Y58619619D01*
X-21117571Y58476761D01*
X-21022333Y58381523D01*
X-20927095Y58333904D01*
X-21831857Y58619619D02*
X-22498523Y58619619D01*
X-22069952Y57619619D01*
%TO.C,D83*%
X37700389Y115465619D02*
X37700389Y116465619D01*
X37462294Y116465619D01*
X37319437Y116418000D01*
X37224199Y116322761D01*
X37176580Y116227523D01*
X37128961Y116037047D01*
X37128961Y115894190D01*
X37176580Y115703714D01*
X37224199Y115608476D01*
X37319437Y115513238D01*
X37462294Y115465619D01*
X37700389Y115465619D01*
X36557532Y116037047D02*
X36652770Y116084666D01*
X36700389Y116132285D01*
X36748008Y116227523D01*
X36748008Y116275142D01*
X36700389Y116370380D01*
X36652770Y116418000D01*
X36557532Y116465619D01*
X36367056Y116465619D01*
X36271818Y116418000D01*
X36224199Y116370380D01*
X36176580Y116275142D01*
X36176580Y116227523D01*
X36224199Y116132285D01*
X36271818Y116084666D01*
X36367056Y116037047D01*
X36557532Y116037047D01*
X36652770Y115989428D01*
X36700389Y115941809D01*
X36748008Y115846571D01*
X36748008Y115656095D01*
X36700389Y115560857D01*
X36652770Y115513238D01*
X36557532Y115465619D01*
X36367056Y115465619D01*
X36271818Y115513238D01*
X36224199Y115560857D01*
X36176580Y115656095D01*
X36176580Y115846571D01*
X36224199Y115941809D01*
X36271818Y115989428D01*
X36367056Y116037047D01*
X35843246Y116465619D02*
X35224199Y116465619D01*
X35557532Y116084666D01*
X35414675Y116084666D01*
X35319437Y116037047D01*
X35271818Y115989428D01*
X35224199Y115894190D01*
X35224199Y115656095D01*
X35271818Y115560857D01*
X35319437Y115513238D01*
X35414675Y115465619D01*
X35700389Y115465619D01*
X35795627Y115513238D01*
X35843246Y115560857D01*
%TO.C,U4*%
X17690808Y131060619D02*
X17690808Y130251095D01*
X17643189Y130155857D01*
X17595570Y130108238D01*
X17500332Y130060619D01*
X17309856Y130060619D01*
X17214618Y130108238D01*
X17166999Y130155857D01*
X17119380Y130251095D01*
X17119380Y131060619D01*
X16214618Y130727285D02*
X16214618Y130060619D01*
X16452713Y131108238D02*
X16690808Y130393952D01*
X16071761Y130393952D01*
D11*
%TO.C,D31*%
X234664000Y16912000D02*
X232664000Y16912000D01*
X234664000Y16912000D02*
X234664000Y20812000D01*
X232664000Y16912000D02*
X232664000Y20812000D01*
%TO.C,D16*%
X-59960000Y41946000D02*
X-61960000Y41946000D01*
X-59960000Y41946000D02*
X-59960000Y45846000D01*
X-61960000Y41946000D02*
X-61960000Y45846000D01*
%TO.C,D9*%
X157939000Y40788000D02*
X155939000Y40788000D01*
X157939000Y40788000D02*
X157939000Y44688000D01*
X155939000Y40788000D02*
X155939000Y44688000D01*
%TO.C,R12*%
X74426578Y108637000D02*
X73909422Y108637000D01*
X74426578Y110057000D02*
X73909422Y110057000D01*
%TO.C,D24*%
X87213200Y16937400D02*
X87213200Y20837400D01*
X89213200Y16937400D02*
X87213200Y16937400D01*
X89213200Y16937400D02*
X89213200Y20837400D01*
D10*
%TO.C,U3*%
X-56265653Y35122653D02*
X-55364092Y36024214D01*
X-56672239Y35529239D02*
X-56265653Y35122653D01*
D11*
X-61777550Y28210684D02*
X-61264898Y27698032D01*
X-56159587Y23618026D02*
X-56672239Y23105373D01*
X-51566928Y28210684D02*
X-52079581Y28723337D01*
D10*
X-63990794Y28210684D02*
X-63513497Y28687981D01*
X-49353684Y28210684D02*
X-49830981Y27733387D01*
X-56672239Y20892129D02*
X-57149536Y21369426D01*
X-56672239Y35529239D02*
X-57149536Y35051942D01*
D11*
X-61264898Y28723337D02*
X-61777550Y28210684D01*
D10*
X-49353684Y28210684D02*
X-49830981Y28687981D01*
X-63990794Y28210684D02*
X-63513497Y27733387D01*
D11*
X-52079581Y27698032D02*
X-51566928Y28210684D01*
X-56672239Y23105373D02*
X-57184892Y23618026D01*
D10*
X-56672239Y20892129D02*
X-56194942Y21369426D01*
D11*
X-57184892Y32803343D02*
X-56672239Y33315995D01*
%TO.C,D22*%
X51113200Y16937400D02*
X51113200Y20837400D01*
X53113200Y16937400D02*
X51113200Y16937400D01*
X53113200Y16937400D02*
X53113200Y20837400D01*
%TO.C,D6*%
X81688200Y40749900D02*
X79688200Y40749900D01*
X81688200Y40749900D02*
X81688200Y44649900D01*
X79688200Y40749900D02*
X79688200Y44649900D01*
%TO.C,D44*%
X-51661800Y-2112600D02*
X-53661800Y-2112600D01*
X-51661800Y-2112600D02*
X-51661800Y1787400D01*
X-53661800Y-2112600D02*
X-53661800Y1787400D01*
%TO.C,D17*%
X-22409000Y62002000D02*
X-20009000Y62002000D01*
X-20009000Y58902000D02*
X-22959000Y58902000D01*
%TO.C,D82*%
X91975700Y-40212600D02*
X91975700Y-36312600D01*
X93975700Y-40212600D02*
X91975700Y-40212600D01*
X93975700Y-40212600D02*
X93975700Y-36312600D01*
%TO.C,D95*%
X29300700Y-58262600D02*
X29300700Y-54362600D01*
X27300700Y-58262600D02*
X27300700Y-54362600D01*
X29300700Y-58262600D02*
X27300700Y-58262600D01*
%TO.C,C18*%
X55687578Y130441000D02*
X55170422Y130441000D01*
X55687578Y131861000D02*
X55170422Y131861000D01*
%TO.C,R5*%
X70016578Y118907000D02*
X69499422Y118907000D01*
X70016578Y117487000D02*
X69499422Y117487000D01*
%TO.C,D87*%
X222614000Y-58288000D02*
X222614000Y-54388000D01*
X224614000Y-58288000D02*
X222614000Y-58288000D01*
X224614000Y-58288000D02*
X224614000Y-54388000D01*
D10*
%TO.C,U2*%
X211072000Y69850000D02*
X211072000Y57750000D01*
X217172000Y69850000D02*
X217172000Y57750000D01*
X211322000Y69850000D02*
X211322000Y71850000D01*
X211322000Y71850000D02*
X216922000Y71850000D01*
X216922000Y69850000D02*
X216922000Y71850000D01*
X211072000Y69850000D02*
X217172000Y69850000D01*
X211072000Y57750000D02*
X217172000Y57750000D01*
D11*
%TO.C,D94*%
X5488200Y-58262600D02*
X3488200Y-58262600D01*
X5488200Y-58262600D02*
X5488200Y-54362600D01*
X3488200Y-58262600D02*
X3488200Y-54362600D01*
%TO.C,D25*%
X127364000Y16912000D02*
X127364000Y20812000D01*
X129364000Y16912000D02*
X129364000Y20812000D01*
X129364000Y16912000D02*
X127364000Y16912000D01*
%TO.C,D84*%
X146414000Y-58288000D02*
X146414000Y-54388000D01*
X148414000Y-58288000D02*
X146414000Y-58288000D01*
X148414000Y-58288000D02*
X148414000Y-54388000D01*
%TO.C,D56*%
X219851500Y-21188000D02*
X219851500Y-17288000D01*
X217851500Y-21188000D02*
X217851500Y-17288000D01*
X219851500Y-21188000D02*
X217851500Y-21188000D01*
%TO.C,D83*%
X37706104Y111988000D02*
X35306104Y111988000D01*
X35306104Y115088000D02*
X38256104Y115088000D01*
%TO.C,D79*%
X38825700Y-40212600D02*
X38825700Y-36312600D01*
X36825700Y-40212600D02*
X36825700Y-36312600D01*
X38825700Y-40212600D02*
X36825700Y-40212600D01*
%TO.C,C9*%
X-56900578Y18363000D02*
X-56383422Y18363000D01*
X-56900578Y16943000D02*
X-56383422Y16943000D01*
%TO.C,D47*%
X22538200Y-2112600D02*
X22538200Y1787400D01*
X24538200Y-2112600D02*
X22538200Y-2112600D01*
X24538200Y-2112600D02*
X24538200Y1787400D01*
%TO.C,D30*%
X222614000Y16912000D02*
X222614000Y20812000D01*
X224614000Y16912000D02*
X224614000Y20812000D01*
X224614000Y16912000D02*
X222614000Y16912000D01*
%TO.C,D63*%
X27300700Y-21162600D02*
X27300700Y-17262600D01*
X29300700Y-21162600D02*
X29300700Y-17262600D01*
X29300700Y-21162600D02*
X27300700Y-21162600D01*
%TO.C,D89*%
X267413000Y-63037800D02*
X267413000Y-59137800D01*
X267413000Y-63037800D02*
X265413000Y-63037800D01*
X265413000Y-63037800D02*
X265413000Y-59137800D01*
%TO.C,D27*%
X167464000Y16912000D02*
X165464000Y16912000D01*
X165464000Y16912000D02*
X165464000Y20812000D01*
X167464000Y16912000D02*
X167464000Y20812000D01*
%TO.C,D49*%
X60638200Y-2112600D02*
X60638200Y1787400D01*
X62638200Y-2112600D02*
X62638200Y1787400D01*
X62638200Y-2112600D02*
X60638200Y-2112600D01*
%TO.C,D33*%
X288289000Y16912000D02*
X288289000Y20812000D01*
X288289000Y16912000D02*
X286289000Y16912000D01*
X286289000Y16912000D02*
X286289000Y20812000D01*
%TO.C,R6*%
X78526578Y114537000D02*
X78009422Y114537000D01*
X78526578Y115957000D02*
X78009422Y115957000D01*
%TO.C,D96*%
X72163200Y-58262600D02*
X70163200Y-58262600D01*
X70163200Y-58262600D02*
X70163200Y-54362600D01*
X72163200Y-58262600D02*
X72163200Y-54362600D01*
%TO.C,D50*%
X79688200Y-2112600D02*
X77688200Y-2112600D01*
X77688200Y-2112600D02*
X77688200Y1787400D01*
X79688200Y-2112600D02*
X79688200Y1787400D01*
%TO.C,D45*%
X-20324300Y-2112600D02*
X-20324300Y1787400D01*
X-18324300Y-2112600D02*
X-20324300Y-2112600D01*
X-18324300Y-2112600D02*
X-18324300Y1787400D01*
%TO.C,R9*%
X-53542000Y42295578D02*
X-53542000Y41778422D01*
X-52122000Y42295578D02*
X-52122000Y41778422D01*
%TO.C,C12*%
X-45518000Y28452578D02*
X-45518000Y27935422D01*
X-46938000Y28452578D02*
X-46938000Y27935422D01*
%TO.C,D3*%
X19775700Y40749900D02*
X19775700Y44649900D01*
X17775700Y40749900D02*
X17775700Y44649900D01*
X19775700Y40749900D02*
X17775700Y40749900D01*
%TO.C,D51*%
X122601500Y-21188000D02*
X122601500Y-17288000D01*
X124601500Y-21188000D02*
X124601500Y-17288000D01*
X124601500Y-21188000D02*
X122601500Y-21188000D01*
%TO.C,D7*%
X96738200Y40749900D02*
X96738200Y44649900D01*
X98738200Y40749900D02*
X98738200Y44649900D01*
X98738200Y40749900D02*
X96738200Y40749900D01*
D10*
%TO.C,U4*%
X11753904Y117888000D02*
X12428904Y117888000D01*
X22103904Y117888000D02*
X21428904Y117888000D01*
X22103904Y128238000D02*
X22103904Y127663000D01*
D11*
X20538904Y119453000D02*
X20538904Y120178000D01*
X14043904Y119453000D02*
X13318904Y119453000D01*
D10*
X22103904Y117888000D02*
X22103904Y118563000D01*
X11753904Y117888000D02*
X11753904Y118563000D01*
D11*
X13318904Y119453000D02*
X13318904Y120178000D01*
D10*
X22103904Y128238000D02*
X21428904Y128238000D01*
D11*
X19813904Y119453000D02*
X20538904Y119453000D01*
D10*
X11753904Y128238000D02*
X11753904Y127563000D01*
X11753904Y128238000D02*
X12428904Y128238000D01*
X22103904Y127663000D02*
X23378904Y127663000D01*
D11*
X14043904Y126673000D02*
X13318904Y126673000D01*
X19813904Y126673000D02*
X20538904Y126673000D01*
X13318904Y126673000D02*
X13318904Y125948000D01*
%TO.C,D62*%
X10250700Y-21162600D02*
X8250700Y-21162600D01*
X10250700Y-21162600D02*
X10250700Y-17262600D01*
X8250700Y-21162600D02*
X8250700Y-17262600D01*
%TO.C,D59*%
X-72711800Y-21162600D02*
X-72711800Y-17262600D01*
X-70711800Y-21162600D02*
X-72711800Y-21162600D01*
X-70711800Y-21162600D02*
X-70711800Y-17262600D01*
%TO.C,D12*%
X217851500Y40788000D02*
X217851500Y44688000D01*
X219851500Y40788000D02*
X219851500Y44688000D01*
X219851500Y40788000D02*
X217851500Y40788000D01*
%TO.C,R10*%
X-50095000Y42295578D02*
X-50095000Y41778422D01*
X-51515000Y42295578D02*
X-51515000Y41778422D01*
%TO.C,D10*%
X179751500Y40788000D02*
X179751500Y44688000D01*
X181751500Y40788000D02*
X181751500Y44688000D01*
X181751500Y40788000D02*
X179751500Y40788000D01*
%TO.C,D71*%
X210326500Y-40238000D02*
X208326500Y-40238000D01*
X210326500Y-40238000D02*
X210326500Y-36338000D01*
X208326500Y-40238000D02*
X208326500Y-36338000D01*
%TO.C,D23*%
X70163200Y16937400D02*
X70163200Y20837400D01*
X72163200Y16937400D02*
X72163200Y20837400D01*
X72163200Y16937400D02*
X70163200Y16937400D01*
%TO.C,D11*%
X200801500Y40788000D02*
X198801500Y40788000D01*
X200801500Y40788000D02*
X200801500Y44688000D01*
X198801500Y40788000D02*
X198801500Y44688000D01*
%TO.C,D81*%
X74925700Y-40212600D02*
X74925700Y-36312600D01*
X76925700Y-40212600D02*
X74925700Y-40212600D01*
X76925700Y-40212600D02*
X76925700Y-36312600D01*
%TO.C,D68*%
X153176500Y-40238000D02*
X153176500Y-36338000D01*
X151176500Y-40238000D02*
X151176500Y-36338000D01*
X153176500Y-40238000D02*
X151176500Y-40238000D01*
%TO.C,D43*%
X-70711800Y-2112600D02*
X-70711800Y1787400D01*
X-70711800Y-2112600D02*
X-72711800Y-2112600D01*
X-72711800Y-2112600D02*
X-72711800Y1787400D01*
%TO.C,D66*%
X84450700Y-21162600D02*
X84450700Y-17262600D01*
X84450700Y-21162600D02*
X82450700Y-21162600D01*
X82450700Y-21162600D02*
X82450700Y-17262600D01*
%TO.C,D46*%
X3488200Y-2112600D02*
X3488200Y1787400D01*
X5488200Y-2112600D02*
X3488200Y-2112600D01*
X5488200Y-2112600D02*
X5488200Y1787400D01*
%TO.C,D93*%
X-18324300Y-58262600D02*
X-18324300Y-54362600D01*
X-20324300Y-58262600D02*
X-20324300Y-54362600D01*
X-18324300Y-58262600D02*
X-20324300Y-58262600D01*
%TO.C,D57*%
X245807750Y-21188000D02*
X245807750Y-17288000D01*
X247807750Y-21188000D02*
X247807750Y-17288000D01*
X247807750Y-21188000D02*
X245807750Y-21188000D01*
%TO.C,D19*%
X-6036800Y16937400D02*
X-6036800Y20837400D01*
X-4036800Y16937400D02*
X-6036800Y16937400D01*
X-4036800Y16937400D02*
X-4036800Y20837400D01*
%TO.C,C7*%
X-48944888Y37145796D02*
X-48579204Y36780112D01*
X-47940796Y38149888D02*
X-47575112Y37784204D01*
%TO.C,R2*%
X-26364000Y60710578D02*
X-26364000Y60193422D01*
X-24944000Y60710578D02*
X-24944000Y60193422D01*
%TO.C,D91*%
X-70711800Y-58262600D02*
X-70711800Y-54362600D01*
X-70711800Y-58262600D02*
X-72711800Y-58262600D01*
X-72711800Y-58262600D02*
X-72711800Y-54362600D01*
%TO.C,D52*%
X143651500Y-21188000D02*
X141651500Y-21188000D01*
X141651500Y-21188000D02*
X141651500Y-17288000D01*
X143651500Y-21188000D02*
X143651500Y-17288000D01*
%TO.C,D88*%
X248363000Y-63037800D02*
X248363000Y-59137800D01*
X248363000Y-63037800D02*
X246363000Y-63037800D01*
X246363000Y-63037800D02*
X246363000Y-59137800D01*
%TO.C,C14*%
X78836578Y108637000D02*
X78319422Y108637000D01*
X78836578Y110057000D02*
X78319422Y110057000D01*
%TO.C,C10*%
X-56383422Y38025000D02*
X-56900578Y38025000D01*
X-56383422Y39445000D02*
X-56900578Y39445000D01*
%TO.C,D34*%
X117839000Y-2138000D02*
X117839000Y1762000D01*
X119839000Y-2138000D02*
X117839000Y-2138000D01*
X119839000Y-2138000D02*
X119839000Y1762000D01*
%TO.C,D75*%
X-72711800Y-40212600D02*
X-72711800Y-36312600D01*
X-70711800Y-40212600D02*
X-70711800Y-36312600D01*
X-70711800Y-40212600D02*
X-72711800Y-40212600D01*
%TO.C,D53*%
X160701500Y-21188000D02*
X160701500Y-17288000D01*
X162701500Y-21188000D02*
X160701500Y-21188000D01*
X162701500Y-21188000D02*
X162701500Y-17288000D01*
%TO.C,D13*%
X238901500Y40788000D02*
X236901500Y40788000D01*
X236901500Y40788000D02*
X236901500Y44688000D01*
X238901500Y40788000D02*
X238901500Y44688000D01*
%TO.C,D60*%
X-51661800Y-21162600D02*
X-51661800Y-17262600D01*
X-51661800Y-21162600D02*
X-53661800Y-21162600D01*
X-53661800Y-21162600D02*
X-53661800Y-17262600D01*
%TO.C,D20*%
X15013200Y16937400D02*
X15013200Y20837400D01*
X13013200Y16937400D02*
X13013200Y20837400D01*
X15013200Y16937400D02*
X13013200Y16937400D01*
%TO.C,D29*%
X205564000Y16912000D02*
X205564000Y20812000D01*
X203564000Y16912000D02*
X203564000Y20812000D01*
X205564000Y16912000D02*
X203564000Y16912000D01*
%TO.C,D61*%
X-12180550Y-21162600D02*
X-12180550Y-17262600D01*
X-12180550Y-21162600D02*
X-14180550Y-21162600D01*
X-14180550Y-21162600D02*
X-14180550Y-17262600D01*
%TO.C,D48*%
X43588200Y-2112600D02*
X41588200Y-2112600D01*
X41588200Y-2112600D02*
X41588200Y1787400D01*
X43588200Y-2112600D02*
X43588200Y1787400D01*
%TO.C,C17*%
X46867578Y121591000D02*
X46350422Y121591000D01*
X46867578Y123011000D02*
X46350422Y123011000D01*
%TO.C,D69*%
X170226500Y-40238000D02*
X170226500Y-36338000D01*
X172226500Y-40238000D02*
X172226500Y-36338000D01*
X172226500Y-40238000D02*
X170226500Y-40238000D01*
%TO.C,Y2*%
X50359000Y137701000D02*
X50359000Y133201000D01*
X50359000Y133201000D02*
X44959000Y133201000D01*
%TO.C,D65*%
X67400700Y-21162600D02*
X67400700Y-17262600D01*
X67400700Y-21162600D02*
X65400700Y-21162600D01*
X65400700Y-21162600D02*
X65400700Y-17262600D01*
%TO.C,Y1*%
X-47828357Y23439179D02*
X-44646376Y20257198D01*
X-44646376Y20257198D02*
X-48464753Y16438821D01*
%TO.C,R8*%
X78836578Y105687000D02*
X78319422Y105687000D01*
X78836578Y107107000D02*
X78319422Y107107000D01*
%TO.C,D14*%
X260714000Y40788000D02*
X260714000Y44688000D01*
X262714000Y40788000D02*
X260714000Y40788000D01*
X262714000Y40788000D02*
X262714000Y44688000D01*
%TO.C,D90*%
X283463000Y-63537800D02*
X283463000Y-59637800D01*
X283463000Y-63537800D02*
X281463000Y-63537800D01*
X281463000Y-63537800D02*
X281463000Y-59637800D01*
%TO.C,D72*%
X236520250Y-40238000D02*
X236520250Y-36338000D01*
X234520250Y-40238000D02*
X234520250Y-36338000D01*
X236520250Y-40238000D02*
X234520250Y-40238000D01*
%TO.C,D18*%
X-23086800Y16937400D02*
X-25086800Y16937400D01*
X-23086800Y16937400D02*
X-23086800Y20837400D01*
X-25086800Y16937400D02*
X-25086800Y20837400D01*
%TO.C,D80*%
X57875700Y-40212600D02*
X57875700Y-36312600D01*
X55875700Y-40212600D02*
X55875700Y-36312600D01*
X57875700Y-40212600D02*
X55875700Y-40212600D01*
%TO.C,D1*%
X-23086800Y40749900D02*
X-23086800Y44649900D01*
X-25086800Y40749900D02*
X-25086800Y44649900D01*
X-23086800Y40749900D02*
X-25086800Y40749900D01*
%TO.C,C2*%
X-19553422Y109669000D02*
X-20070578Y109669000D01*
X-19553422Y108249000D02*
X-20070578Y108249000D01*
%TO.C,D76*%
X-53661800Y-40212600D02*
X-53661800Y-36312600D01*
X-51661800Y-40212600D02*
X-51661800Y-36312600D01*
X-51661800Y-40212600D02*
X-53661800Y-40212600D01*
%TO.C,D35*%
X138889000Y-2138000D02*
X138889000Y1762000D01*
X138889000Y-2138000D02*
X136889000Y-2138000D01*
X136889000Y-2138000D02*
X136889000Y1762000D01*
%TO.C,C15*%
X74116578Y114537000D02*
X73599422Y114537000D01*
X74116578Y115957000D02*
X73599422Y115957000D01*
%TO.C,D67*%
X132126500Y-40238000D02*
X132126500Y-36338000D01*
X134126500Y-40238000D02*
X132126500Y-40238000D01*
X134126500Y-40238000D02*
X134126500Y-36338000D01*
%TO.C,D4*%
X38825700Y40749900D02*
X38825700Y44649900D01*
X36825700Y40749900D02*
X36825700Y44649900D01*
X38825700Y40749900D02*
X36825700Y40749900D01*
%TO.C,D86*%
X205564000Y-58288000D02*
X205564000Y-54388000D01*
X205564000Y-58288000D02*
X203564000Y-58288000D01*
X203564000Y-58288000D02*
X203564000Y-54388000D01*
%TO.C,D8*%
X138889000Y40788000D02*
X136889000Y40788000D01*
X138889000Y40788000D02*
X138889000Y44688000D01*
X136889000Y40788000D02*
X136889000Y44688000D01*
%TO.C,C11*%
X-66473000Y27935422D02*
X-66473000Y28452578D01*
X-67893000Y27935422D02*
X-67893000Y28452578D01*
%TO.C,D32*%
X250189000Y16912000D02*
X248189000Y16912000D01*
X248189000Y16912000D02*
X248189000Y20812000D01*
X250189000Y16912000D02*
X250189000Y20812000D01*
%TO.C,D37*%
X176989000Y-2138000D02*
X174989000Y-2138000D01*
X174989000Y-2138000D02*
X174989000Y1762000D01*
X176989000Y-2138000D02*
X176989000Y1762000D01*
%TO.C,C3*%
X-46037443Y22413796D02*
X-45671759Y22048112D01*
X-45033351Y23417888D02*
X-44667667Y23052204D01*
%TO.C,D74*%
X288289000Y-40238000D02*
X286289000Y-40238000D01*
X288289000Y-40238000D02*
X288289000Y-36338000D01*
X286289000Y-40238000D02*
X286289000Y-36338000D01*
D10*
%TO.C,U1*%
X-9146000Y69850000D02*
X-9146000Y57750000D01*
X-8896000Y71850000D02*
X-3296000Y71850000D01*
X-8896000Y69850000D02*
X-8896000Y71850000D01*
X-9146000Y69850000D02*
X-3046000Y69850000D01*
X-9146000Y57750000D02*
X-3046000Y57750000D01*
X-3296000Y69850000D02*
X-3296000Y71850000D01*
X-3046000Y69850000D02*
X-3046000Y57750000D01*
D11*
%TO.C,C6*%
X51277578Y123011000D02*
X50760422Y123011000D01*
X51277578Y121591000D02*
X50760422Y121591000D01*
%TO.C,R3*%
X-16816000Y59948578D02*
X-16816000Y59431422D01*
X-18236000Y59948578D02*
X-18236000Y59431422D01*
%TO.C,R4*%
X-23963422Y109669000D02*
X-24480578Y109669000D01*
X-23963422Y108249000D02*
X-24480578Y108249000D01*
%TO.C,C5*%
X-51259759Y16460112D02*
X-51625443Y16825796D01*
X-50255667Y17464204D02*
X-50621351Y17829888D01*
%TO.C,D2*%
X725700Y40749900D02*
X725700Y44649900D01*
X725700Y40749900D02*
X-1274300Y40749900D01*
X-1274300Y40749900D02*
X-1274300Y44649900D01*
%TO.C,D55*%
X200801500Y-21188000D02*
X200801500Y-17288000D01*
X200801500Y-21188000D02*
X198801500Y-21188000D01*
X198801500Y-21188000D02*
X198801500Y-17288000D01*
%TO.C,D64*%
X48350700Y-21162600D02*
X46350700Y-21162600D01*
X46350700Y-21162600D02*
X46350700Y-17262600D01*
X48350700Y-21162600D02*
X48350700Y-17262600D01*
%TO.C,F2*%
X51277578Y131861000D02*
X50760422Y131861000D01*
X51277578Y130441000D02*
X50760422Y130441000D01*
%TO.C,C13*%
X-53344578Y37390000D02*
X-52827422Y37390000D01*
X-53344578Y38810000D02*
X-52827422Y38810000D01*
%TO.C,F1*%
X-19356000Y56646578D02*
X-19356000Y56129422D01*
X-20776000Y56646578D02*
X-20776000Y56129422D01*
%TO.C,D36*%
X157939000Y-2138000D02*
X155939000Y-2138000D01*
X157939000Y-2138000D02*
X157939000Y1762000D01*
X155939000Y-2138000D02*
X155939000Y1762000D01*
%TO.C,D21*%
X32063200Y16937400D02*
X32063200Y20837400D01*
X34063200Y16937400D02*
X32063200Y16937400D01*
X34063200Y16937400D02*
X34063200Y20837400D01*
%TO.C,D92*%
X-51661800Y-58262600D02*
X-53661800Y-58262600D01*
X-53661800Y-58262600D02*
X-53661800Y-54362600D01*
X-51661800Y-58262600D02*
X-51661800Y-54362600D01*
%TO.C,R7*%
X-43819578Y36397000D02*
X-43302422Y36397000D01*
X-43819578Y34977000D02*
X-43302422Y34977000D01*
%TO.C,D54*%
X181751500Y-21188000D02*
X181751500Y-17288000D01*
X181751500Y-21188000D02*
X179751500Y-21188000D01*
X179751500Y-21188000D02*
X179751500Y-17288000D01*
%TO.C,D42*%
X288289000Y-2138000D02*
X286289000Y-2138000D01*
X288289000Y-2138000D02*
X288289000Y1762000D01*
X286289000Y-2138000D02*
X286289000Y1762000D01*
%TO.C,D41*%
X257951500Y-2138000D02*
X255951500Y-2138000D01*
X255951500Y-2138000D02*
X255951500Y1762000D01*
X257951500Y-2138000D02*
X257951500Y1762000D01*
%TO.C,D40*%
X232139000Y-2138000D02*
X232139000Y1762000D01*
X234139000Y-2138000D02*
X232139000Y-2138000D01*
X234139000Y-2138000D02*
X234139000Y1762000D01*
%TO.C,C8*%
X46867578Y131861000D02*
X46350422Y131861000D01*
X46867578Y130441000D02*
X46350422Y130441000D01*
%TO.C,D73*%
X265413000Y-44987800D02*
X265413000Y-41087800D01*
X267413000Y-44987800D02*
X267413000Y-41087800D01*
X267413000Y-44987800D02*
X265413000Y-44987800D01*
%TO.C,D78*%
X19775700Y-40212600D02*
X17775700Y-40212600D01*
X17775700Y-40212600D02*
X17775700Y-36312600D01*
X19775700Y-40212600D02*
X19775700Y-36312600D01*
%TO.C,D39*%
X213089000Y-2138000D02*
X213089000Y1762000D01*
X215089000Y-2138000D02*
X213089000Y-2138000D01*
X215089000Y-2138000D02*
X215089000Y1762000D01*
%TO.C,D58*%
X288289000Y-21188000D02*
X286289000Y-21188000D01*
X288289000Y-21188000D02*
X288289000Y-17288000D01*
X286289000Y-21188000D02*
X286289000Y-17288000D01*
%TO.C,C16*%
X46867578Y128911000D02*
X46350422Y128911000D01*
X46867578Y127491000D02*
X46350422Y127491000D01*
%TO.C,D5*%
X57875700Y40749900D02*
X55875700Y40749900D01*
X57875700Y40749900D02*
X57875700Y44649900D01*
X55875700Y40749900D02*
X55875700Y44649900D01*
%TO.C,D38*%
X196039000Y-2138000D02*
X194039000Y-2138000D01*
X196039000Y-2138000D02*
X196039000Y1762000D01*
X194039000Y-2138000D02*
X194039000Y1762000D01*
%TO.C,D85*%
X186514000Y-58288000D02*
X186514000Y-54388000D01*
X186514000Y-58288000D02*
X184514000Y-58288000D01*
X184514000Y-58288000D02*
X184514000Y-54388000D01*
%TO.C,D70*%
X191276500Y-40238000D02*
X189276500Y-40238000D01*
X191276500Y-40238000D02*
X191276500Y-36338000D01*
X189276500Y-40238000D02*
X189276500Y-36338000D01*
%TO.C,D28*%
X184514000Y16912000D02*
X184514000Y20812000D01*
X186514000Y16912000D02*
X186514000Y20812000D01*
X186514000Y16912000D02*
X184514000Y16912000D01*
%TO.C,D77*%
X-13180550Y-40212600D02*
X-15180550Y-40212600D01*
X-15180550Y-40212600D02*
X-15180550Y-36312600D01*
X-13180550Y-40212600D02*
X-13180550Y-36312600D01*
%TO.C,C4*%
X78836578Y117487000D02*
X78319422Y117487000D01*
X78836578Y118907000D02*
X78319422Y118907000D01*
%TO.C,D26*%
X148414000Y16912000D02*
X148414000Y20812000D01*
X146414000Y16912000D02*
X146414000Y20812000D01*
X148414000Y16912000D02*
X146414000Y16912000D01*
%TO.C,R11*%
X-68518204Y24207112D02*
X-68883888Y24572796D01*
X-67514112Y25211204D02*
X-67879796Y25576888D01*
%TO.C,D15*%
X288289000Y40788000D02*
X286289000Y40788000D01*
X288289000Y40788000D02*
X288289000Y44688000D01*
X286289000Y40788000D02*
X286289000Y44688000D01*
%TD*%
M02*
